<svg xmlns="http://www.w3.org/2000/svg" xmlns:xlink="http://www.w3.org/1999/xlink" width="272.5" height="373.894" viewBox="0 0 272.5 373.894">
  <defs>
    <linearGradient id="linear-gradient" x1="0.5" x2="0.5" y2="1" gradientUnits="objectBoundingBox">
      <stop offset="0" stop-color="#7e89be"/>
      <stop offset="1" stop-color="#29398a"/>
    </linearGradient>
    <linearGradient id="linear-gradient-2" x1="0.5" x2="0.5" y2="1" gradientUnits="objectBoundingBox">
      <stop offset="0" stop-color="#ba68c8"/>
      <stop offset="0.19" stop-color="#9139af"/>
      <stop offset="0.31" stop-color="#7b1fa2"/>
      <stop offset="1" stop-color="#45147b"/>
    </linearGradient>
  </defs>
  <g id="_1" data-name="1" transform="translate(-202.75 -2903.77)">
    <g id="Group_148644" data-name="Group 148644" transform="translate(202.75 2960.628)" opacity="0.76">
      <path id="Path_145969" data-name="Path 145969" d="M33.552,0A33.552,33.552,0,1,1,0,33.552,33.552,33.552,0,0,1,33.552,0Z" transform="translate(204.624)" opacity="0.6" fill="url(#linear-gradient)" style="mix-blend-mode: multiply;isolation: isolate"/>
      <rect id="Rectangle_34812" data-name="Rectangle 34812" width="261.766" height="180.936" transform="translate(0 27.524)" fill="none"/>
      <path id="Path_145971" data-name="Path 145971" d="M21.209,0A21.209,21.209,0,1,1,0,21.209,21.209,21.209,0,0,1,21.209,0Z" transform="translate(195.758 267.932)" fill="#fda929" opacity="0.444" style="mix-blend-mode: multiply;isolation: isolate"/>
      <g id="Group_145732" data-name="Group 145732" transform="translate(25.768 218.829)">
        <path id="Path_145968" data-name="Path 145968" d="M49.1,0A49.1,49.1,0,1,1,0,49.1,49.1,49.1,0,0,1,49.1,0Z" transform="translate(0 0)" opacity="0.444" fill="url(#linear-gradient-2)" style="mix-blend-mode: multiply;isolation: isolate"/>
        <g id="Group_78276" data-name="Group 78276" transform="translate(18.405 20.246)">
          <g id="Group_53306" data-name="Group 53306" transform="translate(0)">
            <path id="Path_99200" data-name="Path 99200" d="M415.547,50.861a.667.667,0,1,1-.667-.637A.653.653,0,0,1,415.547,50.861Z" transform="translate(-414.214 -50.224)" fill="url(#linear-gradient-2)"/>
            <path id="Path_99201" data-name="Path 99201" d="M423.993,50.861a.667.667,0,1,1-.666-.637A.652.652,0,0,1,423.993,50.861Z" transform="translate(-416.659 -50.224)" fill="url(#linear-gradient-2)"/>
            <path id="Path_99202" data-name="Path 99202" d="M432.439,50.861a.667.667,0,1,1-.666-.637A.652.652,0,0,1,432.439,50.861Z" transform="translate(-419.105 -50.224)" fill="url(#linear-gradient-2)"/>
            <path id="Path_99203" data-name="Path 99203" d="M440.887,50.861a.667.667,0,1,1-.667-.637A.653.653,0,0,1,440.887,50.861Z" transform="translate(-421.55 -50.224)" fill="url(#linear-gradient-2)"/>
            <path id="Path_99204" data-name="Path 99204" d="M449.332,50.861a.667.667,0,1,1-.666-.637A.653.653,0,0,1,449.332,50.861Z" transform="translate(-423.996 -50.224)" fill="url(#linear-gradient-2)"/>
            <path id="Path_99205" data-name="Path 99205" d="M457.778,50.861a.667.667,0,1,1-.666-.637A.652.652,0,0,1,457.778,50.861Z" transform="translate(-426.441 -50.224)" fill="url(#linear-gradient-2)"/>
            <path id="Path_99206" data-name="Path 99206" d="M466.226,50.861a.667.667,0,1,1-.667-.637A.653.653,0,0,1,466.226,50.861Z" transform="translate(-428.887 -50.224)" fill="url(#linear-gradient-2)"/>
            <path id="Path_99207" data-name="Path 99207" d="M474.672,50.861a.667.667,0,1,1-.667-.637A.653.653,0,0,1,474.672,50.861Z" transform="translate(-431.332 -50.224)" fill="url(#linear-gradient-2)"/>
            <path id="Path_99208" data-name="Path 99208" d="M483.118,50.861a.667.667,0,1,1-.667-.637A.653.653,0,0,1,483.118,50.861Z" transform="translate(-433.777 -50.224)" fill="url(#linear-gradient-2)"/>
            <path id="Path_99209" data-name="Path 99209" d="M491.564,50.861a.667.667,0,1,1-.667-.637A.653.653,0,0,1,491.564,50.861Z" transform="translate(-436.223 -50.224)" fill="url(#linear-gradient-2)"/>
            <path id="Path_99210" data-name="Path 99210" d="M500.011,50.861a.667.667,0,1,1-.667-.637A.653.653,0,0,1,500.011,50.861Z" transform="translate(-438.669 -50.224)" fill="url(#linear-gradient-2)"/>
          </g>
          <g id="Group_53307" data-name="Group 53307" transform="translate(0 5.101)">
            <path id="Path_99211" data-name="Path 99211" d="M415.547,58.369a.667.667,0,1,1-.667-.637A.653.653,0,0,1,415.547,58.369Z" transform="translate(-414.214 -57.732)" fill="url(#linear-gradient-2)"/>
            <path id="Path_99212" data-name="Path 99212" d="M423.993,58.369a.667.667,0,1,1-.666-.637A.652.652,0,0,1,423.993,58.369Z" transform="translate(-416.659 -57.732)" fill="url(#linear-gradient-2)"/>
            <path id="Path_99213" data-name="Path 99213" d="M432.439,58.369a.667.667,0,1,1-.666-.637A.652.652,0,0,1,432.439,58.369Z" transform="translate(-419.105 -57.732)" fill="url(#linear-gradient-2)"/>
            <path id="Path_99214" data-name="Path 99214" d="M440.887,58.369a.667.667,0,1,1-.667-.637A.653.653,0,0,1,440.887,58.369Z" transform="translate(-421.55 -57.732)" fill="url(#linear-gradient-2)"/>
            <path id="Path_99215" data-name="Path 99215" d="M449.332,58.369a.667.667,0,1,1-.666-.637A.653.653,0,0,1,449.332,58.369Z" transform="translate(-423.996 -57.732)" fill="url(#linear-gradient-2)"/>
            <path id="Path_99216" data-name="Path 99216" d="M457.778,58.369a.667.667,0,1,1-.666-.637A.652.652,0,0,1,457.778,58.369Z" transform="translate(-426.441 -57.732)" fill="url(#linear-gradient-2)"/>
            <path id="Path_99217" data-name="Path 99217" d="M466.226,58.369a.667.667,0,1,1-.667-.637A.653.653,0,0,1,466.226,58.369Z" transform="translate(-428.887 -57.732)" fill="url(#linear-gradient-2)"/>
            <path id="Path_99218" data-name="Path 99218" d="M474.672,58.369a.667.667,0,1,1-.667-.637A.653.653,0,0,1,474.672,58.369Z" transform="translate(-431.332 -57.732)" fill="url(#linear-gradient-2)"/>
            <path id="Path_99219" data-name="Path 99219" d="M483.118,58.369a.667.667,0,1,1-.667-.637A.653.653,0,0,1,483.118,58.369Z" transform="translate(-433.777 -57.732)" fill="url(#linear-gradient-2)"/>
            <path id="Path_99220" data-name="Path 99220" d="M491.564,58.369a.667.667,0,1,1-.667-.637A.653.653,0,0,1,491.564,58.369Z" transform="translate(-436.223 -57.732)" fill="url(#linear-gradient-2)"/>
            <path id="Path_99221" data-name="Path 99221" d="M500.011,58.369a.667.667,0,1,1-.667-.637A.653.653,0,0,1,500.011,58.369Z" transform="translate(-438.669 -57.732)" fill="url(#linear-gradient-2)"/>
          </g>
          <g id="Group_53308" data-name="Group 53308" transform="translate(0 10.202)">
            <ellipse id="Ellipse_3955" data-name="Ellipse 3955" cx="0.667" cy="0.638" rx="0.667" ry="0.638" fill="url(#linear-gradient-2)"/>
            <path id="Path_99222" data-name="Path 99222" d="M423.993,65.877a.667.667,0,1,1-.666-.637A.653.653,0,0,1,423.993,65.877Z" transform="translate(-416.659 -65.24)" fill="url(#linear-gradient-2)"/>
            <ellipse id="Ellipse_3956" data-name="Ellipse 3956" cx="0.667" cy="0.638" rx="0.667" ry="0.638" transform="translate(12.002)" fill="url(#linear-gradient-2)"/>
            <path id="Path_99223" data-name="Path 99223" d="M440.887,65.877a.667.667,0,1,1-.667-.637A.653.653,0,0,1,440.887,65.877Z" transform="translate(-421.55 -65.24)" fill="url(#linear-gradient-2)"/>
            <path id="Path_99224" data-name="Path 99224" d="M449.332,65.877a.667.667,0,1,1-.666-.637A.653.653,0,0,1,449.332,65.877Z" transform="translate(-423.996 -65.24)" fill="url(#linear-gradient-2)"/>
            <ellipse id="Ellipse_3957" data-name="Ellipse 3957" cx="0.667" cy="0.638" rx="0.667" ry="0.638" transform="translate(30.004)" fill="url(#linear-gradient-2)"/>
            <path id="Path_99225" data-name="Path 99225" d="M466.226,65.877a.667.667,0,1,1-.667-.637A.654.654,0,0,1,466.226,65.877Z" transform="translate(-428.887 -65.24)" fill="url(#linear-gradient-2)"/>
            <ellipse id="Ellipse_3958" data-name="Ellipse 3958" cx="0.667" cy="0.638" rx="0.667" ry="0.638" transform="translate(42.006)" fill="url(#linear-gradient-2)"/>
            <ellipse id="Ellipse_3959" data-name="Ellipse 3959" cx="0.667" cy="0.638" rx="0.667" ry="0.638" transform="translate(48.007)" fill="url(#linear-gradient-2)"/>
            <path id="Path_99226" data-name="Path 99226" d="M491.564,65.877a.667.667,0,1,1-.667-.637A.654.654,0,0,1,491.564,65.877Z" transform="translate(-436.223 -65.24)" fill="url(#linear-gradient-2)"/>
            <path id="Path_99227" data-name="Path 99227" d="M500.011,65.877a.667.667,0,1,1-.667-.637A.653.653,0,0,1,500.011,65.877Z" transform="translate(-438.669 -65.24)" fill="url(#linear-gradient-2)"/>
          </g>
          <g id="Group_53309" data-name="Group 53309" transform="translate(0 15.303)">
            <ellipse id="Ellipse_3960" data-name="Ellipse 3960" cx="0.667" cy="0.638" rx="0.667" ry="0.638" transform="translate(0 0)" fill="url(#linear-gradient-2)"/>
            <path id="Path_99228" data-name="Path 99228" d="M423.993,73.385a.667.667,0,1,1-.666-.638A.652.652,0,0,1,423.993,73.385Z" transform="translate(-416.659 -72.747)" fill="url(#linear-gradient-2)"/>
            <ellipse id="Ellipse_3961" data-name="Ellipse 3961" cx="0.667" cy="0.638" rx="0.667" ry="0.638" transform="translate(12.002 0)" fill="url(#linear-gradient-2)"/>
            <path id="Path_99229" data-name="Path 99229" d="M440.887,73.385a.667.667,0,1,1-.667-.638A.653.653,0,0,1,440.887,73.385Z" transform="translate(-421.55 -72.747)" fill="url(#linear-gradient-2)"/>
            <path id="Path_99230" data-name="Path 99230" d="M449.332,73.385a.667.667,0,1,1-.666-.638A.652.652,0,0,1,449.332,73.385Z" transform="translate(-423.996 -72.747)" fill="url(#linear-gradient-2)"/>
            <ellipse id="Ellipse_3962" data-name="Ellipse 3962" cx="0.667" cy="0.638" rx="0.667" ry="0.638" transform="translate(30.004 0)" fill="url(#linear-gradient-2)"/>
            <path id="Path_99231" data-name="Path 99231" d="M466.226,73.385a.667.667,0,1,1-.667-.638A.653.653,0,0,1,466.226,73.385Z" transform="translate(-428.887 -72.747)" fill="url(#linear-gradient-2)"/>
            <ellipse id="Ellipse_3963" data-name="Ellipse 3963" cx="0.667" cy="0.638" rx="0.667" ry="0.638" transform="translate(42.006 0)" fill="url(#linear-gradient-2)"/>
            <ellipse id="Ellipse_3964" data-name="Ellipse 3964" cx="0.667" cy="0.638" rx="0.667" ry="0.638" transform="translate(48.007 0)" fill="url(#linear-gradient-2)"/>
            <path id="Path_99232" data-name="Path 99232" d="M491.564,73.385a.667.667,0,1,1-.667-.638A.653.653,0,0,1,491.564,73.385Z" transform="translate(-436.223 -72.747)" fill="url(#linear-gradient-2)"/>
            <path id="Path_99233" data-name="Path 99233" d="M500.011,73.385a.667.667,0,1,1-.667-.638A.653.653,0,0,1,500.011,73.385Z" transform="translate(-438.669 -72.747)" fill="url(#linear-gradient-2)"/>
          </g>
          <g id="Group_53310" data-name="Group 53310" transform="translate(0 20.404)">
            <path id="Path_99234" data-name="Path 99234" d="M415.547,80.893a.667.667,0,1,1-.667-.638A.653.653,0,0,1,415.547,80.893Z" transform="translate(-414.214 -80.255)" fill="url(#linear-gradient-2)"/>
            <path id="Path_99235" data-name="Path 99235" d="M423.993,80.893a.667.667,0,1,1-.666-.638A.652.652,0,0,1,423.993,80.893Z" transform="translate(-416.659 -80.255)" fill="url(#linear-gradient-2)"/>
            <path id="Path_99236" data-name="Path 99236" d="M432.439,80.893a.667.667,0,1,1-.666-.638A.652.652,0,0,1,432.439,80.893Z" transform="translate(-419.105 -80.255)" fill="url(#linear-gradient-2)"/>
            <path id="Path_99237" data-name="Path 99237" d="M440.887,80.893a.667.667,0,1,1-.667-.638A.653.653,0,0,1,440.887,80.893Z" transform="translate(-421.55 -80.255)" fill="url(#linear-gradient-2)"/>
            <path id="Path_99238" data-name="Path 99238" d="M449.332,80.893a.667.667,0,1,1-.666-.638A.652.652,0,0,1,449.332,80.893Z" transform="translate(-423.996 -80.255)" fill="url(#linear-gradient-2)"/>
            <path id="Path_99239" data-name="Path 99239" d="M457.778,80.893a.667.667,0,1,1-.666-.638A.652.652,0,0,1,457.778,80.893Z" transform="translate(-426.441 -80.255)" fill="url(#linear-gradient-2)"/>
            <path id="Path_99240" data-name="Path 99240" d="M466.226,80.893a.667.667,0,1,1-.667-.638A.653.653,0,0,1,466.226,80.893Z" transform="translate(-428.887 -80.255)" fill="url(#linear-gradient-2)"/>
            <path id="Path_99241" data-name="Path 99241" d="M474.672,80.893a.667.667,0,1,1-.667-.638A.652.652,0,0,1,474.672,80.893Z" transform="translate(-431.332 -80.255)" fill="url(#linear-gradient-2)"/>
            <path id="Path_99242" data-name="Path 99242" d="M483.118,80.893a.667.667,0,1,1-.667-.638A.652.652,0,0,1,483.118,80.893Z" transform="translate(-433.777 -80.255)" fill="url(#linear-gradient-2)"/>
            <path id="Path_99243" data-name="Path 99243" d="M491.564,80.893a.667.667,0,1,1-.667-.638A.653.653,0,0,1,491.564,80.893Z" transform="translate(-436.223 -80.255)" fill="url(#linear-gradient-2)"/>
            <path id="Path_99244" data-name="Path 99244" d="M500.011,80.893a.667.667,0,1,1-.667-.638A.653.653,0,0,1,500.011,80.893Z" transform="translate(-438.669 -80.255)" fill="url(#linear-gradient-2)"/>
          </g>
          <g id="Group_53311" data-name="Group 53311" transform="translate(0 25.505)">
            <ellipse id="Ellipse_3965" data-name="Ellipse 3965" cx="0.667" cy="0.638" rx="0.667" ry="0.638" transform="translate(0 0)" fill="url(#linear-gradient-2)"/>
            <path id="Path_99245" data-name="Path 99245" d="M423.993,88.4a.667.667,0,1,1-.666-.638A.652.652,0,0,1,423.993,88.4Z" transform="translate(-416.659 -87.763)" fill="url(#linear-gradient-2)"/>
            <ellipse id="Ellipse_3966" data-name="Ellipse 3966" cx="0.667" cy="0.638" rx="0.667" ry="0.638" transform="translate(12.002 0)" fill="url(#linear-gradient-2)"/>
            <path id="Path_99246" data-name="Path 99246" d="M440.887,88.4a.667.667,0,1,1-.667-.638A.653.653,0,0,1,440.887,88.4Z" transform="translate(-421.55 -87.763)" fill="url(#linear-gradient-2)"/>
            <path id="Path_99247" data-name="Path 99247" d="M449.332,88.4a.667.667,0,1,1-.666-.638A.652.652,0,0,1,449.332,88.4Z" transform="translate(-423.996 -87.763)" fill="url(#linear-gradient-2)"/>
            <ellipse id="Ellipse_3967" data-name="Ellipse 3967" cx="0.667" cy="0.638" rx="0.667" ry="0.638" transform="translate(30.004 0)" fill="url(#linear-gradient-2)"/>
            <path id="Path_99248" data-name="Path 99248" d="M466.226,88.4a.667.667,0,1,1-.667-.638A.653.653,0,0,1,466.226,88.4Z" transform="translate(-428.887 -87.763)" fill="url(#linear-gradient-2)"/>
            <ellipse id="Ellipse_3968" data-name="Ellipse 3968" cx="0.667" cy="0.638" rx="0.667" ry="0.638" transform="translate(42.006 0)" fill="url(#linear-gradient-2)"/>
            <ellipse id="Ellipse_3969" data-name="Ellipse 3969" cx="0.667" cy="0.638" rx="0.667" ry="0.638" transform="translate(48.007 0)" fill="url(#linear-gradient-2)"/>
            <path id="Path_99249" data-name="Path 99249" d="M491.564,88.4a.667.667,0,1,1-.667-.638A.653.653,0,0,1,491.564,88.4Z" transform="translate(-436.223 -87.763)" fill="url(#linear-gradient-2)"/>
            <path id="Path_99250" data-name="Path 99250" d="M500.011,88.4a.667.667,0,1,1-.667-.638A.653.653,0,0,1,500.011,88.4Z" transform="translate(-438.669 -87.763)" fill="url(#linear-gradient-2)"/>
          </g>
          <g id="Group_53312" data-name="Group 53312" transform="translate(0 30.607)">
            <ellipse id="Ellipse_3970" data-name="Ellipse 3970" cx="0.667" cy="0.638" rx="0.667" ry="0.638" fill="url(#linear-gradient-2)"/>
            <path id="Path_99251" data-name="Path 99251" d="M423.993,95.908a.667.667,0,1,1-.666-.637A.653.653,0,0,1,423.993,95.908Z" transform="translate(-416.659 -95.271)" fill="url(#linear-gradient-2)"/>
            <ellipse id="Ellipse_3971" data-name="Ellipse 3971" cx="0.667" cy="0.638" rx="0.667" ry="0.638" transform="translate(12.002)" fill="url(#linear-gradient-2)"/>
            <path id="Path_99252" data-name="Path 99252" d="M440.887,95.908a.667.667,0,1,1-.667-.637A.653.653,0,0,1,440.887,95.908Z" transform="translate(-421.55 -95.271)" fill="url(#linear-gradient-2)"/>
            <path id="Path_99253" data-name="Path 99253" d="M449.332,95.908a.667.667,0,1,1-.666-.637A.653.653,0,0,1,449.332,95.908Z" transform="translate(-423.996 -95.271)" fill="url(#linear-gradient-2)"/>
            <ellipse id="Ellipse_3972" data-name="Ellipse 3972" cx="0.667" cy="0.638" rx="0.667" ry="0.638" transform="translate(30.004)" fill="url(#linear-gradient-2)"/>
            <path id="Path_99254" data-name="Path 99254" d="M466.226,95.908a.667.667,0,1,1-.667-.637A.653.653,0,0,1,466.226,95.908Z" transform="translate(-428.887 -95.271)" fill="url(#linear-gradient-2)"/>
            <ellipse id="Ellipse_3973" data-name="Ellipse 3973" cx="0.667" cy="0.638" rx="0.667" ry="0.638" transform="translate(42.006)" fill="url(#linear-gradient-2)"/>
            <ellipse id="Ellipse_3974" data-name="Ellipse 3974" cx="0.667" cy="0.638" rx="0.667" ry="0.638" transform="translate(48.007)" fill="url(#linear-gradient-2)"/>
            <path id="Path_99255" data-name="Path 99255" d="M491.564,95.908a.667.667,0,1,1-.667-.637A.653.653,0,0,1,491.564,95.908Z" transform="translate(-436.223 -95.271)" fill="url(#linear-gradient-2)"/>
            <path id="Path_99256" data-name="Path 99256" d="M500.011,95.908a.667.667,0,1,1-.667-.637A.653.653,0,0,1,500.011,95.908Z" transform="translate(-438.669 -95.271)" fill="url(#linear-gradient-2)"/>
          </g>
          <g id="Group_53313" data-name="Group 53313" transform="translate(0 35.708)">
            <path id="Path_99257" data-name="Path 99257" d="M415.547,103.416a.667.667,0,1,1-.667-.637A.653.653,0,0,1,415.547,103.416Z" transform="translate(-414.214 -102.779)" fill="url(#linear-gradient-2)"/>
            <path id="Path_99258" data-name="Path 99258" d="M423.993,103.416a.667.667,0,1,1-.666-.637A.652.652,0,0,1,423.993,103.416Z" transform="translate(-416.659 -102.779)" fill="url(#linear-gradient-2)"/>
            <path id="Path_99259" data-name="Path 99259" d="M432.439,103.416a.667.667,0,1,1-.666-.637A.652.652,0,0,1,432.439,103.416Z" transform="translate(-419.105 -102.779)" fill="url(#linear-gradient-2)"/>
            <path id="Path_99260" data-name="Path 99260" d="M440.887,103.416a.667.667,0,1,1-.667-.637A.653.653,0,0,1,440.887,103.416Z" transform="translate(-421.55 -102.779)" fill="url(#linear-gradient-2)"/>
            <path id="Path_99261" data-name="Path 99261" d="M449.332,103.416a.667.667,0,1,1-.666-.637A.653.653,0,0,1,449.332,103.416Z" transform="translate(-423.996 -102.779)" fill="url(#linear-gradient-2)"/>
            <path id="Path_99262" data-name="Path 99262" d="M457.778,103.416a.667.667,0,1,1-.666-.637A.652.652,0,0,1,457.778,103.416Z" transform="translate(-426.441 -102.779)" fill="url(#linear-gradient-2)"/>
            <path id="Path_99263" data-name="Path 99263" d="M466.226,103.416a.667.667,0,1,1-.667-.637A.653.653,0,0,1,466.226,103.416Z" transform="translate(-428.887 -102.779)" fill="url(#linear-gradient-2)"/>
            <path id="Path_99264" data-name="Path 99264" d="M474.672,103.416a.667.667,0,1,1-.667-.637A.653.653,0,0,1,474.672,103.416Z" transform="translate(-431.332 -102.779)" fill="url(#linear-gradient-2)"/>
            <path id="Path_99265" data-name="Path 99265" d="M483.118,103.416a.667.667,0,1,1-.667-.637A.653.653,0,0,1,483.118,103.416Z" transform="translate(-433.777 -102.779)" fill="url(#linear-gradient-2)"/>
            <path id="Path_99266" data-name="Path 99266" d="M491.564,103.416a.667.667,0,1,1-.667-.637A.653.653,0,0,1,491.564,103.416Z" transform="translate(-436.223 -102.779)" fill="url(#linear-gradient-2)"/>
            <path id="Path_99267" data-name="Path 99267" d="M500.011,103.416a.667.667,0,1,1-.667-.637A.653.653,0,0,1,500.011,103.416Z" transform="translate(-438.669 -102.779)" fill="url(#linear-gradient-2)"/>
          </g>
          <g id="Group_53314" data-name="Group 53314" transform="translate(0 40.809)">
            <ellipse id="Ellipse_3975" data-name="Ellipse 3975" cx="0.667" cy="0.638" rx="0.667" ry="0.638" fill="url(#linear-gradient-2)"/>
            <path id="Path_99268" data-name="Path 99268" d="M423.993,110.924a.667.667,0,1,1-.666-.637A.653.653,0,0,1,423.993,110.924Z" transform="translate(-416.659 -110.287)" fill="url(#linear-gradient-2)"/>
            <ellipse id="Ellipse_3976" data-name="Ellipse 3976" cx="0.667" cy="0.638" rx="0.667" ry="0.638" transform="translate(12.002)" fill="url(#linear-gradient-2)"/>
            <path id="Path_99269" data-name="Path 99269" d="M440.887,110.924a.667.667,0,1,1-.667-.637A.653.653,0,0,1,440.887,110.924Z" transform="translate(-421.55 -110.287)" fill="url(#linear-gradient-2)"/>
            <path id="Path_99270" data-name="Path 99270" d="M449.332,110.924a.667.667,0,1,1-.666-.637A.653.653,0,0,1,449.332,110.924Z" transform="translate(-423.996 -110.287)" fill="url(#linear-gradient-2)"/>
            <ellipse id="Ellipse_3977" data-name="Ellipse 3977" cx="0.667" cy="0.638" rx="0.667" ry="0.638" transform="translate(30.004)" fill="url(#linear-gradient-2)"/>
            <path id="Path_99271" data-name="Path 99271" d="M466.226,110.924a.667.667,0,1,1-.667-.637A.654.654,0,0,1,466.226,110.924Z" transform="translate(-428.887 -110.287)" fill="url(#linear-gradient-2)"/>
            <ellipse id="Ellipse_3978" data-name="Ellipse 3978" cx="0.667" cy="0.638" rx="0.667" ry="0.638" transform="translate(42.006)" fill="url(#linear-gradient-2)"/>
            <ellipse id="Ellipse_3979" data-name="Ellipse 3979" cx="0.667" cy="0.638" rx="0.667" ry="0.638" transform="translate(48.007)" fill="url(#linear-gradient-2)"/>
            <path id="Path_99272" data-name="Path 99272" d="M491.564,110.924a.667.667,0,1,1-.667-.637A.654.654,0,0,1,491.564,110.924Z" transform="translate(-436.223 -110.287)" fill="url(#linear-gradient-2)"/>
            <path id="Path_99273" data-name="Path 99273" d="M500.011,110.924a.667.667,0,1,1-.667-.637A.653.653,0,0,1,500.011,110.924Z" transform="translate(-438.669 -110.287)" fill="url(#linear-gradient-2)"/>
          </g>
          <g id="Group_53315" data-name="Group 53315" transform="translate(0 45.91)">
            <path id="Path_99274" data-name="Path 99274" d="M415.547,118.432a.667.667,0,1,1-.667-.638A.653.653,0,0,1,415.547,118.432Z" transform="translate(-414.214 -117.794)" fill="url(#linear-gradient-2)"/>
            <path id="Path_99275" data-name="Path 99275" d="M423.993,118.432a.667.667,0,1,1-.666-.638A.653.653,0,0,1,423.993,118.432Z" transform="translate(-416.659 -117.794)" fill="url(#linear-gradient-2)"/>
            <path id="Path_99276" data-name="Path 99276" d="M432.439,118.432a.667.667,0,1,1-.666-.638A.653.653,0,0,1,432.439,118.432Z" transform="translate(-419.105 -117.794)" fill="url(#linear-gradient-2)"/>
            <path id="Path_99277" data-name="Path 99277" d="M440.887,118.432a.667.667,0,1,1-.667-.638A.653.653,0,0,1,440.887,118.432Z" transform="translate(-421.55 -117.794)" fill="url(#linear-gradient-2)"/>
            <path id="Path_99278" data-name="Path 99278" d="M449.332,118.432a.667.667,0,1,1-.666-.638A.653.653,0,0,1,449.332,118.432Z" transform="translate(-423.996 -117.794)" fill="url(#linear-gradient-2)"/>
            <path id="Path_99279" data-name="Path 99279" d="M457.778,118.432a.667.667,0,1,1-.666-.638A.653.653,0,0,1,457.778,118.432Z" transform="translate(-426.441 -117.794)" fill="url(#linear-gradient-2)"/>
            <path id="Path_99280" data-name="Path 99280" d="M466.226,118.432a.667.667,0,1,1-.667-.638A.654.654,0,0,1,466.226,118.432Z" transform="translate(-428.887 -117.794)" fill="url(#linear-gradient-2)"/>
            <path id="Path_99281" data-name="Path 99281" d="M474.672,118.432a.667.667,0,1,1-.667-.638A.653.653,0,0,1,474.672,118.432Z" transform="translate(-431.332 -117.794)" fill="url(#linear-gradient-2)"/>
            <path id="Path_99282" data-name="Path 99282" d="M483.118,118.432a.667.667,0,1,1-.667-.638A.653.653,0,0,1,483.118,118.432Z" transform="translate(-433.777 -117.794)" fill="url(#linear-gradient-2)"/>
            <path id="Path_99283" data-name="Path 99283" d="M491.564,118.432a.667.667,0,1,1-.667-.638A.654.654,0,0,1,491.564,118.432Z" transform="translate(-436.223 -117.794)" fill="url(#linear-gradient-2)"/>
            <path id="Path_99284" data-name="Path 99284" d="M500.011,118.432a.667.667,0,1,1-.667-.638A.653.653,0,0,1,500.011,118.432Z" transform="translate(-438.669 -117.794)" fill="url(#linear-gradient-2)"/>
          </g>
          <g id="Group_53316" data-name="Group 53316" transform="translate(0 51.011)">
            <ellipse id="Ellipse_3980" data-name="Ellipse 3980" cx="0.667" cy="0.638" rx="0.667" ry="0.638" transform="translate(0 0)" fill="url(#linear-gradient-2)"/>
            <path id="Path_99285" data-name="Path 99285" d="M423.993,125.94a.667.667,0,1,1-.666-.638A.652.652,0,0,1,423.993,125.94Z" transform="translate(-416.659 -125.302)" fill="url(#linear-gradient-2)"/>
            <ellipse id="Ellipse_3981" data-name="Ellipse 3981" cx="0.667" cy="0.638" rx="0.667" ry="0.638" transform="translate(12.002 0)" fill="url(#linear-gradient-2)"/>
            <path id="Path_99286" data-name="Path 99286" d="M440.887,125.94a.667.667,0,1,1-.667-.638A.653.653,0,0,1,440.887,125.94Z" transform="translate(-421.55 -125.302)" fill="url(#linear-gradient-2)"/>
            <path id="Path_99287" data-name="Path 99287" d="M449.332,125.94a.667.667,0,1,1-.666-.638A.652.652,0,0,1,449.332,125.94Z" transform="translate(-423.996 -125.302)" fill="url(#linear-gradient-2)"/>
            <ellipse id="Ellipse_3982" data-name="Ellipse 3982" cx="0.667" cy="0.638" rx="0.667" ry="0.638" transform="translate(30.004 0)" fill="url(#linear-gradient-2)"/>
            <path id="Path_99288" data-name="Path 99288" d="M466.226,125.94a.667.667,0,1,1-.667-.638A.653.653,0,0,1,466.226,125.94Z" transform="translate(-428.887 -125.302)" fill="url(#linear-gradient-2)"/>
            <ellipse id="Ellipse_3983" data-name="Ellipse 3983" cx="0.667" cy="0.638" rx="0.667" ry="0.638" transform="translate(42.006 0)" fill="url(#linear-gradient-2)"/>
            <ellipse id="Ellipse_3984" data-name="Ellipse 3984" cx="0.667" cy="0.638" rx="0.667" ry="0.638" transform="translate(48.007 0)" fill="url(#linear-gradient-2)"/>
            <path id="Path_99289" data-name="Path 99289" d="M491.564,125.94a.667.667,0,1,1-.667-.638A.653.653,0,0,1,491.564,125.94Z" transform="translate(-436.223 -125.302)" fill="url(#linear-gradient-2)"/>
            <path id="Path_99290" data-name="Path 99290" d="M500.011,125.94a.667.667,0,1,1-.667-.638A.653.653,0,0,1,500.011,125.94Z" transform="translate(-438.669 -125.302)" fill="url(#linear-gradient-2)"/>
          </g>
          <g id="Group_53317" data-name="Group 53317" transform="translate(0 56.112)">
            <ellipse id="Ellipse_3985" data-name="Ellipse 3985" cx="0.667" cy="0.638" rx="0.667" ry="0.638" transform="translate(0 0)" fill="url(#linear-gradient-2)"/>
            <path id="Path_99291" data-name="Path 99291" d="M423.993,133.448a.667.667,0,1,1-.666-.638A.652.652,0,0,1,423.993,133.448Z" transform="translate(-416.659 -132.81)" fill="url(#linear-gradient-2)"/>
            <ellipse id="Ellipse_3986" data-name="Ellipse 3986" cx="0.667" cy="0.638" rx="0.667" ry="0.638" transform="translate(12.002 0)" fill="url(#linear-gradient-2)"/>
            <path id="Path_99292" data-name="Path 99292" d="M440.887,133.448a.667.667,0,1,1-.667-.638A.653.653,0,0,1,440.887,133.448Z" transform="translate(-421.55 -132.81)" fill="url(#linear-gradient-2)"/>
            <path id="Path_99293" data-name="Path 99293" d="M449.332,133.448a.667.667,0,1,1-.666-.638A.652.652,0,0,1,449.332,133.448Z" transform="translate(-423.996 -132.81)" fill="url(#linear-gradient-2)"/>
            <ellipse id="Ellipse_3987" data-name="Ellipse 3987" cx="0.667" cy="0.638" rx="0.667" ry="0.638" transform="translate(30.004 0)" fill="url(#linear-gradient-2)"/>
            <path id="Path_99294" data-name="Path 99294" d="M466.226,133.448a.667.667,0,1,1-.667-.638A.653.653,0,0,1,466.226,133.448Z" transform="translate(-428.887 -132.81)" fill="url(#linear-gradient-2)"/>
            <ellipse id="Ellipse_3988" data-name="Ellipse 3988" cx="0.667" cy="0.638" rx="0.667" ry="0.638" transform="translate(42.006 0)" fill="url(#linear-gradient-2)"/>
            <ellipse id="Ellipse_3989" data-name="Ellipse 3989" cx="0.667" cy="0.638" rx="0.667" ry="0.638" transform="translate(48.007 0)" fill="url(#linear-gradient-2)"/>
            <path id="Path_99295" data-name="Path 99295" d="M491.564,133.448a.667.667,0,1,1-.667-.638A.653.653,0,0,1,491.564,133.448Z" transform="translate(-436.223 -132.81)" fill="url(#linear-gradient-2)"/>
            <path id="Path_99296" data-name="Path 99296" d="M500.011,133.448a.667.667,0,1,1-.667-.638A.653.653,0,0,1,500.011,133.448Z" transform="translate(-438.669 -132.81)" fill="url(#linear-gradient-2)"/>
          </g>
        </g>
      </g>
    </g>
    <g id="Group_151581" data-name="Group 151581" transform="translate(-195.557 2273.77)">
      <g id="Group_151581-2" data-name="Group 151581" transform="translate(408.316 630)">
        <path id="Path_263652" data-name="Path 263652" d="M1451.023,1884.663q1.984.085,3.925.153l-2.39-32.91Z" transform="translate(-1350.009 -1551.875)" fill="#94a9d8"/>
        <path id="Path_263654" data-name="Path 263654" d="M1368.692,1805.024l-2.12-38.8-27.408-.146-.257,8.3a.421.421,0,0,1-.42.407h-.015a.422.422,0,0,1-.407-.435l.169-5.5-1.265,36.321c-16.569-.165-27.721-1.983-35.228-4.29-.26,7.323-.481,15.1-.643,23.26-.2,9.734-.308,20-.3,30.728h54.989l1.125-23.981,1.535-32.757,2.39,32.91,1.729,23.828h51.8c-.2-8.583-.436-17.218-.7-25.77-.362-11.5-.792-22.841-1.3-33.7C1396.967,1805.392,1368.692,1805.024,1368.692,1805.024Z" transform="translate(-1255.9 -1498.104)" fill="#213244"/>
        <path id="Path_263655" data-name="Path 263655" d="M1443.879,1237.385c4.776-.673,9.532-2.01,12.143-4.647l.009-4.646a16.148,16.148,0,0,1-4.309-6.325C1452.085,1228.271,1448.579,1233.738,1443.879,1237.385Z" transform="translate(-1345.533 -1157.117)" fill="#de6a66"/>
        <path id="Path_263656" data-name="Path 263656" d="M1470.109,1177.1c2.39-1.6,4.341-.706,5.367.661a4.934,4.934,0,0,1-.773,6.728.422.422,0,0,0-.053.594l.324.149.27-.1a5.778,5.778,0,0,0,.908-7.876c-1.2-1.6-3.629-2.778-6.509-.854a.42.42,0,1,0,.467.7Z" transform="translate(-1361.556 -1128.076)" fill="#161d2f"/>
        <path id="Path_263657" data-name="Path 263657" d="M1476.185,1184.928a2.976,2.976,0,0,0-2.892,2.075,2.162,2.162,0,0,0,.26.313,2.869,2.869,0,0,0,.406.3s0,0,.006-.007c.282-.987,1.214-1.993,2.085-1.848a.421.421,0,0,0,.136-.831Z" transform="translate(-1363.96 -1134.026)" fill="#161d2f"/>
        <path id="Path_263658" data-name="Path 263658" d="M1470.9,1186.784a2.683,2.683,0,0,1-.575-1.729.419.419,0,1,0-.824-.155,3.588,3.588,0,0,0,1.093,2.822,4.081,4.081,0,0,0,2.43.992l.343-.026a.416.416,0,0,0,.348-.482.422.422,0,0,0-.481-.35,2.7,2.7,0,0,1-1.668-.461,2.881,2.881,0,0,1-.406-.3A2.17,2.17,0,0,1,1470.9,1186.784Z" transform="translate(-1361.563 -1133.807)" fill="#161d2f"/>
        <path id="Path_263659" data-name="Path 263659" d="M1422.161,1169.279a2.783,2.783,0,0,0-2.4,1.458.421.421,0,0,0,.706.456,1.922,1.922,0,0,1,1.647-1.074c.7.038,1.386.65,1.923,1.721l.375.232.187-.045a.417.417,0,0,0,.188-.563A3.384,3.384,0,0,0,1422.161,1169.279Z" transform="translate(-1330.383 -1124.235)" fill="#161d2f"/>
        <path id="Path_263660" data-name="Path 263660" d="M1384.4,1172.072l.378-.232c.536-1.071,1.219-1.682,1.922-1.721a1.926,1.926,0,0,1,1.646,1.074.421.421,0,0,0,.707-.457,2.776,2.776,0,0,0-2.4-1.458,3.39,3.39,0,0,0-2.63,2.184.419.419,0,0,0,.187.563Z" transform="translate(-1308.011 -1124.235)" fill="#161d2f"/>
        <path id="Path_263661" data-name="Path 263661" d="M1416.328,1080.769a12.808,12.808,0,0,0-11.857-9.4c1.814-10.434-3.448-11.454-3.448-11.454-3.864-.139-5.4,4.289-5.4,4.289,0-8.419-7.147-9.9-7.147-9.9a13.182,13.182,0,0,0-7.971,3.086c-.547-4.209-6.325-8.7-6.325-8.7-8.839,3.648-5.939,15.715-5.939,15.715l-4.587-3.086c-3.133,6.624-.308,11.32,4.23,14.418a4.511,4.511,0,0,0-1.2,1.126c-1.532,2.217-1.778,5.16-1.466,7.812.045.387.1.765.169,1.137.535,2.939,1.77,5.672,2.64,8.551.067.223.143.525.232.871-.142-7.129.718-13.313,3.7-17.286,4.683,2.024,9.813,2.8,12.242,2.572,5.24-.5,7.03-.277,8.81,4.828a83.265,83.265,0,0,1,1.99,8.447,19.131,19.131,0,0,0,.8,2.03c-.1,0-.178.054-.219.28-.153.821-.224,3.6-.436,4.4a8.642,8.642,0,0,1-1.937,4.074c-2.772,2.735-5.891,1.459-8.863-.172a12.963,12.963,0,0,0-9.21-1.233c-1.738.478-2.377,1.151-4.1,1.614-.912.245-1.661-.428-2.281-1.4,0,0,0,0-.006,0a.444.444,0,0,0,.009.048c.044.344.213.706.092,1.03-2.93,7.932.982,27.106,8.18,29.021a10.705,10.705,0,0,0,2.032.317c4.208.285,9.455-1.525,13.728-4.841,4.7-3.646,8.206-9.114,7.843-15.618a16.147,16.147,0,0,0,4.309,6.325.156.156,0,0,1,.016.012c.191.165.381.315.57.453,4.772-8.79,10.921-25,11.7-33.823A21.216,21.216,0,0,0,1416.328,1080.769Zm-34.2,25.789a4.6,4.6,0,0,1-3.448,1.42,7.052,7.052,0,0,1-3.378-.919.421.421,0,0,1,.412-.734c1.784,1,4.272,1.282,5.8-.343a.421.421,0,0,1,.614.576Zm24.139,3.4a6.923,6.923,0,0,1-5.914-2.059c-.016.039-.026.079-.041.12a5.7,5.7,0,0,0-.324,1.877,26.61,26.61,0,0,1-1.557-2.977,6.912,6.912,0,0,1-.779-4.809,9.883,9.883,0,0,1-.025-1.646c.271-3.7,2.634-6.772,5.969-7.3,4-.636,7.831,2.609,8.568,7.249S1410.262,1109.316,1406.27,1109.953Z" transform="translate(-1294.443 -1048.695)" fill="#662919"/>
        <path id="Path_263662" data-name="Path 263662" d="M1420.586,1159.61c1.294.264,2.9.629,4.223.086.57-.233-.2-1.561-.417-1.776a4.358,4.358,0,0,0-2.228-.8c-1.808-.343-4.538-.858-6.264-.18-1.783.7-.73,1.974.681,2.165C1417.917,1159.29,1419.224,1159.336,1420.586,1159.61Z" transform="translate(-1327.417 -1116.3)" fill="#662919"/>
        <path id="Path_263663" data-name="Path 263663" d="M1386.975,1159.363c1.2.109,2.7.281,3.8-.405.477-.3-.416-1.521-.645-1.708a3.781,3.781,0,0,0-2.116-.528c-1.68-.129-4.208-.319-5.654.552-1.493.9-.356,2.034.939,2.06C1384.532,1159.356,1385.713,1159.251,1386.975,1159.363Z" transform="translate(-1306.553 -1116.299)" fill="#662919"/>
        <path id="Path_263664" data-name="Path 263664" d="M1397.159,1173.5a6.6,6.6,0,0,0,3.009-5.2.424.424,0,0,0-.419-.423h0a.421.421,0,0,0-.42.419,5.773,5.773,0,0,1-2.663,4.525,2,2,0,0,0-.986,1.266,1.633,1.633,0,0,0,.522,1.2c.581.641.792.8,2.758,1.9l.2.052.367-.214a.422.422,0,0,0-.161-.573c-1.9-1.062-2.038-1.176-2.546-1.732-.214-.238-.321-.429-.308-.551C1396.533,1173.976,1396.867,1173.707,1397.159,1173.5Z" transform="translate(-1315.333 -1123.354)" fill="#161d2f"/>
        <path id="Path_263665" data-name="Path 263665" d="M1426.167,1464.281l-2.469-34.688a.42.42,0,0,1,.39-.449c.061-.006.109.034.162.052l-.319-5.858c-.5-.23-.987-.465-1.461-.7l-15.8,13.464-.357,10.252a.422.422,0,0,1,.407.435l-3.217,104.137,27.408.146Z" transform="translate(-1320.24 -1282.955)" fill="#71c9f4"/>
        <path id="Path_263666" data-name="Path 263666" d="M1424.708,1314.813a7.61,7.61,0,0,1,1.258-.33l7.846-31.134-.948-.311-16.482,11.291-9.413-11.291-.1.032,2.86,38.327-.2,5.572,3.467-1.577C1413.889,1320.631,1421.729,1315.943,1424.708,1314.813Z" transform="translate(-1322.349 -1195.502)" fill="#71c9f4"/>
        <path id="Path_263667" data-name="Path 263667" d="M1269.454,1283.125l-29.171,10.229s-18.821,1.493-26.792,17.5l-25.974,41.12,10.043,10a53.913,53.913,0,0,1,8.994-5.123l54.161-24.638-11.254-24.9a.415.415,0,0,1,.129-.508l6.346-4.818-2.161-9.063a.42.42,0,1,1,.817-.194l2.227,9.33-.155.433-6.3,4.779,11.115,24.59,10.637-4.84.2-5.572-2.86-38.327Z" transform="translate(-1184.932 -1195.556)" fill="#a52a3f"/>
        <path id="Path_263668" data-name="Path 263668" d="M1262.234,1597.832s1.143,6.117,15.347,10.483c7.507,2.307,18.66,4.125,35.228,4.29l1.265-36.321,3.3-106.942a.429.429,0,0,1,.435-.41h0l.358-10.252-48.064,40.961Z" transform="translate(-1231.74 -1305.534)" fill="#a52a3f"/>
        <path id="Path_263669" data-name="Path 263669" d="M1522.66,1315.072c-13.806-23.409-41.949-26.359-41.949-26.359a.294.294,0,0,1-.022.028l-14.856-4.874h0L1457.988,1315c2.59-.48,6.1-.124,9.464-1.167a3.882,3.882,0,0,1,2.088-.244l2.85-.588.549-1.195-7.487-6.026a.42.42,0,0,1-.12-.5l3.978-9.052a.427.427,0,0,1,.557-.219.422.422,0,0,1,.214.556l-3.849,8.759,7.49,6.029a.416.416,0,0,1,.118.5l-.428.929,3.177-.655,10.036-2.074s1.946,3.389-9.6,7.067c-1.061.336-2.244.679-3.546,1.019l1.914,3.055c-.146,2.688-.139,4.573-.125,6.007a.4.4,0,0,1,.351.181.42.42,0,0,1-.146.576c-.06.035-.135.071-.2.106.013,2.307-.086,3.284-1.227,4.9a.383.383,0,0,1,.168.184.423.423,0,0,1-.255.537c-.185.067-.4.131-.6.194-.68.848-1.592,1.888-2.831,3.309-2.646,3.032-7.948,1.307-12.467-.8l.319,5.858a.4.4,0,0,1,.288.337l4.475,62.858a.424.424,0,0,1-.391.451h-.029a.419.419,0,0,1-.419-.391l-2.006-28.17,4.745,86.79,2.12,38.8s28.275.367,43.676-9.619a23.458,23.458,0,0,0,6.77-6.366l-12.487-112.994,4.911,7.191,4.062-2.4c-.027-12.729,13.331-24.718,13.331-24.718l12.372-11.781Z" transform="translate(-1354.372 -1196.021)" fill="#a52a3f"/>
        <path id="Path_263670" data-name="Path 263670" d="M1486.1,1332.176a.416.416,0,0,0-.118-.5l-7.49-6.029,3.849-8.759a.422.422,0,0,0-.214-.556.427.427,0,0,0-.557.219l-3.978,9.052a.421.421,0,0,0,.12.5l7.487,6.026-.549,1.2,1.023-.213Z" transform="translate(-1366.629 -1216.336)" fill="#161d2f"/>
        <path id="Path_263671" data-name="Path 263671" d="M1360.481,1318.067l.155-.433-2.227-9.33a.42.42,0,1,0-.817.194l2.161,9.063-6.346,4.818a.414.414,0,0,0-.128.508l11.254,24.9.767-.347-11.115-24.59Z" transform="translate(-1288.752 -1211.127)" fill="#161d2f"/>
        <path id="Path_263672" data-name="Path 263672" d="M1457.564,1440.5l2.469,34.688,2.006,28.17a.42.42,0,0,0,.419.391h.029a.424.424,0,0,0,.391-.451l-4.475-62.858a.4.4,0,0,0-.288-.337c-.053-.019-.1-.058-.162-.052A.419.419,0,0,0,1457.564,1440.5Z" transform="translate(-1354.106 -1293.865)" fill="#161d2f"/>
        <path id="Path_263673" data-name="Path 263673" d="M1404.878,1486.56a.423.423,0,0,0-.407-.435h0a.429.429,0,0,0-.435.41l-3.3,106.942-.169,5.5a.422.422,0,0,0,.407.435h.015a.422.422,0,0,0,.42-.407l.257-8.3Z" transform="translate(-1318.397 -1322.727)" fill="#161d2f"/>
        <path id="Path_263674" data-name="Path 263674" d="M1400.089,1203.829a4.6,4.6,0,0,0,3.448-1.42.421.421,0,0,0-.615-.576c-1.528,1.625-4.016,1.344-5.8.343a.421.421,0,0,0-.412.734A7.053,7.053,0,0,0,1400.089,1203.829Z" transform="translate(-1315.85 -1144.547)" fill="#161d2f"/>
        <path id="Path_263675" data-name="Path 263675" d="M1843.525,1298.7a.422.422,0,0,0,.412.34l.083-.009c2.31-.456,4.7-.929,7.122-4.016a.42.42,0,0,0-.663-.518c-2.232,2.836-4.365,3.261-6.623,3.709A.417.417,0,0,0,1843.525,1298.7Z" transform="translate(-1595.89 -1202.578)" fill="#161d2f"/>
        <path id="Path_263676" data-name="Path 263676" d="M1847.594,1312.016a.422.422,0,0,0-.242.808,3.115,3.115,0,0,0,.895.121c2.406,0,5.711-2.208,7.113-3.763.048-.051.111-.111.155-.162a.423.423,0,0,0-.053-.594.518.518,0,0,0-.594.051C1853.388,1310.242,1849.456,1312.578,1847.594,1312.016Z" transform="translate(-1598.105 -1211.356)" fill="#161d2f"/>
        <path id="Path_263677" data-name="Path 263677" d="M1858.113,1324.09a11.241,11.241,0,0,1-6.384,2.715.421.421,0,0,0,.018.842h.014a11.635,11.635,0,0,0,6.374-2.515c.173-.13.347-.261.5-.388a.418.418,0,0,0,.064-.593.4.4,0,0,0-.216-.118A.4.4,0,0,0,1858.113,1324.09Z" transform="translate(-1600.781 -1221.169)" fill="#161d2f"/>
        <path id="Path_263678" data-name="Path 263678" d="M1481.907,1386.13a.421.421,0,1,0-.118.833,18.948,18.948,0,0,0,2.646.242,9.57,9.57,0,0,0,5.4-1.7.425.425,0,0,0,.127-.582.42.42,0,0,0-.583-.125C1486.341,1386.75,1484.187,1386.448,1481.907,1386.13Z" transform="translate(-1369.056 -1259.208)" fill="#161d2f"/>
        <path id="Path_263679" data-name="Path 263679" d="M1481.019,1400.887a.421.421,0,0,0-.492.683,4.784,4.784,0,0,0,2.77.692,14.017,14.017,0,0,0,5.99-1.5c.065-.035.14-.071.2-.107a.42.42,0,0,0,.146-.576.4.4,0,0,0-.352-.181.415.415,0,0,0-.227.034C1487.074,1401.11,1482.6,1402.024,1481.019,1400.887Z" transform="translate(-1368.382 -1268.708)" fill="#161d2f"/>
        <path id="Path_263680" data-name="Path 263680" d="M1487.473,1415.112a11.224,11.224,0,0,1-6.919.474.421.421,0,1,0-.248.805,9.354,9.354,0,0,0,2.762.4,13.5,13.5,0,0,0,4.087-.69c.2-.063.416-.127.6-.194a.423.423,0,0,0,.255-.537.382.382,0,0,0-.168-.184A.4.4,0,0,0,1487.473,1415.112Z" transform="translate(-1368.167 -1278.228)" fill="#161d2f"/>
        <path id="Path_263681" data-name="Path 263681" d="M1477.4,1283.35h0l14.856,4.874a.291.291,0,0,0,.022-.028l-15.826-5.155Z" transform="translate(-1365.94 -1195.502)" fill="#f3a49a"/>
        <path id="Path_263682" data-name="Path 263682" d="M1433.008,1238.7l-.009,4.646c-2.611,2.638-7.367,3.974-12.143,4.647-4.273,3.317-9.519,5.126-13.728,4.842v2.428l9.413,11.291,16.483-11.291v-16.551Z" transform="translate(-1322.511 -1167.725)" fill="#f3a49a"/>
        <path id="Path_263683" data-name="Path 263683" d="M1457.474,1181.346a26.625,26.625,0,0,0,1.557,2.977,5.7,5.7,0,0,1,.324-1.877c.015-.041.025-.08.041-.119a6.923,6.923,0,0,0,5.914,2.059c3.992-.636,6.634-4.912,5.9-9.547s-4.571-7.885-8.568-7.249c-3.335.53-5.7,3.605-5.969,7.3a9.883,9.883,0,0,0,.025,1.646A6.911,6.911,0,0,0,1457.474,1181.346Zm8.1-6.485c-.871-.146-1.8.861-2.085,1.848,0,0-.006,0-.006.007a2.7,2.7,0,0,0,1.668.461.422.422,0,0,1,.482.35.417.417,0,0,1-.349.482l-.343.026a4.079,4.079,0,0,1-2.43-.993,3.587,3.587,0,0,1-1.093-2.822.419.419,0,1,1,.824.155,2.683,2.683,0,0,0,.575,1.729,2.976,2.976,0,0,1,2.892-2.075.421.421,0,0,1-.136.831Zm-4-3.4c2.88-1.924,5.305-.744,6.509.854a5.778,5.778,0,0,1-.908,7.876l-.27.1-.324-.149a.422.422,0,0,1,.053-.594,4.934,4.934,0,0,0,.773-6.728c-1.026-1.367-2.977-2.259-5.367-.661a.42.42,0,1,1-.467-.7Z" transform="translate(-1353.483 -1123.128)" fill="#f3a49a"/>
        <path id="Path_263684" data-name="Path 263684" d="M1379.635,1196.272c.121-.324-.048-.686-.092-1.03C1379.575,1195.586,1379.6,1195.926,1379.635,1196.272Z" transform="translate(-1305.229 -1140.501)" fill="#f3a49a"/>
        <path id="Path_263685" data-name="Path 263685" d="M1403.131,1153.655a8.641,8.641,0,0,0,1.936-4.074c.211-.807.283-3.582.436-4.4.041-.226.123-.285.219-.28a19.159,19.159,0,0,1-.8-2.03,83.3,83.3,0,0,0-1.99-8.447c-1.78-5.106-3.571-5.332-8.81-4.828-2.43.232-7.56-.548-12.243-2.572-2.981,3.973-3.84,10.157-3.7,17.286.054,2.615.239,5.357.5,8.154.62.976,1.369,1.649,2.281,1.4,1.724-.462,2.364-1.135,4.1-1.614a12.964,12.964,0,0,1,9.21,1.233C1397.24,1155.114,1400.359,1156.39,1403.131,1153.655Zm-22.955-14.918c1.446-.871,3.974-.68,5.654-.552a3.783,3.783,0,0,1,2.116.528c.229.187,1.122,1.408.645,1.708-1.106.687-2.6.515-3.8.406-1.262-.112-2.443-.007-3.672-.029C1379.82,1140.771,1378.683,1139.637,1380.176,1138.737Zm2.882,4.91c-.7.038-1.386.65-1.922,1.72l-.378.232-.188-.045a.419.419,0,0,1-.187-.563,3.39,3.39,0,0,1,2.63-2.184,2.776,2.776,0,0,1,2.4,1.458.421.421,0,0,1-.707.456A1.925,1.925,0,0,0,1383.058,1143.647Zm2.8,5.481c.508.556.645.67,2.546,1.732a.423.423,0,0,1,.161.573l-.368.214-.2-.052c-1.966-1.1-2.177-1.264-2.758-1.9a1.633,1.633,0,0,1-.522-1.2,2,2,0,0,1,.986-1.266,5.774,5.774,0,0,0,2.663-4.525.421.421,0,0,1,.42-.419h0a.424.424,0,0,1,.419.423,6.6,6.6,0,0,1-3.009,5.2c-.292.21-.626.478-.646.67C1385.533,1148.7,1385.639,1148.889,1385.854,1149.127Zm7-10.722c1.726-.678,4.456-.163,6.264.18a4.358,4.358,0,0,1,2.228.8c.216.214.988,1.542.417,1.776-1.323.543-2.929.178-4.223-.086-1.363-.275-2.67-.32-4.005-.5C1392.119,1140.38,1391.066,1139.107,1392.849,1138.406Zm1.021,6.44a.421.421,0,0,1-.125-.582,2.783,2.783,0,0,1,2.4-1.458,3.384,3.384,0,0,1,2.628,2.184.417.417,0,0,1-.188.563l-.187.045-.375-.232c-.537-1.071-1.22-1.682-1.923-1.72a1.921,1.921,0,0,0-1.647,1.074A.417.417,0,0,1,1393.87,1144.846Z" transform="translate(-1304.366 -1097.762)" fill="#f3a49a"/>
        <path id="Path_263686" data-name="Path 263686" d="M1695.557,1264.017a3.887,3.887,0,0,0-1.889.913c-3.324,2.45-7.487,3.141-9.638,4.933a29.438,29.438,0,0,0-6.083,7.763,10.42,10.42,0,0,0-1.5,6.072l-42.546,40.525L1621.526,1336s-13.359,11.99-13.331,24.718c.009,4.987,2.075,10.088,7.805,14.625,14.916,10.806,27.386-5.8,27.386-5.8l47.2-80.4a29.98,29.98,0,0,0,8.873.112c2.224-.428,4.017-1.386,4.776-3.265.7-1.745,1.221-3.025,1.588-4.048a11.634,11.634,0,0,1-6.374,2.516h-.015a.421.421,0,0,1-.017-.842,11.241,11.241,0,0,0,6.384-2.715.4.4,0,0,1,.375-.057c.546-1.9.318-2.861-.452-5.037-1.4,1.555-4.707,3.763-7.113,3.763a3.113,3.113,0,0,1-.895-.121.422.422,0,0,1,.242-.808c1.862.562,5.794-1.774,7.274-3.538a.4.4,0,0,1,.2-.105c-.482-1.351-1.11-3.128-1.853-5.717l-2.809-2.26c13.278-8.892,9.765-11.948,9.765-11.948Zm7.5,5.886a.42.42,0,0,1,.663.518c-2.422,3.086-4.812,3.559-7.122,4.016l-.083.009a.422.422,0,0,1-.412-.34.417.417,0,0,1,.331-.493C1698.694,1273.164,1700.827,1272.739,1703.059,1269.9Z" transform="translate(-1448.471 -1177.986)" fill="#f19288"/>
        <path id="Path_263687" data-name="Path 263687" d="M1302.816,1356.065l-3.177.655-1.023.213-2.85.588a3.885,3.885,0,0,0-2.088.244c-3.362,1.043-6.874.687-9.464,1.167a7.591,7.591,0,0,0-1.258.33c-2.978,1.129-10.818,5.818-11.705,10.58l-3.467,1.577-10.637,4.84-.767.347-54.161,24.638a53.928,53.928,0,0,0-8.994,5.123,38.845,38.845,0,0,0-7.92,7.227c-4.441,5.521-6.83,12.734-2.184,21.322.3.557.613,1.115.974,1.685,10.545,15.1,27.772,3.5,27.772,3.5l7.1-6.048,48.064-40.961,15.8-13.463c.474.235.963.47,1.461.7,4.519,2.105,9.821,3.83,12.467.8,1.239-1.421,2.15-2.461,2.831-3.309a13.5,13.5,0,0,1-4.087.69,9.351,9.351,0,0,1-2.762-.4.421.421,0,1,1,.248-.805,11.224,11.224,0,0,0,6.919-.474.4.4,0,0,1,.371.073c1.141-1.62,1.24-2.6,1.228-4.9a14.019,14.019,0,0,1-5.99,1.5,4.784,4.784,0,0,1-2.77-.692.421.421,0,0,1,.492-.683c1.579,1.137,6.056.223,8.034-.957a.415.415,0,0,1,.228-.034c-.013-1.434-.021-3.319.125-6.007l-1.914-3.055c1.3-.34,2.485-.683,3.545-1.019,11.545-3.678,9.6-7.067,9.6-7.067Zm-1.9,9.477a.421.421,0,1,1,.457.708,9.571,9.571,0,0,1-5.4,1.7,18.931,18.931,0,0,1-2.647-.242.421.421,0,1,1,.118-.833C1295.73,1367.191,1297.884,1367.493,1300.921,1365.542Z" transform="translate(-1180.599 -1239.951)" fill="#f19288"/>
      </g>
    </g>
  </g>
</svg>
