<svg xmlns="http://www.w3.org/2000/svg" xmlns:xlink="http://www.w3.org/1999/xlink" width="274.473" height="202.264" viewBox="0 0 274.473 202.264">
  <defs>
    <linearGradient id="linear-gradient" x1="0.5" x2="0.5" y2="1" gradientUnits="objectBoundingBox">
      <stop offset="0" stop-color="#93eac2"/>
      <stop offset="1" stop-color="#20cb7d"/>
    </linearGradient>
    <linearGradient id="linear-gradient-2" x1="0.5" x2="0.5" y2="1" gradientUnits="objectBoundingBox">
      <stop offset="0" stop-color="#ba68c8"/>
      <stop offset="0.19" stop-color="#9139af"/>
      <stop offset="0.31" stop-color="#7b1fa2"/>
      <stop offset="1" stop-color="#45147b"/>
    </linearGradient>
  </defs>
  <g id="_1" data-name="1" transform="translate(-285 -368)">
    <g id="Group_148348" data-name="Group 148348" transform="translate(179 388.863)">
      <path id="Path_145969" data-name="Path 145969" d="M40.716,0A40.716,40.716,0,1,1,0,40.716,40.716,40.716,0,0,1,40.716,0Z" transform="translate(225.461 -20.863)" opacity="0.6" fill="url(#linear-gradient)" style="mix-blend-mode: multiply;isolation: isolate"/>
      <path id="Path_145971" data-name="Path 145971" d="M25.737,0A25.737,25.737,0,1,1,0,25.737,25.737,25.737,0,0,1,25.737,0Z" transform="translate(329 128.266)" fill="#fda929" opacity="0.444" style="mix-blend-mode: multiply;isolation: isolate"/>
      <g id="Group_145732" data-name="Group 145732" transform="translate(106 60.568)">
        <path id="Path_145968" data-name="Path 145968" d="M59.586,0A59.586,59.586,0,1,1,0,59.586,59.586,59.586,0,0,1,59.586,0Z" transform="translate(0)" opacity="0.444" fill="url(#linear-gradient-2)" style="mix-blend-mode: multiply;isolation: isolate"/>
        <g id="Group_78276" data-name="Group 78276" transform="translate(22.335 24.568)">
          <g id="Group_53306" data-name="Group 53306" transform="translate(0)">
            <path id="Path_99200" data-name="Path 99200" d="M415.832,51a.81.81,0,1,1-.81-.773A.792.792,0,0,1,415.832,51Z" transform="translate(-414.214 -50.224)" fill="#e8e8e8"/>
            <path id="Path_99201" data-name="Path 99201" d="M424.278,51a.81.81,0,1,1-.809-.773A.792.792,0,0,1,424.278,51Z" transform="translate(-415.378 -50.224)" fill="#e8e8e8"/>
            <path id="Path_99202" data-name="Path 99202" d="M432.724,51a.81.81,0,1,1-.809-.773A.792.792,0,0,1,432.724,51Z" transform="translate(-416.542 -50.224)" fill="#e8e8e8"/>
            <path id="Path_99203" data-name="Path 99203" d="M441.171,51a.81.81,0,1,1-.81-.773A.792.792,0,0,1,441.171,51Z" transform="translate(-417.707 -50.224)" fill="#e8e8e8"/>
            <path id="Path_99204" data-name="Path 99204" d="M449.617,51a.81.81,0,1,1-.809-.773A.792.792,0,0,1,449.617,51Z" transform="translate(-418.871 -50.224)" fill="#e8e8e8"/>
            <path id="Path_99205" data-name="Path 99205" d="M458.063,51a.81.81,0,1,1-.809-.773A.792.792,0,0,1,458.063,51Z" transform="translate(-420.036 -50.224)" fill="#e8e8e8"/>
            <path id="Path_99206" data-name="Path 99206" d="M466.51,51a.81.81,0,1,1-.81-.773A.793.793,0,0,1,466.51,51Z" transform="translate(-421.2 -50.224)" fill="#e8e8e8"/>
            <path id="Path_99207" data-name="Path 99207" d="M474.956,51a.81.81,0,1,1-.809-.773A.792.792,0,0,1,474.956,51Z" transform="translate(-422.364 -50.224)" fill="#e8e8e8"/>
            <path id="Path_99208" data-name="Path 99208" d="M483.4,51a.81.81,0,1,1-.809-.773A.792.792,0,0,1,483.4,51Z" transform="translate(-423.529 -50.224)" fill="#e8e8e8"/>
            <path id="Path_99209" data-name="Path 99209" d="M491.849,51a.81.81,0,1,1-.809-.773A.793.793,0,0,1,491.849,51Z" transform="translate(-424.693 -50.224)" fill="#e8e8e8"/>
            <path id="Path_99210" data-name="Path 99210" d="M500.3,51a.81.81,0,1,1-.81-.773A.792.792,0,0,1,500.3,51Z" transform="translate(-425.858 -50.224)" fill="#e8e8e8"/>
          </g>
          <g id="Group_53307" data-name="Group 53307" transform="translate(0 6.19)">
            <path id="Path_99211" data-name="Path 99211" d="M415.832,58.505a.81.81,0,1,1-.81-.773A.792.792,0,0,1,415.832,58.505Z" transform="translate(-414.214 -57.732)" fill="#e8e8e8"/>
            <path id="Path_99212" data-name="Path 99212" d="M424.278,58.505a.81.81,0,1,1-.809-.773A.792.792,0,0,1,424.278,58.505Z" transform="translate(-415.378 -57.732)" fill="#e8e8e8"/>
            <path id="Path_99213" data-name="Path 99213" d="M432.724,58.505a.81.81,0,1,1-.809-.773A.792.792,0,0,1,432.724,58.505Z" transform="translate(-416.542 -57.732)" fill="#e8e8e8"/>
            <path id="Path_99214" data-name="Path 99214" d="M441.171,58.505a.81.81,0,1,1-.81-.773A.792.792,0,0,1,441.171,58.505Z" transform="translate(-417.707 -57.732)" fill="#e8e8e8"/>
            <path id="Path_99215" data-name="Path 99215" d="M449.617,58.505a.81.81,0,1,1-.809-.773A.792.792,0,0,1,449.617,58.505Z" transform="translate(-418.871 -57.732)" fill="#e8e8e8"/>
            <path id="Path_99216" data-name="Path 99216" d="M458.063,58.505a.81.81,0,1,1-.809-.773A.792.792,0,0,1,458.063,58.505Z" transform="translate(-420.036 -57.732)" fill="#e8e8e8"/>
            <path id="Path_99217" data-name="Path 99217" d="M466.51,58.505a.81.81,0,1,1-.81-.773A.793.793,0,0,1,466.51,58.505Z" transform="translate(-421.2 -57.732)" fill="#e8e8e8"/>
            <path id="Path_99218" data-name="Path 99218" d="M474.956,58.505a.81.81,0,1,1-.809-.773A.792.792,0,0,1,474.956,58.505Z" transform="translate(-422.364 -57.732)" fill="#e8e8e8"/>
            <path id="Path_99219" data-name="Path 99219" d="M483.4,58.505a.81.81,0,1,1-.809-.773A.792.792,0,0,1,483.4,58.505Z" transform="translate(-423.529 -57.732)" fill="#e8e8e8"/>
            <path id="Path_99220" data-name="Path 99220" d="M491.849,58.505a.81.81,0,1,1-.809-.773A.793.793,0,0,1,491.849,58.505Z" transform="translate(-424.693 -57.732)" fill="#e8e8e8"/>
            <path id="Path_99221" data-name="Path 99221" d="M500.3,58.505a.81.81,0,1,1-.81-.773A.792.792,0,0,1,500.3,58.505Z" transform="translate(-425.858 -57.732)" fill="#e8e8e8"/>
          </g>
          <g id="Group_53308" data-name="Group 53308" transform="translate(0 12.38)">
            <ellipse id="Ellipse_3955" data-name="Ellipse 3955" cx="0.809" cy="0.774" rx="0.809" ry="0.774" fill="#e8e8e8"/>
            <path id="Path_99222" data-name="Path 99222" d="M424.278,66.013a.81.81,0,1,1-.809-.773A.792.792,0,0,1,424.278,66.013Z" transform="translate(-415.378 -65.24)" fill="#e8e8e8"/>
            <ellipse id="Ellipse_3956" data-name="Ellipse 3956" cx="0.809" cy="0.774" rx="0.809" ry="0.774" transform="translate(14.564)" fill="#e8e8e8"/>
            <path id="Path_99223" data-name="Path 99223" d="M441.171,66.013a.81.81,0,1,1-.81-.773A.793.793,0,0,1,441.171,66.013Z" transform="translate(-417.707 -65.24)" fill="#e8e8e8"/>
            <path id="Path_99224" data-name="Path 99224" d="M449.617,66.013a.81.81,0,1,1-.809-.773A.792.792,0,0,1,449.617,66.013Z" transform="translate(-418.871 -65.24)" fill="#e8e8e8"/>
            <ellipse id="Ellipse_3957" data-name="Ellipse 3957" cx="0.809" cy="0.774" rx="0.809" ry="0.774" transform="translate(36.41)" fill="#e8e8e8"/>
            <path id="Path_99225" data-name="Path 99225" d="M466.51,66.013a.81.81,0,1,1-.81-.773A.793.793,0,0,1,466.51,66.013Z" transform="translate(-421.2 -65.24)" fill="#e8e8e8"/>
            <ellipse id="Ellipse_3958" data-name="Ellipse 3958" cx="0.809" cy="0.774" rx="0.809" ry="0.774" transform="translate(50.974)" fill="#e8e8e8"/>
            <ellipse id="Ellipse_3959" data-name="Ellipse 3959" cx="0.809" cy="0.774" rx="0.809" ry="0.774" transform="translate(58.256)" fill="#e8e8e8"/>
            <path id="Path_99226" data-name="Path 99226" d="M491.849,66.013a.81.81,0,1,1-.809-.773A.793.793,0,0,1,491.849,66.013Z" transform="translate(-424.693 -65.24)" fill="#e8e8e8"/>
            <path id="Path_99227" data-name="Path 99227" d="M500.3,66.013a.81.81,0,1,1-.81-.773A.793.793,0,0,1,500.3,66.013Z" transform="translate(-425.858 -65.24)" fill="#e8e8e8"/>
          </g>
          <g id="Group_53309" data-name="Group 53309" transform="translate(0 18.57)">
            <ellipse id="Ellipse_3960" data-name="Ellipse 3960" cx="0.809" cy="0.774" rx="0.809" ry="0.774" transform="translate(0 0)" fill="#e8e8e8"/>
            <path id="Path_99228" data-name="Path 99228" d="M424.278,73.521a.81.81,0,1,1-.809-.774A.792.792,0,0,1,424.278,73.521Z" transform="translate(-415.378 -72.747)" fill="#e8e8e8"/>
            <ellipse id="Ellipse_3961" data-name="Ellipse 3961" cx="0.809" cy="0.774" rx="0.809" ry="0.774" transform="translate(14.564 0)" fill="#e8e8e8"/>
            <path id="Path_99229" data-name="Path 99229" d="M441.171,73.521a.81.81,0,1,1-.81-.774A.792.792,0,0,1,441.171,73.521Z" transform="translate(-417.707 -72.747)" fill="#e8e8e8"/>
            <path id="Path_99230" data-name="Path 99230" d="M449.617,73.521a.81.81,0,1,1-.809-.774A.792.792,0,0,1,449.617,73.521Z" transform="translate(-418.871 -72.747)" fill="#e8e8e8"/>
            <ellipse id="Ellipse_3962" data-name="Ellipse 3962" cx="0.809" cy="0.774" rx="0.809" ry="0.774" transform="translate(36.41 0)" fill="#e8e8e8"/>
            <path id="Path_99231" data-name="Path 99231" d="M466.51,73.521a.81.81,0,1,1-.81-.774A.792.792,0,0,1,466.51,73.521Z" transform="translate(-421.2 -72.747)" fill="#e8e8e8"/>
            <ellipse id="Ellipse_3963" data-name="Ellipse 3963" cx="0.809" cy="0.774" rx="0.809" ry="0.774" transform="translate(50.974 0)" fill="#e8e8e8"/>
            <ellipse id="Ellipse_3964" data-name="Ellipse 3964" cx="0.809" cy="0.774" rx="0.809" ry="0.774" transform="translate(58.256 0)" fill="#e8e8e8"/>
            <path id="Path_99232" data-name="Path 99232" d="M491.849,73.521a.81.81,0,1,1-.809-.774A.792.792,0,0,1,491.849,73.521Z" transform="translate(-424.693 -72.747)" fill="#e8e8e8"/>
            <path id="Path_99233" data-name="Path 99233" d="M500.3,73.521a.81.81,0,1,1-.81-.774A.792.792,0,0,1,500.3,73.521Z" transform="translate(-425.858 -72.747)" fill="#e8e8e8"/>
          </g>
          <g id="Group_53310" data-name="Group 53310" transform="translate(0 24.76)">
            <path id="Path_99234" data-name="Path 99234" d="M415.832,81.029a.81.81,0,1,1-.81-.774A.792.792,0,0,1,415.832,81.029Z" transform="translate(-414.214 -80.255)" fill="#e8e8e8"/>
            <path id="Path_99235" data-name="Path 99235" d="M424.278,81.029a.81.81,0,1,1-.809-.774A.792.792,0,0,1,424.278,81.029Z" transform="translate(-415.378 -80.255)" fill="#e8e8e8"/>
            <path id="Path_99236" data-name="Path 99236" d="M432.724,81.029a.81.81,0,1,1-.809-.774A.792.792,0,0,1,432.724,81.029Z" transform="translate(-416.542 -80.255)" fill="#e8e8e8"/>
            <path id="Path_99237" data-name="Path 99237" d="M441.171,81.029a.81.81,0,1,1-.81-.774A.792.792,0,0,1,441.171,81.029Z" transform="translate(-417.707 -80.255)" fill="#e8e8e8"/>
            <path id="Path_99238" data-name="Path 99238" d="M449.617,81.029a.81.81,0,1,1-.809-.774A.792.792,0,0,1,449.617,81.029Z" transform="translate(-418.871 -80.255)" fill="#e8e8e8"/>
            <path id="Path_99239" data-name="Path 99239" d="M458.063,81.029a.81.81,0,1,1-.809-.774A.792.792,0,0,1,458.063,81.029Z" transform="translate(-420.036 -80.255)" fill="#e8e8e8"/>
            <path id="Path_99240" data-name="Path 99240" d="M466.51,81.029a.81.81,0,1,1-.81-.774A.792.792,0,0,1,466.51,81.029Z" transform="translate(-421.2 -80.255)" fill="#e8e8e8"/>
            <path id="Path_99241" data-name="Path 99241" d="M474.956,81.029a.81.81,0,1,1-.809-.774A.792.792,0,0,1,474.956,81.029Z" transform="translate(-422.364 -80.255)" fill="#e8e8e8"/>
            <path id="Path_99242" data-name="Path 99242" d="M483.4,81.029a.81.81,0,1,1-.809-.774A.792.792,0,0,1,483.4,81.029Z" transform="translate(-423.529 -80.255)" fill="#e8e8e8"/>
            <path id="Path_99243" data-name="Path 99243" d="M491.849,81.029a.81.81,0,1,1-.809-.774A.792.792,0,0,1,491.849,81.029Z" transform="translate(-424.693 -80.255)" fill="#e8e8e8"/>
            <path id="Path_99244" data-name="Path 99244" d="M500.3,81.029a.81.81,0,1,1-.81-.774A.792.792,0,0,1,500.3,81.029Z" transform="translate(-425.858 -80.255)" fill="#e8e8e8"/>
          </g>
          <g id="Group_53311" data-name="Group 53311" transform="translate(0 30.95)">
            <ellipse id="Ellipse_3965" data-name="Ellipse 3965" cx="0.809" cy="0.774" rx="0.809" ry="0.774" transform="translate(0 0)" fill="#e8e8e8"/>
            <path id="Path_99245" data-name="Path 99245" d="M424.278,88.537a.81.81,0,1,1-.809-.774A.792.792,0,0,1,424.278,88.537Z" transform="translate(-415.378 -87.763)" fill="#e8e8e8"/>
            <ellipse id="Ellipse_3966" data-name="Ellipse 3966" cx="0.809" cy="0.774" rx="0.809" ry="0.774" transform="translate(14.564 0)" fill="#e8e8e8"/>
            <path id="Path_99246" data-name="Path 99246" d="M441.171,88.537a.81.81,0,1,1-.81-.774A.792.792,0,0,1,441.171,88.537Z" transform="translate(-417.707 -87.763)" fill="#e8e8e8"/>
            <path id="Path_99247" data-name="Path 99247" d="M449.617,88.537a.81.81,0,1,1-.809-.774A.792.792,0,0,1,449.617,88.537Z" transform="translate(-418.871 -87.763)" fill="#e8e8e8"/>
            <ellipse id="Ellipse_3967" data-name="Ellipse 3967" cx="0.809" cy="0.774" rx="0.809" ry="0.774" transform="translate(36.41 0)" fill="#e8e8e8"/>
            <path id="Path_99248" data-name="Path 99248" d="M466.51,88.537a.81.81,0,1,1-.81-.774A.792.792,0,0,1,466.51,88.537Z" transform="translate(-421.2 -87.763)" fill="#e8e8e8"/>
            <ellipse id="Ellipse_3968" data-name="Ellipse 3968" cx="0.809" cy="0.774" rx="0.809" ry="0.774" transform="translate(50.974 0)" fill="#e8e8e8"/>
            <ellipse id="Ellipse_3969" data-name="Ellipse 3969" cx="0.809" cy="0.774" rx="0.809" ry="0.774" transform="translate(58.256 0)" fill="#e8e8e8"/>
            <path id="Path_99249" data-name="Path 99249" d="M491.849,88.537a.81.81,0,1,1-.809-.774A.792.792,0,0,1,491.849,88.537Z" transform="translate(-424.693 -87.763)" fill="#e8e8e8"/>
            <path id="Path_99250" data-name="Path 99250" d="M500.3,88.537a.81.81,0,1,1-.81-.774A.792.792,0,0,1,500.3,88.537Z" transform="translate(-425.858 -87.763)" fill="#e8e8e8"/>
          </g>
          <g id="Group_53312" data-name="Group 53312" transform="translate(0 37.141)">
            <ellipse id="Ellipse_3970" data-name="Ellipse 3970" cx="0.809" cy="0.774" rx="0.809" ry="0.774" fill="#e8e8e8"/>
            <path id="Path_99251" data-name="Path 99251" d="M424.278,96.044a.81.81,0,1,1-.809-.773A.792.792,0,0,1,424.278,96.044Z" transform="translate(-415.378 -95.271)" fill="#e8e8e8"/>
            <ellipse id="Ellipse_3971" data-name="Ellipse 3971" cx="0.809" cy="0.774" rx="0.809" ry="0.774" transform="translate(14.564)" fill="#e8e8e8"/>
            <path id="Path_99252" data-name="Path 99252" d="M441.171,96.044a.81.81,0,1,1-.81-.773A.792.792,0,0,1,441.171,96.044Z" transform="translate(-417.707 -95.271)" fill="#e8e8e8"/>
            <path id="Path_99253" data-name="Path 99253" d="M449.617,96.044a.81.81,0,1,1-.809-.773A.792.792,0,0,1,449.617,96.044Z" transform="translate(-418.871 -95.271)" fill="#e8e8e8"/>
            <ellipse id="Ellipse_3972" data-name="Ellipse 3972" cx="0.809" cy="0.774" rx="0.809" ry="0.774" transform="translate(36.41)" fill="#e8e8e8"/>
            <path id="Path_99254" data-name="Path 99254" d="M466.51,96.044a.81.81,0,1,1-.81-.773A.793.793,0,0,1,466.51,96.044Z" transform="translate(-421.2 -95.271)" fill="#e8e8e8"/>
            <ellipse id="Ellipse_3973" data-name="Ellipse 3973" cx="0.809" cy="0.774" rx="0.809" ry="0.774" transform="translate(50.974)" fill="#e8e8e8"/>
            <ellipse id="Ellipse_3974" data-name="Ellipse 3974" cx="0.809" cy="0.774" rx="0.809" ry="0.774" transform="translate(58.256)" fill="#e8e8e8"/>
            <path id="Path_99255" data-name="Path 99255" d="M491.849,96.044a.81.81,0,1,1-.809-.773A.793.793,0,0,1,491.849,96.044Z" transform="translate(-424.693 -95.271)" fill="#e8e8e8"/>
            <path id="Path_99256" data-name="Path 99256" d="M500.3,96.044a.81.81,0,1,1-.81-.773A.792.792,0,0,1,500.3,96.044Z" transform="translate(-425.858 -95.271)" fill="#e8e8e8"/>
          </g>
          <g id="Group_53313" data-name="Group 53313" transform="translate(0 43.331)">
            <path id="Path_99257" data-name="Path 99257" d="M415.832,103.552a.81.81,0,1,1-.81-.773A.792.792,0,0,1,415.832,103.552Z" transform="translate(-414.214 -102.779)" fill="#e8e8e8"/>
            <path id="Path_99258" data-name="Path 99258" d="M424.278,103.552a.81.81,0,1,1-.809-.773A.792.792,0,0,1,424.278,103.552Z" transform="translate(-415.378 -102.779)" fill="#e8e8e8"/>
            <path id="Path_99259" data-name="Path 99259" d="M432.724,103.552a.81.81,0,1,1-.809-.773A.792.792,0,0,1,432.724,103.552Z" transform="translate(-416.542 -102.779)" fill="#e8e8e8"/>
            <path id="Path_99260" data-name="Path 99260" d="M441.171,103.552a.81.81,0,1,1-.81-.773A.792.792,0,0,1,441.171,103.552Z" transform="translate(-417.707 -102.779)" fill="#e8e8e8"/>
            <path id="Path_99261" data-name="Path 99261" d="M449.617,103.552a.81.81,0,1,1-.809-.773A.792.792,0,0,1,449.617,103.552Z" transform="translate(-418.871 -102.779)" fill="#e8e8e8"/>
            <path id="Path_99262" data-name="Path 99262" d="M458.063,103.552a.81.81,0,1,1-.809-.773A.792.792,0,0,1,458.063,103.552Z" transform="translate(-420.036 -102.779)" fill="#e8e8e8"/>
            <path id="Path_99263" data-name="Path 99263" d="M466.51,103.552a.81.81,0,1,1-.81-.773A.793.793,0,0,1,466.51,103.552Z" transform="translate(-421.2 -102.779)" fill="#e8e8e8"/>
            <path id="Path_99264" data-name="Path 99264" d="M474.956,103.552a.81.81,0,1,1-.809-.773A.792.792,0,0,1,474.956,103.552Z" transform="translate(-422.364 -102.779)" fill="#e8e8e8"/>
            <path id="Path_99265" data-name="Path 99265" d="M483.4,103.552a.81.81,0,1,1-.809-.773A.792.792,0,0,1,483.4,103.552Z" transform="translate(-423.529 -102.779)" fill="#e8e8e8"/>
            <path id="Path_99266" data-name="Path 99266" d="M491.849,103.552a.81.81,0,1,1-.809-.773A.793.793,0,0,1,491.849,103.552Z" transform="translate(-424.693 -102.779)" fill="#e8e8e8"/>
            <path id="Path_99267" data-name="Path 99267" d="M500.3,103.552a.81.81,0,1,1-.81-.773A.792.792,0,0,1,500.3,103.552Z" transform="translate(-425.858 -102.779)" fill="#e8e8e8"/>
          </g>
          <g id="Group_53314" data-name="Group 53314" transform="translate(0 49.521)">
            <ellipse id="Ellipse_3975" data-name="Ellipse 3975" cx="0.809" cy="0.774" rx="0.809" ry="0.774" fill="#e8e8e8"/>
            <path id="Path_99268" data-name="Path 99268" d="M424.278,111.06a.81.81,0,1,1-.809-.773A.792.792,0,0,1,424.278,111.06Z" transform="translate(-415.378 -110.287)" fill="#e8e8e8"/>
            <ellipse id="Ellipse_3976" data-name="Ellipse 3976" cx="0.809" cy="0.774" rx="0.809" ry="0.774" transform="translate(14.564)" fill="#e8e8e8"/>
            <path id="Path_99269" data-name="Path 99269" d="M441.171,111.06a.81.81,0,1,1-.81-.773A.793.793,0,0,1,441.171,111.06Z" transform="translate(-417.707 -110.287)" fill="#e8e8e8"/>
            <path id="Path_99270" data-name="Path 99270" d="M449.617,111.06a.81.81,0,1,1-.809-.773A.792.792,0,0,1,449.617,111.06Z" transform="translate(-418.871 -110.287)" fill="#e8e8e8"/>
            <ellipse id="Ellipse_3977" data-name="Ellipse 3977" cx="0.809" cy="0.774" rx="0.809" ry="0.774" transform="translate(36.41)" fill="#e8e8e8"/>
            <path id="Path_99271" data-name="Path 99271" d="M466.51,111.06a.81.81,0,1,1-.81-.773A.793.793,0,0,1,466.51,111.06Z" transform="translate(-421.2 -110.287)" fill="#e8e8e8"/>
            <ellipse id="Ellipse_3978" data-name="Ellipse 3978" cx="0.809" cy="0.774" rx="0.809" ry="0.774" transform="translate(50.974)" fill="#e8e8e8"/>
            <ellipse id="Ellipse_3979" data-name="Ellipse 3979" cx="0.809" cy="0.774" rx="0.809" ry="0.774" transform="translate(58.256)" fill="#e8e8e8"/>
            <path id="Path_99272" data-name="Path 99272" d="M491.849,111.06a.81.81,0,1,1-.809-.773A.793.793,0,0,1,491.849,111.06Z" transform="translate(-424.693 -110.287)" fill="#e8e8e8"/>
            <path id="Path_99273" data-name="Path 99273" d="M500.3,111.06a.81.81,0,1,1-.81-.773A.793.793,0,0,1,500.3,111.06Z" transform="translate(-425.858 -110.287)" fill="#e8e8e8"/>
          </g>
          <g id="Group_53315" data-name="Group 53315" transform="translate(0 55.711)">
            <path id="Path_99274" data-name="Path 99274" d="M415.832,118.568a.81.81,0,1,1-.81-.774A.793.793,0,0,1,415.832,118.568Z" transform="translate(-414.214 -117.794)" fill="#e8e8e8"/>
            <path id="Path_99275" data-name="Path 99275" d="M424.278,118.568a.81.81,0,1,1-.809-.774A.792.792,0,0,1,424.278,118.568Z" transform="translate(-415.378 -117.794)" fill="#e8e8e8"/>
            <path id="Path_99276" data-name="Path 99276" d="M432.724,118.568a.81.81,0,1,1-.809-.774A.792.792,0,0,1,432.724,118.568Z" transform="translate(-416.542 -117.794)" fill="#e8e8e8"/>
            <path id="Path_99277" data-name="Path 99277" d="M441.171,118.568a.81.81,0,1,1-.81-.774A.793.793,0,0,1,441.171,118.568Z" transform="translate(-417.707 -117.794)" fill="#e8e8e8"/>
            <path id="Path_99278" data-name="Path 99278" d="M449.617,118.568a.81.81,0,1,1-.809-.774A.792.792,0,0,1,449.617,118.568Z" transform="translate(-418.871 -117.794)" fill="#e8e8e8"/>
            <path id="Path_99279" data-name="Path 99279" d="M458.063,118.568a.81.81,0,1,1-.809-.774A.792.792,0,0,1,458.063,118.568Z" transform="translate(-420.036 -117.794)" fill="#e8e8e8"/>
            <path id="Path_99280" data-name="Path 99280" d="M466.51,118.568a.81.81,0,1,1-.81-.774A.793.793,0,0,1,466.51,118.568Z" transform="translate(-421.2 -117.794)" fill="#e8e8e8"/>
            <path id="Path_99281" data-name="Path 99281" d="M474.956,118.568a.81.81,0,1,1-.809-.774A.792.792,0,0,1,474.956,118.568Z" transform="translate(-422.364 -117.794)" fill="#e8e8e8"/>
            <path id="Path_99282" data-name="Path 99282" d="M483.4,118.568a.81.81,0,1,1-.809-.774A.792.792,0,0,1,483.4,118.568Z" transform="translate(-423.529 -117.794)" fill="#e8e8e8"/>
            <path id="Path_99283" data-name="Path 99283" d="M491.849,118.568a.81.81,0,1,1-.809-.774A.793.793,0,0,1,491.849,118.568Z" transform="translate(-424.693 -117.794)" fill="#e8e8e8"/>
            <path id="Path_99284" data-name="Path 99284" d="M500.3,118.568a.81.81,0,1,1-.81-.774A.793.793,0,0,1,500.3,118.568Z" transform="translate(-425.858 -117.794)" fill="#e8e8e8"/>
          </g>
          <g id="Group_53316" data-name="Group 53316" transform="translate(0 61.901)">
            <ellipse id="Ellipse_3980" data-name="Ellipse 3980" cx="0.809" cy="0.774" rx="0.809" ry="0.774" transform="translate(0 0)" fill="#e8e8e8"/>
            <path id="Path_99285" data-name="Path 99285" d="M424.278,126.076a.81.81,0,1,1-.809-.774A.792.792,0,0,1,424.278,126.076Z" transform="translate(-415.378 -125.302)" fill="#e8e8e8"/>
            <ellipse id="Ellipse_3981" data-name="Ellipse 3981" cx="0.809" cy="0.774" rx="0.809" ry="0.774" transform="translate(14.564 0)" fill="#e8e8e8"/>
            <path id="Path_99286" data-name="Path 99286" d="M441.171,126.076a.81.81,0,1,1-.81-.774A.792.792,0,0,1,441.171,126.076Z" transform="translate(-417.707 -125.302)" fill="#e8e8e8"/>
            <path id="Path_99287" data-name="Path 99287" d="M449.617,126.076a.81.81,0,1,1-.809-.774A.792.792,0,0,1,449.617,126.076Z" transform="translate(-418.871 -125.302)" fill="#e8e8e8"/>
            <ellipse id="Ellipse_3982" data-name="Ellipse 3982" cx="0.809" cy="0.774" rx="0.809" ry="0.774" transform="translate(36.41 0)" fill="#e8e8e8"/>
            <path id="Path_99288" data-name="Path 99288" d="M466.51,126.076a.81.81,0,1,1-.81-.774A.792.792,0,0,1,466.51,126.076Z" transform="translate(-421.2 -125.302)" fill="#e8e8e8"/>
            <ellipse id="Ellipse_3983" data-name="Ellipse 3983" cx="0.809" cy="0.774" rx="0.809" ry="0.774" transform="translate(50.974 0)" fill="#e8e8e8"/>
            <ellipse id="Ellipse_3984" data-name="Ellipse 3984" cx="0.809" cy="0.774" rx="0.809" ry="0.774" transform="translate(58.256 0)" fill="#e8e8e8"/>
            <path id="Path_99289" data-name="Path 99289" d="M491.849,126.076a.81.81,0,1,1-.809-.774A.792.792,0,0,1,491.849,126.076Z" transform="translate(-424.693 -125.302)" fill="#e8e8e8"/>
            <path id="Path_99290" data-name="Path 99290" d="M500.3,126.076a.81.81,0,1,1-.81-.774A.792.792,0,0,1,500.3,126.076Z" transform="translate(-425.858 -125.302)" fill="#e8e8e8"/>
          </g>
          <g id="Group_53317" data-name="Group 53317" transform="translate(0 68.092)">
            <ellipse id="Ellipse_3985" data-name="Ellipse 3985" cx="0.809" cy="0.774" rx="0.809" ry="0.774" transform="translate(0 0)" fill="#e8e8e8"/>
            <path id="Path_99291" data-name="Path 99291" d="M424.278,133.584a.81.81,0,1,1-.809-.774A.792.792,0,0,1,424.278,133.584Z" transform="translate(-415.378 -132.81)" fill="#e8e8e8"/>
            <ellipse id="Ellipse_3986" data-name="Ellipse 3986" cx="0.809" cy="0.774" rx="0.809" ry="0.774" transform="translate(14.564 0)" fill="#e8e8e8"/>
            <path id="Path_99292" data-name="Path 99292" d="M441.171,133.584a.81.81,0,1,1-.81-.774A.792.792,0,0,1,441.171,133.584Z" transform="translate(-417.707 -132.81)" fill="#e8e8e8"/>
            <path id="Path_99293" data-name="Path 99293" d="M449.617,133.584a.81.81,0,1,1-.809-.774A.792.792,0,0,1,449.617,133.584Z" transform="translate(-418.871 -132.81)" fill="#e8e8e8"/>
            <ellipse id="Ellipse_3987" data-name="Ellipse 3987" cx="0.809" cy="0.774" rx="0.809" ry="0.774" transform="translate(36.41 0)" fill="#e8e8e8"/>
            <path id="Path_99294" data-name="Path 99294" d="M466.51,133.584a.81.81,0,1,1-.81-.774A.792.792,0,0,1,466.51,133.584Z" transform="translate(-421.2 -132.81)" fill="#e8e8e8"/>
            <ellipse id="Ellipse_3988" data-name="Ellipse 3988" cx="0.809" cy="0.774" rx="0.809" ry="0.774" transform="translate(50.974 0)" fill="#e8e8e8"/>
            <ellipse id="Ellipse_3989" data-name="Ellipse 3989" cx="0.809" cy="0.774" rx="0.809" ry="0.774" transform="translate(58.256 0)" fill="#e8e8e8"/>
            <path id="Path_99295" data-name="Path 99295" d="M491.849,133.584a.81.81,0,1,1-.809-.774A.792.792,0,0,1,491.849,133.584Z" transform="translate(-424.693 -132.81)" fill="#e8e8e8"/>
            <path id="Path_99296" data-name="Path 99296" d="M500.3,133.584a.81.81,0,1,1-.81-.774A.792.792,0,0,1,500.3,133.584Z" transform="translate(-425.858 -132.81)" fill="#e8e8e8"/>
          </g>
        </g>
      </g>
    </g>
    <g id="Group_151158" data-name="Group 151158" transform="translate(41.616 186.94)">
      <path id="Path_263087" data-name="Path 263087" d="M1598.7,609.577s-1.13-4.854-1.446-5.564.359-.035,1.542-.193-.043-.359.982-.833,6.469,1.341,7.337,1.656-.473,1.383.315,1.638a12.466,12.466,0,0,1,1.814.831l-4.288,3.585Z" transform="translate(-1128.776 -330.342)" fill="#424242"/>
      <path id="Path_263088" data-name="Path 263088" d="M243.384,1249.174c0,1.355,5.874,1.819,92.09,1.819,85.364,0,93-.464,93-1.819s-6.326-1.825-93-1.825C250.615,1247.349,243.384,1247.819,243.384,1249.174Z" transform="translate(0 -867.668)" fill="#606073"/>
      <path id="Path_263089" data-name="Path 263089" d="M509.927,1037.663c0-10.9,7.595-19.745,16.963-19.745l.174,0,.078,0h6.288c9.369,0,16.963,8.84,16.963,19.745s-7.595,19.745-16.963,19.745c-.2,0-6.692.008-6.887,0-.078,0-.155-.008-.232-.013C517.211,1057.04,509.927,1048.343,509.927,1037.663Z" transform="translate(-222.241 -676.372)" fill="#1a1a1a"/>
      <path id="Path_263090" data-name="Path 263090" d="M1037.349,1004.753c0-12.8,9.014-23.184,20.132-23.184l.208,0,.092,0h7.463c11.119,0,20.133,10.38,20.133,23.184s-9.014,23.184-20.133,23.184c-.234,0-7.942.009-8.174,0-.093,0-.184-.01-.276-.015C1045.994,1027.5,1037.349,1017.291,1037.349,1004.753Z" transform="translate(-661.999 -646.064)" fill="#1a1a1a"/>
      <path id="Path_263091" data-name="Path 263091" d="M791.039,569.093a8.836,8.836,0,0,1,0-1.168c.046-.5,1.912-.573,2.032-.574S791.039,569.093,791.039,569.093Z" transform="translate(-456.611 -300.694)" fill="#e9946b"/>
      <path id="Path_263092" data-name="Path 263092" d="M730.172,578.84l1.687,1.994s1.938-1.63,4.5-3.572c1.554-1.18,2.98.843,3.216.88.625.1-2.773,4.394-5.784,7.338s-6.559-.523-7.638-2.267a10.127,10.127,0,0,1-.642-3.014Z" transform="translate(-401.989 -308.649)" fill="#dd8860"/>
      <g id="Group_151141" data-name="Group 151141" transform="translate(344.006 272.289)">
        <path id="Path_263093" data-name="Path 263093" d="M890.415,641.65s-11.848-27.626-14.052-28.974-3.328-1.906-4.893-2.693c-4.967-2.5-13.516-8.956-14.685-8.743s-8.9,6.287-7.928,7.583,15.385,12.408,15.5,13.123-3.507,7.46-3.161,9.361,10.787,22.256,13.444,23.206,8.694,2.788,9.6,2.505,6.751-5.484,6.751-5.484Z" transform="translate(-848.773 -601.235)" fill="#333"/>
        <path id="Path_263094" data-name="Path 263094" d="M946.269,676.723l8.536-2.882,2.407-.813c.283-.1.4.352.123.447l-3.41,1.151,5.534,12.973,1.573,3.688c.116.271-.283.508-.4.234l-5.6-13.119-1.547-3.628-4.689,1.583-2.407.813C946.109,677.266,945.987,676.818,946.269,676.723Z" transform="translate(-929.931 -661.084)" fill="#232323"/>
      </g>
      <path id="Path_263095" data-name="Path 263095" d="M860.877,612.068l5.373-4.656c.225-.194.554.132.328.328L861.2,612.4C860.98,612.591,860.651,612.264,860.877,612.068Z" transform="translate(-514.795 -334.047)" fill="#232323"/>
      <path id="Path_263096" data-name="Path 263096" d="M652.109,307.58c.257-.606-14.33-79.573-18.585-82.6-5.812-4.133-73.8-4.206-76.356-3.657s-3.292,6.949-2.743,7.864,5.486.915,5.486.915-10.375,88.813-10.192,89.723,8.413,6.74,8.413,6.74l10.631-95.914s56.8.549,59.546,3.109,13.948,73.216,13.948,73.216Z" transform="translate(-255.417 -11.979)" fill="#333"/>
      <g id="Group_151142" data-name="Group 151142" transform="translate(346.468 223.277)">
        <path id="Path_263097" data-name="Path 263097" d="M870.839,351.56q-1.181-1.261-2.414-2.472c-.772-.755-1.6-1.45-2.318-2.259a7.3,7.3,0,0,1-1.6-2.57c-.155-.478-.268-.969-.381-1.458s-.242-.96-.339-1.444a7.764,7.764,0,0,1-.09-3.076,3.649,3.649,0,0,1,1.178-1.971c.743-.677,1.635-1.171,2.43-1.779,1.27,5.134,2.638,11.193,4,17.541C871.152,351.9,871,351.729,870.839,351.56Z" transform="translate(-863.585 -329.848)" fill="#333"/>
        <path id="Path_263098" data-name="Path 263098" d="M869.908,321.275a3.219,3.219,0,0,1-2.214-1.967,12.072,12.072,0,0,1-1.009-4.667c.211-2.319,6.154-7.752,8.667-8.066s6.385-.419,6.7.628.733,14.885,0,15.66-5.116.228-5.967,0C874.614,322.469,871.705,321.73,869.908,321.275Z" transform="translate(-866.156 -306.359)" fill="#595959"/>
        <path id="Path_263099" data-name="Path 263099" d="M927.587,315.587s0,12.513.628,12.932,3.943.7,3.943-.032.349-13.157-.279-13.262S927.585,314.75,927.587,315.587Z" transform="translate(-916.949 -313.608)" fill="#f8be39"/>
        <path id="Path_263100" data-name="Path 263100" d="M928.262,332.667a6.908,6.908,0,0,1,1.14.018,1.98,1.98,0,0,1,.245.049l.088.026.042.015.006,0c.03.015.058.031.086.049l.006,0,.049.038a.157.157,0,0,1,.023.028.3.3,0,0,1,.036.085,5.464,5.464,0,0,1,.09,1.1c.065.687.073,1.384.074,2.075,0,2.475-.237,4.946-.188,7.42a4.632,4.632,0,0,1-1.672-.382c-.451-.3-.578-6.828-.614-10.492C927.868,332.688,928.065,332.676,928.262,332.667Z" transform="translate(-917.02 -328.282)" fill="#fff"/>
        <path id="Path_263101" data-name="Path 263101" d="M912.877,316.51q.016-1.65.032-3.3a.34.34,0,0,1,.679,0q-.028,2.863-.055,5.726a36.566,36.566,0,0,0,.154,5.287,10.738,10.738,0,0,0,.719,2.747.351.351,0,0,1-.122.464.342.342,0,0,1-.464-.122,14.224,14.224,0,0,1-.968-5.222C912.8,320.232,912.859,318.368,912.877,316.51Z" transform="translate(-904.645 -311.797)" fill="#333"/>
      </g>
      <path id="Path_263102" data-name="Path 263102" d="M987.039,736.849h28.8c-2.333-15.085-5.126-37.992-4.018-38.854,1.646-1.28,12.436-3.292,13.886-1.1s9.986,50.715,9.986,50.715-16.008,2.87-17.278,2.26c-.4-.193-1.378-5.351-2.471-12.345H987.039A.34.34,0,0,1,987.039,736.849Z" transform="translate(-619.778 -407.895)" fill="#161632"/>
      <path id="Path_263103" data-name="Path 263103" d="M970.783,213.612c.747.19,7.706-.19,8.263,0s3.068,17.49,2.683,18.591c-.211.6-6.918-.288-7.291.272s.856,5.5.856,5.5,6.742.217,7.229.59,2.742,17.277,2.8,18.211l-3.362.067c-.747.747.384,5.409.384,5.409h6.446l-.006-1.6a43.17,43.17,0,0,1-4.715-.218c-.554-.185-.647-1.617-.554-1.848a33.478,33.478,0,0,1,5.081-.026s-1.446-21.832-1.394-22.331l-10.241-.076s-.41-1.683-.054-1.8a93.478,93.478,0,0,1,10.2-.2,181.541,181.541,0,0,1-1.4-18.105h25.312V207s-41.03-.534-41.938-.132S970.036,213.422,970.783,213.612Zm.5-3.917c.476-.476,38.715-.592,38.715-.592v2.615h-38.12S970.81,210.171,971.286,209.7Z" transform="translate(-604.871)" fill="#f8be39"/>
      <path id="Path_263104" data-name="Path 263104" d="M1127.49,213.612c.747.19,7.706-.19,8.263,0s3.068,17.49,2.683,18.591c-.211.6-6.917-.288-7.291.272s.856,5.5.856,5.5,6.742.217,7.229.59,2.743,17.277,2.8,18.211l-3.362.067c-.747.747.384,5.409.384,5.409h6.446l-.006-1.6a43.171,43.171,0,0,1-4.714-.218c-.554-.185-.647-1.617-.554-1.848a33.477,33.477,0,0,1,5.081-.026s-1.446-21.832-1.394-22.331l-10.241-.076s-.41-1.683-.053-1.8a93.474,93.474,0,0,1,10.2-.2,181.541,181.541,0,0,1-1.4-18.105h5.387V207s-21.1-.534-22.012-.132S1126.743,213.422,1127.49,213.612Zm.5-3.917c.476-.476,18.79-.592,18.79-.592v2.615h-18.195S1127.517,210.171,1127.993,209.7Z" transform="translate(-735.532)" fill="#f8be39"/>
      <path id="Path_263105" data-name="Path 263105" d="M1016.487,790.09l-20.528.981,4.724,36.37,17.61.043Z" transform="translate(-627.489 -486.411)" fill="#232323"/>
      <path id="Path_263106" data-name="Path 263106" d="M1025.409,855.851s-2.5-15.821-2.78-17.122,16.8-1.186,18.8-.827,4.221,14.53,2.553,15.622S1025.409,855.851,1025.409,855.851Z" transform="translate(-649.723 -526.077)" fill="#161632"/>
      <path id="Path_263107" data-name="Path 263107" d="M1073.915,379.618S1062.025,220,1061.531,219.125c-.293-.521-4.851-.424-8.508-.258a4.166,4.166,0,0,0-3.924,4.834c4.264,26.075,13.06,154.69,13.375,155.917C1062.825,380.987,1073.915,379.618,1073.915,379.618Z" transform="translate(-671.75 -10.022)" fill="#161632"/>
      <path id="Path_263108" data-name="Path 263108" d="M1223.548,379.618S1211.658,220,1211.164,219.125c-.293-.521-4.85-.424-8.507-.258a4.166,4.166,0,0,0-3.924,4.834c4.264,26.075,13.06,154.69,13.375,155.917C1212.458,380.987,1223.548,379.618,1223.548,379.618Z" transform="translate(-796.512 -10.022)" fill="#161632"/>
      <path id="Path_263109" data-name="Path 263109" d="M1031.025,839.911l-.748-4.677a18.622,18.622,0,0,1,4.573-2.689s-.664-6.92,8.816-8.188c6.519-.662,1.266,5.136,2.08,10.583.159,1.064,2.772,1.269,1.3,3.1-.9,1.129-8.133.74-10.7-1.491C1035.975,836.226,1031.025,839.911,1031.025,839.911Z" transform="translate(-656.102 -514.94)" fill="#48485e"/>
      <path id="Path_263110" data-name="Path 263110" d="M1067.015,875.318a.86.86,0,0,1,.286-.6,1.012,1.012,0,0,1,.613-.243.887.887,0,0,1,.9.74.93.93,0,0,1-.113.657.907.907,0,0,1-.532.385.982.982,0,0,1-.665-.063.866.866,0,0,1-.444-.529.791.791,0,0,1-.024-.1A.833.833,0,0,1,1067.015,875.318Z" transform="translate(-686.732 -556.772)" fill="#161632"/>
      <path id="Path_263111" data-name="Path 263111" d="M1052.755,866.595a9.282,9.282,0,0,1,3.128-.835,2.609,2.609,0,0,1,2.238,1.126c.232.371-.355.713-.586.342a1.993,1.993,0,0,0-1.835-.785,9.84,9.84,0,0,0-2.764.806.342.342,0,0,1-.417-.237A.346.346,0,0,1,1052.755,866.595Z" transform="translate(-674.636 -549.504)" fill="#161632"/>
      <path id="Path_263112" data-name="Path 263112" d="M1057.138,884.215a7.95,7.95,0,0,1,2.465-1.6c.706-.311,1.982-.666,1.88-1.664a.342.342,0,0,1,.339-.339.347.347,0,0,1,.339.339,1.7,1.7,0,0,1-.59,1.38,4.578,4.578,0,0,1-1.387.767,7.8,7.8,0,0,0-2.567,1.6A.34.34,0,0,1,1057.138,884.215Z" transform="translate(-678.416 -561.888)" fill="#161632"/>
      <g id="Group_151143" data-name="Group 151143" transform="translate(278.071 299.423)">
        <path id="Path_263113" data-name="Path 263113" d="M499.651,792.183s-.182-26.715-3.007-27.262-41.919-1.151-43.119,2.088-1.45,25.867-1.45,25.867Z" transform="translate(-452.075 -764.486)" fill="#333"/>
        <path id="Path_263114" data-name="Path 263114" d="M496.655,774.8q4.842.028,9.677.354t9.636.954q2.375.31,4.74.691a3.516,3.516,0,0,1,1.852.688,2.8,2.8,0,0,1,.8,1.5,13.148,13.148,0,0,1,.223,1.995q.086,1.2.156,2.411.142,2.431.223,4.864.161,4.848.078,9.7-.01.613-.025,1.227a.232.232,0,0,1-.463,0q.111-4.772-.012-9.546c-.082-3.166-.226-6.335-.482-9.492a4.906,4.906,0,0,0-.357-1.687,1.932,1.932,0,0,0-1.381-1.073c-.719-.178-1.47-.258-2.2-.369q-1.169-.177-2.34-.337-4.71-.642-9.455-.992t-9.484-.413q-.591-.008-1.182-.011A.232.232,0,0,1,496.655,774.8Z" transform="translate(-489.059 -773.085)" fill="#232323"/>
      </g>
      <path id="Path_263115" data-name="Path 263115" d="M1265.218,905.774s4.539,54.135,4.817,54.967,79,1.335,79,1.335,4.99-2.444,2.772-3.276-77.062-3.223-77.894-3.136-4.712-49.89-4.712-49.89Z" transform="translate(-851.994 -582.867)" fill="#2e2e47"/>
      <path id="Path_263116" data-name="Path 263116" d="M1173.084,905.774s4.539,54.135,4.817,54.967,79,1.335,79,1.335,4.99-2.444,2.772-3.276-77.062-3.223-77.894-3.136-4.713-49.89-4.713-49.89Z" transform="translate(-775.173 -582.867)" fill="#48485e"/>
      <path id="Path_263117" data-name="Path 263117" d="M1128.188,259.329h18.83l10.291,139.458h-.906c-1.148-16.32-8.588-117.3-10.276-137.948l-2.695.029c1.712,20.8,10.076,122.516,11.206,137.92h-3.083c-1.147-16.306-8.576-117.136-10.272-137.9l-2.7.029c1.722,20.917,10.073,122.477,11.2,137.868h-3.084c-1.146-16.293-8.564-116.972-10.268-137.846l-2.695.029c1.731,21.03,10.069,122.438,11.2,137.817h-3.084c-1.146-16.279-8.552-116.808-10.264-137.794l-2.695.029c1.74,21.143,10.066,122.4,11.193,137.765h-1.587l-10.68-139.458Z" transform="translate(-737.437 -43.869)" fill="#2e2e47"/>
      <path id="Path_263118" data-name="Path 263118" d="M1147.725,768.319c.156,3.881,4.357,69.393,4.357,69.393l30.45-.608s-3.609-66.844-5-68.785S1147.569,764.438,1147.725,768.319Zm15.071.091q.4,7.166.864,14.328.225,3.426.468,6.85h-6.6l-1.744-21.092C1157.705,768.38,1160.058,768.34,1162.8,768.41Zm4.619,52.752q-1.259-13.337-2.254-26.7-.157-2.1-.305-4.2h6.949q.759,9.631,1.433,19.268.525,7.518,1,15.04h-6.492Q1167.576,822.868,1167.415,821.161Zm-.351,3.412h-6.641q-.136-1.651-.273-3.3l-2.208-26.71-.355-4.3h6.59q.685,9.6,1.505,19.187Q1166.33,817.017,1167.064,824.574Zm2.947-55.69q.636,7.159,1.226,14.322.262,3.19.514,6.382h-6.944q-.749-10.574-1.332-21.158c.276.008.555.018.838.029C1166.595,768.545,1168.476,768.7,1170.011,768.884Zm7.337,20.7h-4.92q-.816-10.311-1.731-20.614c3.591.5,5.045,1.207,5.192,1.721C1175.966,770.961,1176.583,779.145,1177.348,789.587Zm-2.395,35.665h4.966c.416,5.82.689,9.675.689,9.675l-5.065.1Q1175.26,830.138,1174.953,825.253Zm-.042-.679q-.105-1.673-.21-3.345-.848-13.175-1.858-26.339-.177-2.312-.362-4.623h4.916c.827,11.307,1.814,25.074,2.474,34.308Zm-.045,10.465-6.056.117q-.519-4.95-1-9.9h6.468Q1174.581,830.145,1174.866,835.039Zm-13.557.262q-.415-5.024-.83-10.047h6.651q.484,4.96,1,9.916Zm-7.239-10.047h5.73l.832,10.06-5.749.111S1154.556,831.36,1154.07,825.253Zm-2.733-34.987h5.572l1.583,19.15,1.253,15.158h-5.728C1153.277,815.276,1152.2,801.626,1151.337,790.266Zm-1.395-20.561c.161-.478,1.981-.93,5.171-1.164q.586,7.083,1.171,14.165l.569,6.881h-5.567C1150.457,778.656,1149.841,770.005,1149.942,769.7Z" transform="translate(-754.029 -466.39)" fill="#f8be39"/>
      <g id="Group_151144" data-name="Group 151144" transform="translate(295.467 262.661)">
        <path id="Path_263119" data-name="Path 263119" d="M572.772,574.244a1.708,1.708,0,0,0,1,.812,29.85,29.85,0,0,0,3,.537c1.078.143,15.973-.5,15.972-.527.074-.015-.188-3.814-.252-5.477q-.19-4.943-.246-9.889c-.037-3.316-.052-9.588,0-12.9a2.644,2.644,0,0,0-2.351-2.847c-.517-.115-10.545-.358-15.817-.571C573.631,543.361,572.564,573.821,572.772,574.244Z" transform="translate(-570.084 -543.367)" fill="#dd7e13"/>
        <path id="Path_263120" data-name="Path 263120" d="M568.06,580.888c-8.764.021-10.819-.479-11.207-3.067s.225-29.962,1.168-32.838c.869-2.649,5.353-2.012,5.1.915-.259,3-1.155,25.418-.687,27.28s28.156.078,29.308,1.893.479,5.816-.417,5.816Z" transform="translate(-556.736 -543.309)" fill="#f8be39"/>
        <path id="Path_263121" data-name="Path 263121" d="M674.879,736.784a5.334,5.334,0,0,0,.624-3.889,5.622,5.622,0,0,0-.375-1.094c-.1-.218.37-.312.47-.095a5.553,5.553,0,0,1,.222,4.132,6.175,6.175,0,0,1-.52,1.127.3.3,0,0,1-.333.064A.159.159,0,0,1,674.879,736.784Z" transform="translate(-655.219 -700.289)" fill="#dd7e13"/>
      </g>
      <g id="Group_151152" data-name="Group 151152" transform="translate(303.075 237.656)">
        <path id="Path_263122" data-name="Path 263122" d="M627.239,412.927a7.805,7.805,0,0,1,.866-4.968c1.4-2.658,6.247-2.81,6.62-3.414s-.374-.946-1.043-2.043a12.715,12.715,0,0,1-1.075-4.383c0-1.775,1.019-2.254,1.019-2.254a4.542,4.542,0,0,1,2.558-2.621,7.568,7.568,0,0,1,5.4.257c1.5.842,2.113,2.271,2.668,2.534s.587,2.167-.4,2.956-7.19,4.977-7.405,6,2.888,5.261,1.024,7.942S628.239,416.083,627.239,412.927Z" transform="translate(-623.047 -392.867)" fill="#79414c"/>
        <path id="Path_263123" data-name="Path 263123" d="M620.478,491.137s-4.97-1.381-5.938-1.469-6.863-.022-8.251,1.815c-2.457,3.25-2.773,10.358-2.773,11.062s5.165-1.147,5.077-.883-2.278,11.566-2.718,13.061a48.2,48.2,0,0,0-.7,6.334l19.8-2.815.839-11.148s3.509-.957,3.732-1.962c.175-.788-2.2-9.937-2.991-11.081S620.478,491.137,620.478,491.137Z" transform="translate(-603.349 -473.559)" fill="#f8be39"/>
        <g id="Group_151145" data-name="Group 151145" transform="translate(20.268 76.596)">
          <path id="Path_263124" data-name="Path 263124" d="M732.434,854.5c-.052.157-.942,4.5-1.046,5.283s4.865,5.021,5.858,5.335,1.674.628,1.726.889.331.941-.279,1.1-13.268.314-14.053-.418,1.151-5.7,1.517-6.643a32.2,32.2,0,0,0,.941-5.963C727.1,853.032,732.434,854.5,732.434,854.5Z" transform="translate(-724.455 -853.701)" fill="#e9946b"/>
          <path id="Path_263125" data-name="Path 263125" d="M726.426,885.69a19.869,19.869,0,0,0,5.048.242c-.014.083-.079.466-.086.519-.1.784,4.865,5.021,5.858,5.335s1.674.628,1.726.889.331.941-.279,1.1-13.268.314-14.053-.418,1.151-5.7,1.517-6.643C726.192,886.623,726.388,885.83,726.426,885.69Z" transform="translate(-724.455 -880.373)" fill="#fff"/>
          <path id="Path_263126" data-name="Path 263126" d="M727.194,889.711a4.037,4.037,0,0,1,2.753-1.294,3.62,3.62,0,0,1,1.453.227c0,.03-.008.057-.011.08-.1.785,4.864,5.021,5.858,5.335s1.674.628,1.726.889.331.941-.279,1.1-13.268.314-14.053-.418,1.143-5.681,1.515-6.637C726.556,889.325,727.147,889.781,727.194,889.711Z" transform="translate(-724.455 -882.647)" fill="#619859"/>
          <path id="Path_263127" data-name="Path 263127" d="M728.669,924.12c1.367.085,7.928.171,10.4.2a.509.509,0,0,1-.379.638c-.61.157-13.268.314-14.053-.418-.222-.207-.226-.752-.11-1.449l1.052.3A10.05,10.05,0,0,0,728.669,924.12Z" transform="translate(-724.455 -911.556)" fill="#1a1a1a"/>
          <path id="Path_263128" data-name="Path 263128" d="M741.391,898.295a9.591,9.591,0,0,0,2.772,3.5c.257.171.016.589-.243.417a10.07,10.07,0,0,1-2.945-3.67A.241.241,0,0,1,741.391,898.295Z" transform="translate(-738.202 -890.785)" fill="#4f7e59"/>
        </g>
        <g id="Group_151146" data-name="Group 151146" transform="translate(43.653 76.268)">
          <path id="Path_263129" data-name="Path 263129" d="M870.362,852.3l.267,4.819s1.949,2.122,4.083,2.141a22.007,22.007,0,0,0,4.549-.643,1.58,1.58,0,0,1,1.8,1.262c.082.588-5.2,3.666-8.318,4.733a22.449,22.449,0,0,1-7.368.885c-.686,0,.439-2.84.227-7.711-.078-1.8-.405-6.06-.405-6.06Z" transform="translate(-865.15 -851.726)" fill="#e9946b"/>
          <path id="Path_263130" data-name="Path 263130" d="M865.6,880.131c0-.015,0-.031,0-.047a11.936,11.936,0,0,0,4.978-1.559l.052.939s1.949,2.123,4.083,2.141a22.006,22.006,0,0,0,4.549-.643,1.58,1.58,0,0,1,1.8,1.262c.082.588-5.2,3.666-8.318,4.733a22.446,22.446,0,0,1-7.368.885C864.689,887.843,865.814,885,865.6,880.131Z" transform="translate(-865.15 -874.072)" fill="#fff"/>
          <path id="Path_263131" data-name="Path 263131" d="M865.374,892.765c-.642,0,.3-2.487.252-6.8a6.589,6.589,0,0,0,3.213.121s.04-1.257.676-1.536a2.789,2.789,0,0,1,1.166-.112c.321.331,2.1,2.07,4.031,2.087a22.005,22.005,0,0,0,4.549-.643,1.58,1.58,0,0,1,1.8,1.262c.082.588-5.2,3.666-8.318,4.733A22.445,22.445,0,0,1,865.374,892.765Z" transform="translate(-865.15 -878.994)" fill="#619859"/>
          <path id="Path_263132" data-name="Path 263132" d="M865.375,902.736c-.3,0-.255-.527-.13-1.514a12.888,12.888,0,0,0,1.8.064c.875-.079,1.352.159,2.387.04a22.721,22.721,0,0,0,5.291-2.149,35.71,35.71,0,0,1,5.131-2.7,2.155,2.155,0,0,1,.865-.067,1.467,1.467,0,0,1,.337.712c.082.588-5.2,3.666-8.318,4.733A22.446,22.446,0,0,1,865.375,902.736Z" transform="translate(-865.15 -888.965)" fill="#1a1a1a"/>
          <path id="Path_263133" data-name="Path 263133" d="M887.146,905.21a18.227,18.227,0,0,1-4.721.85,38.3,38.3,0,0,0,3.762-1.216c1.83-.8,6.205-3.3,7.518-3.978s1.76-.389,1.76-.389C895.547,901.066,890.265,904.143,887.146,905.21Z" transform="translate(-879.554 -892.324)" fill="#0c0c0c"/>
          <path id="Path_263134" data-name="Path 263134" d="M891.294,893.94a1.746,1.746,0,0,0,.606.548c.267.174.532.352.8.519a10.618,10.618,0,0,0,1.725.652.249.249,0,0,1,.168.3.242.242,0,0,1-.3.168c-.313-.126-.641-.205-.963-.306a3.9,3.9,0,0,1-.926-.425q-.436-.275-.865-.562a2.035,2.035,0,0,1-.669-.648A.241.241,0,0,1,891.294,893.94Z" transform="translate(-886.573 -886.826)" fill="#4f7e59"/>
        </g>
        <path id="Path_263135" data-name="Path 263135" d="M779.109,678.462s4.777.412,5.271.906,1.483,22.073,1.565,23.062,9.331-1.532,9.566-2.355-.918-27.016-2.318-29.19-2.883-3.13-6.671-3.377a94.888,94.888,0,0,0-11.2.494Z" transform="translate(-746.597 -621.817)" fill="#619859"/>
        <path id="Path_263136" data-name="Path 263136" d="M781.5,667.994c-.007.823-.014,1.644,0,2.469q.032,1.419.06,2.838,3.147.487,6.265,1.139c.2.042.117.352-.085.31q-3.071-.643-6.173-1.124.057,2.783.1,5.567c-1.294-.173-2.555-.282-2.555-.282l-3.789-10.46S778.331,668.148,781.5,667.994Z" transform="translate(-746.597 -622.265)" fill="#4f7e59"/>
        <path id="Path_263137" data-name="Path 263137" d="M610.977,489.1s.344,4.182.42,8.812c.018,1.081.021,2.187,0,3.27a31.087,31.087,0,0,1-.723,7.088,7.938,7.938,0,0,1-5.638,5.885,65.411,65.411,0,0,0-2.467,10.234c-.455,4.1,1.639,4.371,9.107,4.553s12.638,0,12.638,0-.752,5.555-2.118,11.839-2.55,11.279-2.459,12.424,10.314,1.5,10.952,0,7.372-30.349,6.188-32.717-12.748-2.815-12.748-2.815.482-4.372.793-9.941c.053-.954.739-3.424.779-4.432.083-2.094-.646-2.6-.813-4.344a42.11,42.11,0,0,0-1.165-6.766s-.649-.629-1.221-.541c0,0,.591,4.934.494,5.548s-8.917-.84-9.305-1.292-1.3-6.822-1.3-6.822A2.069,2.069,0,0,0,610.977,489.1Z" transform="translate(-602.512 -472.991)" fill="#619859"/>
        <path id="Path_263138" data-name="Path 263138" d="M676.535,461.557s-.077,2.247-2.6,1.028a16.729,16.729,0,0,1-4.093-2.762,1.967,1.967,0,0,0,1.314-1.618c.426-2.182.678-4.355.678-4.355l3.548.839a37.492,37.492,0,0,0-.258,5A2.692,2.692,0,0,0,676.535,461.557Z" transform="translate(-658.65 -443.714)" fill="#eb966b"/>
        <path id="Path_263139" data-name="Path 263139" d="M684.885,459.735c.007.054.018.106.029.158a4.475,4.475,0,0,1-1.387-.3,3.218,3.218,0,0,1-1.277-.893,3.01,3.01,0,0,1-.63-1.582,11.426,11.426,0,0,1-.024-2.327c.017-.292.022-.59.039-.886l3.507.829A37.457,37.457,0,0,0,684.885,459.735Z" transform="translate(-668.412 -443.762)" fill="#1a1a1a"/>
        <path id="Path_263140" data-name="Path 263140" d="M645.377,524.019q.36,2.488.943,4.935c.072.3-.393.43-.465.128q-.583-2.445-.943-4.935C644.869,523.843,645.333,523.712,645.377,524.019Z" transform="translate(-637.863 -502.074)" fill="#dd7e13"/>
        <path id="Path_263141" data-name="Path 263141" d="M629.616,500.026a23.661,23.661,0,0,0-4.059-4.36c.1-.055.208-.107.32-.157a24.519,24.519,0,0,1,3.966,4.29C629.969,499.96,629.743,500.189,629.616,500.026Z" transform="translate(-621.727 -478.449)" fill="#dd7e13"/>
        <path id="Path_263142" data-name="Path 263142" d="M671.382,493.378a2.57,2.57,0,0,1-2.181-.017,9.011,9.011,0,0,1-2.093-1.123c-.7-.477-1.371-.988-2.021-1.528q-.616-.513-1.2-1.064c.176,0,.333,0,.473,0a26.521,26.521,0,0,0,2.375,1.937,13.3,13.3,0,0,0,1.886,1.186,3.755,3.755,0,0,0,2.157.5c.823-.148,1.089-.975,1.241-1.7l.3.114A2.5,2.5,0,0,1,671.382,493.378Z" transform="translate(-653.686 -473.559)" fill="#dd7e13"/>
        <path id="Path_263143" data-name="Path 263143" d="M848.355,719.691a1.424,1.424,0,0,1-.555-.306.549.549,0,0,1-.055-.685,1.273,1.273,0,0,1,.75-.373c.307-.086.6-.19.628-.552a.606.606,0,0,0-.425-.665c-.2-.045-.116-.355.086-.31a.953.953,0,0,1,.6,1.257.877.877,0,0,1-.577.51c-.229.082-.624.1-.789.3-.308.372.677.6.865.692a.641.641,0,0,1,.1,1.182,1.486,1.486,0,0,0-.351.372,1.309,1.309,0,0,0-.105.664c.014.491.057.982.087,1.472l.182,3,.365,6.032.411,6.791c.012.207-.309.206-.322,0q-.355-5.873-.711-11.745l-.179-2.956-.087-1.438a11.088,11.088,0,0,1-.064-1.412,1.251,1.251,0,0,1,.424-.895c.165-.149.523-.4.3-.641A1.452,1.452,0,0,0,848.355,719.691Z" transform="translate(-806.905 -662.954)" fill="#4f7e59"/>
        <path id="Path_263144" data-name="Path 263144" d="M828.007,726.076q0,1.715.119,3.427c.021.31-.461.308-.482,0q-.117-1.711-.119-3.427A.241.241,0,0,1,828.007,726.076Z" transform="translate(-790.125 -670.498)" fill="#4f7e59"/>
        <path id="Path_263145" data-name="Path 263145" d="M728.339,715.341l.538-2.839c.178-.937.41-1.882.5-2.832.03-.306.512-.309.482,0-.094.968-.323,1.927-.5,2.881l-.553,2.918C728.746,715.773,728.282,715.645,728.339,715.341Z" transform="translate(-707.421 -656.821)" fill="#f8be39"/>
        <path id="Path_263146" data-name="Path 263146" d="M683.515,656.653l9.505.554a.241.241,0,0,1-.028.481l-9.505-.554A.241.241,0,0,1,683.515,656.653Z" transform="translate(-669.846 -612.809)" fill="#4f7e59"/>
        <path id="Path_263147" data-name="Path 263147" d="M669.056,559.158a.119.119,0,0,1,.006-.018l.45.173a21.925,21.925,0,0,0,.133-2.751c.016-.55.035-1.195.057-1.818l8.66.551c.01.36.017.773.02,1.249.014,2.608-.259,3.04-.271,3.057a.166.166,0,0,1,.034-.033l.295.382c.285-.22.435-1.43.425-3.409a14.43,14.43,0,0,0-.321-3.855c-.085-.106-.11-.138-4.463-.51-1.6-.137-4.3-.362-4.47-.327-.275.055-.31.062-.446,4.7C669.129,557.7,669.091,559,669.056,559.158Zm.657-4.735c.034-.929.075-1.762.122-2.094,1.125.051,7.406.592,8.342.72a10.66,10.66,0,0,1,.175,1.924Z" transform="translate(-657.996 -525.422)" fill="#4f7e59"/>
        <path id="Path_263148" data-name="Path 263148" d="M605.01,560.157s-1.386.944-1.5,1.436,2.261.439,2.364.392A12.025,12.025,0,0,0,605.01,560.157Z" transform="translate(-603.341 -532.352)" fill="#232323"/>
        <path id="Path_263149" data-name="Path 263149" d="M619.57,554.489s-.636-2.207-1.585-2.524a7.636,7.636,0,0,0-5.431,1.262s2.456,9.189,6.087,11.461,14.447-2.246,15.544-2.314-.26-3.967-.26-3.967-11.787.808-12.366.274S619.57,554.489,619.57,554.489Z" transform="translate(-610.885 -525.421)" fill="#eb966b"/>
        <path id="Path_263150" data-name="Path 263150" d="M767.671,582.283s1.091-.206,1.708-.354.712,1.14-.357,1.517S767.671,582.283,767.671,582.283Z" transform="translate(-740.22 -550.495)" fill="#dd8860"/>
        <path id="Path_263151" data-name="Path 263151" d="M748.758,538.756c.189-1.895,19.132-16.582,19.28-15.7s-7.086,8.471-6.354,9.189c.617.6,7.035,4.78,9.038,6.078-.926.807-1.821,1.648-2.714,2.492-3.183-2.166-8.211-5.6-8.886-6.149C758.125,533.859,748.569,540.65,748.758,538.756Z" transform="translate(-724.448 -501.387)" fill="#333"/>
        <path id="Path_263152" data-name="Path 263152" d="M775.481,554.775a100.984,100.984,0,0,0,8.682-7.073q1.174-1.07,2.314-2.177c.214-.208.542.119.328.328a101.545,101.545,0,0,1-8.558,7.424q-1.251.968-2.531,1.9C775.473,555.351,775.242,554.949,775.481,554.775Z" transform="translate(-746.648 -520.097)" fill="#232323"/>
        <path id="Path_263153" data-name="Path 263153" d="M734.559,581.251s3.967-1.97,4.6-2.127,2.666,1.442,2.917,1.757a3.184,3.184,0,0,1,.288,1.889c-.157.22-.629.126-.629.126s-.04.534-.4.691a1.692,1.692,0,0,1-1.048,0c-.22-.063-.566.566-.943.5a1.634,1.634,0,0,0-.974.031,17.461,17.461,0,0,1-2.295.942C735.63,585.166,734.559,581.251,734.559,581.251Z" transform="translate(-712.611 -548.157)" fill="#eb966b"/>
        <g id="Group_151148" data-name="Group 151148" transform="translate(10.92 4.177)">
          <g id="Group_151147" data-name="Group 151147">
            <path id="Path_263154" data-name="Path 263154" d="M678.787,420.653c.034.838,1.728,6.247-2.536,8a4.733,4.733,0,0,1-6.095-3.66s-2.781-1.434-1.693-3.118c1.1-1.707,2.334.4,2.334.4a6.38,6.38,0,0,0,1.823-3.021c1.4.315,2.852-.947,5.191-1.261A7.343,7.343,0,0,1,678.787,420.653Z" transform="translate(-668.211 -418)" fill="#eb966b"/>
          </g>
        </g>
        <g id="Group_151149" data-name="Group 151149" transform="translate(16.321 8.337)">
          <path id="Path_263155" data-name="Path 263155" d="M701.34,443.113a.319.319,0,0,0-.271-.08l-.033,0h-.012l-.011,0c-.335.064-.384.531-.2.772a.28.28,0,0,0,.123.143.321.321,0,0,0,.191.03.068.068,0,0,0,.018.005.289.289,0,0,0,.31-.223A.516.516,0,0,0,701.34,443.113Z" transform="translate(-700.707 -443.027)" fill="#1a1a1a"/>
        </g>
        <g id="Group_151150" data-name="Group 151150" transform="translate(20.801 7.958)">
          <path id="Path_263156" data-name="Path 263156" d="M728.337,440.879a.4.4,0,0,0-.589-.008.319.319,0,0,0-.038.049.275.275,0,0,0-.048.2.215.215,0,0,0,0,.025s0,0,0,.008a.8.8,0,0,0,.151.346.368.368,0,0,0,.582-.067A.456.456,0,0,0,728.337,440.879Z" transform="translate(-727.659 -440.746)" fill="#1a1a1a"/>
        </g>
        <g id="Group_151151" data-name="Group 151151" transform="translate(19.049 10.553)">
          <path id="Path_263157" data-name="Path 263157" d="M717.891,456.539a.22.22,0,0,0-.247-.18l-.342.055a.215.215,0,1,0,.067.425l.342-.055A.218.218,0,0,0,717.891,456.539Z" transform="translate(-717.119 -456.356)" fill="#d45c48"/>
        </g>
        <path id="Path_263158" data-name="Path 263158" d="M712.772,463.82a22.952,22.952,0,0,0-2.384.243c-.243.108.451,1.325,1.077,1.352S712.772,463.82,712.772,463.82Z" transform="translate(-692.416 -452.027)" fill="#fff"/>
        <path id="Path_263159" data-name="Path 263159" d="M694.858,433.364q.686-.444,1.35-.921a.232.232,0,0,1,.317.083.238.238,0,0,1-.083.317q-.664.477-1.35.921a.234.234,0,0,1-.317-.083A.237.237,0,0,1,694.858,433.364Z" transform="translate(-679.415 -425.838)" fill="#79414c"/>
        <path id="Path_263160" data-name="Path 263160" d="M727,432.124a.235.235,0,0,1,.285-.162,6.579,6.579,0,0,1,.617.229.231.231,0,0,1,.106.138.237.237,0,0,1-.023.179.234.234,0,0,1-.138.106l-.062.008a.229.229,0,0,1-.112-.03l.041.017q-.271-.114-.552-.2a.244.244,0,0,1-.138-.107A.236.236,0,0,1,727,432.124Z" transform="translate(-706.305 -425.456)" fill="#79414c"/>
        <path id="Path_263161" data-name="Path 263161" d="M623.393,661.469a4.918,4.918,0,0,1,1.373.884,4.122,4.122,0,0,1,.979,4.533c-.11.273-.558.154-.447-.123a3.721,3.721,0,0,0-.068-3,3.778,3.778,0,0,0-.813-1.106,4.583,4.583,0,0,0-1.258-.791C622.888,661.744,623.123,661.344,623.393,661.469Z" transform="translate(-619.627 -616.804)" fill="#4f7e59"/>
      </g>
      <g id="Group_151156" data-name="Group 151156" transform="translate(245.088 208.931)">
        <path id="Path_263162" data-name="Path 263162" d="M454.392,306.542c.257-.606-14.33-79.574-18.585-82.6-5.812-4.134-73.8-4.206-76.356-3.658s-3.292,6.949-2.743,7.864,5.486.914,5.486.914S351.819,317.876,352,318.785s8.412,6.74,8.412,6.74l10.631-95.914s56.8.549,59.546,3.109,13.948,73.216,13.948,73.216Z" transform="translate(-335.65 -220.043)" fill="#595959"/>
        <path id="Path_263163" data-name="Path 263163" d="M662.578,931.761H653.86s5.2,19.7,10.4,24.346,14.969,6.744,16.32,5.383,1.318-14.072,1.318-14.072l-10.882-14.907Z" transform="translate(-587.338 -813.465)" fill="#232323"/>
        <path id="Path_263164" data-name="Path 263164" d="M742.549,931.761H705.231a1.925,1.925,0,0,0,0,1.763c1.347,0,4.484,0,4.484,0,.725,1.241.792,8.5.689,8.813s-.974.153-1.1.361c0,0-.181,1.567.046,1.739.413.313,7.723.115,7.735.444.035.973.293,7.147.111,7.39-.309.412-1.184.312-1.184.312a2.582,2.582,0,0,0,.243,2.057c1.243.046,6.288.091,6.288.091.311,1.309-.223,5.88-.223,5.88a16.256,16.256,0,0,0,10.326-8.037c3.969-6.931,11.428-14.286,11.428-14.286Z" transform="translate(-629.991 -813.465)" fill="#333"/>
        <path id="Path_263165" data-name="Path 263165" d="M740.4,735.811h28.8c-2.333-15.085-5.126-37.992-4.018-38.854,1.646-1.28,12.436-3.292,13.886-1.1s9.986,50.715,9.986,50.715-16.008,2.869-17.278,2.26c-.4-.193-1.378-5.351-2.471-12.345H740.4A.34.34,0,0,1,740.4,735.811Z" transform="translate(-659.221 -615.96)" fill="#232323"/>
        <path id="Path_263166" data-name="Path 263166" d="M746.654,992.817H780.23a.34.34,0,0,1,0,.679H746.654A.34.34,0,0,1,746.654,992.817Z" transform="translate(-664.435 -864.373)" fill="#232323"/>
        <path id="Path_263167" data-name="Path 263167" d="M784.179,1052.858h23.909a.339.339,0,0,1,0,.678H784.179A.339.339,0,0,1,784.179,1052.858Z" transform="translate(-695.723 -914.435)" fill="#232323"/>
        <path id="Path_263168" data-name="Path 263168" d="M886.526,941.7s-5.96-.191-6.93,6.7-3,22.282-2.746,23.524-23.046,7.562-24.905,7.831-2.564-8.658-1.594-12.682,8.978-17.7,16.251-22.151S884.542,941.212,886.526,941.7Z" transform="translate(-750.807 -821.443)" fill="#dd7e13"/>
        <g id="Group_151153" data-name="Group 151153" transform="translate(104.796 126.402)">
          <path id="Path_263169" data-name="Path 263169" d="M930.831,1003.964c0,12.671,1.163,23.006,11.959,23.434.232.009,7.94,0,8.174,0,11.119,0,20.133-10.492,20.133-23.434s-9.014-23.434-20.133-23.434H943.5C932.457,980.633,930.831,991.085,930.831,1003.964Z" transform="translate(-923.069 -980.53)" fill="#343436"/>
          <path id="Path_263170" data-name="Path 263170" d="M904.266,980.53A18.487,18.487,0,0,1,919.1,988a24.37,24.37,0,0,1,3.732,1.265c.545.275.376,1.109-.479.82a20.776,20.776,0,0,0-2.378-.77,24.035,24.035,0,0,1,1.882,3.253q1.516.658,3.064,1.244c.567.213.321,1.132-.252.916-.755-.284-1.5-.584-2.247-.894a25.582,25.582,0,0,1,.9,2.57q1.972.942,3.869,2.034a.475.475,0,0,1-.48.82q-1.509-.872-3.068-1.647a26.728,26.728,0,0,1,.6,3.478l2.65,1.143c.56.242.077,1.06-.479.82l-2.079-.9q.059.895.059,1.807a26.9,26.9,0,0,1-1.079,7.578,23.091,23.091,0,0,1,1.878,2.081c.378.473-.29,1.15-.672.672q-.722-.9-1.528-1.729a25.077,25.077,0,0,1-1.536,3.592,14.97,14.97,0,0,1,1.7,1.367c.449.417-.224,1.088-.672.672a13.626,13.626,0,0,0-1.494-1.2c-3.612,6.274-9.759,10.4-16.735,10.4-11.119,0-20.133-10.492-20.133-23.434S893.147,980.53,904.266,980.53Z" transform="translate(-884.133 -980.53)" fill="#48484a"/>
          <path id="Path_263171" data-name="Path 263171" d="M1155.381,1098.368c-.535.3-1.015-.524-.479-.82.733-.405,1.77-.934,2.5-1.339q.075.48.132.968Z" transform="translate(-1109.702 -1076.981)" fill="#48484a"/>
          <path id="Path_263172" data-name="Path 263172" d="M1147.577,1065.45c-.521.323-1-.5-.48-.82l2.264-1.4a.536.536,0,0,1,.07-.034q.174.446.332.9Z" transform="translate(-1103.203 -1049.456)" fill="#48484a"/>
          <path id="Path_263173" data-name="Path 263173" d="M1136.427,1037.873c-.511.339-.987-.484-.479-.82a18.509,18.509,0,0,0,1.773-1.331.538.538,0,0,1,.057-.04q.26.394.506.8A20.546,20.546,0,0,1,1136.427,1037.873Z" transform="translate(-1093.912 -1026.515)" fill="#48484a"/>
          <path id="Path_263174" data-name="Path 263174" d="M1124.514,1014.693a.69.69,0,0,1-.109.12l-1.083.942a.478.478,0,0,1-.659-.13.487.487,0,0,1,.13-.659l1.078-.937Q1124.2,1014.353,1124.514,1014.693Z" transform="translate(-1082.95 -1008.461)" fill="#48484a"/>
          <path id="Path_263175" data-name="Path 263175" d="M1132.82,1194.781a21.318,21.318,0,0,0,3.5-.9.493.493,0,0,1,.052-.013q-.318.618-.667,1.21a21.265,21.265,0,0,1-2.635.614C1132.474,1195.8,1132.217,1194.882,1132.82,1194.781Z" transform="translate(-1091.199 -1158.413)" fill="#48484a"/>
          <path id="Path_263176" data-name="Path 263176" d="M1141.668,1168.665a24.568,24.568,0,0,0,3.506-.775.44.44,0,0,1,.3.011q-.149.5-.316.982a24.616,24.616,0,0,1-3.242.7C1141.323,1169.668,1141.065,1168.753,1141.668,1168.665Z" transform="translate(-1098.576 -1136.73)" fill="#48484a"/>
          <ellipse id="Ellipse_6211" data-name="Ellipse 6211" cx="7.64" cy="10.161" rx="7.64" ry="10.161" transform="translate(11.499 12.534)" fill="#232323"/>
          <ellipse id="Ellipse_6212" data-name="Ellipse 6212" cx="6.664" cy="10.076" rx="6.664" ry="10.076" transform="translate(13.453 12.619)" fill="#606060"/>
          <path id="Path_263177" data-name="Path 263177" d="M993.136,1089.71a.475.475,0,0,1-.479.82c-1.4-.82-1.966,3.131-1.945,3.876a7.982,7.982,0,0,0,.323,2.137c.185.584.906,1.615,1.636,1.026.472-.38,1.148.288.672.672a1.862,1.862,0,0,1-2.5-.162c-.868-.838-1-2.294-1.073-3.432C989.679,1093.124,990.6,1088.225,993.136,1089.71Z" transform="translate(-972.21 -1071.332)" fill="#232323"/>
          <path id="Path_263178" data-name="Path 263178" d="M977.947,1083.187l.3-.679a.477.477,0,0,1,.65-.171.49.49,0,0,1,.171.65l-.3.679a.476.476,0,0,1-.65.17A.489.489,0,0,1,977.947,1083.187Z" transform="translate(-962.307 -1065.363)" fill="#232323"/>
          <path id="Path_263179" data-name="Path 263179" d="M975.055,1134.028a.49.49,0,0,1,.584.332l.259.629a.476.476,0,0,1-.332.584.49.49,0,0,1-.584-.332l-.259-.629A.476.476,0,0,1,975.055,1134.028Z" transform="translate(-959.646 -1108.503)" fill="#232323"/>
          <path id="Path_263180" data-name="Path 263180" d="M1003.707,1158.718a.487.487,0,0,1,.584-.332,4.188,4.188,0,0,0,.8.031.475.475,0,0,1,0,.95,5.443,5.443,0,0,1-1.054-.065A.478.478,0,0,1,1003.707,1158.718Z" transform="translate(-983.82 -1128.818)" fill="#232323"/>
          <path id="Path_263181" data-name="Path 263181" d="M1034.805,1126.677l.381-.932a.491.491,0,0,1,.584-.332.478.478,0,0,1,.332.584l-.381.932a.49.49,0,0,1-.584.332A.478.478,0,0,1,1034.805,1126.677Z" transform="translate(-1009.741 -1101.318)" fill="#232323"/>
          <path id="Path_263182" data-name="Path 263182" d="M1032.623,1087.805a.487.487,0,0,1,.584.332l.223.642a.478.478,0,0,1-.332.584.486.486,0,0,1-.584-.332l-.223-.642A.478.478,0,0,1,1032.623,1087.805Z" transform="translate(-1007.649 -1069.963)" fill="#232323"/>
          <path id="Path_263183" data-name="Path 263183" d="M1003.166,1062.019a7.531,7.531,0,0,1,1-.077.475.475,0,0,1,0,.95,5.686,5.686,0,0,0-.752.043.492.492,0,0,1-.584-.332A.478.478,0,0,1,1003.166,1062.019Z" transform="translate(-983.093 -1048.41)" fill="#232323"/>
        </g>
        <path id="Path_263184" data-name="Path 263184" d="M260.2,946.978s-5.082,6.365-6.427,9.638,7.453,3.36,7.453,3.36,7.317-11.15,16.812-9.582,13.349,3.771,13.121,1.276-18.609-16.433-18.609-16.433S261.875,941.384,260.2,946.978Z" transform="translate(-253.634 -816.363)" fill="#232323"/>
        <g id="Group_151154" data-name="Group 151154" transform="translate(0.14 133.026)">
          <path id="Path_263185" data-name="Path 263185" d="M293.822,1040.129c0,10.676.98,19.385,10.076,19.745.2.008,6.69,0,6.887,0,9.368,0,16.963-8.84,16.963-19.745s-7.595-19.745-16.963-19.745H304.5C295.192,1020.471,293.822,1029.278,293.822,1040.129Z" transform="translate(-287.282 -1020.384)" fill="#343436"/>
          <path id="Path_263186" data-name="Path 263186" d="M271.439,1020.384a15.578,15.578,0,0,1,12.5,6.294,20.559,20.559,0,0,1,3.144,1.066c.46.232.317.934-.4.691a17.515,17.515,0,0,0-2-.649,20.249,20.249,0,0,1,1.586,2.741q1.278.554,2.581,1.048c.478.18.271.954-.213.772-.636-.239-1.266-.492-1.893-.753a21.549,21.549,0,0,1,.761,2.165q1.661.793,3.26,1.714a.4.4,0,0,1-.4.691q-1.271-.735-2.585-1.387a22.481,22.481,0,0,1,.505,2.93l2.233.963c.472.2.065.893-.4.691l-1.752-.755q.049.754.05,1.523a22.656,22.656,0,0,1-.909,6.385,19.49,19.49,0,0,1,1.582,1.753c.318.4-.245.969-.566.566q-.608-.762-1.287-1.457a21.133,21.133,0,0,1-1.294,3.027,12.6,12.6,0,0,1,1.437,1.152c.378.351-.189.916-.566.566a11.479,11.479,0,0,0-1.259-1.012c-3.044,5.286-8.223,8.766-14.1,8.766-9.369,0-16.963-8.84-16.963-19.745S262.071,1020.384,271.439,1020.384Z" transform="translate(-254.476 -1020.384)" fill="#48484a"/>
          <path id="Path_263187" data-name="Path 263187" d="M483.023,1119.672c-.451.25-.855-.441-.4-.691.618-.342,1.491-.787,2.109-1.129q.063.4.111.816Z" transform="translate(-444.535 -1101.652)" fill="#48485e"/>
          <path id="Path_263188" data-name="Path 263188" d="M476.448,1091.936c-.439.272-.842-.421-.4-.691l1.907-1.179a.433.433,0,0,1,.059-.029q.147.376.28.76Z" transform="translate(-439.06 -1078.46)" fill="#48485e"/>
          <path id="Path_263189" data-name="Path 263189" d="M467.052,1068.7c-.431.285-.832-.408-.4-.691a15.589,15.589,0,0,0,1.494-1.122.44.44,0,0,1,.048-.033q.219.332.427.674A17.273,17.273,0,0,1,467.052,1068.7Z" transform="translate(-431.23 -1059.131)" fill="#48485e"/>
          <path id="Path_263190" data-name="Path 263190" d="M457.015,1049.169a.589.589,0,0,1-.091.1l-.913.794a.4.4,0,0,1-.555-.11.41.41,0,0,1,.11-.555l.908-.79Q456.749,1048.883,457.015,1049.169Z" transform="translate(-421.994 -1043.918)" fill="#48485e"/>
          <path id="Path_263191" data-name="Path 263191" d="M464.014,1200.908a17.935,17.935,0,0,0,2.952-.755.381.381,0,0,1,.043-.01q-.268.52-.562,1.02a17.908,17.908,0,0,1-2.22.517C463.723,1201.764,463.506,1200.993,464.014,1200.908Z" transform="translate(-428.945 -1170.265)" fill="#48484a"/>
          <path id="Path_263192" data-name="Path 263192" d="M471.469,1178.9a20.747,20.747,0,0,0,2.954-.653.369.369,0,0,1,.256.009q-.126.418-.266.827a20.729,20.729,0,0,1-2.732.589C471.178,1179.748,470.961,1178.977,471.469,1178.9Z" transform="translate(-435.161 -1151.995)" fill="#48484a"/>
          <ellipse id="Ellipse_6213" data-name="Ellipse 6213" cx="6.438" cy="8.562" rx="6.438" ry="8.562" transform="translate(9.689 10.561)" fill="#232323"/>
          <ellipse id="Ellipse_6214" data-name="Ellipse 6214" cx="5.615" cy="8.49" rx="5.615" ry="8.49" transform="translate(11.335 10.633)" fill="#606060"/>
          <path id="Path_263193" data-name="Path 263193" d="M346.319,1112.378a.4.4,0,0,1-.4.691c-1.179-.691-1.657,2.638-1.639,3.266a6.722,6.722,0,0,0,.272,1.8c.156.492.763,1.361,1.378.864.4-.32.967.242.566.566a1.568,1.568,0,0,1-2.1-.137,4.4,4.4,0,0,1-.9-2.891C343.406,1115.254,344.185,1111.126,346.319,1112.378Z" transform="translate(-328.687 -1096.893)" fill="#232323"/>
          <path id="Path_263194" data-name="Path 263194" d="M333.521,1106.881l.256-.572a.4.4,0,0,1,.547-.144.412.412,0,0,1,.144.548l-.255.572a.4.4,0,0,1-.548.144A.412.412,0,0,1,333.521,1106.881Z" transform="translate(-320.343 -1091.863)" fill="#232323"/>
          <path id="Path_263195" data-name="Path 263195" d="M331.085,1149.718a.412.412,0,0,1,.492.279l.218.53a.4.4,0,0,1-.28.492.412.412,0,0,1-.492-.279l-.218-.53A.4.4,0,0,1,331.085,1149.718Z" transform="translate(-318.101 -1128.211)" fill="#232323"/>
          <path id="Path_263196" data-name="Path 263196" d="M355.226,1170.521a.41.41,0,0,1,.492-.28,3.529,3.529,0,0,0,.675.026.4.4,0,1,1,0,.8,4.6,4.6,0,0,1-.888-.055A.4.4,0,0,1,355.226,1170.521Z" transform="translate(-338.47 -1145.328)" fill="#232323"/>
          <path id="Path_263197" data-name="Path 263197" d="M381.428,1143.525l.321-.785a.413.413,0,0,1,.492-.279.4.4,0,0,1,.279.492l-.321.785a.413.413,0,0,1-.492.28A.4.4,0,0,1,381.428,1143.525Z" transform="translate(-360.31 -1122.158)" fill="#232323"/>
          <path id="Path_263198" data-name="Path 263198" d="M379.59,1110.772a.41.41,0,0,1,.492.28l.188.541a.4.4,0,0,1-.28.492.41.41,0,0,1-.492-.28l-.188-.541A.4.4,0,0,1,379.59,1110.772Z" transform="translate(-358.547 -1095.739)" fill="#232323"/>
          <path id="Path_263199" data-name="Path 263199" d="M354.77,1089.045a6.374,6.374,0,0,1,.846-.065.4.4,0,0,1,0,.8,4.792,4.792,0,0,0-.633.036.414.414,0,0,1-.492-.28A.4.4,0,0,1,354.77,1089.045Z" transform="translate(-337.857 -1077.579)" fill="#232323"/>
        </g>
        <path id="Path_263200" data-name="Path 263200" d="M422.581,789.226a51.322,51.322,0,0,0-22.33.764c-12.712,3.525-17.361,21.618-27.313,24.043-14.463,3.524-16.632-29.887-27.235-37.7s-40.125-15.576-47.4-17-8.732,4.815-9.771,16.354-2.287,24.637-1.247,24.844,2.222-5.254,13.367-4.6c20.17,1.185,16.008,29.816,18.919,31.138s62.933,1.677,62.933.772-2.072-10.914,6.237-24.7c4.344-7.208,9.576-10.745,14.017-11.824s15.389-1.081,19.479-.309C424.109,791.362,424.491,789.8,422.581,789.226Z" transform="translate(-281.364 -669.531)" fill="#f8be39"/>
        <path id="Path_263201" data-name="Path 263201" d="M416.762,275.527H424.1a.339.339,0,0,1,0,.678h-7.343A.339.339,0,0,1,416.762,275.527Z" transform="translate(-389.375 -266.305)" fill="#333"/>
        <g id="Group_151155" data-name="Group 151155" transform="translate(101.381 14.347)">
          <path id="Path_263202" data-name="Path 263202" d="M870.839,351.56q-1.181-1.261-2.414-2.472c-.772-.755-1.6-1.45-2.318-2.259a7.3,7.3,0,0,1-1.6-2.57c-.155-.478-.268-.969-.381-1.458s-.242-.96-.339-1.444a7.764,7.764,0,0,1-.09-3.076,3.649,3.649,0,0,1,1.178-1.971c.743-.677,1.635-1.171,2.43-1.779,1.27,5.134,2.638,11.193,4,17.541C871.152,351.9,871,351.729,870.839,351.56Z" transform="translate(-863.585 -329.848)" fill="#333"/>
          <path id="Path_263203" data-name="Path 263203" d="M869.908,321.275a3.219,3.219,0,0,1-2.214-1.967,12.072,12.072,0,0,1-1.009-4.667c.211-2.319,6.154-7.752,8.667-8.066s6.385-.419,6.7.628.733,14.885,0,15.66-5.116.228-5.967,0C874.614,322.469,871.705,321.73,869.908,321.275Z" transform="translate(-866.156 -306.359)" fill="#595959"/>
          <path id="Path_263204" data-name="Path 263204" d="M927.587,315.587s0,12.513.628,12.932,3.943.7,3.943-.032.349-13.157-.279-13.262S927.585,314.75,927.587,315.587Z" transform="translate(-916.949 -313.608)" fill="#f8be39"/>
          <path id="Path_263205" data-name="Path 263205" d="M928.262,332.667a6.908,6.908,0,0,1,1.14.018,1.98,1.98,0,0,1,.245.049l.088.026.042.015.006,0c.03.015.058.031.086.049l.006,0,.049.038a.157.157,0,0,1,.023.028.3.3,0,0,1,.036.085,5.464,5.464,0,0,1,.09,1.1c.065.687.073,1.384.074,2.075,0,2.475-.237,4.946-.188,7.42a4.632,4.632,0,0,1-1.672-.382c-.451-.3-.578-6.828-.614-10.492C927.868,332.688,928.065,332.676,928.262,332.667Z" transform="translate(-917.02 -328.282)" fill="#fff"/>
          <path id="Path_263206" data-name="Path 263206" d="M912.877,316.51q.016-1.65.032-3.3a.34.34,0,0,1,.679,0q-.028,2.863-.055,5.726a36.566,36.566,0,0,0,.154,5.287,10.738,10.738,0,0,0,.719,2.747.351.351,0,0,1-.122.464.342.342,0,0,1-.464-.122,14.224,14.224,0,0,1-.968-5.222C912.8,320.232,912.859,318.368,912.877,316.51Z" transform="translate(-904.645 -311.797)" fill="#333"/>
        </g>
        <path id="Path_263207" data-name="Path 263207" d="M322.538,776.791q10.46,3.114,20.789,6.647,5.144,1.76,10.253,3.624c3.294,1.2,6.616,2.375,9.851,3.731a17.758,17.758,0,0,1,7.449,5.161c2.025,2.6,3.257,5.774,4.639,8.739,1.472,3.159,2.907,6.34,4.447,9.466a48.212,48.212,0,0,0,4.915,8.218c3.649,4.731,9.249,8.625,15.47,8.247a12.588,12.588,0,0,0,2.179-.33c.29-.069.414.377.123.447-5.812,1.395-11.817-1.385-15.872-5.48-4.608-4.654-7.23-10.824-9.956-16.671l-2.343-5.029c-.711-1.525-1.4-3.068-2.195-4.55a16.781,16.781,0,0,0-2.82-3.965,15.589,15.589,0,0,0-3.84-2.726,41.266,41.266,0,0,0-4.383-1.9q-2.53-.97-5.072-1.911-5.134-1.9-10.307-3.705-10.381-3.613-20.9-6.8-1.273-.385-2.548-.765A.232.232,0,0,1,322.538,776.791Z" transform="translate(-310.847 -684.244)" fill="#dd7e13"/>
      </g>
      <path id="Path_263208" data-name="Path 263208" d="M1315.174,606.819s.191-3.551-4.7-6.5-8.291-.773-11.482,2.163-5.64,2.375-6.805,3.287-.377,1.6-.377,1.6-1.922.434-.937,1.45,1.176,1.219,2.482,2.413c1.2,1.093-.794,3.226,2.55,5.239s5.462,2.037,5.462,2.037Z" transform="translate(-873.15 -327.014)" fill="#2c2c2c"/>
      <path id="Path_263209" data-name="Path 263209" d="M1528.146,691.826h0a63.609,63.609,0,0,0-.947-9.225,77.164,77.164,0,0,0-2.436-9.868,100.059,100.059,0,0,0-3.574-9.52c-1.34-3.107-2.815-6.155-4.373-9.159-1.567-3.02-4.416-7.446-6.105-10.4-.212-.371-3.3-1.45-5.208-1.176a22.222,22.222,0,0,0-6.038,2.117c-2.036.939-4.082,1.861-6.108,2.822a23.074,23.074,0,0,0-5.3,3.245,16.2,16.2,0,0,0-3.915,5.1c-.161.326,6.576,2.5,9.648,3.426a24.841,24.841,0,0,1,5.143,2.53c1.732,1,3.445,2.035,5.105,3.151a49,49,0,0,1,4.788,3.637c1.5,1.3,2.925,2.7,4.3,4.132,1.359,1.42,2.671,2.884,3.976,4.353,1.335,1.5,2.694,2.994,3.913,4.6a36.067,36.067,0,0,1,3.028,4.866,39.11,39.11,0,0,0,2.811,4.739c.216.294.443.58.677.861,0,.212.012.424.015.637a.309.309,0,0,0,.618,0c0-.152-.008-.3-.01-.455A.313.313,0,0,0,1528.146,691.826Z" transform="translate(-1034.53 -363.298)" fill="#424242"/>
      <path id="Path_263210" data-name="Path 263210" d="M1392.032,715.942s3.786-13.111,3.944-20.572-19.091-31.923-36.919-42.491-17.7-8.7-18.238-10.342-8.9-2.841-10-2.243-3.137,17.972-6.636,28.978-.375,22.033.448,32.168,25.2,24.835,25.2,24.835Z" transform="translate(-899.802 -361.383)" fill="#2c2c2c"/>
      <path id="Path_263211" data-name="Path 263211" d="M1353.393,650.363a.316.316,0,0,0-.318.3,73.607,73.607,0,0,1-1.861,8.933q-.346,1.264-.737,2.516a.309.309,0,0,0,.591.181,74.277,74.277,0,0,0,2.206-9.016q.232-1.294.419-2.6A.311.311,0,0,0,1353.393,650.363Z" transform="translate(-923.068 -369.908)" fill="#fff"/>
      <path id="Path_263212" data-name="Path 263212" d="M1337.241,618.85a3.042,3.042,0,0,0-1.227-.832,16.189,16.189,0,0,0-1.605-.544c-.666-.2-1.339-.372-2.018-.523a4.691,4.691,0,0,0-1.148-2.479.309.309,0,0,0-.437.437,4.025,4.025,0,0,1,.945,1.9q-.477-.1-.957-.175l-.161-.024a5.517,5.517,0,0,0-.584-1.645,3.4,3.4,0,0,0-1.195-1.174,4.207,4.207,0,0,0-3.58-.1,13.439,13.439,0,0,0-5.647,4.5,23.657,23.657,0,0,0-2.529,3.746c-.188.35.345.663.534.312a22.64,22.64,0,0,1,4.407-5.77,10.762,10.762,0,0,1,2.731-1.919,4.517,4.517,0,0,1,3.295-.463,2.769,2.769,0,0,1,1.34,1.006,4.089,4.089,0,0,1,.571,1.4c-.336-.046-.672-.088-1.01-.122a5.28,5.28,0,0,0-1.657.034,2.054,2.054,0,0,0-1.289.808c-.272.391-.054,1.364.031,1.121.266-.759,1.752-.556,2.381-.528,2.855.127,8.184,3.473,8.481,3.376C1337.939,620.871,1337.839,619.588,1337.241,618.85Z" transform="translate(-895.217 -339.045)" fill="#424242"/>
      <path id="Path_263213" data-name="Path 263213" d="M1383.94,649.9c1.969-.5,3.963.557,5.677,1.407a40.863,40.863,0,0,1,5.035,2.965q1.379.951,2.678,2.012a.311.311,0,0,1,0,.437.316.316,0,0,1-.437,0,40.429,40.429,0,0,0-4.659-3.275q-1.192-.719-2.432-1.355a27.352,27.352,0,0,0-2.592-1.2,5.149,5.149,0,0,0-3.106-.391A.309.309,0,0,1,1383.94,649.9Z" transform="translate(-950.8 -369.417)" fill="#424242"/>
      <path id="Path_263214" data-name="Path 263214" d="M1385.644,694.684a25.2,25.2,0,0,1,10.977,5.92,12.96,12.96,0,0,0,1.216,1.067,4.8,4.8,0,0,0,1.548.7c.988.272,2,.462,2.991.719q2.875.745,5.671,1.762a65.049,65.049,0,0,1,20.4,12.008,63.184,63.184,0,0,1,8.2,8.577q.456.578.9,1.166c.24.318-.3.626-.534.312a62.666,62.666,0,0,0-7.958-8.694,64.577,64.577,0,0,0-19.981-12.328q-2.752-1.063-5.595-1.866-1.42-.4-2.858-.733a8.422,8.422,0,0,1-3.059-1.068c-.862-.6-1.579-1.4-2.389-2.075a24.1,24.1,0,0,0-2.536-1.83,24.54,24.54,0,0,0-5.654-2.624q-.745-.235-1.5-.422A.309.309,0,0,1,1385.644,694.684Z" transform="translate(-952.083 -406.854)" fill="#424242"/>
      <g id="Group_151157" data-name="Group 151157" transform="translate(403.131 296.424)">
        <path id="Path_263215" data-name="Path 263215" d="M1294.2,825.4s.5-3.565-1.631-4.752-17.276-24.328-30.529-37.488-32.964-17.692-33.64-18.266-1.859-17.783-2.569-18.409-4.413,6.289-6.744,7.9-7.445,5.048-7.445,5.048l-3.674,5.464s-2.891,2.654-3.459,3.993,16.63,1.842,16.727,2.779-5.1,15.93-8.773,25.71-4.5,21.569-4.5,21.569a7.178,7.178,0,0,0-.369,2.235c.113.714.373,1.639.373,1.639Z" transform="translate(-1204.49 -746.441)" fill="#424242"/>
        <path id="Path_263216" data-name="Path 263216" d="M1344.058,868.038s2.726-1.076,1.356-6.005-2.658-11.945-4.091-27.342-22.838-31.728-30.648-35.188-16.36-3.062-22.261,2.3-20.489,28.342-25.975,40.519a36.424,36.424,0,0,0-2.48,22.882Z" transform="translate(-1250.054 -788.82)" fill="#424242"/>
        <path id="Path_263217" data-name="Path 263217" d="M1426.928,809.415a7.5,7.5,0,0,1,4.767-1.67,7.194,7.194,0,0,1,2.512.455,2.507,2.507,0,0,0,.557.212c.162.018.251-.245.351-.354a1.769,1.769,0,0,1,1.08-.518,4.4,4.4,0,0,1,2.625.873,24.408,24.408,0,0,0,2.828,1.339.82.82,0,0,0,.259.084.139.139,0,0,0,0-.018.473.473,0,0,1,0-.073,6.9,6.9,0,0,0-.039-.772c-.03-.507-.064-1.014-.1-1.521-.067-1.016-.132-2.032-.155-3.05a18.875,18.875,0,0,1,.7-6.11c-.145-.119-.283-.249-.43-.362a8.1,8.1,0,0,0-.672-.459c-.174-.107-.353-.205-.535-.3a9.881,9.881,0,0,0-2.289,4.014.318.318,0,0,1-.38.216.312.312,0,0,1-.216-.38,11.023,11.023,0,0,1,2.286-4.131,8.692,8.692,0,0,0-1.193-.4,23.051,23.051,0,0,0-4.6,6.959c-.392.833-.764,1.675-1.135,2.518a.311.311,0,0,1-.423.111.317.317,0,0,1-.111-.423,33.334,33.334,0,0,1,4.813-8.527c.236-.275.484-.539.739-.8a8.286,8.286,0,0,0-3.632.187.31.31,0,0,1-.238-.565,8.689,8.689,0,0,1,7.614-.167,8.015,8.015,0,0,1,1.586.967,1.258,1.258,0,0,1,.434.31.7.7,0,0,1,.021.818,1.28,1.28,0,0,1-1.075.684,17.779,17.779,0,0,0-.656,5.341c.009,1.017.066,2.033.131,3.048.033.508.067,1.016.1,1.523q.024.37.045.741a3.149,3.149,0,0,1,.007.712c-.026.154-.177.68-.338.769a3.032,3.032,0,0,1-2.286.019,10.612,10.612,0,0,0-2.607-.367c-.323,0-.772-.069-1,.217a4.389,4.389,0,0,1-.3.4,1.28,1.28,0,0,1-.473.3,2.33,2.33,0,0,1-1.026.081c-.436-.042-.87-.1-1.308-.12a15.885,15.885,0,0,0-3.084.132.447.447,0,0,1-.084,0,.333.333,0,0,1-.139,0,3.449,3.449,0,0,1-1.286-.709c-.19-.145-.379-.292-.582-.418a1.75,1.75,0,0,0-.615-.258.255.255,0,0,1-.118-.062.3.3,0,0,1-.341-.058A.311.311,0,0,1,1426.928,809.415Z" transform="translate(-1389.882 -786.922)" fill="#2c2c2c"/>
        <path id="Path_263218" data-name="Path 263218" d="M1415.963,822.189a29.924,29.924,0,0,1,2.746-5.084,26.055,26.055,0,0,1,2.954-4.069,10.4,10.4,0,0,1,2.21-1.808.309.309,0,0,1,.312.534,11.9,11.9,0,0,0-3.435,3.37c-.477.665-.921,1.354-1.357,2.046-.494.783-.989,1.565-1.452,2.367a20,20,0,0,0-1.381,2.808.318.318,0,0,1-.38.216A.311.311,0,0,1,1415.963,822.189Z" transform="translate(-1380.801 -800.422)" fill="#2c2c2c"/>
        <path id="Path_263219" data-name="Path 263219" d="M1641.451,924.8a49.088,49.088,0,0,1,5.786,6.643,35.374,35.374,0,0,1,4.219,7.652,28.3,28.3,0,0,1,1.275,4.13,36.908,36.908,0,0,1,.717,5,88.719,88.719,0,0,0,.944,9.8,16.935,16.935,0,0,0,3.342,7.683q.341.407.718.782a.309.309,0,0,1-.437.437,15.892,15.892,0,0,1-3.932-7.455,53.221,53.221,0,0,1-1.125-9.523,50.887,50.887,0,0,0-.534-5.081,27.817,27.817,0,0,0-1.107-4.364,33.217,33.217,0,0,0-3.928-7.762,46.067,46.067,0,0,0-5.593-6.735q-.387-.389-.782-.77C1640.728,924.961,1641.165,924.524,1641.451,924.8Z" transform="translate(-1568.381 -895.082)" fill="#2c2c2c"/>
        <path id="Path_263220" data-name="Path 263220" d="M1583.448,857.44a37.913,37.913,0,0,1,7.731,5.057,38.419,38.419,0,0,1,6.293,6.765,37.3,37.3,0,0,1,2.759,4.407c.187.351-.346.663-.534.312a37.243,37.243,0,0,0-5.237-7.455,37.764,37.764,0,0,0-6.877-5.978,37.282,37.282,0,0,0-4.447-2.574C1582.78,857.8,1583.092,857.266,1583.448,857.44Z" transform="translate(-1520.07 -838.962)" fill="#2c2c2c"/>
        <path id="Path_263221" data-name="Path 263221" d="M1305.119,803.4q2.166,3.714,4,7.608c.126.268-.273.5-.4.234q-1.831-3.89-4-7.608A.232.232,0,0,1,1305.119,803.4Z" transform="translate(-1288.032 -793.835)" fill="#2c2c2c"/>
        <path id="Path_263222" data-name="Path 263222" d="M1221.414,773.792a19.771,19.771,0,0,1,3.911-3.031,11.192,11.192,0,0,0,1.866-1.553,7.214,7.214,0,0,0,1.255-2.015,7.51,7.51,0,0,1,1.138-2.024,2.52,2.52,0,0,1,.865-.633,6.924,6.924,0,0,1,1.415-.307c1.007-.206,1.581-1.084,2.169-1.848l2.116-2.742c1.338-1.734,2.754-3.573,3.07-5.8.042-.294.488-.169.447.123a11.747,11.747,0,0,1-2.628,5.279q-.595.784-1.2,1.561a.238.238,0,0,1,.027.064,3.331,3.331,0,0,0,.379.806q.234.42.479.834.49.828,1.02,1.632c.165.25-.237.482-.4.234q-.547-.83-1.052-1.687-.244-.415-.478-.835a5.5,5.5,0,0,1-.312-.611l-.5.65c-.348.451-.693.9-1.044,1.351a5.242,5.242,0,0,1-.94.979,2.858,2.858,0,0,1-1.363.517,3.128,3.128,0,0,0-1.3.377,4.038,4.038,0,0,0-1.292,1.831,10.408,10.408,0,0,1-1.13,2.1,8.969,8.969,0,0,1-1.753,1.672c-1.489,1.122-3.2,1.98-4.439,3.407C1221.546,774.346,1221.22,774.017,1221.414,773.792Z" transform="translate(-1218.552 -752.466)" fill="#2c2c2c"/>
        <path id="Path_263223" data-name="Path 263223" d="M1302.566,860.024a.236.236,0,0,0,.053.022l.055.008c0,.026-.009.053-.011.08-.022.236.324.305.432.117a17.533,17.533,0,0,1,1.163-1.766q.486-.648,1.032-1.246a7.394,7.394,0,0,0-.923,3.862.286.286,0,0,0,.322.3q-.761,3.453-1.453,6.921c-.078.389.518.554.6.164q.255-1.273.518-2.544.7-3.406,1.477-6.8c-.029.454-.05.909-.059,1.364q-.023,1.116.03,2.232a2.883,2.883,0,0,0,.461,1.827.316.316,0,0,0,.374.048,1.873,1.873,0,0,0,.9-1.306,7.893,7.893,0,0,0,.139-1.7,19.674,19.674,0,0,0-.083-2,20.246,20.246,0,0,0-.74-3.869c.1-.082.193-.165.291-.245a.255.255,0,0,0,.077-.043,12.452,12.452,0,0,1,2.582-1.659.2.2,0,0,0,.083-.07c.067-.043.136-.084.2-.132a.331.331,0,0,0,.036-.031c.1-.065.2-.129.3-.2a.235.235,0,0,0,.083-.317.387.387,0,0,0-.468-.143.236.236,0,0,0-.255-.348,3.6,3.6,0,0,0-1.762.915,7.577,7.577,0,0,0-.774.534c-.5.391-.968.828-1.435,1.26s-.954.889-1.406,1.36a10.667,10.667,0,0,0-2.173,3.093C1302.137,859.93,1302.409,860.134,1302.566,860.024Zm4.381,3.088a1.551,1.551,0,0,1-.383.788,1.724,1.724,0,0,1-.106-.478c-.033-.329-.043-.661-.056-.992q-.04-1.04-.013-2.081.04-1.539.227-3.07.065.294.121.59a19.273,19.273,0,0,1,.323,3.691A7.425,7.425,0,0,1,1306.947,863.113Z" transform="translate(-1285.972 -834.902)" fill="#2c2c2c"/>
        <path id="Path_263224" data-name="Path 263224" d="M1309.081,998.991a6.061,6.061,0,0,1,1.29-.838,15.325,15.325,0,0,1,1.5-.706,14.983,14.983,0,0,1,3.313-.929q.642-.1,1.291-.15c-1.059-2-3.458-2.84-4.92-4.5a4.747,4.747,0,0,1-.9-1.455,5.578,5.578,0,0,1-.252-2.383c.065-.891.2-1.778.278-2.668q.134-1.447.2-2.9.154-3.194,0-6.392c-.015-.3.449-.3.464,0a69.78,69.78,0,0,1-.405,11.217,7.3,7.3,0,0,0,.027,2.566,3.949,3.949,0,0,0,.824,1.582,14.746,14.746,0,0,0,2.682,2.224,7.214,7.214,0,0,1,2.557,2.8.235.235,0,0,1-.2.349,14.743,14.743,0,0,0-6.4,1.845,3.425,3.425,0,0,0-1.228.907c-.363.539.155,1,.543,1.329a11.153,11.153,0,0,0,2.8,1.634,72.5,72.5,0,0,0,12.934,4.121c4.426,1.017,8.917,1.732,13.416,2.334,4.519.6,9.052,1.1,13.576,1.668s9.031,1.213,13.495,2.122q.83.169,1.658.351c.291.064.168.511-.123.447-4.615-1.011-9.29-1.717-13.974-2.321s-9.374-1.109-14.053-1.725c-4.648-.612-9.288-1.33-13.862-2.368a74.021,74.021,0,0,1-13.255-4.206,11.847,11.847,0,0,1-2.86-1.663,2.122,2.122,0,0,1-.871-1.16A1.277,1.277,0,0,1,1309.081,998.991Z" transform="translate(-1291.299 -937.717)" fill="#2c2c2c"/>
        <path id="Path_263225" data-name="Path 263225" d="M1278.158,1074.009q.316-1.284.745-2.536c.1-.281.544-.16.447.123a29.436,29.436,0,0,0-1.586,9.034q-.022,1.3.073,2.606c.021.3-.442.3-.464,0A29.867,29.867,0,0,1,1278.158,1074.009Z" transform="translate(-1265.197 -1017.316)" fill="#2c2c2c"/>
        <path id="Path_263226" data-name="Path 263226" d="M1648.532,1081.325a.316.316,0,0,1,.423.111l6.955,9.418,3.469,4.7c.525.711,1.055,1.42,1.647,2.077a20.04,20.04,0,0,0,1.874,1.74,5.976,5.976,0,0,1,1.718,2.1,2.842,2.842,0,0,1-.029,2.521.309.309,0,0,1-.534-.312,2.249,2.249,0,0,0-.032-2.035,5.588,5.588,0,0,0-1.511-1.8,21.684,21.684,0,0,1-1.829-1.679,25.062,25.062,0,0,1-1.63-2.024q-3.408-4.586-6.789-9.193l-3.844-5.2A.311.311,0,0,1,1648.532,1081.325Z" transform="translate(-1574.598 -1025.629)" fill="#2c2c2c"/>
        <path id="Path_263227" data-name="Path 263227" d="M1387.435,867.738a66.664,66.664,0,0,1,18.974,9.629,73.651,73.651,0,0,1,8.259,7.068c2.591,2.553,5.023,5.262,7.364,8.044s4.609,5.655,6.858,8.527l.827,1.057a.311.311,0,0,1-.1.424.316.316,0,0,1-.424-.1c-2.229-2.851-4.46-5.7-6.772-8.486s-4.7-5.5-7.232-8.071a76.178,76.178,0,0,0-8.032-7.138,66.24,66.24,0,0,0-18.627-9.938q-.621-.212-1.246-.412C1386.9,868.215,1387.055,867.616,1387.435,867.738Z" transform="translate(-1356.716 -847.563)" fill="#2c2c2c"/>
      </g>
      <path id="Path_263228" data-name="Path 263228" d="M1307.559,628.342a3.685,3.685,0,0,1-.924.865c-.406.294-.814.586-1.222.878a8.6,8.6,0,0,1-2.4,1.417c-.379.116-.218.712.164.6a9.251,9.251,0,0,0,2.6-1.522c.422-.3.848-.6,1.267-.912a4.251,4.251,0,0,0,1.04-1.009C1308.317,628.325,1307.782,628.015,1307.559,628.342Z" transform="translate(-883.329 -351.432)" fill="#424242"/>
      <path id="Path_263229" data-name="Path 263229" d="M1479.571,794.755a6.054,6.054,0,0,0-3.676-1.281,9.878,9.878,0,0,0-2.205.208,8.445,8.445,0,0,0-2.08.614c-.357.175-.044.708.312.534a7.825,7.825,0,0,1,1.9-.544,9.244,9.244,0,0,1,2-.194,5.409,5.409,0,0,1,3.312,1.1.318.318,0,0,0,.437,0A.311.311,0,0,0,1479.571,794.755Z" transform="translate(-1023.95 -489.23)" fill="#424242"/>
      <path id="Path_263230" data-name="Path 263230" d="M1614.006,653.543c-.265-1.319-.575-2.629-.832-3.95a36.484,36.484,0,0,0-1.974-7.451,14.152,14.152,0,0,0-1.467-2.646,15.786,15.786,0,0,1,1.612.992c.191.136.235-.574.179-.788-.11-.425-2.517-1.573-3.538-1.774a6.2,6.2,0,0,0-1.5-.126,6.945,6.945,0,0,0-1.9.3c-.213.069-.228.558-.14.725-.018.193.4.005.654-.015a8.034,8.034,0,0,1,2.567.162,7.491,7.491,0,0,1,1.334,3.093.311.311,0,0,0,.38.216.315.315,0,0,0,.216-.38,7.9,7.9,0,0,0-1.14-2.87c.06.011.118.024.177.038a.342.342,0,0,0,.042.064,15.81,15.81,0,0,1,2.979,6.3c.332,1.273.582,2.565.832,3.855s.534,2.584.81,3.874a16.671,16.671,0,0,1,.477,4.39c-.022.4.6.4.618,0A15.968,15.968,0,0,0,1614.006,653.543Z" transform="translate(-1134.795 -359.429)" fill="#2c2c2c"/>
    </g>
  </g>
</svg>
