<svg xmlns="http://www.w3.org/2000/svg" xmlns:xlink="http://www.w3.org/1999/xlink" width="427.311" height="365.667" viewBox="0 0 427.311 365.667">
  <defs>
    <clipPath id="clip-path">
      <path id="Path_262923" data-name="Path 262923" d="M485.745,201.562A120.374,120.374,0,1,1,378.688,69.2,120.374,120.374,0,0,1,485.745,201.562Z" transform="translate(-245.654 -68.527)" fill="none"/>
    </clipPath>
    <clipPath id="clip-path-2">
      <path id="Path_262989" data-name="Path 262989" d="M414.723,142.16c-.08-14.218,13.348-12.568,13.348-12.568C423.566,148.346,414.723,142.16,414.723,142.16Zm-2.58.28c-1.652-14.042-14.7-9.528-14.7-9.528C404.182,150.446,412.142,142.44,412.142,142.44Zm2.395,20.917c.124-2.351.2-4.648.239-6.85,3.813,1.153,12.285,1.459,17.5-15.527,0,0-12.615-1.582-17.538,6.875-.168-6.794-.617-11.718-.789-13.063,1.18-1.247,3.073-4.005,2.911-8.81-.234-6.946-4.264-9.456-4.264-9.456s-3.324-2.874-2.293-6.385c0,0-9.5,17.7,1.739,24.878a170.518,170.518,0,0,1,.491,17.925c-4.1-13.329-21.673-8.929-21.673-8.929,8.493,18.3,18.784,14.063,21.586,12.453-.1,3.214-.289,6.631-.581,10.135-5.9-12.548-27.082-9.233-27.082-9.233,9.063,19.149,21.541,17.276,26.432,15.616-.34,2.789-.754,5.589-1.264,8.347,0,0,1.923-.078,2.563,0,.589-3.218,1.04-6.491,1.379-9.734,3.829,1.691,14.825,4.335,22.6-16.01C436.5,155.59,420.372,152.631,414.537,163.357Z" transform="translate(-384.787 -110.142)" fill="none"/>
    </clipPath>
  </defs>
  <g id="_1" data-name="1" transform="translate(-390.121 -455)">
    <path id="Path_262185" data-name="Path 262185" d="M609.467,455.083C515.838,452.24,434.736,522.1,422.483,613.776c-13.4,100.23,60.339,190.413,151.067,204.857C686.4,836.6,795.86,732.663,786.032,619.908,778.627,534.957,704.642,457.974,609.467,455.083Z" transform="translate(0 0)" fill="#f4f7fa"/>
    <g id="Group_151140" data-name="Group 151140" transform="translate(262.982 431.742)">
      <path id="Path_262915" data-name="Path 262915" d="M584.19,443.293C640.775,430.11,539.772,453.634,584.19,443.293Z" transform="translate(-83.554 -69.529)" fill="#ffeae6"/>
      <g id="Group_151091" data-name="Group 151091" transform="translate(223.421 68.527)">
        <path id="Path_262919" data-name="Path 262919" d="M485.73,201.565A120.353,120.353,0,1,1,378.693,69.236,120.352,120.352,0,0,1,485.73,201.565Z" transform="translate(-245.659 -68.533)" fill="#20cb7d"/>
        <g id="Group_151090" data-name="Group 151090" transform="translate(0)">
          <g id="Group_151089" data-name="Group 151089" clip-path="url(#clip-path)">
            <path id="Path_262920" data-name="Path 262920" d="M421.023,66.936,417,66.551l.666-1.1-2.332.131,1.335-.831-.847-.06a13.291,13.291,0,0,1-1.466-.221c-1.6-.3-3.406-.643-5.206.953l.535-2.4-2.864,1.045a1.752,1.752,0,0,0,.3-1.455c-.186-.534-.788-.817-1.737-.829a4.633,4.633,0,0,0-2.026.67c-.187.1-.378.192-.57.278a6.566,6.566,0,0,0-.981.6c-.076.056-.149.106-.225.156l-.059-.093,2.1-2.377-.272-.185c-1.574-1.065-2.915-1.4-4-1.007a3.267,3.267,0,0,0-1.717,1.627l-.75-1.742-.241.273c-.184.206-.361.4-.526.574a8.861,8.861,0,0,0-.927,1.106c-.955,1.429-2.2,1.4-3.526,1.36-.3-.007-.592-.015-.887-.011l-.092.007-.1.006a1.535,1.535,0,0,0-.732-1.1c-.553-.265-1.184.154-1.642.457a3.043,3.043,0,0,1-.327.206,2.358,2.358,0,0,1-2.087-.067,5.434,5.434,0,0,0-.948-.278,4.8,4.8,0,0,0-1.436.039c-.159.018-.318.038-.467.05-.072-.071-.152-.16-.232-.249-.31-.352-.659-.751-1.089-.764a2.543,2.543,0,0,0-1.345.554c-.042.028-.087.058-.129.085a1.293,1.293,0,0,0-.321-.756c-.514-.535-1.455-.389-2.113-.233a38.33,38.33,0,0,0-4.507,1.465l-.606.227a2.479,2.479,0,0,0-1.236,1.011,11.5,11.5,0,0,0-.724,1.686c-.053.145-.111.295-.167.441l-.141-.067-.148-.51-.168-.571-.229.094-.012,0-6.232,1.632-.054.116a2.384,2.384,0,0,0-.288,1.345c-.062-.066-.134-.13-.193-.2-.117-.128-.341.059-.236.2,1.8,2.3,4.154,3.287,6.669,4.535a8.756,8.756,0,0,1,3.219,2.323,1.834,1.834,0,0,1,.148,2.012c-.492,1.016-1.67.689-2.533,1.054-.452.189-1.122,1.118-.731,1.626.352.459,1.484,1,.851,1.806a11.4,11.4,0,0,1-1.786,1.287,2.284,2.284,0,0,0-.811,2.548c.37,1.267-.055,2.119-.31,3.3a4.409,4.409,0,0,0,.331,2.186c.91,2.812,3.3,6.355,6.272,7.189,1.187.333,2.334-.436,3.186-1.162,1.72-1.474,3.29-3.045,5.159-4.364a44.31,44.31,0,0,1,12.561-6.342,15.472,15.472,0,0,1,7.4,0,5.936,5.936,0,0,0,4.736-.721,7.06,7.06,0,0,0,3.084-4.477A2.973,2.973,0,0,0,409.882,79c-.722-1.395.779-1.851,1.869-2.441,1.661-.9,3.488-1.806,4.139-3.725.36-1.063.721-2.093,1.145-3.129a9.444,9.444,0,0,0,.507-1.357c.63,0,1.256-.022,1.873-.044.445-.014.892-.03,1.343-.038l.243-.006Z" transform="translate(-267.621 -66.865)" fill="#58e3a4"/>
            <path id="Path_262921" data-name="Path 262921" d="M682.215,143.619c-.375-.216-.76-.461-1.166-.716a15.935,15.935,0,0,0-3.021-1.618c-5.038-1.808-10.485-3.658-16.645-5.649-1.68-.544-3.411-.961-5.08-1.366-.756-.181-1.5-.362-2.242-.557l-.314-.078.042,1.956c-.036,0-.076-.011-.114-.02a8.809,8.809,0,0,1-.863-.194c-.639-.18-1.3-.426-1.934-.663A11.628,11.628,0,0,0,646.5,133.7a10.228,10.228,0,0,1-6.888-1.868,3.842,3.842,0,0,0-1.741-.786c-1.622-.2-3.273-.361-4.866-.52-1.378-.137-2.754-.275-4.124-.431a1.4,1.4,0,0,1-.574-.288,3.091,3.091,0,0,0-.5-.287l-1.49-.625c-1.652-.694-3.362-1.41-5.067-2.025a16.6,16.6,0,0,0-3.6-.764,1.832,1.832,0,0,0-1.682.618c-1.163,2-1.241,2.041-2.985,1.535-.219-.065-.457-.148-.7-.227-.936-.325-1.908-.66-2.588-.236-2.4,1.5-3.957-.154-5.328-1.619-2.182-2.325-4.717-3.148-8.226-2.668a7.542,7.542,0,0,1-3.4-.292c-.216-.07-.427-.148-.636-.223-1.367-.493-2.79-1.009-4.367-.275a.763.763,0,0,1-.644-.123c-2.2-1.627-4.545-1.319-6.744-.742a1.7,1.7,0,0,1-.886-.143c-.1-.032-.21-.069-.312-.1l0-.155,4.23-2.473-.322-.271a8.734,8.734,0,0,1-.661-.635,3.091,3.091,0,0,0-1.4-1c-2.282-.448-4.542-.783-6.938-1.137-.754-.115-1.523-.227-2.291-.346l.48-1.816-3.465,1.414c-.325.134-.652.3-.964.459a4.953,4.953,0,0,1-1.96.7c-2,.064-3.986-.015-6.088-.1-.835-.033-1.682-.067-2.544-.091l-.359-.011.12.394a2.687,2.687,0,0,1,.063,2.038.99.99,0,0,1-.967.318c-.867-.071-1.734-.158-2.6-.242l-1.313-.125-.355.951,2.4,2.291,0,.011-4.456-1.711.159.717-1.675.668,1.09.578c.357.193.679.365,1,.53.215.109.422.214.633.317-.3-.093-.618-.17-.926-.241-1.459-.335-2.724-.627-2.705-3.087l.007-.716-2.5,3.107.24.181c.415.3.812.652,1.2.992a7.263,7.263,0,0,0,2.765,1.8c1.729.445,2.9.863,3.392,2.338-.021-.033-.037-.062-.058-.093a4.4,4.4,0,0,0-.977-1.194,3.884,3.884,0,0,0-1.732-.562c-.253-.039-.506-.077-.748-.138l-.537-.131.583,1.218c-.082.3-.154.612-.215.916a4.391,4.391,0,0,1-.679,1.869,2.146,2.146,0,0,1-1.661.817,2.177,2.177,0,0,1-1.469-.617c.115-.084.235-.163.356-.243a4.2,4.2,0,0,0,1.41-1.307c.34-.594-.076-1.763-.353-2.4-.266-.612-.582-1.21-.89-1.784a13.579,13.579,0,0,1-1.291-2.951c-.286-1.115-.636-1.7-1.72-1.747-.651-.035-1.307-.1-2.072-.179-.369-.041-.766-.08-1.207-.123l-.28-.028.1,4.947,3.3,1.973c-1.22,1.033-2.027.428-2.952-.267a3.78,3.78,0,0,0-1.551-.824,16.733,16.733,0,0,1-3.558-1.115c-.452-.176-.882-.352-1.292-.493l-.187-.063-.1.2c-.145.279-.289.583-.423.854-.121.245-.254.512-.34.678a4.852,4.852,0,0,0-3.029-.006c-1.322.276-2.57.534-3.663-.623-.36-.389-1.211-.134-1.457-.045-.638.222-1.271.471-1.886.711a30.738,30.738,0,0,1-3.282,1.144,1.778,1.778,0,0,1-1.638-.625l-.183-.4c-.593-1.323-.728-1.406-2.058-1.244l-.317.04,1.167,3.985c-1.545-.775-2.621-.909-3.362-.425a3.074,3.074,0,0,0-1.1,2.285l-3.411-1.336-.258.742,1.236,1.164a3.318,3.318,0,0,1-2.189-.25,2.319,2.319,0,0,1-1.267-1.332,6.849,6.849,0,0,0-2.03-2.933c-.132-.131-.274-.268-.409-.408a.864.864,0,0,1-.14-.262c.249.132.488.264.72.388.9.488,1.676.914,2.492,1.271.154.067.306.136.461.206,1.229.562,2.617,1.2,4.08.053a6.54,6.54,0,0,0,.753-.725c.1-.11.2-.223.31-.329l.188-.195-.158-.21c-.089-.117-.173-.253-.254-.384a2.27,2.27,0,0,0-.728-.836c-.332-.184-.668-.377-1-.565a29.724,29.724,0,0,0-4.585-2.267,5.266,5.266,0,0,0-1.259-.231,2.5,2.5,0,0,1-2.251-1.124,1.506,1.506,0,0,0-1.037-.812c-.626-.068-1.216.444-1.739.955l-.4-1.279-2.913-.276c-.167-.072-.249.086-.427.43l-.027.055-.469-.8-.943,1.111.125-.756-.134-.1c-.592-.465-1.065.2-1.383.638-.2.279-.425.6-.6.587-.077.006-.266-.089-.542-.6l-.128-.245-1.959,1.5-1.154-.765-12.079,9.523.542-.041a12.046,12.046,0,0,0-6.76,2.465l-.414.326,1.5.587-1.792.388.293,1.15,1.869-.559-2.914,1.557.9.1c.53.056.783.533,1.078,1.083.4.744.9,1.673,2.241,1.121a8.251,8.251,0,0,1,1.179-.343c1.076-.258,2.286-.54,2.77-2.071l.684.887a.724.724,0,0,0-.2.605c.53,1.921,1.111,3.966,1.756,5.987a1.29,1.29,0,0,0,.745.645.439.439,0,0,0,.432-.024l.493-.379a15.613,15.613,0,0,0,2.619-2.354,17.547,17.547,0,0,0,1.7-2.64c.214-.377.429-.751.644-1.106l.181-.3-1.221-.544,2.282.341-.088-.41a1.427,1.427,0,0,0-.358-.734.7.7,0,0,1-.067-.085c-.162-.259-.352-.51-.539-.767a4.216,4.216,0,0,1-.982-1.869c.027-.19.626-.636.994-.9a9.535,9.535,0,0,0,.947-.772c1.65-1.639,3.586-3.583,5.466-5.589a.65.65,0,0,0,.159-.375l1.455,2.663c-.333.305-.647.6-.951.886-.768.72-1.434,1.346-2.145,1.925a2.916,2.916,0,0,0-1.051,2.18,2.612,2.612,0,0,0,.889,2.082c1.228,1.054,2.589,2.029,4.532,1.354a5.393,5.393,0,0,1,2-.154c.289.011.583.025.865.02l.581.735c-.044.281-.083.546-.119.794a14.9,14.9,0,0,1-.3,1.69,1.054,1.054,0,0,1-.206.366l-.063-2.354-5.3-.5-.429,1.052,1.9,1.929-1.3,1.717-1.385-1.77-.167.082a2.692,2.692,0,0,0-1.492,1.379,2.252,2.252,0,0,0,.064,1.492,1.763,1.763,0,0,0-.448,1.462c.132.344.48.514,1.065.526,1.112.012,1.462.613,1.579,1.6-.215-.034-.429-.068-.647-.107a7.877,7.877,0,0,0-2.173-.157,7.5,7.5,0,0,1-2.52-.291,5.6,5.6,0,0,0-3.939.074,11.686,11.686,0,0,1-1.512.566c-.18.058-.357.115-.529.175a3.416,3.416,0,0,0-.727-.941,7.177,7.177,0,0,0-4.077-2.289,3.437,3.437,0,0,0-2.805.238,3.69,3.69,0,0,0-.737.907c-.588.815-1.436.738-2.325.681-2.313-.14-4.484,2.553-5.632,4.3a1.792,1.792,0,0,1-2.785.628,2.868,2.868,0,0,0-1.361-.581,5.2,5.2,0,0,0-3.481.785.363.363,0,0,0-.05.557c.968,1.02-.928.595-1.208.525a11.551,11.551,0,0,0-1.755-.293,2.335,2.335,0,0,0-1.894.6c-1.177,1.063.167,4.04,1.017,4.9,1.072,1.085,2.343,1.453,2.527,3.162.171,1.552-.6,1.9-1.9,1.422-1.643-.6-2.9-1.581-4.722-1.452-1.628.118-4.362,1.187-4.537,3.09-.058.657.525,1.213.9,1.672,1,1.248.088,3.076.249,4.562.169,1.609-.812,2.964-1.523,4.313a2.135,2.135,0,0,0-.009,2.359c1.119,1.593,2.667.1,3.793-.66.165.555.361,1.219.874,1.44a10.674,10.674,0,0,0,3.787.587,7.854,7.854,0,0,0,3.75-.994,14.318,14.318,0,0,0,3.7-2.314c1.127-1.158,1.2-2.933,2.542-3.9.965-.7,2.136-.833,2.873-1.876.885-1.251-1.308-1.608-1.826-2.453.008-.016.029-.028.038-.048.972-1.7,1.989-1.391,3.424-.731a3.365,3.365,0,0,0,2.465-.057c.332-.131.356-.7.4-1.494,0-.119.007-.238.019-.357l.288.149a2.168,2.168,0,0,0,1.449.392,2.05,2.05,0,0,1,.546-.063,36.865,36.865,0,0,1,.884,4.909,3.47,3.47,0,0,0,2.331,2.725c2.052.847,3.648,2.02,3.937,4.426.121.991.054,2,.125,2.992.109,1.574.969,2.137,2.137.92a5.058,5.058,0,0,0,1.237-2.605c.252-1.117.414-3.835,2.071-3.57a.326.326,0,0,0,.378-.252c.45-2.029-1.589-4-2.837-5.332-.773-.809-1.6-1.553-2.377-2.349-.992-1-2.187-1.7-2.619-2.915l1.342-.27.405.343-.7.71.31.191a6.746,6.746,0,0,0,.78.4c.439.206.978.456,1.03.706a2.534,2.534,0,0,0,2.239,2.119c.139.037.28.08.4.111l2.484,1.08.4.56.019.028c-.023.207-.05.418-.074.633-.234,1.9-.479,3.871,1.026,5.408l1.733,2.566-1.084.2,3.045,3.852.332-3.5,1.028.57.608-.969L490.2,174.6l-.383-2.84.078-.037,1.9,2.2-.2-2.712,3.328.64,0,.275-.046.146c-.266.812-.594,1.818.468,2.576a3.43,3.43,0,0,1,.021.827c-.011.322-.024.688-.011,1.1l0,.085.048.067c.149.234.3.535.464.855a5.2,5.2,0,0,0,2.782,2.983c.2.06,1.167.348,1.495-.1.734-1.007,1.28-.658,2.047-.178.159.1.324.206.487.293.119.06.234.126.347.193a3.468,3.468,0,0,0,1.878.637,9.984,9.984,0,0,0,2.4-.645c.241-.085.486-.174.733-.256l.056,4.027c0,.171.011.342.014.512a9.682,9.682,0,0,1,0,1.029c-.045.611-.123,1.237-.2,1.84-.03.253-.061.5-.093.752l-.61,1.832c.025-.618.043-1.24.069-1.86l.025-.56-.627-.243-1.626,3.321c-.383-.1-.773-.224-1.156-.353a5.762,5.762,0,0,0-3.042-.448,10.733,10.733,0,0,1-5.752-.6l-.25-.071a6.676,6.676,0,0,0-2.034-.164c-.25,0-.5.006-.751,0-.76-2.078-2.487-2.754-4.015-3.355l-.316-.123a1.721,1.721,0,0,0-1.677-.023c-.56.38-.8,1.219-1,2.439a3.624,3.624,0,0,1-1.58,2.044l-.4-.121c-1.56-.466-3.51-1.053-4.11-2.3a6.511,6.511,0,0,0-4.072-3.359c-.366-.147-.743-.295-1.106-.47l-.157-.074-.863,1.08-.991-3.64,1.061-1.387-1.085-1.674,1.346-1.414-.247-.2c-1.189-.977-2.707-1.848-4.112-.08-.111-.165-.232-.318-.424-.332-.549-.032-1.11-.018-1.655,0a10.968,10.968,0,0,1-3.043-.217c-3.036-.81-5.907-.092-9.224,2.327-.2-.1-.395-.189-.544-.251-.8-.347-1.652-.576-2.475-.877-1.026-.381-1.341-.84-2.206-.611l-.009-.012-.021.018a3.677,3.677,0,0,0-.472.172c-1.071.483-1.886,1.5-2.926,2.072a18.036,18.036,0,0,0-3.056,1.827,5.6,5.6,0,0,0-1.913,4.736,3.922,3.922,0,0,1-2.731,2.579,11.76,11.76,0,0,0-3.028,1.648c-.891.666-1.947.833-2.747,1.622-.735.712-.522,2.026-.632,2.913-.177,1.416-1.805,2.545-2.726,3.506A15.542,15.542,0,0,0,426.6,201.5c-1.114,2.1-.395,4.005.383,6.074a4.4,4.4,0,0,1-.271,4.142c-.552.913-1.563,1.97-1.492,3.137a2.553,2.553,0,0,0,1.044,1.933c1.32,1.162-.744,2.1-1.023,3.172-.5,1.921,1.138,3.036,2.676,3.774a16.718,16.718,0,0,1,2.484,1.347l.813,1.679c-.561,2.316.613,3.631,1.865,4.616,1.133,2.276,2.6,4.692,5.606,4.865.167.015.338.049.5.072a3.789,3.789,0,0,0,1.178.067c1.3-.187,2.58-.409,3.939-.647.468-.083.946-.169,1.436-.25a.173.173,0,0,0,.08.028.205.205,0,0,0,.173-.029l.58,1.158.175-.045c.354-.092.707-.18,1.064-.258a14.335,14.335,0,0,0,2.595-.774,2.577,2.577,0,0,0,.981-1.184c.059-.1.114-.2.171-.3l.917,1.16.181-.261c.047-.065.093-.123.136-.187a2.4,2.4,0,0,0,.33-.512,3.275,3.275,0,0,0,.119-.375c.3.31.634.523.947.4.34-.134.551-.6.67-1.513a8.275,8.275,0,0,1,.255-1.171l-.2,2.142.567.236c1.834.76,3.562,1.481,3.462,4.275l-.011.287,3.83.05a6.963,6.963,0,0,1,2.212,4.815,1.981,1.981,0,0,0-.9,1.263,1.807,1.807,0,0,0,.375,1.315,3.939,3.939,0,0,1-1.668,2.707l-.112.084-.029.124a1.361,1.361,0,0,0,.13.772c.775,1.352,1.562,2.692,2.345,4.039l.751,1.279a8.223,8.223,0,0,1,.248.833c.225.869.475,1.847,1.488,2.1a1.022,1.022,0,0,0-.081.113c-.283.392-.605.832-.474,1.291a1.009,1.009,0,0,0,.622.63,1.665,1.665,0,0,0-.487.877,1.8,1.8,0,0,0,.321,1.293,2.6,2.6,0,0,1,.268,2.956,2.3,2.3,0,0,0-.007,1.695c1.033,2.665-.079,4.645-1.362,6.932l-.15.264a25.494,25.494,0,0,0-1.779,4.457c-.232.705-.477,1.444-.75,2.176l-.124.34,1.406.21a1.928,1.928,0,0,0-.669.938,2.978,2.978,0,0,0,.379,2.237,22.363,22.363,0,0,1,1.152,3l.059.169c1.356,4.092,1.368,8.513,1.378,12.784,0,1.21.193,2.632,1.536,3.146a.742.742,0,0,0-.168.647c.213.613.46,1.215.7,1.806.376.935.766,1.908,1.056,2.893a6.83,6.83,0,0,1,.209,2.895,3.732,3.732,0,0,0,.655,2.961,2.455,2.455,0,0,0,1.7.921,3.054,3.054,0,0,0,.711-.027c.327-.052.662-.116.987-.174,1.7-.316,3.3-.623,4.85.375a1.05,1.05,0,0,0,1.045.01c.628-.431,1.265-.843,1.9-1.255a37.359,37.359,0,0,0,4.967-3.614,41.242,41.242,0,0,0,4.076-4.512c.6-.727,1.219-1.485,1.866-2.24l.211-.243-1.947-1.517c.038-.009.076-.02.109-.026.6-.143,1.173-.275,1.314-.722a3.94,3.94,0,0,1,2.648-2.541c2.7-1.177,3.39-2.882,2.44-6.08-.523-1.754-.37-2.124-.31-2.2a57.656,57.656,0,0,1,5.262-5.615A14.127,14.127,0,0,1,505,283.756a11.773,11.773,0,0,0,2.428-1.984c1.427-1.65,1.248-3.6,1.073-5.489a10.906,10.906,0,0,1,.023-3.25l.018-.087-.023-.085c-.117-.348-.267-.7-.4-1.028a6.137,6.137,0,0,1-.613-2.133c-.04-2.077.054-4.2.148-6.251.037-.8.075-1.595.1-2.388.21-.282.421-.569.625-.852.483-.665.98-1.343,1.49-1.99.591-.768,1.215-1.524,1.818-2.255.248-.3.495-.593.734-.894l.249-.119a2.142,2.142,0,0,0,.678-.43c.587-.594,1.164-1.21,1.744-1.82.882-.929,1.8-1.9,2.731-2.793a19.6,19.6,0,0,1,1.7-1.41,12.235,12.235,0,0,0,2.753-2.635,92.956,92.956,0,0,0,5.606-9.741,15.6,15.6,0,0,0,1.1-3.211c.138-.524.285-1.064.453-1.609l.144-.47-.417.1c-.675.162-1.3.322-1.892.475a31.444,31.444,0,0,1-3.422.751c-.494.069-1,.19-1.5.3-2.056.466-3.994.915-5.375-1.743-.145-.278-.491-.236-.886-.195-.051.008-.1.012-.16.02l-.106-.96.777-.741-.093-.2c-.173-.371-.324-.763-.479-1.15a11.663,11.663,0,0,0-1.238-2.508,18.468,18.468,0,0,0-1.2-1.42c-1.175-1.273-2.274-2.484-2.182-4.658.02-.38-.308-.652-.658-.937a3.793,3.793,0,0,1-.306-.268l-.6-1.776c-.113-.349-.261-.691-.4-1.021a6.564,6.564,0,0,1-.623-2.117l-.015-.275c-.149-2.85-.24-3.316-2.2-3.545l1.264-.552-4.929-13.891,2.464,3.927.459-2.523.075.169c.217.483.432.972.64,1.472.492,1.123.994,2.283,1.544,3.411.407.834.9,1.652,1.387,2.441a12.953,12.953,0,0,1,2.178,4.943,17.854,17.854,0,0,0,2.395,6.408,24.889,24.889,0,0,1,1.757,3.759,2.35,2.35,0,0,0,1.117,1.111c.132.084.264.17.389.26a10.878,10.878,0,0,0,.3,7.058c.318,1,.661,1.721,1.971,1.273.848-.29,1.73-.554,2.579-.812,3.628-1.091,7.376-2.223,10.195-5.8,1.358.31,2.43-.422,3.468-1.128a9.161,9.161,0,0,1,1.453-.863,4.029,4.029,0,0,0,1.514-1.721c.155-.259.312-.518.476-.748a7.986,7.986,0,0,0,.457-.769,3.767,3.767,0,0,1,.7-1.031,4.7,4.7,0,0,0,1.9-3.2,3.122,3.122,0,0,0-1.077-2.37,20.919,20.919,0,0,0-2.5-1.988c-.342-.249-.682-.491-1.02-.744l.125-1.673-.34.112a3.737,3.737,0,0,1-.433.112,1.721,1.721,0,0,0-1.016.461c-1.416,1.616-2.825,2.058-4.416,1.4-.177-.073-.278.046-.394.284l-.547-.97c-.641-1.141-1.287-2.279-1.919-3.431a6.957,6.957,0,0,1-.329-.771,5.628,5.628,0,0,0-.513-1.076c-.817-1.2-1.679-2.4-2.517-3.549-.274-.381-.544-.758-.829-1.138l.1-.1c.232-.239.467-.474.691-.717.162-.179.322-.371.479-.561l.138-.168c.206.011.414.021.617.024a6.1,6.1,0,0,1,1.533.172c1.13.344,1.453,1.449,1.784,2.617.071.252.141.5.223.743.681,2.068,4.311,4.671,6.1,3.92,1.574-.665,2.342.079,3.193,1.691.71,1.343,4.122,2.923,5.5,2.268a2.092,2.092,0,0,0,.753-.835c.033-.049.062-.1.1-.146a4.159,4.159,0,0,0,4.716,1.382c1.278-.491,2.078-.055,3.025.868a4.591,4.591,0,0,1,.75,1.15,5.408,5.408,0,0,0,.809,1.241,18.8,18.8,0,0,0,2.138,1.813c.194.152.393.3.585.456l-1.12.669.042.215c.4,1.979,1.344,2.993,2.666,2.853a3.953,3.953,0,0,0,1.895-1.077c.178-.144.365-.292.539-.431.02.052.045.11.064.166a2.8,2.8,0,0,1,.322,1.56c-.854,3.082-.06,5.825.708,8.479l.225.779c.622,2.2,1.215,4.458,1.788,6.646.535,2.041,1.089,4.149,1.674,6.217a12.691,12.691,0,0,0,.936,2.219c.18.366.37.747.555,1.16l.164.367,3.779-5.013c.282-.285.266-.788.245-1.366a4.421,4.421,0,0,1,.1-1.418c.613-1.991,1.044-3.672.5-5.59a1.331,1.331,0,0,1,.353-.768l.454-.443c1.522-1.493,3.1-3.042,4.726-4.452.942-.824,1.96-1.583,2.942-2.316.547-.409,1.09-.819,1.629-1.236a1.023,1.023,0,0,0,.357-.8,1.645,1.645,0,0,1,1.862-2.12c.219-.031.44-.063.652-.11.228-.047.471-.071.721-.1a2.635,2.635,0,0,0,1.82-.652c.4-.48.735-.709.924-.688.252.03.47.482.717,1.007l.1.218c.46.949.965,1.895,1.446,2.807.634,1.191,1.292,2.429,1.859,3.69a30.7,30.7,0,0,1,1.28,3.631c.142.47.284.94.44,1.406.111.355.2.731.26,1.012.02.1.042.184.058.253l.066.275,3.18-1.226a21.87,21.87,0,0,0,.851,3.379c.743,2.4,1.578,5.108.911,8.168l-.015.1.033.09a.257.257,0,0,0,.086.113c-.1.343-.223.7-.347,1.051a4.985,4.985,0,0,0-.449,2.973,11.246,11.246,0,0,0,2.148,3.316c.32.384.649.783.949,1.182a11.967,11.967,0,0,0,2.055,8.141,4,4,0,0,0,2.72,1.656,2.919,2.919,0,0,0,.571,0l.328-.029-.1-.355c-.127-.426-.3-.859-.477-1.288a4.5,4.5,0,0,1-.537-2.373,4.715,4.715,0,0,0-1.567-5.1,3.85,3.85,0,0,0-1.459-1.747,3.014,3.014,0,0,1-1.483-2.28,11.068,11.068,0,0,0-.567-2.453,9.5,9.5,0,0,1-.542-2.469,10.512,10.512,0,0,1,.691-3.379c.1-.32.2-.639.292-.958a3.139,3.139,0,0,1,.46-.842l.006.183,3.649,2.483,1.607,3.688,1.746-.526L610,244.981l.418-.293c.559-.395,1.107-.771,1.641-1.145,1.364-.942,2.657-1.827,3.887-2.839a3.51,3.51,0,0,0,1.067-2.437c-.132-4.22-1.117-7.273-3.111-9.634-1.843-2.183-2.523-3.5-2.422-4.671.1-1.061.881-2.139,2.621-3.587a2.477,2.477,0,0,1,2.31.051,4.372,4.372,0,0,1,1.5,2.982l.075.389-2.209,1.1,1.04,2.93,2.133-3.228-.431-1.066-.171.085.041-.227c.44-2.46,1.735-3.042,3.822-3.228a10.356,10.356,0,0,0,6.816-2.78,13.663,13.663,0,0,0,3.046-5.823c.257-.776.521-1.58.835-2.338a4.237,4.237,0,0,0,.485-3,2.153,2.153,0,0,0-1.531-1.2.362.362,0,0,0-.01-.056,1.607,1.607,0,0,0,.859-1.108,2.335,2.335,0,0,0-.891-1.747,10.461,10.461,0,0,1-1.358-1.968c-.174-.295-.345-.588-.526-.873-.146-.231-.3-.459-.445-.683a17.924,17.924,0,0,1-1.214-2.045,2.472,2.472,0,0,1-.261-1.473,26.356,26.356,0,0,1,2.109-2.511c.28-.308.561-.618.835-.935l.284-.32-.36-.148a6.4,6.4,0,0,1-.645-.338c-.879-.509-1.959-1.133-3.138.343l-3.61-3.351c.28-.2.537-.393.777-.569.672-.487,1.2-.873,1.728-1.291.507-.4,1.007-.826,1.487-1.245.142-.122.283-.239.414-.359.072.157.153.314.224.471.277.574.555,1.17.792,1.77a7.079,7.079,0,0,1,.318,1.2c.023.112.045.206.058.271l.08.311,3.28-1.745a2.976,2.976,0,0,0,.851.9c.665.532,1.146.911.57,2.054l-.06.132.041.123a1.8,1.8,0,0,0,.754.752c.443.184.9.326,1.347.462.141.042.286.089.425.132.136.372.281.74.422,1.11.34.883.69,1.794.972,2.712.45,1.439.786,2.21,1.359,2.429s1.309-.168,2.442-.977a1.905,1.905,0,0,0,.7-1.607c-.708-2.024-1.742-4.188-4.008-4.927l-1.5-2.389c.113-.063.222-.121.331-.18a6.131,6.131,0,0,0,1.145-.736,3.953,3.953,0,0,0,.909-1.417l.007-.141-.086-.089c-.59-.624-.357-1.092-.03-1.743a3.971,3.971,0,0,0,.367-.946c.686-1.234,1.4-1.445,2.544-.76.574.349,1.909-.245,2.282-.877a17.74,17.74,0,0,0,2.365-10.383,7.366,7.366,0,0,0-.539-2.479,15.744,15.744,0,0,0-.906-1.639,13.308,13.308,0,0,1-.958-1.771c-1.14-2.75-3.5-4.316-5.81-3.891l-.377-1.54L637.211,160l-.718-1.656-1.85-.179c.151-.387.3-.756.435-1.119.391-.973.75-1.9,1.062-2.827.9-2.695,3.038-3.951,5.44-3.2a6.206,6.206,0,0,0,1.728.2,8.949,8.949,0,0,1,1.091.066,35.964,35.964,0,0,1,3.646.691c.024.115.051.343.071.519.027.223.054.479.1.732l.062.333,3.934-2.013-.874-.466c.044-.253.088-.511.123-.773a5.668,5.668,0,0,1,.549-2.065c.168-.276,1.18-.37,1.835-.171a5.2,5.2,0,0,1,1.289.712,6.44,6.44,0,0,0,1.214.7,1.617,1.617,0,0,0,1.545-.638,5.834,5.834,0,0,0,.723-1.449c.052-.141.1-.281.161-.417l.5.088c.108.342.24.686.37,1.019a5.837,5.837,0,0,1,.581,2.437,10.147,10.147,0,0,1-1.483,4.067,3.611,3.611,0,0,0,.024,4.126c.925,1.418,1.906,2.817,2.855,4.173l.476.686q.314.447.623.906a28.46,28.46,0,0,0,2.15,2.885,2.439,2.439,0,0,0,1.345.617,5.472,5.472,0,0,1,.594.158l.347.124-.025-.423c-.041-.7-.111-1.327-.174-1.934a11.681,11.681,0,0,1-.069-3.159c.266-1.518.129-4.337-1.014-5.561-.868-.925-1.727-1.9-2.556-2.844-.33-.375-.661-.749-.985-1.122l.144-.434c.379-.136.761-.276,1.139-.418,1.033-.376,2.1-.77,3.163-1.065a1.955,1.955,0,0,1,1.591.145,1.8,1.8,0,0,0,1.529.516,2.318,2.318,0,0,0,1.372-1.223,3.309,3.309,0,0,1,3.58-1.737,6.994,6.994,0,0,0,.946.04c.175,0,.376,0,.6,0l.862.018-5.431-4.131.455-.32.413-2.033c.5.787,1.079,1.531,1.859,1.658a2.143,2.143,0,0,0,1.73-.648,2.542,2.542,0,0,1,.435.226c.3.184.605.374.9.565a17.37,17.37,0,0,0,1.878,1.1,1.871,1.871,0,0,0,1.524-.125,2.772,2.772,0,0,0,.813-.779c.128-.154.263-.323.434-.5l.257-.284ZM505.9,195.749l.173-.993.524-1.083c-.032.371-.066.751-.11,1.163l-.021.283.933.088Z" transform="translate(-279.326 -77.017)" fill="#58e3a4"/>
            <path id="Path_262922" data-name="Path 262922" d="M387.411,236.807a8.636,8.636,0,0,1-3.487-2.752c-.967-1.573-1.95-2.324-3.092-2.363a5.8,5.8,0,0,1-2.018-.594c-.159-.06-.315-.131-.473-.194a3.871,3.871,0,0,0-.848-1.922c-.94-1.169-2.483-1.544-3.789-2.129-1.559-.694-1.647-2.456-3.188-3.11-.986-.414-1.946-.165-2.4-1.433a6.458,6.458,0,0,1,.03-2.593,6.466,6.466,0,0,0-.839-4,9.619,9.619,0,0,0-3.4-3.366,8.286,8.286,0,0,0-2.165-.9c-1.033-.293-1.569-.328-1.819-1.43a4.541,4.541,0,0,0-2.447-2.787,6.665,6.665,0,0,1-2.408-1.678,5.465,5.465,0,0,1-.66-2.1c-.55-2.844-2.82-2.377-5.062-1.652-1.6.522-2.941-1.535-4.55-1.767a4.362,4.362,0,0,1-2.746-1.171c-.626-.539-2.194-.957-2.4-1.795-.231-.92-.606-1.507-1.626-1.223a2.691,2.691,0,0,0-1.09.944c-.784.944-1.289,1.626-2.672,1.672-3.729.121-3.711,3.985-6.046,5.884a4.96,4.96,0,0,1-.946-.579,3.487,3.487,0,0,0-2.893-.816,3.936,3.936,0,0,1-4.145-.527c-.111-.436-.241-.881-.372-1.31a9.1,9.1,0,0,1-.555-3.022,11.788,11.788,0,0,1,.793-3.164c.2-.568.4-1.159.557-1.754a3.9,3.9,0,0,0,.024-2.757,1.865,1.865,0,0,0-1.509-.891c-1.03-.138-2.08-.187-3.1-.234-.44-.018-.89-.041-1.34-.067-.6-.039-.951-.178-1.055-.42s0-.7.324-1.313c.974-1.869,1.925-3.8,2.843-5.663.388-.79.777-1.574,1.166-2.359l.123-.242-.2-.14a3.594,3.594,0,0,0-3.249-.717,4.081,4.081,0,0,0-2.23,2.337,5.38,5.38,0,0,1-3.207,2.608,4.535,4.535,0,0,1-3.914-.18c-1.852-1.292-3.24-6.581-2.356-8.992.427-1.15.9-2.3,1.348-3.4.206-.5.409-.992.6-1.484l.078-.188-.842-.909c.078-.037.162-.07.243-.106.527-.225,1.034-.443,1.164-.907a4.338,4.338,0,0,1,2.71-3.056,14.593,14.593,0,0,0,1.617-.842,14.836,14.836,0,0,1,1.734-.881,5.16,5.16,0,0,1,2.768-.574,11.017,11.017,0,0,1,2.717,1.18c.066.036.129.067.2.1a4.923,4.923,0,0,0,2.1,2.549.327.327,0,0,0,.461-.221,4.275,4.275,0,0,0-.4-2.961,6.916,6.916,0,0,1,5.074,1.514c1.823,1.382,1.946,3.237,1.8,5.338-.141,2.063.418,5.579,3.219,5.621,3.6.057,1.985-8.138,2.884-10.2,1.682-3.808,6.273-4.55,9.214-6.875,1.333-1.049,1.678-2.657,2.08-4.21.725-2.743,2.635-1.441,4.321-2.606a3.729,3.729,0,0,0,1.079-1.434c.618-1.2.971-2.017,2.332-2.59,1.591-.669,3.3-.808,4.284-2.374.523-.846.336-1.861.98-2.7.492-.647,1.669-.946,2.382-1.319a3.014,3.014,0,0,0,1.828-2.622,1.317,1.317,0,0,0-.1-.485,6.8,6.8,0,0,0,.492-.647c.076-.116.166-.23.241-.34a3.2,3.2,0,0,0,4.074-.652c.02.02.037.037.054.053.157.372.269.777-.031.991a2.249,2.249,0,0,1-.474.245l0,0a10.723,10.723,0,0,1-1.647.368,3.956,3.956,0,0,0-2.384.968c-.677.769-1.115,3.147.341,3.445a2.6,2.6,0,0,0,2.189-.721,7.635,7.635,0,0,1,3.719-1.775c1.805-.3,4.3-.423,5.221-2.328.473-.977-.976-1.539-1.629-1.751-.868-.288-1.76-.5-2.6-.852a5.5,5.5,0,0,1-1.085-1.132,6.29,6.29,0,0,1,1.558.1c1.033.1,2.161-.034,1.8-1.33a3.338,3.338,0,0,0-2.056-1.581A3.181,3.181,0,0,0,365.5,130a16.159,16.159,0,0,0-2.375.887c-.523.228-1.063.461-1.6.648-.107.04-.317-.07-.5-.163l-.107-.052c.015-.039.023-.076.037-.115a1.691,1.691,0,0,1,.193-.461c.575-.262,1.154-.548,1.734-.833,2.549-1.253,5.175-2.547,8-1.8,4.106,1.085,7.788-.587,10.857-2.366a3.214,3.214,0,0,0,1.172-2.678,2.068,2.068,0,0,0-1.042-1.357,1.877,1.877,0,0,0-1.748.195,3.982,3.982,0,0,1-1.353.392c-.155.02-.3.049-.449.075l-.02-.091,3.222-1.112-.377-.34c-.2-.181-.4-.333-.585-.472a2.479,2.479,0,0,1-.752-.757,7.022,7.022,0,0,1-.881-2.755,29.739,29.739,0,0,1,.277-3.766c.072-.6.146-1.225.206-1.885l.049-.506-5.993,3.5c-.124-.171-.257-.335-.385-.494-.777-.957-1.291-1.592-.344-2.852.338-.443-.049-1.7-.389-2.159a7.091,7.091,0,0,0-1.916-1.639c-3.185-2.01-4.872-1.509-6.932,2.06-.05.085-.1.178-.15.271a1.59,1.59,0,0,1-.431.615c-1.4.828-2.618,1.917-1.98,4.254a1.6,1.6,0,0,1-.516.868c-1.479,1.133-3,2.237-4.6,3.409l-1.761,1.287-.031.081c-.072.188-.143.432-.226.715a7.522,7.522,0,0,1-1.052,2.437,3.391,3.391,0,0,1-2.626,1.176,3.689,3.689,0,0,1-.761-2.437,7.592,7.592,0,0,1,1.158-2.423c.237-.388.487-.784.715-1.207l.167-.3-.287-.114c-.167-.066-.344-.127-.524-.191a6.862,6.862,0,0,1-1.157-.487c-2.041-1.171-4.406-2.546-6.715-4a2.871,2.871,0,0,1-.764-1.123l-.089-.18c-.225-.451-.416-.942-.646-1.5-.086-.22-.176-.451-.273-.7.129-.185.26-.39.4-.605a5.5,5.5,0,0,1,1.365-1.626,31.2,31.2,0,0,1,3.1-1.674c.82-.405,1.67-.816,2.484-1.292a2.762,2.762,0,0,1,.778-.261c.763-.182,1.7-.409,1.8-1.92a4.168,4.168,0,0,1,.831-.161c1.255-.088,2.508-.156,3.9-.229l2.072-.116L356.2,99.217c.856-.525,1.189.045,1.533.64a2.639,2.639,0,0,0,.342.494l.093.091.115-.031c.607-.167,1.182-.368,1.743-.561a8.566,8.566,0,0,1,3.257-.709c2.77.2,4.234-1.641,5.785-3.593l.432-.536-.238-.184c-1.7-1.319-3.1-1.236-4.541.258a8.2,8.2,0,0,1-2.351,1.5c-.2.1-.413.2-.612.309a1.03,1.03,0,0,1-.592-.036,1.428,1.428,0,0,1-.147-.029c0-.046,0-.094.007-.139a3.919,3.919,0,0,1,.106-.816,4.248,4.248,0,0,1,.344-.775c.058-.119.12-.23.168-.34l.093-.193-.128-.147c-.058-.062-.1-.122-.143-.175a.556.556,0,0,0-.335-.275c-.93-.147-1.431-.272-1.576-.557s0-.941.345-2.1c.062-.207.184-1-.133-1.2a1.372,1.372,0,0,0-1.149-.172c-.786.318-1.536.676-2.334,1.054-.291.143-.581.284-.881.419l-.315.147.2.3a2.411,2.411,0,0,1,.639,1.964c-.149.47-.672.815-1.557,1.028l-.1.019a4.965,4.965,0,0,0-2.012.811,1.575,1.575,0,0,1-2.6-.256,2.777,2.777,0,0,0-1.69-.692l-.058-.01a9.293,9.293,0,0,0-1.219-.1,5.39,5.39,0,0,1-1.827-.286c-1.5-.634-3.119-1.111-4.762-.344a12.228,12.228,0,0,0-2.144,1.4c-.245.187-.495.375-.756.566a3.046,3.046,0,0,0-.925-1.938,2.93,2.93,0,0,0-2.68-.349,4.017,4.017,0,0,1-1.857-.239c-.241-.063-.494-.133-.768-.2l1.273-1.354-.4-.144c-.525-.188-1.055-.362-1.574-.533a27.789,27.789,0,0,1-3.359-1.27,7.183,7.183,0,0,0-2.859-.532,6.1,6.1,0,0,1-3.458-.877c-.916-.634-2.28-.3-3.606.026a12.765,12.765,0,0,1-1.951.375l-.224.016a51.275,51.275,0,0,1-6.211.21,9.789,9.789,0,0,1-2.546-.618c-.388-.132-.771-.261-1.153-.37-.206-.119-.41-.255-.609-.385a6.175,6.175,0,0,0-1.508-.8c-.693-.215-1.41-.373-2.1-.523a18.417,18.417,0,0,1-2.592-.694,24.355,24.355,0,0,0-12.317-1.015c-2.673.392-5.376.928-7.991,1.444l-.7.136a7.946,7.946,0,0,0-1.486.513c-.231.1-.471.2-.727.293l-.328.122,1.565,2.535c-.355.089-.7.2-1.033.3a3.7,3.7,0,0,1-2.28.283c-2.031-.822-3.667-.107-5.4.647l-.392.17-.069,1.156,5.446.515.028.444c-.381.147-.761.3-1.135.463a20.047,20.047,0,0,1-2.963,1.06,17.193,17.193,0,0,1-2.282.327,13.168,13.168,0,0,0-3.064.552,7.262,7.262,0,0,0-2.362,1.722c-.317.3-.644.608-.967.876l-.2.157.5.929,1.579.152-2.077,1.454.068.941,3.87.368,0,.23a26.76,26.76,0,0,1-12.291,4.349l.029.565c5.4-.466,10.647-2.228,15.726-3.93,2.9-.971,5.869-1.969,8.866-2.724l-3.255,1.556.288,1.036.219-.084c.61-.215,1.219-.437,1.829-.657,1.651-.6,3.36-1.219,5.055-1.772a2.769,2.769,0,0,1,1.574.085,22.66,22.66,0,0,1,3.5,1.366,15.3,15.3,0,0,1,2.052,1.354c.245.184.49.366.74.542.162.116.314.252.47.386a3.31,3.31,0,0,0,.938.656,2.628,2.628,0,0,1,1.667,1.771,2.565,2.565,0,0,1-.392,2.035,2.171,2.171,0,0,0-.456,1.545,1.7,1.7,0,0,0,.864,1.089c-.141.171-.3.348-.454.521-.662.743-1.185,1.335-1.037,1.83a3.926,3.926,0,0,1-.489,3.014,5.381,5.381,0,0,0-.471,1.19l-.03.137.076.11c.239.334.446.642.645.929.4.579.751,1.081,1.117,1.558a5.114,5.114,0,0,0,3.2,2.328c-1.135-.119-2.29-.181-3,1.641a2.005,2.005,0,0,1-.825.743c-.113.07-.225.142-.333.214l.868-1.209-.156-.18c-.364-.427-.805-.855-1.307-.8-.4.051-.764.379-1.18,1.072l-.337.554c-2.278,3.77-4.634,7.672-7.23,11.228-1.365,1.873-2.505,3.784-1.449,6.539a1.191,1.191,0,0,1-.079.238,1.48,1.48,0,0,0-.142.585c.033.559.009,1.223-.014,1.86-.053,1.669-.1,3.246.612,3.913a8.813,8.813,0,0,1,1.2,1.559,5.6,5.6,0,0,0,2.426,2.427l-.771-.072-.068.2c-.959,2.705-.922,2.833-.019,6.106l.1.383a4.128,4.128,0,0,1-.086,1.715c-.044.23-.086.474-.116.708l-.773.207.279.361c.16.211.332.418.5.625a14.687,14.687,0,0,1,1.082,1.46l.037.058c.255.42.786,1.3.678,1.634a3.545,3.545,0,0,0,.959,3.78,5.52,5.52,0,0,1,.775,1.092l.722,1.454-.268-1.66a10.875,10.875,0,0,0-.327-1.287,6.454,6.454,0,0,1-.33-1.453,28.17,28.17,0,0,0-1.574-8.8,3.486,3.486,0,0,1-.171-.986,4.895,4.895,0,0,0-.151-1.02,2.187,2.187,0,0,1,.059-1.626,1.218,1.218,0,0,1,.857-.665,1.063,1.063,0,0,1,.984.225,2.444,2.444,0,0,1,.587,1.659,30.767,30.767,0,0,0,3.679,12.007l.17.338c1.2,2.384,2.332,4.638,1.178,7.552a2.721,2.721,0,0,0,.261,2.036c1.656,2.771,4.122,4.311,6.511,5.8.623.389,1.27.79,1.889,1.212.206.135.4.294.6.451a2.848,2.848,0,0,0,2.974.831c2.566-.922,3.181-.613,4.688,2.367,1.141,2.246,4.4,3.817,6.507,3.225a5.378,5.378,0,0,0,.985,2.946,4.387,4.387,0,0,1,.871,3.165c-.074.379.254.753.669,1.18a7.353,7.353,0,0,0,.743.65,2.883,2.883,0,0,1,1.088,1.2c.2.612.392.912.66,1.023a.975.975,0,0,0,.839-.135l3.436,3.012.045-.53a2.773,2.773,0,0,1,.606-1.817,1.819,1.819,0,0,1,1.522-.446,1.2,1.2,0,0,1,.981.418,2.588,2.588,0,0,1,.2,1.7,2.915,2.915,0,0,0,.156,1.078,3.231,3.231,0,0,1,.142.766c0,.46.02.932.041,1.4a11.056,11.056,0,0,1-.249,3.7,16.893,16.893,0,0,1-1.96,3.7c-.329.517-.671,1.052-.977,1.575l-3.616,5.685,1.5,1.954-.591,1.505a3.913,3.913,0,0,0-1.482,2.617,3.971,3.971,0,0,0,.928,2.964,9.229,9.229,0,0,1,1.562,2.8c.353,1.047.651,2.147.934,3.215.306,1.137.627,2.314,1.016,3.441a45.14,45.14,0,0,0,2.509,5.9,18.184,18.184,0,0,0,2.646,3.766,29.031,29.031,0,0,0,3,2.741l.513.427c.632.53,1.307,1.019,1.954,1.491.234.172.464.338.7.51-.024.053-.049.1-.075.149a1.918,1.918,0,0,0-.289,1.017c.08.686.218,1.375.344,2.043a11.718,11.718,0,0,1,.363,3.558c-.08.716-.171,1.426-.259,2.129a44.19,44.19,0,0,0-.492,6.687,37.939,37.939,0,0,1-.209,4.229c-.113,1.26-.225,2.565-.222,3.854.007.841.022,1.693.04,2.537a40.712,40.712,0,0,1-.591,9.724,15.808,15.808,0,0,0,.107,5.371c.1.764.2,1.555.257,2.307a1.088,1.088,0,0,0,.4.707c1.511,1.293,1.745,3.19,1.99,5.194.058.484.122.974.2,1.46l-.057.521-.1.033,0-.143-.2.135-.193-.376-.447.7-.077.979.374.14a.431.431,0,0,0,.047.119l0,0a.555.555,0,0,0,.009.223l-.573.962.077.15c.258.51.531.98.8,1.424a7.951,7.951,0,0,1,1.187,2.672,15.858,15.858,0,0,0,3.9,8.342,3.588,3.588,0,0,0,2.388.8l.252.023h0c.352.036.67-.292.929-.548a2.318,2.318,0,0,1,.208-.19l.352-.266-1.5-.93,1.755.17-.062-.439c-.284-1.978-.284-1.978,1.364-4.991a2.783,2.783,0,0,0-.388-3.757,7.005,7.005,0,0,1-1.072-1.684c-.129-.241-.264-.5-.409-.767,2.561-.519,2.445-2.358,2.341-3.992-.024-.39-.054-.782-.044-1.159l3.4.669-2-.967c-1.266-.607-2.316-1.254-2.3-2.826l4.13.394-.18-.447c-.7-1.748-.879-2.775-.593-3.324.265-.51,1-.777,2.443-.886a5.672,5.672,0,0,0,3.35-1.648,2.914,2.914,0,0,0,.74-2.188,5.167,5.167,0,0,0-1.8-3.72c-.664-.54-.825-.938-.592-1.582l.782.4c.723.367,1.475.753,2.193,1.167a2.428,2.428,0,0,0,2.427.212,3.487,3.487,0,0,0,1.509-2.371l2.094-2.865a9.518,9.518,0,0,0,2.592-4.562,14.351,14.351,0,0,1,1.356-3.092,2.5,2.5,0,0,0,.444-1.83,3.269,3.269,0,0,1-.262-2.2c.266-.868,1.065-1.468,2.167-2.1l.162-.084c1.323-.755,2.692-1.534,4.064-2.249a.784.784,0,0,1,.664.037,2.223,2.223,0,0,0,1.982.361,4,4,0,0,0,2.007-2.283c2.353-4.978,3.873-9.312,3.67-14.275a4.906,4.906,0,0,1,.643-2.593,38.149,38.149,0,0,1,2.373-3.266c.327-.418.656-.843.98-1.27.019-.024.052-.048.084-.082a.785.785,0,0,0,.214-.229c.284-.5.581-.988.873-1.476a25.794,25.794,0,0,0,1.934-3.634A3.5,3.5,0,0,0,387.411,236.807Z" transform="translate(-246.675 -71.505)" fill="#58e3a4"/>
          </g>
        </g>
        <path id="Path_262924" data-name="Path 262924" d="M355.548,264.349c-15.242-50.918-95.147-10.068-76.717-120.508,2.656-15.928,6.484-31.038,13.7-44.424a120.359,120.359,0,1,0,179.5,152.363C448.37,270.036,364.791,295.23,355.548,264.349Z" transform="translate(-245.659 -74.322)" fill="#95b374" opacity="0.2" style="mix-blend-mode: multiply;isolation: isolate"/>
      </g>
      <g id="Group_151111" data-name="Group 151111" transform="translate(336.454 102.335)">
        <g id="Group_151110" data-name="Group 151110">
          <g id="Group_151097" data-name="Group 151097" transform="translate(7.351 75.834)">
            <path id="Path_262931" data-name="Path 262931" d="M421.492,232.275a123.836,123.836,0,0,0-14.115-7.979c-3.145-1.517-6.42-2.944-8.98-5.249a23.475,23.475,0,0,1-4.4-6.023c2.994-1.07,5.688,1.124,7.693,3.544a26.307,26.307,0,0,1-7.853-11.926c1.167-.877,2.778.219,3.77,1.249q3.2,3.321,6.391,6.644-1.864-3.183-3.735-6.365c-.53-.9-.805-2.419.262-2.657.608-.136,1.154.34,1.572.775q3.4,3.56,6.81,7.122c2.545,2.662,10.691,4.792,16.866.345.425-.306.677-.845,1.183-1.011,1.051-.349,2.1.725,2.158,1.778a6.854,6.854,0,0,1-.966,3,13.076,13.076,0,0,0,2.7,14.454c-2.778,1.755-6.663,4.062-9.356,2.3" transform="translate(-393.835 -203.487)" fill="#bb535d"/>
            <path id="Path_262932" data-name="Path 262932" d="M418.464,233.913c3.771,14.307.609,39.477,16.914,56.2,6.933,7.11,23.189,18.009,33.77,19.233,21.111,2.45,32.327-8.311,35.953-11.272,9.992-8.154,6.408-32.65-1.02-42.464-7.611-10.052-30.329,15.418-39.126,14.269-8.255-1.076-13.044-8.576-16.654-15.269-3.978-7.365-11.942-24.544-15.48-25.605-1.2-.357-7.769,3.055-14.356,4.906" transform="translate(-398.455 -208.269)" fill="#fff"/>
            <path id="Path_262933" data-name="Path 262933" d="M504.081,256.39c-4.177-5.517-12.9-.333-21.382,5.276a88.59,88.59,0,0,0-4.087,9.118c-2.09,5.342-3.856,10.81-5.866,16.186a17.163,17.163,0,0,1-3.527,6.052c-1.546,1.615-3.672,2.87-5.925,2.4-3.532-.744-5.32-4.115-7.56-6.654a7.641,7.641,0,0,0-4.3-2.68,11.05,11.05,0,0,0-3.77.1,22.4,22.4,0,0,1-3.44.276,13.062,13.062,0,0,1-6.516-1.973,23.983,23.983,0,0,1-9.273-10.82c-.519-1.169-.911-2.388-1.4-3.564q-.785-1.868-1.424-3.789a57.426,57.426,0,0,1-1.766-6.632c-.064-.223-.124-.45-.183-.669a26.485,26.485,0,0,1-.584-3.005c-.272-1.939-.425-3.911-.571-5.866-.154-2.048-.206-4.1-.182-6.156s.13-4.107.292-6.153a21.45,21.45,0,0,1,.592-4.71c-1.535.561-3.13,1.113-4.744,1.566,3.771,14.307.609,39.477,16.914,56.2,6.933,7.11,23.189,18.009,33.77,19.233,21.111,2.45,32.327-8.313,35.953-11.272,9.992-8.154,6.408-32.65-1.02-42.464" transform="translate(-398.455 -209.046)" fill="#bac9e7"/>
            <path id="Path_262934" data-name="Path 262934" d="M421.26,239.587c4.536-.146,11.276-2.082,14.845-4.752" transform="translate(-398.98 -209.367)" fill="none" stroke="#2e4369" stroke-miterlimit="10" stroke-width="1"/>
            <g id="Group_151096" data-name="Group 151096" transform="translate(58.641 62.405)">
              <path id="Path_262935" data-name="Path 262935" d="M468.872,280.3a14.358,14.358,0,0,0-2.855,6.485" transform="translate(-466.017 -280.301)" fill="none" stroke="#2e4369" stroke-miterlimit="10" stroke-width="0.5"/>
              <path id="Path_262936" data-name="Path 262936" d="M471.768,281.068a14.022,14.022,0,0,0,.157,9.318" transform="translate(-466.961 -280.445)" fill="none" stroke="#2e4369" stroke-miterlimit="10" stroke-width="0.5"/>
              <path id="Path_262937" data-name="Path 262937" d="M474.8,281.693a7.306,7.306,0,0,0,1.242,5.555" transform="translate(-467.643 -280.562)" fill="none" stroke="#2e4369" stroke-miterlimit="10" stroke-width="0.5"/>
            </g>
          </g>
          <path id="Path_262938" data-name="Path 262938" d="M543.1,198.409c.6-3.1,1.533-6.641,4.356-7.949,3.181-1.476,6.78.811,9.21,3.337a36.9,36.9,0,0,1,8.992,16c1.185,4.446,1.591,9.24,3.987,13.14,3.708,6.035,11.062,8.326,17.7,10.567s13.886,5.6,16.164,12.338c1.9,5.62-.282,12.066,1.618,17.686,3.4,10.062,17.136,11.792,23.392,20.3a17.118,17.118,0,0,1,1.591,17.051c-2.712,5.727-8.322,9.357-13.7,12.583-4.87,2.919-12.445,6.329-17.971,7.485-15.491,3.243-55.682-5.26-59.021-50.146-2.146-28.849,2.181-64.7,3.677-72.391" transform="translate(-413.686 -125.122)" fill="#232743"/>
          <g id="Group_151098" data-name="Group 151098" transform="translate(87.968 115.414)">
            <path id="Path_262939" data-name="Path 262939" d="M567.72,368.033a99.752,99.752,0,0,1-1.158-21.373,96.163,96.163,0,0,1,3.9-21.131c3.978-13.836,9.739-28.355,7.265-43.049a37.718,37.718,0,0,0-10.912-20.58,57.158,57.158,0,0,0-7.3-3.263c-8.395-3.078-17.407-4.492-23.968-6.274-11.7-1.016-23.493,2.95-31.478,10.016a36.018,36.018,0,0,0-6.374,7.394c-4.616,10.11-4.581,21.968-2.461,32.758.625,3.181,1.388,6.347,2.2,9.486a47.332,47.332,0,0,1,1.857,10.108c.253,7.119-1.188,14.2-2.348,21.176a256.022,256.022,0,0,0-3.872,43.326,185.114,185.114,0,0,0,1.431,21.781,227.181,227.181,0,0,0,78.652,2.183c3.013-.453,4.017.473,6.264-1.122-6.669-12.436-9.461-27.376-11.7-41.436" transform="translate(-493.068 -252.206)" fill="#fff"/>
            <path id="Path_262940" data-name="Path 262940" d="M572.211,368.033a99.752,99.752,0,0,1-1.158-21.373,96.164,96.164,0,0,1,3.9-21.131c3.978-13.836,9.739-28.355,7.265-43.049A37.718,37.718,0,0,0,571.3,261.9a57.162,57.162,0,0,0-7.3-3.263c-8.395-3.078-17.407-4.492-23.968-6.274a43.789,43.789,0,0,0-23.03,4.373,1.392,1.392,0,0,0,.253.021c23.575-1.625,33.237,2.9,34.019,13.433.149,1.971.539,3.909.686,5.872a43.638,43.638,0,0,0,1.163,7.093c1.242,5.121,3.081,10.1,3.844,15.333a30.328,30.328,0,0,1-1.408,14.566,36.335,36.335,0,0,1-7.077,12.255,3.5,3.5,0,0,0-.942,1.311c-.091.479.247.808.586,1.1a8.391,8.391,0,0,0,2.579,1.345c.906.337,1.85.492,2.743.887a11.281,11.281,0,0,1,2.388,1.44,15.6,15.6,0,0,1,5.563,10.025c1.349,9.553-4.81,18.554-10.773,25.21-6.182,6.894-13.582,12.506-19.646,19.515a62.079,62.079,0,0,0-12.733,25.342,225.772,225.772,0,0,0,59.392-.892c3.013-.453,4.017.473,6.264-1.122-6.669-12.436-9.461-27.376-11.7-41.436" transform="translate(-497.559 -252.206)" fill="#bac9e7"/>
            <path id="Path_262941" data-name="Path 262941" d="M504.707,323.442a18.739,18.739,0,0,0,4.657,14.054c1.2,1.32,2.579,2.448,3.733,3.808a30.031,30.031,0,0,1,4.333,7.888" transform="translate(-495.238 -265.569)" fill="none" stroke="#2e4369" stroke-miterlimit="10" stroke-width="0.5"/>
            <path id="Path_262942" data-name="Path 262942" d="M508.041,351.181c3.388,2.657,6.779,5.32,10.3,7.789" transform="translate(-495.876 -270.773)" fill="none" stroke="#2e4369" stroke-miterlimit="10" stroke-width="0.5"/>
            <path id="Path_262943" data-name="Path 262943" d="M549.128,295.957a14.882,14.882,0,0,0,3.423,9.7c2.718,3.23,6.841,5.264,8.632,9.117" transform="translate(-503.584 -260.413)" fill="none" stroke="#2e4369" stroke-miterlimit="10" stroke-width="0.5"/>
          </g>
          <g id="Group_151099" data-name="Group 151099" transform="translate(148.204 124.275)">
            <path id="Path_262944" data-name="Path 262944" d="M590.156,398.747c-2.367,1.828-4.882,3.608-6.515,6.142-4.291,6.667-1.757,12.67-.914,12.783,1.622.22,1.28-6.1,2.891-6.358.279,6.372,1.03,12.694,3.507,18.546.526,1.25,2.151,3.748,3.509,2.759,1.088-.789-1.613-9.633-2.74-14.146a72.08,72.08,0,0,0,1.963,7.664c.784,2.5,2.839,8.027,4.458,6,.383-.477-.574-8.234-2.549-12.257,1.226,3,1.314,3.6,2.237,5.866s3.787,7.13,4.857,4.939c.8-1.629-2.705-8.371-4.524-12.36q1.967,3.167,3.931,6.34c.407.652,1.085,1.4,1.777,1.085.717-.331.576-1.418.279-2.174-1.394-3.538-3.584-6.751-4.537-10.443s-.245-8.284,2.957-10.219a30.552,30.552,0,0,1-6.443-7.638c-1.661,1.1-3.045,2.624-4.144,3.473" transform="translate(-569.84 -287.905)" fill="#bb535d"/>
            <path id="Path_262945" data-name="Path 262945" d="M577.185,312.646c8.526,15.739,18.806,23.462,29.64,33.842q-6.753,8.05-13.507,16.1c-3.98,4.749-7.9,10.223-7.9,10.223l10.012,14.64s15.255-6.975,31.99-26.337c4.288-4.96,8.592-10.545,9.083-17.165.389-5.268-1.719-10.365-3.993-15.1-9.775-20.364-23.545-37.454-38.871-58.469-12.5-17.123-41.713-4.375-16.451,42.264" transform="translate(-567.213 -263.113)" fill="#fff"/>
            <path id="Path_262946" data-name="Path 262946" d="M635.316,328.852c-9.775-20.364-23.545-37.454-38.871-58.469-3.857-5.286-9.308-7.72-14.257-7.2.5.31,1,.626,1.489.952,9.124,6.139,15.673,15.491,20.352,25.486,1.19,2.54,2.267,5.136,3.254,7.767q.741,1.973,1.412,3.978c.479,1.428.832,2.865,1.225,4.316a25.63,25.63,0,0,0,3.97,8.617,37.8,37.8,0,0,0,5.944,5.912c4.047,3.477,7.8,7.243,9.869,12.329a27.42,27.42,0,0,1,1.456,15.512c-1.128,5.73-4.251,10.52-8.239,14.588-2.215,2.256-4.641,4.263-6.966,6.4-2.492,2.289-5.108,4.432-7.721,6.572a51.1,51.1,0,0,0-6.81,6.137,8.637,8.637,0,0,0-1.9,3.426,5.318,5.318,0,0,0-.143,1.706c3.834-2.012,16.819-9.533,30.845-25.766,4.288-4.96,8.592-10.545,9.083-17.164.389-5.269-1.719-10.366-3.993-15.1" transform="translate(-570.022 -263.114)" fill="#bac9e7"/>
            <path id="Path_262947" data-name="Path 262947" d="M618.633,362.579A10.6,10.6,0,0,0,627.725,359" transform="translate(-576.859 -281.1)" fill="none" stroke="#2e4369" stroke-miterlimit="10" stroke-width="0.5"/>
            <path id="Path_262948" data-name="Path 262948" d="M617.809,366.291a9.273,9.273,0,0,0,7.93,4.77" transform="translate(-576.704 -282.468)" fill="none" stroke="#2e4369" stroke-miterlimit="10" stroke-width="0.5"/>
            <path id="Path_262949" data-name="Path 262949" d="M619.495,365.056a7.142,7.142,0,0,0,5.04.972,14.269,14.269,0,0,0,4.88-1.879c.055-.03.122-.084.109-.145s-.145-.018-.093.024" transform="translate(-577.021 -282.033)" fill="none" stroke="#2e4369" stroke-miterlimit="10" stroke-width="0.5"/>
            <path id="Path_262950" data-name="Path 262950" d="M595.345,395.293a40.878,40.878,0,0,0,10.178,13.085" transform="translate(-572.49 -287.909)" fill="none" stroke="#2e4369" stroke-miterlimit="10" stroke-width="1"/>
          </g>
          <path id="Path_262951" data-name="Path 262951" d="M518.049,256.048c-1.4,8.191.822,15.607,4.485,23.017,10.066-9.254,4.125-10.073,17.59,2.775,6.042-8.29,12.662-14.268,18.7-22.557-6.039,6.217-23.466-12.606-41.821-1.913" transform="translate(-409.591 -137.131)" fill="#bac9e7"/>
          <g id="Group_151104" data-name="Group 151104" transform="translate(99.79 62.745)">
            <g id="Group_151100" data-name="Group 151100">
              <path id="Path_262952" data-name="Path 262952" d="M521.4,202.447a36.941,36.941,0,0,0-5.944,15.229c-.736,4.906-.432,10.123,1.822,14.522s6.7,7.814,11.571,7.866c6.658.073,11.936-5.739,15.166-11.671a19.4,19.4,0,0,0,2.6-8.611c.6-6.4-2.036-14.252-7.561-17.36s-14.56-4.529-17.656.024" transform="translate(-509.023 -189.657)" fill="#bb535d"/>
              <path id="Path_262953" data-name="Path 262953" d="M527.813,230.655a265.02,265.02,0,0,1,.413,28.507,2.394,2.394,0,0,0,.336,1.708,2.162,2.162,0,0,0,1.021.563,23.583,23.583,0,0,0,16.762-.911,1.764,1.764,0,0,0,.855-.634,1.857,1.857,0,0,0,.108-1.146c-1.17-9.887.258-21.08-.912-30.969-5.139.972-12.957,2.78-18.582,2.882" transform="translate(-511.407 -194.954)" fill="#bb535d"/>
              <path id="Path_262954" data-name="Path 262954" d="M548.066,226.571a4.32,4.32,0,0,0-.145,3.159c.936,2.068,4.534,2.454,6.663,1.162a7.712,7.712,0,0,0,3.307-5.81,2.906,2.906,0,0,0-.813-2.908,3.77,3.77,0,0,0-1.7-.574c-1.695-.243-6.644,3-7.317,4.972" transform="translate(-515.133 -193.793)" fill="#bb535d"/>
              <path id="Path_262955" data-name="Path 262955" d="M533.422,200.322a11.662,11.662,0,0,0-7.946,3.521c-2.317,2.392-3.527,5.656-5.476,8.362s-5.282,4.967-8.405,3.89c-2.778-.961-3.975-4.28-3.975-7.271,0-16.674,13.872-20.342,18.924-21.145,5.919-.941,15.181.008,21.976,7.143,4.151,4.359-1.456,13.752-2.7,19.723-1.159-3.289-2.351-6.641-4.506-9.357s-5.488-4.719-7.893-4.866" transform="translate(-507.619 -187.376)" fill="#232743"/>
              <path id="Path_262956" data-name="Path 262956" d="M539.036,217.541a10.163,10.163,0,0,0-3.155.11,1.315,1.315,0,0,0-.747.33.472.472,0,0,0,.055.709.8.8,0,0,0,.59,0,7.972,7.972,0,0,1,5.261.483,1.619,1.619,0,0,0,.757.222c.265-.019.53-.255.454-.5a.652.652,0,0,0-.319-.321,7.956,7.956,0,0,0-2.9-1.024" transform="translate(-512.756 -193.02)" fill="#232743"/>
              <path id="Path_262957" data-name="Path 262957" d="M538.38,221.3a1.183,1.183,0,1,1,1.182,1.241,1.212,1.212,0,0,1-1.182-1.241" transform="translate(-513.39 -193.507)" fill="#232743"/>
              <path id="Path_262958" data-name="Path 262958" d="M522.531,216.741a10.619,10.619,0,0,0-3.052.8,1.34,1.34,0,0,0-.657.474.445.445,0,0,0,.208.653.841.841,0,0,0,.575-.136,8.246,8.246,0,0,1,5.232-.7,1.672,1.672,0,0,0,.787.04c.254-.076.457-.355.331-.569a.642.642,0,0,0-.381-.232,8.157,8.157,0,0,0-3.043-.326" transform="translate(-509.708 -192.879)" fill="#232743"/>
              <path id="Path_262959" data-name="Path 262959" d="M522.635,220.407a1.176,1.176,0,0,1,.881-1.422,1.2,1.2,0,0,1,1.421.9,1.178,1.178,0,0,1-.882,1.422,1.192,1.192,0,0,1-1.421-.9" transform="translate(-510.43 -193.3)" fill="#232743"/>
              <path id="Path_262960" data-name="Path 262960" d="M528.64,219.816a18.7,18.7,0,0,1-4.414,7.54,1.412,1.412,0,0,0-.555,1.044,1.132,1.132,0,0,0,.249.53,2.982,2.982,0,0,0,3.112,1.065" transform="translate(-510.629 -193.461)" fill="none" stroke="#232743" stroke-miterlimit="10" stroke-width="0.5"/>
              <path id="Path_262961" data-name="Path 262961" d="M521.646,234.379a10.58,10.58,0,0,0,10.709.346,6.114,6.114,0,0,1-5.64,4.335,5.418,5.418,0,0,1-5.069-4.681" transform="translate(-510.25 -196.193)" fill="#fff"/>
              <path id="Path_262962" data-name="Path 262962" d="M550.128,232.5a2.609,2.609,0,1,1,2.607,2.684,2.646,2.646,0,0,1-2.607-2.684" transform="translate(-515.593 -195.338)" fill="#fff"/>
            </g>
            <g id="Group_151103" data-name="Group 151103" transform="translate(8.648 52.066)">
              <g id="Group_151101" data-name="Group 151101" transform="translate(4.506 14.689)">
                <path id="Path_262963" data-name="Path 262963" d="M530.128,270.53c-1.821,1.423-1.437,1.955-1.807,4.164a6.021,6.021,0,0,0,2.4,5.948,5.144,5.144,0,0,0,6.425-.568,5.555,5.555,0,0,0,1.128-2.241,7.2,7.2,0,0,0-1.058-6.256c-1.358-1.761-5.185-2.536-6.27-1.688Z" transform="translate(-524.641 -269.545)" fill="#32436b"/>
                <path id="Path_262964" data-name="Path 262964" d="M530.61,277.142a159.824,159.824,0,0,1-5.248,28.99,31.693,31.693,0,0,0-1.549,7.8c-.12,6.28,4.951,30.689,8.724,35.861,2.545-3.939,8.445-33.626,8.752-35.353a12.983,12.983,0,0,0-.448-5.1q-3.258-14.645-6.522-29.291a4.3,4.3,0,0,0-1.47-2.834c-.934-.62-2.632-.13-2.237-.073" transform="translate(-523.81 -270.926)" fill="#32436b"/>
              </g>
              <g id="Group_151102" data-name="Group 151102">
                <path id="Path_262965" data-name="Path 262965" d="M518.284,255.709c-.24,3.35,1.7,6.819,2.072,10.158a20.193,20.193,0,0,0,3.237,9.389,25.161,25.161,0,0,1,8.262-8.845,7.208,7.208,0,0,1-4.939-5.338,65.4,65.4,0,0,1-.281-8.868c0,1.019-2.486.9-4.263,1.47A16.121,16.121,0,0,0,518.284,255.709Z" transform="translate(-518.264 -251.603)" fill="#fff"/>
                <path id="Path_262966" data-name="Path 262966" d="M542.9,261.6c-3.076,1.623-5.948,3.539-9.195,4.706,4.5,1.413,6.03,7.628,10.34,9.572a13.865,13.865,0,0,1,3.723-6.144c1.164-1.107,2.518-2,3.623-3.172,2.908-3.093,3.679-7.643,4.28-11.9-2.665-.3-5.345-2.4-7.752-3.2C547.92,251.464,547.451,259.2,542.9,261.6Z" transform="translate(-521.161 -251.464)" fill="#fff"/>
              </g>
            </g>
          </g>
          <path id="Path_262967" data-name="Path 262967" d="M528.237,246.977c5.355,1.336,11.38-2.866,13-7.979-1.473,4.646-2.031,5.365-4.393,7.969-2.032,2.239-5.414,4.3-8.347,4.393C528.4,250.224,528.237,246.977,528.237,246.977Z" transform="translate(-411.697 -134.314)" fill="#9e4350"/>
          <path id="Path_262968" data-name="Path 262968" d="M502.321,290.21a21.192,21.192,0,0,0,1.295,13.911c.921,2,2.282,3.935,4.289,4.71,3.014,1.163,6.485-.782,8.213-3.576s2.138-6.214,2.5-9.5q.323-2.916.644-5.828c-5.741.416-11.517.288-16.943.288" transform="translate(-406.718 -143.867)" fill="#bac9e7"/>
          <path id="Path_262969" data-name="Path 262969" d="M493.558,375.714s-9.252,33.715-10.47,43.464,0,12.186,0,12.186,31.166,10.245,57.509,8.53c24.951-1.625,39.1-6.5,39.1-6.5l-15.247-57.681s-23.847,4.468-38.323,4.468A130.834,130.834,0,0,1,493.558,375.714Z" transform="translate(-403.126 -159.961)" fill="#232743"/>
          <path id="Path_262970" data-name="Path 262970" d="M545.713,371.275c1.545-2.133,2.48-3.939,4.519-5.84,2.38-2.217,3.385-5.038,4.621-7.971" transform="translate(-414.975 -156.538)" fill="none" stroke="#2e4369" stroke-miterlimit="10" stroke-width="0.5"/>
          <g id="Group_151109" data-name="Group 151109">
            <g id="Group_151108" data-name="Group 151108">
              <path id="Path_262971" data-name="Path 262971" d="M414.723,142.16c-.08-14.218,13.348-12.568,13.348-12.568C423.566,148.346,414.723,142.16,414.723,142.16Zm-2.58.28c-1.652-14.042-14.7-9.528-14.7-9.528C404.182,150.446,412.142,142.44,412.142,142.44Zm2.395,20.917c.124-2.351.2-4.648.239-6.85,3.813,1.153,12.285,1.459,17.5-15.527,0,0-12.615-1.582-17.538,6.875-.168-6.794-.617-11.718-.789-13.063,1.18-1.247,3.073-4.005,2.911-8.81-.234-6.946-4.264-9.456-4.264-9.456s-3.324-2.874-2.293-6.385c0,0-9.5,17.7,1.739,24.878a170.518,170.518,0,0,1,.491,17.925c-4.1-13.329-21.673-8.929-21.673-8.929,8.493,18.3,18.784,14.063,21.586,12.453-.1,3.214-.289,6.631-.581,10.135-5.9-12.548-27.082-9.233-27.082-9.233,9.063,19.149,21.541,17.276,26.432,15.616-.34,2.789-.754,5.589-1.264,8.347,0,0,1.923-.078,2.563,0,.589-3.218,1.04-6.491,1.379-9.734,3.829,1.691,14.825,4.335,22.6-16.01C436.5,155.59,420.372,152.631,414.537,163.357Z" transform="translate(-384.787 -110.142)" fill="#fda929"/>
            </g>
            <path id="Path_262990" data-name="Path 262990" d="M401.431,192.5l5.725,22.206h16.21l4.6-22.206Z" transform="translate(-387.909 -125.592)" fill="#32436b"/>
            <path id="Path_262991" data-name="Path 262991" d="M421.686,192.5a34.342,34.342,0,0,1-.186,5.67c-.423,3.506-1.759,7.253-4.6,9.532a9.66,9.66,0,0,1-4.674,2.059c-1.5.26-3.59.345-4.9,1.32l.934,3.624h16.211l4.6-22.206Z" transform="translate(-389.015 -125.592)" fill="#232743"/>
          </g>
        </g>
        <path id="Path_262992" data-name="Path 262992" d="M507.142,422.946c2.174-8.121,10.5-9.864,17.33-12.6,6.895-2.761,14.265-4.774,20.61-8.729a35.767,35.767,0,0,0,11.809-11.788c-.01-.214-.141-.278-.4-.2" transform="translate(-407.74 -162.567)" fill="none" stroke="#2e4369" stroke-miterlimit="10" stroke-width="0.5"/>
        <path id="Path_262993" data-name="Path 262993" d="M533.892,432.627c.576-2.28.919-4.337,2.483-6.346,2.388-3.066,6.3-4.787,9.7-6.45,10.764-5.264,15.974-11.563,15.03-12.186" transform="translate(-412.758 -165.951)" fill="none" stroke="#2e4369" stroke-miterlimit="10" stroke-width="0.5"/>
      </g>
      <g id="Group_151127" data-name="Group 151127" transform="translate(127.139 180.944)">
        <g id="Group_151114" data-name="Group 151114" transform="translate(36.7 57.429)">
          <path id="Path_262994" data-name="Path 262994" d="M278.184,289.842c25.428,31.062,28.174,77.467,57.567,104.807l-12.418,11.972c-.914.882-1.981,1.823-3.25,1.766a4.655,4.655,0,0,1-2.5-1.215c-17.052-13.2-31.616-30.072-39.964-49.953s-10.1-42.9-2.593-63.115c.644-1.73,2.039-3.8,3.155-4.262" transform="translate(-190.689 -279.89)" fill="#232743"/>
          <g id="Group_151113" data-name="Group 151113">
            <path id="Path_262995" data-name="Path 262995" d="M217.183,277.592c-14.77,1.452-45.2,12.208-41.076,49.642,1.12,10.136,6.594,48.533-2.577,75.667-.834,2.461-1.757,5.2-.827,7.6a8.2,8.2,0,0,0,3.692,3.8c5.8,3.5,12.565,4.649,19.17,5.673,24.723,3.829,50.453,6.658,74.408-1.443a5.652,5.652,0,0,0,3.345-2.2,6.688,6.688,0,0,0,.476-3.838q-3.837-52.267-7.675-104.531c-.412-5.6-.877-11.407-3.444-16.274-3.017-5.715-8.621-9.4-14.5-11.224s-12.09-1.994-18.222-2.155c-5.857-.153-11.712-.3-12.769-.712" transform="translate(-172.313 -277.592)" fill="#32436b"/>
            <path id="Path_262996" data-name="Path 262996" d="M262.79,416.567c-4.78,1.059-9.664,2.406-14.591,2.406a18.606,18.606,0,0,1-11.417-3.483,12.043,12.043,0,0,1-2.016-2,25.953,25.953,0,0,1-1.961-2.505c-1.093-1.8-1.782-3.814-3.148-5.439-4.843-5.766-12.908-7.626-17.475-13.683a8.812,8.812,0,0,1-1.431-2.461,15.066,15.066,0,0,1-.686-3.251,18.421,18.421,0,0,1,.606-6.544,32.231,32.231,0,0,1,6.917-12.178c2.93-3.474,6.156-6.7,8.8-10.42a19.459,19.459,0,0,0,3.35-6.2c.507-2.071.561-4.779-.952-6.447a6.874,6.874,0,0,0-4.775-1.83,16.935,16.935,0,0,0-5.675.6c-3.531,1-8.356,1.458-11.216-1.376s-1.893-7.7-.5-10.971c.834-1.96,1.72-3.922,2.651-5.837a55.949,55.949,0,0,1,3.347-5.976,35.522,35.522,0,0,1,9.011-9.736c3.917-2.787,8.265-4.595,12.669-6.429a59.453,59.453,0,0,0,6.364-2.986,25.567,25.567,0,0,0,5.46-4.282c2.51-2.531,4.586-5.741,4.939-9.276l0,0c-.024-.311-.028-.622-.037-.933,0-.067-.013-.13-.023-.2-.059-.425-.124-.854-.179-1.282-.082-.641-.145-1.284-.211-1.926-.057-.236-.124-.476-.187-.711-.719-.257-1.466-.506-2.252-.751-5.879-1.821-12.09-1.994-18.222-2.155-5.857-.153-11.712-.3-12.769-.712-14.77,1.452-45.2,12.208-41.073,49.642,1.117,10.135,6.588,48.533-2.582,75.667-.833,2.461-1.756,5.2-.825,7.6a8.211,8.211,0,0,0,3.692,3.8c5.8,3.5,12.565,4.648,19.17,5.671,24.723,3.829,50.453,6.658,74.408-1.443a5.647,5.647,0,0,0,3.345-2.2,3.843,3.843,0,0,0,.414-1.137c-1.207-.007-2.417.035-3.621.133a53.478,53.478,0,0,0-7.321,1.245" transform="translate(-172.313 -277.592)" fill="#232743"/>
            <g id="Group_151112" data-name="Group 151112" transform="translate(45.644 28.125)">
              <path id="Path_262997" data-name="Path 262997" d="M232.524,339.991c.946-3.814,4.294-6.558,7.812-8.241s7.366-2.6,10.842-4.375a24.83,24.83,0,0,0,12.393-15.164" transform="translate(-229.252 -312.211)" fill="none" stroke="#232743" stroke-miterlimit="10" stroke-width="0.5"/>
              <path id="Path_262998" data-name="Path 262998" d="M228.5,401.771c-.131-3.987,2.235-7.672,5.166-10.348s6.445-4.6,9.605-6.993c7.23-5.472,12.384-13.215,17.394-20.808" transform="translate(-228.497 -321.855)" fill="none" stroke="#232743" stroke-miterlimit="10" stroke-width="0.5"/>
              <path id="Path_262999" data-name="Path 262999" d="M251.809,345.855a109.457,109.457,0,0,0,14.417-16.875" transform="translate(-232.87 -315.357)" fill="none" stroke="#232743" stroke-miterlimit="10" stroke-width="0.5"/>
            </g>
          </g>
        </g>
        <g id="Group_151118" data-name="Group 151118" transform="translate(67.981)">
          <path id="Path_263000" data-name="Path 263000" d="M240.389,210.451c-4.974-1.228-9.712-2.343-14.808,2.277-7.157,6.494-8.272,14.256-6.468,23.264a7.543,7.543,0,0,1-1.235,5.414c-1.037,1.6-2.87,2.454-4.348,3.656-1.863,1.515-3.249,4-2.514,6.3a13.044,13.044,0,0,1,1.072,2.9c.076,1.135-.606,2.181-.735,3.308a5.165,5.165,0,0,0,.659,2.886,9.868,9.868,0,0,0,6.585,5.087c1.389.3,2.824.295,4.231.488,3.816.527,7.662,2.528,11.335,1.379,3.1-.969,5.152-4.011,6.04-7.142s.857-6.438,1.2-9.679,1.166-6.6,3.392-8.967c.78-.831,1.711-1.512,2.436-2.393a8.6,8.6,0,0,0,1.669-6.4,16.74,16.74,0,0,0-2.3-6.355c-2.019-3.53-2.085-15.009-6.212-16.027" transform="translate(-210.816 -207.366)" fill="#bb535d"/>
          <path id="Path_263001" data-name="Path 263001" d="M227.684,275.177a22.428,22.428,0,0,0,3.869,2.58,23.065,23.065,0,0,0,10.927,2.582,22.131,22.131,0,0,0,7.59-1.533,284.119,284.119,0,0,1,1.722-33.963,154.858,154.858,0,0,1-19.874-7.876c1.22,13.01,2.239,26.843-4.234,38.21" transform="translate(-213.981 -212.542)" fill="#ffb299"/>
          <path id="Path_263002" data-name="Path 263002" d="M239.262,256.742c1.037,7.458,12.739,13.741,13.316,9.127.684-5.5-9.587-4.741-13.316-9.127" transform="translate(-216.153 -216.252)" fill="#ff7478"/>
          <g id="Group_151117" data-name="Group 151117" transform="translate(11.947)">
            <path id="Path_263003" data-name="Path 263003" d="M242.692,221.9c-3.579,1.835-7.308,8.663-8.05,12.5-1.737,9.009-.128,12.845,6.5,19.411a16.212,16.212,0,0,0,7.4,4.528c5.056,1.219,10.559-1.326,13.639-5.384s4.021-9.333,3.68-14.352a23.969,23.969,0,0,0-5.983-14.851c-3.764-4.012-9.614-6.376-15.112-5.313-1.963.378-1.308,3.071-2.072,3.46" transform="translate(-227.111 -209.019)" fill="#ffb299"/>
            <path id="Path_263004" data-name="Path 263004" d="M235.828,239.815c-2.215-1.092-3.223-3.789-5.78-4.032-2.425-.232-4.106,2.012-4.422,4a9.722,9.722,0,0,0,3.89,9.034,3.3,3.3,0,0,0,1.4.722,3.375,3.375,0,0,0,2.566-.825c3-2.288,3.718-6.347,2.345-8.9" transform="translate(-225.522 -212.317)" fill="#ffb299"/>
            <g id="Group_151115" data-name="Group 151115" transform="translate(15.129 23.6)">
              <path id="Path_263005" data-name="Path 263005" d="M245.1,238.96a6.2,6.2,0,0,1,3.224-1.918,7.1,7.1,0,0,1,4.034.292,1.068,1.068,0,0,0-.911-1.323c-2.617-.352-5.534.89-6.348,2.949" transform="translate(-244.324 -235.952)" fill="#232743"/>
              <path id="Path_263006" data-name="Path 263006" d="M248.283,239.611a1.059,1.059,0,1,1,.913,1.19,1.065,1.065,0,0,1-.913-1.19" transform="translate(-244.92 -236.466)" fill="#232743"/>
              <path id="Path_263007" data-name="Path 263007" d="M262.515,239.611a1.051,1.051,0,0,1,1.187-.906,1.057,1.057,0,1,1-1.187.906" transform="translate(-247.59 -236.466)" fill="#232743"/>
              <path id="Path_263008" data-name="Path 263008" d="M261.49,236.461a1.211,1.211,0,0,0,.207.964,4.943,4.943,0,0,1,2.774-.426,14.821,14.821,0,0,1,2.765.656,14.1,14.1,0,0,0-3.285-1.4,2.634,2.634,0,0,0-2.462.209" transform="translate(-247.394 -235.971)" fill="#232743"/>
              <path id="Path_263009" data-name="Path 263009" d="M258.712,238.858a6.374,6.374,0,0,0,1.719,3.922,7.176,7.176,0,0,1,1.535,1.79,2.342,2.342,0,0,1-1.311,3.048c-.976.338-2.042-.026-3.077-.03" transform="translate(-246.665 -236.497)" fill="none" stroke="#bb535d" stroke-miterlimit="10" stroke-width="0.5"/>
              <path id="Path_263010" data-name="Path 263010" d="M253.1,252.908a8.459,8.459,0,0,0,4.513,2.282,5.294,5.294,0,0,0,4.655-1.6" transform="translate(-245.825 -239.133)" fill="none" stroke="#bb535d" stroke-miterlimit="10" stroke-width="1"/>
              <path id="Path_263011" data-name="Path 263011" d="M244.166,246.251a2.583,2.583,0,0,1,2.962-2.161,2.54,2.54,0,1,1-2.962,2.161" transform="translate(-244.145 -237.474)" fill="#ff7478"/>
              <path id="Path_263012" data-name="Path 263012" d="M266.373,246.2a2.055,2.055,0,0,1,2.357-1.711,2.076,2.076,0,0,1,1.839,2.276,2.054,2.054,0,0,1-2.357,1.709,2.075,2.075,0,0,1-1.839-2.274" transform="translate(-248.312 -237.549)" fill="#ff7478"/>
            </g>
            <g id="Group_151116" data-name="Group 151116" transform="translate(5.188)">
              <path id="Path_263013" data-name="Path 263013" d="M235.137,221.009a6.02,6.02,0,0,0,5.276,1.1c1.822-.524,3.414-1.6,5.18-2.279s3.921-.911,5.472.18c1.675,1.176,2.136,3.507,3.813,4.679,1.866,1.3,4.678.777,6.405,2.253,2.2,1.882,1.162,5.638,3.026,7.834,1.3,1.534,3.676,1.808,5.634,1.294a9.779,9.779,0,0,0,6.921-7.734,12.416,12.416,0,0,0-3.165-10.108,18.412,18.412,0,0,0-9.573-5.437,23.469,23.469,0,0,1-3.054-.792c-2.408-.924-4.19-2.973-6.5-4.105-3.706-1.815-8.311-.981-11.76,1.176s-11.069,9.334-7.672,11.936" transform="translate(-232.354 -206.902)" fill="#bb535d"/>
              <path id="Path_263014" data-name="Path 263014" d="M235.2,222.3a14.448,14.448,0,0,0-3.125,6.588A10.291,10.291,0,0,0,233.321,236a7.791,7.791,0,0,1,1.567,3.08c.149,1.488-.929,2.875-.854,4.37a2.917,2.917,0,0,0,2.323,2.653c-1.275-1.273-.725-3.48.23-5.016s2.271-3.008,2.333-4.818c.071-2.18-1.739-4.22-1.233-6.339.217-.9.839-1.677,1.016-2.59a3.776,3.776,0,0,0-.928-3.037,9.015,9.015,0,0,0-2.58-2" transform="translate(-231.908 -209.791)" fill="#bb535d"/>
            </g>
          </g>
        </g>
        <g id="Group_151119" data-name="Group 151119" transform="translate(72.743 54.972)">
          <path id="Path_263015" data-name="Path 263015" d="M228.875,274.568c-4.312.786-6.13,2.289-12.2,4,3.215,1.553,6.3,9.546,8.582,12.309s5.564,5.329,9.064,4.662c.947-3.792,3.339-6.15,6.709-8.074a21.687,21.687,0,0,1-11.248-7.372,7.362,7.362,0,0,1-.912-5.525" transform="translate(-216.679 -274.568)" fill="#fff"/>
          <path id="Path_263016" data-name="Path 263016" d="M253.726,277.895c-.287,5.879-1.089,7.289-3.851,8.93-.881.525-2.5.681-3.259,1.264-.216.165-.263-.062,0,0a53.521,53.521,0,0,1,9.947,4.045,22.726,22.726,0,0,1,4.731-11.8,39.514,39.514,0,0,0-7.569-2.437" transform="translate(-222.261 -275.192)" fill="#fff"/>
        </g>
        <g id="Group_151126" data-name="Group 151126" transform="translate(0 66.482)">
          <g id="Group_151121" data-name="Group 151121" transform="translate(26.343 56.936)">
            <path id="Path_263017" data-name="Path 263017" d="M160.878,399.39l36.086-39.007a4.842,4.842,0,0,1,6.889-.241l26.013,24.528a4.953,4.953,0,0,1,.232,6.953l-36.09,39.009a4.842,4.842,0,0,1-6.888.243l-26.013-24.53a4.953,4.953,0,0,1-.23-6.954" transform="translate(-159.564 -358.819)" fill="#448e61"/>
            <path id="Path_263018" data-name="Path 263018" d="M161.352,403.876l39.21-42.382,29.048,27.389L190.4,431.266Z" transform="translate(-159.899 -359.321)" fill="#fff"/>
            <path id="Path_263019" data-name="Path 263019" d="M213.705,372.883l4.568-4.94L233.715,382.5l-4.571,4.938Z" transform="translate(-169.72 -360.53)" fill="#bddbbb"/>
            <g id="Group_151120" data-name="Group 151120" transform="translate(11.115 10.742)">
              <path id="Path_263020" data-name="Path 263020" d="M203.41,372.49l.415-.449,25.907,24.429-.415.449Z" transform="translate(-178.905 -372.041)" fill="#bac9e7"/>
              <path id="Path_263021" data-name="Path 263021" d="M201.492,374.564l.416-.449,25.906,24.429-.415.448Z" transform="translate(-178.545 -372.43)" fill="#bac9e7"/>
              <path id="Path_263022" data-name="Path 263022" d="M199.673,376.531l.418-.447L226,400.509l-.416.452Z" transform="translate(-178.204 -372.8)" fill="#bac9e7"/>
              <path id="Path_263023" data-name="Path 263023" d="M192.993,383.754l.414-.449,25.907,24.428-.417.447Z" transform="translate(-176.95 -374.154)" fill="#bac9e7"/>
              <path id="Path_263024" data-name="Path 263024" d="M191.072,385.828l.417-.451L217.395,409.8l-.415.449Z" transform="translate(-176.59 -374.543)" fill="#bac9e7"/>
              <path id="Path_263025" data-name="Path 263025" d="M189.256,387.792l.417-.451,25.9,24.429-.414.447Z" transform="translate(-176.249 -374.911)" fill="#bac9e7"/>
              <path id="Path_263026" data-name="Path 263026" d="M186.905,389.848l.413-.447,25.908,24.426-.417.451Z" transform="translate(-175.808 -375.298)" fill="#bac9e7"/>
              <path id="Path_263027" data-name="Path 263027" d="M184.985,391.922l.417-.447L211.309,415.9l-.414.449Z" transform="translate(-175.448 -375.687)" fill="#bac9e7"/>
              <path id="Path_263028" data-name="Path 263028" d="M183.169,393.889l.415-.447,25.907,24.426-.415.448Z" transform="translate(-175.108 -376.056)" fill="#bac9e7"/>
              <path id="Path_263029" data-name="Path 263029" d="M173.246,404.759l1.767-1.909,24.736,23.323-1.764,1.909Z" transform="translate(-173.246 -377.821)" fill="#bac9e7"/>
              <path id="Path_263030" data-name="Path 263030" d="M180.14,397.387l1.457-1.572,6.061,5.715L186.2,403.1Z" transform="translate(-174.539 -376.501)" fill="#bac9e7"/>
              <path id="Path_263031" data-name="Path 263031" d="M192.963,432.151l1.683-1.817,5.2,4.9-1.682,1.817Z" transform="translate(-176.945 -382.976)" fill="#bac9e7"/>
            </g>
          </g>
          <g id="Group_151125" data-name="Group 151125">
            <path id="Path_263032" data-name="Path 263032" d="M179.4,435.621a26.3,26.3,0,0,1,4.9,6.177c.772,1.35,7.388,8.643,12.994,7.3.82-.2.82-.2,1.361-1.029.676-1.035-.483-1.139-1.38-2.412,1.118,1.587,3.145,1.582,4.767.471,1.32-.9.972-2.717-.537-3.454a3.7,3.7,0,0,0,3.9-1.214c.838-.877.27-4.473-.434-5.455s-1.371,1.422-1.841.808c-.151-.2-3.144-1.523.052-1.669a13.291,13.291,0,0,0,1.568-.278c2.338-.388,7.067-4.246,5.508-5.571-2.631-2.238-13.449.178-17.734-2.553a4,4,0,0,0-1.726-.781,3.644,3.644,0,0,0-2.62,1.3c-3.03,2.791-6.059,5.587-8.783,8.364" transform="translate(-136.942 -314.476)" fill="#ffb299"/>
            <g id="Group_151124" data-name="Group 151124">
              <path id="Path_263033" data-name="Path 263033" d="M184.77,288.741c-6.951-.222-11.853,6.376-16.628,11.472a434.092,434.092,0,0,0-31.159,37.19c-4.832,6.468-9.676,13.623-9.84,21.717-.128,6.2,2.545,12.1,5.592,17.494a115.02,115.02,0,0,0,36.4,39.105A73.418,73.418,0,0,1,187.5,399.032a124.609,124.609,0,0,0-27.025-39.272,71.664,71.664,0,0,0,31.088-45.071c.987-4.671,1.492-9.573.283-14.185a24,24,0,0,0-6.222-10.511Z" transform="translate(-127.139 -288.735)" fill="#32436b"/>
              <g id="Group_151122" data-name="Group 151122" transform="translate(27.045 63.464)">
                <path id="Path_263034" data-name="Path 263034" d="M160.429,376.827a9.737,9.737,0,0,0,4.89-.013" transform="translate(-160.429 -368.722)" fill="none" stroke="#232743" stroke-miterlimit="10" stroke-width="0.5"/>
                <path id="Path_263035" data-name="Path 263035" d="M161.784,372.213a7.846,7.846,0,0,0,3.789,2.661" transform="translate(-160.683 -367.859)" fill="none" stroke="#232743" stroke-miterlimit="10" stroke-width="0.5"/>
                <path id="Path_263036" data-name="Path 263036" d="M162.63,366.854c.611,2.459,2.22,4.528,3.79,6.511" transform="translate(-160.842 -366.854)" fill="none" stroke="#232743" stroke-miterlimit="10" stroke-width="0.5"/>
              </g>
              <g id="Group_151123" data-name="Group 151123" transform="translate(38.863 107.151)">
                <path id="Path_263037" data-name="Path 263037" d="M174.976,437.675c4.039-7.662,11.6-12.7,19.051-17.046" transform="translate(-174.976 -420.629)" fill="none" stroke="#232743" stroke-miterlimit="10" stroke-width="0.5"/>
                <line id="Line_846" data-name="Line 846" x2="2.239" y2="2.234" transform="translate(2.239 14.952)" fill="none" stroke="#232743" stroke-miterlimit="10" stroke-width="0.5"/>
                <path id="Path_263038" data-name="Path 263038" d="M179.281,436.691c.9.852,1.782,1.739,2.621,2.655" transform="translate(-175.784 -423.642)" fill="none" stroke="#232743" stroke-miterlimit="10" stroke-width="0.5"/>
                <path id="Path_263039" data-name="Path 263039" d="M181.794,434.373q1.359,1.2,2.617,2.494" transform="translate(-176.255 -423.207)" fill="none" stroke="#232743" stroke-miterlimit="10" stroke-width="0.5"/>
                <path id="Path_263040" data-name="Path 263040" d="M184.459,431.57c.964.779,1.548,2.046,2.681,2.542" transform="translate(-176.755 -422.681)" fill="none" stroke="#232743" stroke-miterlimit="10" stroke-width="0.5"/>
                <path id="Path_263041" data-name="Path 263041" d="M187.9,428.434a24.71,24.71,0,0,1,2.075,2.649" transform="translate(-177.401 -422.093)" fill="none" stroke="#232743" stroke-miterlimit="10" stroke-width="0.5"/>
                <line id="Line_847" data-name="Line 847" x2="1.853" y2="2.84" transform="translate(13.108 4.521)" fill="none" stroke="#232743" stroke-miterlimit="10" stroke-width="0.5"/>
                <path id="Path_263042" data-name="Path 263042" d="M194.239,424.309q.786,1.227,1.57,2.456" transform="translate(-178.59 -421.319)" fill="none" stroke="#232743" stroke-miterlimit="10" stroke-width="0.5"/>
                <path id="Path_263043" data-name="Path 263043" d="M196.883,422.406c.505.821,1.05,1.619,1.634,2.387" transform="translate(-179.086 -420.962)" fill="none" stroke="#232743" stroke-miterlimit="10" stroke-width="0.5"/>
              </g>
              <path id="Path_263044" data-name="Path 263044" d="M166.54,403.065c-5.7-2.354-10.211-5.8-13.189-11.272-1.356-2.494-2.51-5.134-4.094-7.5a27,27,0,0,0-6.485-6.434,16.624,16.624,0,0,1-6.5-12.834c-.4-9.505,4.039-17.332,10.116-24.282,3.056-3.5,6.328-6.815,9.207-10.466a45.885,45.885,0,0,0,7.561-14.571c1.947-5.84,5.718-9.994,9.7-14.561,3.752-4.308,7.574-8.6,12.734-11.21l-.816-1.2c-6.951-.222-11.853,6.376-16.628,11.472a434.092,434.092,0,0,0-31.159,37.19c-4.832,6.468-9.676,13.623-9.84,21.717-.128,6.2,2.545,12.1,5.592,17.494a115.02,115.02,0,0,0,36.4,39.105,73.5,73.5,0,0,1,7.936-8.619C173.621,405.634,170,404.495,166.54,403.065Z" transform="translate(-127.139 -288.735)" fill="#232743"/>
            </g>
          </g>
        </g>
      </g>
      <g id="Group_151139" data-name="Group 151139" transform="translate(229.246 217.282)">
        <g id="Group_151130" data-name="Group 151130" transform="translate(14.927 57.832)">
          <g id="Group_151128" data-name="Group 151128">
            <path id="Path_263045" data-name="Path 263045" d="M318.115,323.608a114.726,114.726,0,0,0-27.6,8.659c-4.345,1.993-8.7,4.375-11.605,8.17-3.168,4.142-4.246,9.473-5.051,14.622a222.648,222.648,0,0,0-.326,66.506c.295,2.014.751,4.248,2.426,5.4a7.581,7.581,0,0,0,3.9.972c37.06,2.423,74.322,4.844,111.276,1.18-9.7-24.011-3.389-51.1-3.923-76.986-.072-3.415-.294-6.935-1.821-9.99-2.938-5.876-9.781-8.473-16.013-10.56-17.4-5.828-35.873-10.734-51.26-7.972" transform="translate(-271.198 -322.817)" fill="#fff"/>
            <path id="Path_263046" data-name="Path 263046" d="M386.232,408.149c-.958-.529-1.96-.967-2.965-1.4a24.215,24.215,0,0,0-4.254-1.374,47.2,47.2,0,0,0-8.894-1c-6.032-.218-12.076-.127-17.944-1.771-16.359-4.58-18.6-10.8-31.294-33.427-1.261-2.247-3.571-4.227-3.793-6.874a6.127,6.127,0,0,1,1.188-4.035,5.749,5.749,0,0,1,1.361-1.257c.543-.409,1.044-.873,1.593-1.28a21.657,21.657,0,0,1,15.792-4.3c3.1.448,6.381,1.445,9.523.776,2.9-.616,5.279-3.065,7.07-5.285a40.3,40.3,0,0,0,4.9-8.232,45.517,45.517,0,0,0,3.076-8.89s.006-.007.006-.011c.02-.23.05-.457.091-.679-15.048-4.623-30.432-7.858-43.569-5.5a114.762,114.762,0,0,0-27.6,8.659c-4.343,1.993-8.7,4.375-11.6,8.17-3.168,4.142-4.246,9.473-5.049,14.622a222.623,222.623,0,0,0-.328,66.506c.3,2.014.752,4.245,2.425,5.4a7.593,7.593,0,0,0,3.9.972c37.058,2.423,74.32,4.844,111.275,1.18a74.917,74.917,0,0,1-4.9-20.968" transform="translate(-271.198 -322.818)" fill="#bac9e7"/>
          </g>
          <path id="Path_263047" data-name="Path 263047" d="M346.525,346.443q5.041,29.788,10.084,59.57" transform="translate(-285.329 -327.249)" fill="none" stroke="#2e4369" stroke-miterlimit="10" stroke-width="1"/>
          <g id="Group_151129" data-name="Group 151129" transform="translate(37.065 27.213)">
            <path id="Path_263048" data-name="Path 263048" d="M316.822,373.488c.751,3.328,3.182,6.058,5.84,8.282s5.627,4.1,8.028,6.578c3.165,3.268,5.183,7.4,7.152,11.463" transform="translate(-316.822 -359.536)" fill="none" stroke="#2e4369" stroke-miterlimit="10" stroke-width="0.5"/>
            <path id="Path_263049" data-name="Path 263049" d="M319.433,396.289A80.629,80.629,0,0,0,331.2,407.724" transform="translate(-317.312 -363.813)" fill="none" stroke="#2e4369" stroke-miterlimit="10" stroke-width="0.5"/>
            <path id="Path_263050" data-name="Path 263050" d="M365.894,389.959c2.525,7.017,8.871,11.991,15.155,16.226" transform="translate(-326.028 -362.626)" fill="none" stroke="#2e4369" stroke-miterlimit="10" stroke-width="0.5"/>
            <path id="Path_263051" data-name="Path 263051" d="M375.844,356.314a53.414,53.414,0,0,1,8.935,15.978,7.277,7.277,0,0,0,1.617,3.052" transform="translate(-327.894 -356.314)" fill="none" stroke="#2e4369" stroke-miterlimit="10" stroke-width="0.5"/>
          </g>
        </g>
        <g id="Group_151131" data-name="Group 151131" transform="translate(122.344 73.093)">
          <path id="Path_263052" data-name="Path 263052" d="M407.449,341.6a141.813,141.813,0,0,0-3.882,40.05,32.531,32.531,0,0,0,1.289,8.678c1.3,3.965,3.919,7.361,6.56,10.612a276.923,276.923,0,0,0,21.927,23.96,15.288,15.288,0,0,0,4.561,3.415,12.473,12.473,0,0,0,5,.766c10.572-.157,21.3-6.177,31.233-2.6-4.871-10.3-9.777-20.664-16.383-29.969-4.809-6.776-10.471-12.914-16.11-19.029q-12.264-13.3-24.529-26.589a73.553,73.553,0,0,0-9.662-9.293" transform="translate(-403.418 -341.602)" fill="#fff"/>
          <path id="Path_263053" data-name="Path 263053" d="M452.949,427.17c-3.081-2.63-5.052-6.263-6.945-9.759-.964-1.777-1.921-3.564-3.031-5.255a16.988,16.988,0,0,0-3.71-4.3,24.66,24.66,0,0,0-5.878-2.835,49.5,49.5,0,0,1-5.914-2.561,15.045,15.045,0,0,1-7.538-9.88c-1.042-4.333-.629-8.837-.565-13.241.039-2.63.17-5.247.079-7.879a81.093,81.093,0,0,0-.671-8.254,79.074,79.074,0,0,0-3.306-14.086,62.25,62.25,0,0,0-8.021-7.52,141.722,141.722,0,0,0-3.88,40.05,32.43,32.43,0,0,0,1.287,8.678c1.3,3.965,3.919,7.361,6.56,10.612a276.923,276.923,0,0,0,21.927,23.96,15.288,15.288,0,0,0,4.561,3.415,12.44,12.44,0,0,0,5,.766,52.567,52.567,0,0,0,10.56-1.533c-.167-.132-.351-.242-.511-.38" transform="translate(-403.418 -341.602)" fill="#bac9e7"/>
        </g>
        <g id="Group_151132" data-name="Group 151132" transform="translate(44.231)">
          <path id="Path_263054" data-name="Path 263054" d="M327.972,308.381q.58,11.706,1.161,23.41a2.317,2.317,0,0,0,.246,1.122,3.478,3.478,0,0,0,1.295,1.044c3.172,1.831,7.165,1.909,10.521,4.025,2.705,1.7,5.26-.341,7.685-1.132a8.839,8.839,0,0,0,3.582-1.89c1.484-1.517,1.262-3.6.973-5.477q-1.7-11.055-3.409-22.108a124.7,124.7,0,0,0-22.054,1.006" transform="translate(-311.153 -262.061)" fill="#ff9c6e"/>
          <path id="Path_263055" data-name="Path 263055" d="M330.971,267.66c-3.6.516-6.49,3.4-7.888,6.691s-1.548,6.947-1.5,10.509c.082,6.8.909,13.933,4.85,19.541s11.822,9.047,18.1,6.126a14.3,14.3,0,0,0,5.827-5.309c3.178-4.932,3.818-10.979,4.379-16.782.469-4.845.851-10.079-1.736-14.233-2.229-3.579-6.369-5.7-10.586-6.434a38.714,38.714,0,0,0-11.437-.11" transform="translate(-309.952 -254.568)" fill="#ff9c6e"/>
          <path id="Path_263056" data-name="Path 263056" d="M330.811,286.426a4.31,4.31,0,0,0-3.826,2.583,10.581,10.581,0,0,1,7.668-.6.948.948,0,0,0-.184-1.2,2.224,2.224,0,0,0-1.137-.444,16.921,16.921,0,0,0-2.522-.344" transform="translate(-310.968 -258.158)" fill="#232743"/>
          <path id="Path_263057" data-name="Path 263057" d="M345.584,285.552a8.311,8.311,0,0,0-1.4.674.684.684,0,0,0-.412.511c-.023.44.566.518.959.44l2.431-.508a6.593,6.593,0,0,1,3.595-.068,2.533,2.533,0,0,0,1.533.343,1.8,1.8,0,0,0-1.038-1.375,4.562,4.562,0,0,0-1.672-.341,10.108,10.108,0,0,0-4,.324" transform="translate(-314.117 -257.924)" fill="#232743"/>
          <path id="Path_263058" data-name="Path 263058" d="M331.553,290.737a1.21,1.21,0,1,1,1.208,1.184,1.2,1.2,0,0,1-1.208-1.184" transform="translate(-311.824 -258.745)" fill="#232743"/>
          <path id="Path_263059" data-name="Path 263059" d="M347.2,290.714a1.283,1.283,0,1,1,1.279,1.165,1.224,1.224,0,0,1-1.279-1.165" transform="translate(-314.759 -258.745)" fill="#232743"/>
          <path id="Path_263060" data-name="Path 263060" d="M339.408,288.277a10.5,10.5,0,0,1-1.876,6.263,7.153,7.153,0,0,0-1.491,2.648c-.172,1,.565,2.229,1.6,2.1" transform="translate(-312.662 -258.506)" fill="none" stroke="#bb535d" stroke-miterlimit="10" stroke-width="0.5"/>
          <path id="Path_263061" data-name="Path 263061" d="M332.533,305.008a10.414,10.414,0,0,0,11.564-.154,7.566,7.566,0,0,1-1.858,3.646,5.053,5.053,0,0,1-3.749,1.593,5.692,5.692,0,0,1-3.7-1.836,15.484,15.484,0,0,1-2.257-3.25" transform="translate(-312.008 -261.615)" fill="#fff"/>
          <path id="Path_263062" data-name="Path 263062" d="M320.4,259.515c-11.648-.459-15.015,6.972-12.184,15.229,2.426,7.082,10.779,7.137,13.778,4.137,1.626-1.625,4.034-4.936,5.654-6.556,3.65-3.648,8.216-5.654,12.222-3.179a20.878,20.878,0,0,0,3.257,2.062c1.917.734,4.164.168,5.98,1.142,2.7,1.447,3.1,8.053,3.057,11.249,6.024,0,5.815-7.179,5.815-12.21,0-3.851.754-6.386-2.756-10.725-.738-.912-1.769-5.6-6.97-5.6-6.773,0-6.207-3.841-14.234-3.4-10.1.554-5.764,8.161-13.62,7.849" transform="translate(-307.269 -251.631)" fill="#232743"/>
          <path id="Path_263063" data-name="Path 263063" d="M359.946,292.487a15.11,15.11,0,0,1,2.133-4.825,3.859,3.859,0,0,1,2.126-1.782,3.249,3.249,0,0,1,3.112,1,4.409,4.409,0,0,1,.971,2.815,9.835,9.835,0,0,1-3.241,7.478,3.907,3.907,0,0,1-3.541,1.242c-1.641-.491-1.784-2.352-1.629-3.8.136-1.293.275-2.583.07-2.133" transform="translate(-317.129 -258.04)" fill="#ff9c6e"/>
          <path id="Path_263064" data-name="Path 263064" d="M329.142,314.311a14.83,14.83,0,0,0,10.715,4.584,15.447,15.447,0,0,0,10.766-4.538,12.973,12.973,0,0,1-10.868,5.985,12.486,12.486,0,0,1-10.613-6.031" transform="translate(-311.372 -263.389)" fill="#bb535d"/>
        </g>
        <g id="Group_151133" data-name="Group 151133" transform="translate(49.716 56.444)">
          <path id="Path_263065" data-name="Path 263065" d="M325.8,322.82c-2.734,1.117-8.053,1.192-10.781,2.312a1.308,1.308,0,0,0-.909,1.885,78.331,78.331,0,0,0,3.871,14.208,26.312,26.312,0,0,0,8.718,11.652A31.178,31.178,0,0,1,340.9,341.7c-7.83-4.355-14.627-9.785-15.1-18.882" transform="translate(-314.02 -321.43)" fill="#fff"/>
          <path id="Path_263066" data-name="Path 263066" d="M347.36,341.347c6.751-4.2,9.071-12.375,7.877-20.238,6.366,1.029,9.023,2.639,15.074,5.273-3.752,8.113-4.707,14.792-10.1,21.922-.385.511-.9,1.072-1.533.976a1.9,1.9,0,0,1-1.072-.824,24.42,24.42,0,0,0-10.249-7.109" transform="translate(-320.274 -321.109)" fill="#fff"/>
        </g>
        <g id="Group_151137" data-name="Group 151137" transform="translate(0 70.32)">
          <g id="Group_151135" data-name="Group 151135" transform="translate(94.168 66.554)">
            <path id="Path_263067" data-name="Path 263067" d="M369.71,425.248c17.418,2.78,35.416-8.69,52.3-3.994a5.309,5.309,0,0,1,3.08,1.752c-3.974,4.9-11.155,1.915-15.835,2.883,3.26-.241,4.485,3.666,3.283,5.4-.751,1.087-2.2,1.771-2.653,2.983a6.59,6.59,0,0,0-.212,1.848c-.3,4.047-4.9,6.942-9.434,7.539s-9.109-.474-13.645-1.076a66.751,66.751,0,0,0-14.786-.3,2.522,2.522,0,0,1-1.956-.349,1.807,1.807,0,0,1-.431-1,37.714,37.714,0,0,1,.289-15.689" transform="translate(-368.737 -420.111)" fill="#ff9c6e"/>
            <g id="Group_151134" data-name="Group 151134" transform="translate(4.993 3.589)">
              <path id="Path_263068" data-name="Path 263068" d="M378.11,426.535q.554.947,1.1,1.9" transform="translate(-375.488 -424.905)" fill="none" stroke="#2e4369" stroke-miterlimit="10" stroke-width="1"/>
              <path id="Path_263069" data-name="Path 263069" d="M376.563,426.935c-2.08,5.216-1.726,16.29,1.3,16.6,0,0,3.456.09,3.425-.258-.48-5.638-1.392-10.233.862-16.745-1.607.151-4.3.2-5.591.408" transform="translate(-374.952 -424.904)" fill="#32436b"/>
              <path id="Path_263070" data-name="Path 263070" d="M374.883,428.139a3.878,3.878,0,1,1,3.869,3.613,3.746,3.746,0,0,1-3.869-3.613" transform="translate(-374.883 -424.529)" fill="#232743"/>
              <path id="Path_263071" data-name="Path 263071" d="M375.838,428.13a3.1,3.1,0,1,1,3.093,2.966,3.029,3.029,0,0,1-3.093-2.966" transform="translate(-375.062 -424.648)" fill="#fff"/>
              <path id="Path_263072" data-name="Path 263072" d="M380.123,426.434a14.235,14.235,0,0,1-.867,2.381c.011,0-.072-.05-.061-.05l-1.487-1.557" transform="translate(-375.413 -424.886)" fill="none" stroke="#2e4369" stroke-linecap="round" stroke-miterlimit="10" stroke-width="0.5"/>
              <path id="Path_263073" data-name="Path 263073" d="M377.434,427.055a11.564,11.564,0,0,1,1.635,1.569l.137.091" transform="translate(-375.362 -425.003)" fill="none" stroke="#2e4369" stroke-miterlimit="10" stroke-width="0.5"/>
            </g>
          </g>
          <g id="Group_151136" data-name="Group 151136">
            <path id="Path_263074" data-name="Path 263074" d="M270.187,345.439c-28.24,25.462-15.411,69.12-7.344,79.566,2.8,3.619,8.127,5.5,12.621,6.373,33.323,6.446,47.377,3.445,69.12-.916a7.925,7.925,0,0,0,2.4-.57c2.577-1.449,1.689-5.263,1.037-8.148a21.382,21.382,0,0,1,1.986-14.655c-16-4.246-33.226-2.066-49.118-6.71a7.191,7.191,0,0,1-2.58-1.167c-1.929-1.574-1.865-4.488-1.659-6.969.833-9.962,1.166-20.17-1.625-29.769s-4.031-20.593-13.322-24.284c0,0-7.6,3.722-11.517,7.25" transform="translate(-252.824 -338.189)" fill="#fff"/>
            <path id="Path_263075" data-name="Path 263075" d="M352.994,421.555A40.174,40.174,0,0,0,346.6,435.9c-.146.653,5.758,2.759,9.473,2.675,2.636-.06,5.4-1.177,6.742-3.449" transform="translate(-270.415 -353.828)" fill="none" stroke="#2e4369" stroke-miterlimit="10" stroke-width="1"/>
            <path id="Path_263076" data-name="Path 263076" d="M347.787,443.912a11.33,11.33,0,0,0,.319,7.3" transform="translate(-270.553 -358.022)" fill="none" stroke="#2e4369" stroke-miterlimit="10" stroke-width="1"/>
            <path id="Path_263077" data-name="Path 263077" d="M356.821,433.657a1.484,1.484,0,1,1,1.485,1.483,1.485,1.485,0,0,1-1.485-1.483" transform="translate(-272.333 -355.819)" fill="#32436b"/>
            <path id="Path_263078" data-name="Path 263078" d="M301.119,413.285a24.585,24.585,0,0,0-13.358,4.592" transform="translate(-259.378 -352.276)" fill="none" stroke="#2e4369" stroke-miterlimit="10" stroke-width="0.7"/>
            <path id="Path_263079" data-name="Path 263079" d="M305.186,415.225a21.769,21.769,0,0,0-9.644,7.71" transform="translate(-260.838 -352.64)" fill="none" stroke="#2e4369" stroke-miterlimit="10" stroke-width="0.7"/>
            <path id="Path_263080" data-name="Path 263080" d="M308.167,417.146a16.239,16.239,0,0,0-5.125,5.251" transform="translate(-262.245 -353.001)" fill="none" stroke="#2e4369" stroke-miterlimit="10" stroke-width="0.7"/>
          </g>
        </g>
        <g id="Group_151138" data-name="Group 151138" transform="translate(88.278 91.493)">
          <path id="Path_263081" data-name="Path 263081" d="M435.289,376.571l-15.978,63.417,84.37-.481,16.034-60.6a9.058,9.058,0,0,0-8.26-11.362l-59.462-3.274a16.3,16.3,0,0,0-16.7,12.3" transform="translate(-372.334 -364.25)" fill="#32436b"/>
          <path id="Path_263082" data-name="Path 263082" d="M498.129,435.55c-2.383-1.561-4.887-2.945-7.115-4.734a11.9,11.9,0,0,1-2.754-3.005c-.712-1.142-1.3-2.356-1.9-3.559-1.163-2.313-2.392-4.514-4.584-6a15.405,15.405,0,0,0-6.7-2.349c-1.292-.17-2.579-.165-3.875-.225-1.571-.076-3.134-.235-4.708-.278a53.547,53.547,0,0,1-9.361-.717,14.884,14.884,0,0,1-6.09-3.073,10.4,10.4,0,0,1-3.537-5.177,17.1,17.1,0,0,1-.485-3.567,12.2,12.2,0,0,1,.835-4.269,20.415,20.415,0,0,1,.705-2.089c.248-.576.5-1.145.765-1.717q.852-1.86,1.805-3.667a68.2,68.2,0,0,1,4.115-6.837A54.074,54.074,0,0,1,465.9,372.631a43.454,43.454,0,0,1,12.111-6.923l-26.017-1.433a16.3,16.3,0,0,0-16.7,12.3l-15.978,63.417,82.645-.469a13.635,13.635,0,0,0-3.826-3.969" transform="translate(-372.334 -364.25)" fill="#232743"/>
          <rect id="Rectangle_294319" data-name="Rectangle 294319" width="49.004" height="5.663" transform="translate(0 70.075)" fill="#32436b"/>
          <path id="Path_263083" data-name="Path 263083" d="M494.933,390.811s-5.13,1.635-6.533,4.925.919,7.618,2.734,7.031a6.72,6.72,0,0,0,4.1-4.363c.752-2.193-.3-7.592-.3-7.592" transform="translate(-385.214 -369.233)" fill="#20cb7d"/>
          <path id="Path_263084" data-name="Path 263084" d="M506.546,405.185s-3.346-2.972-7.119-2.529-7.369,4.029-6.173,5.074,3.293,1.452,5.749,1.025,7.542-3.571,7.542-3.571" transform="translate(-386.161 -371.447)" fill="#20cb7d"/>
          <path id="Path_263085" data-name="Path 263085" d="M477.659,400.481s.756,4.189,3.376,5.859,6.6.722,6.324-.763a6,6,0,0,0-3.2-3.912c-1.773-.977-6.5-1.184-6.5-1.184" transform="translate(-383.279 -371.047)" fill="#20cb7d"/>
          <path id="Path_263086" data-name="Path 263086" d="M512.611,373.715q6.584.29,13.147.906a5.17,5.17,0,0,1,3.311,1.119,4.3,4.3,0,0,1,.949,3.281,23.739,23.739,0,0,1-1.111,5.468q-2.814,9.8-5.625,19.6" transform="translate(-389.836 -366.026)" fill="none" stroke="#232743" stroke-miterlimit="10" stroke-width="1"/>
        </g>
      </g>
    </g>
  </g>
</svg>
