<svg xmlns="http://www.w3.org/2000/svg" width="180" height="180" viewBox="0 0 180 180">
  <g id="_10" data-name="10" transform="translate(-12807 -1760.74)">
    <circle id="Ellipse_6215" data-name="Ellipse 6215" cx="90" cy="90" r="90" transform="translate(12807 1760.74)" fill="#fff"/>
    <g id="capacitacion" transform="translate(12822 1774.011)">
      <g id="Group_158164" data-name="Group 158164" transform="translate(2.212 2.212)">
        <path id="Path_266755" data-name="Path 266755" d="M47.5,34.7H173.865v97.787H47.5Z" transform="translate(-35.704 -26.682)" fill="#f5f8f9"/>
        <path id="Path_266756" data-name="Path 266756" d="M36,34.7h6.783v97.789H36Z" transform="translate(-27.595 -26.679)" fill="#e8edf2"/>
        <path id="Path_266757" data-name="Path 266757" d="M154.361,17.822H24.457l-12.973-.481a1.475,1.475,0,0,1-1.475-1.475l.684-6.186a1.475,1.475,0,0,1,1.475-1.475L24.457,7.5h129.9a1.475,1.475,0,0,1,1.474,1.475v7.373A1.474,1.474,0,0,1,154.361,17.822Z" transform="translate(-9.27 -7.5)" fill="#20cb7d"/>
        <path id="Path_266758" data-name="Path 266758" d="M161.338,367.347H35.415l-8.279-.977a1.475,1.475,0,0,1-1.475-1.475l-.111-4.095a1.475,1.475,0,0,1,1.475-1.475l8.39-.826H161.338a1.475,1.475,0,0,1,1.475,1.475v5.9A1.474,1.474,0,0,1,161.338,367.347Z" transform="translate(-20.228 -254.99)" fill="#20cb7d"/>
        <path id="Path_266759" data-name="Path 266759" d="M22.687,7.5V17.822H8.975A1.475,1.475,0,0,1,7.5,16.347V8.975A1.475,1.475,0,0,1,8.975,7.5Z" transform="translate(-7.5 -7.5)" fill="#20cb7d"/>
        <path id="Path_266760" data-name="Path 266760" d="M32.206,358.5v8.847H22.475A1.475,1.475,0,0,1,21,365.872v-5.9a1.475,1.475,0,0,1,1.475-1.474Z" transform="translate(-17.019 -254.99)" fill="#20cb7d"/>
        <g id="Group_158162" data-name="Group 158162" transform="translate(44.776 48.104)">
          <path id="Path_266761" data-name="Path 266761" d="M281.745,339.03v18.629a10.3,10.3,0,0,1-5.874,9.3l-2.087-.273-2.33,1.267v10.616a1.179,1.179,0,0,1-1.18,1.18H255.941l-2.017-1.489-2.407,1.489H241.344l-4.322-.712a1.179,1.179,0,0,1-1.18-1.18l-1.089-30.59c0-.245-.149-.278-.531-.373a.579.579,0,0,0-.536.02l-21.817,12.153a5.9,5.9,0,0,1-6.753-.714c-3.878-3.391-10.693-9.357-16.535-14.465V337.18l6.768-1.53,12.7,9.626a.588.588,0,0,0,.7.009L226.607,332.5a23.584,23.584,0,0,1,10.782-4.223L243,327.57l.027.071c2.989,3.85,5.627,6.9,10.693,6.9,4.937,0,6.4-2.22,10.584-6.543l10.557,2.4A8.849,8.849,0,0,1,281.745,339.03Z" transform="translate(-179.955 -281.285)" fill="#fda929"/>
          <path id="Path_266762" data-name="Path 266762" d="M350.472,398.313v27.632h-5.6a1.18,1.18,0,0,1-1.18-1.18V393.624a.587.587,0,0,0-.339-.534l2.446.183A5.054,5.054,0,0,1,350.472,398.313Z" transform="translate(-289.084 -327.484)" fill="#ca8720"/>
          <path id="Path_266763" data-name="Path 266763" d="M174.727,339.056l-6.768,8.237c-2.619-2.294-5.04-4.415-6.915-6.054a5.013,5.013,0,0,1-.445-7.1l.08-.091a4.849,4.849,0,0,1,6.576-.661Z" transform="translate(-159.334 -284.691)" fill="#ffd8a1"/>
          <path id="Path_266764" data-name="Path 266764" d="M394.414,302.194a11.142,11.142,0,0,1-21.277-.36l-.027-.071,2.327-.292a2.96,2.96,0,0,0,2.58-2.937l1.19-7.564h9.076l1.53,7.4v.419a2.949,2.949,0,0,0,2.294,2.875Z" transform="translate(-310.068 -255.479)" fill="#ffd8a1"/>
          <path id="Path_266765" data-name="Path 266765" d="M377.249,171.7a13.342,13.342,0,0,0-10.978.208,1.146,1.146,0,0,1-1.005,0,11.939,11.939,0,0,0-2.049-.778c-3.446-.311-5.877-.114-8.606,1.127a11.7,11.7,0,0,0-7.133,11.281l.194,8.694V199.6c0,3.258,2.515,4.9,5.773,4.9l9.27,1h16.323a5.9,5.9,0,0,0,5.9-5.9v-16.07a12.949,12.949,0,0,0-7.688-11.833Z" transform="translate(-291.994 -170.62)" fill="#a6764a"/>
          <path id="Path_266766" data-name="Path 266766" d="M365.146,205.506H350.4a5.9,5.9,0,0,1-5.9-5.9V183.539a12.954,12.954,0,0,1,7.688-11.834,13.393,13.393,0,0,1,8.93-.572,11.425,11.425,0,0,0-1.557.572,12.954,12.954,0,0,0-7.688,11.834v8.694a13.27,13.27,0,0,0,13.273,13.273Z" transform="translate(-289.895 -170.625)" fill="#926540"/>
          <path id="Path_266767" data-name="Path 266767" d="M401.546,290.97v7.4a8.29,8.29,0,0,1-11.8.159V290.97Z" transform="translate(-321.8 -255.479)" fill="#fac78c"/>
          <path id="Path_266768" data-name="Path 266768" d="M393.093,214.464a.586.586,0,0,0-.554-.587,11.46,11.46,0,0,1-8.772-4.787l-.417-.584a6.8,6.8,0,0,0-5.45-2.875,8.332,8.332,0,0,0-8.4,8.259v5.1a16.572,16.572,0,0,0,9,14.742.6.6,0,0,1,.243.237,3,3,0,0,0,5.107-.009.594.594,0,0,1,.235-.224,16.573,16.573,0,0,0,9.007-14.746Z" transform="translate(-307.523 -195.306)" fill="#ffd8a1"/>
        </g>
        <path id="Path_266769" data-name="Path 266769" d="M185.676,83.642H86.59a.59.59,0,0,1-.59-.59V75.09a.59.59,0,0,1,.59-.59h99.087a.59.59,0,0,1,.59.59v7.962A.59.59,0,0,1,185.676,83.642Z" transform="translate(-62.85 -54.742)" fill="#fda929"/>
        <g id="Group_158163" data-name="Group 158163" transform="translate(63.109 59.865)">
          <path id="Path_266770" data-name="Path 266770" d="M230.642,220.822H222.68a1.18,1.18,0,0,1-1.18-1.18V211.68a1.18,1.18,0,0,1,1.18-1.18h7.962a1.18,1.18,0,0,1,1.18,1.18v7.962A1.179,1.179,0,0,1,230.642,220.822Z" transform="translate(-221.5 -210.5)" fill="#7453d8"/>
          <path id="Path_266771" data-name="Path 266771" d="M230.642,285.822H222.68a1.18,1.18,0,0,1-1.18-1.18V276.68a1.18,1.18,0,0,1,1.18-1.18h7.962a1.18,1.18,0,0,1,1.18,1.18v7.962A1.179,1.179,0,0,1,230.642,285.822Z" transform="translate(-221.5 -256.331)" fill="#7453d8"/>
        </g>
      </g>
      <g id="Group_158165" data-name="Group 158165">
        <path id="Path_266772" data-name="Path 266772" d="M142.142,14.745H147.3a3.69,3.69,0,0,0,3.686-3.686V3.686A3.69,3.69,0,0,0,147.3,0H3.686A3.69,3.69,0,0,0,0,3.686v7.373a3.69,3.69,0,0,0,3.686,3.686H8.847V58.026a2.212,2.212,0,1,0,4.424,0V14.745H42.528a2.212,2.212,0,0,0,0-4.424H4.424v-5.9H146.566v5.9H52.85a2.212,2.212,0,1,0,0,4.424h84.869V52.529a15.142,15.142,0,0,0-16.957-3.124,15.156,15.156,0,0,0-14.62,1.2,2.212,2.212,0,0,0,2.451,3.683,10.811,10.811,0,0,1,1.587-.873,10.694,10.694,0,0,1,9.16.208l.434.217a2.209,2.209,0,0,0,1.978,0l.434-.217a10.733,10.733,0,0,1,15.533,9.6V79.3a3.691,3.691,0,0,1-3.686,3.688H132.5A18.783,18.783,0,0,0,134.77,74V68.9a2.212,2.212,0,0,0-2.212-2.212,9.266,9.266,0,0,1-7.526-3.875l-.456-.638a8.962,8.962,0,0,0-7.279-3.747A10.58,10.58,0,0,0,106.754,68.9V74a18.782,18.782,0,0,0,2.272,8.989h-1.535A3.691,3.691,0,0,1,103.8,79.3V63.23a10.758,10.758,0,0,1,.171-1.913,2.212,2.212,0,0,0-4.353-.787,15.221,15.221,0,0,0-.242,2.7V79.3a8.12,8.12,0,0,0,8.11,8.112h4.878c.117.114.237.226.357.338v5.636a.738.738,0,0,1-.645.731l-7.935,1a25.884,25.884,0,0,0-11.793,4.618l-4.868,3.483H64.11L56.245,97.25a7.087,7.087,0,0,0-7.173-.8L35.566,71.35a2.212,2.212,0,1,0-3.9,2.1L45.71,99.54a7.179,7.179,0,0,0-.933,3.675H13.271V68.348a2.212,2.212,0,0,0-4.424,0v34.867H7.667A3.69,3.69,0,0,0,3.981,106.9v5.9a3.69,3.69,0,0,0,3.686,3.686H56.336l14.355,12.561a8.064,8.064,0,0,0,2.591,1.52v6.017a7.373,7.373,0,1,0,4.424,0v-5.71a8.063,8.063,0,0,0,2.272-.846l19.4-10.81v29.56a2.212,2.212,0,1,0,4.424,0V115.454a2.212,2.212,0,0,0-3.288-1.932L77.826,126.163a3.694,3.694,0,0,1-4.221-.446l-14.92-13.055,4.054-4.936,11.345,8.6a2.21,2.21,0,0,0,2.624.036l18.22-13.039A21.443,21.443,0,0,1,104.7,99.5l4.4-.554a12.969,12.969,0,0,0,9.452,7.744v19.966a2.212,2.212,0,1,0,4.424,0V106.7a12.448,12.448,0,0,0,9.259-7.2l9.17,2.086a6.6,6.6,0,0,1,5.163,6.47v18.63a8.093,8.093,0,0,1-5.869,7.77v-13.7a2.212,2.212,0,1,0-4.424,0v28.016a2.212,2.212,0,1,0,4.424,0V139a12.524,12.524,0,0,0,10.292-12.308v-18.63a11.124,11.124,0,0,0-8.847-10.838ZM75.495,146.566a2.949,2.949,0,1,1,2.949-2.949A2.952,2.952,0,0,1,75.495,146.566ZM8.4,112.062v-4.424H46.385a7.281,7.281,0,0,0,.854.888l4.041,3.536Zm46.949-2.314-5.2-4.551a2.771,2.771,0,0,1-.947-1.917,2.963,2.963,0,0,1,.706-2.056,2.817,2.817,0,0,1,3.66-.45l5.64,4.278Zm20.1,2.073-5.516-4.183H81.3ZM117.3,62.852a4.529,4.529,0,0,1,3.679,1.894l.456.638a13.7,13.7,0,0,0,8.914,5.546V74a14.283,14.283,0,0,1-7.936,12.844h0a3.7,3.7,0,0,1-3.3,0A14.282,14.282,0,0,1,111.177,74V68.919a6.139,6.139,0,0,1,6.119-6.067Zm3.454,39.622a8.4,8.4,0,0,1-7.05-4.228,5.17,5.17,0,0,0,3.448-4.864V90.8a8.115,8.115,0,0,0,3.613.845,8.934,8.934,0,0,0,3.76-.921v2.9a5.128,5.128,0,0,0,3.281,4.8,8.226,8.226,0,0,1-7.052,4.04Zm8.767-8.125a.733.733,0,0,1-.574-.719V87.608c.07-.066.14-.131.209-.2h4.878a8.057,8.057,0,0,0,3.686-.89v9.7Z"/>
        <path id="Path_266773" data-name="Path 266773" d="M404.212,456.995A2.212,2.212,0,0,0,402,459.207v11.65a2.212,2.212,0,0,0,4.424,0v-11.65A2.212,2.212,0,0,0,404.212,456.995Z" transform="translate(-283.45 -322.227)"/>
        <path id="Path_266774" data-name="Path 266774" d="M183.19,78.354V69.212A2.212,2.212,0,0,0,180.978,67H80.712A2.212,2.212,0,0,0,78.5,69.212v9.142a2.212,2.212,0,0,0,2.212,2.212H180.978A2.212,2.212,0,0,0,183.19,78.354Zm-4.424-2.212H82.924V71.424h95.843Z" transform="translate(-55.35 -47.242)"/>
        <path id="Path_266775" data-name="Path 266775" d="M131.345,133H81.212a2.212,2.212,0,1,0,0,4.424h50.133a2.212,2.212,0,0,0,0-4.424Z" transform="translate(-55.703 -93.778)"/>
        <path id="Path_266776" data-name="Path 266776" d="M131.345,168H81.212a2.212,2.212,0,1,0,0,4.424h50.133a2.212,2.212,0,0,0,0-4.424Z" transform="translate(-55.703 -118.457)"/>
        <path id="Path_266777" data-name="Path 266777" d="M228.745,205.212A2.212,2.212,0,0,0,226.533,203H216.212A2.212,2.212,0,0,0,214,205.212v10.322a2.212,2.212,0,0,0,2.212,2.212h10.322a2.212,2.212,0,0,0,2.212-2.212Zm-4.424,8.11h-5.9v-5.9h5.9Z" transform="translate(-150.891 -143.135)"/>
        <path id="Path_266778" data-name="Path 266778" d="M226.533,268H216.212A2.212,2.212,0,0,0,214,270.212v10.322a2.212,2.212,0,0,0,2.212,2.212h10.322a2.212,2.212,0,0,0,2.212-2.212V270.212A2.212,2.212,0,0,0,226.533,268Zm-2.212,10.322h-5.9v-5.9h5.9Z" transform="translate(-150.891 -188.967)"/>
        <path id="Path_266779" data-name="Path 266779" d="M158.3,238h-9.584a2.212,2.212,0,1,0,0,4.424H158.3a2.212,2.212,0,1,0,0-4.424Z" transform="translate(-103.297 -167.814)"/>
        <path id="Path_266780" data-name="Path 266780" d="M110.7,203H81.212a2.212,2.212,0,1,0,0,4.424H110.7a2.212,2.212,0,0,0,0-4.424Z" transform="translate(-55.703 -143.135)"/>
      </g>
    </g>
  </g>
</svg>
