<svg xmlns="http://www.w3.org/2000/svg" width="180.177" height="180" viewBox="0 0 180.177 180">
  <g id="_10" data-name="10" transform="translate(-715.999 -3867.816)">
    <circle id="Ellipse_6160" data-name="Ellipse 6160" cx="90" cy="90" r="90" transform="translate(716.176 3867.816)" fill="#fff"/>
    <g id="Group_156708" data-name="Group 156708" transform="translate(2560.369 4219.597)">
      <g id="Group_156705" data-name="Group 156705" transform="translate(-1844.37 -326.045)">
        <g id="Group_156694" data-name="Group 156694" transform="translate(41.914 2.822)">
          <path id="Path_265088" data-name="Path 265088" d="M-1731.565-315.185c0,.818-.505,1.489-1.124,1.489h-81.925c-.618,0-1.123-.67-1.123-1.489v-7.444c0-.82.505-1.489,1.123-1.489h81.925c.619,0,1.124.669,1.124,1.489Z" transform="translate(1815.737 324.117)" fill="#ffb800"/>
          <path id="Path_265089" data-name="Path 265089" d="M-1815.737-319.229v1.777c0,.818.505,1.489,1.123,1.489h81.925c.619,0,1.124-.67,1.124-1.489v-1.777Z" transform="translate(1815.737 326.384)" fill="#f58908"/>
          <path id="Path_265090" data-name="Path 265090" d="M-1731.621-323.018a1.234,1.234,0,0,0-1.082-1.1h-81.925a1.234,1.234,0,0,0-1.08,1.1Z" transform="translate(1815.751 324.117)" fill="#ffb800" style="mix-blend-mode: screen;isolation: isolate"/>
        </g>
        <path id="Path_265650" data-name="Path 265650" d="M0,0H150.641V96.88H0Z" transform="translate(8.679 19.233)" fill="#29398a"/>
        <g id="Group_156696" data-name="Group 156696" transform="translate(20.953)">
          <path id="Path_265091" data-name="Path 265091" d="M-1817.464-314.595a.677.677,0,0,1-.707.706h-11.179a.674.674,0,0,1-.7-.706q.367-5.373.735-10.745a.741.741,0,0,1,.7-.706h9.716a.744.744,0,0,1,.7.706Q-1817.832-319.966-1817.464-314.595Z" transform="translate(1830.056 326.045)" fill="#1fa8de"/>
          <g id="Group_156695" data-name="Group 156695" transform="translate(0.824)">
            <path id="Path_265092" data-name="Path 265092" d="M-1829.147-325.741h10.251a.717.717,0,0,1,.347.1.712.712,0,0,0-.613-.4h-9.716a.71.71,0,0,0-.615.4A.708.708,0,0,1-1829.147-325.741Z" transform="translate(1829.493 326.045)" fill="#b3b4b5" style="mix-blend-mode: screen;isolation: isolate"/>
          </g>
          <path id="Path_265093" data-name="Path 265093" d="M-1828.716-313.889h2.7q.1-6.078.212-12.156h-2.346Q-1828.429-319.967-1828.716-313.889Z" transform="translate(1830.678 326.045)" fill="#acafb0" opacity="0.69" style="mix-blend-mode: screen;isolation: isolate"/>
          <path id="Path_265094" data-name="Path 265094" d="M-1821.155-326.045h-4.042q.064,6.078.126,12.156h4.646a.676.676,0,0,0,.707-.706q-.369-5.373-.735-10.745A.744.744,0,0,0-1821.155-326.045Z" transform="translate(1832.31 326.045)" fill="#75bad9" style="mix-blend-mode: multiply;isolation: isolate"/>
          <path id="Path_265095" data-name="Path 265095" d="M-1822.134-326.045h-.954q.3,6.078.588,12.156h1.1a.676.676,0,0,0,.707-.706q-.369-5.373-.735-10.745A.744.744,0,0,0-1822.134-326.045Z" transform="translate(1833.288 326.045)" fill="#acafb0" opacity="0.75" style="mix-blend-mode: screen;isolation: isolate"/>
          <path id="Path_265096" data-name="Path 265096" d="M-1828.664-326.041a.744.744,0,0,0-.656.7q-.371,5.373-.735,10.745a.668.668,0,0,0,.653.7Q-1829.031-319.967-1828.664-326.041Z" transform="translate(1830.056 326.047)" fill="#818384" opacity="0.51" style="mix-blend-mode: multiply;isolation: isolate"/>
        </g>
        <g id="Group_156698" data-name="Group 156698" transform="translate(136.313)">
          <path id="Path_265097" data-name="Path 265097" d="M-1738.661-314.595a.674.674,0,0,1-.7.706h-11.178a.676.676,0,0,1-.707-.706q.367-5.373.733-10.745a.745.745,0,0,1,.706-.706h9.714a.741.741,0,0,1,.7.706Q-1739.027-319.966-1738.661-314.595Z" transform="translate(1751.251 326.045)" fill="#d70012"/>
          <g id="Group_156697" data-name="Group 156697" transform="translate(0.826)">
            <path id="Path_265098" data-name="Path 265098" d="M-1750.342-325.741h10.252a.717.717,0,0,1,.347.1.713.713,0,0,0-.615-.4h-9.714a.707.707,0,0,0-.615.4A.707.707,0,0,1-1750.342-325.741Z" transform="translate(1750.687 326.045)" fill="#b3b4b5" style="mix-blend-mode: screen;isolation: isolate"/>
          </g>
          <path id="Path_265099" data-name="Path 265099" d="M-1749.91-313.889h2.7q.107-6.078.215-12.156h-2.348Q-1749.628-319.967-1749.91-313.889Z" transform="translate(1751.873 326.045)" fill="#acafb0" opacity="0.69" style="mix-blend-mode: screen;isolation: isolate"/>
          <path id="Path_265100" data-name="Path 265100" d="M-1742.351-326.045h-4.039q.059,6.078.123,12.156h4.648a.674.674,0,0,0,.7-.706q-.365-5.373-.733-10.745A.741.741,0,0,0-1742.351-326.045Z" transform="translate(1753.506 326.045)" fill="#75bad9" style="mix-blend-mode: multiply;isolation: isolate"/>
          <path id="Path_265101" data-name="Path 265101" d="M-1743.33-326.045h-.952q.292,6.078.586,12.156h1.1a.674.674,0,0,0,.7-.706q-.365-5.373-.733-10.745A.741.741,0,0,0-1743.33-326.045Z" transform="translate(1754.484 326.045)" fill="#acafb0" opacity="0.75" style="mix-blend-mode: screen;isolation: isolate"/>
          <path id="Path_265102" data-name="Path 265102" d="M-1749.857-326.041a.748.748,0,0,0-.659.7q-.367,5.373-.733,10.745a.67.67,0,0,0,.654.7Q-1750.229-319.967-1749.857-326.041Z" transform="translate(1751.251 326.047)" fill="#818384" opacity="0.51" style="mix-blend-mode: multiply;isolation: isolate"/>
        </g>
        <path id="Path_265103" data-name="Path 265103" d="M-1709.9-312.907c7.094,7.912,11.089,17.723,11.089,29.68,0,31.548,1.681,57.121-106.959,57.121a194.174,194.174,0,0,1-32.667-2.717v12.8H-1687.8v-96.881Z" transform="translate(1847.12 332.139)" fill="#29398a" opacity="0.23" style="mix-blend-mode: multiply;isolation: isolate"/>
        <path id="Rectangle_294632" data-name="Rectangle 294632" d="M1.53,0H102.088a1.531,1.531,0,0,1,1.531,1.531V65.109a1.531,1.531,0,0,1-1.531,1.531H1.53A1.53,1.53,0,0,1,0,65.11V1.53A1.53,1.53,0,0,1,1.53,0Z" transform="translate(32.19 34.353)" fill="#29398a"/>
        <path id="Path_265104" data-name="Path 265104" d="M-1821.139-236.939V-299.1a2.246,2.246,0,0,1,2.238-2.241h99.141a2.231,2.231,0,0,1,.833.165,2.248,2.248,0,0,0-2.074-1.405h-99.138a2.248,2.248,0,0,0-2.241,2.241v62.16a2.243,2.243,0,0,0,1.407,2.074A2.206,2.206,0,0,1-1821.139-236.939Z" transform="translate(1854.57 336.93)" fill="#141212"/>
        <path id="Path_265105" data-name="Path 265105" d="M-1719.556-302.181a2.188,2.188,0,0,1,.133.729v62.16a2.248,2.248,0,0,1-2.241,2.241h-99.14a2.231,2.231,0,0,1-1.486-.578,2.243,2.243,0,0,0,2.108,1.508h99.138a2.247,2.247,0,0,0,2.24-2.24v-62.16A2.227,2.227,0,0,0-1719.556-302.181Z" transform="translate(1854.613 337.114)" fill="#352f2c"/>
        <rect id="Rectangle_294633" data-name="Rectangle 294633" width="155.518" height="4.307" transform="translate(5.588 114.214)" fill="#322d2a"/>
        <rect id="Rectangle_294634" data-name="Rectangle 294634" width="155.518" height="11.954" transform="translate(5.588 116.573)" fill="#29398a"/>
        <g id="Group_156699" data-name="Group 156699" transform="translate(0 9.153)">
          <path id="Rectangle_294635" data-name="Rectangle 294635" d="M1.531,0h164.94A1.53,1.53,0,0,1,168,1.53V14.151a1.53,1.53,0,0,1-1.53,1.53H1.531A1.531,1.531,0,0,1,0,14.149V1.531A1.531,1.531,0,0,1,1.531,0Z" transform="translate(0)" fill="#ffb800"/>
          <path id="Path_265106" data-name="Path 265106" d="M-1844.37-312.437v2.672a2.248,2.248,0,0,0,2.24,2.241h163.52a2.249,2.249,0,0,0,2.241-2.241v-2.672Z" transform="translate(1844.37 323.204)" fill="#f58908"/>
          <path id="Path_265107" data-name="Path 265107" d="M-1676.485-318.138a2.247,2.247,0,0,0-2.154-1.654h-163.52a2.243,2.243,0,0,0-2.152,1.654Z" transform="translate(1844.398 319.793)" fill="#ffb800" style="mix-blend-mode: screen;isolation: isolate"/>
        </g>
        <g id="Group_156704" data-name="Group 156704" transform="translate(21.241 26.66)">
          <g id="Group_156700" data-name="Group 156700">
            <path id="Path_265108" data-name="Path 265108" d="M-1806.493-305.595a2.235,2.235,0,0,1-2.237,2.235h-18.894a2.236,2.236,0,0,1-2.237-2.235h0a2.237,2.237,0,0,1,2.237-2.238h18.894a2.236,2.236,0,0,1,2.237,2.238Z" transform="translate(1829.86 307.833)" fill="#1b1917"/>
            <path id="Path_265109" data-name="Path 265109" d="M-1829.523-305.113a2.236,2.236,0,0,1,2.237-2.237h18.894a2.225,2.225,0,0,1,1.634.716,2.229,2.229,0,0,0-1.971-1.2h-18.894a2.237,2.237,0,0,0-2.237,2.238,2.226,2.226,0,0,0,.6,1.518A2.213,2.213,0,0,1-1829.523-305.113Z" transform="translate(1829.86 307.833)" fill="#141212"/>
          </g>
          <g id="Group_156701" data-name="Group 156701" transform="translate(33.786)">
            <path id="Path_265110" data-name="Path 265110" d="M-1783.411-305.595a2.236,2.236,0,0,1-2.237,2.235h-18.894a2.238,2.238,0,0,1-2.238-2.235h0a2.238,2.238,0,0,1,2.238-2.238h18.894a2.237,2.237,0,0,1,2.237,2.238Z" transform="translate(1806.78 307.833)" fill="#1b1917"/>
            <path id="Path_265111" data-name="Path 265111" d="M-1806.442-305.113a2.237,2.237,0,0,1,2.235-2.237h18.9a2.233,2.233,0,0,1,1.635.716,2.235,2.235,0,0,0-1.972-1.2h-18.894a2.238,2.238,0,0,0-2.238,2.238,2.228,2.228,0,0,0,.6,1.518A2.213,2.213,0,0,1-1806.442-305.113Z" transform="translate(1806.78 307.833)" fill="#141212"/>
          </g>
          <g id="Group_156702" data-name="Group 156702" transform="translate(67.572)">
            <path id="Path_265112" data-name="Path 265112" d="M-1760.331-305.595a2.235,2.235,0,0,1-2.237,2.235h-18.9a2.237,2.237,0,0,1-2.235-2.235h0a2.237,2.237,0,0,1,2.235-2.238h18.9a2.236,2.236,0,0,1,2.237,2.238Z" transform="translate(1783.7 307.833)" fill="#1b1917"/>
            <path id="Path_265113" data-name="Path 265113" d="M-1783.363-305.113a2.238,2.238,0,0,1,2.24-2.237h18.894a2.23,2.23,0,0,1,1.634.716,2.232,2.232,0,0,0-1.972-1.2h-18.9a2.237,2.237,0,0,0-2.235,2.238,2.241,2.241,0,0,0,.6,1.518A2.248,2.248,0,0,1-1783.363-305.113Z" transform="translate(1783.7 307.833)" fill="#141212"/>
          </g>
          <g id="Group_156703" data-name="Group 156703" transform="translate(101.359)">
            <path id="Path_265114" data-name="Path 265114" d="M-1737.253-305.595a2.234,2.234,0,0,1-2.235,2.235h-18.9a2.236,2.236,0,0,1-2.235-2.235h0a2.237,2.237,0,0,1,2.235-2.238h18.9a2.235,2.235,0,0,1,2.235,2.238Z" transform="translate(1760.619 307.833)" fill="#1b1917"/>
            <path id="Path_265115" data-name="Path 265115" d="M-1760.282-305.113a2.237,2.237,0,0,1,2.238-2.237h18.894a2.23,2.23,0,0,1,1.634.716,2.231,2.231,0,0,0-1.971-1.2h-18.9a2.237,2.237,0,0,0-2.235,2.238,2.234,2.234,0,0,0,.6,1.518A2.231,2.231,0,0,1-1760.282-305.113Z" transform="translate(1760.619 307.833)" fill="#141212"/>
          </g>
        </g>
      </g>
      <g id="Group_156707" data-name="Group 156707" transform="translate(-1781.099 -280.866)">
        <path id="Path_265116" data-name="Path 265116" d="M-1789.865-264.21a11.611,11.611,0,0,1-1.426-.884l-1.375,9.124,6.955-5.842c-.2-.126-.925-.577-1.5-.968,3.294-6.456,6.17-12.7,9.288-19.184-3.535,1.11-6.757,1.765-10.552,2.831,3.56-4.973,6.9-9.8,10.307-14.772q-3.133-.641-6.261-1.278c-3.619,7.328-7.656,15.561-11.16,22.309,3.528-1.454,8.212-3.1,10.938-4.329C-1786.258-272.911-1788.327-267.979-1789.865-264.21Z" transform="translate(1803.726 295.182)" fill="#ffb800" fill-rule="evenodd"/>
        <g id="Group_156706" data-name="Group 156706" transform="translate(0 1.146)">
          <path id="Path_265117" data-name="Path 265117" d="M-1787.113-259.657a17.567,17.567,0,0,1-13.678-20.7,17.567,17.567,0,0,1,20.7-13.68,17.568,17.568,0,0,1,13.68,20.7A17.569,17.569,0,0,1-1787.113-259.657Zm6.8-33.287a16.444,16.444,0,0,0-19.383,12.806,16.444,16.444,0,0,0,12.806,19.383,16.444,16.444,0,0,0,19.383-12.806A16.443,16.443,0,0,0-1780.31-292.944Z" transform="translate(1801.148 294.399)" fill="#ffb800"/>
        </g>
      </g>
    </g>
  </g>
</svg>
