<svg xmlns="http://www.w3.org/2000/svg" width="190" height="235.833" viewBox="0 0 190 235.833">
  <g id="_12" data-name="12" transform="translate(-162.993 -33.045)">
    <g id="Background_Complete" data-name="Background Complete" transform="translate(235.005 176.965)">
      <g id="Group_157683" data-name="Group 157683">
        <g id="Group_157621" data-name="Group 157621" transform="translate(0 20.678)">
          <g id="Group_157620" data-name="Group 157620">
            <g id="Group_157556" data-name="Group 157556">
              <g id="Group_157555" data-name="Group 157555">
                <g id="Group_157554" data-name="Group 157554">
                  <g id="Group_157553" data-name="Group 157553">
                    <g id="Group_157552" data-name="Group 157552">
                      <rect id="Rectangle_295745" data-name="Rectangle 295745" width="94.824" height="43.732" fill="#f5f5f5"/>
                    </g>
                  </g>
                </g>
              </g>
            </g>
            <g id="Group_157561" data-name="Group 157561" transform="translate(2.17 2.301)">
              <g id="Group_157560" data-name="Group 157560">
                <g id="Group_157559" data-name="Group 157559">
                  <g id="Group_157558" data-name="Group 157558">
                    <g id="Group_157557" data-name="Group 157557">
                      <path id="Path_266566" data-name="Path 266566" d="M334.175,387.086h-90.4V347.717h90.4Zm-89.806-.59h89.217v-38.19H244.368Z" transform="translate(-243.778 -347.717)" fill="#e0e0e0"/>
                    </g>
                  </g>
                </g>
              </g>
            </g>
            <g id="Group_157566" data-name="Group 157566" transform="translate(94.824)">
              <g id="Group_157565" data-name="Group 157565">
                <g id="Group_157564" data-name="Group 157564">
                  <g id="Group_157563" data-name="Group 157563">
                    <g id="Group_157562" data-name="Group 157562">
                      <rect id="Rectangle_295746" data-name="Rectangle 295746" width="23.165" height="43.732" fill="#e0e0e0"/>
                    </g>
                  </g>
                </g>
              </g>
            </g>
            <g id="Group_157572" data-name="Group 157572" transform="translate(2.35 14.247)">
              <g id="Group_157571" data-name="Group 157571">
                <g id="Group_157570" data-name="Group 157570">
                  <g id="Group_157569" data-name="Group 157569">
                    <g id="Group_157568" data-name="Group 157568">
                      <g id="Group_157567" data-name="Group 157567">
                        <path id="Path_266567" data-name="Path 266567" d="M244.233,370.478h89.806a.119.119,0,0,0,0-.238H244.233a.119.119,0,0,0,0,.238Z" transform="translate(-244.118 -370.24)" fill="#e0e0e0"/>
                      </g>
                    </g>
                  </g>
                </g>
              </g>
            </g>
            <g id="Group_157578" data-name="Group 157578" transform="translate(47.286 2.37)">
              <g id="Group_157577" data-name="Group 157577">
                <g id="Group_157576" data-name="Group 157576">
                  <g id="Group_157575" data-name="Group 157575">
                    <g id="Group_157574" data-name="Group 157574">
                      <g id="Group_157573" data-name="Group 157573">
                        <path id="Path_266568" data-name="Path 266568" d="M329.216,359.843a98.287,98.287,0,0,0,.031-11.879.121.121,0,0,0-.242,0,98.293,98.293,0,0,0,.031,11.879.09.09,0,0,0,.18,0Z" transform="translate(-328.84 -347.847)" fill="#e0e0e0"/>
                      </g>
                    </g>
                  </g>
                </g>
              </g>
            </g>
            <g id="Group_157583" data-name="Group 157583" transform="translate(69.388 7.203)">
              <g id="Group_157582" data-name="Group 157582">
                <g id="Group_157581" data-name="Group 157581">
                  <g id="Group_157580" data-name="Group 157580">
                    <g id="Group_157579" data-name="Group 157579">
                      <path id="Path_266569" data-name="Path 266569" d="M372.957,358.183a1.224,1.224,0,1,1-1.224-1.224A1.224,1.224,0,0,1,372.957,358.183Z" transform="translate(-370.51 -356.959)" fill="#e0e0e0"/>
                    </g>
                  </g>
                </g>
              </g>
            </g>
            <g id="Group_157588" data-name="Group 157588" transform="translate(22.257 7.203)">
              <g id="Group_157587" data-name="Group 157587">
                <g id="Group_157586" data-name="Group 157586">
                  <g id="Group_157585" data-name="Group 157585">
                    <g id="Group_157584" data-name="Group 157584">
                      <path id="Path_266570" data-name="Path 266570" d="M284.1,358.183a1.223,1.223,0,1,1-1.223-1.224A1.223,1.223,0,0,1,284.1,358.183Z" transform="translate(-281.65 -356.959)" fill="#e0e0e0"/>
                    </g>
                  </g>
                </g>
              </g>
            </g>
            <g id="Group_157593" data-name="Group 157593" transform="translate(46.145 20.762)">
              <g id="Group_157592" data-name="Group 157592">
                <g id="Group_157591" data-name="Group 157591">
                  <g id="Group_157590" data-name="Group 157590">
                    <g id="Group_157589" data-name="Group 157589">
                      <path id="Path_266571" data-name="Path 266571" d="M329.136,383.748a1.223,1.223,0,1,1-1.224-1.224A1.224,1.224,0,0,1,329.136,383.748Z" transform="translate(-326.689 -382.524)" fill="#e0e0e0"/>
                    </g>
                  </g>
                </g>
              </g>
            </g>
            <g id="Group_157598" data-name="Group 157598" transform="translate(6.455 43.731)">
              <g id="Group_157597" data-name="Group 157597">
                <g id="Group_157596" data-name="Group 157596">
                  <g id="Group_157595" data-name="Group 157595">
                    <g id="Group_157594" data-name="Group 157594">
                      <path id="Path_266572" data-name="Path 266572" d="M256.739,425.83l-4.882,27.456H254.6l9-27.456Z" transform="translate(-251.857 -425.83)" fill="#e0e0e0"/>
                    </g>
                  </g>
                </g>
              </g>
            </g>
            <g id="Group_157603" data-name="Group 157603" transform="translate(81.25 43.731)">
              <g id="Group_157602" data-name="Group 157602">
                <g id="Group_157601" data-name="Group 157601">
                  <g id="Group_157600" data-name="Group 157600">
                    <g id="Group_157599" data-name="Group 157599">
                      <path id="Path_266573" data-name="Path 266573" d="M399.74,425.83l4.083,27.5h-2.746l-8.2-27.5Z" transform="translate(-392.875 -425.83)" fill="#e0e0e0"/>
                    </g>
                  </g>
                </g>
              </g>
            </g>
            <g id="Group_157608" data-name="Group 157608" transform="translate(99.581 43.731)">
              <g id="Group_157607" data-name="Group 157607">
                <g id="Group_157606" data-name="Group 157606">
                  <g id="Group_157605" data-name="Group 157605">
                    <g id="Group_157604" data-name="Group 157604">
                      <path id="Path_266574" data-name="Path 266574" d="M434.3,425.83l4.626,27.5h-2.746l-8.745-27.5Z" transform="translate(-427.436 -425.83)" fill="#e0e0e0"/>
                    </g>
                  </g>
                </g>
              </g>
            </g>
            <g id="Group_157613" data-name="Group 157613" transform="translate(46.063 33.139)">
              <g id="Group_157612" data-name="Group 157612">
                <g id="Group_157611" data-name="Group 157611">
                  <g id="Group_157610" data-name="Group 157610">
                    <g id="Group_157609" data-name="Group 157609">
                      <path id="Path_266575" data-name="Path 266575" d="M328.981,407.083a1.223,1.223,0,1,1-1.223-1.224A1.223,1.223,0,0,1,328.981,407.083Z" transform="translate(-326.534 -405.859)" fill="#e0e0e0"/>
                    </g>
                  </g>
                </g>
              </g>
            </g>
            <g id="Group_157619" data-name="Group 157619" transform="translate(2.35 27.789)">
              <g id="Group_157618" data-name="Group 157618">
                <g id="Group_157617" data-name="Group 157617">
                  <g id="Group_157616" data-name="Group 157616">
                    <g id="Group_157615" data-name="Group 157615">
                      <g id="Group_157614" data-name="Group 157614">
                        <path id="Path_266576" data-name="Path 266576" d="M244.233,396.01h89.806a.119.119,0,0,0,0-.238H244.233a.119.119,0,0,0,0,.238Z" transform="translate(-244.118 -395.772)" fill="#e0e0e0"/>
                      </g>
                    </g>
                  </g>
                </g>
              </g>
            </g>
          </g>
        </g>
        <g id="Group_157682" data-name="Group 157682" transform="translate(37.504)">
          <g id="Group_157627" data-name="Group 157627">
            <g id="Group_157626" data-name="Group 157626">
              <g id="Group_157625" data-name="Group 157625">
                <g id="Group_157624" data-name="Group 157624">
                  <g id="Group_157623" data-name="Group 157623">
                    <g id="Group_157622" data-name="Group 157622">
                      <rect id="Rectangle_295747" data-name="Rectangle 295747" width="5.836" height="28.67" transform="translate(28.67) rotate(89.697)" fill="#e0e0e0"/>
                    </g>
                  </g>
                </g>
              </g>
            </g>
          </g>
          <g id="Group_157664" data-name="Group 157664" transform="translate(0.143 11.425)">
            <g id="Group_157633" data-name="Group 157633" transform="translate(0 0.064)">
              <g id="Group_157632" data-name="Group 157632">
                <g id="Group_157631" data-name="Group 157631">
                  <g id="Group_157630" data-name="Group 157630">
                    <g id="Group_157629" data-name="Group 157629">
                      <g id="Group_157628" data-name="Group 157628">
                        <rect id="Rectangle_295748" data-name="Rectangle 295748" width="9.069" height="31.955" transform="translate(31.955) rotate(89.697)" fill="#f5f5f5"/>
                      </g>
                    </g>
                  </g>
                </g>
              </g>
            </g>
            <g id="Group_157639" data-name="Group 157639" transform="translate(25.691)">
              <g id="Group_157638" data-name="Group 157638">
                <g id="Group_157637" data-name="Group 157637">
                  <g id="Group_157636" data-name="Group 157636">
                    <g id="Group_157635" data-name="Group 157635">
                      <g id="Group_157634" data-name="Group 157634">
                        <path id="Path_266577" data-name="Path 266577" d="M359.259,335a66.461,66.461,0,0,1,0-9.069,66.239,66.239,0,0,1,0,9.069Z" transform="translate(-359.104 -325.932)" fill="#e0e0e0"/>
                      </g>
                    </g>
                  </g>
                </g>
              </g>
            </g>
            <g id="Group_157645" data-name="Group 157645" transform="translate(27.034)">
              <g id="Group_157644" data-name="Group 157644">
                <g id="Group_157643" data-name="Group 157643">
                  <g id="Group_157642" data-name="Group 157642">
                    <g id="Group_157641" data-name="Group 157641">
                      <g id="Group_157640" data-name="Group 157640">
                        <path id="Path_266578" data-name="Path 266578" d="M361.79,335a66.474,66.474,0,0,1,0-9.069,66.226,66.226,0,0,1,0,9.069Z" transform="translate(-361.635 -325.932)" fill="#e0e0e0"/>
                      </g>
                    </g>
                  </g>
                </g>
              </g>
            </g>
            <g id="Group_157651" data-name="Group 157651" transform="translate(4.701)">
              <g id="Group_157650" data-name="Group 157650">
                <g id="Group_157649" data-name="Group 157649">
                  <g id="Group_157648" data-name="Group 157648">
                    <g id="Group_157647" data-name="Group 157647">
                      <g id="Group_157646" data-name="Group 157646">
                        <path id="Path_266579" data-name="Path 266579" d="M319.683,335a66.461,66.461,0,0,1,0-9.069,66.239,66.239,0,0,1,0,9.069Z" transform="translate(-319.528 -325.932)" fill="#e0e0e0"/>
                      </g>
                    </g>
                  </g>
                </g>
              </g>
            </g>
            <g id="Group_157657" data-name="Group 157657" transform="translate(6.043)">
              <g id="Group_157656" data-name="Group 157656">
                <g id="Group_157655" data-name="Group 157655">
                  <g id="Group_157654" data-name="Group 157654">
                    <g id="Group_157653" data-name="Group 157653">
                      <g id="Group_157652" data-name="Group 157652">
                        <path id="Path_266580" data-name="Path 266580" d="M322.214,335a66.239,66.239,0,0,1,0-9.069,66.461,66.461,0,0,1,0,9.069Z" transform="translate(-322.059 -325.932)" fill="#e0e0e0"/>
                      </g>
                    </g>
                  </g>
                </g>
              </g>
            </g>
            <g id="Group_157663" data-name="Group 157663" transform="translate(9.127 4.524)">
              <g id="Group_157662" data-name="Group 157662">
                <g id="Group_157661" data-name="Group 157661">
                  <g id="Group_157660" data-name="Group 157660">
                    <g id="Group_157659" data-name="Group 157659">
                      <g id="Group_157658" data-name="Group 157658">
                        <path id="Path_266581" data-name="Path 266581" d="M327.874,334.618c0-.087,3.224-.157,7.2-.157s7.2.07,7.2.157-3.223.157-7.2.157S327.874,334.7,327.874,334.618Z" transform="translate(-327.874 -334.461)" fill="#e0e0e0"/>
                      </g>
                    </g>
                  </g>
                </g>
              </g>
            </g>
          </g>
          <g id="Group_157681" data-name="Group 157681" transform="translate(4.683 5.6)">
            <g id="Group_157670" data-name="Group 157670">
              <g id="Group_157669" data-name="Group 157669">
                <g id="Group_157668" data-name="Group 157668">
                  <g id="Group_157667" data-name="Group 157667">
                    <g id="Group_157666" data-name="Group 157666">
                      <g id="Group_157665" data-name="Group 157665">
                        <rect id="Rectangle_295749" data-name="Rectangle 295749" width="5.836" height="39.432" transform="matrix(0.005, 1, -1, 0.005, 39.431, 0)" fill="#ebebeb"/>
                      </g>
                    </g>
                  </g>
                </g>
              </g>
            </g>
            <g id="Group_157675" data-name="Group 157675" transform="translate(31.953 1.337)">
              <g id="Group_157674" data-name="Group 157674">
                <g id="Group_157673" data-name="Group 157673">
                  <g id="Group_157672" data-name="Group 157672">
                    <g id="Group_157671" data-name="Group 157671">
                      <path id="Path_266582" data-name="Path 266582" d="M381.333,321.246a1.888,1.888,0,1,1,1.864-1.888A1.876,1.876,0,0,1,381.333,321.246Z" transform="translate(-379.47 -317.471)" fill="#e0e0e0"/>
                    </g>
                  </g>
                </g>
              </g>
            </g>
            <g id="Group_157680" data-name="Group 157680" transform="translate(2.296 2.641)">
              <g id="Group_157679" data-name="Group 157679">
                <g id="Group_157678" data-name="Group 157678">
                  <g id="Group_157677" data-name="Group 157677">
                    <g id="Group_157676" data-name="Group 157676">
                      <rect id="Rectangle_295750" data-name="Rectangle 295750" width="1.167" height="26.395" transform="translate(26.395) rotate(90)" fill="#e0e0e0"/>
                    </g>
                  </g>
                </g>
              </g>
            </g>
          </g>
        </g>
      </g>
    </g>
    <g id="Speech_Bubble" data-name="Speech Bubble" transform="translate(244.323 36.295)">
      <g id="Group_157703" data-name="Group 157703" transform="translate(0)">
        <g id="Group_157693" data-name="Group 157693">
          <g id="Group_157692" data-name="Group 157692">
            <g id="Group_157691" data-name="Group 157691">
              <g id="Group_157690" data-name="Group 157690">
                <g id="Group_157689" data-name="Group 157689">
                  <g id="Group_157685" data-name="Group 157685" transform="translate(0 0.1)">
                    <g id="Group_157684" data-name="Group 157684">
                      <path id="Path_266583" data-name="Path 266583" d="M316.333,75.174l4-7.056a18.907,18.907,0,1,1,4.529,5.037l.006.008Z" transform="translate(-316.333 -39.36)" fill="#fff"/>
                    </g>
                  </g>
                  <g id="Group_157688" data-name="Group 157688">
                    <g id="Group_157687" data-name="Group 157687">
                      <g id="Group_157686" data-name="Group 157686">
                        <path id="Path_266584" data-name="Path 266584" d="M316.333,75.086l8.524-2.071-.036.1-.006-.008a.063.063,0,0,1,.012-.088.062.062,0,0,1,.076,0,19.342,19.342,0,0,0,3.869,2.3,18.845,18.845,0,0,0,5.14,1.444,16.84,16.84,0,0,0,2.962.139c.509-.031,1.028-.045,1.55-.09L340,76.569a18.88,18.88,0,0,0,11.654-7.517,18.622,18.622,0,0,0,3.143-7.21,19.04,19.04,0,0,0-.226-8.295,18.409,18.409,0,0,0-4-7.666l-.761-.837c-.25-.282-.549-.514-.82-.772s-.539-.522-.845-.737l-.895-.669a7.773,7.773,0,0,0-.926-.613l-.945-.574-.99-.481a8.6,8.6,0,0,0-1-.445,19.049,19.049,0,0,0-8.357-1.29,18.421,18.421,0,0,0-7.678,2.258,18.982,18.982,0,0,0-8.888,10.889,20.3,20.3,0,0,0-.834,6.081A18.767,18.767,0,0,0,320.388,68a.061.061,0,0,1,0,.061l-4.056,7.027L320.285,68v.06a18.8,18.8,0,0,1-2.821-9.366,20.387,20.387,0,0,1,.82-6.143,19.163,19.163,0,0,1,8.964-11.033,18.634,18.634,0,0,1,7.771-2.3,19.272,19.272,0,0,1,8.467,1.3,8.918,8.918,0,0,1,1.013.45l1,.487.958.582a8.022,8.022,0,0,1,.938.621l.907.678c.309.219.569.5.856.747s.577.5.831.783l.772.849a18.631,18.631,0,0,1,4.048,7.769,19.26,19.26,0,0,1,.223,8.4,18.827,18.827,0,0,1-3.192,7.3,19.054,19.054,0,0,1-11.8,7.576l-1.6.241c-.528.044-1.052.056-1.566.085a16.983,16.983,0,0,1-2.99-.152,18.934,18.934,0,0,1-5.178-1.479,19.318,19.318,0,0,1-3.883-2.342l.088-.087.006.008a.062.062,0,0,1-.011.087.06.06,0,0,1-.024.011Z" transform="translate(-316.333 -39.172)" fill="#263238"/>
                      </g>
                    </g>
                  </g>
                </g>
              </g>
            </g>
          </g>
        </g>
        <g id="Group_157702" data-name="Group 157702" transform="translate(13.333 10.482)">
          <g id="Group_157701" data-name="Group 157701">
            <g id="Group_157700" data-name="Group 157700">
              <g id="Group_157696" data-name="Group 157696" transform="translate(3.517)">
                <g id="Group_157695" data-name="Group 157695">
                  <g id="Group_157694" data-name="Group 157694">
                    <path id="Path_266585" data-name="Path 266585" d="M348.1,65.124h1.229l2.682-3.737V58.935s1.9-.117,1.676,3.095.018,2.394.018,2.394,4.033.015,4.368.365c.243.255.354,4.261.4,6.433a2.351,2.351,0,0,1-1.666,2.369,1.753,1.753,0,0,1-.434.058c-1.006,0-6.145-.818-6.145-.818H348.1Z" transform="translate(-348.103 -58.934)" fill="#fda929"/>
                  </g>
                </g>
              </g>
              <g id="Group_157699" data-name="Group 157699" transform="translate(0 5.517)">
                <g id="Group_157698" data-name="Group 157698">
                  <g id="Group_157697" data-name="Group 157697">
                    <path id="Path_266586" data-name="Path 266586" d="M341.471,69.336l.756,8.4h2.1V69.5Z" transform="translate(-341.471 -69.336)" fill="#fda929"/>
                  </g>
                </g>
              </g>
            </g>
          </g>
        </g>
      </g>
    </g>
    <g id="Character" transform="translate(168.956 33.045)">
      <g id="Group_157931" data-name="Group 157931" transform="translate(0)">
        <path id="Path_266587" data-name="Path 266587" d="M216.2,103.361a20.463,20.463,0,0,1-11.209,3.2c-1.258-.016-2.517-.148-3.77-.041a5.725,5.725,0,0,0-3.451,1.339,3.144,3.144,0,0,0-.884,3.424c.708,1.621,3,2.266,3.349,4,.25,1.249-.681,2.438-1.727,3.163a19.249,19.249,0,0,0-3.16,2.124,4.342,4.342,0,0,0,2.153,7.241c.9.206,2,.212,2.482.993a2.836,2.836,0,0,1,.13,1.878,6.7,6.7,0,0,0,.513,3.953,3.671,3.671,0,0,0,3.222,2.082c.527-.019,1.044-.18,1.571-.17a1.3,1.3,0,0,1,1.268.762,2.7,2.7,0,0,1-.051,1.083c-.191,1.772,1.575,3.152,3.283,3.662a11.807,11.807,0,0,0,10.108-2.066,19.486,19.486,0,0,0,6.245-8.51,58.126,58.126,0,0,0,2.8-10.3" transform="translate(-182.193 -61.154)" fill="#263238"/>
        <g id="Group_157813" data-name="Group 157813" transform="translate(5.893 121.206)">
          <path id="Path_266588" data-name="Path 266588" d="M264.454,244.26a7.449,7.449,0,0,0-1.689-2.515c-4.519-4.81-11.365-7.107-17.955-6.734a32.027,32.027,0,0,0-18.022,7.393c-2.734,2.21-6.414,6.482-7.376,9.863,4.009.967,10-.379,13.782-2.027s7.523-3.646,11.626-4.063c4.755-.484,9.422,1.2,14.107,2.152a8.847,8.847,0,0,0,2.859.23,3.414,3.414,0,0,0,2.436-1.367A3.34,3.34,0,0,0,264.454,244.26Z" transform="translate(-198.188 -234.972)" fill="#15ab67"/>
          <g id="Group_157788" data-name="Group 157788" transform="translate(56.172 44.406)">
            <g id="Group_157787" data-name="Group 157787">
              <g id="Group_157715" data-name="Group 157715">
                <g id="Group_157714" data-name="Group 157714">
                  <g id="Group_157713" data-name="Group 157713">
                    <g id="Group_157712" data-name="Group 157712">
                      <g id="Group_157711" data-name="Group 157711">
                        <g id="Group_157710" data-name="Group 157710">
                          <g id="Group_157709" data-name="Group 157709">
                            <g id="Group_157708" data-name="Group 157708">
                              <g id="Group_157707" data-name="Group 157707">
                                <g id="Group_157706" data-name="Group 157706">
                                  <g id="Group_157705" data-name="Group 157705">
                                    <path id="Path_266590" data-name="Path 266590" d="M284.449,331.1l11.447-7.417s11.384,9.144,13.632,7.98l-13.584-22.712-18.311,10.825Z" transform="translate(-277.634 -308.952)" fill="#29398a"/>
                                  </g>
                                </g>
                              </g>
                            </g>
                          </g>
                        </g>
                      </g>
                    </g>
                  </g>
                </g>
              </g>
              <g id="Group_157727" data-name="Group 157727" transform="translate(13.043 6.98)">
                <g id="Group_157726" data-name="Group 157726">
                  <g id="Group_157725" data-name="Group 157725">
                    <g id="Group_157724" data-name="Group 157724">
                      <g id="Group_157723" data-name="Group 157723">
                        <g id="Group_157722" data-name="Group 157722">
                          <g id="Group_157721" data-name="Group 157721">
                            <g id="Group_157720" data-name="Group 157720">
                              <g id="Group_157719" data-name="Group 157719">
                                <g id="Group_157718" data-name="Group 157718">
                                  <g id="Group_157717" data-name="Group 157717">
                                    <g id="Group_157716" data-name="Group 157716">
                                      <path id="Path_266591" data-name="Path 266591" d="M299.4,321.9a1.082,1.082,0,0,1,.675-1.274,1.039,1.039,0,0,1,1.269.658,1.14,1.14,0,0,1-.721,1.346,1.078,1.078,0,0,1-1.244-.83" transform="translate(-299.363 -320.58)" fill="#e0e0e0"/>
                                    </g>
                                  </g>
                                </g>
                              </g>
                            </g>
                          </g>
                        </g>
                      </g>
                    </g>
                  </g>
                </g>
              </g>
              <g id="Group_157738" data-name="Group 157738" transform="translate(16.507)" opacity="0.6">
                <g id="Group_157737" data-name="Group 157737">
                  <g id="Group_157736" data-name="Group 157736">
                    <g id="Group_157735" data-name="Group 157735">
                      <g id="Group_157734" data-name="Group 157734">
                        <g id="Group_157733" data-name="Group 157733">
                          <g id="Group_157732" data-name="Group 157732">
                            <g id="Group_157731" data-name="Group 157731">
                              <g id="Group_157730" data-name="Group 157730">
                                <g id="Group_157729" data-name="Group 157729">
                                  <g id="Group_157728" data-name="Group 157728">
                                    <path id="Path_266592" data-name="Path 266592" d="M306.938,308.952l-1.8,1.163,13.7,21.341s1.045.748,1.688.208Z" transform="translate(-305.135 -308.952)" fill="#fff"/>
                                  </g>
                                </g>
                              </g>
                            </g>
                          </g>
                        </g>
                      </g>
                    </g>
                  </g>
                </g>
              </g>
              <g id="Group_157750" data-name="Group 157750" transform="translate(17.773 12.343)">
                <g id="Group_157749" data-name="Group 157749">
                  <g id="Group_157748" data-name="Group 157748">
                    <g id="Group_157747" data-name="Group 157747">
                      <g id="Group_157746" data-name="Group 157746">
                        <g id="Group_157745" data-name="Group 157745">
                          <g id="Group_157744" data-name="Group 157744">
                            <g id="Group_157743" data-name="Group 157743">
                              <g id="Group_157742" data-name="Group 157742">
                                <g id="Group_157741" data-name="Group 157741">
                                  <g id="Group_157740" data-name="Group 157740">
                                    <g id="Group_157739" data-name="Group 157739">
                                      <path id="Path_266593" data-name="Path 266593" d="M307.837,332.341c.109-.07-.173-.654-.142-1.414.01-.759.322-1.328.217-1.4-.083-.089-.646.472-.667,1.392S307.75,332.427,307.837,332.341Z" transform="translate(-307.244 -329.514)" fill="#263238"/>
                                    </g>
                                  </g>
                                </g>
                              </g>
                            </g>
                          </g>
                        </g>
                      </g>
                    </g>
                  </g>
                </g>
              </g>
              <g id="Group_157762" data-name="Group 157762" transform="translate(20.504 14.48)">
                <g id="Group_157761" data-name="Group 157761">
                  <g id="Group_157760" data-name="Group 157760">
                    <g id="Group_157759" data-name="Group 157759">
                      <g id="Group_157758" data-name="Group 157758">
                        <g id="Group_157757" data-name="Group 157757">
                          <g id="Group_157756" data-name="Group 157756">
                            <g id="Group_157755" data-name="Group 157755">
                              <g id="Group_157754" data-name="Group 157754">
                                <g id="Group_157753" data-name="Group 157753">
                                  <g id="Group_157752" data-name="Group 157752">
                                    <g id="Group_157751" data-name="Group 157751">
                                      <path id="Path_266594" data-name="Path 266594" d="M312.065,335.558c.122-.038.024-.632.268-1.289.224-.664.675-1.062.6-1.17-.044-.115-.74.2-1.028,1.02S311.959,335.619,312.065,335.558Z" transform="translate(-311.793 -333.076)" fill="#263238"/>
                                    </g>
                                  </g>
                                </g>
                              </g>
                            </g>
                          </g>
                        </g>
                      </g>
                    </g>
                  </g>
                </g>
              </g>
              <g id="Group_157774" data-name="Group 157774" transform="translate(22.976 16.577)">
                <g id="Group_157773" data-name="Group 157773">
                  <g id="Group_157772" data-name="Group 157772">
                    <g id="Group_157771" data-name="Group 157771">
                      <g id="Group_157770" data-name="Group 157770">
                        <g id="Group_157769" data-name="Group 157769">
                          <g id="Group_157768" data-name="Group 157768">
                            <g id="Group_157767" data-name="Group 157767">
                              <g id="Group_157766" data-name="Group 157766">
                                <g id="Group_157765" data-name="Group 157765">
                                  <g id="Group_157764" data-name="Group 157764">
                                    <g id="Group_157763" data-name="Group 157763">
                                      <path id="Path_266595" data-name="Path 266595" d="M317.372,336.6c-.037-.115-.683.062-1.12.711s-.369,1.311-.248,1.3c.128.008.253-.523.62-1.05S317.428,336.719,317.372,336.6Z" transform="translate(-315.912 -336.57)" fill="#263238"/>
                                    </g>
                                  </g>
                                </g>
                              </g>
                            </g>
                          </g>
                        </g>
                      </g>
                    </g>
                  </g>
                </g>
              </g>
              <g id="Group_157786" data-name="Group 157786" transform="translate(14.181 14.134)">
                <g id="Group_157785" data-name="Group 157785">
                  <g id="Group_157784" data-name="Group 157784">
                    <g id="Group_157783" data-name="Group 157783">
                      <g id="Group_157782" data-name="Group 157782">
                        <g id="Group_157781" data-name="Group 157781">
                          <g id="Group_157780" data-name="Group 157780">
                            <g id="Group_157779" data-name="Group 157779">
                              <g id="Group_157778" data-name="Group 157778">
                                <g id="Group_157777" data-name="Group 157777">
                                  <g id="Group_157776" data-name="Group 157776">
                                    <g id="Group_157775" data-name="Group 157775">
                                      <path id="Path_266596" data-name="Path 266596" d="M302.648,334.935c.074-.107-.384-.524-.716-1.177s-.427-1.259-.556-1.26c-.119-.016-.244.705.158,1.468S302.593,335.042,302.648,334.935Z" transform="translate(-301.259 -332.499)" fill="#263238"/>
                                    </g>
                                  </g>
                                </g>
                              </g>
                            </g>
                          </g>
                        </g>
                      </g>
                    </g>
                  </g>
                </g>
              </g>
            </g>
            <path id="Path_266597" data-name="Path 266597" d="M290.312,318.489l5.208,11.876-1.746,1.234-6.006-11.576Z" transform="translate(-281.685 -312.765)" opacity="0.3"/>
          </g>
          <g id="Group_157812" data-name="Group 157812" transform="translate(0 3.54)">
            <path id="Path_266598" data-name="Path 266598" d="M242.035,240.873c-.471,0-15.867-.337-24.179,5.152l-6.581,3.71.178,6.664s-1.412,2.352-1.1,3.764-.046,7.371-.046,7.371-2.463.157-2.777,4.391c0,0-3.42,1.412-4.924,3.921s-16.875,30.739-17.816,35.287-1.568,12.546,1.882,15.212,11.135,1.725,11.135,1.725,1.1,3.294,7.842,3.45,17.094-7.684,17.094-7.684L253.8,302.664l-7.345-15.734-10.847,6.638,11.605-13.487s5.333-9.1,3.764-18.663C249.81,254.316,242.035,240.873,242.035,240.873Z" transform="translate(-184.052 -240.869)" fill="#263238"/>
            <g id="Group_157789" data-name="Group 157789" transform="translate(27.457 4.674)">
              <path id="Path_266599" data-name="Path 266599" d="M262.977,248.872a1.641,1.641,0,0,1-.366.019l-1.045,0c-.908-.008-2.22-.029-3.84-.01s-3.55.077-5.677.3a31.162,31.162,0,0,0-6.785,1.418,46.838,46.838,0,0,0-11.139,5.89l-3.157,2.187-.861.592a1.627,1.627,0,0,1-.313.19,1.644,1.644,0,0,1,.275-.24l.827-.64c.723-.548,1.775-1.335,3.1-2.271a44.441,44.441,0,0,1,11.165-6,30.518,30.518,0,0,1,6.854-1.408,55.392,55.392,0,0,1,5.706-.238c1.625.008,2.938.064,3.845.109l1.044.063A1.594,1.594,0,0,1,262.977,248.872Z" transform="translate(-229.795 -248.656)" fill="#455a64"/>
            </g>
            <g id="Group_157790" data-name="Group 157790" transform="translate(28.213 9.55)">
              <path id="Path_266600" data-name="Path 266600" d="M231.8,257.005a1.778,1.778,0,0,0-.492.9,1.081,1.081,0,0,0,.328.969,1.111,1.111,0,0,0,1.9-.758,1.081,1.081,0,0,0-.43-.929,1.778,1.778,0,0,0-.978-.316c0-.017.093-.074.294-.091a1.3,1.3,0,0,1,.814.228,1.287,1.287,0,0,1,.588,1.121,1.383,1.383,0,0,1-2.385.953,1.287,1.287,0,0,1-.346-1.217,1.3,1.3,0,0,1,.433-.726C231.68,257.016,231.791,256.989,231.8,257.005Z" transform="translate(-231.055 -256.78)" fill="#455a64"/>
            </g>
            <g id="Group_157791" data-name="Group 157791" transform="translate(32.977 6.28)">
              <path id="Path_266601" data-name="Path 266601" d="M240.5,255.642c-.029.027-.247-.133-.553-.447a2.831,2.831,0,0,1-.746-3.219c.136-.416.262-.655.3-.644s-.007.279-.086.7a3.1,3.1,0,0,0,.7,3.022C240.367,255.395,240.529,255.61,240.5,255.642Z" transform="translate(-238.991 -251.332)" fill="#455a64"/>
            </g>
            <g id="Group_157792" data-name="Group 157792" transform="translate(34.304 5.796)">
              <path id="Path_266602" data-name="Path 266602" d="M242.683,254.523c-.026.028-.241-.105-.52-.4a3.543,3.543,0,0,1-.785-1.382,3.633,3.633,0,0,1-.033-2.214c.109,0,.016,1,.332,2.124A9.257,9.257,0,0,0,242.683,254.523Z" transform="translate(-241.201 -250.525)" fill="#455a64"/>
            </g>
            <g id="Group_157793" data-name="Group 157793" transform="translate(50.515 0.551)">
              <path id="Path_266603" data-name="Path 266603" d="M270.1,246.127c-.049,0-.064-.281-.109-.721a5.792,5.792,0,0,0-.375-1.652,4.785,4.785,0,0,0-.936-1.4c-.3-.325-.5-.523-.467-.559s.272.106.621.4a3.834,3.834,0,0,1,1.071,1.439,4.362,4.362,0,0,1,.307,1.764A1.522,1.522,0,0,1,270.1,246.127Z" transform="translate(-268.21 -241.788)" fill="#455a64"/>
            </g>
            <g id="Group_157794" data-name="Group 157794" transform="translate(53.125 0.354)">
              <path id="Path_266604" data-name="Path 266604" d="M273.854,245.954c-.044,0-.052-.28-.049-.718a5.721,5.721,0,0,0-.136-1.654,7.2,7.2,0,0,0-.781-1.476c-.231-.375-.361-.618-.325-.643s.227.172.506.516a4.94,4.94,0,0,1,.9,1.512,4.269,4.269,0,0,1,.058,1.762C273.965,245.691,273.9,245.957,273.854,245.954Z" transform="translate(-272.557 -241.46)" fill="#455a64"/>
            </g>
            <g id="Group_157795" data-name="Group 157795" transform="translate(27.873 5.427)">
              <path id="Path_266605" data-name="Path 266605" d="M230.491,317.537a2.9,2.9,0,0,1,.28-.7c.21-.448.534-1.1.959-1.939.851-1.673,2.111-4.08,3.683-7.047,3.144-5.932,7.54-14.1,12.428-23.1l3.574-6.568a29.086,29.086,0,0,0,3.152-18.073,29.667,29.667,0,0,0-2.214-7.586c-.382-.855-.712-1.5-.94-1.942l-.262-.5a.915.915,0,0,1-.08-.175.89.89,0,0,1,.108.159l.289.483c.247.429.594,1.071,1,1.922a28.783,28.783,0,0,1,1.758,19.349,29.029,29.029,0,0,1-2.537,6.506l-3.569,6.572-12.508,23.054-3.77,7-1.011,1.91c-.106.208-.19.372-.256.5A1.107,1.107,0,0,1,230.491,317.537Z" transform="translate(-230.489 -249.91)" fill="#455a64"/>
            </g>
            <g id="Group_157796" data-name="Group 157796" transform="translate(28.613 52.745)">
              <path id="Path_266606" data-name="Path 266606" d="M265.619,328.742a1.967,1.967,0,0,1-.336.236l-.995.627-3.678,2.27c-3.105,1.917-7.379,4.588-12.051,7.615s-8.865,5.829-11.9,7.856l-3.6,2.4-.986.64a.206.206,0,1,1-.035-.052l.952-.688,3.543-2.478c3-2.074,7.178-4.9,11.854-7.935s8.971-5.672,12.106-7.541c1.568-.935,2.843-1.681,3.73-2.185l1.025-.576A2.064,2.064,0,0,1,265.619,328.742Z" transform="translate(-231.721 -328.742)" fill="#455a64"/>
            </g>
            <g id="Group_157797" data-name="Group 157797" transform="translate(60.034 47.617)">
              <path id="Path_266607" data-name="Path 266607" d="M291.4,335.986a2.884,2.884,0,0,1-.288-.624l-.752-1.7c-.648-1.434-1.573-3.4-2.607-5.571l-2.651-5.556-.785-1.693a2.937,2.937,0,0,1-.251-.639,2.872,2.872,0,0,1,.36.585c.214.386.513.95.875,1.649.723,1.4,1.7,3.348,2.735,5.52s1.93,4.157,2.528,5.619c.3.729.522,1.33.663,1.749A2.91,2.91,0,0,1,291.4,335.986Z" transform="translate(-284.068 -320.198)" fill="#455a64"/>
            </g>
            <g id="Group_157798" data-name="Group 157798" transform="translate(27.874 52.32)">
              <path id="Path_266608" data-name="Path 266608" d="M230.491,348.768c-.056-.065,5.254-4.76,11.86-10.484s12.009-10.314,12.066-10.249-5.253,4.759-11.861,10.486S230.547,348.833,230.491,348.768Z" transform="translate(-230.49 -328.034)" fill="#455a64"/>
            </g>
            <g id="Group_157799" data-name="Group 157799" transform="translate(21.296 72.747)">
              <path id="Path_266609" data-name="Path 266609" d="M219.532,373.375a7.278,7.278,0,0,0,1.276-1.422c.641-.994,1.432-2.46,2.317-4.053s1.639-3.07,2.191-4.133a13.514,13.514,0,0,1,.936-1.7,10.767,10.767,0,0,1-.738,1.8c-.5,1.09-1.237,2.578-2.116,4.185a46.734,46.734,0,0,1-2.411,4.031,4.893,4.893,0,0,1-1,1.037A1.215,1.215,0,0,1,219.532,373.375Z" transform="translate(-219.531 -362.064)" fill="#455a64"/>
            </g>
            <g id="Group_157800" data-name="Group 157800" transform="translate(26.916 73.053)">
              <path id="Path_266610" data-name="Path 266610" d="M228.9,375.28c-.049-.027.3-.681.67-1.807a23.6,23.6,0,0,0,.974-4.524,16.652,16.652,0,0,0-.023-4.609,4.816,4.816,0,0,0-.4-1.322,2.469,2.469,0,0,1-.262-.442c.009-.013.158.106.367.38a4.168,4.168,0,0,1,.516,1.339,14.613,14.613,0,0,1,.117,4.69,19.538,19.538,0,0,1-1.076,4.563,9.62,9.62,0,0,1-.594,1.294A1.711,1.711,0,0,1,228.9,375.28Z" transform="translate(-228.893 -362.574)" fill="#455a64"/>
            </g>
            <g id="Group_157801" data-name="Group 157801" transform="translate(20.419 73.049)">
              <path id="Path_266611" data-name="Path 266611" d="M218.071,366.156a5.567,5.567,0,0,1,1.172-.378,19.556,19.556,0,0,0,2.766-.989,27.9,27.9,0,0,0,3.517-2.216,4.007,4.007,0,0,1-.869.881,11.25,11.25,0,0,1-2.517,1.618,13.594,13.594,0,0,1-2.844.92A4.3,4.3,0,0,1,218.071,366.156Z" transform="translate(-218.071 -362.568)" fill="#455a64"/>
            </g>
            <g id="Group_157802" data-name="Group 157802" transform="translate(11.352 33.026)">
              <path id="Path_266612" data-name="Path 266612" d="M219.97,295.89a.537.537,0,0,1-.082.128l-.264.354c-.233.31-.573.771-.975,1.387a30.822,30.822,0,0,0-2.842,5.531,71.756,71.756,0,0,0-2.746,8.825,85.762,85.762,0,0,1-3.307,10.864c-1.553,3.731-3.461,7.072-4.7,10.324a25.354,25.354,0,0,0-1.872,8.974,15.609,15.609,0,0,0,.4,3.5,14.882,14.882,0,0,0,.856,2.529,15.718,15.718,0,0,0,.773,1.5l.217.384a.531.531,0,0,1,.065.137.563.563,0,0,1-.092-.12l-.244-.369a12.669,12.669,0,0,1-.83-1.487,14.273,14.273,0,0,1-.915-2.537,15.448,15.448,0,0,1-.452-3.545,25.188,25.188,0,0,1,1.824-9.079c1.231-3.283,3.136-6.636,4.677-10.34a88.614,88.614,0,0,0,3.317-10.819,68.887,68.887,0,0,1,2.82-8.836,29.119,29.119,0,0,1,2.946-5.516c.42-.609.777-1.059,1.026-1.358l.288-.336C219.931,295.923,219.966,295.886,219.97,295.89Z" transform="translate(-202.964 -295.89)" fill="#455a64"/>
            </g>
            <g id="Group_157803" data-name="Group 157803" transform="translate(27.436 14.083)">
              <path id="Path_266613" data-name="Path 266613" d="M231.693,264.332a6.128,6.128,0,0,1-.312.734,8.332,8.332,0,0,0-.591,2.062,9.87,9.87,0,0,0,.112,3.169c.181,1.192.679,2.426,1.017,3.807a6.328,6.328,0,0,1,.178,2.076,12.406,12.406,0,0,1-.309,1.9,29.5,29.5,0,0,1-.929,3.1c-.307.869-.578,1.561-.77,2.038a4,4,0,0,1-.327.73,3.923,3.923,0,0,1,.213-.771l.673-2.067c.274-.874.6-1.917.858-3.1a8.075,8.075,0,0,0,.107-3.843c-.326-1.341-.825-2.608-1-3.83a9.631,9.631,0,0,1-.047-3.253,7.385,7.385,0,0,1,.7-2.079,5,5,0,0,1,.3-.516C231.641,264.383,231.684,264.326,231.693,264.332Z" transform="translate(-229.76 -264.331)" fill="#455a64"/>
            </g>
            <g id="Group_157804" data-name="Group 157804" transform="translate(30.098 12.302)">
              <path id="Path_266614" data-name="Path 266614" d="M234.2,281.2a7.464,7.464,0,0,0,1.511-2.553,9.547,9.547,0,0,0,.472-3.183,22.116,22.116,0,0,0-.5-3.947,37.507,37.507,0,0,1-.662-3.972,15.543,15.543,0,0,1,.064-3.3,9.128,9.128,0,0,1,.527-2.16,4.6,4.6,0,0,1,.256-.549c.067-.121.107-.182.116-.177.026.013-.1.272-.258.766a10.628,10.628,0,0,0-.422,2.146,16.651,16.651,0,0,0,0,3.246c.111,1.216.412,2.539.682,3.938a20.923,20.923,0,0,1,.478,4.007,9.35,9.35,0,0,1-.552,3.258,6.226,6.226,0,0,1-1.116,1.928,4.23,4.23,0,0,1-.431.426C234.263,281.168,234.205,281.21,234.2,281.2Z" transform="translate(-234.195 -261.364)" fill="#455a64"/>
            </g>
            <g id="Group_157805" data-name="Group 157805" transform="translate(27.814 27.399)">
              <path id="Path_266615" data-name="Path 266615" d="M247.9,286.528a3.419,3.419,0,0,1-.725.134c-.468.062-1.145.166-1.976.31a40.932,40.932,0,0,0-12.406,4.277c-.744.4-1.34.733-1.748.973a3.341,3.341,0,0,1-.653.342,3.312,3.312,0,0,1,.589-.444c.388-.273.97-.639,1.7-1.064a35.17,35.17,0,0,1,12.479-4.3c.841-.118,1.525-.188,2-.214A3.305,3.305,0,0,1,247.9,286.528Z" transform="translate(-230.39 -286.515)" fill="#455a64"/>
            </g>
            <g id="Group_157806" data-name="Group 157806" transform="translate(32.888 20.813)">
              <path id="Path_266616" data-name="Path 266616" d="M252.256,275.6c0,.06-.885.045-2.285.262a17.124,17.124,0,0,0-2.417.566,16.9,16.9,0,0,0-5.354,2.807,16.983,16.983,0,0,0-1.84,1.666c-.975,1.028-1.467,1.765-1.516,1.731a2.387,2.387,0,0,1,.313-.538,11.362,11.362,0,0,1,1.04-1.342,15.021,15.021,0,0,1,1.824-1.742,15.819,15.819,0,0,1,5.449-2.857,15.028,15.028,0,0,1,2.47-.509,11.44,11.44,0,0,1,1.7-.092A2.366,2.366,0,0,1,252.256,275.6Z" transform="translate(-238.843 -275.544)" fill="#455a64"/>
            </g>
            <g id="Group_157807" data-name="Group 157807" transform="translate(31.27 34.593)">
              <path id="Path_266617" data-name="Path 266617" d="M252.521,298.505a3.234,3.234,0,0,1-.676.26c-.441.144-1.077.36-1.858.638a54.494,54.494,0,0,0-11.584,5.708c-.7.45-1.255.823-1.637,1.085a3.221,3.221,0,0,1-.618.378,3.245,3.245,0,0,1,.546-.476c.362-.293.9-.694,1.586-1.17a44.321,44.321,0,0,1,11.636-5.734c.794-.252,1.442-.437,1.894-.546A3.257,3.257,0,0,1,252.521,298.505Z" transform="translate(-236.148 -298.501)" fill="#455a64"/>
            </g>
            <g id="Group_157808" data-name="Group 157808" transform="translate(56.812 16.51)">
              <path id="Path_266618" data-name="Path 266618" d="M288.453,270.758a3.579,3.579,0,0,1-.577-.2c-.373-.14-.918-.347-1.623-.58a30.45,30.45,0,0,0-6-1.315l.151-.136c.068,2.583.054,5.653-.178,8.923a73.381,73.381,0,0,1-1.267,9.489l0-.064a46.385,46.385,0,0,0,2,5.331c.281.625.543,1.093.719,1.414a3.259,3.259,0,0,1,.277.49,2.855,2.855,0,0,1-.344-.448,13.8,13.8,0,0,1-.787-1.39,40.332,40.332,0,0,1-2.109-5.319l-.01-.03.007-.034a80.181,80.181,0,0,0,1.211-9.459c.23-3.259.261-6.318.221-8.9l0-.155.154.02a28.027,28.027,0,0,1,6.014,1.433c.7.256,1.24.487,1.6.652A3.3,3.3,0,0,1,288.453,270.758Z" transform="translate(-278.7 -268.374)" fill="#455a64"/>
            </g>
            <g id="Group_157809" data-name="Group 157809" transform="translate(58.41 19.31)">
              <path id="Path_266619" data-name="Path 266619" d="M290.007,275.222a6.9,6.9,0,0,1-1.263-.344c-.771-.231-1.842-.526-3.038-.807-2.393-.561-4.359-.92-4.343-1.014a5.257,5.257,0,0,1,1.308.116c.8.116,1.9.31,3.107.594A15.588,15.588,0,0,1,290.007,275.222Z" transform="translate(-281.363 -273.04)" fill="#455a64"/>
            </g>
            <g id="Group_157810" data-name="Group 157810" transform="translate(50.986 10.677)">
              <path id="Path_266620" data-name="Path 266620" d="M282.177,260.235a19.012,19.012,0,0,1-1.9-.441,32.259,32.259,0,0,0-4.632-.738,37.1,37.1,0,0,0-4.695-.063,16.689,16.689,0,0,1-1.953.073,1.708,1.708,0,0,1,.514-.118c.334-.058.821-.119,1.424-.176a27.785,27.785,0,0,1,4.735-.028,25.01,25.01,0,0,1,4.661.835c.583.166,1.05.318,1.366.44A1.713,1.713,0,0,1,282.177,260.235Z" transform="translate(-268.994 -258.657)" fill="#455a64"/>
            </g>
            <g id="Group_157811" data-name="Group 157811" transform="translate(35.935 9.195)">
              <path id="Path_266621" data-name="Path 266621" d="M259.939,261.956a4.038,4.038,0,0,1-.8.249c-.519.134-1.276.307-2.22.471a30.153,30.153,0,0,1-7.477.372,9.261,9.261,0,0,1-4.022-1.008,3.417,3.417,0,0,1-1.251-1.358,2.582,2.582,0,0,1-.215-1.594,8.5,8.5,0,0,1,.671-2.181,2.426,2.426,0,0,1,.426-.719c.02.013-.125.27-.314.767a9.678,9.678,0,0,0-.564,2.163,2.379,2.379,0,0,0,.228,1.45,3.2,3.2,0,0,0,1.172,1.229,9.266,9.266,0,0,0,3.9.941,33.651,33.651,0,0,0,7.416-.279c.944-.135,1.7-.274,2.228-.372A4.5,4.5,0,0,1,259.939,261.956Z" transform="translate(-243.919 -256.187)" fill="#455a64"/>
            </g>
          </g>
        </g>
        <g id="Group_157905" data-name="Group 157905" transform="translate(19.932 27.446)">
          <g id="Group_157900" data-name="Group 157900" transform="translate(6.827)">
            <path id="Path_266622" data-name="Path 266622" d="M248.374,83.446C245.5,77.23,238.4,78.454,235.006,80.1a14.966,14.966,0,0,0-7.508,7.951c-1,2.4-1.792,5.139-3.8,6.59a29.4,29.4,0,0,1-2.856,1.486,3.7,3.7,0,0,0-1.994,2.526c-.3,2.068,1.777,3.5,3.531,4.336a3.335,3.335,0,0,0-.948,3.6,9.21,9.21,0,0,0,2.053,3.3,51,51,0,0,0,10.416,8.786c3.277,2.037,5.4,2.281,8.92.814,1.431-.6,2.763-1.571,4.285-1.745,1.769-.2,3.467.709,5.214,1.072s3.963-.137,4.534-1.981a13.211,13.211,0,0,0,.239-2.223c.1-.741.458-1.544,1.124-1.712a3.007,3.007,0,0,1,1.612.367c1.265.42,3.172,9.821,4.387,9.249,0,0,1.764-15.934-1.636-25.251-1.085-2.972-3.4-9.318-5.253-11.785-2.544-3.388-8.643-2.636-8.947-2.035" transform="translate(-218.815 -78.769)" fill="#263238"/>
            <g id="Group_157899" data-name="Group 157899" transform="translate(10.37 3.719)">
              <g id="Group_157898" data-name="Group 157898">
                <path id="Path_266623" data-name="Path 266623" d="M251.64,88.024c-4.517-1.577-10.615,1.89-12,6.469-1.537,5.088-3.214,11.36-3.507,15.357-.588,8.037,5.119,10.417,5.119,10.417l-2.325,12.563,19.59-6.332,6.837-29.6.636-2.49Z" transform="translate(-236.091 -86.033)" fill="#ffbe9d"/>
                <g id="Group_157826" data-name="Group 157826" transform="translate(3.547 14.192)">
                  <g id="Group_157825" data-name="Group 157825">
                    <g id="Group_157824" data-name="Group 157824">
                      <g id="Group_157823" data-name="Group 157823">
                        <g id="Group_157822" data-name="Group 157822">
                          <g id="Group_157821" data-name="Group 157821">
                            <g id="Group_157820" data-name="Group 157820">
                              <g id="Group_157819" data-name="Group 157819">
                                <g id="Group_157818" data-name="Group 157818">
                                  <g id="Group_157817" data-name="Group 157817">
                                    <g id="Group_157816" data-name="Group 157816">
                                      <g id="Group_157815" data-name="Group 157815">
                                        <g id="Group_157814" data-name="Group 157814">
                                          <path id="Path_266624" data-name="Path 266624" d="M242,109.073c.069.17,1-.08,2.019.325,1.026.389,1.57,1.209,1.73,1.128.076-.034.044-.3-.189-.671a2.8,2.8,0,0,0-1.325-1.056,2.691,2.691,0,0,0-1.668-.1C242.163,108.813,241.968,109,242,109.073Z" transform="translate(-242 -108.608)" fill="#263238"/>
                                        </g>
                                      </g>
                                    </g>
                                  </g>
                                </g>
                              </g>
                            </g>
                          </g>
                        </g>
                      </g>
                    </g>
                  </g>
                </g>
                <g id="Group_157839" data-name="Group 157839" transform="translate(13.673 16.383)">
                  <g id="Group_157838" data-name="Group 157838">
                    <g id="Group_157837" data-name="Group 157837">
                      <g id="Group_157836" data-name="Group 157836">
                        <g id="Group_157835" data-name="Group 157835">
                          <g id="Group_157834" data-name="Group 157834">
                            <g id="Group_157833" data-name="Group 157833">
                              <g id="Group_157832" data-name="Group 157832">
                                <g id="Group_157831" data-name="Group 157831">
                                  <g id="Group_157830" data-name="Group 157830">
                                    <g id="Group_157829" data-name="Group 157829">
                                      <g id="Group_157828" data-name="Group 157828">
                                        <g id="Group_157827" data-name="Group 157827">
                                          <path id="Path_266625" data-name="Path 266625" d="M258.884,113.2c.117.141.929-.377,2.023-.3,1.1.062,1.862.679,1.99.553.062-.055-.049-.3-.383-.582a2.793,2.793,0,0,0-1.581-.607,2.691,2.691,0,0,0-1.622.4C258.957,112.9,258.826,113.136,258.884,113.2Z" transform="translate(-258.871 -112.258)" fill="#263238"/>
                                        </g>
                                      </g>
                                    </g>
                                  </g>
                                </g>
                              </g>
                            </g>
                          </g>
                        </g>
                      </g>
                    </g>
                  </g>
                </g>
                <g id="Group_157851" data-name="Group 157851" transform="translate(6.569 13.026)">
                  <g id="Group_157850" data-name="Group 157850">
                    <g id="Group_157849" data-name="Group 157849">
                      <g id="Group_157848" data-name="Group 157848">
                        <g id="Group_157847" data-name="Group 157847">
                          <g id="Group_157846" data-name="Group 157846">
                            <g id="Group_157845" data-name="Group 157845">
                              <g id="Group_157844" data-name="Group 157844">
                                <g id="Group_157843" data-name="Group 157843">
                                  <g id="Group_157842" data-name="Group 157842">
                                    <g id="Group_157841" data-name="Group 157841">
                                      <g id="Group_157840" data-name="Group 157840">
                                        <path id="Path_266626" data-name="Path 266626" d="M249.6,115.461a7.256,7.256,0,0,0-1.663-.722c-.267-.092-.512-.207-.514-.4a1.429,1.429,0,0,1,.372-.767l1.3-1.89a36.728,36.728,0,0,0,3.09-5.013,36.687,36.687,0,0,0-3.487,4.752q-.661,1-1.264,1.91a1.621,1.621,0,0,0-.393,1.038.7.7,0,0,0,.355.5,1.872,1.872,0,0,0,.448.173A7.182,7.182,0,0,0,249.6,115.461Z" transform="translate(-247.035 -106.665)" fill="#263238"/>
                                      </g>
                                    </g>
                                  </g>
                                </g>
                              </g>
                            </g>
                          </g>
                        </g>
                      </g>
                    </g>
                  </g>
                </g>
                <g id="Group_157862" data-name="Group 157862" transform="translate(4.798 33.969)">
                  <g id="Group_157861" data-name="Group 157861">
                    <g id="Group_157860" data-name="Group 157860">
                      <g id="Group_157859" data-name="Group 157859">
                        <g id="Group_157858" data-name="Group 157858">
                          <g id="Group_157857" data-name="Group 157857">
                            <g id="Group_157856" data-name="Group 157856">
                              <g id="Group_157855" data-name="Group 157855">
                                <g id="Group_157854" data-name="Group 157854">
                                  <g id="Group_157853" data-name="Group 157853">
                                    <g id="Group_157852" data-name="Group 157852">
                                      <path id="Path_266627" data-name="Path 266627" d="M244.447,141.843a21.071,21.071,0,0,0,11.295-.286s-3.8,4.839-11.657,2.247Z" transform="translate(-244.085 -141.557)" fill="#eb996e"/>
                                    </g>
                                  </g>
                                </g>
                              </g>
                            </g>
                          </g>
                        </g>
                      </g>
                    </g>
                  </g>
                </g>
                <g id="Group_157863" data-name="Group 157863" transform="translate(8.487 23.716)">
                  <path id="Path_266628" data-name="Path 266628" d="M250.314,127.277c-.1-.134.047.161,0,0Z" transform="translate(-250.249 -125.581)" fill="#eb996e"/>
                  <path id="Path_266629" data-name="Path 266629" d="M253.784,125.649A2.015,2.015,0,0,0,252.6,124.6a2.209,2.209,0,0,0-2.116.346,1.366,1.366,0,0,0-.188,1.222c.378.483.414.893.945,1.188a2.764,2.764,0,0,0,2.3-.267A1.278,1.278,0,0,0,253.784,125.649Z" transform="translate(-250.231 -124.475)" fill="#eb996e"/>
                </g>
                <g id="Group_157875" data-name="Group 157875" transform="translate(8.035 23.298)">
                  <g id="Group_157874" data-name="Group 157874">
                    <g id="Group_157873" data-name="Group 157873">
                      <g id="Group_157872" data-name="Group 157872">
                        <g id="Group_157871" data-name="Group 157871">
                          <g id="Group_157870" data-name="Group 157870">
                            <g id="Group_157869" data-name="Group 157869">
                              <g id="Group_157868" data-name="Group 157868">
                                <g id="Group_157867" data-name="Group 157867">
                                  <g id="Group_157866" data-name="Group 157866">
                                    <g id="Group_157865" data-name="Group 157865">
                                      <g id="Group_157864" data-name="Group 157864">
                                        <path id="Path_266630" data-name="Path 266630" d="M253.553,123.781c-.172-.051-.446,1.109-1.633,1.7s-2.392.173-2.439.333c-.033.069.223.29.742.427a2.968,2.968,0,0,0,2.02-.212,2.587,2.587,0,0,0,1.3-1.443C253.7,124.11,253.634,123.792,253.553,123.781Z" transform="translate(-249.477 -123.779)" fill="#263238"/>
                                      </g>
                                    </g>
                                  </g>
                                </g>
                              </g>
                            </g>
                          </g>
                        </g>
                      </g>
                    </g>
                  </g>
                </g>
                <g id="Group_157883" data-name="Group 157883" transform="translate(15.888 11.432)">
                  <g id="Group_157882" data-name="Group 157882">
                    <g id="Group_157881" data-name="Group 157881">
                      <g id="Group_157880" data-name="Group 157880">
                        <g id="Group_157879" data-name="Group 157879">
                          <g id="Group_157878" data-name="Group 157878">
                            <g id="Group_157877" data-name="Group 157877">
                              <g id="Group_157876" data-name="Group 157876">
                                <path id="Path_266631" data-name="Path 266631" d="M262.563,104.245c-.058.307.839.625,1.741,1.282.917.635,1.526,1.387,1.782,1.22.118-.083.113-.4-.069-.828a3.276,3.276,0,0,0-1.1-1.321,3.111,3.111,0,0,0-1.585-.585C262.886,103.99,262.6,104.1,262.563,104.245Z" transform="translate(-262.561 -104.01)" fill="#263238"/>
                              </g>
                            </g>
                          </g>
                        </g>
                      </g>
                    </g>
                  </g>
                </g>
                <g id="Group_157891" data-name="Group 157891" transform="translate(4.163 9.189)">
                  <g id="Group_157890" data-name="Group 157890">
                    <g id="Group_157889" data-name="Group 157889">
                      <g id="Group_157888" data-name="Group 157888">
                        <g id="Group_157887" data-name="Group 157887">
                          <g id="Group_157886" data-name="Group 157886">
                            <g id="Group_157885" data-name="Group 157885">
                              <g id="Group_157884" data-name="Group 157884">
                                <path id="Path_266632" data-name="Path 266632" d="M243.068,101.627c.239.227,1.057-.111,2.07-.22,1.008-.141,1.888-.013,2.061-.291.074-.134-.085-.37-.483-.57a3.315,3.315,0,0,0-3.328.412C243.054,101.248,242.961,101.515,243.068,101.627Z" transform="translate(-243.026 -100.274)" fill="#263238"/>
                              </g>
                            </g>
                          </g>
                        </g>
                      </g>
                    </g>
                  </g>
                </g>
                <path id="Path_266633" data-name="Path 266633" d="M277.5,94.256a3.108,3.108,0,0,0-1.5-1.334A100.454,100.454,0,0,0,263.917,87.3l-1.706.965a8.467,8.467,0,0,0,4.14,8.453c1.165.649,2.678,1.258,2.829,2.583.156,1.373-1.283,2.31-2.1,3.426a4.333,4.333,0,0,0-.134,4.786c.524.809,1.315,1.425,1.795,2.261a4.279,4.279,0,0,1,.16,3.7,7.578,7.578,0,0,1-2.386,3.45,7.343,7.343,0,0,0,7.858-3.313,11.7,11.7,0,0,0,1.1-5.218,67.023,67.023,0,0,1,1.939-12.1A3.23,3.23,0,0,0,277.5,94.256Z" transform="translate(-246.498 -85.899)" fill="#263238"/>
                <g id="Group_157897" data-name="Group 157897" transform="translate(0.637)">
                  <g id="Group_157896" data-name="Group 157896">
                    <g id="Group_157895" data-name="Group 157895">
                      <g id="Group_157894" data-name="Group 157894">
                        <g id="Group_157893" data-name="Group 157893">
                          <g id="Group_157892" data-name="Group 157892">
                            <path id="Path_266634" data-name="Path 266634" d="M254.206,86.554a16.7,16.7,0,0,1-3.744,3.6,5.651,5.651,0,0,1-4.974.7l1.212-1.337a25.084,25.084,0,0,1-9.549,3.948c2.149-2.612,4.365-5.28,7.3-6.966s6.782-2.2,9.648-.408" transform="translate(-237.152 -84.965)" fill="#263238"/>
                          </g>
                        </g>
                      </g>
                    </g>
                  </g>
                </g>
              </g>
            </g>
          </g>
          <path id="Path_266635" data-name="Path 266635" d="M277.619,112.9l-9.15,7.108c1.049,1.142.639,4.061-.39,5.222s-2.4,2.148-2.8,3.645c-.444,1.64.426,3.339.451,5.038.035,2.405-1.582,4.464-2.83,6.52s-2.146,4.8-.756,6.762c1.565,2.209,5.115,1.893,7.258.239s3.367-4.195,4.96-6.384,4.076-3.859,6.769-3.586A51.8,51.8,0,0,0,277.619,112.9Z" transform="translate(-229.027 -92.415)" fill="#263238"/>
          <g id="Group_157901" data-name="Group 157901" transform="translate(34.083 8.25)">
            <path id="Path_266636" data-name="Path 266636" d="M280.261,124.564c-.056-.1.484-.493,1.41-1.233a18.224,18.224,0,0,0,3.455-3.508,11.519,11.519,0,0,0,1.546-2.932,9.354,9.354,0,0,0,.541-3.676,8.3,8.3,0,0,0-1.259-3.831,12.884,12.884,0,0,0-3.038-3.276,35.9,35.9,0,0,0-7.974-4.144,28.789,28.789,0,0,1-6.713-3.686,12.277,12.277,0,0,1-3.415-3.934c-.557-1.11-.65-1.8-.563-1.826.115-.044.4.559,1.082,1.507a14.216,14.216,0,0,0,3.55,3.362,32.145,32.145,0,0,0,6.609,3.246c1.312.523,2.71,1.062,4.138,1.728a21.552,21.552,0,0,1,4.245,2.514,13.927,13.927,0,0,1,3.387,3.713,9.544,9.544,0,0,1,1.39,4.558,10.324,10.324,0,0,1-.767,4.2A11.9,11.9,0,0,1,286,120.5a14.744,14.744,0,0,1-3.986,3.335C280.953,124.438,280.31,124.652,280.261,124.564Z" transform="translate(-264.223 -92.514)" fill="#263238"/>
          </g>
          <g id="Group_157902" data-name="Group 157902" transform="translate(36.061 4.715)">
            <path id="Path_266637" data-name="Path 266637" d="M281.751,100.634a4.289,4.289,0,0,1-.8-.26c-.5-.187-1.23-.467-2.118-.84a26.913,26.913,0,0,1-6.54-3.721,13.323,13.323,0,0,1-4.343-6.1,8.885,8.885,0,0,1-.424-2.251,5.248,5.248,0,0,1,0-.622c.006-.142.014-.217.025-.217a12.235,12.235,0,0,0,4.943,8.947,29.575,29.575,0,0,0,6.43,3.761l2.076.93A4.269,4.269,0,0,1,281.751,100.634Z" transform="translate(-267.518 -86.624)" fill="#455a64"/>
          </g>
          <g id="Group_157903" data-name="Group 157903" transform="translate(35.308 7.177)">
            <path id="Path_266638" data-name="Path 266638" d="M281.537,111.386c-.034-.013.148-.361.245-1.037a5.094,5.094,0,0,0-.484-2.8,8.045,8.045,0,0,0-2.774-3.194c-1.315-.952-2.949-1.712-4.581-2.686a16.364,16.364,0,0,1-4.089-3.45,16.772,16.772,0,0,1-2.382-3.663,15.033,15.033,0,0,1-1-2.768c-.095-.334-.133-.6-.17-.782a.954.954,0,0,1-.034-.277,10.18,10.18,0,0,1,.321,1.026,17.151,17.151,0,0,0,3.484,6.277,16.554,16.554,0,0,0,4.032,3.37c1.61.961,3.254,1.735,4.588,2.72a8.113,8.113,0,0,1,2.808,3.337,5.019,5.019,0,0,1,.4,2.911,3.153,3.153,0,0,1-.234.77A.948.948,0,0,1,281.537,111.386Z" transform="translate(-266.264 -90.727)" fill="#455a64"/>
          </g>
          <g id="Group_157904" data-name="Group 157904" transform="translate(0 2.444)">
            <path id="Path_266639" data-name="Path 266639" d="M207.442,102.129s.014-.036.055-.1a2.145,2.145,0,0,1,.2-.265,2.674,2.674,0,0,1,1.021-.755,6.022,6.022,0,0,1,1.978-.342c.773-.046,1.664-.1,2.642-.1a14.341,14.341,0,0,0,3.152-.291,7.786,7.786,0,0,0,3.164-1.667,13.884,13.884,0,0,0,2.579-3.058,41.545,41.545,0,0,0,2.062-3.818,31.031,31.031,0,0,1,2.157-3.809,11.678,11.678,0,0,1,2.835-2.948,11.846,11.846,0,0,1,6.511-2.128,11.2,11.2,0,0,1,4.565.8l.668.3.466.262a2.271,2.271,0,0,1,.373.234,2.4,2.4,0,0,1-.4-.179l-.476-.233-.673-.268a11.5,11.5,0,0,0-4.514-.7,11.75,11.75,0,0,0-6.351,2.141A11.489,11.489,0,0,0,226.7,88.1a31.484,31.484,0,0,0-2.129,3.774,40.848,40.848,0,0,1-2.083,3.843,14.04,14.04,0,0,1-2.651,3.112,8,8,0,0,1-3.29,1.7,14.243,14.243,0,0,1-3.21.26c-.98-.013-1.857.028-2.636.058a6.132,6.132,0,0,0-1.941.28,2.776,2.776,0,0,0-1.02.684C207.542,102.013,207.454,102.138,207.442,102.129Z" transform="translate(-207.441 -82.841)" fill="#455a64"/>
          </g>
        </g>
        <g id="Group_157909" data-name="Group 157909">
          <path id="Path_266640" data-name="Path 266640" d="M190.5,85.006c-3.609-9.094-8.379-18.008-9.063-24.79l-7.176.293c.154,2.62,1.092,24.455,6.178,33.086S202.5,122.41,202.5,122.41l5.972-15.363S194.114,94.1,190.5,85.006Z" transform="translate(-174.248 -43.907)" fill="#ffbe9d"/>
          <path id="Path_266641" data-name="Path 266641" d="M179.312,36.7h-3.14s.3,1.848,1.729,1.95,1.144-.219,1.144-.219l-.319.289-1.958.388s.1,1.526,1.391,1.764l1.9-1.764Z" transform="translate(-175.009 -34.506)" fill="#ffbe9d"/>
          <path id="Path_266642" data-name="Path 266642" d="M187.131,34.965a11.668,11.668,0,0,1-.321,2.218l-2.869,2.367-.729-3.485a1.073,1.073,0,0,0-.984-.851l-1.306-.082s.508-1.811-1.13-1.652c0,0-.9-.246-1.627,2.771-.792,3.29-4.211,11.034-3.912,13.625l7.276.289c-.076-2.415,1.907-4.963,2.882-6.065a2.64,2.64,0,0,0,.607-1.16,3.578,3.578,0,0,1,.816-1.6c.9-1,2.791-2.791,2.791-2.791V33.07S187.409,32.681,187.131,34.965Zm-5.846,5.294-1.492.678.251-1.526,1.241-.122Z" transform="translate(-174.235 -33.045)" fill="#ffbe9d"/>
          <g id="Group_157906" data-name="Group 157906" transform="translate(2.548 0.224)">
            <path id="Path_266643" data-name="Path 266643" d="M181.423,41.246a2.535,2.535,0,0,1,.073-.643c.067-.411.173-1,.312-1.732.148-.755.317-1.616.5-2.56a10.286,10.286,0,0,0,.247-1.49c.013-.487-.181-1.049-.7-1.079-.489-.088-.908.325-1.155.753a3.209,3.209,0,0,0-.289.7l-.235.714-.78,2.489c-.233.707-.449,1.271-.615,1.654a2.343,2.343,0,0,1-.294.578,2.92,2.92,0,0,1,.18-.621c.13-.394.313-.964.517-1.676l.717-2.51.227-.722a3.472,3.472,0,0,1,.308-.756,2.271,2.271,0,0,1,.563-.664,1.182,1.182,0,0,1,.9-.243,1.2,1.2,0,0,1,.459.162.99.99,0,0,1,.322.366,1.75,1.75,0,0,1,.183.865,9.869,9.869,0,0,1-.271,1.543c-.209.939-.4,1.8-.567,2.546-.166.724-.306,1.309-.409,1.711A2.583,2.583,0,0,1,181.423,41.246Z" transform="translate(-178.48 -33.419)" fill="#eb996e"/>
          </g>
          <g id="Group_157907" data-name="Group 157907" transform="translate(6.26 4.087)">
            <path id="Path_266644" data-name="Path 266644" d="M185.381,43a12.334,12.334,0,0,1-.086-1.766c-.016-.241-.036-.47-.058-.679s-.045-.361-.136-.435c-.2-.151-.451-.153-.436-.207,0-.021.05-.042.145-.053a.673.673,0,0,1,.42.08.765.765,0,0,1,.293.574,6,6,0,0,1,.085.7A3.332,3.332,0,0,1,185.381,43Z" transform="translate(-184.664 -39.853)" fill="#eb996e"/>
          </g>
          <g id="Group_157908" data-name="Group 157908" transform="translate(5.398 5.884)">
            <path id="Path_266645" data-name="Path 266645" d="M188.37,42.853c.026.033-.2.267-.589.607a7.461,7.461,0,0,1-1.708,1.128,5.713,5.713,0,0,1-2,.474,2.143,2.143,0,0,1-.846-.022,2.516,2.516,0,0,1,.819-.2,7.666,7.666,0,0,0,1.9-.539,11.55,11.55,0,0,0,1.7-1.019C188.071,42.992,188.343,42.818,188.37,42.853Z" transform="translate(-183.228 -42.849)" fill="#eb996e"/>
          </g>
        </g>
        <g id="Group_157915" data-name="Group 157915" transform="translate(63.763 51.494)">
          <path id="Path_266646" data-name="Path 266646" d="M284.286,148.105s8.075-.241,12.917-1.675,23.432-5.863,23.432-5.863l29.79-4.971.588,7.711s-27.687,8.1-33.068,9.942-29.967,10.274-34.6,9.207l-2.879-5.927Z" transform="translate(-280.463 -125.535)" fill="#ffbe9d"/>
          <g id="Group_157914" data-name="Group 157914" transform="translate(69.142)">
            <path id="Path_266647" data-name="Path 266647" d="M410.791,119.835a12.059,12.059,0,0,0-2.9.99,1.608,1.608,0,0,0,.051-1.991l-3.315,1.626a33.909,33.909,0,0,1-2.767,2.511,37.94,37.94,0,0,0-4.228,4.568l-1.978,1.841,1.228,7.3a6.14,6.14,0,0,0,2.591-.341,10.755,10.755,0,0,0,2.523-2.387l2.829-.241a1.58,1.58,0,0,0,.9-.354,2.354,2.354,0,0,0,.7-1.929c1.773-1.023.75-2.318.75-2.318a2.223,2.223,0,0,0,1.453-.8,1.356,1.356,0,0,0-.089-1.585c-.341-.613-2.932-.409-2.932-.409l-.137-.75s3.96-3.148,4.846-3.83S411.247,119.937,410.791,119.835Z" transform="translate(-395.653 -118.834)" fill="#ffbe9d"/>
            <g id="Group_157910" data-name="Group 157910" transform="translate(4.982 1.918)">
              <path id="Path_266648" data-name="Path 266648" d="M411.258,122.03a4.288,4.288,0,0,1-1.219,1.453,14.679,14.679,0,0,0-1.45,1.414,6,6,0,0,0-1.058,2.189,11.906,11.906,0,0,1-.893,2.369,8.178,8.178,0,0,1-1.2,1.69,7.212,7.212,0,0,1-1.04.929,1.4,1.4,0,0,1-.441.261c-.034-.044.567-.458,1.315-1.337a8.877,8.877,0,0,0,1.113-1.677,12.911,12.911,0,0,0,.849-2.328,6,6,0,0,1,1.136-2.282,12.462,12.462,0,0,1,1.526-1.4A16.5,16.5,0,0,0,411.258,122.03Z" transform="translate(-403.954 -122.03)" fill="#eb996e"/>
            </g>
            <g id="Group_157911" data-name="Group 157911" transform="translate(5.458 10.491)">
              <path id="Path_266649" data-name="Path 266649" d="M410.118,138.381a4.3,4.3,0,0,1-1.325.624,6.43,6.43,0,0,1-1.571.324,5.505,5.505,0,0,1-.956-.012,2.07,2.07,0,0,1-1.01-.346,1.168,1.168,0,0,1-.507-.985,1.474,1.474,0,0,1,.531-.875,1.75,1.75,0,0,1,.781-.439c.26-.071.5-.124.722-.17a4.088,4.088,0,0,1,1.452-.166c0,.033-.537.141-1.4.381-.215.059-.451.125-.7.2a1.51,1.51,0,0,0-.66.4,1.264,1.264,0,0,0-.422.681.879.879,0,0,0,.385.716,3.018,3.018,0,0,0,1.765.323,7.214,7.214,0,0,0,1.525-.249C409.584,138.556,410.1,138.334,410.118,138.381Z" transform="translate(-404.746 -136.313)" fill="#eb996e"/>
            </g>
            <g id="Group_157912" data-name="Group 157912" transform="translate(7.784 7.516)">
              <path id="Path_266650" data-name="Path 266650" d="M412.434,134.1a2.451,2.451,0,0,1-1.02.309,6.6,6.6,0,0,1-1.16.083,1.778,1.778,0,0,1-1.383-.532,1.375,1.375,0,0,1-.059-1.487,1.978,1.978,0,0,1,.884-.815,2.185,2.185,0,0,1,1.029-.3c.019.05-.378.17-.921.489a1.884,1.884,0,0,0-.735.752,1.115,1.115,0,0,0,.046,1.161,1.567,1.567,0,0,0,1.151.439,8.678,8.678,0,0,0,1.121-.015A6.793,6.793,0,0,1,412.434,134.1Z" transform="translate(-408.622 -131.356)" fill="#eb996e"/>
            </g>
            <g id="Group_157913" data-name="Group 157913" transform="translate(5.892 13.312)">
              <path id="Path_266651" data-name="Path 266651" d="M409.231,142.465a2.707,2.707,0,0,1-.832.258,7.15,7.15,0,0,1-2.1.253.816.816,0,0,1-.643-.275.919.919,0,0,1-.184-.622,1.163,1.163,0,0,1,.505-.885c.525-.32.912-.125.886-.1a1.758,1.758,0,0,0-.754.279.978.978,0,0,0-.349.719.649.649,0,0,0,.133.417.519.519,0,0,0,.424.156,10.406,10.406,0,0,0,2.043-.158A2.253,2.253,0,0,1,409.231,142.465Z" transform="translate(-405.468 -141.012)" fill="#eb996e"/>
            </g>
          </g>
        </g>
        <g id="Group_157928" data-name="Group 157928" transform="translate(23.472 61.756)">
          <g id="Group_157916" data-name="Group 157916" transform="translate(15.397 34.991)">
            <path id="Path_266652" data-name="Path 266652" d="M253.991,197.131a2.308,2.308,0,0,1-.562.325,10.551,10.551,0,0,1-1.654.632,12.5,12.5,0,0,1-5.809.285,12.234,12.234,0,0,1-5.289-2.418,10.168,10.168,0,0,1-1.29-1.213,2.294,2.294,0,0,1-.394-.516c.043-.041.633.676,1.819,1.554a12.931,12.931,0,0,0,5.213,2.287,13.246,13.246,0,0,0,5.692-.191C253.146,197.508,253.967,197.077,253.991,197.131Z" transform="translate(-238.991 -194.223)" fill="#ff725e"/>
          </g>
          <path id="Path_266653" data-name="Path 266653" d="M230.107,151.631s18.992-6.074,19.7-6.263,17.458,1.3,17.458,1.3-.721,11.1,3.517,14.688h0l-12.32,4.445L254.575,176.5s-2.167,4.359-.445,8.447c3.26,7.738,8.918,19.946,8.081,21.343-.088.146-.573-4.231-8.636-6.51-2.435-.688-6.863-.7-10.863.109-17.229,3.471-23.877,11.427-25.84,12.791,0,0,3.546-27.832,1.87-32.177s-3.45-7.18-2.07-11.053,3.455-10.045,3.455-10.045l-6.786-7.7,9.485-15.77,8.675,7.194Z" transform="translate(-213.34 -135.929)" fill="#20cb7d"/>
          <g id="Group_157917" data-name="Group 157917" transform="translate(12.317 31.097)">
            <path id="Path_266654" data-name="Path 266654" d="M244.621,198.129a2.3,2.3,0,0,1-.653.029,9.821,9.821,0,0,1-1.768-.227,11,11,0,0,1-5.175-2.716,10.276,10.276,0,0,1-2.921-5.058,8.7,8.7,0,0,1-.241-1.768,2.267,2.267,0,0,1,.032-.653,22.058,22.058,0,0,0,.423,2.366,10.657,10.657,0,0,0,2.923,4.886,11.479,11.479,0,0,0,5.011,2.728C243.689,198.081,244.625,198.069,244.621,198.129Z" transform="translate(-233.86 -187.736)" fill="#263238"/>
          </g>
          <g id="Group_157918" data-name="Group 157918" transform="translate(5.24 17.957)">
            <path id="Path_266655" data-name="Path 266655" d="M222.076,165.846a7.525,7.525,0,0,1,1.005,6.789,16.671,16.671,0,0,0,.007-3.47A17.153,17.153,0,0,0,222.076,165.846Z" transform="translate(-222.07 -165.844)" fill="#263238"/>
          </g>
          <g id="Group_157919" data-name="Group 157919" transform="translate(41.912 21.246)">
            <path id="Path_266656" data-name="Path 266656" d="M286.806,171.327c.029.046-.392.321-.967.875a8.247,8.247,0,0,0-1.77,2.531,7.877,7.877,0,0,0-.675,3.01c-.014.8.08,1.293.026,1.3a3.243,3.243,0,0,1-.247-1.3,7.018,7.018,0,0,1,.61-3.139,7.281,7.281,0,0,1,1.906-2.567A3.359,3.359,0,0,1,286.806,171.327Z" transform="translate(-283.165 -171.325)" fill="#263238"/>
          </g>
          <g id="Group_157920" data-name="Group 157920" transform="translate(13.399 35.537)" opacity="0.3">
            <path id="Path_266657" data-name="Path 266657" d="M242.521,200.673a8.72,8.72,0,0,1-4.751-2.691,9.732,9.732,0,0,1-2.061-2.849c-.432,1.885,2.188,5.226,4.746,6.454a9.213,9.213,0,0,0,8.235-.223A31.015,31.015,0,0,1,242.521,200.673Z" transform="translate(-235.663 -195.133)"/>
          </g>
          <g id="Group_157921" data-name="Group 157921" transform="translate(4.64 52.931)">
            <path id="Path_266658" data-name="Path 266658" d="M259.95,226.05c-.022.033-.5-.34-1.484-.786a11.309,11.309,0,0,0-4.436-.924,16.482,16.482,0,0,0-6.585,1.337,42.723,42.723,0,0,0-7.206,4.133,75.982,75.982,0,0,1-13.269,7.361c-1.788.765-3.264,1.311-4.291,1.667-.512.181-.915.307-1.188.393a2.307,2.307,0,0,1-.421.114,2.3,2.3,0,0,1,.4-.174l1.166-.448c1.013-.39,2.474-.966,4.244-1.754a81.353,81.353,0,0,0,13.184-7.419,41.708,41.708,0,0,1,7.27-4.14,16.4,16.4,0,0,1,6.7-1.291,10.994,10.994,0,0,1,4.481,1.035A6.806,6.806,0,0,1,259.95,226.05Z" transform="translate(-221.071 -224.11)" fill="#fff"/>
          </g>
          <g id="Group_157922" data-name="Group 157922" transform="translate(5.522 42.597)">
            <path id="Path_266659" data-name="Path 266659" d="M257.1,209.215a10.89,10.89,0,0,0-1.14-.888,8,8,0,0,0-3.7-1.167,12.739,12.739,0,0,0-5.678,1.047,68.331,68.331,0,0,0-6.429,3.2,61.094,61.094,0,0,1-6.5,3.136,24.547,24.547,0,0,1-5.7,1.525,16.377,16.377,0,0,1-3.977.065c-.467-.061-.827-.116-1.068-.173a1.647,1.647,0,0,1-.365-.095c.005-.03.514.071,1.444.147a17.731,17.731,0,0,0,3.935-.163,25.28,25.28,0,0,0,5.624-1.573,64.627,64.627,0,0,0,6.46-3.143,64.327,64.327,0,0,1,6.471-3.2,12.728,12.728,0,0,1,5.8-1,7.836,7.836,0,0,1,3.753,1.286A4.224,4.224,0,0,1,257.1,209.215Z" transform="translate(-222.539 -206.894)" fill="#fff"/>
          </g>
          <g id="Group_157923" data-name="Group 157923" transform="translate(2.914 37.351)">
            <path id="Path_266660" data-name="Path 266660" d="M230.008,198.159c.012.017-.124.128-.383.313a3.814,3.814,0,0,1-.489.312,6.458,6.458,0,0,1-.681.358,10.023,10.023,0,0,1-1.89.669,10.935,10.935,0,0,1-4.881.071,10.1,10.1,0,0,1-1.908-.612,6.559,6.559,0,0,1-.691-.337,4.015,4.015,0,0,1-.5-.3c-.265-.178-.4-.283-.393-.3.031-.05.621.331,1.665.73a11.436,11.436,0,0,0,1.882.534,11.693,11.693,0,0,0,4.758-.069,11.491,11.491,0,0,0,1.866-.59C229.4,198.509,229.976,198.11,230.008,198.159Z" transform="translate(-218.194 -198.155)" fill="#fff"/>
          </g>
          <g id="Group_157924" data-name="Group 157924" transform="translate(13.359 34.061)">
            <path id="Path_266661" data-name="Path 266661" d="M265.184,194.459a1.138,1.138,0,0,1-.235.2,5.071,5.071,0,0,1-.753.479,8.328,8.328,0,0,1-3.146.9,14.273,14.273,0,0,1-4.836-.446c-1.782-.43-3.664-1.134-5.676-1.7a25.926,25.926,0,0,0-10.6-.685,26.936,26.936,0,0,0-3.181.654,11.608,11.608,0,0,1-1.158.3,1.142,1.142,0,0,1,.285-.125c.191-.069.469-.182.839-.292a22.32,22.32,0,0,1,3.182-.756,25.039,25.039,0,0,1,10.72.6c2.032.573,3.9,1.283,5.662,1.723a14.518,14.518,0,0,0,4.746.5,8.721,8.721,0,0,0,3.111-.792C264.828,194.7,265.165,194.432,265.184,194.459Z" transform="translate(-235.596 -192.674)" fill="#fff"/>
          </g>
          <g id="Group_157925" data-name="Group 157925" transform="translate(5.434 23.451)">
            <path id="Path_266662" data-name="Path 266662" d="M259.406,178.386a1.837,1.837,0,0,1-.382.059c-.252.026-.625.069-1.107.105a21.052,21.052,0,0,1-4.076-.29c-1.706-.275-3.7-.783-5.895-1.379a45.073,45.073,0,0,0-7.212-1.5,19.108,19.108,0,0,0-1.926-.062c-.316.011-.631.008-.942.03l-.921.11a17.046,17.046,0,0,0-3.427.861c-2.134.756-4,1.624-5.638,2.177a15.322,15.322,0,0,1-3.99.878,7.152,7.152,0,0,1-1.112.006,1.838,1.838,0,0,1-.385-.036,1.811,1.811,0,0,1,.387-.027,9.4,9.4,0,0,0,1.1-.064,16.41,16.41,0,0,0,3.926-.965c1.616-.575,3.465-1.462,5.616-2.241a17.042,17.042,0,0,1,3.48-.892l.939-.115c.317-.023.638-.022.96-.034a19.21,19.21,0,0,1,1.959.063,43.414,43.414,0,0,1,7.26,1.53c2.192.611,4.168,1.138,5.857,1.439a23.3,23.3,0,0,0,4.036.387l1.1-.046A1.786,1.786,0,0,1,259.406,178.386Z" transform="translate(-222.393 -174.998)" fill="#fff"/>
          </g>
          <g id="Group_157926" data-name="Group 157926" transform="translate(46.23 10.734)">
            <path id="Path_266663" data-name="Path 266663" d="M292.563,153.812a27.4,27.4,0,0,0-1.136,2.5,12.867,12.867,0,0,0-.584,6.487,13.165,13.165,0,0,0,2.719,5.924c1.065,1.318,1.924,1.949,1.884,2a2.938,2.938,0,0,1-.607-.43,11.6,11.6,0,0,1-1.447-1.424,12.682,12.682,0,0,1-2.857-6.012,12.408,12.408,0,0,1,.686-6.618,11.169,11.169,0,0,1,.906-1.818A2.93,2.93,0,0,1,292.563,153.812Z" transform="translate(-290.358 -153.811)" fill="#fff"/>
          </g>
          <g id="Group_157927" data-name="Group 157927" transform="translate(4.896 7.309)">
            <path id="Path_266664" data-name="Path 266664" d="M233.355,153.417a1.8,1.8,0,0,1-.533.121,14.649,14.649,0,0,1-1.478.158,7.789,7.789,0,0,1-2.217-.171,4.924,4.924,0,0,1-2.373-1.352c-.694-.684-1.222-1.43-1.759-2.047a6.7,6.7,0,0,0-1.616-1.406,4.086,4.086,0,0,0-1.884-.549,1.223,1.223,0,0,1,.547-.065,3.377,3.377,0,0,1,1.444.421,6.472,6.472,0,0,1,1.725,1.409c.559.619,1.094,1.358,1.761,2.014a4.776,4.776,0,0,0,2.225,1.3,8.29,8.29,0,0,0,2.14.229C232.577,153.452,233.35,153.364,233.355,153.417Z" transform="translate(-221.496 -148.106)" fill="#fff"/>
          </g>
        </g>
      </g>
    </g>
    <g id="Floor" transform="translate(162.993 268.444)">
      <g id="Group_157932" data-name="Group 157932" transform="translate(0 0)">
        <path id="Path_266667" data-name="Path 266667" d="M315.387,477c0,.076-34.117.138-76.193.138s-76.2-.062-76.2-.138,34.11-.138,76.2-.138S315.387,476.929,315.387,477Z" transform="translate(-162.993 -476.867)" fill="#263238"/>
      </g>
    </g>
  </g>
</svg>
