<svg xmlns="http://www.w3.org/2000/svg" xmlns:xlink="http://www.w3.org/1999/xlink" width="316.137" height="299.338" viewBox="0 0 316.137 299.338">
  <defs>
    <linearGradient id="linear-gradient" x1="0.5" x2="0.5" y2="1" gradientUnits="objectBoundingBox">
      <stop offset="0" stop-color="#7e89be"/>
      <stop offset="1" stop-color="#29398a"/>
    </linearGradient>
    <linearGradient id="linear-gradient-2" x1="0.5" x2="0.5" y2="1" gradientUnits="objectBoundingBox">
      <stop offset="0" stop-color="#ba68c8"/>
      <stop offset="0.19" stop-color="#9139af"/>
      <stop offset="0.31" stop-color="#7b1fa2"/>
      <stop offset="1" stop-color="#45147b"/>
    </linearGradient>
  </defs>
  <g id="_13" data-name="13" transform="translate(-998.345 -759.564)">
    <g id="Group_79644" data-name="Group 79644" transform="translate(985 770)" opacity="0.76">
      <path id="Path_145969" data-name="Path 145969" d="M44.946,0A44.946,44.946,0,1,0,89.892,44.946,44.946,44.946,0,0,0,44.946,0Z" transform="translate(25.222 19.725)" opacity="0.6" fill="url(#linear-gradient)" style="mix-blend-mode: multiply;isolation: isolate"/>
      <path id="Path_145971" data-name="Path 145971" d="M28.411,0A28.411,28.411,0,1,0,56.822,28.411,28.411,28.411,0,0,0,28.411,0Z" transform="translate(13.345 198.32)" fill="#fda929" opacity="0.444" style="mix-blend-mode: multiply;isolation: isolate"/>
      <g id="Group_145732" data-name="Group 145732" transform="translate(197.928 109.616)">
        <path id="Path_145968" data-name="Path 145968" d="M65.777,0a65.777,65.777,0,1,0,65.777,65.777A65.777,65.777,0,0,0,65.777,0Z" opacity="0.444" fill="url(#linear-gradient-2)" style="mix-blend-mode: multiply;isolation: isolate"/>
        <g id="Group_78276" data-name="Group 78276" transform="translate(24.727 27.121)">
          <g id="Group_53306" data-name="Group 53306" transform="translate(0)">
            <path id="Path_99200" data-name="Path 99200" d="M414.214,51.078a.894.894,0,1,0,.894-.854A.874.874,0,0,0,414.214,51.078Z" transform="translate(-333.828 -50.224)" fill="url(#linear-gradient-2)"/>
            <path id="Path_99201" data-name="Path 99201" d="M422.66,51.078a.894.894,0,1,0,.893-.854A.874.874,0,0,0,422.66,51.078Z" transform="translate(-350.313 -50.224)" fill="url(#linear-gradient-2)"/>
            <path id="Path_99202" data-name="Path 99202" d="M431.106,51.078a.894.894,0,1,0,.893-.854A.874.874,0,0,0,431.106,51.078Z" transform="translate(-366.797 -50.224)" fill="url(#linear-gradient-2)"/>
            <path id="Path_99203" data-name="Path 99203" d="M439.553,51.078a.894.894,0,1,0,.894-.854A.874.874,0,0,0,439.553,51.078Z" transform="translate(-383.283 -50.224)" fill="url(#linear-gradient-2)"/>
            <path id="Path_99204" data-name="Path 99204" d="M448,51.078a.894.894,0,1,0,.893-.854A.874.874,0,0,0,448,51.078Z" transform="translate(-399.767 -50.224)" fill="url(#linear-gradient-2)"/>
            <path id="Path_99205" data-name="Path 99205" d="M456.445,51.078a.894.894,0,1,0,.893-.854A.874.874,0,0,0,456.445,51.078Z" transform="translate(-416.252 -50.224)" fill="url(#linear-gradient-2)"/>
            <path id="Path_99206" data-name="Path 99206" d="M464.892,51.078a.894.894,0,1,0,.894-.854A.875.875,0,0,0,464.892,51.078Z" transform="translate(-432.738 -50.224)" fill="url(#linear-gradient-2)"/>
            <path id="Path_99207" data-name="Path 99207" d="M473.338,51.078a.894.894,0,1,0,.893-.854A.874.874,0,0,0,473.338,51.078Z" transform="translate(-449.222 -50.224)" fill="url(#linear-gradient-2)"/>
            <path id="Path_99208" data-name="Path 99208" d="M481.784,51.078a.894.894,0,1,0,.893-.854A.874.874,0,0,0,481.784,51.078Z" transform="translate(-465.707 -50.224)" fill="url(#linear-gradient-2)"/>
            <path id="Path_99209" data-name="Path 99209" d="M490.231,51.078a.894.894,0,1,0,.894-.854A.875.875,0,0,0,490.231,51.078Z" transform="translate(-482.193 -50.224)" fill="url(#linear-gradient-2)"/>
            <path id="Path_99210" data-name="Path 99210" d="M498.677,51.078a.894.894,0,1,0,.894-.854A.874.874,0,0,0,498.677,51.078Z" transform="translate(-498.677 -50.224)" fill="url(#linear-gradient-2)"/>
          </g>
          <g id="Group_53307" data-name="Group 53307" transform="translate(0 6.833)">
            <path id="Path_99211" data-name="Path 99211" d="M414.214,58.586a.894.894,0,1,0,.894-.854A.874.874,0,0,0,414.214,58.586Z" transform="translate(-333.828 -57.732)" fill="url(#linear-gradient-2)"/>
            <path id="Path_99212" data-name="Path 99212" d="M422.66,58.586a.894.894,0,1,0,.893-.854A.874.874,0,0,0,422.66,58.586Z" transform="translate(-350.313 -57.732)" fill="url(#linear-gradient-2)"/>
            <path id="Path_99213" data-name="Path 99213" d="M431.106,58.586a.894.894,0,1,0,.893-.854A.874.874,0,0,0,431.106,58.586Z" transform="translate(-366.797 -57.732)" fill="url(#linear-gradient-2)"/>
            <path id="Path_99214" data-name="Path 99214" d="M439.553,58.586a.894.894,0,1,0,.894-.854A.874.874,0,0,0,439.553,58.586Z" transform="translate(-383.283 -57.732)" fill="url(#linear-gradient-2)"/>
            <path id="Path_99215" data-name="Path 99215" d="M448,58.586a.894.894,0,1,0,.893-.854A.874.874,0,0,0,448,58.586Z" transform="translate(-399.767 -57.732)" fill="url(#linear-gradient-2)"/>
            <path id="Path_99216" data-name="Path 99216" d="M456.445,58.586a.894.894,0,1,0,.893-.854A.874.874,0,0,0,456.445,58.586Z" transform="translate(-416.252 -57.732)" fill="url(#linear-gradient-2)"/>
            <path id="Path_99217" data-name="Path 99217" d="M464.892,58.586a.894.894,0,1,0,.894-.854A.875.875,0,0,0,464.892,58.586Z" transform="translate(-432.738 -57.732)" fill="url(#linear-gradient-2)"/>
            <path id="Path_99218" data-name="Path 99218" d="M473.338,58.586a.894.894,0,1,0,.893-.854A.874.874,0,0,0,473.338,58.586Z" transform="translate(-449.222 -57.732)" fill="url(#linear-gradient-2)"/>
            <path id="Path_99219" data-name="Path 99219" d="M481.784,58.586a.894.894,0,1,0,.893-.854A.874.874,0,0,0,481.784,58.586Z" transform="translate(-465.707 -57.732)" fill="url(#linear-gradient-2)"/>
            <path id="Path_99220" data-name="Path 99220" d="M490.231,58.586a.894.894,0,1,0,.894-.854A.875.875,0,0,0,490.231,58.586Z" transform="translate(-482.193 -57.732)" fill="url(#linear-gradient-2)"/>
            <path id="Path_99221" data-name="Path 99221" d="M498.677,58.586a.894.894,0,1,0,.894-.854A.874.874,0,0,0,498.677,58.586Z" transform="translate(-498.677 -57.732)" fill="url(#linear-gradient-2)"/>
          </g>
          <g id="Group_53308" data-name="Group 53308" transform="translate(0 13.667)">
            <ellipse id="Ellipse_3955" data-name="Ellipse 3955" cx="0.893" cy="0.854" rx="0.893" ry="0.854" transform="translate(80.386)" fill="url(#linear-gradient-2)"/>
            <path id="Path_99222" data-name="Path 99222" d="M422.66,66.094a.894.894,0,1,0,.893-.854A.875.875,0,0,0,422.66,66.094Z" transform="translate(-350.313 -65.24)" fill="url(#linear-gradient-2)"/>
            <ellipse id="Ellipse_3956" data-name="Ellipse 3956" cx="0.893" cy="0.854" rx="0.893" ry="0.854" transform="translate(64.309)" fill="url(#linear-gradient-2)"/>
            <path id="Path_99223" data-name="Path 99223" d="M439.553,66.094a.894.894,0,1,0,.894-.854A.875.875,0,0,0,439.553,66.094Z" transform="translate(-383.283 -65.24)" fill="url(#linear-gradient-2)"/>
            <path id="Path_99224" data-name="Path 99224" d="M448,66.094a.894.894,0,1,0,.893-.854A.875.875,0,0,0,448,66.094Z" transform="translate(-399.767 -65.24)" fill="url(#linear-gradient-2)"/>
            <ellipse id="Ellipse_3957" data-name="Ellipse 3957" cx="0.893" cy="0.854" rx="0.893" ry="0.854" transform="translate(40.193)" fill="url(#linear-gradient-2)"/>
            <path id="Path_99225" data-name="Path 99225" d="M464.892,66.094a.894.894,0,1,0,.894-.854A.875.875,0,0,0,464.892,66.094Z" transform="translate(-432.738 -65.24)" fill="url(#linear-gradient-2)"/>
            <ellipse id="Ellipse_3958" data-name="Ellipse 3958" cx="0.893" cy="0.854" rx="0.893" ry="0.854" transform="translate(24.116)" fill="url(#linear-gradient-2)"/>
            <ellipse id="Ellipse_3959" data-name="Ellipse 3959" cx="0.893" cy="0.854" rx="0.893" ry="0.854" transform="translate(16.077)" fill="url(#linear-gradient-2)"/>
            <path id="Path_99226" data-name="Path 99226" d="M490.231,66.094a.894.894,0,1,0,.894-.854A.875.875,0,0,0,490.231,66.094Z" transform="translate(-482.193 -65.24)" fill="url(#linear-gradient-2)"/>
            <path id="Path_99227" data-name="Path 99227" d="M498.677,66.094a.894.894,0,1,0,.894-.854A.875.875,0,0,0,498.677,66.094Z" transform="translate(-498.677 -65.24)" fill="url(#linear-gradient-2)"/>
          </g>
          <g id="Group_53309" data-name="Group 53309" transform="translate(0 20.499)">
            <ellipse id="Ellipse_3960" data-name="Ellipse 3960" cx="0.893" cy="0.854" rx="0.893" ry="0.854" transform="translate(80.386 0)" fill="url(#linear-gradient-2)"/>
            <path id="Path_99228" data-name="Path 99228" d="M422.66,73.6a.894.894,0,1,0,.893-.855A.874.874,0,0,0,422.66,73.6Z" transform="translate(-350.313 -72.747)" fill="url(#linear-gradient-2)"/>
            <ellipse id="Ellipse_3961" data-name="Ellipse 3961" cx="0.893" cy="0.854" rx="0.893" ry="0.854" transform="translate(64.309 0)" fill="url(#linear-gradient-2)"/>
            <path id="Path_99229" data-name="Path 99229" d="M439.553,73.6a.894.894,0,1,0,.894-.855A.874.874,0,0,0,439.553,73.6Z" transform="translate(-383.283 -72.747)" fill="url(#linear-gradient-2)"/>
            <path id="Path_99230" data-name="Path 99230" d="M448,73.6a.894.894,0,1,0,.893-.855A.874.874,0,0,0,448,73.6Z" transform="translate(-399.767 -72.747)" fill="url(#linear-gradient-2)"/>
            <ellipse id="Ellipse_3962" data-name="Ellipse 3962" cx="0.893" cy="0.854" rx="0.893" ry="0.854" transform="translate(40.193 0)" fill="url(#linear-gradient-2)"/>
            <path id="Path_99231" data-name="Path 99231" d="M464.892,73.6a.894.894,0,1,0,.894-.855A.875.875,0,0,0,464.892,73.6Z" transform="translate(-432.738 -72.747)" fill="url(#linear-gradient-2)"/>
            <ellipse id="Ellipse_3963" data-name="Ellipse 3963" cx="0.893" cy="0.854" rx="0.893" ry="0.854" transform="translate(24.116 0)" fill="url(#linear-gradient-2)"/>
            <ellipse id="Ellipse_3964" data-name="Ellipse 3964" cx="0.893" cy="0.854" rx="0.893" ry="0.854" transform="translate(16.077 0)" fill="url(#linear-gradient-2)"/>
            <path id="Path_99232" data-name="Path 99232" d="M490.231,73.6a.894.894,0,1,0,.894-.855A.875.875,0,0,0,490.231,73.6Z" transform="translate(-482.193 -72.747)" fill="url(#linear-gradient-2)"/>
            <path id="Path_99233" data-name="Path 99233" d="M498.677,73.6a.894.894,0,1,0,.894-.855A.874.874,0,0,0,498.677,73.6Z" transform="translate(-498.677 -72.747)" fill="url(#linear-gradient-2)"/>
          </g>
          <g id="Group_53310" data-name="Group 53310" transform="translate(0 27.333)">
            <path id="Path_99234" data-name="Path 99234" d="M414.214,81.11a.894.894,0,1,0,.894-.855A.874.874,0,0,0,414.214,81.11Z" transform="translate(-333.828 -80.255)" fill="url(#linear-gradient-2)"/>
            <path id="Path_99235" data-name="Path 99235" d="M422.66,81.11a.894.894,0,1,0,.893-.855A.874.874,0,0,0,422.66,81.11Z" transform="translate(-350.313 -80.255)" fill="url(#linear-gradient-2)"/>
            <path id="Path_99236" data-name="Path 99236" d="M431.106,81.11a.894.894,0,1,0,.893-.855A.874.874,0,0,0,431.106,81.11Z" transform="translate(-366.797 -80.255)" fill="url(#linear-gradient-2)"/>
            <path id="Path_99237" data-name="Path 99237" d="M439.553,81.11a.894.894,0,1,0,.894-.855A.874.874,0,0,0,439.553,81.11Z" transform="translate(-383.283 -80.255)" fill="url(#linear-gradient-2)"/>
            <path id="Path_99238" data-name="Path 99238" d="M448,81.11a.894.894,0,1,0,.893-.855A.874.874,0,0,0,448,81.11Z" transform="translate(-399.767 -80.255)" fill="url(#linear-gradient-2)"/>
            <path id="Path_99239" data-name="Path 99239" d="M456.445,81.11a.894.894,0,1,0,.893-.855A.874.874,0,0,0,456.445,81.11Z" transform="translate(-416.252 -80.255)" fill="url(#linear-gradient-2)"/>
            <path id="Path_99240" data-name="Path 99240" d="M464.892,81.11a.894.894,0,1,0,.894-.855A.875.875,0,0,0,464.892,81.11Z" transform="translate(-432.738 -80.255)" fill="url(#linear-gradient-2)"/>
            <path id="Path_99241" data-name="Path 99241" d="M473.338,81.11a.894.894,0,1,0,.893-.855A.874.874,0,0,0,473.338,81.11Z" transform="translate(-449.222 -80.255)" fill="url(#linear-gradient-2)"/>
            <path id="Path_99242" data-name="Path 99242" d="M481.784,81.11a.894.894,0,1,0,.893-.855A.874.874,0,0,0,481.784,81.11Z" transform="translate(-465.707 -80.255)" fill="url(#linear-gradient-2)"/>
            <path id="Path_99243" data-name="Path 99243" d="M490.231,81.11a.894.894,0,1,0,.894-.855A.875.875,0,0,0,490.231,81.11Z" transform="translate(-482.193 -80.255)" fill="url(#linear-gradient-2)"/>
            <path id="Path_99244" data-name="Path 99244" d="M498.677,81.11a.894.894,0,1,0,.894-.855A.874.874,0,0,0,498.677,81.11Z" transform="translate(-498.677 -80.255)" fill="url(#linear-gradient-2)"/>
          </g>
          <g id="Group_53311" data-name="Group 53311" transform="translate(0 34.166)">
            <ellipse id="Ellipse_3965" data-name="Ellipse 3965" cx="0.893" cy="0.854" rx="0.893" ry="0.854" transform="translate(80.386 0)" fill="url(#linear-gradient-2)"/>
            <path id="Path_99245" data-name="Path 99245" d="M422.66,88.618a.894.894,0,1,0,.893-.855A.874.874,0,0,0,422.66,88.618Z" transform="translate(-350.313 -87.763)" fill="url(#linear-gradient-2)"/>
            <ellipse id="Ellipse_3966" data-name="Ellipse 3966" cx="0.893" cy="0.854" rx="0.893" ry="0.854" transform="translate(64.309 0)" fill="url(#linear-gradient-2)"/>
            <path id="Path_99246" data-name="Path 99246" d="M439.553,88.618a.894.894,0,1,0,.894-.855A.874.874,0,0,0,439.553,88.618Z" transform="translate(-383.283 -87.763)" fill="url(#linear-gradient-2)"/>
            <path id="Path_99247" data-name="Path 99247" d="M448,88.618a.894.894,0,1,0,.893-.855A.874.874,0,0,0,448,88.618Z" transform="translate(-399.767 -87.763)" fill="url(#linear-gradient-2)"/>
            <ellipse id="Ellipse_3967" data-name="Ellipse 3967" cx="0.893" cy="0.854" rx="0.893" ry="0.854" transform="translate(40.193 0)" fill="url(#linear-gradient-2)"/>
            <path id="Path_99248" data-name="Path 99248" d="M464.892,88.618a.894.894,0,1,0,.894-.855A.875.875,0,0,0,464.892,88.618Z" transform="translate(-432.738 -87.763)" fill="url(#linear-gradient-2)"/>
            <ellipse id="Ellipse_3968" data-name="Ellipse 3968" cx="0.893" cy="0.854" rx="0.893" ry="0.854" transform="translate(24.116 0)" fill="url(#linear-gradient-2)"/>
            <ellipse id="Ellipse_3969" data-name="Ellipse 3969" cx="0.893" cy="0.854" rx="0.893" ry="0.854" transform="translate(16.077 0)" fill="url(#linear-gradient-2)"/>
            <path id="Path_99249" data-name="Path 99249" d="M490.231,88.618a.894.894,0,1,0,.894-.855A.875.875,0,0,0,490.231,88.618Z" transform="translate(-482.193 -87.763)" fill="url(#linear-gradient-2)"/>
            <path id="Path_99250" data-name="Path 99250" d="M498.677,88.618a.894.894,0,1,0,.894-.855A.874.874,0,0,0,498.677,88.618Z" transform="translate(-498.677 -87.763)" fill="url(#linear-gradient-2)"/>
          </g>
          <g id="Group_53312" data-name="Group 53312" transform="translate(0 41)">
            <ellipse id="Ellipse_3970" data-name="Ellipse 3970" cx="0.893" cy="0.854" rx="0.893" ry="0.854" transform="translate(80.386)" fill="url(#linear-gradient-2)"/>
            <path id="Path_99251" data-name="Path 99251" d="M422.66,96.125a.894.894,0,1,0,.893-.854A.874.874,0,0,0,422.66,96.125Z" transform="translate(-350.313 -95.271)" fill="url(#linear-gradient-2)"/>
            <ellipse id="Ellipse_3971" data-name="Ellipse 3971" cx="0.893" cy="0.854" rx="0.893" ry="0.854" transform="translate(64.309)" fill="url(#linear-gradient-2)"/>
            <path id="Path_99252" data-name="Path 99252" d="M439.553,96.125a.894.894,0,1,0,.894-.854A.874.874,0,0,0,439.553,96.125Z" transform="translate(-383.283 -95.271)" fill="url(#linear-gradient-2)"/>
            <path id="Path_99253" data-name="Path 99253" d="M448,96.125a.894.894,0,1,0,.893-.854A.874.874,0,0,0,448,96.125Z" transform="translate(-399.767 -95.271)" fill="url(#linear-gradient-2)"/>
            <ellipse id="Ellipse_3972" data-name="Ellipse 3972" cx="0.893" cy="0.854" rx="0.893" ry="0.854" transform="translate(40.193)" fill="url(#linear-gradient-2)"/>
            <path id="Path_99254" data-name="Path 99254" d="M464.892,96.125a.894.894,0,1,0,.894-.854A.875.875,0,0,0,464.892,96.125Z" transform="translate(-432.738 -95.271)" fill="url(#linear-gradient-2)"/>
            <ellipse id="Ellipse_3973" data-name="Ellipse 3973" cx="0.893" cy="0.854" rx="0.893" ry="0.854" transform="translate(24.116)" fill="url(#linear-gradient-2)"/>
            <ellipse id="Ellipse_3974" data-name="Ellipse 3974" cx="0.893" cy="0.854" rx="0.893" ry="0.854" transform="translate(16.077)" fill="url(#linear-gradient-2)"/>
            <path id="Path_99255" data-name="Path 99255" d="M490.231,96.125a.894.894,0,1,0,.894-.854A.875.875,0,0,0,490.231,96.125Z" transform="translate(-482.193 -95.271)" fill="url(#linear-gradient-2)"/>
            <path id="Path_99256" data-name="Path 99256" d="M498.677,96.125a.894.894,0,1,0,.894-.854A.874.874,0,0,0,498.677,96.125Z" transform="translate(-498.677 -95.271)" fill="url(#linear-gradient-2)"/>
          </g>
          <g id="Group_53313" data-name="Group 53313" transform="translate(0 47.833)">
            <path id="Path_99257" data-name="Path 99257" d="M414.214,103.633a.894.894,0,1,0,.894-.854A.874.874,0,0,0,414.214,103.633Z" transform="translate(-333.828 -102.779)" fill="url(#linear-gradient-2)"/>
            <path id="Path_99258" data-name="Path 99258" d="M422.66,103.633a.894.894,0,1,0,.893-.854A.874.874,0,0,0,422.66,103.633Z" transform="translate(-350.313 -102.779)" fill="url(#linear-gradient-2)"/>
            <path id="Path_99259" data-name="Path 99259" d="M431.106,103.633a.894.894,0,1,0,.893-.854A.874.874,0,0,0,431.106,103.633Z" transform="translate(-366.797 -102.779)" fill="url(#linear-gradient-2)"/>
            <path id="Path_99260" data-name="Path 99260" d="M439.553,103.633a.894.894,0,1,0,.894-.854A.874.874,0,0,0,439.553,103.633Z" transform="translate(-383.283 -102.779)" fill="url(#linear-gradient-2)"/>
            <path id="Path_99261" data-name="Path 99261" d="M448,103.633a.894.894,0,1,0,.893-.854A.874.874,0,0,0,448,103.633Z" transform="translate(-399.767 -102.779)" fill="url(#linear-gradient-2)"/>
            <path id="Path_99262" data-name="Path 99262" d="M456.445,103.633a.894.894,0,1,0,.893-.854A.874.874,0,0,0,456.445,103.633Z" transform="translate(-416.252 -102.779)" fill="url(#linear-gradient-2)"/>
            <path id="Path_99263" data-name="Path 99263" d="M464.892,103.633a.894.894,0,1,0,.894-.854A.875.875,0,0,0,464.892,103.633Z" transform="translate(-432.738 -102.779)" fill="url(#linear-gradient-2)"/>
            <path id="Path_99264" data-name="Path 99264" d="M473.338,103.633a.894.894,0,1,0,.893-.854A.874.874,0,0,0,473.338,103.633Z" transform="translate(-449.222 -102.779)" fill="url(#linear-gradient-2)"/>
            <path id="Path_99265" data-name="Path 99265" d="M481.784,103.633a.894.894,0,1,0,.893-.854A.874.874,0,0,0,481.784,103.633Z" transform="translate(-465.707 -102.779)" fill="url(#linear-gradient-2)"/>
            <path id="Path_99266" data-name="Path 99266" d="M490.231,103.633a.894.894,0,1,0,.894-.854A.875.875,0,0,0,490.231,103.633Z" transform="translate(-482.193 -102.779)" fill="url(#linear-gradient-2)"/>
            <path id="Path_99267" data-name="Path 99267" d="M498.677,103.633a.894.894,0,1,0,.894-.854A.874.874,0,0,0,498.677,103.633Z" transform="translate(-498.677 -102.779)" fill="url(#linear-gradient-2)"/>
          </g>
          <g id="Group_53314" data-name="Group 53314" transform="translate(0 54.666)">
            <ellipse id="Ellipse_3975" data-name="Ellipse 3975" cx="0.893" cy="0.854" rx="0.893" ry="0.854" transform="translate(80.386)" fill="url(#linear-gradient-2)"/>
            <path id="Path_99268" data-name="Path 99268" d="M422.66,111.141a.894.894,0,1,0,.893-.854A.875.875,0,0,0,422.66,111.141Z" transform="translate(-350.313 -110.287)" fill="url(#linear-gradient-2)"/>
            <ellipse id="Ellipse_3976" data-name="Ellipse 3976" cx="0.893" cy="0.854" rx="0.893" ry="0.854" transform="translate(64.309)" fill="url(#linear-gradient-2)"/>
            <path id="Path_99269" data-name="Path 99269" d="M439.553,111.141a.894.894,0,1,0,.894-.854A.875.875,0,0,0,439.553,111.141Z" transform="translate(-383.283 -110.287)" fill="url(#linear-gradient-2)"/>
            <path id="Path_99270" data-name="Path 99270" d="M448,111.141a.894.894,0,1,0,.893-.854A.875.875,0,0,0,448,111.141Z" transform="translate(-399.767 -110.287)" fill="url(#linear-gradient-2)"/>
            <ellipse id="Ellipse_3977" data-name="Ellipse 3977" cx="0.893" cy="0.854" rx="0.893" ry="0.854" transform="translate(40.193)" fill="url(#linear-gradient-2)"/>
            <path id="Path_99271" data-name="Path 99271" d="M464.892,111.141a.894.894,0,1,0,.894-.854A.875.875,0,0,0,464.892,111.141Z" transform="translate(-432.738 -110.287)" fill="url(#linear-gradient-2)"/>
            <ellipse id="Ellipse_3978" data-name="Ellipse 3978" cx="0.893" cy="0.854" rx="0.893" ry="0.854" transform="translate(24.116)" fill="url(#linear-gradient-2)"/>
            <ellipse id="Ellipse_3979" data-name="Ellipse 3979" cx="0.893" cy="0.854" rx="0.893" ry="0.854" transform="translate(16.077)" fill="url(#linear-gradient-2)"/>
            <path id="Path_99272" data-name="Path 99272" d="M490.231,111.141a.894.894,0,1,0,.894-.854A.875.875,0,0,0,490.231,111.141Z" transform="translate(-482.193 -110.287)" fill="url(#linear-gradient-2)"/>
            <path id="Path_99273" data-name="Path 99273" d="M498.677,111.141a.894.894,0,1,0,.894-.854A.875.875,0,0,0,498.677,111.141Z" transform="translate(-498.677 -110.287)" fill="url(#linear-gradient-2)"/>
          </g>
          <g id="Group_53315" data-name="Group 53315" transform="translate(0 61.499)">
            <path id="Path_99274" data-name="Path 99274" d="M414.214,118.649a.894.894,0,1,0,.894-.855A.875.875,0,0,0,414.214,118.649Z" transform="translate(-333.828 -117.794)" fill="url(#linear-gradient-2)"/>
            <path id="Path_99275" data-name="Path 99275" d="M422.66,118.649a.894.894,0,1,0,.893-.855A.875.875,0,0,0,422.66,118.649Z" transform="translate(-350.313 -117.794)" fill="url(#linear-gradient-2)"/>
            <path id="Path_99276" data-name="Path 99276" d="M431.106,118.649a.894.894,0,1,0,.893-.855A.875.875,0,0,0,431.106,118.649Z" transform="translate(-366.797 -117.794)" fill="url(#linear-gradient-2)"/>
            <path id="Path_99277" data-name="Path 99277" d="M439.553,118.649a.894.894,0,1,0,.894-.855A.875.875,0,0,0,439.553,118.649Z" transform="translate(-383.283 -117.794)" fill="url(#linear-gradient-2)"/>
            <path id="Path_99278" data-name="Path 99278" d="M448,118.649a.894.894,0,1,0,.893-.855A.875.875,0,0,0,448,118.649Z" transform="translate(-399.767 -117.794)" fill="url(#linear-gradient-2)"/>
            <path id="Path_99279" data-name="Path 99279" d="M456.445,118.649a.894.894,0,1,0,.893-.855A.875.875,0,0,0,456.445,118.649Z" transform="translate(-416.252 -117.794)" fill="url(#linear-gradient-2)"/>
            <path id="Path_99280" data-name="Path 99280" d="M464.892,118.649a.894.894,0,1,0,.894-.855A.875.875,0,0,0,464.892,118.649Z" transform="translate(-432.738 -117.794)" fill="url(#linear-gradient-2)"/>
            <path id="Path_99281" data-name="Path 99281" d="M473.338,118.649a.894.894,0,1,0,.893-.855A.875.875,0,0,0,473.338,118.649Z" transform="translate(-449.222 -117.794)" fill="url(#linear-gradient-2)"/>
            <path id="Path_99282" data-name="Path 99282" d="M481.784,118.649a.894.894,0,1,0,.893-.855A.875.875,0,0,0,481.784,118.649Z" transform="translate(-465.707 -117.794)" fill="url(#linear-gradient-2)"/>
            <path id="Path_99283" data-name="Path 99283" d="M490.231,118.649a.894.894,0,1,0,.894-.855A.875.875,0,0,0,490.231,118.649Z" transform="translate(-482.193 -117.794)" fill="url(#linear-gradient-2)"/>
            <path id="Path_99284" data-name="Path 99284" d="M498.677,118.649a.894.894,0,1,0,.894-.855A.875.875,0,0,0,498.677,118.649Z" transform="translate(-498.677 -117.794)" fill="url(#linear-gradient-2)"/>
          </g>
          <g id="Group_53316" data-name="Group 53316" transform="translate(0 68.333)">
            <ellipse id="Ellipse_3980" data-name="Ellipse 3980" cx="0.893" cy="0.854" rx="0.893" ry="0.854" transform="translate(80.386 0)" fill="url(#linear-gradient-2)"/>
            <path id="Path_99285" data-name="Path 99285" d="M422.66,126.157a.894.894,0,1,0,.893-.855A.874.874,0,0,0,422.66,126.157Z" transform="translate(-350.313 -125.302)" fill="url(#linear-gradient-2)"/>
            <ellipse id="Ellipse_3981" data-name="Ellipse 3981" cx="0.893" cy="0.854" rx="0.893" ry="0.854" transform="translate(64.309 0)" fill="url(#linear-gradient-2)"/>
            <path id="Path_99286" data-name="Path 99286" d="M439.553,126.157a.894.894,0,1,0,.894-.855A.874.874,0,0,0,439.553,126.157Z" transform="translate(-383.283 -125.302)" fill="url(#linear-gradient-2)"/>
            <path id="Path_99287" data-name="Path 99287" d="M448,126.157a.894.894,0,1,0,.893-.855A.874.874,0,0,0,448,126.157Z" transform="translate(-399.767 -125.302)" fill="url(#linear-gradient-2)"/>
            <ellipse id="Ellipse_3982" data-name="Ellipse 3982" cx="0.893" cy="0.854" rx="0.893" ry="0.854" transform="translate(40.193 0)" fill="url(#linear-gradient-2)"/>
            <path id="Path_99288" data-name="Path 99288" d="M464.892,126.157a.894.894,0,1,0,.894-.855A.875.875,0,0,0,464.892,126.157Z" transform="translate(-432.738 -125.302)" fill="url(#linear-gradient-2)"/>
            <ellipse id="Ellipse_3983" data-name="Ellipse 3983" cx="0.893" cy="0.854" rx="0.893" ry="0.854" transform="translate(24.116 0)" fill="url(#linear-gradient-2)"/>
            <ellipse id="Ellipse_3984" data-name="Ellipse 3984" cx="0.893" cy="0.854" rx="0.893" ry="0.854" transform="translate(16.077 0)" fill="url(#linear-gradient-2)"/>
            <path id="Path_99289" data-name="Path 99289" d="M490.231,126.157a.894.894,0,1,0,.894-.855A.875.875,0,0,0,490.231,126.157Z" transform="translate(-482.193 -125.302)" fill="url(#linear-gradient-2)"/>
            <path id="Path_99290" data-name="Path 99290" d="M498.677,126.157a.894.894,0,1,0,.894-.855A.874.874,0,0,0,498.677,126.157Z" transform="translate(-498.677 -125.302)" fill="url(#linear-gradient-2)"/>
          </g>
          <g id="Group_53317" data-name="Group 53317" transform="translate(0 75.167)">
            <ellipse id="Ellipse_3985" data-name="Ellipse 3985" cx="0.893" cy="0.854" rx="0.893" ry="0.854" transform="translate(80.386 0)" fill="url(#linear-gradient-2)"/>
            <path id="Path_99291" data-name="Path 99291" d="M422.66,133.665a.894.894,0,1,0,.893-.855A.874.874,0,0,0,422.66,133.665Z" transform="translate(-350.313 -132.81)" fill="url(#linear-gradient-2)"/>
            <ellipse id="Ellipse_3986" data-name="Ellipse 3986" cx="0.893" cy="0.854" rx="0.893" ry="0.854" transform="translate(64.309 0)" fill="url(#linear-gradient-2)"/>
            <path id="Path_99292" data-name="Path 99292" d="M439.553,133.665a.894.894,0,1,0,.894-.855A.874.874,0,0,0,439.553,133.665Z" transform="translate(-383.283 -132.81)" fill="url(#linear-gradient-2)"/>
            <path id="Path_99293" data-name="Path 99293" d="M448,133.665a.894.894,0,1,0,.893-.855A.874.874,0,0,0,448,133.665Z" transform="translate(-399.767 -132.81)" fill="url(#linear-gradient-2)"/>
            <ellipse id="Ellipse_3987" data-name="Ellipse 3987" cx="0.893" cy="0.854" rx="0.893" ry="0.854" transform="translate(40.193 0)" fill="url(#linear-gradient-2)"/>
            <path id="Path_99294" data-name="Path 99294" d="M464.892,133.665a.894.894,0,1,0,.894-.855A.875.875,0,0,0,464.892,133.665Z" transform="translate(-432.738 -132.81)" fill="url(#linear-gradient-2)"/>
            <ellipse id="Ellipse_3988" data-name="Ellipse 3988" cx="0.893" cy="0.854" rx="0.893" ry="0.854" transform="translate(24.116 0)" fill="url(#linear-gradient-2)"/>
            <ellipse id="Ellipse_3989" data-name="Ellipse 3989" cx="0.893" cy="0.854" rx="0.893" ry="0.854" transform="translate(16.077 0)" fill="url(#linear-gradient-2)"/>
            <path id="Path_99295" data-name="Path 99295" d="M490.231,133.665a.894.894,0,1,0,.894-.855A.875.875,0,0,0,490.231,133.665Z" transform="translate(-482.193 -132.81)" fill="url(#linear-gradient-2)"/>
            <path id="Path_99296" data-name="Path 99296" d="M498.677,133.665a.894.894,0,1,0,.894-.855A.874.874,0,0,0,498.677,133.665Z" transform="translate(-498.677 -132.81)" fill="url(#linear-gradient-2)"/>
          </g>
        </g>
      </g>
    </g>
    <g id="Group_151408" data-name="Group 151408" transform="translate(557.706 418.802)">
      <g id="Layer_2" data-name="Layer 2" transform="translate(462.035 372.709)">
        <path id="Path_263426" data-name="Path 263426" d="M478.111,794.652c-10.009-11.261-14.685-27.133-15.8-42.77-2.1-29.479,7.915-59.74,26.8-80.955,10.334-11.61,23.078-20.541,32.731-32.83,9.6-12.223,16.389-27.949,29.369-35.605,16.623-9.806,37.433-2.775,53.685,7.744s31.134,24.56,49.437,29.694c12.89,3.615,27.558,2.907,37.941,11.99,16.312,14.269,11.843,42.014,17.485,63.975,5.308,20.657,20.717,39.182,17.946,60.421-2.136,16.369-15.169,29.04-29.485,34.474s-29.867,5-45.019,4.508c-34.247-1.118-68.852-3.283-102.9-1.9C528.173,814.295,493.5,817.029,478.111,794.652Z" transform="translate(-462.035 -597.804)" fill="#dee4f2" opacity="0.43"/>
      </g>
      <g id="Layer_1" data-name="Layer 1" transform="translate(522.023 340.762)">
        <g id="Group_151407" data-name="Group 151407">
          <g id="Group_151403" data-name="Group 151403" transform="translate(42.916 46.621)">
            <g id="Group_151361" data-name="Group 151361" transform="translate(89.442 62.777)">
              <g id="Group_151360" data-name="Group 151360" transform="translate(0 0)">
                <g id="Group_151359" data-name="Group 151359" transform="translate(0)">
                  <g id="Group_151358" data-name="Group 151358">
                    <g id="Group_151355" data-name="Group 151355" transform="translate(0 30.591)">
                      <ellipse id="Ellipse_6218" data-name="Ellipse 6218" cx="3.719" cy="6.021" rx="3.719" ry="6.021" transform="translate(0 7.429) rotate(-87.237)" fill="#86a4c0"/>
                    </g>
                    <g id="Group_151356" data-name="Group 151356" transform="translate(1.499)">
                      <ellipse id="Ellipse_6219" data-name="Ellipse 6219" cx="3.719" cy="6.021" rx="3.719" ry="6.021" transform="translate(0 7.429) rotate(-87.237)" fill="#86a4c0"/>
                    </g>
                    <g id="Group_151357" data-name="Group 151357" transform="translate(0.193 3.714)">
                      <rect id="Rectangle_294364" data-name="Rectangle 294364" width="30.821" height="12.041" transform="translate(0 30.785) rotate(-87.237)" fill="#86a4c0"/>
                    </g>
                  </g>
                </g>
              </g>
            </g>
            <g id="Group_151366" data-name="Group 151366" transform="translate(0 45.214)">
              <g id="Group_151365" data-name="Group 151365" transform="translate(0)">
                <g id="Group_151362" data-name="Group 151362">
                  <ellipse id="Ellipse_6220" data-name="Ellipse 6220" cx="6.021" cy="4.859" rx="6.021" ry="4.859" transform="translate(0 11.081) rotate(-66.962)" fill="#86a4c0"/>
                </g>
                <g id="Group_151363" data-name="Group 151363" transform="translate(36.834 15.639)">
                  <ellipse id="Ellipse_6221" data-name="Ellipse 6221" cx="6.021" cy="4.859" rx="6.021" ry="4.859" transform="translate(0 11.081) rotate(-66.962)" fill="#86a4c0"/>
                </g>
                <g id="Group_151364" data-name="Group 151364" transform="translate(4.247 1.782)">
                  <rect id="Rectangle_294365" data-name="Rectangle 294365" width="12.041" height="40.269" transform="translate(0 11.081) rotate(-66.962)" fill="#86a4c0"/>
                </g>
              </g>
            </g>
            <path id="Path_263427" data-name="Path 263427" d="M1324.241,896.4l-4.475,28.666-11.191-1.864s4.391-23.392,3.2-28.484Z" transform="translate(-1306.266 -872.495)" fill="#86a4c0"/>
            <g id="Group_151392" data-name="Group 151392" transform="translate(17.023 2.325)">
              <g id="Group_151377" data-name="Group 151377" transform="translate(0 43.264)">
                <g id="Group_151368" data-name="Group 151368" transform="translate(82.005 190.429)">
                  <path id="Path_263428" data-name="Path 263428" d="M2097.078,2614.877l-8.294.277.276,7.188,8.149.371Z" transform="translate(-2088.535 -2614.877)" fill="#514747"/>
                  <g id="Group_151367" data-name="Group 151367" transform="translate(0 3.436)">
                    <path id="Path_263429" data-name="Path 263429" d="M2087.834,2655.261c.062-.543.146-1.079.223-1.644a2.381,2.381,0,0,0,.859.655,6.176,6.176,0,0,0,2.815.59,3.927,3.927,0,0,0,2.225-.7,6.057,6.057,0,0,0,1.243-1.256,2.917,2.917,0,0,1,.809-.782.5.5,0,0,1,.346-.066c.346-.066,3.645,2.557,3.645,2.557a.241.241,0,0,1,.127.082c.627.405,1.234.823,1.854,1.177a13.2,13.2,0,0,0,4.959,1.57c.757.1,1.515.191,2.272.3.36.053.9-.432,1.236-.2a1.384,1.384,0,0,1,.573,1.025,4.957,4.957,0,0,1-.312,1.566,3.2,3.2,0,0,1-.864,1.2,7.51,7.51,0,0,1-2.566,1.471,14.006,14.006,0,0,1-3.083.73,13.234,13.234,0,0,1-3.889-.012c-1.025-.17-2.05-.4-3.073-.619a18.674,18.674,0,0,0-2.434-.378c-1.848.046-3.554.089-3.646.095s-.253,0-.374,0h0a3.968,3.968,0,0,1-1.593-.333,2.062,2.062,0,0,1-1.077-1.46,12.43,12.43,0,0,1-.353-2.052A17.9,17.9,0,0,1,2087.834,2655.261Z" transform="translate(-2087.587 -2650.862)" fill="#54435b"/>
                    <path id="Path_263430" data-name="Path 263430" d="M2086.909,2645.743c.063-.543.146-1.079.224-1.644a2.374,2.374,0,0,0,.859.655,6.174,6.174,0,0,0,2.815.59,3.927,3.927,0,0,0,2.225-.7,6.034,6.034,0,0,0,1.243-1.256,2.92,2.92,0,0,1,.809-.782.5.5,0,0,1,.346-.066c.346-.066,3.645,2.557,3.645,2.557a.243.243,0,0,1,.127.082c.628.406,1.234.823,1.854,1.177a13.186,13.186,0,0,0,4.959,1.569c.757.1,1.515.192,2.272.3a2.422,2.422,0,0,1,1.055.387,1.385,1.385,0,0,1,.573,1.026,1.941,1.941,0,0,1-.131.98,3.208,3.208,0,0,1-.864,1.2,7.5,7.5,0,0,1-2.566,1.471,14.036,14.036,0,0,1-3.083.73,13.234,13.234,0,0,1-3.889-.012c-1.025-.17-2.05-.4-3.073-.619a18.686,18.686,0,0,0-2.434-.378c-1.848.046-3.554.089-3.646.095s-.253,0-.374,0h0a3.974,3.974,0,0,1-1.593-.333,2.06,2.06,0,0,1-1.076-1.46,12.4,12.4,0,0,1-.353-2.052A17.942,17.942,0,0,1,2086.909,2645.743Z" transform="translate(-2086.777 -2642.527)" fill="#302424"/>
                  </g>
                </g>
                <g id="Group_151370" data-name="Group 151370" transform="translate(53.905 89.108)">
                  <g id="Group_151369" data-name="Group 151369">
                    <circle id="Ellipse_6222" data-name="Ellipse 6222" cx="7.415" cy="7.415" r="7.415" transform="translate(8.911 48.399) rotate(-70.624)" fill="#253f54"/>
                    <path id="Path_263431" data-name="Path 263431" d="M1860.686,1805.127l17.013-5.481,8.529,42-14.352,3.734Z" transform="translate(-1860.686 -1799.646)" fill="#253f54"/>
                    <path id="Path_263432" data-name="Path 263432" d="M1963.905,2154.142l12.41,57.793-11.64,3.685-15.872-61.882Z" transform="translate(-1937.851 -2109.729)" fill="#253f54"/>
                  </g>
                </g>
                <g id="Group_151372" data-name="Group 151372" transform="translate(0 190.429)">
                  <path id="Path_263433" data-name="Path 263433" d="M1545.87,2614.877l8.294.277-.276,7.188-8.149.371Z" transform="translate(-1530.976 -2614.877)" fill="#514747"/>
                  <g id="Group_151371" data-name="Group 151371" transform="translate(0 3.436)">
                    <path id="Path_263434" data-name="Path 263434" d="M1450.156,2655.261c-.062-.543-.146-1.079-.224-1.644a2.383,2.383,0,0,1-.859.655,6.178,6.178,0,0,1-2.815.59,3.927,3.927,0,0,1-2.224-.7,6.045,6.045,0,0,1-1.243-1.256,2.919,2.919,0,0,0-.809-.782.5.5,0,0,0-.345-.066c-.346-.066-3.645,2.557-3.645,2.557a.241.241,0,0,0-.127.082c-.627.405-1.234.823-1.853,1.177a13.2,13.2,0,0,1-4.959,1.57c-.757.1-1.515.191-2.272.3-.359.053-.9-.432-1.236-.2a1.382,1.382,0,0,0-.573,1.025,4.947,4.947,0,0,0,.312,1.566,3.207,3.207,0,0,0,.864,1.2,7.505,7.505,0,0,0,2.566,1.471,14.01,14.01,0,0,0,3.083.73,13.236,13.236,0,0,0,3.889-.012c1.025-.17,2.049-.4,3.073-.619a18.672,18.672,0,0,1,2.434-.378c1.848.046,3.554.089,3.646.095s.253,0,.374,0h0a3.969,3.969,0,0,0,1.593-.333,2.061,2.061,0,0,0,1.076-1.46,12.392,12.392,0,0,0,.353-2.052A17.933,17.933,0,0,0,1450.156,2655.261Z" transform="translate(-1426.966 -2650.862)" fill="#54435b"/>
                    <path id="Path_263435" data-name="Path 263435" d="M1452.283,2645.743c-.062-.543-.146-1.079-.224-1.644a2.376,2.376,0,0,1-.859.655,6.175,6.175,0,0,1-2.815.59,3.926,3.926,0,0,1-2.225-.7,6.039,6.039,0,0,1-1.243-1.256,2.923,2.923,0,0,0-.809-.782.5.5,0,0,0-.345-.066c-.346-.066-3.645,2.557-3.645,2.557a.243.243,0,0,0-.127.082c-.627.406-1.234.823-1.854,1.177a13.185,13.185,0,0,1-4.959,1.569c-.757.1-1.515.192-2.272.3a2.419,2.419,0,0,0-1.055.387,1.384,1.384,0,0,0-.573,1.026,1.943,1.943,0,0,0,.131.98,3.205,3.205,0,0,0,.864,1.2,7.5,7.5,0,0,0,2.566,1.471,14.036,14.036,0,0,0,3.083.73,13.235,13.235,0,0,0,3.889-.012c1.025-.17,2.049-.4,3.073-.619a18.676,18.676,0,0,1,2.435-.378c1.848.046,3.554.089,3.646.095s.253,0,.374,0h0a3.973,3.973,0,0,0,1.593-.333,2.061,2.061,0,0,0,1.076-1.46,12.426,12.426,0,0,0,.353-2.052A17.914,17.914,0,0,0,1452.283,2645.743Z" transform="translate(-1428.978 -2642.527)" fill="#302424"/>
                  </g>
                </g>
                <g id="Group_151374" data-name="Group 151374" transform="translate(13.073 89.108)">
                  <g id="Group_151373" data-name="Group 151373">
                    <circle id="Ellipse_6223" data-name="Ellipse 6223" cx="7.415" cy="7.415" r="7.415" transform="translate(11.315 38.135) rotate(-11.881)" fill="#253f54"/>
                    <path id="Path_263436" data-name="Path 263436" d="M1661.66,1805.127l-17.013-5.481-8.529,42,14.352,3.734Z" transform="translate(-1623.197 -1799.646)" fill="#253f54"/>
                    <path id="Path_263437" data-name="Path 263437" d="M1544.563,2154.142l-12.41,57.793,11.64,3.685,15.872-61.882Z" transform="translate(-1532.154 -2109.729)" fill="#253f54"/>
                  </g>
                </g>
                <path id="Rectangle_294366" data-name="Rectangle 294366" d="M1.175,0H35.537a1.175,1.175,0,0,1,1.175,1.175v5.9A18.356,18.356,0,0,1,18.356,25.434h0A18.356,18.356,0,0,1,0,7.078v-5.9A1.175,1.175,0,0,1,1.175,0Z" transform="translate(34.212 79.43)" fill="#253f54"/>
                <path id="Path_263438" data-name="Path 263438" d="M1784.557,1158.6s6.117-4.717,15.867-.984-12.217,14.945-12.217,14.945Z" transform="translate(-1740.114 -1147.041)" fill="#b5b3ba"/>
                <g id="Group_151376" data-name="Group 151376" transform="translate(46.635)">
                  <g id="Group_151375" data-name="Group 151375" transform="translate(0 0)">
                    <rect id="Rectangle_294367" data-name="Rectangle 294367" width="12.264" height="19.248" fill="#f4b683"/>
                  </g>
                  <path id="Path_263439" data-name="Path 263439" d="M1814.453,1082.684h-10.5a15.955,15.955,0,0,0-1.36,1.015c-.137.114-.271.231-.4.348v11.885c.068.014.136.028.2.04a16.836,16.836,0,0,0,5.849-.2,24.232,24.232,0,0,0,6.21-1.8Z" transform="translate(-1802.189 -1082.684)" fill="#d56734"/>
                </g>
                <path id="Path_263440" data-name="Path 263440" d="M1682.421,1187.732l-16.2-5.007-8.146,6.276-2.679.383-2.679-.383-8.146-6.276-16.2,5.007,7.069,53.312s-2.945,6.038-.294,10.9c0,0,4.016,2.133,17.377,1.419v.054l.705-.094q1.046-.062,2.167-.148,1.121.086,2.167.148l.7.094v-.054c13.361.715,17.378-1.419,17.378-1.419,2.651-4.86-.295-10.9-.295-10.9Z" transform="translate(-1603.341 -1170.291)" fill="#a6bed8"/>
                <path id="Path_263441" data-name="Path 263441" d="M1770.772,1174.279l-8.19-9.434-3.525,2.8,3.836,16.173Z" transform="translate(-1717.783 -1154.633)" fill="#86a4c0"/>
                <path id="Path_263442" data-name="Path 263442" d="M1849.145,1174.279l8.19-9.434,3.525,2.8-3.836,16.173Z" transform="translate(-1796.675 -1154.633)" fill="#86a4c0"/>
                <path id="Path_263443" data-name="Path 263443" d="M1695.856,1744.361l-.111,3.732c18.069,5.112,37.828.585,37.828.585l.006-3.629C1705.671,1748.94,1695.856,1744.361,1695.856,1744.361Z" transform="translate(-1662.34 -1662.125)" fill="#3e2c20"/>
                <path id="Path_263444" data-name="Path 263444" d="M1815.594,1753.292v5.76h8.294v-5.76Zm7.05,4.9h-5.806v-4.032h5.806Z" transform="translate(-1767.293 -1669.945)" fill="#dfdfef"/>
                <rect id="Rectangle_294368" data-name="Rectangle 294368" width="1.382" height="5.391" transform="translate(60.004 83.439)" fill="#253f54"/>
                <rect id="Rectangle_294369" data-name="Rectangle 294369" width="1.382" height="5.391" transform="translate(66.547 82.748)" fill="#253f54"/>
                <rect id="Rectangle_294370" data-name="Rectangle 294370" width="1.382" height="5.391" transform="translate(42.219 83.301)" fill="#253f54"/>
                <rect id="Rectangle_294371" data-name="Rectangle 294371" width="1.382" height="5.391" transform="translate(35.353 82.471)" fill="#253f54"/>
              </g>
              <g id="Group_151378" data-name="Group 151378" transform="translate(25.032 58.15)">
                <path id="Path_263445" data-name="Path 263445" d="M1652.525,1270.644v.054l.705-.094q1.046-.062,2.167-.148,1.121.086,2.167.148l.7.094v-.054c13.361.715,17.378-1.419,17.378-1.419,2.651-4.86-.295-10.9-.295-10.9l7.069-53.312-6.88-2.126a50.585,50.585,0,0,1-7.128,12.848,17.537,17.537,0,0,1-26.992.717,16.071,16.071,0,0,1-3.794-13.144l-.99-.849-8.264,2.554,7.069,53.312s-2.945,6.038-.294,10.9C1635.148,1269.225,1639.164,1271.358,1652.525,1270.644Z" transform="translate(-1628.373 -1202.461)" fill="#e9e200"/>
                <path id="Path_263446" data-name="Path 263446" d="M1655.019,1423.964l1.077,8.12h45.271l1.077-8.12Z" transform="translate(-1651.707 -1396.434)" fill="#fff"/>
                <path id="Path_263447" data-name="Path 263447" d="M1676.193,1583.655l1.077,8.12h40.008l1.077-8.12Z" transform="translate(-1670.25 -1536.278)" fill="#fff"/>
              </g>
              <g id="Group_151389" data-name="Group 151389" transform="translate(31.709)">
                <g id="Group_151386" data-name="Group 151386" transform="translate(3.076 6.192)">
                  <path id="Path_263448" data-name="Path 263448" d="M1724.561,808.485a12.3,12.3,0,0,0-4.8,5.622c-2.205,5.168-1.1,13.332,2.718,17.557,1.1,1.212,2.65,2.236,4.238,1.929a4.782,4.782,0,0,0,2.829-2.178c2.325-3.385,2.586-7.79,2.435-11.92-.065-1.784-.193-3.565-.219-5.351-.022-1.529,1.13-4.617.364-5.983-.892-1.59-3.98-1.168-5.342-.715A10.689,10.689,0,0,0,1724.561,808.485Z" transform="translate(-1717.171 -804.219)" fill="#422719"/>
                  <path id="Path_263449" data-name="Path 263449" d="M1811.4,792.3a9.522,9.522,0,0,1,6.163,6.4c1.84.1,3.083,1.914,3.76,3.627a18.269,18.269,0,0,1,1.119,9.052,9.307,9.307,0,0,1-1.351,4.024,7.816,7.816,0,0,1-4.366,2.988,11.819,11.819,0,0,1-10.7-2.57,15.866,15.866,0,0,1-5.138-9.966c-.446-3.346-.319-8.385,1.489-11.389C1804.006,791.754,1808.721,791.45,1811.4,792.3Z" transform="translate(-1789.007 -790.952)" fill="#422719"/>
                  <g id="Group_151385" data-name="Group 151385" transform="translate(0 0)">
                    <g id="Group_151384" data-name="Group 151384">
                      <g id="Group_151379" data-name="Group 151379">
                        <circle id="Ellipse_6224" data-name="Ellipse 6224" cx="12.236" cy="12.236" r="12.236" transform="translate(0 17.305) rotate(-45)" fill="#f4b683"/>
                        <circle id="Ellipse_6225" data-name="Ellipse 6225" cx="12.236" cy="12.236" r="12.236" transform="translate(0 30.826) rotate(-45)" fill="#f4b683"/>
                        <rect id="Rectangle_294372" data-name="Rectangle 294372" width="24.472" height="14.958" transform="translate(5.068 16.885)" fill="#f4b683"/>
                      </g>
                      <g id="Group_151380" data-name="Group 151380" transform="translate(27.753 23.92)">
                        <path id="Path_263450" data-name="Path 263450" d="M1934.882,977.922c-1.556-2.758-3.961.755-3.961.755l-.778,6.47C1934.245,984.236,1936.438,980.68,1934.882,977.922Z" transform="translate(-1930.143 -976.865)" fill="#f4b683"/>
                        <path id="Path_263451" data-name="Path 263451" d="M1936.366,991.679s1.2-2.193,2.334-1.521.884,4.138-2.582,4.845Z" transform="translate(-1935.376 -988.394)" fill="#e38859"/>
                      </g>
                      <g id="Group_151381" data-name="Group 151381" transform="translate(1.161 23.92)">
                        <path id="Path_263452" data-name="Path 263452" d="M1716.686,977.922c1.556-2.758,3.961.755,3.961.755l.778,6.47C1717.322,984.236,1715.13,980.68,1716.686,977.922Z" transform="translate(-1716.184 -976.865)" fill="#f4b683"/>
                        <path id="Path_263453" data-name="Path 263453" d="M1729.686,991.679s-1.2-2.193-2.334-1.521-.884,4.138,2.582,4.845Z" transform="translate(-1725.435 -988.394)" fill="#e38859"/>
                      </g>
                      <g id="Group_151382" data-name="Group 151382" transform="translate(21.103 24.257)">
                        <path id="Path_263454" data-name="Path 263454" d="M1876.641,980.781a1.032,1.032,0,1,0,1.018-1.2A1.122,1.122,0,0,0,1876.641,980.781Z" transform="translate(-1876.641 -979.578)" fill="#3a3944"/>
                      </g>
                      <g id="Group_151383" data-name="Group 151383" transform="translate(10.434 24.255)">
                        <path id="Path_263455" data-name="Path 263455" d="M1792.828,980.761a1.032,1.032,0,1,1-1.018-1.2A1.119,1.119,0,0,1,1792.828,980.761Z" transform="translate(-1790.792 -979.563)" fill="#3a3944"/>
                      </g>
                      <path id="Path_263456" data-name="Path 263456" d="M1839.489,996.483a16.79,16.79,0,0,1,.047,2.031c-.02.673-.064,1.342-.125,2.009l-.048.5-.052.5-.014.124-.005.109a1.407,1.407,0,0,0,0,.217,1.542,1.542,0,0,0,.019.217l.018.109c0,.018.005.036.009.055l.016.053a3.231,3.231,0,0,0,1.057,1.563,2.183,2.183,0,0,1-.476-.206c-.078-.04-.149-.092-.224-.14s-.143-.1-.209-.164a2.42,2.42,0,0,1-.648-.88,2.173,2.173,0,0,1-.152-.548,1.573,1.573,0,0,1-.023-.285l0-.143,0-.127c.006-.17.018-.339.027-.507l.04-.5q.093-1.007.271-2A15.065,15.065,0,0,1,1839.489,996.483Z" transform="translate(-1822.285 -970.125)" fill="#d56734"/>
                    </g>
                  </g>
                </g>
                <path id="Path_263457" data-name="Path 263457" d="M1865.062,947.727a3.1,3.1,0,0,1,1.473-2.973,3.612,3.612,0,0,1,1.67-.51,4.6,4.6,0,0,1,.849.045,5.093,5.093,0,0,1,.8.246,8.093,8.093,0,0,1-.794.194c-.252.08-.5.123-.741.2a5.807,5.807,0,0,0-1.314.581,4.5,4.5,0,0,0-1.072.925A7.792,7.792,0,0,0,1865.062,947.727Z" transform="translate(-1842.297 -918.178)" fill="#422719"/>
                <path id="Path_263458" data-name="Path 263458" d="M1780.2,942.923a3.1,3.1,0,0,1,3.3.341,3.612,3.612,0,0,1,1.061,1.387,4.588,4.588,0,0,1,.255.811,5.1,5.1,0,0,1,.05.84,8.115,8.115,0,0,1-.459-.676c-.163-.209-.291-.43-.451-.623a5.811,5.811,0,0,0-1-1.029,4.511,4.511,0,0,0-1.241-.682A7.783,7.783,0,0,0,1780.2,942.923Z" transform="translate(-1768.007 -916.74)" fill="#422719"/>
                <g id="Group_151388" data-name="Group 151388">
                  <path id="Path_263459" data-name="Path 263459" d="M1689.107,751.958s-12.728-4.466-3.891-9.944,13.537-7.9,17.135-7.357,22.277,6.605,20.3,13.743S1695.143,756.894,1689.107,751.958Z" transform="translate(-1682.094 -734.583)" fill="#001240"/>
                  <path id="Path_263460" data-name="Path 263460" d="M1728.015,815.091c-12.345-4.1-23.306,3.044-24.261,4.07a20.74,20.74,0,0,0,4.321,2.2c5.039,4.122,23.659,3.855,30.824-.5C1737,818.313,1735,817.414,1728.015,815.091Z" transform="translate(-1701.061 -803.981)" fill="#040311"/>
                  <circle id="Ellipse_6226" data-name="Ellipse 6226" cx="3.55" cy="3.55" r="3.55" transform="matrix(0.075, -0.997, 0.997, 0.075, 16.699, 9.247)" fill="#ffc550"/>
                  <path id="Path_263461" data-name="Path 263461" d="M1746.705,833.124c-1.722-1.731-4.082-2.679-9.9-4.613-10.365-3.446-19.751,1.039-23.062,3.174a21.773,21.773,0,0,0,3.08,1.423C1721.655,837.06,1738.972,836.977,1746.705,833.124Z" transform="translate(-1709.809 -815.733)" fill="#eee"/>
                  <g id="Group_151387" data-name="Group 151387" transform="translate(3.513 14.339)">
                    <path id="Path_263462" data-name="Path 263462" d="M1727.513,849.956s-15.15-.193-17.08,5.26,33.648,4.93,33.272,1.271C1743.082,850.424,1736.412,850.8,1727.513,849.956Z" transform="translate(-1710.358 -849.955)" fill="#001240"/>
                    <path id="Path_263463" data-name="Path 263463" d="M1853.578,850.642c-2.264-.271-4.88-.416-7.724-.686,0,0-.128,0-.36,0l.119.611,2.375,7.88.269.8a76.271,76.271,0,0,0,7.7-.54Z" transform="translate(-1828.698 -849.955)" fill="#b1ccea"/>
                  </g>
                </g>
              </g>
              <g id="Group_151391" data-name="Group 151391" transform="translate(54.45 79.081)">
                <rect id="Rectangle_294373" data-name="Rectangle 294373" width="17.959" height="5.526" fill="#001240"/>
                <g id="Group_151390" data-name="Group 151390" transform="translate(1.595 1.099)">
                  <path id="Path_263464" data-name="Path 263464" d="M1879.651,1380.307a1.338,1.338,0,0,1,.52.429,1.03,1.03,0,0,1,.2.614,1.1,1.1,0,0,1-.172.6,1.231,1.231,0,0,1-.473.433,1.38,1.38,0,0,1-.658.16,1.7,1.7,0,0,1-.253-.021l.021.845h-.841l-.084-2.924a2.351,2.351,0,0,1,1.052-.29A1.583,1.583,0,0,1,1879.651,1380.307Zm-.661,1.48a.592.592,0,0,0,.259-.059.525.525,0,0,0,.2-.16.358.358,0,0,0,.076-.219.443.443,0,0,0-.151-.343.516.516,0,0,0-.6-.074l.017.816A.539.539,0,0,0,1878.99,1381.787Z" transform="translate(-1877.905 -1380.096)" fill="#fff"/>
                  <path id="Path_263465" data-name="Path 263465" d="M1899.154,1383.136a1.77,1.77,0,0,1-.612-.606,1.514,1.514,0,0,1-.229-.8,1.5,1.5,0,0,1,.229-.8,1.713,1.713,0,0,1,.612-.593,1.609,1.609,0,0,1,.816-.221,1.577,1.577,0,0,1,.807.221,1.7,1.7,0,0,1,.6.591,1.513,1.513,0,0,1,.225.8,1.553,1.553,0,0,1-.225.81,1.713,1.713,0,0,1-.6.6,1.565,1.565,0,0,1-1.624,0Zm1.2-.717a.81.81,0,0,0,.3-.286.754.754,0,0,0,.112-.4.726.726,0,0,0-.112-.4.77.77,0,0,0-.3-.276.9.9,0,0,0-.421-.1.808.808,0,0,0-.4.1.72.72,0,0,0-.28.274.772.772,0,0,0-.1.393.822.822,0,0,0,.1.41.745.745,0,0,0,.282.286.8.8,0,0,0,.406.1A.82.82,0,0,0,1900.355,1382.419Z" transform="translate(-1895.777 -1380.067)" fill="#fff"/>
                  <path id="Path_263466" data-name="Path 263466" d="M1927.367,1382.651v.842h-1.977v-3.206h.841v2.364Z" transform="translate(-1919.488 -1380.215)" fill="#fff"/>
                  <path id="Path_263467" data-name="Path 263467" d="M1941.931,1380.287h.816l-.025,3.2h-.816Z" transform="translate(-1933.952 -1380.215)" fill="#fff"/>
                  <path id="Path_263468" data-name="Path 263468" d="M1950.056,1383.141a1.674,1.674,0,0,1-.772-1.411,1.578,1.578,0,0,1,.215-.81,1.606,1.606,0,0,1,.583-.585,1.552,1.552,0,0,1,.8-.217,1.588,1.588,0,0,1,.608.12,1.355,1.355,0,0,1,.507.364,1.4,1.4,0,0,1,.3.593l-.732.223a.678.678,0,0,0-.252-.32.736.736,0,0,0-.446-.139.756.756,0,0,0-.532.2.732.732,0,0,0-.213.566.879.879,0,0,0,.1.431.7.7,0,0,0,.269.278.735.735,0,0,0,.366.094.719.719,0,0,0,.328-.076.817.817,0,0,0,.25-.187.572.572,0,0,0,.128-.212l.685.236a1.122,1.122,0,0,1-.26.543,1.561,1.561,0,0,1-1.165.538A1.415,1.415,0,0,1,1950.056,1383.141Z" transform="translate(-1940.413 -1380.067)" fill="#fff"/>
                  <path id="Path_263469" data-name="Path 263469" d="M1976.49,1382.088v.841l-2.221.051-.109-3.2,2.221-.072.059.841-1.422.017.017.332,1.182-.025.042.841-1.173.025.021.4Z" transform="translate(-1962.197 -1379.711)" fill="#fff"/>
                </g>
              </g>
            </g>
            <g id="Group_151401" data-name="Group 151401" transform="translate(2.446)">
              <g id="Group_151400" data-name="Group 151400">
                <g id="Group_151393" data-name="Group 151393" transform="translate(3.434 10.861)">
                  <path id="Path_263470" data-name="Path 263470" d="M1341.329,816.372l5.53.1a.936.936,0,0,0,.949-.916l.2-11.189a.935.935,0,0,0-.916-.949l-8.691-.154a.936.936,0,0,0-.949.916l-.142,8.028a4.105,4.105,0,0,0,4.021,4.166Z" transform="translate(-1337.307 -803.261)" fill="#f4b683"/>
                </g>
                <g id="Group_151394" data-name="Group 151394" transform="translate(5.781 15.008)">
                  <path id="Path_263471" data-name="Path 263471" d="M1357.113,845.512l5.676.1a3.958,3.958,0,0,0,4.017-3.878l.014-.77a4.18,4.18,0,0,0-4.094-4.241l-5.456-.1a.935.935,0,0,0-.949.916l-.124,7.02A.936.936,0,0,0,1357.113,845.512Z" transform="translate(-1356.197 -836.627)" fill="#f4b683"/>
                </g>
                <g id="Group_151395" data-name="Group 151395" transform="translate(0 7.54)">
                  <path id="Path_263472" data-name="Path 263472" d="M1310.4,776.849h0a1.223,1.223,0,0,1,1.668.029l3.468,5.168a.781.781,0,0,1,.09.629,1.627,1.627,0,0,1-.7.926h0a1.223,1.223,0,0,1-1.668-.029L1309.8,778.4a.916.916,0,0,1,.047-.968A1.792,1.792,0,0,1,1310.4,776.849Z" transform="translate(-1309.68 -776.543)" fill="#f4b683"/>
                </g>
                <g id="Group_151396" data-name="Group 151396" transform="translate(4.118 2.779)">
                  <path id="Path_263473" data-name="Path 263473" d="M1343.958,738.251h0a1.346,1.346,0,0,1,1.575,1.058l1.479,8.444a1.272,1.272,0,0,1-.136.824,1.39,1.39,0,0,1-.987.706h0a1.346,1.346,0,0,1-1.575-1.058l-1.479-8.444a1.3,1.3,0,0,1,.385-1.155A1.4,1.4,0,0,1,1343.958,738.251Z" transform="translate(-1342.817 -738.23)" fill="#f4b683"/>
                </g>
                <g id="Group_151397" data-name="Group 151397" transform="translate(14.268 15.786)">
                  <path id="Path_263474" data-name="Path 263474" d="M1431.326,843.826h0c.315.684.222,1.406-.208,1.6l-5.1,2.351a.681.681,0,0,1-.584-.034,1.739,1.739,0,0,1-.77-.849h0c-.315-.684-.222-1.406.208-1.6l5.1-2.351a.839.839,0,0,1,.879.232A1.954,1.954,0,0,1,1431.326,843.826Z" transform="translate(-1424.477 -842.892)" fill="#f4b683"/>
                </g>
                <g id="Group_151398" data-name="Group 151398" transform="translate(11.396 3.103)">
                  <path id="Path_263475" data-name="Path 263475" d="M1404.678,740.855h0a1.525,1.525,0,0,1,1.1,1.83l-1.675,10.539a1.837,1.837,0,0,1-.426.926,1.311,1.311,0,0,1-1.182.474h0a1.524,1.524,0,0,1-1.1-1.83l1.674-10.539a1.749,1.749,0,0,1,.781-1.226A1.217,1.217,0,0,1,1404.678,740.855Z" transform="translate(-1401.371 -740.841)" fill="#f4b683"/>
                </g>
                <g id="Group_151399" data-name="Group 151399" transform="translate(8.148)">
                  <path id="Path_263476" data-name="Path 263476" d="M1376.519,715.876h0a1.491,1.491,0,0,1,1.455,1.5l.572,10.3a1.734,1.734,0,0,1-.223.962,1.318,1.318,0,0,1-1.057.692h0a1.49,1.49,0,0,1-1.455-1.5l-.571-10.3a1.664,1.664,0,0,1,.506-1.318A1.242,1.242,0,0,1,1376.519,715.876Z" transform="translate(-1375.237 -715.874)" fill="#f4b683"/>
                </g>
              </g>
            </g>
            <path id="Path_263477" data-name="Path 263477" d="M1828.594,1082.684h3.128v2.777a2.21,2.21,0,0,1,0,3.418c-1.906,1.7-5.037-1-3.128-3.1Z" transform="translate(-1761.134 -1037.095)" fill="#3a3944"/>
            <path id="Path_263478" data-name="Path 263478" d="M1816.381,1081.323c.646-.08,1.292-.122,1.938-.15.323-.018.646-.022.969-.032l.969-.011.969.01c.323.011.646.014.969.032.646.028,1.292.07,1.938.151-.646.08-1.292.122-1.938.151-.323.018-.646.021-.969.032l-.969.01-.969-.011c-.323-.01-.646-.014-.969-.032C1817.673,1081.445,1817.027,1081.4,1816.381,1081.323Z" transform="translate(-1750.959 -1035.734)" fill="#d56734"/>
            <path id="Path_263479" data-name="Path 263479" d="M1863.57,1134.507a2.743,2.743,0,0,1-1.19-.276c-4.949-2.354-6.429-19.649-6.489-20.384a.322.322,0,0,1,.642-.053c.014.176,1.507,17.659,6.124,19.855a2.428,2.428,0,0,0,2.547-.375c6.853-4.7,5.03-9.441,5.011-9.489a.322.322,0,0,1,.6-.242,6.044,6.044,0,0,1,.133,3.288c-.367,1.752-1.6,4.384-5.377,6.974A3.546,3.546,0,0,1,1863.57,1134.507Z" transform="translate(-1785.558 -1064.08)" fill="#3a3944"/>
            <path id="Path_263480" data-name="Path 263480" d="M1723.558,1134.507a3.546,3.546,0,0,1-2-.7c-3.78-2.59-5.01-5.223-5.377-6.974a6.042,6.042,0,0,1,.133-3.288.322.322,0,0,1,.6.242,5.539,5.539,0,0,0-.09,2.957c.5,2.331,2.267,4.589,5.1,6.532a2.429,2.429,0,0,0,2.547.375c4.618-2.2,6.109-19.678,6.124-19.855a.322.322,0,0,1,.642.053c-.061.735-1.54,18.03-6.49,20.384A2.744,2.744,0,0,1,1723.558,1134.507Z" transform="translate(-1663.079 -1064.08)" fill="#3a3944"/>
            <g id="Group_151402" data-name="Group 151402" transform="translate(79.626 63.082)">
              <path id="Path_263481" data-name="Path 263481" d="M1989.8,1401.43l-9.524-3.07a1.644,1.644,0,0,1-1.12-2.027l5.836-18.1a1.644,1.644,0,0,1,2.093-.991l14.969,4.826a1.644,1.644,0,0,1,1.12,2.027l-4.187,12.988a6.646,6.646,0,0,1-2.7,3.514A7.578,7.578,0,0,1,1989.8,1401.43Z" transform="translate(-1973.067 -1358.048)" fill="#f4b683"/>
              <path id="Path_263482" data-name="Path 263482" d="M1972.558,1449.336l-9.182-2.96a6.726,6.726,0,0,1-4.328-8.446l.4-1.246a7.1,7.1,0,0,1,8.915-4.568l8.828,2.846a1.59,1.59,0,0,1,1.022,2l-3.661,11.357A1.59,1.59,0,0,1,1972.558,1449.336Z" transform="translate(-1955.238 -1405.881)" fill="#f4b683"/>
              <path id="Path_263483" data-name="Path 263483" d="M2147.336,1354.406h0c-1.033-.755-2.309-.784-2.835-.064l-6.238,8.542a1.33,1.33,0,0,0-.2,1.062,2.767,2.767,0,0,0,1.119,1.62h0c1.034.755,2.31.783,2.835.063l6.239-8.542a1.558,1.558,0,0,0-.015-1.648A3.048,3.048,0,0,0,2147.336,1354.406Z" transform="translate(-2112.262 -1337.615)" fill="#f4b683"/>
              <path id="Path_263484" data-name="Path 263484" d="M2111.112,1268.455h0a2.384,2.384,0,0,0-2.977,1.559l-5.032,15a2.475,2.475,0,0,0-.019,1.529,2.3,2.3,0,0,0,1.454,1.51h0a2.385,2.385,0,0,0,2.978-1.559l5.032-15a2.459,2.459,0,0,0-.3-2.188A2.245,2.245,0,0,0,2111.112,1268.455Z" transform="translate(-2081.557 -1262.757)" fill="#f4b683"/>
              <path id="Path_263485" data-name="Path 263485" d="M2073.53,1225.93h0a2.552,2.552,0,0,0-3.07,1.834l-5.635,16.8a3,3,0,0,0-.074,1.694,2.237,2.237,0,0,0,1.417,1.621h0a2.552,2.552,0,0,0,3.07-1.834l5.635-16.8a2.875,2.875,0,0,0-.229-2.412A2.1,2.1,0,0,0,2073.53,1225.93Z" transform="translate(-2048.008 -1225.529)" fill="#f4b683"/>
              <path id="Path_263486" data-name="Path 263486" d="M1932.309,1397.359h0c-1.177.5-1.883,1.518-1.568,2.258l3.741,8.78a1.16,1.16,0,0,0,.775.623,2.956,2.956,0,0,0,1.939-.191h0c1.177-.5,1.883-1.518,1.568-2.257l-3.741-8.779a1.426,1.426,0,0,0-1.373-.711A3.316,3.316,0,0,0,1932.309,1397.359Z" transform="translate(-1930.666 -1375.498)" fill="#f4b683"/>
              <path id="Path_263487" data-name="Path 263487" d="M2011.454,1223.454h0c-1.261-.219-2.567,1.182-2.9,3.112l-3.979,22.911a4.883,4.883,0,0,0,.1,2.187,2.214,2.214,0,0,0,1.587,1.722h0c1.261.219,2.567-1.181,2.9-3.112l3.979-22.911a4.358,4.358,0,0,0-.473-3.031A1.836,1.836,0,0,0,2011.454,1223.454Z" transform="translate(-1995.317 -1223.432)" fill="#f4b683"/>
            </g>
          </g>
          <g id="Group_151406" data-name="Group 151406">
            <path id="Path_263488" data-name="Path 263488" d="M980.382,2659.176h0a2,2,0,0,1-.686.3l-34.083,9.03c-1.7.452-.866,1.47,1.208,1.47h70.27c2.052,0,2.9-1,1.244-1.461l-34.815-9.634A4.357,4.357,0,0,0,980.382,2659.176Z" transform="translate(-944.7 -2370.64)" fill="#9299a5"/>
            <rect id="Rectangle_294374" data-name="Rectangle 294374" width="6.189" height="184.774" transform="translate(35.046 104.784)" fill="#9299a5"/>
            <g id="Group_151405" data-name="Group 151405" transform="translate(14.836)">
              <rect id="Rectangle_294375" data-name="Rectangle 294375" width="46.609" height="113.043" rx="23.305" fill="#000205"/>
              <g id="Group_151404" data-name="Group 151404" transform="translate(3.026 2.579)">
                <circle id="Ellipse_6227" data-name="Ellipse 6227" cx="14.339" cy="14.339" r="14.339" transform="translate(0 20.279) rotate(-45)" fill="#ffeef0" opacity="0.2"/>
                <circle id="Ellipse_6228" data-name="Ellipse 6228" cx="12.763" cy="12.763" r="12.763" transform="translate(2.23 20.279) rotate(-45)" fill="#e73d46"/>
                <circle id="Ellipse_6229" data-name="Ellipse 6229" cx="12.763" cy="12.763" r="12.763" transform="translate(7.516 40.758)" fill="#f9d748"/>
                <circle id="Ellipse_6230" data-name="Ellipse 6230" cx="12.763" cy="12.763" r="12.763" transform="translate(7.516 40.758)" fill="#ffeef0" opacity="0.5"/>
                <circle id="Ellipse_6231" data-name="Ellipse 6231" cx="12.763" cy="12.763" r="12.763" transform="translate(7.516 74.001)" fill="#48b848"/>
                <circle id="Ellipse_6232" data-name="Ellipse 6232" cx="12.763" cy="12.763" r="12.763" transform="translate(7.516 74.001)" fill="#ffeef0" opacity="0.5"/>
              </g>
            </g>
          </g>
        </g>
      </g>
    </g>
  </g>
</svg>
