<svg xmlns="http://www.w3.org/2000/svg" xmlns:xlink="http://www.w3.org/1999/xlink" width="400" height="296.095" viewBox="0 0 400 296.095">
  <defs>
    <linearGradient id="linear-gradient" x1="0.5" x2="0.5" y2="1" gradientUnits="objectBoundingBox">
      <stop offset="0" stop-color="#d8ccec"/>
      <stop offset="1" stop-color="#c3fff8"/>
    </linearGradient>
  </defs>
  <g id="_14" data-name="14" transform="translate(-1020 -2734.919)">
    <rect id="BG" width="400" height="296.095" rx="14" transform="translate(1020 2734.919)" fill="url(#linear-gradient)"/>
    <g id="Group_158145" data-name="Group 158145" transform="translate(-10559 57.468)">
      <rect id="Rectangle_294377" data-name="Rectangle 294377" width="131.135" height="131.135" rx="9.024" transform="translate(11670.519 2720.382)" fill="#cde6fa"/>
      <rect id="Rectangle_294376" data-name="Rectangle 294376" width="128.548" height="128.548" rx="9.024" transform="translate(11774.877 2778.021)" fill="#fda929"/>
      <path id="Path_263489" data-name="Path 263489" d="M-69.589-97.591l3.045,35.27,35.922-30.33Z" transform="translate(11871.243 2992.518)" fill="#fda929"/>
      <g id="Group_151418" data-name="Group 151418" transform="translate(11664 2714.808)">
        <path id="Path_263508" data-name="Path 263508" d="M-55.549-60.624h-71.578a22.443,22.443,0,0,1-22.418-22.418v-96.752a22.443,22.443,0,0,1,22.418-22.418h96.752A22.443,22.443,0,0,1-7.957-179.793v21.367a4.015,4.015,0,0,1-4.015,4.015,4.015,4.015,0,0,1-4.015-4.015v-21.367a14.4,14.4,0,0,0-14.388-14.388h-96.752a14.4,14.4,0,0,0-14.388,14.388v96.752a14.4,14.4,0,0,0,14.388,14.388h71.578a4.015,4.015,0,0,1,4.017,4.015A4.015,4.015,0,0,1-55.549-60.624Z" transform="translate(149.544 202.211)" fill="#161615"/>
        <path id="Path_263509" data-name="Path 263509" d="M-53.5-4.076a4,4,0,0,1-1.656-.358A4.016,4.016,0,0,1-57.517-8.09V-28.409h-8.142A22.444,22.444,0,0,1-88.076-50.829V-147.58A22.443,22.443,0,0,1-65.658-170H31.093A22.443,22.443,0,0,1,53.511-147.58v96.752A22.444,22.444,0,0,1,31.093-28.409H-24.26L-50.852-5.074A4.005,4.005,0,0,1-53.5-4.076ZM-65.658-161.967A14.4,14.4,0,0,0-80.046-147.58v96.752A14.4,14.4,0,0,0-65.658-36.441H-53.5a4.015,4.015,0,0,1,4.017,4.015v15.469l21.064-18.487a4.023,4.023,0,0,1,2.65-1H31.093A14.4,14.4,0,0,0,45.481-50.829V-147.58a14.4,14.4,0,0,0-14.388-14.386Z" transform="translate(193.903 225.458)" fill="#161615"/>
        <g id="Group_151416" data-name="Group 151416" transform="translate(25.591 25.138)">
          <path id="Path_263510" data-name="Path 263510" d="M-48.682-170.422h-81.983a4.015,4.015,0,0,1-4.015-4.015,4.015,4.015,0,0,1,4.015-4.015h81.983a4.015,4.015,0,0,1,4.017,4.015A4.015,4.015,0,0,1-48.682-170.422Z" transform="translate(134.68 194.219)" fill="#161615"/>
          <path id="Path_263511" data-name="Path 263511" d="M-106.855-163.813a4.015,4.015,0,0,1-4.015-4.015V-183.6a4.015,4.015,0,0,1,4.015-4.015,4.015,4.015,0,0,1,4.015,4.015v15.767A4.015,4.015,0,0,1-106.855-163.813Z" transform="translate(151.863 187.61)" fill="#161615"/>
          <path id="Path_263512" data-name="Path 263512" d="M-128.526-104.34a4.02,4.02,0,0,1-3.75-2.576,4.017,4.017,0,0,1,2.307-5.189c21.674-8.336,38.088-21.283,48.786-38.479,7.994-12.85,9.627-23.413,9.643-23.518a4.013,4.013,0,0,1,4.55-3.39,4.011,4.011,0,0,1,3.4,4.537c-.069.484-1.8,12.026-10.54,26.236-8,12.993-23.674,30.849-52.956,42.11A4,4,0,0,1-128.526-104.34Z" transform="translate(136.222 194.881)" fill="#161615"/>
          <path id="Path_263513" data-name="Path 263513" d="M-63.324-113.59a4,4,0,0,1-1.441-.269c-34.1-13.116-51.166-37.558-55.584-44.737a4.016,4.016,0,0,1,1.315-5.525,4.016,4.016,0,0,1,5.525,1.315c4.084,6.637,19.876,29.239,51.625,41.451a4.015,4.015,0,0,1,2.307,5.189A4.017,4.017,0,0,1-63.324-113.59Z" transform="translate(144.592 204.131)" fill="#161615"/>
        </g>
        <g id="Group_151417" data-name="Group 151417" transform="translate(143.525 86.465)">
          <path id="Path_263514" data-name="Path 263514" d="M-4.117-72.519a4.015,4.015,0,0,1-3.72-2.505l-25.3-62.282-25.3,62.282a4.016,4.016,0,0,1-5.232,2.209,4.016,4.016,0,0,1-2.209-5.232l29.024-71.438a4.013,4.013,0,0,1,3.719-2.5,4.016,4.016,0,0,1,3.72,2.5L-.4-78.048a4.015,4.015,0,0,1-2.207,5.232A4,4,0,0,1-4.117-72.519Z" transform="translate(66.179 151.989)" fill="#161615"/>
          <path id="Path_263515" data-name="Path 263515" d="M-18.225-115.94H-56.688a4.015,4.015,0,0,1-4.015-4.015,4.015,4.015,0,0,1,4.015-4.017h38.463a4.015,4.015,0,0,1,4.015,4.017A4.015,4.015,0,0,1-18.225-115.94Z" transform="translate(70.131 172.208)" fill="#161615"/>
        </g>
      </g>
    </g>
  </g>
</svg>
