<svg xmlns="http://www.w3.org/2000/svg" xmlns:xlink="http://www.w3.org/1999/xlink" width="400" height="296.095" viewBox="0 0 400 296.095">
  <defs>
    <linearGradient id="linear-gradient" x1="0.5" x2="0.5" y2="1" gradientUnits="objectBoundingBox">
      <stop offset="0" stop-color="#d8ccec"/>
      <stop offset="1" stop-color="#c3fff8"/>
    </linearGradient>
  </defs>
  <g id="_16" data-name="16" transform="translate(-1020 -3465.919)">
    <rect id="BG" width="400" height="296.095" rx="14" transform="translate(1020 3465.919)" fill="url(#linear-gradient)"/>
    <g id="Object" transform="translate(1036.35 3720.769)">
      <path id="Path_263492" data-name="Path 263492" d="M186.656-194.433l-25.444,49.465c14.8,7.393,15.58,22.421,15.5,26.57l56.449.725C232.888-169.751,192.984-191.339,186.656-194.433Z" transform="translate(47.605 10.675)" fill="#161615"/>
      <path id="Path_263493" data-name="Path 263493" d="M191.766-209.506A102.034,102.034,0,0,0,89.849-107.587,102.032,102.032,0,0,0,191.766-5.671,102.031,102.031,0,0,0,293.682-107.587,102.033,102.033,0,0,0,191.766-209.506Zm19.449,101.919a19.469,19.469,0,0,1-19.449,19.445,19.469,19.469,0,0,1-19.449-19.445,19.471,19.471,0,0,1,19.449-19.449A19.471,19.471,0,0,1,211.215-107.587ZM104.22-103.8c-.018,0-.033,0-.05,0a.993.993,0,0,1-.985-.876c-.063-.528-5.644-53.1,45-82.036a.99.99,0,0,1,.758-.093.994.994,0,0,1,.6.472l28.587,51.022a.988.988,0,0,1,.075.795.989.989,0,0,1-.535.595c-.682.31-16.7,7.762-14.979,26.245a1,1,0,0,1-.238.742.993.993,0,0,1-.7.34ZM240.064-32.092c-.29.217-20.128,14.663-48.632,14.663-13.429,0-28.779-3.206-44.916-12.618a1,1,0,0,1-.462-.609.994.994,0,0,1,.109-.757l29.894-50.268a1,1,0,0,1,.652-.464.994.994,0,0,1,.782.167c.609.434,15.072,10.584,30.217-.152a1.011,1.011,0,0,1,.762-.164.982.982,0,0,1,.646.439L240.3-33.423A.989.989,0,0,1,240.064-32.092Zm41.605-73.976a1,1,0,0,1-.7.285h-.013l-58.482-.752a1,1,0,0,1-.727-.333,1,1,0,0,1-.247-.76c.075-.747,1.63-18.343-15.236-26.095a.993.993,0,0,1-.525-.578.988.988,0,0,1,.056-.778l26.35-51.224a.984.984,0,0,1,1.274-.459c.489.21,48.8,21.658,48.544,79.99A1,1,0,0,1,281.669-106.068Z" transform="translate(0.787 0.787)" fill="#fda929" stroke="#000" stroke-width="7"/>
      <path id="Path_263494" data-name="Path 263494" d="M154.052-131.119,125.195-82.6c45.207,25.775,83.881,2.034,89.732-1.895l-30.115-46.767C171.015-122.145,157.606-128.976,154.052-131.119Z" transform="translate(23.976 52.122)" fill="#161615"/>
      <path id="Path_263495" data-name="Path 263495" d="M169.915-145.15,142.321-194.4C97.391-168.143,98.614-122.773,99.1-115.743l55.556-2.7C153.659-134.952,166.281-143.146,169.915-145.15Z" transform="translate(6.772 10.698)" fill="#161615"/>
      <path id="Path_263496" data-name="Path 263496" d="M158.309-123.585a17.481,17.481,0,0,0,17.462-17.46,17.482,17.482,0,0,0-17.462-17.463,17.482,17.482,0,0,0-17.463,17.463A17.481,17.481,0,0,0,158.309-123.585Z" transform="translate(34.244 34.245)" fill="#161615"/>
      <path id="Path_263497" data-name="Path 263497" d="M192.553-210.705A104.021,104.021,0,0,0,88.65-106.8,104.019,104.019,0,0,0,192.553-2.9a104.02,104.02,0,0,0,103.9-103.9A104.022,104.022,0,0,0,192.553-210.705Zm0,205.82A102.032,102.032,0,0,1,90.636-106.8,102.034,102.034,0,0,1,192.553-208.719,102.033,102.033,0,0,1,294.469-106.8,102.031,102.031,0,0,1,192.553-4.885Z" fill="#161615"/>
      <path id="Path_263498" data-name="Path 263498" d="M157.258-115.914a1,1,0,0,0,.238-.742c-1.719-18.483,14.3-25.936,14.979-26.245a.989.989,0,0,0,.535-.595.988.988,0,0,0-.075-.795l-28.587-51.022a.994.994,0,0,0-.6-.472.99.99,0,0,0-.758.093c-50.646,28.941-45.065,81.508-45,82.036a.993.993,0,0,0,.985.876c.017,0,.031,0,.05,0l57.535-2.794A.993.993,0,0,0,157.258-115.914Zm-57.376,1.1c-.482-7.03-1.706-52.4,43.225-78.655L170.7-144.216c-3.633,2-16.256,10.2-15.262,26.707Z" transform="translate(5.986 9.764)" fill="#161615"/>
      <path id="Path_263499" data-name="Path 263499" d="M186.862-132.245a.982.982,0,0,0-.646-.439,1.011,1.011,0,0,0-.762.164c-15.145,10.736-29.607.586-30.217.152a.994.994,0,0,0-.782-.167,1,1,0,0,0-.652.464L123.91-81.8a.994.994,0,0,0-.109.757,1,1,0,0,0,.462.609c16.137,9.411,31.487,12.618,44.916,12.618,28.5,0,48.342-14.446,48.632-14.663a.989.989,0,0,0,.24-1.331ZM126.13-81.65l28.857-48.523c3.554,2.143,16.963,8.974,30.76-.139l30.115,46.767C210.012-79.617,171.338-55.875,126.13-81.65Z" transform="translate(23.04 51.176)" fill="#161615"/>
      <path id="Path_263500" data-name="Path 263500" d="M187.531-195.739a.984.984,0,0,0-1.274.459l-26.35,51.224a.988.988,0,0,0-.056.778.993.993,0,0,0,.525.578c16.865,7.752,15.31,25.348,15.236,26.095a1,1,0,0,0,.247.76,1,1,0,0,0,.727.333l58.482.752h.013a1,1,0,0,0,.7-.285,1,1,0,0,0,.3-.7C236.335-174.081,188.02-195.529,187.531-195.739Zm-9.89,78.252c.079-4.148-.7-19.177-15.5-26.57l25.444-49.465c6.328,3.094,46.232,24.682,46.506,76.76Z" transform="translate(46.677 9.764)" fill="#161615"/>
      <path id="Path_263501" data-name="Path 263501" d="M139.647-140.258A19.469,19.469,0,0,0,159.1-120.813a19.469,19.469,0,0,0,19.449-19.445A19.471,19.471,0,0,0,159.1-159.707,19.471,19.471,0,0,0,139.647-140.258ZM159.1-157.721a17.482,17.482,0,0,1,17.462,17.463A17.481,17.481,0,0,1,159.1-122.8a17.481,17.481,0,0,1-17.463-17.46A17.482,17.482,0,0,1,159.1-157.721Z" transform="translate(33.457 33.458)" fill="#161615"/>
    </g>
  </g>
</svg>
