<svg xmlns="http://www.w3.org/2000/svg" xmlns:xlink="http://www.w3.org/1999/xlink" width="400" height="296.095" viewBox="0 0 400 296.095">
  <defs>
    <linearGradient id="linear-gradient" x1="0.5" x2="0.5" y2="1" gradientUnits="objectBoundingBox">
      <stop offset="0" stop-color="#d8ccec"/>
      <stop offset="1" stop-color="#c3fff8"/>
    </linearGradient>
  </defs>
  <g id="_17" data-name="17" transform="translate(-180 -3827.919)">
    <rect id="BG" width="400" height="296.095" rx="14" transform="translate(180 3827.919)" fill="url(#linear-gradient)"/>
    <g id="Group_158147" data-name="Group 158147" transform="translate(16.65 4068.045)">
      <path id="Path_263502" data-name="Path 263502" d="M367.242,33.036a5.416,5.416,0,0,1-7.661,0L240.167-86.381a5.414,5.414,0,0,1,0-7.659L359.58-213.453a5.419,5.419,0,0,1,7.661,0L486.654-94.04a5.41,5.41,0,0,1,0,7.659Z" transform="translate(0)" fill="#ffd311"/>
      <g id="Group_151412" data-name="Group 151412" transform="translate(247.847 -205.711)">
        <path id="Path_263503" data-name="Path 263503" d="M359.292,21.213a6.828,6.828,0,0,1-4.859-2.017L245.741-89.495a6.826,6.826,0,0,1-2.012-4.859,6.828,6.828,0,0,1,2.012-4.863l108.692-108.69a7.034,7.034,0,0,1,9.72,0L472.846-99.217a6.837,6.837,0,0,1,2.014,4.863,6.835,6.835,0,0,1-2.014,4.859L364.153,19.2A6.829,6.829,0,0,1,359.292,21.213Zm0-227.249a2.975,2.975,0,0,0-2.113.875L248.489-96.468a2.96,2.96,0,0,0-.876,2.115,2.966,2.966,0,0,0,.876,2.115L357.18,16.453a3.065,3.065,0,0,0,4.229,0L470.1-92.239a2.966,2.966,0,0,0,.876-2.115,2.96,2.96,0,0,0-.876-2.115L361.409-205.161A2.981,2.981,0,0,0,359.292-206.035Z" transform="translate(-243.729 209.856)" fill="#040506"/>
      </g>
      <path id="Path_263504" data-name="Path 263504" d="M328.8-166.341a6.594,6.594,0,0,1,5.282.614L355.276-152.2a7.107,7.107,0,0,1,2.851,4.533l2.784,23.065a5.642,5.642,0,0,1-4.917,6.43,5.856,5.856,0,0,1-6.256-5.327l-2.129-19.725a4.268,4.268,0,0,0-1.681-2.734l-8.46-4.807c-1.368-.893-2.419-.292-2.354,1.341l-.1,24.706a7.586,7.586,0,0,1-1.992,5.025l-20.873,20.36a9.056,9.056,0,0,0-1.868,2.91l-11.466,32.1a6.244,6.244,0,0,1-7.647,3.837l-1.4-.427a5.4,5.4,0,0,1-3.5-7.244l13.76-35.17a16.467,16.467,0,0,1,3.184-4.836l13.28-13.156v-32.4a9.462,9.462,0,0,1,1.784-5.316A26.414,26.414,0,0,1,328.8-166.341Zm5.971,48.35-7.105,7.105a2.265,2.265,0,0,0-.275,2.736L353.96-65.8a6.053,6.053,0,0,0,8.268,1.744l.229-.142a5.924,5.924,0,0,0,1.812-8.178l-27.29-45.368A1.36,1.36,0,0,0,334.772-117.991ZM314.43-131.672v-10.354c0-.979-.6-1.256-1.35-.619l-16.5,14.365c-2.478,2.127-3,5.644-1.155,7.852s5.347,2.278,7.838.167l9.814-8.489A4.357,4.357,0,0,0,314.43-131.672Zm18.636-48.518a11.091,11.091,0,0,0-11.091-11.093,11.093,11.093,0,0,0-11.1,11.093,11.094,11.094,0,0,0,11.1,11.1A11.092,11.092,0,0,0,333.066-180.19Z" transform="translate(37.823 18.998)" fill="#161615"/>
      <rect id="Rectangle_294378" data-name="Rectangle 294378" width="37.235" height="4.333" transform="translate(286.466 -68.088)" fill="#040506"/>
      <rect id="Rectangle_294379" data-name="Rectangle 294379" width="76.124" height="4.332" transform="translate(322.436 -33.047)" fill="#040506"/>
      <rect id="Rectangle_294380" data-name="Rectangle 294380" width="25.528" height="4.333" transform="translate(348.896 -68.088)" fill="#040506"/>
      <rect id="Rectangle_294381" data-name="Rectangle 294381" width="33.418" height="4.333" transform="translate(401.114 -68.088)" fill="#040506"/>
    </g>
  </g>
</svg>
