<svg xmlns="http://www.w3.org/2000/svg" xmlns:xlink="http://www.w3.org/1999/xlink" width="400" height="296.095" viewBox="0 0 400 296.095">
  <defs>
    <linearGradient id="linear-gradient" x1="0.5" x2="0.5" y2="1" gradientUnits="objectBoundingBox">
      <stop offset="0" stop-color="#d8ccec"/>
      <stop offset="1" stop-color="#c3fff8"/>
    </linearGradient>
  </defs>
  <g id="_18" data-name="18" transform="translate(-1020 -4197.044)">
    <rect id="BG" width="400" height="296.095" rx="14" transform="translate(1020 4197.044)" fill="url(#linear-gradient)"/>
    <g id="Group_158148" data-name="Group 158148" transform="translate(683.246 4436.948)">
      <path id="Path_263490" data-name="Path 263490" d="M632.852-108.026c.957,4.564,9.234,8.128,19.306,8.128,10.716,0,19.4-4.036,19.4-9.014s-8.686-9.016-19.4-9.016c-7.174,0-13.433,1.81-16.79,4.5l-84.916-8.535,38.072-13.844a33.243,33.243,0,0,0,10.273,1.523c9.806,0,17.757-3.694,17.757-8.251s-7.951-8.251-17.757-8.251-17.759,3.694-17.759,8.251a4.663,4.663,0,0,0,1.23,3.017l-44.715,16.259-67.874-6.723c-1.142-4.044-8.583-7.168-17.6-7.168-9.808,0-17.759,3.694-17.759,8.251s7.951,8.251,17.759,8.251c6.394,0,12-1.571,15.123-3.927l59.478,5.891-90.545,38.44A41.235,41.235,0,0,0,423.65-82.06c-12.092,0-21.9,4.554-21.9,10.172s9.8,10.174,21.9,10.174,21.9-4.554,21.9-10.174c0-1.827-1.043-3.543-2.862-5.025l89.034-37.8L519.809-92.231c-.115,0-.226,0-.34,0-12.092,0-21.9,4.556-21.9,10.174s9.8,10.172,21.9,10.172,21.9-4.554,21.9-10.172c0-4.574-6.493-8.44-15.427-9.723l12.952-24.449,81.994,58.9c-6.1,2.461-9.955,6.086-9.955,10.132,0,7.413,12.929,13.421,28.88,13.421s28.88-6.008,28.88-13.421-12.93-13.419-28.88-13.419a58.079,58.079,0,0,0-12.132,1.241l-79.583-57.17Z" transform="translate(0 54.873)" fill="#7453d8"/>
      <g id="Group_151410" data-name="Group 151410" transform="translate(488.966 -204.904)">
        <path id="Path_263491" data-name="Path 263491" d="M538.938-136.523h0a48.8,48.8,0,0,0,4.018-19.435A48.946,48.946,0,0,0,494-204.9a48.946,48.946,0,0,0-48.947,48.947,48.765,48.765,0,0,0,4.02,19.435h-.006l.04.079a49,49,0,0,0,3.613,6.775l36.92,61.528A4.941,4.941,0,0,0,494-65.525a4.939,4.939,0,0,0,4.36-2.616l36.916-61.522a48.689,48.689,0,0,0,3.621-6.791Z" transform="translate(-445.058 204.904)" fill="#cde6fa" stroke="#000" stroke-width="7"/>
        <circle id="Ellipse_6233" data-name="Ellipse 6233" cx="18.852" cy="18.852" r="18.852" transform="translate(29.965 21.159)" fill="#161615"/>
      </g>
    </g>
  </g>
</svg>
