<svg xmlns="http://www.w3.org/2000/svg" xmlns:xlink="http://www.w3.org/1999/xlink" width="400" height="296.095" viewBox="0 0 400 296.095">
  <defs>
    <linearGradient id="linear-gradient" x1="0.5" x2="0.5" y2="1" gradientUnits="objectBoundingBox">
      <stop offset="0" stop-color="#d8ccec"/>
      <stop offset="1" stop-color="#c3fff8"/>
    </linearGradient>
  </defs>
  <g id="_2" data-name="2" transform="translate(-1020 -738.256)">
    <rect id="BG" width="400" height="296.095" rx="14" transform="translate(1020 738.256)" fill="url(#linear-gradient)"/>
    <circle id="Ellipse_6360" data-name="Ellipse 6360" cx="113.5" cy="113.5" r="113.5" transform="translate(1105 771.882)" fill="#fff"/>
    <g id="gloves" transform="translate(2516.316 1781.419)">
      <g id="Group_156821" data-name="Group 156821" transform="translate(-1438.316 -955.833)">
        <g id="Group_156820" data-name="Group 156820" transform="translate(0 2.851)">
          <path id="Path_265745" data-name="Path 265745" d="M-1365.5-949.628c.419-.96-.25-1.659-11.191-13.822a260.029,260.029,0,0,0-20.4-19.4c-1.682-1.467-4.079-3.567-7.611-3.954-3.837-.422-8.873,1.17-10.061,4.405-.823,2.243.576,4.253,6.232,13.111,6.513,10.2,6,9.639,6.518,10.283C-1392-946.492-1367.626-944.766-1365.5-949.628Z" transform="translate(1473.183 986.866)" fill="#fca032"/>
          <path id="Path_265746" data-name="Path 265746" d="M-1427.322-966.643c.232.175.481.329.75.5a6.581,6.581,0,0,0,.621.367,86.488,86.488,0,0,0,26.4,10.941c1.664.389,3.253.791,4.757,1.13a.187.187,0,0,1,.137.037,3.156,3.156,0,0,1,.741.16l.023.015a71.985,71.985,0,0,0,11.645,1.943c4.213.222,7.444-.5,9.866-2.786a10.151,10.151,0,0,0,3.206-6.144,4.121,4.121,0,0,0-.23-1.9c-.6-1.714-2.2-2.587-4.857-3.33-3.31-.935-8.274-1.659-15.069-3.562a141.453,141.453,0,0,1-17.323-6.254c-4.358-1.791-7.773-3.338-10.552-4.535-.531-.267-1.033-.481-1.517-.679-5.156-2.228-7.9-3-10.687-1.584a8.568,8.568,0,0,0-4.58,7.4c.067,2.375,1.559,4.361,3.906,6.264l.085.065A28.08,28.08,0,0,0-1427.322-966.643Z" transform="translate(1444.773 992.591)" fill="#ffa700"/>
          <path id="Path_265747" data-name="Path 265747" d="M-1429.371-956.987a59.108,59.108,0,0,0,5.877,1.976c.023.015.06.01.08.025,3.21.893,6.713,1.709,10.2,2.542.1.007.195.05.429.092,3.639.851,17.9,4.168,18.056,5.413a.875.875,0,0,1-.087.467,1,1,0,0,1-.7.27,6.5,6.5,0,0,1-.8,0c-.038.005-.08-.027-.155-.017a22.774,22.774,0,0,0,7.636,1.01,21.2,21.2,0,0,0,4.555-.716c2.355-.614,5.6-1.484,7.87-4.453,2.223-2.906,4.268-8.434,1.16-12.767a4.376,4.376,0,0,0-.544-.641,10.575,10.575,0,0,0-12.545-2.155.187.187,0,0,1,.137.037,3.156,3.156,0,0,1,.741.16l.023.015c.179.07.327.182.327.314,0,0,.037.127-.127.3-1.833,1.9-16.574-2.669-16.574-2.669-.476-.159-8.426-2.337-17.334-4.872-.948-.282-1.933-.561-2.919-.838-.456-.145-.905-.252-1.339-.379-3.465-.953-6.431-1.6-8.968.01a8.872,8.872,0,0,0-3.527,4.942,8.721,8.721,0,0,0-.222,4.478C-1437.311-961.116-1433.979-958.8-1429.371-956.987Z" transform="translate(1438.315 1004.832)" fill="#ffa700"/>
          <path id="Path_265748" data-name="Path 265748" d="M-1429.212-950.371c.978.374,2.071.731,3.26,1.133.354.1.694.225,1.07.342.99.314,1.961.614,2.834.908,1.821.576,3.368,1.077,4.57,1.419.357.1.711.2,1.045.29,3.3.9,6.1,1.509,6.329,1.552,4.116.881,9.547,1.821,9.582,2.744a.585.585,0,0,1-.1.354.976.976,0,0,1-.886.294,2.26,2.26,0,0,0-.4-.037c1.783,1.113,7.294,4.236,13.942,2.811a23.785,23.785,0,0,0,4.323-1.422c2.495-1.1,5.154-2.918,5.6-5.705.649-4.291-4.7-8.12-5.391-8.609a15.484,15.484,0,0,0-6.523-2.529c-1.145-.2-2.215-.274-3.2-.384-.19-.01-1.791-.222-4.286-.609-.038.005-.08-.027-.155-.017a124.436,124.436,0,0,1-23.841-6.189c-1.08-.417-2.108-.858-3.093-1.27-.12-.06-.279-.112-.4-.169a18.4,18.4,0,0,0-5.959-1.606,5.969,5.969,0,0,0-3.059.713,6.773,6.773,0,0,0-2.36,2.337,9.168,9.168,0,0,0-.858,1.711,8.711,8.711,0,0,0,.9,6.913C-1434.932-952.955-1432.747-951.673-1429.212-950.371Z" transform="translate(1439.449 1016.446)" fill="#ffa700"/>
          <path id="Path_265749" data-name="Path 265749" d="M-1426.075-943.886c1.282.369,2.766.691,4.5,1.073.569.127,1.113.242,1.659.354,6.246,1.355,10.579,2.166,12.39,2.537,12.949,2.592,14.975,4.615,19.854,3.116,3.193-.978,8.07-3.572,8.255-7.252.21-3.889-4.919-6.86-5.575-7.222a12.805,12.805,0,0,0-4.121-1.447,25.621,25.621,0,0,0-4.847-.3,114.641,114.641,0,0,1-13.017-1.05,2.26,2.26,0,0,0-.4-.037,94.259,94.259,0,0,1-12.466-2.527c-.868-.257-1.7-.519-2.512-.763a30.575,30.575,0,0,0-4.5-1.073,6.1,6.1,0,0,0-4.363.861,7.224,7.224,0,0,0-2.517,3.909,7.984,7.984,0,0,0,1.384,6.089C-1430.977-945.658-1429.046-944.7-1426.075-943.886Z" transform="translate(1444.913 1029.19)" fill="#ffa700"/>
          <path id="Path_265750" data-name="Path 265750" d="M-1432.427-977.272l.085.064.048-.063Z" transform="translate(1447.116 1001.204)" fill="#994d23"/>
        </g>
        <path id="Path_265751" data-name="Path 265751" d="M-1408.153-977.251c3.727.943,8.042,1.978,12.84,3.135,8.955,2.13,19.689,4.608,31.8,7.2,13.421,2.866,29.469,6.975,37.845,7.566,30.566,2.248,61.332-4.752,91.506,1.3,0,0,2.011,11.964,1.175,17.412-3.251,21.4-3.293,47.746-11.066,68.062a220.192,220.192,0,0,1-38.551-6.723c-26.178-6.78-51.273-18.5-78.24-21.156-6.389-.646-16.541-1.918-32.01-4.485-2.033-.349-4.148-.7-6.391-1.09-8.424-1.439-15.317-2.784-19.874-3.712a133.5,133.5,0,0,1,1.133-34.385A135.11,135.11,0,0,1-1408.153-977.251Z" transform="translate(1466.078 1004.087)" fill="#ffa700"/>
        <path id="Path_265752" data-name="Path 265752" d="M-1382.874-931.591a1.633,1.633,0,0,1-.307-.1l-.035-.017a12.651,12.651,0,0,1-1.275-.674C-1383.472-931.9-1382.881-931.618-1382.874-931.591Z" transform="translate(1518.761 1071.151)" fill="#ee6c1b"/>
        <path id="Path_265753" data-name="Path 265753" d="M-1404.3-975.994c8.955,2.13,19.689,4.608,31.8,7.2,13.421,2.866,29.469,6.975,37.845,7.566,30.566,2.248,61.332-4.752,91.506,1.3,0,0,2.011,11.964,1.175,17.412-3.251,21.4-3.293,47.746-11.066,68.062a220.192,220.192,0,0,1-38.551-6.723c-26.178-6.78-51.273-18.5-78.24-21.156-6.389-.646-16.541-1.918-32.01-4.485-7-7.409-12.5-16.023-11.832-25.537a40.709,40.709,0,0,1,6.024-18.393c4.478-6.506,9.492-8.4,9.941-13.5C-1397.291-968.922-1401.018-973.153-1404.3-975.994Z" transform="translate(1475.063 1005.965)" fill="#fca032"/>
        <path id="Path_265754" data-name="Path 265754" d="M-1399.823-970.942c-4.358-1.791-7.773-3.335-10.552-4.535-.531-.267-1.033-.481-1.514-.679-5.159-2.228-7.9-3-10.687-1.584a8.566,8.566,0,0,0-4.583,7.4c.067,2.375,1.559,4.361,3.907,6.264l.084.065a28.142,28.142,0,0,0,2.677,1.951c.234.177.481.329.751.5a7.054,7.054,0,0,0,.621.367,86.49,86.49,0,0,0,26.4,10.941c1.664.389,3.253.791,4.757,1.13a.2.2,0,0,1,.137.037,3.22,3.22,0,0,1,.743.16l.02.015c.18.07.33.182.33.314,0,0,.035.127-.13.3-1.833,1.9-16.572-2.669-16.572-2.669-.476-.159-8.429-2.337-17.337-4.872-.948-.282-1.933-.559-2.919-.838-.457-.145-.905-.252-1.34-.379-3.465-.953-6.431-1.594-8.968.01a8.884,8.884,0,0,0-3.528,4.942,8.724,8.724,0,0,0-.222,4.478c.809,3.33,4.141,5.645,8.749,7.459a58.954,58.954,0,0,0,5.88,1.976c.02.015.058.01.077.025,3.21.893,6.713,1.709,10.2,2.544.095,0,.2.047.429.09,3.64.853,17.9,4.168,18.056,5.413a.889.889,0,0,1-.085.467,1.009,1.009,0,0,1-.7.27,6.446,6.446,0,0,1-.8,0c-.038.005-.08-.027-.152-.017a124.453,124.453,0,0,1-23.843-6.189c-1.08-.417-2.108-.858-3.091-1.27-.122-.057-.282-.112-.4-.169a18.4,18.4,0,0,0-5.959-1.606,5.969,5.969,0,0,0-3.058.713,6.8,6.8,0,0,0-2.36,2.337,9.2,9.2,0,0,0-.858,1.711,8.714,8.714,0,0,0,.9,6.913c1.347,2.442,3.532,3.724,7.065,5.027.978.374,2.07.731,3.26,1.132.357.1.7.225,1.07.342.991.314,1.961.614,2.834.908,1.823.576,3.367,1.078,4.57,1.419.357.1.711.2,1.045.29,3.305.9,6.1,1.509,6.329,1.554,4.116.878,9.547,1.819,9.582,2.742a.593.593,0,0,1-.1.354.983.983,0,0,1-.888.294,2.549,2.549,0,0,0-.4-.037,93.948,93.948,0,0,1-12.465-2.527c-.868-.257-1.7-.519-2.51-.763a30.889,30.889,0,0,0-4.505-1.073,6.11,6.11,0,0,0-4.363.861,7.23,7.23,0,0,0-2.517,3.909,7.985,7.985,0,0,0,1.385,6.089c1.375,1.963,3.305,2.924,6.279,3.737,1.28.367,2.764.688,4.5,1.07.566.13,1.11.242,1.656.354,6.246,1.355,10.58,2.168,12.393,2.537,9.879,1.978,13.4,3.62,16.681,3.622,3.662.7,7.948,1.489,12.757,2.31,2.243.392,4.358.741,6.391,1.09,15.471,2.567,25.622,3.839,32.01,4.485,26.969,2.654,52.064,14.376,78.242,21.156a220.364,220.364,0,0,0,38.548,6.725c7.773-20.318,7.815-46.668,11.066-68.064.838-5.448-1.175-17.412-1.175-17.412-30.174-6.049-60.939.953-91.506-1.3-7.486-.529-21.089-3.862-33.479-6.611-1.232-1.632-4.111-4.822-10.44-11.857a259.972,259.972,0,0,0-20.4-19.4c-1.681-1.467-4.076-3.567-7.611-3.954-3.837-.422-8.873,1.172-10.061,4.405-.823,2.243.579,4.253,6.234,13.112,3.889,6.092,5.266,8.334,5.86,9.3-2.619-.741-6.3-1.357-11.076-2.522-.5-.127-1.023-.255-1.507-.377v0q-1.2-.307-2.485-.666A141.518,141.518,0,0,1-1399.823-970.942Z" transform="translate(1438.874 988.009)" fill="#e64c2f" opacity="0.8"/>
        <path id="Path_265755" data-name="Path 265755" d="M-1341.991-968.408c-.05,13.648-.646,28.418-2.061,44.141-1.552,17.292-3.872,33.295-6.573,47.856a4.2,4.2,0,0,0,.93,3,4.089,4.089,0,0,0,2.779,1.474l.554.052a4.122,4.122,0,0,0,4.478-3.709c2.664-14.8,4.944-30.978,6.5-48.387,1.377-15.456,2.013-30.04,2.138-43.608a4.216,4.216,0,0,0-.933-3,4.1,4.1,0,0,0-2.777-1.474l-.556-.052A4.123,4.123,0,0,0-1341.991-968.408Z" transform="translate(1569.352 1011.733)" fill="#db5a10"/>
      </g>
      <g id="Group_156827" data-name="Group 156827" transform="translate(-1362.697 -1009.537)">
        <path id="Path_265756" data-name="Path 265756" d="M-1254.878-854.734c-13.812-22.922-32-43.408-42.166-68.261-4.852-11.857-10.827-23.212-16.13-34.871-3.033-6.666-4.582-10.133-6.094-12.3-1.118-2.846-3.612-5.942-7.868-13.982-.863-1.616-2.859-5.5-5.91-11.043-.262-.487-.521-.973-.8-1.474-.853-1.542-1.576-2.859-2.29-3.971-1.609-2.589-3.061-4.151-5.3-4.894a7.805,7.805,0,0,0-6.137.427,7.171,7.171,0,0,0-2.973,3.51,6.1,6.1,0,0,0,.429,4.39,30.449,30.449,0,0,0,2.288,3.971c.462.7.945,1.414,1.435,2.165a93.683,93.683,0,0,1,5.919,11.118,2.411,2.411,0,0,0,.15.372.983.983,0,0,1-.025.926.59.59,0,0,1-.307.2c-.88.229-3.308-4.66-5.306-8.317-.107-.209-1.474-2.687-3.26-5.57-.174-.292-.371-.6-.569-.908-.663-1.043-1.576-2.37-2.637-3.934-.526-.746-1.083-1.582-1.661-2.432-.217-.324-.429-.611-.626-.918-.716-1.018-1.362-1.951-1.993-2.774-2.23-2.983-4.059-4.692-6.745-5.273a8.536,8.536,0,0,0-6.775,1.127,9.184,9.184,0,0,0-1.367,1.3,6.722,6.722,0,0,0-1.536,2.909,5.952,5.952,0,0,0,.2,3.111,18.3,18.3,0,0,0,3.2,5.2c.09.1.187.235.277.334.666.818,1.375,1.666,2.073,2.574a123.577,123.577,0,0,1,12.605,20.874c.012.073.055.1.06.142a6.516,6.516,0,0,1,.227.753,1,1,0,0,1-.055.743.88.88,0,0,1-.414.215c-1.22.207-8.395-12.388-10.23-15.6-.107-.207-.177-.292-.207-.379-1.779-3.073-3.54-6.167-5.293-8.96-.02-.015-.027-.05-.048-.067a57.809,57.809,0,0,0-3.532-5.017c-3.016-3.859-6.144-6.364-9.517-6.179a8.6,8.6,0,0,0-4.158,1.494,8.813,8.813,0,0,0-3.662,4.762c-.793,2.871.656,5.506,2.537,8.521.245.377.471.773.739,1.165.541.856,1.083,1.714,1.619,2.532,4.919,7.738,9.227,14.666,9.514,15.072,0,0,8.5,12.7,7.222,14.98-.12.207-.25.207-.25.207-.125.037-.271-.07-.389-.222l-.02-.015a3.213,3.213,0,0,1-.364-.659.2.2,0,0,1-.073-.12c-.746-1.332-1.576-2.727-2.417-4.2a85.558,85.558,0,0,0-17.811-21.947,5.875,5.875,0,0,0-.521-.482c-.237-.207-.454-.4-.683-.571a28.207,28.207,0,0,0-2.6-1.986l-.085-.062c-2.459-1.686-4.757-2.532-7.017-1.918a8.485,8.485,0,0,0-5.678,6.469c-.542,3.056.963,5.436,4.528,9.7.322.4.666.816,1.068,1.245,1.92,2.3,4.348,5.1,7.274,8.724a139.958,139.958,0,0,1,10.814,14.666c3.722,5.909,5.812,10.417,7.636,13.293-1.08-.289-3.584-.955-10.435-2.906-9.958-2.839-12.253-3.592-14.134-2.17-2.714,2.053-2.789,7.292-1.3,10.816,1.37,3.245,4.029,4.919,5.892,6.1a255.477,255.477,0,0,0,24.082,13.83c8.093,3.839,11.947,5.675,13.915,6.438,5.887,11.206,11.083,17.12,15.975,30,10.779,28.381,13.318,60.044,27.595,86.993,0,0,11.438-1.953,16.339-4.3,19.253-9.23,44.092-16.811,61.05-30A217.664,217.664,0,0,0-1254.878-854.734Z" transform="translate(1408.002 1010.589)" fill="#e64c2f" opacity="0.8"/>
        <g id="Group_156822" data-name="Group 156822" transform="translate(1.159)">
          <path id="Path_265757" data-name="Path 265757" d="M-1357.79-943.539c-.8.678-1.661.24-16.462-6.73a259.965,259.965,0,0,1-24.452-13.947c-1.891-1.187-4.593-2.876-5.982-6.146-1.509-3.552-1.437-8.836,1.32-10.9,1.908-1.435,4.238-.674,14.351,2.188,11.642,3.3,10.958,2.969,11.724,3.278C-1362.425-969.814-1353.746-946.974-1357.79-943.539Z" transform="translate(1410.332 1050.733)" fill="#ee6c1b"/>
          <path id="Path_265758" data-name="Path 265758" d="M-1391.815-997.38c.234.172.454.366.7.576a6.428,6.428,0,0,1,.529.487A86.453,86.453,0,0,1-1372.5-974.19c.853,1.482,1.7,2.886,2.452,4.231a.192.192,0,0,0,.075.12,3.258,3.258,0,0,0,.369.664l.02.018a72.188,72.188,0,0,1,5.218,10.589c1.427,3.971,1.669,7.272.175,10.25a10.155,10.155,0,0,1-4.959,4.842,4.117,4.117,0,0,1-1.884.327c-1.816-.08-3.111-1.36-4.59-3.689-1.848-2.9-3.974-7.446-7.753-13.406a141.308,141.308,0,0,0-10.983-14.783c-2.971-3.657-5.436-6.483-7.384-8.8-.409-.429-.759-.851-1.085-1.255-3.62-4.3-5.146-6.7-4.6-9.776a8.562,8.562,0,0,1,5.762-6.521c2.295-.619,4.625.237,7.125,1.936l.087.063A28.752,28.752,0,0,1-1391.815-997.38Z" transform="translate(1407.537 1021.43)" fill="#ffa700"/>
          <path id="Path_265759" data-name="Path 265759" d="M-1383.132-1001.953a59.147,59.147,0,0,1,3.587,5.059c.02.015.025.052.048.067,1.781,2.816,3.569,5.935,5.373,9.033.032.09.1.172.212.384,1.864,3.238,9.15,15.938,10.387,15.728a.864.864,0,0,0,.422-.217.984.984,0,0,0,.055-.748,6.273,6.273,0,0,0-.229-.761c-.008-.035-.05-.067-.06-.142a22.764,22.764,0,0,1,3.168,7.02,21.407,21.407,0,0,1,.626,4.57c.093,2.43.192,5.79-2,8.821-2.14,2.963-6.845,6.516-11.889,4.79a4.382,4.382,0,0,1-.771-.337,10.574,10.574,0,0,1-5.682-11.39.192.192,0,0,0,.075.12,3.258,3.258,0,0,0,.369.664l.02.018c.12.152.269.262.4.222,0,0,.132,0,.252-.209,1.294-2.3-7.334-15.1-7.334-15.1-.289-.409-4.667-7.4-9.661-15.2-.544-.826-1.1-1.689-1.644-2.552-.27-.394-.5-.8-.751-1.175-1.908-3.041-3.38-5.7-2.574-8.589a8.885,8.885,0,0,1,3.715-4.8,8.754,8.754,0,0,1,4.223-1.5C-1389.374-1008.369-1386.2-1005.842-1383.132-1001.953Z" transform="translate(1417.369 1011.547)" fill="#ffa700"/>
          <path id="Path_265760" data-name="Path 265760" d="M-1376.6-1003.962c.641.831,1.3,1.771,2.026,2.8.2.312.414.6.634.926.589.858,1.155,1.7,1.686,2.452,1.078,1.579,2.006,2.914,2.679,3.966.2.312.4.621.579.918,1.811,2.9,3.2,5.4,3.31,5.613,2.028,3.687,4.5,8.616,5.388,8.384a.594.594,0,0,0,.31-.2.976.976,0,0,0,.027-.933,2.214,2.214,0,0,1-.152-.374c1.579,1.387,6.159,5.762,6.711,12.54a23.747,23.747,0,0,1-.115,4.55c-.339,2.707-1.307,5.775-3.849,7-3.924,1.856-9.13-2.158-9.8-2.679a15.5,15.5,0,0,1-4.3-5.521c-.521-1.038-.9-2.041-1.29-2.948-.065-.18-.729-1.649-1.819-3.929-.008-.035-.05-.067-.06-.142a124.34,124.34,0,0,0-12.8-21.044c-.708-.916-1.429-1.771-2.105-2.594-.092-.1-.187-.237-.279-.337a18.488,18.488,0,0,1-3.256-5.244,5.95,5.95,0,0,1-.2-3.135,6.751,6.751,0,0,1,1.557-2.934,9.468,9.468,0,0,1,1.39-1.315,8.719,8.719,0,0,1,6.88-1.135C-1380.724-1008.694-1378.865-1006.97-1376.6-1003.962Z" transform="translate(1428.666 1009.537)" fill="#ffa700"/>
          <path id="Path_265761" data-name="Path 265761" d="M-1369.375-1003c.721,1.12,1.457,2.45,2.323,4,.287.5.552,1,.818,1.484,3.1,5.59,5.124,9.507,6,11.136,6.214,11.65,8.736,13.007,8.708,18.111-.015,3.34-1.095,8.759-4.565,9.993-3.665,1.325-7.985-2.731-8.521-3.255a12.814,12.814,0,0,1-2.574-3.527,25.552,25.552,0,0,1-1.686-4.555,114.873,114.873,0,0,0-4.757-12.161,2.214,2.214,0,0,1-.152-.374,93.671,93.671,0,0,0-6.014-11.208c-.494-.758-.985-1.479-1.454-2.185a30.622,30.622,0,0,1-2.323-4,6.108,6.108,0,0,1-.436-4.428,7.247,7.247,0,0,1,3.018-3.537,7.978,7.978,0,0,1,6.229-.429C-1372.485-1007.184-1371.011-1005.609-1369.375-1003Z" transform="translate(1442.335 1011.267)" fill="#ffa700"/>
          <path id="Path_265762" data-name="Path 265762" d="M-1394.284-997.6l-8.092,11.041c-.332-.352-.616-.694-.883-1.023-2.949-3.5-4.194-5.456-3.747-7.965a6.986,6.986,0,0,1,4.7-5.313c1.868-.5,3.767.192,5.8,1.579l.07.05A22.965,22.965,0,0,1-1394.284-997.6Z" transform="translate(1408.2 1022.253)" fill="#ee6c1b"/>
          <path id="Path_265763" data-name="Path 265763" d="M-1402.327-1000.723l.085.063-.047.064Z" transform="translate(1415.324 1022.71)" fill="#994d23"/>
          <path id="Path_265764" data-name="Path 265764" d="M-1393.529-1007.731c2.936-.159,5.66,2.006,8.287,5.341-1.482.831-3.126,1.766-4.83,2.744-2.776,1.6-5.672,3.281-8.057,4.69-1.636-2.609-2.9-4.887-2.208-7.366a7.617,7.617,0,0,1,3.186-4.119A7.5,7.5,0,0,1-1393.529-1007.731Z" transform="translate(1418.012 1012.223)" fill="#ee6c1b"/>
          <path id="Path_265765" data-name="Path 265765" d="M-1378.69-1004.378l-11.238,7.179a15.583,15.583,0,0,1-2.766-4.458,5.034,5.034,0,0,1-.17-2.664,5.739,5.739,0,0,1,1.325-2.495,8.026,8.026,0,0,1,1.18-1.117,7.419,7.419,0,0,1,5.847-.966C-1382.195-1008.4-1380.615-1006.935-1378.69-1004.378Z" transform="translate(1429.309 1010.163)" fill="#ee6c1b"/>
          <path id="Path_265766" data-name="Path 265766" d="M-1371.222-1003.417l-10.1,6.346a26.344,26.344,0,0,1-1.976-3.4,5.2,5.2,0,0,1-.369-3.767,6.156,6.156,0,0,1,2.567-3.009,6.788,6.788,0,0,1,5.3-.364C-1373.869-1006.977-1372.614-1005.637-1371.222-1003.417Z" transform="translate(1442.897 1011.843)" fill="#ee6c1b"/>
        </g>
        <path id="Path_265767" data-name="Path 265767" d="M-1368.453-985.156a134.457,134.457,0,0,0-28.855,18.989c5.633,9.487,13.578,23.12,22.75,39.763,6.623,12.016,15.162,26.208,18.165,34.051,10.946,28.61,13.109,60.084,27.607,87.252,0,0,12.031-1.524,17.008-3.891,19.547-9.3,44.765-16.941,61.98-30.239a218.853,218.853,0,0,0-17.547-34.961c-14.027-23.112-32.492-43.765-42.819-68.82-2.769-6.713-7.723-17.8-16.384-35.153-3.819-7.656-7.1-13.877-9.29-17.979A134.406,134.406,0,0,0-1368.453-985.156Z" transform="translate(1423.985 1029.552)" fill="#ffa700"/>
        <path id="Path_265768" data-name="Path 265768" d="M-1335.676-917.478c-4.156-13.056-16.649-21.947-22.848-34.056-1.5-2.926-5.523-10.056-.037-9.517,5.732.566,13.079,13.221,16.025,17.245,5.618,7.681,11.093,15.519,16.4,23.422,3.812,5.675,10.667,17.41,6.539,24.479-2.21,3.787-12.535,12.046-17.058,10.909-6.344-1.6-2.068-9.275-.674-13.017C-1334.963-904.384-1333.518-910.7-1335.676-917.478Z" transform="translate(1477.719 1081.959)" fill="#fffef8" opacity="0.1"/>
        <g id="Group_156826" data-name="Group 156826" transform="translate(42.319 44.75)" opacity="0.5">
          <g id="Group_156823" data-name="Group 156823">
            <rect id="Rectangle_294666" data-name="Rectangle 294666" width="11.941" height="11.941" rx="1.675" transform="translate(0 19.914) rotate(-27.005)" fill="#e64c2f"/>
            <rect id="Rectangle_294667" data-name="Rectangle 294667" width="11.941" height="11.941" rx="1.675" transform="translate(14.218 12.668) rotate(-27.006)" fill="#e64c2f"/>
            <rect id="Rectangle_294668" data-name="Rectangle 294668" width="11.941" height="11.941" rx="1.675" transform="translate(28.435 5.422) rotate(-27.006)" fill="#e64c2f"/>
          </g>
          <g id="Group_156824" data-name="Group 156824" transform="translate(7.035 13.804)">
            <rect id="Rectangle_294669" data-name="Rectangle 294669" width="11.941" height="11.941" rx="1.675" transform="translate(0 19.914) rotate(-27.006)" fill="#e64c2f"/>
            <rect id="Rectangle_294670" data-name="Rectangle 294670" width="11.941" height="11.941" rx="1.675" transform="translate(14.218 12.668) rotate(-27.005)" fill="#e64c2f"/>
            <rect id="Rectangle_294671" data-name="Rectangle 294671" width="11.941" height="11.941" rx="1.675" transform="translate(28.435 5.422) rotate(-27.005)" fill="#e64c2f"/>
          </g>
          <g id="Group_156825" data-name="Group 156825" transform="translate(14.07 27.607)">
            <rect id="Rectangle_294672" data-name="Rectangle 294672" width="11.941" height="11.941" rx="1.675" transform="translate(0 19.914) rotate(-27.006)" fill="#e64c2f"/>
            <rect id="Rectangle_294673" data-name="Rectangle 294673" width="11.941" height="11.941" rx="1.675" transform="translate(14.218 12.668) rotate(-27.005)" fill="#e64c2f"/>
            <rect id="Rectangle_294674" data-name="Rectangle 294674" width="11.941" height="11.941" rx="1.675" transform="translate(28.435 5.422) rotate(-27.006)" fill="#e64c2f"/>
          </g>
        </g>
        <path id="Path_265769" data-name="Path 265769" d="M-1368.647-986.28c2.659.6,4.378,1.818,13.526,12,15.531,17.285,16.337,20.186,15.536,22.486-1.11,3.191-3.066,2.916-12.391,7.417-10.824,5.226-11.423,8.768-15.626,8.262-1.624-.2-4.5-1.085-12.54-14.374-11.921-19.707-10.9-20.907-9.9-24.1C-1387.561-982.518-1376.911-988.146-1368.647-986.28Z" transform="translate(1434.007 1043.759)" fill="#fffef8" opacity="0.1"/>
        <path id="Path_265770" data-name="Path 265770" d="M-1284.574-934.617c-12.2,6.129-25.637,12.281-40.3,18.135-16.125,6.438-31.444,11.61-45.65,15.788a4.213,4.213,0,0,0-2.258,2.19,4.1,4.1,0,0,0-.057,3.143l.207.519a4.122,4.122,0,0,0,5.331,2.315c14.406-4.323,29.865-9.607,46.09-16.1,14.408-5.765,27.7-11.8,39.858-17.826a4.211,4.211,0,0,0,2.255-2.188,4.079,4.079,0,0,0,.058-3.143l-.2-.521A4.119,4.119,0,0,0-1284.574-934.617Z" transform="translate(1460.132 1121.083)" fill="#ee6c1b"/>
      </g>
    </g>
  </g>
</svg>
