<svg xmlns="http://www.w3.org/2000/svg" width="180" height="180" viewBox="0 0 180 180">
  <g id="_23" data-name="23" transform="translate(-366 -10272)">
    <path id="Path_266715" data-name="Path 266715" d="M90,0A90,90,0,1,1,0,90,90,90,0,0,1,90,0Z" transform="translate(366 10272)" fill="#20cb7d"/>
    <g id="surface1" transform="translate(91 10137.706)">
      <path id="Path_253778" data-name="Path 253778" d="M430,183.067v40.526c0,6.312-4.557,11.49-10.2,11.689-.108,0-.22,0-.331,0H310.526c-.111,0-.223,0-.331,0-.055,0-.113,0-.169-.011a9.436,9.436,0,0,1-2.729-.549,11.681,11.681,0,0,1-7.3-11.128V183.067c0-5.4,3.939-9.773,8.8-9.773H421.2a8.653,8.653,0,0,1,7.517,4.69A10.578,10.578,0,0,1,430,183.067Z" transform="translate(0 0)" fill="#d1e3ee"/>
      <path id="Path_253779" data-name="Path 253779" d="M435,186.026v40.526c0,6.312-4.557,11.49-10.2,11.689-.108,0-.22,0-.331,0H315.526c-.111,0-.223,0-.331,0-.055,0-.113,0-.169-.011a12.468,12.468,0,0,1-2.1-6.988V190.716c0-5.4,3.939-9.773,8.8-9.773H433.718A10.578,10.578,0,0,1,435,186.026Z" transform="translate(-5 -2.959)" fill="#ecedee"/>
      <path id="Path_253780" data-name="Path 253780" d="M426.235,257.323v7.565c-.108,0-.22,0-.331,0H316.957c-.111,0-.223,0-.33,0v-7.565a7.333,7.333,0,0,1,.27-1.982,7.531,7.531,0,0,1,5.266-5.245,7.324,7.324,0,0,1,1.953-.261h94.631a7.324,7.324,0,0,1,1.953.261,7.531,7.531,0,0,1,5.266,5.245A7.333,7.333,0,0,1,426.235,257.323Z" transform="translate(-6.431 -29.606)" fill="#4b5055"/>
      <path id="Path_253781" data-name="Path 253781" d="M331.65,282.037a1.982,1.982,0,0,0-1.982,1.982v7.431a3.048,3.048,0,0,1-3.045,3.045,7.016,7.016,0,0,0-7.008,7.008v13.526a1.982,1.982,0,0,0,3.963,0V301.5a3.05,3.05,0,0,1,3.045-3.045,7.015,7.015,0,0,0,7.008-7.008v-7.431A1.982,1.982,0,0,0,331.65,282.037Z" transform="translate(-7.587 -42.061)" fill="#ecedee"/>
      <path id="Path_253782" data-name="Path 253782" d="M358.353,282.037a1.982,1.982,0,0,0-1.981,1.982v7.431a3.048,3.048,0,0,1-3.045,3.045,7.017,7.017,0,0,0-7.008,7.008v13.526a1.982,1.982,0,0,0,3.964,0V301.5a3.049,3.049,0,0,1,3.045-3.045,7.015,7.015,0,0,0,7.008-7.008v-7.431A1.982,1.982,0,0,0,358.353,282.037Z" transform="translate(-17.915 -42.061)" fill="#ecedee"/>
      <path id="Path_253783" data-name="Path 253783" d="M385.057,282.037a1.983,1.983,0,0,0-1.982,1.982v7.431a3.048,3.048,0,0,1-3.045,3.045,7.016,7.016,0,0,0-7.008,7.008v13.526a1.982,1.982,0,0,0,3.963,0V301.5a3.049,3.049,0,0,1,3.045-3.045,7.016,7.016,0,0,0,7.008-7.008v-7.431A1.982,1.982,0,0,0,385.057,282.037Z" transform="translate(-28.244 -42.061)" fill="#ecedee"/>
      <path id="Path_253784" data-name="Path 253784" d="M411.761,282.037a1.982,1.982,0,0,0-1.982,1.982v7.431a3.048,3.048,0,0,1-3.045,3.045,7.016,7.016,0,0,0-7.008,7.008v13.526a1.982,1.982,0,0,0,3.963,0V301.5a3.049,3.049,0,0,1,3.045-3.045,7.016,7.016,0,0,0,7.008-7.008v-7.431A1.983,1.983,0,0,0,411.761,282.037Z" transform="translate(-38.573 -42.061)" fill="#ecedee"/>
      <path id="Path_253785" data-name="Path 253785" d="M438.465,282.037a1.982,1.982,0,0,0-1.982,1.982v7.431a3.048,3.048,0,0,1-3.045,3.045,7.016,7.016,0,0,0-7.008,7.008v13.526a1.982,1.982,0,0,0,3.963,0V301.5a3.049,3.049,0,0,1,3.045-3.045,7.015,7.015,0,0,0,7.008-7.008v-7.431A1.982,1.982,0,0,0,438.465,282.037Z" transform="translate(-48.902 -42.061)" fill="#ecedee"/>
      <path id="Path_253786" data-name="Path 253786" d="M465.168,282.037a1.982,1.982,0,0,0-1.981,1.982v7.431a3.048,3.048,0,0,1-3.045,3.045,7.015,7.015,0,0,0-7.008,7.008v13.526a1.982,1.982,0,0,0,3.963,0V301.5a3.049,3.049,0,0,1,3.045-3.045,7.015,7.015,0,0,0,7.008-7.008v-7.431A1.982,1.982,0,0,0,465.168,282.037Z" transform="translate(-59.231 -42.061)" fill="#ecedee"/>
      <path id="Path_253787" data-name="Path 253787" d="M425.966,258.814h-19.5a1.982,1.982,0,1,0,0,3.963h19.774V260.8A7.333,7.333,0,0,0,425.966,258.814Zm-27.431,0H316.9a7.333,7.333,0,0,0-.27,1.982v1.981h81.908a1.982,1.982,0,0,0,0-3.963Z" transform="translate(-6.431 -33.078)" fill="#7d8287"/>
      <path id="Path_253788" data-name="Path 253788" d="M490.54,196.756a3.829,3.829,0,1,1-1.98-3.355A3.832,3.832,0,0,1,490.54,196.756Z" transform="translate(-70.735 -7.593)" fill="#d63030"/>
      <path id="Path_253789" data-name="Path 253789" d="M465.976,196.756a3.831,3.831,0,1,1-3.831-3.831,3.829,3.829,0,0,1,3.831,3.831Z" transform="translate(-61.234 -7.593)" fill="#d63030"/>
      <path id="Path_253790" data-name="Path 253790" d="M492.875,197.056a2.262,2.262,0,1,1-1.98-3.355A3.833,3.833,0,0,1,492.875,197.056Z" transform="translate(-73.071 -7.893)" fill="#fb5858"/>
      <path id="Path_253791" data-name="Path 253791" d="M468.31,197.056a2.262,2.262,0,1,1-1.98-3.355A3.833,3.833,0,0,1,468.31,197.056Z" transform="translate(-63.569 -7.893)" fill="#fb5858"/>
      <path id="Path_253792" data-name="Path 253792" d="M412.4,196.516a4.227,4.227,0,0,1-4.212,4.211H381.933a4.212,4.212,0,0,1,0-8.423h26.258A4.225,4.225,0,0,1,412.4,196.516Z" transform="translate(-30.062 -7.353)" fill="#7af4ab"/>
      <path id="Path_253793" data-name="Path 253793" d="M415.23,196.516H389.241a4.223,4.223,0,0,1-4.212-4.212h25.988A4.225,4.225,0,0,1,415.23,196.516Z" transform="translate(-32.889 -7.353)" fill="#a1ffbc"/>
    </g>
  </g>
</svg>
