<svg xmlns="http://www.w3.org/2000/svg" width="180" height="180" viewBox="0 0 180 180">
  <g id="_26" data-name="26" transform="translate(-6764 -10339.044)">
    <circle id="Ellipse_6159" data-name="Ellipse 6159" cx="90" cy="90" r="90" transform="translate(6764 10339.044)" fill="#20cb7d"/>
    <g id="Layer_6" data-name="Layer 6" transform="translate(6523 10229.85)">
      <rect id="Rectangle_293520" data-name="Rectangle 293520" width="87.837" height="118.389" rx="7.484" transform="translate(272 140)" fill="#e6e6e6"/>
      <path id="Path_253891" data-name="Path 253891" d="M425.8,320.538V274.71H406.71l3.277,42.595a7.638,7.638,0,0,0,7.607,7.052h4.392A3.819,3.819,0,0,0,425.8,320.538Z" transform="translate(-65.968 -65.968)" fill="#cecece"/>
      <path id="Path_253892" data-name="Path 253892" d="M354.108,252.66a76.38,76.38,0,0,1-76.38-76.38V140h-1.91A3.819,3.819,0,0,0,272,143.819V254.57a3.819,3.819,0,0,0,3.819,3.819h80.2a3.819,3.819,0,0,0,3.819-3.819v-1.91Z" fill="#cecece"/>
      <path id="Path_253893" data-name="Path 253893" d="M275.819,140h80.2a3.819,3.819,0,0,1,3.819,3.819v19.095H272V143.819A3.819,3.819,0,0,1,275.819,140Z" fill="#7a838b"/>
      <path id="Path_253894" data-name="Path 253894" d="M275.819,140h1.91v22.914H272V143.819A3.819,3.819,0,0,1,275.819,140Z" fill="#5d6972"/>
      <circle id="Ellipse_5926" data-name="Ellipse 5926" cx="32.461" cy="32.461" r="32.461" transform="translate(283.457 178.19)" fill="#7a838b"/>
      <path id="Path_253895" data-name="Path 253895" d="M384.421,230.423a1.893,1.893,0,0,1-1.146-.382,26.706,26.706,0,0,0-5.347-3.118,1.91,1.91,0,0,1,1.528-3.5,30.588,30.588,0,0,1,6.11,3.563,1.909,1.909,0,0,1-1.146,3.437Z" transform="translate(-51.317 -40.776)" fill="#fff"/>
      <path id="Path_253896" data-name="Path 253896" d="M332.637,281.15a32.462,32.462,0,0,1-28.57-47.879,32.462,32.462,0,1,0,51.411,38.473,32.346,32.346,0,0,1-22.841,9.406Z" transform="translate(-10.99 -45.675)" fill="#5d6972"/>
      <circle id="Ellipse_5927" data-name="Ellipse 5927" cx="21.004" cy="21.004" r="21.004" transform="translate(294.914 189.647)" fill="#e6e6e6"/>
      <circle id="Ellipse_5928" data-name="Ellipse 5928" cx="5.728" cy="5.728" r="5.728" transform="translate(310.19 145.728)" fill="#a7d0e1"/>
      <path id="Path_253897" data-name="Path 253897" d="M352.568,151.226a5.728,5.728,0,1,0,5.728,5.729A5.728,5.728,0,0,1,352.568,151.226Z" transform="translate(-36.649 -5.497)" fill="#80bbce"/>
      <path id="Path_253898" data-name="Path 253898" d="M384.258,151.226h22.914v11.457H384.258Z" transform="translate(-54.973 -5.497)" fill="#a7d0e1"/>
      <path id="Path_253899" data-name="Path 253899" d="M389.987,153.136v-1.91h-5.729v11.457h22.914v-5.728H393.806A3.819,3.819,0,0,1,389.987,153.136Z" transform="translate(-54.973 -5.497)" fill="#80bbce"/>
      <path id="Path_253900" data-name="Path 253900" d="M290.787,158.71h15.276a3.819,3.819,0,0,1,3.819,3.819h0a3.819,3.819,0,0,1-3.819,3.819H290.787a3.818,3.818,0,0,1-3.819-3.819h0A3.819,3.819,0,0,1,290.787,158.71Z" transform="translate(-7.33 -9.162)" fill="#a7d0e1"/>
      <path id="Path_253901" data-name="Path 253901" d="M343.632,276.994A21,21,0,0,1,326.2,244.28a21,21,0,1,0,29.147,29.147A20.9,20.9,0,0,1,343.632,276.994Z" transform="translate(-21.986 -51.066)" fill="#cecece"/>
      <path id="Path_253902" data-name="Path 253902" d="M292.7,162.529a3.818,3.818,0,0,1,3.819-3.819h-5.728a3.819,3.819,0,1,0,0,7.638h5.728A3.818,3.818,0,0,1,292.7,162.529Z" transform="translate(-7.33 -9.162)" fill="#80bbce"/>
      <path id="Path_253903" data-name="Path 253903" d="M355.879,269.94a3.819,3.819,0,0,1-5.4,0l-2.238-2.238a3.818,3.818,0,0,0-5.4,0L340.6,269.94a3.82,3.82,0,0,1-5.4,0l-2.238-2.238a3.819,3.819,0,0,0-5.4,0l-2.238,2.238a3.819,3.819,0,0,1-5.4,0l-2.238-2.238c-.045-.046-.1-.078-.151-.124a21,21,0,1,0,40.729,0c-.049.046-.105.078-.151.124Z" transform="translate(-21.985 -61.988)" fill="#a7d0e1"/>
      <path id="Path_253904" data-name="Path 253904" d="M343.645,288.87a21,21,0,0,1-20.6-16.9,3.8,3.8,0,0,1-3.109-1.079l-2.238-2.238c-.045-.046-.1-.078-.151-.124A20.993,20.993,0,0,0,355.36,285.3a20.9,20.9,0,0,1-11.715,3.567Z" transform="translate(-21.998 -62.943)" fill="#80bbce"/>
      <path id="Path_253905" data-name="Path 253905" d="M449.137,324.357H425.078a7.638,7.638,0,0,1-7.615-7.052l-3.269-42.595h45.828L456.745,317.3a7.638,7.638,0,0,1-7.608,7.052Z" transform="translate(-69.633 -65.968)" fill="#f8c460"/>
      <path id="Path_253906" data-name="Path 253906" d="M408.3,295.437a32.266,32.266,0,0,0,6.043-18.818c0-.646-.059-1.274-.1-1.91H406.71Z" transform="translate(-65.968 -65.968)" fill="#5d6972"/>
      <path id="Path_253907" data-name="Path 253907" d="M454.866,318.628h-24.06a7.637,7.637,0,0,1-7.615-7.052l-2.828-36.866h-6.169l3.277,42.595a7.638,7.638,0,0,0,7.608,7.052h24.059a7.619,7.619,0,0,0,7.42-5.937,7.585,7.585,0,0,1-1.692.208Z" transform="translate(-69.633 -65.968)" fill="#eaac47"/>
      <path id="Path_253908" data-name="Path 253908" d="M493.453,259.742a3.215,3.215,0,0,1,3.217,3.214v4.424h-7.638l1.3-5.2A3.215,3.215,0,0,1,493.453,259.742Z" transform="translate(-106.281 -58.638)" fill="#f8c460"/>
      <g id="Group_146968" data-name="Group 146968" transform="translate(344.561 201.104)">
        <path id="Path_253909" data-name="Path 253909" d="M417.411,259.742a3.215,3.215,0,0,0-3.217,3.214v4.424h7.638l-1.3-5.2A3.216,3.216,0,0,0,417.411,259.742Z" transform="translate(-414.194 -259.742)" fill="#eaac47"/>
        <path id="Path_253910" data-name="Path 253910" d="M429.161,285.935h11.457v7.638H429.161Z" transform="translate(-421.523 -272.569)" fill="#eaac47"/>
        <path id="Path_253911" data-name="Path 253911" d="M429.161,315.871h11.457v7.638H429.161Z" transform="translate(-421.523 -287.229)" fill="#eaac47"/>
        <path id="Path_253912" data-name="Path 253912" d="M432.9,345.806h9.548v7.638h-5.729a3.819,3.819,0,0,1-3.819-3.819v-3.819Z" transform="translate(-423.356 -301.888)" fill="#eaac47"/>
        <path id="Path_253913" data-name="Path 253913" d="M466.581,285.935h11.457v7.638H466.581Z" transform="translate(-439.848 -272.569)" fill="#eaac47"/>
        <path id="Path_253914" data-name="Path 253914" d="M478.038,323.509H466.581v-7.638h11.457Z" transform="translate(-439.848 -287.229)" fill="#eaac47"/>
        <path id="Path_253915" data-name="Path 253915" d="M472.309,353.444h-5.728v-7.638h9.547v3.819A3.819,3.819,0,0,1,472.309,353.444Z" transform="translate(-439.848 -301.888)" fill="#eaac47"/>
      </g>
    </g>
  </g>
</svg>
