<svg xmlns="http://www.w3.org/2000/svg" width="180" height="180" viewBox="0 0 180 180">
  <g id="_27" data-name="27" transform="translate(-7114.676 -10339.044)">
    <circle id="Ellipse_6160" data-name="Ellipse 6160" cx="90" cy="90" r="90" transform="translate(7114.676 10339.044)" fill="#20cb7d"/>
    <g id="aspiradora" transform="translate(7116.509 10358)">
      <path id="Path_266717" data-name="Path 266717" d="M142.064,129.676l-5.727-5.726a15.715,15.715,0,0,1-4.631-11.181v-75.5a28.233,28.233,0,0,0-56.465,0v32.75h9.034V37.267a19.2,19.2,0,0,1,38.4,0v4.16a19.308,19.308,0,0,1-9.234,16.41l-8.749,5.313L100,55.426l8.749-5.311a10.221,10.221,0,0,0,4.889-8.688v-4.16a10.164,10.164,0,1,0-20.327,0V79.052h-27.1V37.267a37.267,37.267,0,1,1,74.534,0v75.5a6.748,6.748,0,0,0,1.986,4.8l5.725,5.724Z" transform="translate(-26.276)" fill="#5a5d6f"/>
      <path id="Path_266718" data-name="Path 266718" d="M331.241,228.913h-9.034V160.025a1.129,1.129,0,0,1,1.129-1.129h6.776a1.129,1.129,0,0,1,1.129,1.129v68.888Z" transform="translate(-216.777 -118.241)" fill="#c4cfe3"/>
      <path id="Path_266719" data-name="Path 266719" d="M199.528,207.123,190.8,196.755l8.28-6.97a2.259,2.259,0,0,1,3.182.273l5.818,6.911a2.259,2.259,0,0,1-.273,3.182Z" transform="translate(-118.991 -140.832)" fill="#abb9d3"/>
      <path id="Path_266720" data-name="Path 266720" d="M188.522,187.479a13.929,13.929,0,0,0-1.294-1.462,2.268,2.268,0,0,0-3.015-.125l-3.25,2.646,11.481,20.234,3.449-1.242a2.253,2.253,0,0,0,1.371-2.868C194.945,198.19,191.957,191.97,188.522,187.479Z" transform="translate(-111.672 -137.948)" fill="#e1eaf6"/>
      <path id="Path_266721" data-name="Path 266721" d="M77.7,260.121H98.032a9.034,9.034,0,0,0,9.034-9.034v-27.1c0-10.36-5.706-30.908-13.9-41.62a14.851,14.851,0,0,0-11.806-5.811H64.153a6.776,6.776,0,0,0-6.776,6.776v47.431Z" transform="translate(-19.706 -131.38)" fill="#fdbf60"/>
      <path id="Path_266722" data-name="Path 266722" d="M128,459.034v8.357l2.259,2.936h20.327a9.034,9.034,0,0,0,9.034-9.034v-2.259Z" transform="translate(-72.258 -341.586)" fill="#fda929"/>
      <path id="Path_266723" data-name="Path 266723" d="M83.862,272.036v-30.3a3.388,3.388,0,0,1,3.388-3.388h9.816a4.517,4.517,0,0,1,4,2.418c3.02,5.72,9.9,20.625,9.9,47.272Z" transform="translate(-39.414 -177.362)" fill="#e1eaf6"/>
      <path id="Path_266724" data-name="Path 266724" d="M51.223,393.759a20.327,20.327,0,1,1,20.327-20.327A20.351,20.351,0,0,1,51.223,393.759Z" transform="translate(0 -262.759)" fill="#445"/>
      <circle id="Ellipse_6352" data-name="Ellipse 6352" cx="13.552" cy="13.552" r="13.552" transform="translate(37.672 97.12)" fill="#fda929"/>
      <circle id="Ellipse_6353" data-name="Ellipse 6353" cx="9.034" cy="9.034" r="9.034" transform="translate(42.189 101.638)" fill="#5a5d6f"/>
      <path id="Path_266725" data-name="Path 266725" d="M140.484,176.552h-3.657v3.119a3.657,3.657,0,0,0,3.657,3.657h0a8.124,8.124,0,0,1,6.424,3.152c6.927,9.056,12.505,27.922,12.505,37.5v9.894a3.657,3.657,0,0,0,3.657,3.657h3.119V223.983c0-10.36-5.705-30.908-13.9-41.62A14.851,14.851,0,0,0,140.484,176.552Z" transform="translate(-78.828 -131.38)" fill="#ffd99e"/>
      <path id="Path_266726" data-name="Path 266726" d="M331.241,421.512v-5.486a1.129,1.129,0,0,0-1.129-1.129h-6.776a1.129,1.129,0,0,0-1.129,1.129v5.488a15.806,15.806,0,0,0,4.631,11.178l5.727,5.726,6.388-6.388-5.725-5.724A6.781,6.781,0,0,1,331.241,421.512Z" transform="translate(-216.776 -308.741)" fill="#445"/>
      <path id="Path_266727" data-name="Path 266727" d="M384.465,486.175H355.706a1.431,1.431,0,0,1-1.145-2.29l3.847-5.129a3.652,3.652,0,0,1,3.224-1.448l23.02,1.918a2.259,2.259,0,0,1,2.071,2.251v2.439A2.259,2.259,0,0,1,384.465,486.175Z" transform="translate(-240.638 -355.176)" fill="#5a5d6f"/>
      <g id="Group_158150" data-name="Group 158150" transform="translate(48.965 67.758)">
        <path id="Path_266728" data-name="Path 266728" d="M110.551,269.344h-6.776a2.259,2.259,0,0,1-2.259-2.259h0a2.259,2.259,0,0,1,2.259-2.259h6.776a2.259,2.259,0,0,1,2.259,2.259h0A2.259,2.259,0,0,1,110.551,269.344Z" transform="translate(-101.516 -264.827)" fill="#c4cfe3"/>
        <path id="Path_266729" data-name="Path 266729" d="M115.068,322.309H103.775a2.259,2.259,0,0,1-2.259-2.259h0a2.259,2.259,0,0,1,2.259-2.259h11.293a2.259,2.259,0,0,1,2.259,2.259h0A2.259,2.259,0,0,1,115.068,322.309Z" transform="translate(-101.516 -304.24)" fill="#c4cfe3"/>
        <path id="Path_266730" data-name="Path 266730" d="M112.81,295.827h-9.034a2.259,2.259,0,0,1-2.259-2.259h0a2.259,2.259,0,0,1,2.259-2.259h9.034a2.259,2.259,0,0,1,2.259,2.259h0A2.259,2.259,0,0,1,112.81,295.827Z" transform="translate(-101.517 -284.534)" fill="#c4cfe3"/>
      </g>
    </g>
  </g>
</svg>
