<svg xmlns="http://www.w3.org/2000/svg" width="180" height="180" viewBox="0 0 180 180">
  <g id="_28" data-name="28" transform="translate(-7466 -10339.414)">
    <circle id="Ellipse_6161" data-name="Ellipse 6161" cx="90" cy="90" r="90" transform="translate(7466 10339.414)" fill="#20cb7d"/>
    <g id="Group_158142" data-name="Group 158142" transform="translate(7212.477 10214)">
      <path id="Path_253840" data-name="Path 253840" d="M303.683,150a12.174,12.174,0,0,0-12.16,12.16V267.841A12.174,12.174,0,0,0,303.683,280h34.985V150Z" fill="#efefef"/>
      <path id="Path_253841" data-name="Path 253841" d="M298.767,267.84V162.16A12.174,12.174,0,0,1,310.927,150h-7.244a12.174,12.174,0,0,0-12.16,12.16V267.841A12.174,12.174,0,0,0,303.683,280h7.244A12.174,12.174,0,0,1,298.767,267.84Z" fill="#ddd"/>
      <path id="Path_253842" data-name="Path 253842" d="M309.483,161.063h0a6.165,6.165,0,0,0-6.147,6.147V181.6a6.166,6.166,0,0,0,6.147,6.147h0a6.166,6.166,0,0,0,6.147-6.147V167.21A6.165,6.165,0,0,0,309.483,161.063Z" transform="translate(-4.569 -4.279)" fill="#535454"/>
      <path id="Path_253843" data-name="Path 253843" d="M309.483,181.595V167.208a6.16,6.16,0,0,1,3.073-5.316,6.152,6.152,0,0,0-9.221,5.316V181.6a6.152,6.152,0,0,0,9.221,5.316A6.16,6.16,0,0,1,309.483,181.595Z" transform="translate(-4.569 -4.277)" fill="#444443"/>
      <path id="Path_253844" data-name="Path 253844" d="M406.385,150h-45.65a12.174,12.174,0,0,0-12.16,12.16V267.841A12.173,12.173,0,0,0,360.735,280h45.65a12.173,12.173,0,0,0,12.16-12.159V162.16A12.174,12.174,0,0,0,406.385,150Z" transform="translate(-22.067)" fill="#535454"/>
      <path id="Path_253845" data-name="Path 253845" d="M355.311,267.84V162.16A12.174,12.174,0,0,1,367.471,150h-6.736a12.174,12.174,0,0,0-12.16,12.16V267.841A12.173,12.173,0,0,0,360.735,280h6.736A12.174,12.174,0,0,1,355.311,267.84Z" transform="translate(-22.067)" fill="#444443"/>
      <path id="Path_253846" data-name="Path 253846" d="M416.057,272.09a5.422,5.422,0,0,1-5.423,5.423h-45.65a5.422,5.422,0,0,1-5.423-5.423V166.41a5.422,5.422,0,0,1,5.423-5.423h5.689a2.029,2.029,0,0,1,2.029,2.029V164.3a3.149,3.149,0,0,0,3.139,3.139h23.935a3.149,3.149,0,0,0,3.139-3.139v-1.861a1.455,1.455,0,0,1,1.455-1.455h6.263a5.422,5.422,0,0,1,5.423,5.423Z" transform="translate(-26.317 -4.25)" fill="#a4d9f4"/>
      <path id="Path_253847" data-name="Path 253847" d="M366.031,272.089V166.409a5.42,5.42,0,0,1,4.941-5.4c-.315-.047.02-.014-5.988-.025a5.422,5.422,0,0,0-5.423,5.423V272.089a5.422,5.422,0,0,0,5.423,5.423h6.469A5.423,5.423,0,0,1,366.031,272.089Z" transform="translate(-26.317 -4.249)" fill="#7cc9e8"/>
      <g id="Group_146957" data-name="Group 146957" transform="translate(302.952 154.774)">
        <path id="Path_253848" data-name="Path 253848" d="M410.805,161.712H400.562a1.962,1.962,0,0,1,0-3.924h10.244a1.962,1.962,0,0,1,0,3.924Z" transform="translate(-344.369 -157.786)" fill="#666"/>
        <path id="Path_253849" data-name="Path 253849" d="M389.412,161.38a1.961,1.961,0,1,1,1.47.293A3.163,3.163,0,0,1,389.412,161.38Z" transform="translate(-340.479 -157.785)" fill="#666"/>
        <path id="Path_253850" data-name="Path 253850" d="M311.034,171.913a1.963,1.963,0,1,1,1.472.29A2.5,2.5,0,0,1,311.034,171.913Z" transform="translate(-310.161 -161.861)" fill="#666"/>
      </g>
      <path id="Path_253851" data-name="Path 253851" d="M311.034,183.215a1.962,1.962,0,1,1,2.477-.247A2.2,2.2,0,0,1,311.034,183.215Z" transform="translate(-7.209 -11.458)" fill="#f9d698"/>
      <path id="Path_253852" data-name="Path 253852" d="M311.035,194.512a1.962,1.962,0,1,1,2.477-.243A2.024,2.024,0,0,1,311.035,194.512Z" transform="translate(-7.21 -15.826)" fill="#666"/>
      <path id="Path_253853" data-name="Path 253853" d="M376.285,192.856h-5.25a.878.878,0,0,1-.875-.875v-5.25a.878.878,0,0,1,.875-.875h5.25a.877.877,0,0,1,.875.875v5.25A.877.877,0,0,1,376.285,192.856Z" transform="translate(-30.416 -13.869)" fill="#70b5e8"/>
      <path id="Path_253854" data-name="Path 253854" d="M396.44,192.856h-5.25a.878.878,0,0,1-.875-.875v-5.25a.878.878,0,0,1,.875-.875h5.25a.878.878,0,0,1,.875.875v5.25A.878.878,0,0,1,396.44,192.856Z" transform="translate(-38.212 -13.869)" fill="#efefef"/>
      <path id="Path_253855" data-name="Path 253855" d="M416.595,192.856h-5.25a.878.878,0,0,1-.875-.875v-5.25a.878.878,0,0,1,.875-.875h5.25a.878.878,0,0,1,.875.875v5.25A.878.878,0,0,1,416.595,192.856Z" transform="translate(-46.008 -13.869)" fill="#92b620"/>
      <path id="Path_253856" data-name="Path 253856" d="M436.75,192.856H431.5a.877.877,0,0,1-.875-.875v-5.25a.877.877,0,0,1,.875-.875h5.25a.878.878,0,0,1,.875.875v5.25A.878.878,0,0,1,436.75,192.856Z" transform="translate(-53.804 -13.869)" fill="#898989"/>
      <path id="Path_253857" data-name="Path 253857" d="M376.285,213.21h-5.25a.878.878,0,0,1-.875-.875v-5.25a.878.878,0,0,1,.875-.875h5.25a.878.878,0,0,1,.875.875v5.25A.878.878,0,0,1,376.285,213.21Z" transform="translate(-30.416 -21.742)" fill="#92b620"/>
      <path id="Path_253858" data-name="Path 253858" d="M396.44,213.21h-5.25a.878.878,0,0,1-.875-.875v-5.25a.878.878,0,0,1,.875-.875h5.25a.878.878,0,0,1,.875.875v5.25A.878.878,0,0,1,396.44,213.21Z" transform="translate(-38.212 -21.742)" fill="#898989"/>
      <path id="Path_253859" data-name="Path 253859" d="M416.595,213.21h-5.25a.878.878,0,0,1-.875-.875v-5.25a.878.878,0,0,1,.875-.875h5.25a.878.878,0,0,1,.875.875v5.25A.878.878,0,0,1,416.595,213.21Z" transform="translate(-46.008 -21.742)" fill="#70b5e8"/>
      <path id="Path_253860" data-name="Path 253860" d="M436.75,213.21H431.5a.878.878,0,0,1-.875-.875v-5.25a.878.878,0,0,1,.875-.875h5.25a.878.878,0,0,1,.875.875v5.25A.878.878,0,0,1,436.75,213.21Z" transform="translate(-53.804 -21.742)" fill="#f94a46"/>
      <path id="Path_253861" data-name="Path 253861" d="M376.285,233.828h-5.25a.878.878,0,0,1-.875-.875V227.7a.877.877,0,0,1,.875-.875h5.25a.877.877,0,0,1,.875.875v5.25A.877.877,0,0,1,376.285,233.828Z" transform="translate(-30.416 -29.716)" fill="#dda36f"/>
      <path id="Path_253862" data-name="Path 253862" d="M396.44,233.828h-5.25a.878.878,0,0,1-.875-.875V227.7a.877.877,0,0,1,.875-.875h5.25a.877.877,0,0,1,.875.875v5.25A.878.878,0,0,1,396.44,233.828Z" transform="translate(-38.212 -29.716)" fill="#f9d698"/>
      <path id="Path_253863" data-name="Path 253863" d="M416.595,233.828h-5.25a.878.878,0,0,1-.875-.875V227.7a.877.877,0,0,1,.875-.875h5.25a.877.877,0,0,1,.875.875v5.25A.878.878,0,0,1,416.595,233.828Z" transform="translate(-46.008 -29.716)" fill="#898989"/>
      <path id="Path_253864" data-name="Path 253864" d="M436.75,233.828H431.5a.877.877,0,0,1-.875-.875V227.7a.877.877,0,0,1,.875-.875h5.25a.877.877,0,0,1,.875.875v5.25A.878.878,0,0,1,436.75,233.828Z" transform="translate(-53.804 -29.716)" fill="#f9d698"/>
      <g id="Group_146958" data-name="Group 146958" transform="translate(339.744 209.593)">
        <path id="Path_253865" data-name="Path 253865" d="M376.285,254.181h-5.25a.877.877,0,0,1-.875-.874v-5.25a.877.877,0,0,1,.875-.874h5.25a.877.877,0,0,1,.875.874v5.25A.877.877,0,0,1,376.285,254.181Z" transform="translate(-370.16 -247.182)" fill="#70b5e8"/>
        <path id="Path_253866" data-name="Path 253866" d="M396.44,254.181h-5.25a.877.877,0,0,1-.875-.874v-5.25a.877.877,0,0,1,.875-.874h5.25a.877.877,0,0,1,.875.874v5.25A.877.877,0,0,1,396.44,254.181Z" transform="translate(-377.956 -247.182)" fill="#70b5e8"/>
      </g>
      <path id="Path_253867" data-name="Path 253867" d="M416.595,254.181h-5.25a.877.877,0,0,1-.875-.874v-5.25a.877.877,0,0,1,.875-.874h5.25a.877.877,0,0,1,.875.874v5.25A.877.877,0,0,1,416.595,254.181Z" transform="translate(-46.008 -37.589)" fill="#f94a46"/>
      <path id="Path_253868" data-name="Path 253868" d="M376.285,274.535h-5.25a.877.877,0,0,1-.875-.875v-5.25a.877.877,0,0,1,.875-.875h5.25a.877.877,0,0,1,.875.875v5.25A.877.877,0,0,1,376.285,274.535Z" transform="translate(-30.416 -45.462)" fill="#efefef"/>
      <path id="Path_253869" data-name="Path 253869" d="M396.44,274.535h-5.25a.877.877,0,0,1-.875-.875v-5.25a.877.877,0,0,1,.875-.875h5.25a.877.877,0,0,1,.875.875v5.25A.877.877,0,0,1,396.44,274.535Z" transform="translate(-38.212 -45.462)" fill="#92b620"/>
      <path id="Path_253870" data-name="Path 253870" d="M416.595,274.535h-5.25a.877.877,0,0,1-.875-.875v-5.25a.877.877,0,0,1,.875-.875h5.25a.877.877,0,0,1,.875.875v5.25A.877.877,0,0,1,416.595,274.535Z" transform="translate(-46.008 -45.462)" fill="#898989"/>
      <path id="Path_253871" data-name="Path 253871" d="M436.75,254.181H431.5a.877.877,0,0,1-.875-.874v-5.25a.877.877,0,0,1,.875-.874h5.25a.877.877,0,0,1,.875.874v5.25A.877.877,0,0,1,436.75,254.181Z" transform="translate(-53.804 -37.589)" fill="#ffb70d"/>
      <path id="Path_253872" data-name="Path 253872" d="M376.285,337.335h-5.25a.878.878,0,0,1-.875-.874v-5.25a.878.878,0,0,1,.875-.874h5.25a.877.877,0,0,1,.875.874v5.25A.877.877,0,0,1,376.285,337.335Z" transform="translate(-30.416 -69.753)" fill="#92b620"/>
      <path id="Path_253873" data-name="Path 253873" d="M396.44,337.335h-5.25a.877.877,0,0,1-.875-.874v-5.25a.877.877,0,0,1,.875-.874h5.25a.877.877,0,0,1,.875.874v5.25A.877.877,0,0,1,396.44,337.335Z" transform="translate(-38.212 -69.753)" fill="#70b5e8"/>
      <path id="Path_253874" data-name="Path 253874" d="M416.595,337.335h-5.25a.877.877,0,0,1-.875-.874v-5.25a.877.877,0,0,1,.875-.874h5.25a.877.877,0,0,1,.875.874v5.25A.877.877,0,0,1,416.595,337.335Z" transform="translate(-46.008 -69.753)" fill="#92b620"/>
      <path id="Path_253875" data-name="Path 253875" d="M436.75,337.335H431.5a.877.877,0,0,1-.875-.874v-5.25a.877.877,0,0,1,.875-.874h5.25a.877.877,0,0,1,.875.874v5.25A.877.877,0,0,1,436.75,337.335Z" transform="translate(-53.804 -69.753)" fill="#efefef"/>
    </g>
  </g>
</svg>
