<svg xmlns="http://www.w3.org/2000/svg" width="295" height="224.509" viewBox="0 0 295 224.509">
  <g id="_28" data-name="28" transform="translate(-87.259 -65.04)">
    <g id="Group_151545" data-name="Group 151545" transform="translate(116.7 165.292)">
      <g id="Group_151541" data-name="Group 151541" transform="translate(20.053 66.619)">
        <path id="Path_263586" data-name="Path 263586" d="M252.379,572.6l.806,18.7-2.364,31.8-3.537.251-4.3-28.885-5.945-24.442Z" transform="translate(-237.041 -570.031)" fill="#9e9379"/>
        <path id="Path_263587" data-name="Path 263587" d="M268.147,731.5l3.961,1.641,1.777-2.049-2.049-1.777-3.825.272Z" transform="translate(-257.777 -676.678)" fill="#556362"/>
      </g>
      <g id="Group_151542" data-name="Group 151542" transform="translate(9.575 61.115)">
        <path id="Path_263588" data-name="Path 263588" d="M206.106,554.828l-.776,14.138,2.3,42.038,3.542.177,5.308-27.572,4.682-30.236Z" transform="translate(-205.33 -553.374)" fill="#9e9379"/>
        <path id="Path_263589" data-name="Path 263589" d="M211.09,728.561l-3.926,1.724-1.819-2.011,2.011-1.819,3.83.191Z" transform="translate(-205.34 -669.261)" fill="#556362"/>
      </g>
      <g id="Group_151543" data-name="Group 151543" transform="translate(6.374 19.735)">
        <path id="Path_263590" data-name="Path 263590" d="M220.215,429.332l-11.052-1.184s-6.149.657-10.321,15.259c-2.321,8.124-3.028,20.923-3.2,30.681.261,1.392,1.778,7.489,8.19,6.455,11.012-1.776,16.873-3.552,21.668-2.664,4.085.888,3.74-4.736,3.291-9.028l-1.628-13.28Z" transform="translate(-195.644 -428.148)" fill="#a9b4b9"/>
      </g>
      <g id="Group_151544" data-name="Group 151544" transform="translate(14.436)">
        <path id="Path_263591" data-name="Path 263591" d="M240.915,388.4c-2.786-.614-5.653-1.164-8.442-.612a2.33,2.33,0,0,0-1.6.861,2.429,2.429,0,0,0-.259.673c-.7,2.616-1.6,6.494.126,8.9a4.3,4.3,0,0,0,1.243,1.121,6.116,6.116,0,0,0,2.061.809,11.065,11.065,0,0,1-.624,1.9c.637.962,3.613,1.077,4.163.155q.046-1.2.093-2.393a5.914,5.914,0,0,0,1.041-.541,6.721,6.721,0,0,0,2.6-3.53c.53-1.548,1.276-3.02,1.76-4.6a2.226,2.226,0,0,0,.013-1.751,2.37,2.37,0,0,0-1.641-.881Z" transform="translate(-226.541 -381.235)" fill="#80725c"/>
        <path id="Path_263592" data-name="Path 263592" d="M225.143,377.083a8.684,8.684,0,0,1,4.737-1.173c3.914.284,5.348,3.158,5.557,6.757,1.079-1.37,3.1-3.094,3.224-4.858a8.252,8.252,0,0,0-.908-4.659c-.757-1.166-2.692-1.807-3.842-2.483l-3.254-1.912a1.647,1.647,0,0,0-1.63-.21l-7.691,1.988c-.492.128-1.053.313-1.235.788a1.616,1.616,0,0,0,.02.914,37.865,37.865,0,0,1,.988,4.039c.156.784.624,4.8,2.01,4.335a18.048,18.048,0,0,0,.785-2.2A3.185,3.185,0,0,1,225.143,377.083Z" transform="translate(-220.041 -368.426)" fill="#4f4b47"/>
      </g>
      <path id="Path_263593" data-name="Path 263593" d="M196.247,428.148l-4.085,1.243-14.919,15.63-.888,5.151,7.132,11.776,1.926-4.316-3.019-8.7,4.8-3.375,6.394-14.387Z" transform="translate(-176.354 -408.413)" fill="#a9b4b9"/>
    </g>
    <g id="Group_151547" data-name="Group 151547" transform="translate(193.696 65.04)">
      <path id="Path_263594" data-name="Path 263594" d="M481.248,65.04l-42.284.422-29.6,30.2.422,42.284,30.2,29.6,42.284-.422,29.6-30.2-.422-42.284Z" transform="translate(-409.362 -65.04)" fill="#dedfde"/>
      <path id="Path_263595" data-name="Path 263595" d="M514.94,102.913l-28.207-27.65-39.5.394-27.65,28.207.394,39.5,28.207,27.65,39.5-.394,27.65-28.207Z" transform="translate(-416.207 -71.885)" fill="#c32d2e"/>
      <g id="Group_151546" data-name="Group 151546" transform="translate(14.627 39.126)">
        <path id="Path_263596" data-name="Path 263596" d="M469.337,191.331l0,.407-4.444.044,0-.305a2.959,2.959,0,0,0-3.187-3.191c-2.1.021-3.246,1.084-3.232,2.509.047,4.715,11.316,1.821,11.4,10.37.053,5.326-3.319,7.43-8.136,7.478-4.275.043-8.065-2.362-8.112-7.146,0-.271.028-.577.026-.747l4.512-.045c0,.068-.03.374-.029.543a3.448,3.448,0,0,0,3.769,3.661c2.612-.026,3.514-1.426,3.5-2.783C465.352,196.6,454.088,200,454,191.145c-.044-4.41,3.6-6.55,7.7-6.591C465.842,184.512,469.289,186.548,469.337,191.331Z" transform="translate(-453.628 -184.187)" fill="#fff"/>
        <path id="Path_263597" data-name="Path 263597" d="M523.872,188.877l-5.767.057.193,19.405-4.342.043-.194-19.405-5.767.057-.038-3.868,15.877-.158Z" transform="translate(-490.004 -184.492)" fill="#fff"/>
        <path id="Path_263598" data-name="Path 263598" d="M579.386,195.394c.082,8.21-3.544,12.08-9.549,12.14s-9.707-3.737-9.789-11.947,3.544-12.08,9.549-12.14S579.3,187.184,579.386,195.394Zm-14.868-.7.017,1.7c.046,4.648,1.8,7.446,5.265,7.412s5.162-2.868,5.116-7.515l-.017-1.7c-.046-4.648-1.8-7.446-5.265-7.411S564.472,190.046,564.518,194.694Z" transform="translate(-524.881 -183.446)" fill="#fff"/>
        <path id="Path_263599" data-name="Path 263599" d="M632.354,198.328l.09,9.024-4.342.043-.232-23.273,8.312-.083c4.818-.048,7.323,2.879,7.364,6.916a6.865,6.865,0,0,1-7.221,7.333Zm-.1-10.381.065,6.547,3.529-.035c2.1-.021,3.244-1.322,3.222-3.459a2.944,2.944,0,0,0-3.288-3.089Z" transform="translate(-570.293 -183.843)" fill="#fff"/>
      </g>
    </g>
    <g id="Group_151554" data-name="Group 151554" transform="translate(261.48 164.71)">
      <g id="Group_151552" data-name="Group 151552" transform="translate(19.193)">
        <path id="Path_263600" data-name="Path 263600" d="M771.22,722.036l.284,2.208-4.132,2.776L764.88,725.1,766.8,722.6l4.132-2.776Z" transform="translate(-734.38 -603.127)" fill="#40495f"/>
        <g id="Group_151548" data-name="Group 151548" transform="translate(19.023 51.13)">
          <path id="Path_263601" data-name="Path 263601" d="M748.1,588.432l-3.187-28.158,3.834-31.523-.862-6.705-17.125-.651-.618,10.914,2.875,28.008,10.815,29.554Z" transform="translate(-730.146 -521.395)" fill="#687081"/>
        </g>
        <g id="Group_151549" data-name="Group 151549" transform="translate(7.03 51.553)">
          <path id="Path_263602" data-name="Path 263602" d="M693.9,525.409l-.045,28.415,5.72,36.58,4.117-.041,2.263-33.828,5.3-33.858Z" transform="translate(-693.854 -522.677)" fill="#687081"/>
          <path id="Path_263603" data-name="Path 263603" d="M710.071,728.255l-4.43,2.27-2.248-2.2,2.2-2.248,4.452-.044Z" transform="translate(-700.241 -658.833)" fill="#40495f"/>
        </g>
        <g id="Group_151550" data-name="Group 151550" transform="translate(0 19.786)">
          <path id="Path_263604" data-name="Path 263604" d="M711.978,470.7c-.039-1.231-.108-2.259-.118-2.626-.088-3.3-.382-6.6-.8-9.879-.37-2.939-.838-10.236-1.341-13.156a62.44,62.44,0,0,0-2.908-10.668c-2.6-5.563-1.8-6.077-13.219-7.729-5.006-.724-6.189,2.4-10.282,5.983-.4.354-.381,2.46-.475,3.019-.165.982-.341,1.963-.544,2.939q-.239,1.151-.532,2.292h0s-3.436,15.635-5.708,18.956-6.966,7.963.886,10.8a28.049,28.049,0,0,0,4.24,1.107s6.422-.713,9.724-.689a56.088,56.088,0,0,1,9.086.846,19.552,19.552,0,0,1,5.828,1.754c1.706.892,2.938,2.2,4.669,3.126a.906.906,0,0,0,.53.152C712.014,476.791,712.061,473.3,711.978,470.7Z" transform="translate(-672.578 -426.541)" fill="#6b827c"/>
        </g>
        <g id="Group_151551" data-name="Group 151551" transform="translate(5.178)">
          <path id="Path_263605" data-name="Path 263605" d="M725.8,403.854a4.7,4.7,0,0,0,3.356-.169.742.742,0,0,0,.475-.695,19.251,19.251,0,0,0-.207-2.575c1.064-.374,2.294-.935,2.479-2.048a3.18,3.18,0,0,0-.063-1.059l-.75-4.342a3.876,3.876,0,0,0-.451-1.445,3.259,3.259,0,0,0-2.283-1.235,7.932,7.932,0,0,0-6.422,1.565,3.476,3.476,0,0,0-1.085,1.431,4.715,4.715,0,0,0,.158,2.752l.657,2.5c.252.959.615,2.048,1.539,2.408.49.191,1.069.135,1.513.418C725.5,401.856,725.4,403.02,725.8,403.854Z" transform="translate(-709.977 -382.394)" fill="#d8c9ae"/>
          <path id="Path_263606" data-name="Path 263606" d="M691.138,373.689a9.424,9.424,0,0,0-.723-1.037,18.325,18.325,0,0,1-1.746-2.1,2.371,2.371,0,0,1-.07-2.577,2.829,2.829,0,0,1,1.5-.867,10.935,10.935,0,0,1,5.751-.106c1.791.456,3.394,1.211,5.2.538a6.071,6.071,0,0,1,4.688.257c1.916.683,4.488.845,6.222,1.81a5.118,5.118,0,0,1,1.753,1.729,7.709,7.709,0,0,1,.021,8.152,11.033,11.033,0,0,1-1.2,1.512,8.261,8.261,0,0,1-3.228,2.554c-.03-1.112.983-4.62.129-5.531-1.356-1.447-4.421-.942-6.1-.586-1.834.389-3.469,1.688-5.288,1.965a6.858,6.858,0,0,1-4.092-1.119C692.581,377.443,691.941,375.008,691.138,373.689Z" transform="translate(-688.248 -366.665)" fill="#3b3631"/>
        </g>
        <path id="Path_263607" data-name="Path 263607" d="M764.88,433.33l7.127,6.245,7.951,16.708-10.042,11.947-1.728-6.681Z" transform="translate(-734.38 -411.301)" fill="#6b827c"/>
      </g>
      <g id="Group_151553" data-name="Group 151553" transform="translate(0 20.411)">
        <path id="Path_263608" data-name="Path 263608" d="M618.034,440.089l-3.54-2.279.908-1.555,2.769,1.024.088-.935,2.791,2.319-.726,1.744Z" transform="translate(-614.495 -433.67)" fill="#d9caaf"/>
        <path id="Path_263609" data-name="Path 263609" d="M662.155,428.433,643.688,436l-11.658-2.579-1.139,2.23,10.633,7.828,14.655-1.745Z" transform="translate(-625.473 -428.433)" fill="#6b827c"/>
      </g>
    </g>
    <g id="Group_151557" data-name="Group 151557" transform="translate(236.863 225.13)">
      <g id="Group_151555" data-name="Group 151555" transform="translate(0)">
        <path id="Path_263610" data-name="Path 263610" d="M550,728.242l-.1,1.933,3.766,2.132,2.032-1.833-1.833-2.032L550.1,726.31Z" transform="translate(-546.628 -667.888)" fill="#59595b"/>
        <path id="Path_263611" data-name="Path 263611" d="M540.3,551.214l-.3,5.87,6.518,25.838L543.2,609.233l3.794.964,10.534-31.614.189-9.513L555.1,549.512Z" transform="translate(-539.997 -549.512)" fill="#2e4661"/>
      </g>
      <g id="Group_151556" data-name="Group 151556" transform="translate(13.904 0.547)">
        <path id="Path_263612" data-name="Path 263612" d="M597.331,551.767l2.921,24.529-1.229,32.163-3.559.382-5.384-28.978-8.006-28.7Z" transform="translate(-582.073 -551.168)" fill="#2e4661"/>
        <path id="Path_263613" data-name="Path 263613" d="M622.728,725.5l4.055,1.511,1.718-2.131-2.131-1.718-3.848.413Z" transform="translate(-609.156 -666.329)" fill="#59595b"/>
      </g>
    </g>
    <g id="Group_151558" data-name="Group 151558" transform="translate(231.993 187.604)">
      <path id="Path_263614" data-name="Path 263614" d="M560.728,470.537c-3.665-7.463-5.128-15.646-7.048-23.7a21.8,21.8,0,0,0-2.477-6.855,8.376,8.376,0,0,0-5.934-3.821c-2.954-.517-6.275.019-9.233.267-1.79,5.591-2.955,2.419-5.057,7.9-.436,1.136-1.672,10.979-2.131,12.106h0s-4.829,15.123-3.284,27.084c.016.119.028.234.042.35.312.054.611.108.891.164a60.021,60.021,0,0,0,12.676,1.244,49.416,49.416,0,0,0,11.215-1.413c5.018-1.241,10.976-.734,15.078-4.041C564.263,477.377,561.93,472.986,560.728,470.537Z" transform="translate(-525.259 -435.948)" fill="#dad9ca"/>
    </g>
    <g id="Group_151559" data-name="Group 151559" transform="translate(224.277 167.371)">
      <path id="Path_263615" data-name="Path 263615" d="M501.909,397.1l4.122-22.379,3.5.677.161,16.887Z" transform="translate(-501.909 -374.717)" fill="#dad9ca"/>
    </g>
    <path id="Path_263616" data-name="Path 263616" d="M501.909,430.182l20.456,13.33-2.907-13.643-12.568-5.737Z" transform="translate(-277.632 -240.433)" fill="#dad9ca"/>
    <g id="Group_151561" data-name="Group 151561" transform="translate(229.8 170.675)">
      <path id="Path_263617" data-name="Path 263617" d="M562.613,402.3c-2.655-4-9.49-3.784-9.589,1.734a10.514,10.514,0,0,0,.877,4.849,5.248,5.248,0,0,0,3.744,2.978l.028,0,.162,1.27a.287.287,0,0,0,.4.3l1.519-.18a1.664,1.664,0,0,0,.724-.2,1.4,1.4,0,0,0,.386-1.508c-.029-.129-.066-.257-.1-.386C563.369,409.388,564.349,404.917,562.613,402.3Z" transform="translate(-541.655 -394.656)" fill="#b99a6f"/>
      <g id="Group_151560" data-name="Group 151560">
        <path id="Path_263618" data-name="Path 263618" d="M528.712,393.512c-1.2.276-1.734,1.755-2.554,2.742-.682.822-1.619,1.336-2.364,2.088a2.983,2.983,0,0,0-.917,2.979,4.968,4.968,0,0,0-3.229.383,2.151,2.151,0,0,0-.614,3.043c.72.759,1.981.51,2.721,1.244,1.171,1.162.353,4,1.862,4.486.363.116.758.023,1.119.148a2.852,2.852,0,0,1,1.07.984,4.764,4.764,0,0,0,5.834,1.189,5.632,5.632,0,0,0,1.419-4.163c-.115-1.848-1.217-2.076-1.969-3.557a7.211,7.211,0,0,1-.44-5.333A4.6,4.6,0,0,1,532.707,397c.408-.207.413.2.761-.316a2.282,2.282,0,0,0,.178-1.141C532.146,395.071,530.291,393.148,528.712,393.512Z" transform="translate(-518.624 -390.575)" fill="#483d3f"/>
        <path id="Path_263619" data-name="Path 263619" d="M568.082,385.032a13.838,13.838,0,0,1,1.928-.314c.981.038,1.271.927,1.8,1.589a8.731,8.731,0,0,0,2.218,2.138,8.542,8.542,0,0,0,1.867.533,2.137,2.137,0,0,1,1.525,1.186c.232.621.035,1.338.216,1.978a9.481,9.481,0,0,1,.715,2.406,3.065,3.065,0,0,1-.152,1.592,2.206,2.206,0,0,1-1.633,1.018,3.994,3.994,0,0,0-1.837.643c-1.113.935-.365,2.137-.28,3.358a3.344,3.344,0,0,1-3.107,3.563,3.7,3.7,0,0,1-3.23-2.62c-.252-.725-.229-1.5-.489-2.225-.25-.7-1.013-1.5-.6-2.291a5.343,5.343,0,0,0,.345-.545,1.086,1.086,0,0,0,.033-.534,2.127,2.127,0,0,0-.966-1.5,4.4,4.4,0,0,1-1.1-.632,3.675,3.675,0,0,1-.563-1.416,3.071,3.071,0,0,0-2.6-2.14,8.178,8.178,0,0,1-2.122-.224c-.111-.035-1.813-.656-1.751-.4a2.737,2.737,0,0,1,.109-1.34,5.382,5.382,0,0,1,.878-1.989c1.438-1.8,2.507.656,3.871-.258.329-.22.471-.657.717-.981a2.311,2.311,0,0,1,2.006-.741A15.123,15.123,0,0,0,568.082,385.032Z" transform="translate(-545.158 -384.716)" fill="#483d3f"/>
      </g>
    </g>
    <g id="Group_151563" data-name="Group 151563" transform="translate(256.104 190.924)">
      <g id="Group_151562" data-name="Group 151562">
        <path id="Path_263620" data-name="Path 263620" d="M600.031,455.478c.386,1.7,1.793,3.317,3.033,5.093l4.37,6.258-4.739,15.023,2.959,1.016,8.542-14.988c-.008-5.987-5.353-9.055-6.755-12.416-.73-1.75-6.34-7.162-7.384-8.75-1.536-2.336.554,1.612-1.325,3.511C597.155,451.815,599.725,454.126,600.031,455.478Z" transform="translate(-598.224 -445.994)" fill="#dad9ca"/>
      </g>
      <path id="Path_263621" data-name="Path 263621" d="M611.1,556.976l-.61.823-1.427-.341-1.185.784-.282-.764,2.069-2.151,1.588.542Z" transform="translate(-604.502 -519.199)" fill="#b99a6f"/>
    </g>
    <path id="Path_263622" data-name="Path 263622" d="M516.776,366.046l1.534-2.558.792,1.793.89-.578.335,1.015-1.135,2.109-2.384-.462Z" transform="translate(-287.587 -199.828)" fill="#b99a6f"/>
    <g id="Group_151567" data-name="Group 151567" transform="translate(167.814 182.023)">
      <path id="Path_263623" data-name="Path 263623" d="M404.527,720.313l3.917,2.153-.34,1.839-6.96-.956.374-2.648Z" transform="translate(-377.978 -620.765)" fill="#2e4661"/>
      <path id="Path_263624" data-name="Path 263624" d="M350.916,726.349l-2.724-.033-.665,2.307.069.02-.017,0,4.537,2.609,2.144.21.24-2.45-.584-.416Z" transform="translate(-342.078 -624.785)" fill="#2e4661"/>
      <path id="Path_263625" data-name="Path 263625" d="M349.434,582.473c.437-.046,1.631,15.631,1.631,15.631l-8.479,28.488-4.89-.962,2.978-28.444s-10.35-11.936-7.37-20.852C337.809,578.518,349.434,582.473,349.434,582.473Z" transform="translate(-332.195 -524.363)" fill="#59595b"/>
      <path id="Path_263626" data-name="Path 263626" d="M393.295,595.314l.99,13.977-2.728,27.819-5.033-.257s-1.213-26.349-1.711-26.886-4.785-14.363-4.785-14.363Z" transform="translate(-363.839 -537.071)" fill="#59595b"/>
      <g id="Group_151564" data-name="Group 151564" transform="translate(0 14.478)">
        <path id="Path_263627" data-name="Path 263627" d="M353.877,513.016c-15.984-.293-17.157-8.359-20.676-9.239s-1.685-5.071-1.685-5.071.666-1.87.951-2.848c2.053-7.038,8.216-16.071,8.218-16.074a60.608,60.608,0,0,1,8.725-10.024,29.38,29.38,0,0,1,16.228-6.887c12.089,3.78,7.822,9.464,7.961,10.959-3.976,3.644-6.856,9.1-8.98,14.967a34.967,34.967,0,0,0-1.357,14.978c.265,2.088.571,3.9.874,5.475C364.2,511.31,362.216,513.148,353.877,513.016Z" transform="translate(-331.038 -462.873)" fill="#40495f"/>
        <path id="Path_263628" data-name="Path 263628" d="M388.34,465.874a3.277,3.277,0,0,1,4.357,1.089c2.023,3.112-9.412,17.147-9.141,47.163-3,.607-10.719,2.056-18.683-1.7C366.682,503.505,374.492,476.611,388.34,465.874Z" transform="translate(-353.692 -464.6)" fill="#fff"/>
      </g>
      <path id="Path_263629" data-name="Path 263629" d="M467.674,593.685l3.127,2.9,1.3-1.283-1.7-2.461.9-.322-2.979-2.157-1.53,1.151Z" transform="translate(-421.929 -533.757)" fill="#ebceb1"/>
      <path id="Path_263630" data-name="Path 263630" d="M446.88,479.448l1.091,2.531-1.042,18.615s5.51,15.935,5.361,15.935-3.723,1.192-3.723,1.192l-8.042-16.084v-9.829Z" transform="translate(-404.346 -459.492)" fill="#40495f"/>
      <g id="Group_151565" data-name="Group 151565" transform="translate(16.001)">
        <path id="Path_263631" data-name="Path 263631" d="M450.664,434.132c1.354,1.057,2.53,3.3,2.063,5.071-.225.852-.839,1.422-1.044,2.343-.41,1.814-3.564,3.15-2.238,5.256a5.52,5.52,0,0,0,3.224,1.922.941.941,0,0,0,.456.063.659.659,0,0,0,.466-.551,2.676,2.676,0,0,0-.027-.763c-.278-2.656,1.52-5.316,2.186-7.827s.63-5.367-1.107-7.448c-1.482.137-2.081-.148-3.032,1Z" transform="translate(-426.104 -427.857)" fill="#a19465"/>
        <path id="Path_263632" data-name="Path 263632" d="M434.58,444.042a5.6,5.6,0,0,0,4.6-2.2,11.21,11.21,0,0,0,2.073-4.829c1.218-5.758-5.833-7.62-9.55-4.1C428.466,435.986,429.453,443.639,434.58,444.042Z" transform="translate(-413.192 -427.142)" fill="#eacdb0"/>
        <path id="Path_263633" data-name="Path 263633" d="M392.071,434.876a4.98,4.98,0,0,0,2.712-.772c1.357-.98,2.158-3.188,2.991-4.586.877-1.474,1.882-3.055,3.5-3.617a4.059,4.059,0,0,1,2.992.27c.681.273.6.539,1.324.416a3.166,3.166,0,0,0,1.583-1.211,3.044,3.044,0,0,0,.275-2.615A4.267,4.267,0,0,0,405,419.973c-4.365-1.947-8.769-.723-11.818,3.06-1.465,1.818-1.991,4.307-3.464,6.031-.909,1.064-2.041,1.553-2.91,2.728-2.255,3.049-5.955,6.606-7.287,10.178a.534.534,0,0,0-.033.41c.125.259.512.169.769.041l4.5-2.247a7.084,7.084,0,0,0,1.673-1.039c1.209-1.109,1.628-3.023,3.1-3.755A6.6,6.6,0,0,1,392.071,434.876Z" transform="translate(-379.462 -419.058)" fill="#a19465"/>
      </g>
      <g id="Group_151566" data-name="Group 151566" transform="translate(7.192 4.52)">
        <path id="Path_263634" data-name="Path 263634" d="M368.089,451.6l-12.063-2.829L352.8,432.736l4,.35,3.091,10.469,15.637.447.893,1.191Z" transform="translate(-352.802 -432.736)" fill="#40495f"/>
      </g>
    </g>
    <path id="Path_263635" data-name="Path 263635" d="M355.786,420.493l-.394-4.2-2.978-2.277-.175,1.226,1.051,1.051a3.751,3.751,0,0,0,1.007,1.839,14.076,14.076,0,0,1-.657,2.19Z" transform="translate(-177.419 -233.657)" fill="#ebceb1"/>
    <g id="Group_151568" data-name="Group 151568" transform="translate(293.092 161.856)">
      <path id="Path_263636" data-name="Path 263636" d="M797.014,397.031,760.324,360.34a7.893,7.893,0,0,0-11.162,0l-36.691,36.691a7.893,7.893,0,0,0,0,11.162l36.691,36.691a7.893,7.893,0,0,0,11.162,0l36.691-36.691A7.893,7.893,0,0,0,797.014,397.031Z" transform="translate(-710.159 -358.028)" fill="#f1c831"/>
      <path id="Path_263637" data-name="Path 263637" d="M827.508,441.181v-13.02a17.123,17.123,0,1,0-34.245,0v30.032h8.38V428.162a8.742,8.742,0,0,1,17.485,0v13.02h-8.989l13.179,17.012,13.18-17.012Z" transform="translate(-765.802 -393.522)" fill="#272525"/>
    </g>
    <g id="Group_151569" data-name="Group 151569" transform="translate(188.362 206.439)">
      <path id="Path_263638" data-name="Path 263638" d="M447.951,502.339a32.06,32.06,0,1,0,9.39,22.67A31.85,31.85,0,0,0,447.951,502.339Z" transform="translate(-393.22 -492.948)" fill="#dedfde"/>
      <circle id="Ellipse_6247" data-name="Ellipse 6247" cx="29.796" cy="29.796" r="29.796" transform="translate(2.265 2.265)" fill="#c32d2e"/>
      <rect id="Rectangle_294551" data-name="Rectangle 294551" width="45.446" height="9.352" transform="translate(9.337 27.384)" fill="#fff"/>
    </g>
    <path id="Path_263639" data-name="Path 263639" d="M307.775,329.156l1.039-4.993-2.006-1.81-1.52,1.8-.423,2.033-1.287.241.631,3.487Z" transform="translate(-144.838 -172.286)" fill="#80725c"/>
    <path id="Path_263640" data-name="Path 263640" d="M269.507,372.325l9.11-6.488,2.779-22.143,3.567-.756-.151,23.017-2.506,5.223-10.732,9.768Z" transform="translate(-122.025 -186.069)" fill="#a9b4b9"/>
    <g id="Group_151570" data-name="Group 151570" transform="translate(87.259 183.567)">
      <circle id="Ellipse_6248" data-name="Ellipse 6248" cx="23.862" cy="23.862" r="23.862" transform="translate(0 10.965) rotate(-13.283)" fill="#26739c"/>
      <path id="Path_263641" data-name="Path 263641" d="M161.338,479.363,149.9,470.5v5.822h-3.173a10.324,10.324,0,0,0-10.312,10.312V497H142.5V486.632a4.231,4.231,0,0,1,4.227-4.227H149.9v5.822Z" transform="translate(-120.168 -455.044)" fill="#fff"/>
    </g>
    <g id="Group_151572" data-name="Group 151572" transform="translate(104.385 92.428)">
      <path id="Path_263642" data-name="Path 263642" d="M219.653,213.539l-35.248-63.416A4.277,4.277,0,0,0,177,150l-37.3,62.234a4.277,4.277,0,0,0,3.6,6.475l72.544,1.183A4.277,4.277,0,0,0,219.653,213.539Z" transform="translate(-139.088 -147.924)" fill="#f1c831"/>
      <g id="Group_151571" data-name="Group 151571" transform="translate(35.889 22.214)">
        <path id="Path_263643" data-name="Path 263643" d="M250.011,243.129,247.7,215.148l10.792.234-3.167,27.834Zm-2.142,3.891,9.408.153-.151,9.293-9.408-.153Z" transform="translate(-247.696 -215.148)" fill="#272525"/>
      </g>
    </g>
  </g>
</svg>
