<svg xmlns="http://www.w3.org/2000/svg" xmlns:xlink="http://www.w3.org/1999/xlink" width="363.506" height="286.628" viewBox="0 0 363.506 286.628">
  <defs>
    <linearGradient id="linear-gradient" x1="0.5" x2="0.5" y2="1" gradientUnits="objectBoundingBox">
      <stop offset="0" stop-color="#93eac2"/>
      <stop offset="1" stop-color="#20cb7d"/>
    </linearGradient>
  </defs>
  <g id="_29" data-name="29" transform="translate(-950.861 -10750)">
    <g id="Group_148528" data-name="Group 148528" transform="translate(0 10044.508)">
      <g id="Group_79815" data-name="Group 79815" transform="translate(915 687)">
        <g id="Group_79776" data-name="Group 79776" transform="translate(0 0)">
          <g id="Group_79644" data-name="Group 79644" transform="translate(0 0)">
            <path id="Path_145968" data-name="Path 145968" d="M80.036,0A80.036,80.036,0,1,1,0,80.036,80.036,80.036,0,0,1,80.036,0Z" transform="translate(239.295 123.515)" fill="#c6cbe2" opacity="0.444" style="mix-blend-mode: multiply;isolation: isolate"/>
            <path id="Path_145969" data-name="Path 145969" d="M54.689,0A54.689,54.689,0,1,1,0,54.689,54.689,54.689,0,0,1,54.689,0Z" transform="translate(44.716 20.3)" opacity="0.6" fill="url(#linear-gradient)" style="mix-blend-mode: multiply;isolation: isolate"/>
            <path id="Path_145971" data-name="Path 145971" d="M34.57,0A34.57,34.57,0,1,1,0,34.57,34.57,34.57,0,0,1,34.57,0Z" transform="translate(35.861 235.981)" fill="#fed9a0" opacity="0.444" style="mix-blend-mode: multiply;isolation: isolate"/>
            <g id="Group_78276" data-name="Group 78276" transform="translate(269.339 161.78)">
              <g id="Group_53306" data-name="Group 53306" transform="translate(0)">
                <path id="Path_99200" data-name="Path 99200" d="M416.388,51.263a1.088,1.088,0,1,1-1.087-1.039A1.064,1.064,0,0,1,416.388,51.263Z" transform="translate(-414.214 -50.224)" fill="#fff"/>
                <path id="Path_99201" data-name="Path 99201" d="M424.834,51.263a1.088,1.088,0,1,1-1.086-1.039A1.064,1.064,0,0,1,424.834,51.263Z" transform="translate(-412.879 -50.224)" fill="#fff"/>
                <path id="Path_99202" data-name="Path 99202" d="M433.28,51.263a1.088,1.088,0,1,1-1.086-1.039A1.064,1.064,0,0,1,433.28,51.263Z" transform="translate(-411.544 -50.224)" fill="#fff"/>
                <path id="Path_99203" data-name="Path 99203" d="M441.727,51.263a1.088,1.088,0,1,1-1.087-1.039A1.064,1.064,0,0,1,441.727,51.263Z" transform="translate(-410.21 -50.224)" fill="#fff"/>
                <path id="Path_99204" data-name="Path 99204" d="M450.173,51.263a1.088,1.088,0,1,1-1.086-1.039A1.064,1.064,0,0,1,450.173,51.263Z" transform="translate(-408.875 -50.224)" fill="#fff"/>
                <path id="Path_99205" data-name="Path 99205" d="M458.619,51.263a1.088,1.088,0,1,1-1.086-1.039A1.063,1.063,0,0,1,458.619,51.263Z" transform="translate(-407.54 -50.224)" fill="#fff"/>
                <path id="Path_99206" data-name="Path 99206" d="M467.066,51.263a1.088,1.088,0,1,1-1.087-1.039A1.065,1.065,0,0,1,467.066,51.263Z" transform="translate(-406.205 -50.224)" fill="#fff"/>
                <path id="Path_99207" data-name="Path 99207" d="M475.512,51.263a1.088,1.088,0,1,1-1.086-1.039A1.064,1.064,0,0,1,475.512,51.263Z" transform="translate(-404.87 -50.224)" fill="#fff"/>
                <path id="Path_99208" data-name="Path 99208" d="M483.958,51.263a1.088,1.088,0,1,1-1.086-1.039A1.064,1.064,0,0,1,483.958,51.263Z" transform="translate(-403.536 -50.224)" fill="#fff"/>
                <path id="Path_99209" data-name="Path 99209" d="M492.4,51.263a1.088,1.088,0,1,1-1.087-1.039A1.064,1.064,0,0,1,492.4,51.263Z" transform="translate(-402.201 -50.224)" fill="#fff"/>
                <path id="Path_99210" data-name="Path 99210" d="M500.851,51.263a1.088,1.088,0,1,1-1.087-1.039A1.064,1.064,0,0,1,500.851,51.263Z" transform="translate(-400.866 -50.224)" fill="#fff"/>
              </g>
              <g id="Group_53307" data-name="Group 53307" transform="translate(0 8.315)">
                <path id="Path_99211" data-name="Path 99211" d="M416.388,58.771a1.088,1.088,0,1,1-1.087-1.039A1.064,1.064,0,0,1,416.388,58.771Z" transform="translate(-414.214 -57.732)" fill="#fff"/>
                <path id="Path_99212" data-name="Path 99212" d="M424.834,58.771a1.088,1.088,0,1,1-1.086-1.039A1.063,1.063,0,0,1,424.834,58.771Z" transform="translate(-412.879 -57.732)" fill="#fff"/>
                <path id="Path_99213" data-name="Path 99213" d="M433.28,58.771a1.088,1.088,0,1,1-1.086-1.039A1.064,1.064,0,0,1,433.28,58.771Z" transform="translate(-411.544 -57.732)" fill="#fff"/>
                <path id="Path_99214" data-name="Path 99214" d="M441.727,58.771a1.088,1.088,0,1,1-1.087-1.039A1.064,1.064,0,0,1,441.727,58.771Z" transform="translate(-410.21 -57.732)" fill="#fff"/>
                <path id="Path_99215" data-name="Path 99215" d="M450.173,58.771a1.088,1.088,0,1,1-1.086-1.039A1.064,1.064,0,0,1,450.173,58.771Z" transform="translate(-408.875 -57.732)" fill="#fff"/>
                <path id="Path_99216" data-name="Path 99216" d="M458.619,58.771a1.088,1.088,0,1,1-1.086-1.039A1.063,1.063,0,0,1,458.619,58.771Z" transform="translate(-407.54 -57.732)" fill="#fff"/>
                <path id="Path_99217" data-name="Path 99217" d="M467.066,58.771a1.088,1.088,0,1,1-1.087-1.039A1.065,1.065,0,0,1,467.066,58.771Z" transform="translate(-406.205 -57.732)" fill="#fff"/>
                <path id="Path_99218" data-name="Path 99218" d="M475.512,58.771a1.088,1.088,0,1,1-1.086-1.039A1.064,1.064,0,0,1,475.512,58.771Z" transform="translate(-404.87 -57.732)" fill="#fff"/>
                <path id="Path_99219" data-name="Path 99219" d="M483.958,58.771a1.088,1.088,0,1,1-1.086-1.039A1.064,1.064,0,0,1,483.958,58.771Z" transform="translate(-403.536 -57.732)" fill="#fff"/>
                <path id="Path_99220" data-name="Path 99220" d="M492.4,58.771a1.088,1.088,0,1,1-1.087-1.039A1.064,1.064,0,0,1,492.4,58.771Z" transform="translate(-402.201 -57.732)" fill="#fff"/>
                <path id="Path_99221" data-name="Path 99221" d="M500.851,58.771a1.088,1.088,0,1,1-1.087-1.039A1.064,1.064,0,0,1,500.851,58.771Z" transform="translate(-400.866 -57.732)" fill="#fff"/>
              </g>
              <g id="Group_53308" data-name="Group 53308" transform="translate(0 16.629)">
                <ellipse id="Ellipse_3955" data-name="Ellipse 3955" cx="1.087" cy="1.039" rx="1.087" ry="1.039" fill="#fff"/>
                <path id="Path_99222" data-name="Path 99222" d="M424.834,66.279a1.088,1.088,0,1,1-1.086-1.039A1.064,1.064,0,0,1,424.834,66.279Z" transform="translate(-412.879 -65.24)" fill="#fff"/>
                <ellipse id="Ellipse_3956" data-name="Ellipse 3956" cx="1.087" cy="1.039" rx="1.087" ry="1.039" transform="translate(19.562)" fill="#fff"/>
                <path id="Path_99223" data-name="Path 99223" d="M441.727,66.279a1.088,1.088,0,1,1-1.087-1.039A1.065,1.065,0,0,1,441.727,66.279Z" transform="translate(-410.209 -65.24)" fill="#fff"/>
                <path id="Path_99224" data-name="Path 99224" d="M450.173,66.279a1.088,1.088,0,1,1-1.086-1.039A1.064,1.064,0,0,1,450.173,66.279Z" transform="translate(-408.875 -65.24)" fill="#fff"/>
                <ellipse id="Ellipse_3957" data-name="Ellipse 3957" cx="1.087" cy="1.039" rx="1.087" ry="1.039" transform="translate(48.906)" fill="#fff"/>
                <path id="Path_99225" data-name="Path 99225" d="M467.066,66.279a1.088,1.088,0,1,1-1.087-1.039A1.065,1.065,0,0,1,467.066,66.279Z" transform="translate(-406.205 -65.24)" fill="#fff"/>
                <ellipse id="Ellipse_3958" data-name="Ellipse 3958" cx="1.087" cy="1.039" rx="1.087" ry="1.039" transform="translate(68.468)" fill="#fff"/>
                <ellipse id="Ellipse_3959" data-name="Ellipse 3959" cx="1.087" cy="1.039" rx="1.087" ry="1.039" transform="translate(78.249)" fill="#fff"/>
                <path id="Path_99226" data-name="Path 99226" d="M492.4,66.279a1.088,1.088,0,1,1-1.087-1.039A1.065,1.065,0,0,1,492.4,66.279Z" transform="translate(-402.201 -65.24)" fill="#fff"/>
                <path id="Path_99227" data-name="Path 99227" d="M500.851,66.279a1.088,1.088,0,1,1-1.087-1.039A1.065,1.065,0,0,1,500.851,66.279Z" transform="translate(-400.866 -65.24)" fill="#fff"/>
              </g>
              <g id="Group_53309" data-name="Group 53309" transform="translate(0 24.943)">
                <ellipse id="Ellipse_3960" data-name="Ellipse 3960" cx="1.087" cy="1.039" rx="1.087" ry="1.039" transform="translate(0 0)" fill="#fff"/>
                <path id="Path_99228" data-name="Path 99228" d="M424.834,73.787a1.088,1.088,0,1,1-1.086-1.04A1.063,1.063,0,0,1,424.834,73.787Z" transform="translate(-412.879 -72.747)" fill="#fff"/>
                <ellipse id="Ellipse_3961" data-name="Ellipse 3961" cx="1.087" cy="1.039" rx="1.087" ry="1.039" transform="translate(19.562 0)" fill="#fff"/>
                <path id="Path_99229" data-name="Path 99229" d="M441.727,73.787a1.088,1.088,0,1,1-1.087-1.04A1.064,1.064,0,0,1,441.727,73.787Z" transform="translate(-410.209 -72.747)" fill="#fff"/>
                <path id="Path_99230" data-name="Path 99230" d="M450.173,73.787a1.088,1.088,0,1,1-1.086-1.04A1.063,1.063,0,0,1,450.173,73.787Z" transform="translate(-408.875 -72.747)" fill="#fff"/>
                <ellipse id="Ellipse_3962" data-name="Ellipse 3962" cx="1.087" cy="1.039" rx="1.087" ry="1.039" transform="translate(48.906 0)" fill="#fff"/>
                <path id="Path_99231" data-name="Path 99231" d="M467.066,73.787a1.088,1.088,0,1,1-1.087-1.04A1.064,1.064,0,0,1,467.066,73.787Z" transform="translate(-406.205 -72.747)" fill="#fff"/>
                <ellipse id="Ellipse_3963" data-name="Ellipse 3963" cx="1.087" cy="1.039" rx="1.087" ry="1.039" transform="translate(68.468 0)" fill="#fff"/>
                <ellipse id="Ellipse_3964" data-name="Ellipse 3964" cx="1.087" cy="1.039" rx="1.087" ry="1.039" transform="translate(78.249 0)" fill="#fff"/>
                <path id="Path_99232" data-name="Path 99232" d="M492.4,73.787a1.088,1.088,0,1,1-1.087-1.04A1.064,1.064,0,0,1,492.4,73.787Z" transform="translate(-402.201 -72.747)" fill="#fff"/>
                <path id="Path_99233" data-name="Path 99233" d="M500.851,73.787a1.088,1.088,0,1,1-1.087-1.04A1.064,1.064,0,0,1,500.851,73.787Z" transform="translate(-400.866 -72.747)" fill="#fff"/>
              </g>
              <g id="Group_53310" data-name="Group 53310" transform="translate(0 33.258)">
                <path id="Path_99234" data-name="Path 99234" d="M416.388,81.295a1.088,1.088,0,1,1-1.087-1.04A1.064,1.064,0,0,1,416.388,81.295Z" transform="translate(-414.214 -80.255)" fill="#fff"/>
                <path id="Path_99235" data-name="Path 99235" d="M424.834,81.295a1.088,1.088,0,1,1-1.086-1.04A1.063,1.063,0,0,1,424.834,81.295Z" transform="translate(-412.879 -80.255)" fill="#fff"/>
                <path id="Path_99236" data-name="Path 99236" d="M433.28,81.295a1.088,1.088,0,1,1-1.086-1.04A1.063,1.063,0,0,1,433.28,81.295Z" transform="translate(-411.544 -80.255)" fill="#fff"/>
                <path id="Path_99237" data-name="Path 99237" d="M441.727,81.295a1.088,1.088,0,1,1-1.087-1.04A1.064,1.064,0,0,1,441.727,81.295Z" transform="translate(-410.21 -80.255)" fill="#fff"/>
                <path id="Path_99238" data-name="Path 99238" d="M450.173,81.295a1.088,1.088,0,1,1-1.086-1.04A1.063,1.063,0,0,1,450.173,81.295Z" transform="translate(-408.875 -80.255)" fill="#fff"/>
                <path id="Path_99239" data-name="Path 99239" d="M458.619,81.295a1.088,1.088,0,1,1-1.086-1.04A1.063,1.063,0,0,1,458.619,81.295Z" transform="translate(-407.54 -80.255)" fill="#fff"/>
                <path id="Path_99240" data-name="Path 99240" d="M467.066,81.295a1.088,1.088,0,1,1-1.087-1.04A1.064,1.064,0,0,1,467.066,81.295Z" transform="translate(-406.205 -80.255)" fill="#fff"/>
                <path id="Path_99241" data-name="Path 99241" d="M475.512,81.295a1.088,1.088,0,1,1-1.086-1.04A1.063,1.063,0,0,1,475.512,81.295Z" transform="translate(-404.87 -80.255)" fill="#fff"/>
                <path id="Path_99242" data-name="Path 99242" d="M483.958,81.295a1.088,1.088,0,1,1-1.086-1.04A1.063,1.063,0,0,1,483.958,81.295Z" transform="translate(-403.536 -80.255)" fill="#fff"/>
                <path id="Path_99243" data-name="Path 99243" d="M492.4,81.295a1.088,1.088,0,1,1-1.087-1.04A1.064,1.064,0,0,1,492.4,81.295Z" transform="translate(-402.201 -80.255)" fill="#fff"/>
                <path id="Path_99244" data-name="Path 99244" d="M500.851,81.295a1.088,1.088,0,1,1-1.087-1.04A1.064,1.064,0,0,1,500.851,81.295Z" transform="translate(-400.866 -80.255)" fill="#fff"/>
              </g>
              <g id="Group_53311" data-name="Group 53311" transform="translate(0 41.573)">
                <ellipse id="Ellipse_3965" data-name="Ellipse 3965" cx="1.087" cy="1.039" rx="1.087" ry="1.039" transform="translate(0 0)" fill="#fff"/>
                <path id="Path_99245" data-name="Path 99245" d="M424.834,88.8a1.088,1.088,0,1,1-1.086-1.04A1.063,1.063,0,0,1,424.834,88.8Z" transform="translate(-412.879 -87.763)" fill="#fff"/>
                <ellipse id="Ellipse_3966" data-name="Ellipse 3966" cx="1.087" cy="1.039" rx="1.087" ry="1.039" transform="translate(19.562 0)" fill="#fff"/>
                <path id="Path_99246" data-name="Path 99246" d="M441.727,88.8a1.088,1.088,0,1,1-1.087-1.04A1.064,1.064,0,0,1,441.727,88.8Z" transform="translate(-410.209 -87.763)" fill="#fff"/>
                <path id="Path_99247" data-name="Path 99247" d="M450.173,88.8a1.088,1.088,0,1,1-1.086-1.04A1.063,1.063,0,0,1,450.173,88.8Z" transform="translate(-408.875 -87.763)" fill="#fff"/>
                <ellipse id="Ellipse_3967" data-name="Ellipse 3967" cx="1.087" cy="1.039" rx="1.087" ry="1.039" transform="translate(48.906 0)" fill="#fff"/>
                <path id="Path_99248" data-name="Path 99248" d="M467.066,88.8a1.088,1.088,0,1,1-1.087-1.04A1.064,1.064,0,0,1,467.066,88.8Z" transform="translate(-406.205 -87.763)" fill="#fff"/>
                <ellipse id="Ellipse_3968" data-name="Ellipse 3968" cx="1.087" cy="1.039" rx="1.087" ry="1.039" transform="translate(68.468 0)" fill="#fff"/>
                <ellipse id="Ellipse_3969" data-name="Ellipse 3969" cx="1.087" cy="1.039" rx="1.087" ry="1.039" transform="translate(78.249 0)" fill="#fff"/>
                <path id="Path_99249" data-name="Path 99249" d="M492.4,88.8a1.088,1.088,0,1,1-1.087-1.04A1.064,1.064,0,0,1,492.4,88.8Z" transform="translate(-402.201 -87.763)" fill="#fff"/>
                <path id="Path_99250" data-name="Path 99250" d="M500.851,88.8a1.088,1.088,0,1,1-1.087-1.04A1.064,1.064,0,0,1,500.851,88.8Z" transform="translate(-400.866 -87.763)" fill="#fff"/>
              </g>
              <g id="Group_53312" data-name="Group 53312" transform="translate(0 49.887)">
                <ellipse id="Ellipse_3970" data-name="Ellipse 3970" cx="1.087" cy="1.039" rx="1.087" ry="1.039" fill="#fff"/>
                <path id="Path_99251" data-name="Path 99251" d="M424.834,96.31a1.088,1.088,0,1,1-1.086-1.039A1.064,1.064,0,0,1,424.834,96.31Z" transform="translate(-412.879 -95.271)" fill="#fff"/>
                <ellipse id="Ellipse_3971" data-name="Ellipse 3971" cx="1.087" cy="1.039" rx="1.087" ry="1.039" transform="translate(19.562)" fill="#fff"/>
                <path id="Path_99252" data-name="Path 99252" d="M441.727,96.31a1.088,1.088,0,1,1-1.087-1.039A1.064,1.064,0,0,1,441.727,96.31Z" transform="translate(-410.209 -95.271)" fill="#fff"/>
                <path id="Path_99253" data-name="Path 99253" d="M450.173,96.31a1.088,1.088,0,1,1-1.086-1.039A1.064,1.064,0,0,1,450.173,96.31Z" transform="translate(-408.875 -95.271)" fill="#fff"/>
                <ellipse id="Ellipse_3972" data-name="Ellipse 3972" cx="1.087" cy="1.039" rx="1.087" ry="1.039" transform="translate(48.906)" fill="#fff"/>
                <path id="Path_99254" data-name="Path 99254" d="M467.066,96.31a1.088,1.088,0,1,1-1.087-1.039A1.065,1.065,0,0,1,467.066,96.31Z" transform="translate(-406.205 -95.271)" fill="#fff"/>
                <ellipse id="Ellipse_3973" data-name="Ellipse 3973" cx="1.087" cy="1.039" rx="1.087" ry="1.039" transform="translate(68.468)" fill="#fff"/>
                <ellipse id="Ellipse_3974" data-name="Ellipse 3974" cx="1.087" cy="1.039" rx="1.087" ry="1.039" transform="translate(78.249)" fill="#fff"/>
                <path id="Path_99255" data-name="Path 99255" d="M492.4,96.31a1.088,1.088,0,1,1-1.087-1.039A1.065,1.065,0,0,1,492.4,96.31Z" transform="translate(-402.201 -95.271)" fill="#fff"/>
                <path id="Path_99256" data-name="Path 99256" d="M500.851,96.31a1.088,1.088,0,1,1-1.087-1.039A1.064,1.064,0,0,1,500.851,96.31Z" transform="translate(-400.866 -95.271)" fill="#fff"/>
              </g>
              <g id="Group_53313" data-name="Group 53313" transform="translate(0 58.202)">
                <path id="Path_99257" data-name="Path 99257" d="M416.388,103.818a1.088,1.088,0,1,1-1.087-1.039A1.064,1.064,0,0,1,416.388,103.818Z" transform="translate(-414.214 -102.779)" fill="#fff"/>
                <path id="Path_99258" data-name="Path 99258" d="M424.834,103.818a1.088,1.088,0,1,1-1.086-1.039A1.064,1.064,0,0,1,424.834,103.818Z" transform="translate(-412.879 -102.779)" fill="#fff"/>
                <path id="Path_99259" data-name="Path 99259" d="M433.28,103.818a1.088,1.088,0,1,1-1.086-1.039A1.064,1.064,0,0,1,433.28,103.818Z" transform="translate(-411.544 -102.779)" fill="#fff"/>
                <path id="Path_99260" data-name="Path 99260" d="M441.727,103.818a1.088,1.088,0,1,1-1.087-1.039A1.064,1.064,0,0,1,441.727,103.818Z" transform="translate(-410.21 -102.779)" fill="#fff"/>
                <path id="Path_99261" data-name="Path 99261" d="M450.173,103.818a1.088,1.088,0,1,1-1.086-1.039A1.064,1.064,0,0,1,450.173,103.818Z" transform="translate(-408.875 -102.779)" fill="#fff"/>
                <path id="Path_99262" data-name="Path 99262" d="M458.619,103.818a1.088,1.088,0,1,1-1.086-1.039A1.064,1.064,0,0,1,458.619,103.818Z" transform="translate(-407.54 -102.779)" fill="#fff"/>
                <path id="Path_99263" data-name="Path 99263" d="M467.066,103.818a1.088,1.088,0,1,1-1.087-1.039A1.065,1.065,0,0,1,467.066,103.818Z" transform="translate(-406.205 -102.779)" fill="#fff"/>
                <path id="Path_99264" data-name="Path 99264" d="M475.512,103.818a1.088,1.088,0,1,1-1.086-1.039A1.064,1.064,0,0,1,475.512,103.818Z" transform="translate(-404.87 -102.779)" fill="#fff"/>
                <path id="Path_99265" data-name="Path 99265" d="M483.958,103.818a1.088,1.088,0,1,1-1.086-1.039A1.064,1.064,0,0,1,483.958,103.818Z" transform="translate(-403.536 -102.779)" fill="#fff"/>
                <path id="Path_99266" data-name="Path 99266" d="M492.4,103.818a1.088,1.088,0,1,1-1.087-1.039A1.065,1.065,0,0,1,492.4,103.818Z" transform="translate(-402.201 -102.779)" fill="#fff"/>
                <path id="Path_99267" data-name="Path 99267" d="M500.851,103.818a1.088,1.088,0,1,1-1.087-1.039A1.064,1.064,0,0,1,500.851,103.818Z" transform="translate(-400.866 -102.779)" fill="#fff"/>
              </g>
              <g id="Group_53314" data-name="Group 53314" transform="translate(0 66.517)">
                <ellipse id="Ellipse_3975" data-name="Ellipse 3975" cx="1.087" cy="1.039" rx="1.087" ry="1.039" fill="#fff"/>
                <path id="Path_99268" data-name="Path 99268" d="M424.834,111.326a1.088,1.088,0,1,1-1.086-1.039A1.064,1.064,0,0,1,424.834,111.326Z" transform="translate(-412.879 -110.287)" fill="#fff"/>
                <ellipse id="Ellipse_3976" data-name="Ellipse 3976" cx="1.087" cy="1.039" rx="1.087" ry="1.039" transform="translate(19.562)" fill="#fff"/>
                <path id="Path_99269" data-name="Path 99269" d="M441.727,111.326a1.088,1.088,0,1,1-1.087-1.039A1.065,1.065,0,0,1,441.727,111.326Z" transform="translate(-410.209 -110.287)" fill="#fff"/>
                <path id="Path_99270" data-name="Path 99270" d="M450.173,111.326a1.088,1.088,0,1,1-1.086-1.039A1.064,1.064,0,0,1,450.173,111.326Z" transform="translate(-408.875 -110.287)" fill="#fff"/>
                <ellipse id="Ellipse_3977" data-name="Ellipse 3977" cx="1.087" cy="1.039" rx="1.087" ry="1.039" transform="translate(48.906)" fill="#fff"/>
                <path id="Path_99271" data-name="Path 99271" d="M467.066,111.326a1.088,1.088,0,1,1-1.087-1.039A1.065,1.065,0,0,1,467.066,111.326Z" transform="translate(-406.205 -110.287)" fill="#fff"/>
                <ellipse id="Ellipse_3978" data-name="Ellipse 3978" cx="1.087" cy="1.039" rx="1.087" ry="1.039" transform="translate(68.468)" fill="#fff"/>
                <ellipse id="Ellipse_3979" data-name="Ellipse 3979" cx="1.087" cy="1.039" rx="1.087" ry="1.039" transform="translate(78.249)" fill="#fff"/>
                <path id="Path_99272" data-name="Path 99272" d="M492.4,111.326a1.088,1.088,0,1,1-1.087-1.039A1.065,1.065,0,0,1,492.4,111.326Z" transform="translate(-402.201 -110.287)" fill="#fff"/>
                <path id="Path_99273" data-name="Path 99273" d="M500.851,111.326a1.088,1.088,0,1,1-1.087-1.039A1.065,1.065,0,0,1,500.851,111.326Z" transform="translate(-400.866 -110.287)" fill="#fff"/>
              </g>
              <g id="Group_53315" data-name="Group 53315" transform="translate(0 74.831)">
                <path id="Path_99274" data-name="Path 99274" d="M416.388,118.834a1.088,1.088,0,1,1-1.087-1.04A1.065,1.065,0,0,1,416.388,118.834Z" transform="translate(-414.214 -117.794)" fill="#fff"/>
                <path id="Path_99275" data-name="Path 99275" d="M424.834,118.834a1.088,1.088,0,1,1-1.086-1.04A1.064,1.064,0,0,1,424.834,118.834Z" transform="translate(-412.879 -117.794)" fill="#fff"/>
                <path id="Path_99276" data-name="Path 99276" d="M433.28,118.834a1.088,1.088,0,1,1-1.086-1.04A1.064,1.064,0,0,1,433.28,118.834Z" transform="translate(-411.544 -117.794)" fill="#fff"/>
                <path id="Path_99277" data-name="Path 99277" d="M441.727,118.834a1.088,1.088,0,1,1-1.087-1.04A1.065,1.065,0,0,1,441.727,118.834Z" transform="translate(-410.21 -117.794)" fill="#fff"/>
                <path id="Path_99278" data-name="Path 99278" d="M450.173,118.834a1.088,1.088,0,1,1-1.086-1.04A1.064,1.064,0,0,1,450.173,118.834Z" transform="translate(-408.875 -117.794)" fill="#fff"/>
                <path id="Path_99279" data-name="Path 99279" d="M458.619,118.834a1.088,1.088,0,1,1-1.086-1.04A1.064,1.064,0,0,1,458.619,118.834Z" transform="translate(-407.54 -117.794)" fill="#fff"/>
                <path id="Path_99280" data-name="Path 99280" d="M467.066,118.834a1.088,1.088,0,1,1-1.087-1.04A1.065,1.065,0,0,1,467.066,118.834Z" transform="translate(-406.205 -117.794)" fill="#fff"/>
                <path id="Path_99281" data-name="Path 99281" d="M475.512,118.834a1.088,1.088,0,1,1-1.086-1.04A1.064,1.064,0,0,1,475.512,118.834Z" transform="translate(-404.87 -117.794)" fill="#fff"/>
                <path id="Path_99282" data-name="Path 99282" d="M483.958,118.834a1.088,1.088,0,1,1-1.086-1.04A1.064,1.064,0,0,1,483.958,118.834Z" transform="translate(-403.536 -117.794)" fill="#fff"/>
                <path id="Path_99283" data-name="Path 99283" d="M492.4,118.834a1.088,1.088,0,1,1-1.087-1.04A1.065,1.065,0,0,1,492.4,118.834Z" transform="translate(-402.201 -117.794)" fill="#fff"/>
                <path id="Path_99284" data-name="Path 99284" d="M500.851,118.834a1.088,1.088,0,1,1-1.087-1.04A1.065,1.065,0,0,1,500.851,118.834Z" transform="translate(-400.866 -117.794)" fill="#fff"/>
              </g>
              <g id="Group_53316" data-name="Group 53316" transform="translate(0 83.145)">
                <ellipse id="Ellipse_3980" data-name="Ellipse 3980" cx="1.087" cy="1.039" rx="1.087" ry="1.039" transform="translate(0 0)" fill="#fff"/>
                <path id="Path_99285" data-name="Path 99285" d="M424.834,126.342a1.088,1.088,0,1,1-1.086-1.04A1.063,1.063,0,0,1,424.834,126.342Z" transform="translate(-412.879 -125.302)" fill="#fff"/>
                <ellipse id="Ellipse_3981" data-name="Ellipse 3981" cx="1.087" cy="1.039" rx="1.087" ry="1.039" transform="translate(19.562 0)" fill="#fff"/>
                <path id="Path_99286" data-name="Path 99286" d="M441.727,126.342a1.088,1.088,0,1,1-1.087-1.04A1.064,1.064,0,0,1,441.727,126.342Z" transform="translate(-410.209 -125.302)" fill="#fff"/>
                <path id="Path_99287" data-name="Path 99287" d="M450.173,126.342a1.088,1.088,0,1,1-1.086-1.04A1.063,1.063,0,0,1,450.173,126.342Z" transform="translate(-408.875 -125.302)" fill="#fff"/>
                <ellipse id="Ellipse_3982" data-name="Ellipse 3982" cx="1.087" cy="1.039" rx="1.087" ry="1.039" transform="translate(48.906 0)" fill="#fff"/>
                <path id="Path_99288" data-name="Path 99288" d="M467.066,126.342a1.088,1.088,0,1,1-1.087-1.04A1.064,1.064,0,0,1,467.066,126.342Z" transform="translate(-406.205 -125.302)" fill="#fff"/>
                <ellipse id="Ellipse_3983" data-name="Ellipse 3983" cx="1.087" cy="1.039" rx="1.087" ry="1.039" transform="translate(68.468 0)" fill="#fff"/>
                <ellipse id="Ellipse_3984" data-name="Ellipse 3984" cx="1.087" cy="1.039" rx="1.087" ry="1.039" transform="translate(78.249 0)" fill="#fff"/>
                <path id="Path_99289" data-name="Path 99289" d="M492.4,126.342a1.088,1.088,0,1,1-1.087-1.04A1.064,1.064,0,0,1,492.4,126.342Z" transform="translate(-402.201 -125.302)" fill="#fff"/>
                <path id="Path_99290" data-name="Path 99290" d="M500.851,126.342a1.088,1.088,0,1,1-1.087-1.04A1.064,1.064,0,0,1,500.851,126.342Z" transform="translate(-400.866 -125.302)" fill="#fff"/>
              </g>
              <g id="Group_53317" data-name="Group 53317" transform="translate(0 91.461)">
                <ellipse id="Ellipse_3985" data-name="Ellipse 3985" cx="1.087" cy="1.039" rx="1.087" ry="1.039" transform="translate(0 0)" fill="#fff"/>
                <path id="Path_99291" data-name="Path 99291" d="M424.834,133.85a1.088,1.088,0,1,1-1.086-1.04A1.063,1.063,0,0,1,424.834,133.85Z" transform="translate(-412.879 -132.81)" fill="#fff"/>
                <ellipse id="Ellipse_3986" data-name="Ellipse 3986" cx="1.087" cy="1.039" rx="1.087" ry="1.039" transform="translate(19.562 0)" fill="#fff"/>
                <path id="Path_99292" data-name="Path 99292" d="M441.727,133.85a1.088,1.088,0,1,1-1.087-1.04A1.064,1.064,0,0,1,441.727,133.85Z" transform="translate(-410.209 -132.81)" fill="#fff"/>
                <path id="Path_99293" data-name="Path 99293" d="M450.173,133.85a1.088,1.088,0,1,1-1.086-1.04A1.063,1.063,0,0,1,450.173,133.85Z" transform="translate(-408.875 -132.81)" fill="#fff"/>
                <ellipse id="Ellipse_3987" data-name="Ellipse 3987" cx="1.087" cy="1.039" rx="1.087" ry="1.039" transform="translate(48.906 0)" fill="#fff"/>
                <path id="Path_99294" data-name="Path 99294" d="M467.066,133.85a1.088,1.088,0,1,1-1.087-1.04A1.064,1.064,0,0,1,467.066,133.85Z" transform="translate(-406.205 -132.81)" fill="#fff"/>
                <ellipse id="Ellipse_3988" data-name="Ellipse 3988" cx="1.087" cy="1.039" rx="1.087" ry="1.039" transform="translate(68.468 0)" fill="#fff"/>
                <ellipse id="Ellipse_3989" data-name="Ellipse 3989" cx="1.087" cy="1.039" rx="1.087" ry="1.039" transform="translate(78.249 0)" fill="#fff"/>
                <path id="Path_99295" data-name="Path 99295" d="M492.4,133.85a1.088,1.088,0,1,1-1.087-1.04A1.064,1.064,0,0,1,492.4,133.85Z" transform="translate(-402.201 -132.81)" fill="#fff"/>
                <path id="Path_99296" data-name="Path 99296" d="M500.851,133.85a1.088,1.088,0,1,1-1.087-1.04A1.064,1.064,0,0,1,500.851,133.85Z" transform="translate(-400.866 -132.81)" fill="#fff"/>
              </g>
            </g>
          </g>
        </g>
      </g>
    </g>
    <g id="Group_151085" data-name="Group 151085" transform="translate(742.935 10591.281)">
      <g id="Group_151071" data-name="Group 151071" transform="translate(447.605 238.758)">
        <path id="Path_262865" data-name="Path 262865" d="M1779.87,821.243s11.652-49.384,50.958-54.813c0,0,7.648-.939,10.194,7.482s-12.659,8.482-22.058,11.869S1787.653,803.527,1779.87,821.243Z" transform="translate(-1778.776 -755.931)" fill="#aec3ff" opacity="0.3"/>
        <path id="Path_262866" data-name="Path 262866" d="M1773.8,762.449s-4.087-40.906,24.6-55.423c0,0,5.612-2.735,9.782,3.046s-7.464,9.834-13.772,14.906S1775.093,746.825,1773.8,762.449Z" transform="translate(-1773.597 -706.379)" fill="#aec3ff" opacity="0.3"/>
      </g>
      <g id="Group_151073" data-name="Group 151073" transform="translate(394.508 183.894)">
        <g id="Group_151072" data-name="Group 151072" transform="translate(0 0)">
          <path id="Path_262870" data-name="Path 262870" d="M1469.132,442.371a7,7,0,0,1,.53-2.743,6.411,6.411,0,0,1,1.5-2.181,6.874,6.874,0,0,1,2.327-1.439,8.574,8.574,0,0,1,3.064-.517,8.767,8.767,0,0,1,3.087.517,6.839,6.839,0,0,1,2.35,1.439,6.422,6.422,0,0,1,1.5,2.181,7.011,7.011,0,0,1,.53,2.743,6.845,6.845,0,0,1-.53,2.721,6.464,6.464,0,0,1-1.5,2.159,6.821,6.821,0,0,1-2.35,1.439,8.771,8.771,0,0,1-3.087.517,8.578,8.578,0,0,1-3.064-.517,6.856,6.856,0,0,1-2.327-1.439,6.453,6.453,0,0,1-1.5-2.159A6.832,6.832,0,0,1,1469.132,442.371Zm12.947-12.8h-11.058l-1.567-37.784h14.191Z" transform="translate(-1469.132 -391.789)" fill="#20cb7d"/>
        </g>
      </g>
      <g id="Group_151075" data-name="Group 151075" transform="translate(361.119 158.719)">
        <g id="Group_151074" data-name="Group 151074" transform="translate(0 0)">
          <path id="Path_262871" data-name="Path 262871" d="M1277.678,286.252a5.369,5.369,0,0,1,.407-2.106,4.919,4.919,0,0,1,1.149-1.674,5.28,5.28,0,0,1,1.786-1.1,6.582,6.582,0,0,1,2.352-.4,6.73,6.73,0,0,1,2.369.4,5.248,5.248,0,0,1,1.8,1.1,4.929,4.929,0,0,1,1.149,1.674,5.38,5.38,0,0,1,.407,2.106,5.251,5.251,0,0,1-.407,2.088,4.959,4.959,0,0,1-1.149,1.657,5.232,5.232,0,0,1-1.8,1.1,6.734,6.734,0,0,1-2.369.4,6.586,6.586,0,0,1-2.352-.4,5.264,5.264,0,0,1-1.786-1.1,4.949,4.949,0,0,1-1.149-1.657A5.241,5.241,0,0,1,1277.678,286.252Zm9.937-9.822h-8.487l-1.2-29h10.892Z" transform="translate(-1277.678 -247.431)" fill="#7453d8"/>
        </g>
      </g>
      <g id="Group_151077" data-name="Group 151077" transform="translate(525.989 207.717)">
        <g id="Group_151076" data-name="Group 151076" transform="translate(0 0)">
          <path id="Path_262872" data-name="Path 262872" d="M2223.052,567.211a5.373,5.373,0,0,1,.406-2.106,4.923,4.923,0,0,1,1.149-1.674,5.28,5.28,0,0,1,1.786-1.1,6.585,6.585,0,0,1,2.352-.4,6.734,6.734,0,0,1,2.369.4,5.248,5.248,0,0,1,1.8,1.1,4.929,4.929,0,0,1,1.149,1.674,5.382,5.382,0,0,1,.407,2.106,5.255,5.255,0,0,1-.407,2.088,4.96,4.96,0,0,1-1.149,1.657,5.231,5.231,0,0,1-1.8,1.1,6.728,6.728,0,0,1-2.369.4,6.58,6.58,0,0,1-2.352-.4,5.263,5.263,0,0,1-1.786-1.1,4.953,4.953,0,0,1-1.149-1.657A5.246,5.246,0,0,1,2223.052,567.211Zm9.937-9.822H2224.5l-1.2-29h10.892Z" transform="translate(-2223.052 -528.39)" fill="#7453d8"/>
        </g>
      </g>
      <g id="Group_151079" data-name="Group 151079" transform="translate(478.87 281.44)">
        <g id="Group_151078" data-name="Group 151078">
          <path id="Path_262873" data-name="Path 262873" d="M1981.321,1102.117a57.231,57.231,0,0,1-6.248,9.317v0c-2.372,2.832-4.8,4.984-6.849,5.713l-.016.005c-.107.037-.212.072-.318.1a.026.026,0,0,1-.016,0l0,0a3.732,3.732,0,0,1-1.19.153c-6.724-.3-13.812-14.726-13.812-14.726a5.127,5.127,0,0,1,1.492-2.918,6.049,6.049,0,0,1,2.019-1.329s7.242,7.437,9.012,7.973c1.113.335,2.575-4.858,4.672-11.38s9.463-8.131,9.463-8.131S1986.983,1091.618,1981.321,1102.117Z" transform="translate(-1952.871 -1063.222)" fill="#aec3ff"/>
          <path id="Path_262874" data-name="Path 262874" d="M2046.094,1203.5v0c-2.372,2.832-4.8,4.984-6.849,5.713l-.016.005-.318.1-.017.005h0a5.206,5.206,0,0,0,2.611-3.3c.352-2.157-1.931-3.921,3.8-7.258C2048.653,1196.822,2046.094,1203.5,2046.094,1203.5Z" transform="translate(-2023.892 -1155.285)" fill="#94b0ed"/>
          <path id="Path_262875" data-name="Path 262875" d="M2050.075,1753.9h15.76c1.129-.766-.3-8.252-.3-8.252s-4.3-1.632-5.044,1.687-5.479,4.371-7.984,4.776A2.7,2.7,0,0,0,2050.075,1753.9Z" transform="translate(-2033.123 -1606.757)" fill="#24406d"/>
          <path id="Path_262876" data-name="Path 262876" d="M2094.183,1324.31s-.5,9.194-1.118,19.847c-.448,7.639-.957,16.029-1.394,22.313-.058.834-.116,1.631-.17,2.384-.016.233-.033.465-.051.7a140.075,140.075,0,0,1-4.9,26.433c-4.431.934-6.433-.774-6.433-.774s-3.053-35.782-4.184-50.214c-.832-10.623-1.541-26.091-1.541-26.091Z" transform="translate(-2053.197 -1254.766)" fill="#ff9e55"/>
          <path id="Path_262877" data-name="Path 262877" d="M2133.143,1410.9c-.448,7.639-.957,16.029-1.394,22.313-2.9-6.833-8.815-33.466-8.815-33.466Z" transform="translate(-2093.276 -1321.506)" fill="#ed7d2b"/>
          <path id="Path_262878" data-name="Path 262878" d="M2184.1,1753.9h15.76c1.129-.766-.3-8.252-.3-8.252s-4.3-1.632-5.044,1.687-5.479,4.371-7.984,4.776A2.7,2.7,0,0,0,2184.1,1753.9Z" transform="translate(-2143.778 -1606.757)" fill="#24406d"/>
          <path id="Path_262879" data-name="Path 262879" d="M2098.939,1313.779s11.255,28.015,14.853,38.635c2.563,7.564,9.79,34.1,9.79,34.1a7.264,7.264,0,0,0,5.785-.892s2.689-27.111-2.743-34.756c-2.882-4.056-.716-42.16-12.4-42.487S2098.939,1313.779,2098.939,1313.779Z" transform="translate(-2073.465 -1246.064)" fill="#ff9e55"/>
          <path id="Path_262880" data-name="Path 262880" d="M2093.814,1114.924c-.047,3.984-.091,6.909-.08,7.648.031,2.41-1.51,2.955-3.1,3.322,0,0-1.468.316-3.32.63a36.525,36.525,0,0,1-5.546.593,50.037,50.037,0,0,1-14.516-2.389c-1.487,0-2.165-2.3-2.409-5.511-.165-2.173.506-23.849.59-29.261a14.122,14.122,0,0,1,2.784-7.993c5.518-4.879,21.8-4.265,24.732-.9.725.832.936,8.857.96,17.648C2093.927,1104.369,2093.868,1110.345,2093.814,1114.924Z" transform="translate(-2045.295 -1056.22)" fill="#aec3ff"/>
          <path id="Path_262881" data-name="Path 262881" d="M2133.084,1046.981c-2.079,2.252-9.061,1.919-8.854-.048.029-.242.074-1.682.1-1.9.018-.179.035-.355.049-.52.047-.484.086-.913.117-1.283.093-1.078.123-1.663.123-1.663h.007c.2-.056,4.689-1.33,6.922-1.859a3.6,3.6,0,0,1,1.238-.206C2132.1,1044.514,2133.765,1046.242,2133.084,1046.981Z" transform="translate(-2094.342 -1024.069)" fill="#ffb27d"/>
          <path id="Path_262882" data-name="Path 262882" d="M2133.051,1042.254s-1.875,1.9-7.29,2.042c.093-1.078.123-1.663.123-1.663h.007c.2-.056,4.689-1.331,6.922-1.859C2133.208,1040.936,2132.686,1041.984,2133.051,1042.254Z" transform="translate(-2095.61 -1025.139)" fill="#ed975d"/>
          <path id="Path_262883" data-name="Path 262883" d="M2114.223,985.1a16.942,16.942,0,0,0,3.119.727c2.556.345,5.917.142,6.972-2.951,1.779-5.2,4.05-8.326-1.183-10.451-2.8-1.138-4.594-1.2-5.811-.764a4.21,4.21,0,0,0-2.153,1.864C2114.151,975.122,2112.106,984.193,2114.223,985.1Z" transform="translate(-2085.321 -967.877)" fill="#ffb27d"/>
          <path id="Path_262884" data-name="Path 262884" d="M2121.012,952.748a2.469,2.469,0,0,0,.944,4.492,18.158,18.158,0,0,1,3.068.563c1.3.578,2.42,1.192,2.112,3.211-.1.686-.439,1.523,1.328,1.108a.86.86,0,0,1,.642.038c.733.435-.2,2.543-.486,3,0,0-.406,1.51.5,2.246.109.088,1.882.863,6.155-5.676a6.07,6.07,0,0,0,.276-5.565c-1.036-2.226-3.925-5.042-9.368-5.042A10.38,10.38,0,0,0,2121.012,952.748Z" transform="translate(-2090.772 -951.124)" fill="#233862"/>
          <path id="Path_262885" data-name="Path 262885" d="M2205.936,1200.316c-.8,3.7-.592,3.734-1.812,2.765-4.97-3.951-3.518-6.02-2.413-9.444s-2.772-8.778,0-11.06c2.711-2.231,4.255,1.366,4.322,1.526C2206.049,1189.761,2205.991,1195.737,2205.936,1200.316Z" transform="translate(-2157.417 -1141.611)" fill="#94b0ed"/>
          <path id="Path_262886" data-name="Path 262886" d="M2187.368,1285.014s-1.873,3.064-3.1,2.955-2.885-.566-3.843.347-2.5,3.269-2.068,3.9,2.164.071,3.409-.616,3.206.338,4.251-.442a36.454,36.454,0,0,0,3.548-3.878Z" transform="translate(-2138.971 -1226.785)" fill="#ffb27d"/>
          <path id="Path_262887" data-name="Path 262887" d="M2210.217,1093.576s15.548,14.63,13.529,24.362c-.92,4.434-3.774,8.176-11.382,14.233,0,0-3.6-2.487-4.389-4.506,0,0,6.905-9.727,6.638-11.383-.327-2.027-5.041-7.11-6.732-7.9S2206.345,1095.274,2210.217,1093.576Z" transform="translate(-2162.561 -1068.733)" fill="#aec3ff"/>
          <path id="Path_262888" data-name="Path 262888" d="M2200.529,1296.652s-1.639-.717-2.165-1.024-.41.19-.249.439a1.817,1.817,0,0,0,1.243.863A2.054,2.054,0,0,0,2200.529,1296.652Z" transform="translate(-2155.233 -1235.467)" fill="#ffb27d"/>
        </g>
      </g>
      <g id="Group_151081" data-name="Group 151081" transform="translate(232.293 277.336)">
        <path id="Path_262889" data-name="Path 262889" d="M609.563,961.087C609,960,621.827,956.1,622.03,966.8c0,0,24.026-.591,12.554-13.982-3.971-4.636-3.563-8.469-3.444-12.037s-2.474-13.94-11.367-12.9a6.623,6.623,0,0,0-5.235.56C607.928,931.873,593.122,965.033,609.563,961.087Z" transform="translate(-591.073 -927.59)" fill="#163560"/>
        <path id="Path_262890" data-name="Path 262890" d="M870.234,1162.592s1.564-2.381,2.824-2.427,3.594-.7,3.408-.233-1.634.513-1.774.793,2.147.7,2.8.747,2.194,0,2.147.327-2.777,1.681-4.7,1.494a13.065,13.065,0,0,0-4.307.56Z" transform="translate(-812.465 -1119.273)" fill="#ffb27d"/>
        <path id="Path_262891" data-name="Path 262891" d="M740.543,1090.4a23.449,23.449,0,0,0,2.392,3.617c1.858,2.327,4.724,5.016,8.322,5.547a8.932,8.932,0,0,0,4.944-.8h.006c4.37-1.94,7.655-6.4,7.655-6.4a3.592,3.592,0,0,0-.49-3.525s-8.823,1.984-9.663,1.564-6.006-11.881-6.937-13.79a10.465,10.465,0,0,0-5.117-5.221Z" transform="translate(-705.391 -1046.308)" fill="#aec3ff"/>
        <path id="Path_262892" data-name="Path 262892" d="M752.945,1179c1.858,2.328,4.724,5.017,8.322,5.547a8.932,8.932,0,0,0,4.944-.8c-.171.022-4.535.561-6.274-2.55-1.774-3.175-3.693-8.216-6.329-6.536C752.47,1175.388,752.52,1177.19,752.945,1179Z" transform="translate(-715.401 -1131.298)" fill="#94b0ed"/>
        <path id="Path_262893" data-name="Path 262893" d="M541.216,1720.995s-2.692,2.457-2.167,4.2,2.955,2.909,3.283,5.043,1.642,3.3,2.824,3.3h5.635s.87-1.5-1.231-1.954-2.894-2.96-2.762-5.288a41.017,41.017,0,0,0-.2-5.431l-4.465-1.035Z" transform="translate(-538.981 -1581.667)" fill="#1d3356"/>
        <path id="Path_262894" data-name="Path 262894" d="M680.688,1732.485s-.969,10.408.213,10.991l15.126-.031s0-1.746-2.43-2.134-6.7-1.81-7.42-4.979S680.688,1732.485,680.688,1732.485Z" transform="translate(-655.667 -1592.114)" fill="#1d3356"/>
        <path id="Path_262895" data-name="Path 262895" d="M615.262,1077.462a60.193,60.193,0,0,0,0,6.991c.15,2.528,2.707,5.914,3.07,6.751.91,2.1,1.937,2.442,1.937,2.442l7.942,1.947,2.793.684,8.806-2.63s4.011-11.2,2.4-17.5a48.441,48.441,0,0,0-4.071-10.678s-5.97-2.356-16.542-.6Z" transform="translate(-601.876 -1040.394)" fill="#aec3ff"/>
        <path id="Path_262896" data-name="Path 262896" d="M629.066,1174.04a24.716,24.716,0,0,0,.745,5.72c.91,2.1,1.937,2.442,1.937,2.442l7.942,1.947,3.449-1.014s-11.515-1.745-10.239-11.652Z" transform="translate(-613.356 -1128.949)" fill="#f2ccaa"/>
        <path id="Path_262897" data-name="Path 262897" d="M684.111,1242.691s4.361,13.574,4.641,18.2-8.336,65.653-8.683,67.783c-.327,2.007-2.819,3.287-2.819,3.287a3.771,3.771,0,0,1-2.783.214,6.88,6.88,0,0,1-2.988-1.408s-3.394-43.527-1.294-59.076a246.288,246.288,0,0,0,2.125-29Z" transform="translate(-646.738 -1187.738)" fill="#233862"/>
        <path id="Path_262898" data-name="Path 262898" d="M572.809,1240.371s-6.652,8.926-7.272,14.959-.973,27.228-2.294,33.109-6.175,17.2-6.175,35.547a3.659,3.659,0,0,0,2.063,1.612,16.962,16.962,0,0,0,1.814.5,2.851,2.851,0,0,0,3.189-1.514c3.282-6.608,13.736-27.919,14.272-32.343.379-3.131,3.68-23.851,10.88-36.009,1.729-2.919-1.061-14.527-1.061-14.527Z" transform="translate(-553.913 -1185.823)" fill="#2b478b"/>
        <path id="Path_262899" data-name="Path 262899" d="M662.044,1230.676a9.142,9.142,0,0,1-5.229,1.455c-4.154.084-14.448-1.059-14.448-1.059a8.511,8.511,0,0,0-.439,2.627s12.572,3.171,19.857.463A4.6,4.6,0,0,0,662.044,1230.676Z" transform="translate(-623.974 -1177.819)" fill="#233862"/>
        <g id="Group_151080" data-name="Group 151080" transform="translate(31.942 53.601)">
          <path id="Path_262900" data-name="Path 262900" d="M722.139,1237.087a1.91,1.91,0,1,1,1.9,2.146A2.034,2.034,0,0,1,722.139,1237.087Zm.628,0a1.288,1.288,0,1,0,1.267-1.517A1.41,1.41,0,0,0,722.767,1237.087Z" transform="translate(-722.139 -1234.942)" fill="#fff"/>
        </g>
        <path id="Path_262901" data-name="Path 262901" d="M571.62,1165.9l10.209,8.889a1.771,1.771,0,0,0,2.5-.172l13.027-14.96a1.771,1.771,0,0,0-.173-2.5l-10.209-8.89a1.771,1.771,0,0,0-2.5.172l-13.027,14.96A1.771,1.771,0,0,0,571.62,1165.9Z" transform="translate(-565.426 -1109.42)" fill="#f78248"/>
        <path id="Path_262902" data-name="Path 262902" d="M656.868,1244.992c.145.038,5.423.659,5.424,1.749a3.281,3.281,0,0,1-3.005,2.871c-.591-.032-3.314-2.536-3.314-2.536Z" transform="translate(-635.57 -1189.638)" fill="#ffb27d"/>
        <path id="Path_262903" data-name="Path 262903" d="M675.9,1034.26a17.561,17.561,0,0,0,.941-6.42l.4.078,6.7,1.328s-.152,2.11-.157,4.1c0,.017,0,.033,0,.049-.008,1.726,1.166,3.458-1.6,4.143C681.327,1037.748,674.638,1037.318,675.9,1034.26Z" transform="translate(-651.891 -1010.357)" fill="#ffb27d"/>
        <path id="Path_262904" data-name="Path 262904" d="M691.033,1029.618s-.153,2.11-.157,4.1c-3.752-.106-5.735-3.528-6.547-5.425Z" transform="translate(-658.981 -1010.728)" fill="#e8945b"/>
        <path id="Path_262905" data-name="Path 262905" d="M687.433,975.788s-8.876.146-8.883-5.383-1.156-9.234,4.511-9.561,6.77,1.781,7.221,3.626S689.742,975.607,687.433,975.788Z" transform="translate(-654.128 -955.017)" fill="#ffb27d"/>
        <path id="Path_262906" data-name="Path 262906" d="M673.594,954.908s-2.43,6.487-6.16,7.446-5.347-.04-5.347-.04a10.561,10.561,0,0,0,3.455-6.24S671.76,951.82,673.594,954.908Z" transform="translate(-640.617 -949.216)" fill="#163560"/>
        <path id="Path_262907" data-name="Path 262907" d="M724.618,958.24a5.506,5.506,0,0,1,2.544,1.988,8.937,8.937,0,0,1,1.2,5.076s1.831-4.409-.227-6.9C725.953,955.756,724.618,958.24,724.618,958.24Z" transform="translate(-692.244 -952.021)" fill="#163560"/>
        <path id="Path_262908" data-name="Path 262908" d="M661.1,1243.527a6.032,6.032,0,0,1,2.11-.288c.845.118,1.471-.017,1.471.22s-1.091.347-1.323.461A11.511,11.511,0,0,1,661.1,1243.527Z" transform="translate(-639.807 -1188.173)" fill="#ffb27d"/>
        <path id="Path_262909" data-name="Path 262909" d="M577.665,1067.964s-6.3.442-8.716,6.313-7,15.729-7,17.388,2.56,6.771,16.307,9.71c0,0,1.422-1.5,1.336-2.679,0,0-8.582-7.371-8.559-8.232.044-1.63,1.407-3.781,8.941-11.318C582.026,1077.1,577.665,1067.964,577.665,1067.964Z" transform="translate(-557.945 -1043.483)" fill="#aec3ff"/>
      </g>
      <g id="Group_151084" data-name="Group 151084" transform="translate(305.656 251.785)">
        <g id="Group_151083" data-name="Group 151083" transform="translate(0 0)">
          <path id="Path_262910" data-name="Path 262910" d="M1082.1,781.076h-68.09a6.21,6.21,0,0,0-4.39,1.818l-48.147,48.147a6.209,6.209,0,0,0-1.819,4.39v68.09a6.208,6.208,0,0,0,1.819,4.39l48.147,48.147a6.208,6.208,0,0,0,4.39,1.819h68.09a6.207,6.207,0,0,0,4.39-1.819l48.147-48.147a6.208,6.208,0,0,0,1.819-4.39v-68.09a6.209,6.209,0,0,0-1.819-4.39l-48.147-48.147A6.209,6.209,0,0,0,1082.1,781.076Z" transform="translate(-959.653 -781.076)" fill="#fda929"/>
          <g id="Group_151082" data-name="Group 151082" transform="translate(8.851 8.85)">
            <path id="Path_262911" data-name="Path 262911" d="M1119.208,990.926H1060.7a8.866,8.866,0,0,1-6.309-2.613l-41.373-41.373a8.863,8.863,0,0,1-2.613-6.309v-58.51a8.864,8.864,0,0,1,2.614-6.309l41.372-41.372a8.866,8.866,0,0,1,6.31-2.614h58.51a8.864,8.864,0,0,1,6.309,2.614l41.373,41.373a8.864,8.864,0,0,1,2.613,6.309v58.51a8.863,8.863,0,0,1-2.613,6.309l-41.373,41.373A8.865,8.865,0,0,1,1119.208,990.926ZM1060.7,837.892a2.836,2.836,0,0,0-2.019.837L1017.307,880.1a2.836,2.836,0,0,0-.837,2.019v58.51a2.836,2.836,0,0,0,.836,2.019l41.373,41.373a2.837,2.837,0,0,0,2.019.836h58.51a2.838,2.838,0,0,0,2.019-.836L1162.6,942.65a2.839,2.839,0,0,0,.836-2.019v-58.51a2.838,2.838,0,0,0-.836-2.019l-41.373-41.373a2.836,2.836,0,0,0-2.019-.836Z" transform="translate(-1010.403 -831.825)" fill="#ffe5d4"/>
          </g>
          <path id="Path_262912" data-name="Path 262912" d="M1366.479,1034.841l-1.192-1.032a7.224,7.224,0,0,0-10.159.73l-6.733,7.776a1.587,1.587,0,0,1-2.787-1.039h0a17.177,17.177,0,0,0-.1-1.825V990.5a5.863,5.863,0,0,0-5.846-5.846h-.432a5.863,5.863,0,0,0-5.846,5.846v31.861a1.4,1.4,0,0,1-1.4,1.4h0a1.546,1.546,0,0,1-1.546-1.546V984.324a5.667,5.667,0,0,0-5.65-5.65h-.823a5.667,5.667,0,0,0-5.65,5.65v38.138a1.3,1.3,0,0,1-1.3,1.3h0a1.649,1.649,0,0,1-1.649-1.649v-30.4a5.863,5.863,0,0,0-5.846-5.845h-.432a5.863,5.863,0,0,0-5.846,5.845v30.65a1.4,1.4,0,0,1-1.4,1.4h0a1.543,1.543,0,0,1-1.543-1.543v-23.98a5.863,5.863,0,0,0-5.846-5.846h-.432a5.863,5.863,0,0,0-5.846,5.846v42.1c0,.117,0,.233.011.348-.007.2-.011.392-.011.59v23.175a17.176,17.176,0,0,0,17.126,17.126h23.175a17.15,17.15,0,0,0,14.4-7.89,36.194,36.194,0,0,1,3.035-4.1l21.29-24.589A7.224,7.224,0,0,0,1366.479,1034.841Z" transform="translate(-1230.887 -944.214)" fill="#ffe5d4"/>
        </g>
      </g>
    </g>
  </g>
</svg>
