<svg xmlns="http://www.w3.org/2000/svg" width="145.463" height="176.053" viewBox="0 0 145.463 176.053">
  <g id="_3" data-name="3" transform="translate(1224.055 -1356.37)">
    <g id="Group_157304" data-name="Group 157304" transform="translate(-1179.535 1407.776)">
      <g id="Group_157291" data-name="Group 157291" transform="translate(19.936 32.133)">
        <rect id="Rectangle_295576" data-name="Rectangle 295576" width="40.714" height="59.153" fill="#be7748"/>
        <rect id="Rectangle_295577" data-name="Rectangle 295577" width="40.286" height="59.153" transform="translate(13.858)" fill="#e3af70"/>
        <rect id="Rectangle_295578" data-name="Rectangle 295578" width="9.452" height="12.195" transform="translate(31.445)" fill="#e8c7a8"/>
        <rect id="Rectangle_295579" data-name="Rectangle 295579" width="9.452" height="12.195" transform="translate(31.445 46.958)" fill="#e8c7a8"/>
        <g id="Group_157290" data-name="Group 157290" transform="translate(16.162 49.435)">
          <rect id="Rectangle_295580" data-name="Rectangle 295580" width="12.472" height="7.535" fill="#f5e9de"/>
          <g id="Group_157289" data-name="Group 157289" transform="translate(0.57 1.056)">
            <rect id="Rectangle_295581" data-name="Rectangle 295581" width="1.324" height="5.422" fill="#343338"/>
            <rect id="Rectangle_295582" data-name="Rectangle 295582" width="0.464" height="5.422" transform="translate(2.127)" fill="#343338"/>
            <rect id="Rectangle_295583" data-name="Rectangle 295583" width="1.085" height="5.422" transform="translate(4.493)" fill="#343338"/>
            <rect id="Rectangle_295584" data-name="Rectangle 295584" width="0.662" height="5.422" transform="translate(3.125)" fill="#343338"/>
            <rect id="Rectangle_295585" data-name="Rectangle 295585" width="0.448" height="5.422" transform="translate(6.39)" fill="#343338"/>
            <rect id="Rectangle_295586" data-name="Rectangle 295586" width="0.897" height="5.422" transform="translate(8.509)" fill="#343338"/>
            <rect id="Rectangle_295587" data-name="Rectangle 295587" width="0.445" height="5.422" transform="translate(9.714)" fill="#343338"/>
            <rect id="Rectangle_295588" data-name="Rectangle 295588" width="0.615" height="5.422" transform="translate(7.493)" fill="#343338"/>
            <rect id="Rectangle_295589" data-name="Rectangle 295589" width="0.662" height="5.422" transform="translate(10.637)" fill="#343338"/>
          </g>
        </g>
      </g>
      <rect id="Rectangle_295590" data-name="Rectangle 295590" width="35.538" height="38.104" transform="translate(38.541 53.181)" fill="#be7748" opacity="0.32" style="mix-blend-mode: multiply;isolation: isolate"/>
      <g id="Group_157294" data-name="Group 157294" transform="translate(48.291 56.187)">
        <rect id="Rectangle_295591" data-name="Rectangle 295591" width="32.885" height="32.133" fill="#be7748"/>
        <rect id="Rectangle_295592" data-name="Rectangle 295592" width="32.595" height="32.133" transform="translate(9.396)" fill="#e3af70"/>
        <rect id="Rectangle_295593" data-name="Rectangle 295593" width="5.191" height="8.268" transform="translate(23.097)" fill="#e8c7a8"/>
        <rect id="Rectangle_295594" data-name="Rectangle 295594" width="5.191" height="8.268" transform="translate(23.097 23.865)" fill="#e8c7a8"/>
        <g id="Group_157293" data-name="Group 157293" transform="translate(31.229 25.544)">
          <rect id="Rectangle_295595" data-name="Rectangle 295595" width="8.456" height="5.109" fill="#f5e9de"/>
          <g id="Group_157292" data-name="Group 157292" transform="translate(0.386 0.717)">
            <rect id="Rectangle_295596" data-name="Rectangle 295596" width="0.897" height="3.676" fill="#343338"/>
            <rect id="Rectangle_295597" data-name="Rectangle 295597" width="0.315" height="3.676" transform="translate(1.442)" fill="#343338"/>
            <rect id="Rectangle_295598" data-name="Rectangle 295598" width="0.736" height="3.676" transform="translate(3.046)" fill="#343338"/>
            <rect id="Rectangle_295599" data-name="Rectangle 295599" width="0.449" height="3.676" transform="translate(2.119)" fill="#343338"/>
            <rect id="Rectangle_295600" data-name="Rectangle 295600" width="0.304" height="3.676" transform="translate(4.332)" fill="#343338"/>
            <rect id="Rectangle_295601" data-name="Rectangle 295601" width="0.608" height="3.676" transform="translate(5.769)" fill="#343338"/>
            <rect id="Rectangle_295602" data-name="Rectangle 295602" width="0.302" height="3.676" transform="translate(6.586)" fill="#343338"/>
            <rect id="Rectangle_295603" data-name="Rectangle 295603" width="0.417" height="3.676" transform="translate(5.08)" fill="#343338"/>
            <rect id="Rectangle_295604" data-name="Rectangle 295604" width="0.449" height="3.676" transform="translate(7.212)" fill="#343338"/>
          </g>
        </g>
      </g>
      <g id="Group_157297" data-name="Group 157297" transform="translate(58.953 87.942)">
        <rect id="Rectangle_295605" data-name="Rectangle 295605" width="32.885" height="32.133" fill="#be7748"/>
        <rect id="Rectangle_295606" data-name="Rectangle 295606" width="32.595" height="32.133" transform="translate(9.396)" fill="#e3af70"/>
        <rect id="Rectangle_295607" data-name="Rectangle 295607" width="8.746" height="8.268" transform="translate(21.32)" fill="#e8c7a8"/>
        <rect id="Rectangle_295608" data-name="Rectangle 295608" width="8.746" height="8.268" transform="translate(21.32 23.865)" fill="#e8c7a8"/>
        <g id="Group_157296" data-name="Group 157296" transform="translate(10.958 25.544)">
          <rect id="Rectangle_295609" data-name="Rectangle 295609" width="8.456" height="5.109" fill="#f5e9de"/>
          <g id="Group_157295" data-name="Group 157295" transform="translate(0.386 0.716)">
            <rect id="Rectangle_295610" data-name="Rectangle 295610" width="0.898" height="3.676" fill="#343338"/>
            <rect id="Rectangle_295611" data-name="Rectangle 295611" width="0.315" height="3.676" transform="translate(1.442)" fill="#343338"/>
            <rect id="Rectangle_295612" data-name="Rectangle 295612" width="0.736" height="3.676" transform="translate(3.046)" fill="#343338"/>
            <rect id="Rectangle_295613" data-name="Rectangle 295613" width="0.449" height="3.676" transform="translate(2.119)" fill="#343338"/>
            <rect id="Rectangle_295614" data-name="Rectangle 295614" width="0.304" height="3.676" transform="translate(4.332)" fill="#343338"/>
            <rect id="Rectangle_295615" data-name="Rectangle 295615" width="0.608" height="3.676" transform="translate(5.769)" fill="#343338"/>
            <rect id="Rectangle_295616" data-name="Rectangle 295616" width="0.302" height="3.676" transform="translate(6.586)" fill="#343338"/>
            <rect id="Rectangle_295617" data-name="Rectangle 295617" width="0.417" height="3.676" transform="translate(5.08)" fill="#343338"/>
            <rect id="Rectangle_295618" data-name="Rectangle 295618" width="0.449" height="3.676" transform="translate(7.212)" fill="#343338"/>
          </g>
        </g>
      </g>
      <g id="Group_157300" data-name="Group 157300" transform="translate(25.406)">
        <rect id="Rectangle_295619" data-name="Rectangle 295619" width="32.885" height="32.133" fill="#be7748"/>
        <rect id="Rectangle_295620" data-name="Rectangle 295620" width="32.595" height="32.133" transform="translate(9.396)" fill="#e3af70"/>
        <rect id="Rectangle_295621" data-name="Rectangle 295621" width="8.746" height="8.268" transform="translate(21.32)" fill="#e8c7a8"/>
        <g id="Group_157299" data-name="Group 157299" transform="translate(10.958 25.544)">
          <rect id="Rectangle_295622" data-name="Rectangle 295622" width="8.456" height="5.109" fill="#f5e9de"/>
          <g id="Group_157298" data-name="Group 157298" transform="translate(0.386 0.717)">
            <rect id="Rectangle_295623" data-name="Rectangle 295623" width="0.897" height="3.676" fill="#343338"/>
            <rect id="Rectangle_295624" data-name="Rectangle 295624" width="0.315" height="3.676" transform="translate(1.442)" fill="#343338"/>
            <rect id="Rectangle_295625" data-name="Rectangle 295625" width="0.736" height="3.676" transform="translate(3.046)" fill="#343338"/>
            <rect id="Rectangle_295626" data-name="Rectangle 295626" width="0.449" height="3.676" transform="translate(2.119)" fill="#343338"/>
            <rect id="Rectangle_295627" data-name="Rectangle 295627" width="0.304" height="3.676" transform="translate(4.332)" fill="#343338"/>
            <rect id="Rectangle_295628" data-name="Rectangle 295628" width="0.608" height="3.676" transform="translate(5.769)" fill="#343338"/>
            <rect id="Rectangle_295629" data-name="Rectangle 295629" width="0.302" height="3.676" transform="translate(6.586)" fill="#343338"/>
            <rect id="Rectangle_295630" data-name="Rectangle 295630" width="0.417" height="3.676" transform="translate(5.08)" fill="#343338"/>
            <rect id="Rectangle_295631" data-name="Rectangle 295631" width="0.449" height="3.676" transform="translate(7.212)" fill="#343338"/>
          </g>
        </g>
      </g>
      <g id="Group_157303" data-name="Group 157303" transform="translate(0 70.081)">
        <rect id="Rectangle_295632" data-name="Rectangle 295632" width="51.164" height="49.994" fill="#be7748"/>
        <rect id="Rectangle_295633" data-name="Rectangle 295633" width="50.713" height="49.994" transform="translate(14.618)" fill="#e3af70"/>
        <rect id="Rectangle_295634" data-name="Rectangle 295634" width="13.607" height="12.864" transform="translate(33.171)" fill="#e8c7a8"/>
        <rect id="Rectangle_295635" data-name="Rectangle 295635" width="13.607" height="12.864" transform="translate(33.171 37.13)" fill="#e8c7a8"/>
        <g id="Group_157302" data-name="Group 157302" transform="translate(17.048 39.743)">
          <rect id="Rectangle_295636" data-name="Rectangle 295636" width="13.156" height="7.949" fill="#f5e9de"/>
          <g id="Group_157301" data-name="Group 157301" transform="translate(0.601 1.115)">
            <rect id="Rectangle_295637" data-name="Rectangle 295637" width="1.396" height="5.719" fill="#343338"/>
            <rect id="Rectangle_295638" data-name="Rectangle 295638" width="0.49" height="5.719" transform="translate(2.244)" fill="#343338"/>
            <rect id="Rectangle_295639" data-name="Rectangle 295639" width="1.145" height="5.719" transform="translate(4.74)" fill="#343338"/>
            <rect id="Rectangle_295640" data-name="Rectangle 295640" width="0.698" height="5.719" transform="translate(3.297)" fill="#343338"/>
            <rect id="Rectangle_295641" data-name="Rectangle 295641" width="0.473" height="5.719" transform="translate(6.741)" fill="#343338"/>
            <rect id="Rectangle_295642" data-name="Rectangle 295642" width="0.946" height="5.719" transform="translate(8.976)" fill="#343338"/>
            <rect id="Rectangle_295643" data-name="Rectangle 295643" width="0.47" height="5.719" transform="translate(10.247)" fill="#343338"/>
            <rect id="Rectangle_295644" data-name="Rectangle 295644" width="0.648" height="5.719" transform="translate(7.904)" fill="#343338"/>
            <rect id="Rectangle_295645" data-name="Rectangle 295645" width="0.698" height="5.719" transform="translate(11.22)" fill="#343338"/>
          </g>
        </g>
      </g>
    </g>
    <g id="Group_157333" data-name="Group 157333" transform="translate(-1224.055 1356.37)">
      <g id="Group_157039" data-name="Group 157039" transform="translate(29.496 45.4)">
        <path id="Path_265938" data-name="Path 265938" d="M-1270.037,1772.566a4.679,4.679,0,0,1-4.549-3.7l-4.6-22.751a2.832,2.832,0,0,1,2.214-3.338,2.833,2.833,0,0,1,3.337,2.215l4.4,21.772,9.738-1.507a2.834,2.834,0,0,1,3.232,2.365,2.831,2.831,0,0,1-2.365,3.232l-10.724,1.66A4.4,4.4,0,0,1-1270.037,1772.566Z" transform="translate(1279.244 -1742.718)" fill="#df6249"/>
      </g>
      <g id="Group_157068" data-name="Group 157068" transform="translate(0 0)">
        <g id="Group_157067" data-name="Group 157067" transform="translate(0 0)">
          <g id="Group_157065" data-name="Group 157065" transform="translate(0 1.224)">
            <g id="Group_157064" data-name="Group 157064">
              <path id="Path_265954" data-name="Path 265954" d="M-1278.875,1917.668a1.417,1.417,0,0,0,.262,1.21c.73,2.792,8.4,1.84,8.709,1.549s1.15-7.96,1.024-8.322-5.2-.475-5.932-.509a18.935,18.935,0,0,1-2.277-.77C-1276.942,1910.924-1278.686,1916.945-1278.875,1917.668Z" transform="translate(1308.637 -1752.728)" fill="#271b12"/>
              <path id="Path_265955" data-name="Path 265955" d="M-1302.238,1928.642c.568.552.224,3.637-.654,3.774-.465.073-3.289.255-4.828.317a29.318,29.318,0,0,1-8.462-1.472c-1.149-.431-3.242-1.256-3.242-1.256s-3.048-.805-3.211-.887-.136-1.368-.136-1.368,7.1-1,7.375-.882,5.962,3.27,5.962,3.27l6.582-1.347Z" transform="translate(1322.774 -1757.909)" fill="#271b12"/>
              <path id="Path_265956" data-name="Path 265956" d="M-1312.215,1807.053l.094,6.781a4.85,4.85,0,0,0,5.516,4.839l14.676-1.722a6.319,6.319,0,0,0,5.434-6.116l-.02-15.466Z" transform="translate(1319.37 -1715.517)" fill="#4d2027"/>
              <g id="Group_157053" data-name="Group 157053" transform="translate(29.257 163.542)">
                <path id="Path_265957" data-name="Path 265957" d="M-1279.154,1921.451s-.215,1.591,2.61,1.364c2.7-.218,4.009-3.45,4.009-3.45l4.357-.487a9.924,9.924,0,0,0,.778,2.427c1.011,1.25,3.585,3.638,3.585,3.638l5.033-.172s.6,4.011-.938,4.135-4.59.345-5.874.448a81.062,81.062,0,0,1-8.152-1.1s-5.771.536-5.775.462C-1279.814,1923.255-1279.154,1921.451-1279.154,1921.451Z" transform="translate(1279.596 -1918.878)" fill="#271b12"/>
              </g>
              <path id="Path_265958" data-name="Path 265958" d="M-1279.651,1933.826l8.77-.446-.027-1.33-3.938-.656-5.021.309Z" transform="translate(1308.94 -1759.371)" fill="#271b12"/>
              <path id="Path_265959" data-name="Path 265959" d="M-1322.555,1930.945l5,1.534.578-.747.156-1.055-.877-.777-5.024-.353Z" transform="translate(1322.758 -1758.776)" fill="#271b12"/>
              <path id="Path_265960" data-name="Path 265960" d="M-1258.278,1925.036v.011a4.694,4.694,0,0,1-.045.674c-.022.112-.045.213-.068.314,0,.011-.011.034-.011.045l-.034.1a.454.454,0,0,1-.011.055.424.424,0,0,0-.045.1c0,.022-.011.033-.011.045a1.163,1.163,0,0,1-.078.168l-.034.067-.034.068a.425.425,0,0,1-.056.079c-.011.022-.022.033-.033.056a.758.758,0,0,1-.09.112l-.033.034a.443.443,0,0,1-.068.079c-.011.011-.033.022-.045.033a.606.606,0,0,1-.09.068c-.011,0-.011.011-.022.011a.263.263,0,0,1-.123.068c-.011.011-.022.011-.033.022l-.1.034c-.011,0-.023.011-.045.011a.541.541,0,0,1-.134.022l-2.637.213c-.965.079-1.952.157-2.659.213-.168.012-.326.023-.449.034a.538.538,0,0,1-.135.011h-.157a.3.3,0,0,1-.1-.011h-.214a.2.2,0,0,0-.079-.011c-.056,0-.1-.011-.156-.011h-.079c-.056-.012-.112-.012-.18-.022h-.056a1.208,1.208,0,0,0-.213-.022.082.082,0,0,1-.045-.011,1.953,1.953,0,0,1-.247-.022c-1.29-.135-3.018-.381-4.421-.595s-2.491-.392-2.491-.392-6,.527-6.014.46c-.045-.763-.056-1.459-.056-2.087v-.247c.034-3.658.662-4.925.662-4.925s.382,2.065,3.445,1.5c2.143-.393,2.805-2.525,2.973-3.366a2.277,2.277,0,0,0,.068-.348l1.044-.09,2.513-.2.931-.079s.056.281.146.651v.011c.012.056.035.1.045.157a.082.082,0,0,0,.011.045.863.863,0,0,0,.045.169.041.041,0,0,0,.011.033.957.957,0,0,0,.045.169v.022a1.144,1.144,0,0,1,.056.19.042.042,0,0,1,.011.034,1.528,1.528,0,0,1,.056.18.011.011,0,0,1,.011.011,2.592,2.592,0,0,0,.651,1.212c1.145,1.29,3.276,3.187,3.276,3.187a18.272,18.272,0,0,0,2.839.033c1.358-.1,2.693.326,2.783,1.493A.54.54,0,0,0-1258.278,1925.036Z" transform="translate(1308.955 -1754.829)" fill="#3e2724"/>
              <path id="Path_265961" data-name="Path 265961" d="M-1267.8,1919.261l-12.107,5.588c.034-3.658.662-4.926.662-4.926s.382,2.065,3.445,1.5c2.143-.393,2.805-2.525,2.973-3.366l3.625-.639Z" transform="translate(1308.955 -1754.867)" fill="#271b12"/>
              <g id="Group_157054" data-name="Group 157054" transform="translate(0.005 156.37)">
                <path id="Path_265962" data-name="Path 265962" d="M-1316.1,1918.855c-1.165-.28-4.263-1.255-4.656-.148a13.107,13.107,0,0,0-.5,3.08c0,.131,1.251,2,1.5,1.84s3.459-.342,3.375-.623S-1316.1,1918.855-1316.1,1918.855Z" transform="translate(1322.282 -1911.485)" fill="#3e2724"/>
                <path id="Path_265963" data-name="Path 265963" d="M-1320.015,1915.24a1.975,1.975,0,0,0-.066,1.143c.731,2.792,8.4,1.84,8.71,1.55s1.149-7.96,1.023-8.323-5.2-.475-5.931-.509a19.041,19.041,0,0,1-2.277-.77C-1318.41,1908.43-1319.827,1914.517-1320.015,1915.24Z" transform="translate(1321.918 -1908.294)" fill="#271b12"/>
                <path id="Path_265964" data-name="Path 265964" d="M-1302.682,1928.071c-1.5.213-4.578.269-4.578.269-.247,0-1.077.023-1.526-.011-.09-.011-.179-.011-.281-.022a.485.485,0,0,1-.123-.012c-1.9-.168-6.62-.943-8.3-1.795a24.763,24.763,0,0,0-3.232-1.111c-1.088-.325-2.042-.572-2.042-.606a22.051,22.051,0,0,1,.4-2.951,13.277,13.277,0,0,1,.617-2.256,4.956,4.956,0,0,1,.572-1.144c-.067.18-.774,2.143,2.458,1.986a2.972,2.972,0,0,0,2.76-2.749l6.542.3s-.348,2.21-.348,2.3a4.053,4.053,0,0,0,.516.808,19.492,19.492,0,0,0,2.1,2.154h-.022a.287.287,0,0,1,.068.045,12.1,12.1,0,0,0,4.005,1.347,1.249,1.249,0,0,1,1.223,1.38C-1301.762,1926.949-1302.1,1927.981-1302.682,1928.071Z" transform="translate(1322.767 -1911.316)" fill="#3e2724"/>
                <path id="Path_265965" data-name="Path 265965" d="M-1308.76,1921.081c-.246-.335-.888-.348-2.325-.107-2.144.36-8.742.935-10.175-1.386v-.011a13.178,13.178,0,0,1,.509-1.233c-.067.18.4-.947,2.718-.508,2.505.474,2.563-.167,2.563-.167l6.542.3s-.348,2.21-.348,2.3A4.048,4.048,0,0,0-1308.76,1921.081Z" transform="translate(1322.281 -1911.316)" fill="#271b12"/>
              </g>
              <g id="Group_157055" data-name="Group 157055" transform="translate(1.281 77.174)">
                <path id="Path_265966" data-name="Path 265966" d="M-1316.559,1878.5c5.173,1.289,9.443,1.247,9.925.076.155-.387.713-3.971,1.388-8.6.095-.66.193-1.335.292-2.029.068-.466.133-.936.2-1.41.095-.672.194-1.35.292-2.037,1.2-8.517,3.2-21.916,3.2-21.916,1.074-4.386.188-4.587,1.619-49.95l-14.44-1.214-1.02,5.055c-.371-.337-1.236,9.689-1.236,11.028,0,19.028.3,35.806.2,36.181l-2.715,18.442-.292,1.991-.2,1.373-.292,1.991-1.187,8.062S-1321.738,1877.211-1316.559,1878.5Z" transform="translate(1320.884 -1791.417)" fill="#fda929"/>
              </g>
              <path id="Path_265967" data-name="Path 265967" d="M-1274.744,1877.843s-3.263.417-6.059.52v.029c-2.737.022-7.823.71-7.823.71l-.4-7.655-.095-1.771-.029-.439v-.029l-.073-1.464-.015-.271-.021-.424-.066-1.208-.015-.263-.007-.066-.1-1.859-.014-.271-1.017-19.078a27.786,27.786,0,0,0-.381-2.862c-1.662-6.316-2.738-20.974-2.642-25.4l-7.86-23.448,15.068-3.7s1.267,9.566,3.271,18.384c2.715,11.929,6.725,31.783,6.835,34.776l.776,19.261.052,1.2.043,1.017.037.951.007.219.052,1.09.037.922.044,1.281v.015l.007.175.1,2.232Z" transform="translate(1315.872 -1713.428)" fill="#fda929"/>
              <g id="Group_157056" data-name="Group 157056" transform="translate(24.384 35.218)">
                <path id="Path_265968" data-name="Path 265968" d="M-1281.2,1753.147l-.831-4.449c-.806-4.313-1.9-9.066-2.6-11.826l-1.1-4.389s-3.011-2.984,1.153-2.984c4.93,0,7.888,3.882,8.757,8.406.915,4.757,2.836,13.63,2.836,13.63Z" transform="translate(1286.788 -1729.499)" fill="#ffd836"/>
                <path id="Path_265969" data-name="Path 265969" d="M-1275.413,1756.219l-2.938-14.315-5.68,15.854Z" transform="translate(1285.899 -1733.499)" fill="#cb2e0d" opacity="0.5"/>
              </g>
              <path id="Path_265970" data-name="Path 265970" d="M-1313.873,1805.889l.319,10.326c.13,3.01,2.4,1.036,5.383.589l15.739-2.359a6.564,6.564,0,0,0,5.408-6.289l-.024-16.911Z" transform="translate(1319.904 -1714.188)" fill="#fda929"/>
              <path id="Path_265971" data-name="Path 265971" d="M-1306.241,1729.463h12.4c4.016.032,7.174,3.683,7.174,7.967,0,0-.755,36.161-.853,38.9-.01.283-.709.842-.709.842s1.872-1.305-8.64-1.222c-12.362.1-17.3,11.571-17.3,11.571v-50.319A8.051,8.051,0,0,1-1306.241,1729.463Z" transform="translate(1320 -1694.269)" fill="#ffd836"/>
              <path id="Path_265972" data-name="Path 265972" d="M-1306.478,1745.029l-1.142-.281h-.306l-3.577,2.384-1.192,14.867,1.838,4.278,8.611-3.3.421-11.5Z" transform="translate(1319.524 -1699.197)" fill="#cb2e0d" opacity="0.5"/>
              <path id="Path_265973" data-name="Path 265973" d="M-1286.89,1762.28s-.169,8.4-.325,20.747c0,0-27.031,21.529-27.031,10.835,0-.326-.033-.7-.056-1.122-.012-.2-.012-.4-.012-.594-.269-8.562.18-34.556.18-34.556l2.513,1.1v4.4a22.169,22.169,0,0,1,3.456-.235,3.084,3.084,0,0,0,.987-.157c4.242-1.481,2.974-12.747,2.974-16h15.26C-1288.943,1762.28-1288.641,1762.28-1286.89,1762.28Z" transform="translate(1320.074 -1699.824)" fill="#fda929"/>
              <path id="Path_265974" data-name="Path 265974" d="M-1303.637,1781.054c-5.454,0-10.635,5.216-10.635,15.539v-36.1l2.693,2.647v4.4a22.172,22.172,0,0,1,3.456-.235,3.083,3.083,0,0,0,.987-.157c.449.842.73,1.4.73,1.4.273,9.981,18.245,3.324,18.245,6.336C-1288.161,1781.468-1293.467,1781.054-1303.637,1781.054Z" transform="translate(1320.033 -1704.272)" fill="#d18819"/>
              <g id="Group_157060" data-name="Group 157060" transform="translate(8.7)">
                <path id="Path_265975" data-name="Path 265975" d="M-1309.291,1701.328c.438,6.086,1.941,7.73,4.32,7.73,1.951,0,3.568-2.693,3.5-3.323s-.77-4.337-1.329-4.547A63.042,63.042,0,0,0-1309.291,1701.328Z" transform="translate(1309.727 -1685.131)" fill="#7b291b"/>
                <path id="Path_265976" data-name="Path 265976" d="M-1303.93,1700.154c-.387-.776-.625,1.69-.63,1.4-.1-5.181-4.537-1.323-4.886-7.06-.3-4.891-.34-4.934-.472-7.311-.262-4.722,2.481-9.732,12.573-9.654,5.619.043,7.06,2.225,8.326,5.087,2.36,5.329.455,12.176.455,12.176Z" transform="translate(1309.935 -1677.524)" fill="#7b291b"/>
                <path id="Path_265977" data-name="Path 265977" d="M-1291.684,1725.067s.077,1.994-3.171,1.994a8,8,0,0,1-5.27-1.994v-9.891l8.441-.468Z" transform="translate(1306.772 -1689.512)" fill="#f69f75"/>
                <path id="Path_265978" data-name="Path 265978" d="M-1291.684,1722.173c-2.212.271-8.381-.522-8.381-1.974s-.06-7.9-.06-7.9l8.441.057Z" transform="translate(1306.772 -1688.735)" fill="#df6249"/>
                <path id="Path_265979" data-name="Path 265979" d="M-1286,1699.956a19.174,19.174,0,0,1-2.746,7.765,5.067,5.067,0,0,1-2.491,2.3c-1.295.393-2.061.669-2.061,1.369,0,.76-1.594-.712-2.138-.712-6.47,0-9.668-6.97-9.668-11.718l1.994-6.229c0-5.2,3.45-8.934,8.471-8.9s9.063,3.462,9.063,8.66Z" transform="translate(1308.376 -1679.559)" fill="#df6249"/>
                <path id="Path_265980" data-name="Path 265980" d="M-1283.935,1691.826l-.067,2.064-.179,5.6c-.191,5.453-1.413,10.491-8.034,10.435s-8.382-8.045-8.2-13.229l.314-4.511c0-.191,0-.381.011-.561.135-6.766,2.884-9.246,7.742-9.246C-1285.719,1682.378-1283.755,1686.631-1283.935,1691.826Z" transform="translate(1306.87 -1679.089)" fill="#f69f75"/>
                <g id="Group_157057" data-name="Group 157057" transform="translate(15.222 20.24)">
                  <path id="Path_265981" data-name="Path 265981" d="M-1285.646,1708.807c.943,0,1.744-.531,1.7-1.074-.015-.2-.213-.437-.582-.262a3.153,3.153,0,0,1-1.114.17,3.082,3.082,0,0,1-1.026-.184c-.6-.179-.789.056-.8.254C-1287.511,1708.254-1286.588,1708.8-1285.646,1708.807Z" transform="translate(1287.47 -1707.394)" fill="#df6249"/>
                </g>
                <path id="Path_265982" data-name="Path 265982" d="M-1302.6,1701.24c.138,1.937-.848,3.6-2.2,3.717s-2.56-1.361-2.7-3.3.617-3.445,1.956-3.684S-1302.742,1699.3-1302.6,1701.24Z" transform="translate(1309.156 -1684.109)" fill="#df6249"/>
                <ellipse id="Ellipse_6348" data-name="Ellipse 6348" cx="0.832" cy="0.841" rx="0.832" ry="0.841" transform="matrix(0.375, -0.927, 0.927, 0.375, 12.023, 17.166)" fill="#34201e"/>
                <path id="Path_265983" data-name="Path 265983" d="M-1280.871,1701.971a.845.845,0,0,0,.84.839.829.829,0,0,0,.84-.827.845.845,0,0,0-.84-.84A.829.829,0,0,0-1280.871,1701.971Z" transform="translate(1300.565 -1685.139)" fill="#34201e"/>
                <g id="Group_157058" data-name="Group 157058" transform="translate(10.29 12.681)">
                  <path id="Path_265984" data-name="Path 265984" d="M-1294.223,1697.365a.526.526,0,0,1-.525-.514.525.525,0,0,1,.514-.535l3.781-.077a.53.53,0,0,1,.535.514.526.526,0,0,1-.514.536l-3.78.076Z" transform="translate(1294.748 -1696.239)" fill="#7b291b"/>
                </g>
                <g id="Group_157059" data-name="Group 157059" transform="translate(18.763 12.823)">
                  <path id="Path_265985" data-name="Path 265985" d="M-1278.463,1697.732h-.039l-3.255-.235a.526.526,0,0,1-.486-.562.531.531,0,0,1,.562-.486l3.255.235a.525.525,0,0,1,.486.561A.526.526,0,0,1-1278.463,1697.732Z" transform="translate(1282.244 -1696.447)" fill="#7b291b"/>
                </g>
                <path id="Path_265986" data-name="Path 265986" d="M-1303.539,1689.913a9.491,9.491,0,0,1,3.374-7.294c-.991-1.231-1.35-3.071-1.139-3.24a9.286,9.286,0,0,1,10.236-.555c3.665,2.12,5.342,3.542,4.715,5.047l.024.052-.032-.033a3.468,3.468,0,0,1-2.945,2.206c-4.687,0-4.588-2.752-8.08-2.483-1.364.105-3.436.97-3.436,4.381a50.446,50.446,0,0,1-.629,7.558c-1.1.071-1.111-.641-1.111-.641,0-1.958-.293-3.055-1.539-3.637Z" transform="translate(1308.055 -1677.524)" fill="#7b291b"/>
              </g>
              <g id="Group_157061" data-name="Group 157061" transform="translate(21.944 24.301)">
                <path id="Path_265987" data-name="Path 265987" d="M-1287.376,1714.982h-.006a5.075,5.075,0,0,1-2.765-.553.575.575,0,0,1-.139-.8.573.573,0,0,1,.8-.139,4.468,4.468,0,0,0,2.105.345,3.515,3.515,0,0,0,1.769-.342.573.573,0,0,1,.8.137.573.573,0,0,1-.138.8A4.271,4.271,0,0,1-1287.376,1714.982Z" transform="translate(1290.39 -1713.387)" fill="#df6249"/>
              </g>
              <g id="Group_157062" data-name="Group 157062" transform="translate(21.59 97.812)">
                <path id="Path_265988" data-name="Path 265988" d="M-1283.064,1824.4v0Z" transform="translate(1288.381 -1822.676)" fill="#de901b"/>
                <path id="Path_265989" data-name="Path 265989" d="M-1283.078,1823.793v0Z" transform="translate(1288.386 -1822.493)" fill="#de901b"/>
                <path id="Path_265990" data-name="Path 265990" d="M-1284.428,1826.252c-.363-2.228-.869-4.377-.869-4.377-.821,2.741-3.932,3.29-5.614,3.231l.1,6.157,3.383,20.812c.043.156.088.346.134.555C-1288.126,1845.338-1283.56,1831.573-1284.428,1826.252Z" transform="translate(1290.911 -1821.875)" fill="#de901b"/>
                <path id="Path_265991" data-name="Path 265991" d="M-1283.069,1823.2v0Z" transform="translate(1288.383 -1822.302)" fill="#de901b"/>
                <path id="Path_265992" data-name="Path 265992" d="M-1282.847,1826.333c0-.028-.01-.058-.016-.086C-1282.858,1826.275-1282.852,1826.3-1282.847,1826.333Z" transform="translate(1288.316 -1823.284)" fill="#de901b"/>
                <path id="Path_265993" data-name="Path 265993" d="M-1282.954,1825.652l0-.04Z" transform="translate(1288.347 -1823.08)" fill="#de901b"/>
                <path id="Path_265994" data-name="Path 265994" d="M-1283.02,1825.047c0-.021,0-.042-.006-.063C-1283.024,1825.005-1283.022,1825.026-1283.02,1825.047Z" transform="translate(1288.369 -1822.877)" fill="#de901b"/>
              </g>
              <g id="Group_157063" data-name="Group 157063" transform="translate(5.742 45.702)">
                <path id="Path_265995" data-name="Path 265995" d="M-1277.662,1768.905a2.841,2.841,0,0,1-2.583,3.066l-18.954,1.632c-.146.014-.588-.035-.741-.035a6.205,6.205,0,0,1-5.548-3.645l-3.585-7.775-1.417-4.733-3.586-8.518a2.826,2.826,0,0,1,1.514-3.7,2.823,2.823,0,0,1,3.7,1.508l4.128,9.8,1.62,1.577,4.032,9.573a.768.768,0,0,0,.337.183l18.015-1.511A2.841,2.841,0,0,1-1277.662,1768.905Z" transform="translate(1314.299 -1744.971)" fill="#f69f75"/>
              </g>
              <path id="Path_265996" data-name="Path 265996" d="M-1307.462,1729.463c-9.216,0-11.214,5.482-11.128,10.09.084,4.536,5.617,19.715,5.617,19.715l9.719-3.315-5.126-16.2Z" transform="translate(1321.426 -1694.269)" fill="#ffd836"/>
            </g>
            <path id="Path_265997" data-name="Path 265997" d="M-1304.285,1729.463c4.4,0,5.427,7.043,5.368,11.673l-1.517,3.367-1.737-3.367c.059-4.63-1.033-11.523-5.934-11.247,0,0,1.1-.206,1.865-.315A17.658,17.658,0,0,1-1304.285,1729.463Z" transform="translate(1318.044 -1694.269)" fill="#d88e1d"/>
            <path id="Path_265998" data-name="Path 265998" d="M-1285.648,1729.438a10.389,10.389,0,0,0-1.955-.006l-.083.012v.354a1.3,1.3,0,0,1-.04.316c3.422,1.259,4.242,6.977,4.192,11l1.886,2.244,1.306-2.244C-1280.285,1736.481-1281.249,1729.438-1285.648,1729.438Z" transform="translate(1311.474 -1694.243)" fill="#d88e1d"/>
          </g>
          <path id="Path_265999" data-name="Path 265999" d="M-1283.665,1691.826l-.067,2.064c-.291-1.447-4.793-1.748-9.753-1.557-2.962.123-6,.338-6.107,1.557.135-6.766,2.653-11.512,7.511-11.512C-1285.448,1682.378-1283.484,1686.631-1283.665,1691.826Z" transform="translate(1315.3 -1677.865)" fill="#b95e4d" opacity="0.6" style="mix-blend-mode: multiply;isolation: isolate"/>
          <g id="Group_157066" data-name="Group 157066" transform="translate(8.151)">
            <path id="Path_266000" data-name="Path 266000" d="M-1287.763,1686.58c-.732-.562-1.494-.281-4.881-.281a38.968,38.968,0,0,0-10.907,1.516c-3.189.964-5.589,2.332-6.295,3.906-.33.243-.842-2.875-.891-5.115-.007-.125-.007-.243-.007-.36a10.333,10.333,0,0,1,.33-2.605c.967-3.659,4.061-6.78,9.7-7.675a.465.465,0,0,0,.056-.011c.63-.1,1.29-.167,1.987-.212.247-.015.485-.023.724-.023a11.527,11.527,0,0,1,3.891.584,2.284,2.284,0,0,1,.235.087,9.66,9.66,0,0,1,5.541,5.252C-1287.157,1684.167-1287.247,1686.538-1287.763,1686.58Z" transform="translate(1310.744 -1675.717)" fill="#fa9500"/>
            <path id="Path_266001" data-name="Path 266001" d="M-1273.017,1689.87c-1.164.056-2.461-.062-3.813-.02a13.176,13.176,0,0,1,.5,4.382h0C-1267.713,1694.663-1265.911,1689.527-1273.017,1689.87Z" transform="translate(1299.81 -1680.271)" fill="#ce4f0e"/>
            <path id="Path_266002" data-name="Path 266002" d="M-1309.419,1692.042c.705-1.573,3.106-2.943,6.295-3.906a38.969,38.969,0,0,1,10.907-1.517c3.387,0,4.149-.281,4.881.281.516-.041.606-2.412-.516-4.937a9.658,9.658,0,0,0-5.541-5.252c2.449,1.512,2.689,5.483,2.855,6.735.19,1.422-3.792,1.706-9.955,3.223S-1309.339,1690.5-1309.419,1692.042Z" transform="translate(1310.317 -1676.038)" fill="#fa9500"/>
          </g>
        </g>
      </g>
      <path id="Path_266003" data-name="Path 266003" d="M-1316.956,1888.3c4.547,2.007,9.791,3.458,14.384,2.42.094-.672.193-1.351.292-2.037-2.889.827-6.238.262-9.041-.493a38.986,38.986,0,0,1-5.343-1.881Z" transform="translate(1320.898 -1743.613)" fill="#e9e4e1" stroke="#e9e4e1" stroke-linejoin="round" stroke-width="0.28"/>
      <path id="Path_266004" data-name="Path 266004" d="M-1317.689,1893.268c4.535,2.014,9.784,3.493,14.387,2.5.095-.66.193-1.335.292-2.029-2.867.777-6.162.219-8.927-.527a38.963,38.963,0,0,1-5.461-1.931Z" transform="translate(1321.134 -1745.214)" fill="#e9e4e1" stroke="#e9e4e1" stroke-linejoin="round" stroke-width="0.28"/>
      <g id="Group_157069" data-name="Group 157069" transform="translate(14.215 48.863)" opacity="0.7">
        <rect id="Rectangle_295319" data-name="Rectangle 295319" width="8.407" height="5.953" rx="0.535" transform="translate(0)" fill="#4f0e1f"/>
      </g>
      <rect id="Rectangle_295320" data-name="Rectangle 295320" width="8.407" height="5.533" rx="0.535" transform="translate(15.163 47.915)" fill="#fff"/>
      <rect id="Rectangle_295321" data-name="Rectangle 295321" width="1.844" height="2.537" rx="0.535" transform="translate(18.445 45.769)" fill="#a6aab2"/>
      <g id="Group_157070" data-name="Group 157070" transform="translate(20.556 49.078)" opacity="0.6">
        <rect id="Rectangle_295322" data-name="Rectangle 295322" width="1.974" height="1.939" rx="0.535" transform="translate(0)" fill="#3d777d"/>
      </g>
      <path id="Path_266027" data-name="Path 266027" d="M-1263.044,1783.1a8.694,8.694,0,0,1-1.032-.036c-1.024-2.523-2.625-4.032-3.372-2.675-.161-1.083-.214-2.543-1.736-2.653,0,0-1.729-.892-.231-1.235a29.084,29.084,0,0,1,5.809-.915c2.47.091,2.786,1.191,3.087,3.408C-1260.263,1780.867-1261.333,1783.1-1263.044,1783.1Z" transform="translate(1305.767 -1707.914)" fill="#f69f75"/>
      <path id="Path_266028" data-name="Path 266028" d="M-1251.873,1777.328c1.929.14,2.221,2.418,2.248,3.406.041,1.52,2.025,2.163,3.394,2.163,1.982,0,3.034-2.455,2.805-4.177-.294-2.214-1.25-3.537-3.964-3.385a31.6,31.6,0,0,0-3.659.488A.969.969,0,0,0-1251.873,1777.328Z" transform="translate(1299.966 -1707.83)" fill="#f69f75"/>
      <g id="Group_157168" data-name="Group 157168" transform="translate(42.36 67.809)">
        <path id="Path_266029" data-name="Path 266029" d="M-1255.745,1781.766a.789.789,0,0,1-.1-.008.732.732,0,0,1-.621-.828,3.224,3.224,0,0,0-.613-2.449,3.5,3.5,0,0,0-2.511-1.231.732.732,0,0,1-.661-.8.737.737,0,0,1,.8-.661,4.923,4.923,0,0,1,3.524,1.782,4.692,4.692,0,0,1,.913,3.563A.732.732,0,0,1-1255.745,1781.766Z" transform="translate(1260.259 -1775.79)" fill="#f69f75"/>
      </g>
      <path id="Path_266030" data-name="Path 266030" d="M-1283.8,1896.51v-.029l-.073-1.464-.015-.271-.022-.424a100.43,100.43,0,0,0,14.036-1.259l.037.922.044,1.281A103.5,103.5,0,0,1-1283.8,1896.51Z" transform="translate(1310.244 -1745.79)" fill="#e9e4e1"/>
      <path id="Path_266031" data-name="Path 266031" d="M-1270.015,1890.413a118.672,118.672,0,0,1-14.051,1.142l-.015-.264-.007-.066-.1-1.859a117.888,117.888,0,0,0,14.088-1.142l.043,1.017.036.951Z" transform="translate(1310.334 -1744.23)" fill="#e9e4e1"/>
      <path id="Path_266032" data-name="Path 266032" d="M-1300.548,1688.074c-1.039-4.727-3.156-11.676,7.621-11.557,11.1.122,8.294,10.733,8.294,10.733Z" transform="translate(1315.895 -1675.975)" fill="#ffd836"/>
      <path id="Path_266033" data-name="Path 266033" d="M-1278.54,1689.878c-2.808-.07-3.761,1.271-9.662,3.191-4.477,1.46-8.837-.074-11.923-.757,1.055-.96,11.8-2.608,17.728-2.65C-1280.854,1689.652-1278.8,1689.84-1278.54,1689.878Z" transform="translate(1315.472 -1680.213)" fill="#ffb218"/>
    </g>
  </g>
</svg>
