<svg xmlns="http://www.w3.org/2000/svg" width="400" height="204.321" viewBox="0 0 400 204.321">
  <g id="_3" data-name="3" transform="translate(-1020 -1231)">
    <rect id="Rectangle_295758" data-name="Rectangle 295758" width="400" height="204" transform="translate(1020 1231)" fill="none"/>
    <g id="Group_151232" data-name="Group 151232" transform="translate(-1946.589 726.195)">
      <g id="Group_151178" data-name="Group 151178" transform="translate(3006.512 507.451)">
        <g id="Group_151172" data-name="Group 151172" transform="translate(80.152 0)">
          <path id="Path_263231" data-name="Path 263231" d="M3225.915,702.093c33.388,0,64.113.5,88.5,1.338,59.673-34.11,39.01-100.591,17.584-138.2-29.818-52.337-100.278-71.148-129.423-29.39-39.558,56.68-77.719,36.9-98.325,79.947s10.688,84.313,33.17,87.64C3161.8,702.593,3192.527,702.093,3225.915,702.093Z" transform="translate(-3097.528 -512.991)" fill="#eaeff8" fill-rule="evenodd"/>
        </g>
        <g id="Group_151173" data-name="Group 151173" transform="translate(0 189.101)">
          <path id="Path_263232" data-name="Path 263232" d="M3188.923,1163.764c79.276,0,143.54,2.815,143.54,6.287s-64.264,6.287-143.54,6.287-143.538-2.815-143.538-6.287S3109.65,1163.764,3188.923,1163.764Z" transform="translate(-3045.385 -1163.764)" fill="#d2dfee" fill-rule="evenodd"/>
        </g>
        <g id="Group_151174" data-name="Group 151174" transform="translate(155.984 13.568)">
          <path id="Path_263233" data-name="Path 263233" d="M3616.03,561.686c35.85,7.987,58.664,40.956,60.9,56.873.917,6.531-.782-8.754-19.071-22.672-16.344-12.438-29.068-14.742-48.511-16.246-13.742-1.062-28.131-2.75-27.108-10.946C3583.046,562.223,3592.886,556.53,3616.03,561.686Z" transform="translate(-3582.188 -559.684)" fill="#fff" fill-rule="evenodd"/>
        </g>
        <g id="Group_151175" data-name="Group 151175" transform="translate(124.841 28.171)">
          <path id="Path_263234" data-name="Path 263234" d="M3483.289,620.315c-.512,7.05-1.553,8.023-8.275,8.567,6.721.543,7.763,1.515,8.275,8.566.515-7.051,1.555-8.023,8.278-8.566-6.723-.543-7.763-1.517-8.278-8.567Zm27.327,18.6c-.274,3.765-.83,4.284-4.417,4.574,3.588.29,4.144.81,4.417,4.574.274-3.764.83-4.283,4.419-4.574-3.589-.29-4.144-.809-4.419-4.574Zm-11.967-28.972c-.277,3.812-.84,4.338-4.475,4.632,3.635.294,4.2.819,4.475,4.632.278-3.813.84-4.338,4.475-4.632C3499.489,614.276,3498.927,613.75,3498.649,609.938Z" transform="translate(-3475.014 -609.938)" fill="#fff" fill-rule="evenodd"/>
        </g>
        <g id="Group_151176" data-name="Group 151176" transform="translate(97.49 145.743)">
          <path id="Path_263235" data-name="Path 263235" d="M3406.6,1022.956c.416,5.712,1.259,6.5,6.706,6.939-5.447.441-6.29,1.228-6.706,6.941-.416-5.712-1.258-6.5-6.7-6.941,5.446-.439,6.288-1.228,6.7-6.939Zm-22.138,15.066c.223,3.049.673,3.47,3.579,3.705-2.906.235-3.356.655-3.579,3.7-.223-3.05-.673-3.47-3.58-3.7,2.907-.236,3.357-.656,3.58-3.705Zm9.694-23.472c.225,3.088.682,3.514,3.626,3.753-2.944.237-3.4.663-3.626,3.752-.224-3.089-.68-3.515-3.624-3.752C3393.481,1018.064,3393.937,1017.638,3394.161,1014.55Z" transform="translate(-3380.887 -1014.55)" fill="#fff" fill-rule="evenodd"/>
        </g>
        <g id="Group_151177" data-name="Group 151177" transform="translate(205.077 133.632)">
          <path id="Path_263236" data-name="Path 263236" d="M3756.269,979.307c-.318,4.373-.964,4.977-5.133,5.314,4.17.337,4.815.941,5.133,5.314.319-4.373.963-4.977,5.133-5.314-4.17-.337-4.815-.941-5.133-5.314Zm16.949,11.535c-.17,2.335-.515,2.657-2.741,2.837,2.226.179,2.571.5,2.741,2.837.17-2.335.515-2.658,2.741-2.837-2.226-.18-2.571-.5-2.741-2.837Zm-7.423-17.971c-.173,2.364-.521,2.692-2.776,2.874,2.255.182,2.6.507,2.776,2.872.171-2.365.52-2.69,2.775-2.872C3766.316,975.563,3765.967,975.235,3765.8,972.871Z" transform="translate(-3751.136 -972.871)" fill="#fff" fill-rule="evenodd"/>
        </g>
      </g>
      <g id="Group_151179" data-name="Group 151179" transform="translate(3195.998 622.311)">
        <path id="Path_263237" data-name="Path 263237" d="M3720.2,912.538l-4.3,2.5a3.057,3.057,0,0,0-1.1,4.17l.948,1.633c1.12,1.927.632,2.8.285,3.109-.958.857-1.845,1.788-2.736,2.715-.261.272-1.092,1.2-3.279-.069l-1.5-.871a3.058,3.058,0,0,0-4.17,1.1l-2.5,4.3a3.059,3.059,0,0,0,1.1,4.171l1.485.863c2.051,1.193,2,1.8,1.74,2.674-.356,1.194-.741,2.389-1,3.624-.232,1.1-.128,1.886-2.917,1.886h-1.71a3.058,3.058,0,0,0-3.051,3.052v4.976a3.057,3.057,0,0,0,3.051,3.051h1.71c2.789,0,2.684.786,2.917,1.887.261,1.235.646,2.429,1,3.623.259.87.311,1.481-1.74,2.675l-1.485.861a3.06,3.06,0,0,0-1.1,4.171l2.5,4.3a3.06,3.06,0,0,0,4.17,1.1l1.5-.871c2.187-1.271,3.018-.341,3.279-.07.89.926,1.778,1.858,2.736,2.714.347.311.835,1.183-.285,3.109l-.948,1.633a3.057,3.057,0,0,0,1.1,4.17l4.3,2.5a3.056,3.056,0,0,0,4.17-1.1l.948-1.628c1.137-1.955,2.256-1.879,2.729-1.728,1.372.437,2.64.72,4.055,1.089.517.134,1.4.51,1.4,2.839v1.747a3.057,3.057,0,0,0,3.052,3.049h4.975a3.055,3.055,0,0,0,3.051-3.049v-1.747c0-2.329.886-2.7,1.4-2.839,1.416-.369,2.683-.652,4.055-1.089.474-.151,1.592-.227,2.73,1.728l.946,1.628a3.058,3.058,0,0,0,4.171,1.1l4.3-2.5a3.058,3.058,0,0,0,1.1-4.17l-.949-1.633c-1.12-1.927-.632-2.8-.285-3.109.958-.857,1.846-1.788,2.736-2.714.262-.271,1.093-1.2,3.281.07l1.5.871a3.061,3.061,0,0,0,4.171-1.1l2.5-4.3a3.061,3.061,0,0,0-1.1-4.171l-1.486-.861c-2.052-1.193-2-1.8-1.738-2.675.356-1.194.739-2.388,1-3.623.232-1.1.127-1.887,2.918-1.887h1.709a3.056,3.056,0,0,0,3.05-3.051V947.4a3.057,3.057,0,0,0-3.05-3.052h-1.709c-2.791,0-2.686-.785-2.918-1.886-.261-1.235-.644-2.43-1-3.624-.261-.869-.314-1.481,1.738-2.674l1.486-.863a3.06,3.06,0,0,0,1.1-4.171l-2.5-4.3a3.059,3.059,0,0,0-4.171-1.1l-1.5.871c-2.188,1.271-3.018.341-3.281.069-.89-.926-1.778-1.857-2.736-2.715-.347-.311-.835-1.182.285-3.109l.949-1.633a3.057,3.057,0,0,0-1.1-4.17l-4.3-2.5a3.06,3.06,0,0,0-4.171,1.1l-.946,1.629c-1.138,1.956-2.256,1.878-2.73,1.728-1.372-.438-2.639-.721-4.055-1.089-.517-.134-1.4-.51-1.4-2.839v-1.747a3.056,3.056,0,0,0-3.051-3.051h-4.975a3.058,3.058,0,0,0-3.052,3.051v1.747c0,2.329-.886,2.705-1.4,2.839-1.415.368-2.683.651-4.055,1.089-.473.149-1.592.227-2.729-1.728l-.948-1.629a3.058,3.058,0,0,0-4.17-1.1Zm18.843,30.779a6.572,6.572,0,1,1-6.571,6.572,6.572,6.572,0,0,1,6.571-6.572Zm-20.6,6.572a1.406,1.406,0,0,1,2.813,0,17.788,17.788,0,0,0,17.787,17.788,1.406,1.406,0,1,1,0,2.811,20.6,20.6,0,0,1-20.6-20.6Zm40.929-3.318a1.4,1.4,0,1,1-2.768.439,17.8,17.8,0,0,0-14.508-14.65,1.4,1.4,0,1,1,.473-2.768,20.616,20.616,0,0,1,16.8,16.979Zm-20.329-21.091a24.408,24.408,0,1,1-24.408,24.408A24.408,24.408,0,0,1,3739.038,925.48Z" transform="translate(-3697.484 -908.272)" fill="#fda929" fill-rule="evenodd"/>
      </g>
      <g id="Group_151180" data-name="Group 151180" transform="translate(3119.906 505.181)">
        <path id="Path_263238" data-name="Path 263238" d="M3458.332,509.446l-4.3,2.5a3.059,3.059,0,0,0-1.1,4.17l.949,1.632c1.12,1.927.632,2.8.285,3.109-.957.857-1.845,1.788-2.735,2.714-.261.272-1.093,1.2-3.279-.07l-1.5-.871a3.058,3.058,0,0,0-4.17,1.1l-2.5,4.3a3.059,3.059,0,0,0,1.1,4.171l1.485.862c2.052,1.193,2,1.8,1.739,2.674-.356,1.193-.741,2.388-1,3.624-.232,1.1-.126,1.886-2.917,1.886h-1.709a3.057,3.057,0,0,0-3.051,3.051v4.976a3.056,3.056,0,0,0,3.051,3.051h1.709c2.79,0,2.685.787,2.917,1.887.261,1.235.646,2.431,1,3.624.26.87.313,1.481-1.739,2.674l-1.485.863a3.058,3.058,0,0,0-1.1,4.17l2.5,4.3a3.058,3.058,0,0,0,4.17,1.1l1.5-.871c2.186-1.272,3.018-.341,3.279-.069.89.926,1.778,1.857,2.735,2.713.347.312.836,1.183-.285,3.109l-.949,1.632a3.059,3.059,0,0,0,1.1,4.17l4.3,2.5a3.058,3.058,0,0,0,4.17-1.1l.948-1.628c1.137-1.956,2.256-1.878,2.729-1.728,1.371.437,2.639.719,4.054,1.088.517.135,1.4.51,1.4,2.84v1.746a3.056,3.056,0,0,0,3.051,3.051h4.977a3.056,3.056,0,0,0,3.051-3.051v-1.746c0-2.33.885-2.706,1.4-2.84,1.416-.368,2.683-.651,4.055-1.088.474-.151,1.592-.228,2.729,1.728l.948,1.628a3.059,3.059,0,0,0,4.171,1.1l4.3-2.5a3.057,3.057,0,0,0,1.1-4.17l-.949-1.632c-1.12-1.926-.632-2.8-.285-3.109.958-.857,1.845-1.787,2.736-2.713.262-.273,1.093-1.2,3.28.069l1.5.871a3.058,3.058,0,0,0,4.17-1.1l2.5-4.3a3.058,3.058,0,0,0-1.1-4.17l-1.485-.863c-2.052-1.193-2-1.8-1.738-2.674.355-1.193.74-2.389,1-3.624.232-1.1.127-1.887,2.917-1.887h1.711a3.055,3.055,0,0,0,3.049-3.051v-4.976a3.056,3.056,0,0,0-3.049-3.051h-1.711c-2.79,0-2.684-.786-2.917-1.886-.261-1.236-.645-2.431-1-3.624-.261-.87-.314-1.482,1.738-2.674l1.485-.862a3.058,3.058,0,0,0,1.1-4.171l-2.5-4.3a3.057,3.057,0,0,0-4.17-1.1l-1.5.871c-2.187,1.272-3.017.342-3.28.07-.89-.926-1.778-1.857-2.736-2.714-.347-.312-.835-1.182.285-3.109l.949-1.632a3.057,3.057,0,0,0-1.1-4.17l-4.3-2.5a3.06,3.06,0,0,0-4.171,1.1l-.948,1.629c-1.137,1.955-2.254,1.879-2.729,1.728-1.372-.437-2.639-.719-4.055-1.089-.517-.134-1.4-.511-1.4-2.84v-1.747a3.055,3.055,0,0,0-3.051-3.05h-4.977a3.056,3.056,0,0,0-3.051,3.05v1.747c0,2.329-.886,2.705-1.4,2.84-1.416.369-2.683.652-4.054,1.089-.473.151-1.592.227-2.729-1.728l-.948-1.629a3.059,3.059,0,0,0-4.17-1.1Zm18.843,30.779a6.571,6.571,0,1,1-6.57,6.571,6.571,6.571,0,0,1,6.57-6.571Zm-20.6,6.572a1.406,1.406,0,0,1,2.813,0,17.787,17.787,0,0,0,17.787,17.788,1.406,1.406,0,1,1,0,2.811,20.6,20.6,0,0,1-20.6-20.6Zm40.929-3.318a1.4,1.4,0,0,1-2.77.439,17.8,17.8,0,0,0-14.507-14.65,1.4,1.4,0,1,1,.472-2.768,20.615,20.615,0,0,1,16.8,16.979Zm-20.33-21.091a24.409,24.409,0,1,1-24.408,24.409A24.408,24.408,0,0,1,3477.175,522.388Z" transform="translate(-3435.621 -505.181)" fill="#fda929" fill-rule="evenodd"/>
      </g>
      <g id="Group_151181" data-name="Group 151181" transform="translate(3061.054 562.206)">
        <path id="Path_263239" data-name="Path 263239" d="M3237.095,701.426h169.217a3.986,3.986,0,0,1,4.007,3.979L3408.8,809.8a4.029,4.029,0,0,1-4.007,3.979H3238.609a4.029,4.029,0,0,1-4.007-3.979L3233.088,705.4A3.985,3.985,0,0,1,3237.095,701.426Z" transform="translate(-3233.088 -701.426)" fill="#29398a" fill-rule="evenodd"/>
      </g>
      <g id="Group_151182" data-name="Group 151182" transform="translate(3066.363 567.494)">
        <path id="Path_263240" data-name="Path 263240" d="M3251.356,719.625l1.477,101.772h163.659l1.477-101.772Z" transform="translate(-3251.356 -719.625)" fill="#12263f" fill-rule="evenodd"/>
      </g>
      <g id="Group_151183" data-name="Group 151183" transform="translate(3069.956 571.036)">
        <path id="Path_263241" data-name="Path 263241" d="M3263.721,731.815,3265.1,826.5h156.678l1.374-94.689Z" transform="translate(-3263.721 -731.815)" fill="#cde6fa" fill-rule="evenodd"/>
      </g>
      <g id="Group_151184" data-name="Group 151184" transform="translate(3030.271 674.555)">
        <path id="Path_263242" data-name="Path 263242" d="M3127.15,1113.454h238.8l-31.362-25.388H3158.513Z" transform="translate(-3127.15 -1088.066)" fill="#d5d6d6" fill-rule="evenodd"/>
      </g>
      <g id="Group_151185" data-name="Group 151185" transform="translate(3030.271 699.943)">
        <path id="Path_263243" data-name="Path 263243" d="M3127.15,1175.436h238.8a4.637,4.637,0,0,1-3.564,4.506H3130.714A4.638,4.638,0,0,1,3127.15,1175.436Z" transform="translate(-3127.15 -1175.436)" fill="#29398a" fill-rule="evenodd"/>
      </g>
      <g id="Group_151186" data-name="Group 151186" transform="translate(3115.823 690.569)">
        <path id="Path_263244" data-name="Path 263244" d="M3423.665,1143.175h63.5l2.1,3.853h-67.693Z" transform="translate(-3421.568 -1143.175)" fill="#fff" fill-rule="evenodd"/>
      </g>
      <g id="Group_151187" data-name="Group 151187" transform="translate(3118.277 570.606)">
        <path id="Path_263245" data-name="Path 263245" d="M3482.7,761.594l-.236.458-.344-.632c-.091-.481-.069-.332-.369-.917,0,.117,0,.244,0,.349v.608c-.042,1-.232.9-.472,1.794l.535.721c-.275,1.522.207,1.187-.923,2.728a8.107,8.107,0,0,0-.976,1.333c-.658,1.471.306.1-.26,2.806-.69,3.3.377.889-2.651,4.021l-2.613-1.2,1.133,1.852c-1.212,1.5-1.255,1.017-.928,1.957.762-1.313,1.178-1.361,2.324-2.109a34.057,34.057,0,0,0,2.9-1.885c1.475-.937,1.155-.073,2.753.488-.15-.486-.279-.418-.723-.7-2.133-1.365-1.092-1.168-.989-3.162.2-3.768.187-.118,2.13-6.373,1.234-3.968,4.874-3.486,5.925-5.976l.323-.909c.079-.1.059-.163.079-.246-2.276,2.068,1.051.048-3.258,2.985-.89.608-.624.316-1.65.7-.12.044-.4.188-.606.268a36.715,36.715,0,0,0-6.392-5.743l2.046,2.063a26.143,26.143,0,0,1,3.189,3.719l.045,1.005Zm-7.214-4.528c.639.721.36.082-.007,1.013-.288-1.017-.151-.307.007-1.013Zm.412,22.886c-.167.662-.134.233-.177.822-.038.527.014.234.1.827.453-1.032.479-.226.072-1.649Zm-31.782,6.494-1.239.28c-.838.014-.431.039-1.176-.418-1.75-1.076-1.331-.13-2.617-.724l-2.029-.17c-.05-.017-.148-.053-.224-.074-.175-.735-.549-1.378-.748-2.114-.162-.6-.085-1.228-.247-1.887,1.2,2.038.538,3,3.247,4.245a2.5,2.5,0,0,1,2.432.014,10.889,10.889,0,0,0,1.188.627c.948.289.352-.213,1.411.22l1.782.706.609-.316c1.718,1.666,2.961,1,4,1.2,1.325.254,2.723,2.1,3.927,2.8,1.057.616.646-.073,1.984.162,1.474.261.84,1.361,5.383,1.387,2.161.013.777.676,2.63.092,2.117-.667,4.794-2.212,5.448-4.092.8-2.3,2.709-3.6,4.656-5.208.976-.808.609-1.487,1.476-.559-1.188.166-2.838,2.263-3.858,3.225-.726.686-2.006,2.684-1.643,3.8-1.884.583-1.807,1.146-3.45,2.128-1.042.62-2.512.873-2.864,1.786l.049.429a4.664,4.664,0,0,1,.1,2.015,3.876,3.876,0,0,1-.577,2.1c.687.938.383.057.3.938-.013.141-.2.478-.286.79-.123.445-.161,1.18-.223,1.451a2.946,2.946,0,0,1-.064,3.174c-.352-1.34-.08.385-.053-2.219,0-.085,0-.354,0-.436l.115-.519c-.806-.98-.119-.037-.125-1.061,0-.663-.106-.472-.264-1.177l.6-.941c-.627-1.233.345.078-.072-2.717-.1-.663-.118.059,0-.565l-1.154-1.668c-1.139-.488-4.064-.4-4.368-.476-1.927-.507-2.2-2.262-4.642-.456-.652-1.514-1.6-3.054-3.269-3.527-2.53-.718-2.469.513-4.361-1.544l-.814.269-.969-.975Zm82.906-48.009c.648.309.019.537.744-.282.012-.015.576-1.049.64-1.16l-.37-.4-1.015,1.847c-.442-.232-.081-.648-1.633.4-1.335.906-.645.457-1.4,1.775-1.587.62-.517-.123-2.169,1.005l-4.087,1.34c-1.309.227-.982-.672-2.169.2-.269-.148-.214-.577-2.006-.144-.916-1.055-.643-1.17-1.95-1.669a5.4,5.4,0,0,1,1.324,2.241,3.659,3.659,0,0,0,.732.026c1.976-.014,1.1.277,1.9-.455.957.652.037.025,1.354.292.948.193.661.089,1,.825.006-.038.045-.124.019-.112l.061-.794,2.8-.726c1.428,2.007,1.062,2.812,1.786,3.356.059-.738.3.339-.038-.911l-1.005-2.495a5.182,5.182,0,0,1,1.052-1.019c.859-.524.06-.59,1.177-.039,1.458-1.873.555-1.265,2.26-2.262,1.082-.633.45-.2.989-.837Zm-43.828,35.778,4.078,2.382c-.5.285-3.847-1.846-3.848-1.848-.328-.368-.168-.3-.23-.534Zm30.086-41.816,1.542-.641a6.935,6.935,0,0,0,1.571-1.425c-.08.018-.141-.023-.241.047s-.176.033-.227.055a6.554,6.554,0,0,0-2.645,1.964Zm-14.565,12.984a5.385,5.385,0,0,0,2.877-1.634c1.029-1.412-.323-1.079,1.809-2.536,3.134-2.139,1.534-.374,2.93-1.71,1.329-1.274,1.271-1.671,3.027-2.213l.4-1.4c1.14-.563.233-.148,1.052-.37l1.915-.769c-1.582,1.689-2.173-.06-2.8,3.172-.072.031-.168.067-.218.087l-.218.089-1.9,1.055c-1.507,1.329-.42.961-2.29,1.669-2.736,1.035-2.9,2.778-3.326,3.366-1,1.4-3.261,1.469-3.965,2.481-1.115,1.6-.49,4.023-.524,4.122-.4,1.155-4.5,2.605-4.673,2.721-.772.531-1,1.412-1.6,2.063a2.4,2.4,0,0,1-1.83.821c.021-.051-.167.01-.251.015,1.182-.68,1.382-.431,2.286-1.764,1.98-2.919.4-.738,3.46-2.516l1.684-1.281c.779-.9.3-1.485.275-1.858-.188-2.455.594-2.613.981-3.5-.409-.479-.9-1.2-1.28-1.6-.57-.595-.651-.465-1.308-1.214,1.554.257,2.488,1.607,3.489,2.7Zm-33.279,74.882c-1.169-.187.63.03-1.326,1.166-.67.389-1.41.79-2.032,1.185l-2.782,2.438c-.6.628-.342.447-.414.817,1.659-.492,2.123-1.821,3.844-2.973.6-.4,1.235-.788,1.868-1.236,1.66-1.174.848-1.081.841-1.4ZM3433.9,791.74c.949-.789,3.06-1.048,3.9-3.724-2.025,1.655.862.255-3.834,3.082-1.01.608-1.036,1.109-1.761,1.637-1.374,1.005-.464.256-.907.291-.922.069-.235-.335-1.285.291l1.285.4C3432.829,793.941,3432.428,792.965,3433.9,791.74Z" transform="translate(-3430.012 -730.333)" fill="#fff" fill-rule="evenodd"/>
      </g>
      <g id="Group_151188" data-name="Group 151188" transform="translate(3141.545 600.888)">
        <path id="Path_263246" data-name="Path 263246" d="M3524.128,837.219l-.55-1.345-2.046.917-2.061-1.251.51,1.306c-1.485,3.027-.352.8.711,2.628.44.761-.3.213.9.716a3.49,3.49,0,0,1,1.441,1.218,10.455,10.455,0,0,1-7.783,1.492,4.56,4.56,0,0,1-2.944-1.906c-.328-.645.105-.437-.253-.24-1.7.933.413.146-.452.268-.509.072-.855-.331-1.514-.483a37.313,37.313,0,0,0,4.515,2.547c1.459.8,4.3.369,6.372.3l1.341,1.887c-2.236,1.454-2.252-.376-5.276,2.7-.637.647-3.344,2.951-4.088,3.465,2.98-1.635,3.371-4.286,8.163-2.089-.761,2.5-2.7,4.215-3.99,5.8-2.212,2.712-2.068,1.6-3.753,5.726,1.731-3.067,7.964-11.343,11.5-10.642l1.751,2.978.06-6.439.963,1.4c1.938.073,2.828-.832,4.476.137a24.064,24.064,0,0,0,3.2,1.861c-2.656-1.215-5.508-3.2-6.2-6.918l-.126-.329c.282-.457,4.347-1.719,5.134-2l-5.259.173,2.039-6.545c-.356.777-2.3,5.459-2.745,5.624l-2.07-.968-.048-2.557-1.583.574Z" transform="translate(-3510.089 -834.547)" fill="#fff" fill-rule="evenodd"/>
      </g>
      <g id="Group_151189" data-name="Group 151189" transform="translate(3200.762 567.501)">
        <path id="Path_263247" data-name="Path 263247" d="M3737.345,719.649c-.277.924-6.411,10.23-7.4,11.753-2.319,3.562-2.31,4.744-5.355,7.039-.445.336-.4.81-.852.053-.321-.535-.188-2.481-.415-3.669-.674,1.923-.06,2.383-.247,4.227-.183,1.82.043.378-.235,1.279l-2.522-3.351c-.134,1.835,1.385,1.427,1.643,3.509-1.678.4-1.618.006-2.96-1.238l.814,2.279-1.738-.209c-.01.051.075.117.083.133l.193,1.154c-.493,2.723-2.916,3.29-4.476,4.693l6.322-2.856c0,1.831.112.592-.56,1.858-1.436,2.7.572.243-.686,2.523l-.916,1.631c2.88-2.389.114-1.612,3.626-1.972l-1.074,8.462c.625-2.428.943-8.443,2.6-10.431l3.657,13.8c1.034-3.4-2.36-9.246-3.061-12.922l2.928,2.808c-1.049-2.839-1.062-2.444-1.377-5,4.981,5.2,11.267,9.627,16.7,11.02-.187,1.424-.6,1.106-1.18,2.347l2.079-1.763,3.4,1.563c-1.695-2.355-8.776-4.195-11.654-6.124-1.794-1.2-8.9-7.431-9.865-9.1,1.14.073,5.422,1.61,8.165,1.96-1-.894-2.3-1.178-4.245-1.726-.044-.937.077-.747.079-.821l-.042-.928c0-.037-.1-.159-.036-.213s-.04-.139-.088-.305l7.57-3.485a2.052,2.052,0,0,1,1.258,1.793c-.458-1.707.007-2.626-1.437-2.205-.763.223-2.948,1.292-3.82,1.68-2.678,1.194-4.482,2.645-6.944,1.832.061-1.924,2.858-3.43,4.007-4.931.9-1.177,1.384-4.135,1.97-5.594C3732.81,726.333,3736.2,723.243,3737.345,719.649Z" transform="translate(-3713.877 -719.649)" fill="#fff" fill-rule="evenodd"/>
      </g>
      <g id="Group_151190" data-name="Group 151190" transform="translate(3164.211 612.544)">
        <path id="Path_263248" data-name="Path 263248" d="M3600.03,897.2c1.5.62.9-.112,1.168,1.427.9-1.516,1.563-1.746,1.591.693-1.018.5-1.358.371-2.728.417l-.031-2.536Zm11.741,7.749c.259-.919-.269-2.382-.1-3.957,3.162.543,2.16,1.375,5.215.22l.483-3.712-4.8,1.156c-.726-.918-.208.223-.21-.942,0-1.458.242.217.185-.715l-2.273.462c.177-2.263-.6-2.786-2.231-2.477-1.143.217.453.546-.927-.194-2.852-1.527-1.5.032-1.562.579l-1.814-1.382c-.487,2.225-1.1,2.675-.374,5.04.919,3-.11,2.008.95,3.207,1.484,1.678,1.652-.141,2.422,1.921,1.063,2.845,2.765.86,5.039.793Zm-5.857-13.457.462,1.989c-3.367-.131-2.095-.648-4.166-1.248,1.047,1.418,1.117,1.075.373,3.218l-4.487-2,3.165,2.4a28.925,28.925,0,0,1-12.222-2.756,11.821,11.821,0,0,1,1.312-4.9l.268-.97c-2.3,2.105-1.556,2.329-2.528,5.666a36.986,36.986,0,0,0,11.449,3.993l-.345,3.018-10.36,1.14c3.468.17,12.3-.929,13.565-.205-1.047,1.556-5.5,2.561-7.384,3.6l-6.839,4.939,8.519-4.708c6.746-4.112,3.1-1.121,9.541-.826-.513,2.186-2.956,7.441-3.992,10.43-.778,2.243-.381,2.522-2.885,2.125,1.983,1,1.72.163,1.267,2.132l4.4-10.446c1.053-2.245.862-.642,4.131-1.36l.577,2.207c.206-2.626-.036-2.214,2.037-2.848l0-1.126,1.584.845c.462-2.915,1.9-2.56,2.153-2.664,2.651-1.073-.358-2.048,8.394,1.506,5.369,2.181,10.213,1.732,16.243,2.578-2.858-1.483-1.013-1.221.359-3.259-3.642,2.778-2.06,2.556-8.252,1.77-2.421-.307-8.656.643-7.507-3.1-1.286,1.281-1.164,1.27-3.261.256a24.8,24.8,0,0,1-3.759-1.87l1.317-3.882c9.99-3.411,16.112.448,23.087-1.821-11.985-.172-10.611-1.458-21.895.691-3.971.756-3.081.665-6.814.223l4.726-9.323c-2.12,1.605-3.144,4.828-5.2,6.584-1.462-1.464-1.494.543-2.116-3-.72-4.127,1.363-10.884.854-15.82-1.584,4.105-.548,16.093-2.523,19.152C3607.187,893.519,3606.74,892.552,3605.914,891.491Z" transform="translate(-3588.091 -874.659)" fill="#fff" fill-rule="evenodd"/>
      </g>
      <g id="Group_151191" data-name="Group 151191" transform="translate(2990.589 572.566)">
        <path id="Path_263249" data-name="Path 263249" d="M3029.73,765.629a6.49,6.49,0,0,0,.093.812,6.5,6.5,0,0,1-.093-.812Zm.131,1q.029.143.065.283c-.024-.093-.045-.187-.065-.283Zm.117.474c.045.157.1.311.151.461q-.082-.226-.151-.461Zm.152.463a6.639,6.639,0,0,0,.4.882,6.639,6.639,0,0,1-.4-.882Zm.406.889.055.1-25.568,51.019c-8.286,19.793,11.983,18.709,10.435,18.709h41.051a7.922,7.922,0,0,0-.266,11.849l.831.65h-40.523a29.826,29.826,0,0,1-15.061-3.59c-12.267-7.041-13-20.486-8-32.444l.164-.392,26.576-53.027.117-.037a6.715,6.715,0,0,1-7.963-3.163l-.619-1.139a6.708,6.708,0,0,1,2.686-9.071l18.469-10.031a7.78,7.78,0,0,1,10.909,6.152l.557,21.011a6.709,6.709,0,0,1-6.51,6.863l-1.3.035a6.708,6.708,0,0,1-6.047-3.49Zm-9.993-7.232c.1-.035.2-.073.291-.114-.1.041-.194.078-.291.114Zm.461-.187c.153-.068.3-.144.455-.225C3021.309,760.895,3021.159,760.97,3021.005,761.038Z" transform="translate(-2990.589 -737.08)" fill="#fedacd" fill-rule="evenodd"/>
      </g>
      <g id="Group_151192" data-name="Group 151192" transform="translate(3038.943 510.437)">
        <path id="Path_263250" data-name="Path 263250" d="M3243.076,594.31a6.3,6.3,0,0,0-.728-.369,6.323,6.323,0,0,1,.728.369Zm-.907-.444c-.09-.035-.18-.069-.272-.1.092.032.181.065.272.1Zm-.46-.163c-.156-.049-.311-.092-.469-.129.158.037.313.08.469.129Zm-.471-.129a6.525,6.525,0,0,0-.955-.152,6.525,6.525,0,0,1,.955.152Zm-.965-.153-.113-.008-28.394-49.5c-11.915-17.844-22.213-.351-21.359-1.64l-22.682,34.213a7.924,7.924,0,0,0-9.73-6.768l-1,.332,22.393-33.773a29.821,29.821,0,0,1,11.315-10.569c12.647-6.333,24.26.483,31.46,11.262l.235.354,29.511,51.451-.033.12A6.711,6.711,0,0,1,3258.91,584l1.293.114a6.708,6.708,0,0,1,6.075,7.251l-1.845,20.937A7.779,7.779,0,0,1,3253.278,618l-17.82-11.147a6.709,6.709,0,0,1-2.123-9.219l.688-1.1a6.707,6.707,0,0,1,6.25-3.112Zm11.549-4.331c-.024.1-.045.2-.066.305.021-.1.042-.2.066-.305Zm-.1.487c-.028.165-.048.333-.065.5C3251.677,589.908,3251.7,589.741,3251.725,589.576Z" transform="translate(-3156.995 -523.27)" fill="#fedacd" fill-rule="evenodd"/>
      </g>
      <g id="Group_151193" data-name="Group 151193" transform="translate(3059.395 613.218)">
        <path id="Path_263251" data-name="Path 263251" d="M3256.536,939.43a6.434,6.434,0,0,0,.684-.447,6.587,6.587,0,0,1-.684.447Zm.837-.565c.077-.06.151-.122.223-.185-.072.062-.146.125-.223.185Zm.373-.317q.179-.165.344-.341c-.111.117-.225.231-.344.341Zm.345-.343a6.507,6.507,0,0,0,.611-.752,6.507,6.507,0,0,1-.611.752Zm.615-.759a6.71,6.71,0,0,0,.426-6.969l-.608-1.145a6.709,6.709,0,0,0-9.047-2.766l-18.557,9.868a7.778,7.778,0,0,0-.641,12.508L3247.5,961a6.708,6.708,0,0,0,9.316-1.642l.744-1.062a6.717,6.717,0,0,0-.72-8.538l.086.09,59.313.136.425-.027c12.934-.853,24.639-7.508,25.471-21.628a29.818,29.818,0,0,0-3.5-15.081l-18.072-36.269-.21,1.033a7.922,7.922,0,0,1-10.724,5.047l18.307,36.742c-.69-1.384,9.321,16.274-12.09,17.684l-57.066-.132-.063.093Zm-2.017,12.169c-.075-.072-.152-.141-.231-.21.078.069.155.139.231.21Zm-.372-.329c-.13-.107-.266-.208-.405-.306C3256.053,949.078,3256.189,949.179,3256.319,949.286Z" transform="translate(-3227.376 -876.978)" fill="#fedacd" fill-rule="evenodd"/>
      </g>
      <g id="Group_151194" data-name="Group 151194" transform="translate(2992.287 571.929)">
        <path id="Path_263252" data-name="Path 263252" d="M3035.572,763.438a6.443,6.443,0,0,0,.094.81,6.435,6.435,0,0,1-.094-.81Zm.132,1c.019.094.042.189.066.282-.024-.094-.047-.187-.066-.282Zm.117.474c.046.157.1.311.152.461-.056-.151-.106-.3-.152-.461Zm.153.463a6.449,6.449,0,0,0,.4.882,6.449,6.449,0,0,1-.4-.882Zm.4.889.055.1-25.567,51.018c-8.287,19.793,11.983,18.709,10.435,18.709h41.05a7.921,7.921,0,0,0-.264,11.848l.829.649H3022.4a29.818,29.818,0,0,1-15.06-3.589c-12.269-7.042-13-20.486-8-32.443l.165-.393,26.574-53.027.118-.037a6.714,6.714,0,0,1-7.962-3.163l-.62-1.14a6.71,6.71,0,0,1,2.686-9.07l18.471-10.031a7.78,7.78,0,0,1,10.909,6.152l.555,21.012a6.708,6.708,0,0,1-6.51,6.863l-1.3.035a6.714,6.714,0,0,1-6.049-3.49Zm-9.991-7.232c.1-.035.194-.073.29-.114-.1.041-.193.078-.29.114Zm.46-.187c.153-.068.3-.144.455-.225C3027.151,758.7,3027,758.779,3026.848,758.846Z" transform="translate(-2996.432 -734.888)" fill="#20cb7d" fill-rule="evenodd"/>
      </g>
      <g id="Group_151195" data-name="Group 151195" transform="translate(3040.642 509.8)">
        <path id="Path_263253" data-name="Path 263253" d="M3248.921,592.118a6.4,6.4,0,0,0-.729-.369,6.312,6.312,0,0,1,.729.369Zm-.909-.444c-.088-.036-.179-.069-.27-.1.091.032.181.065.27.1Zm-.459-.163c-.156-.049-.311-.092-.468-.128.157.037.312.079.468.128Zm-.47-.129a6.542,6.542,0,0,0-.957-.152,6.542,6.542,0,0,1,.957.152Zm-.966-.153a6.707,6.707,0,0,0-6.25,3.112l-.687,1.1a6.709,6.709,0,0,0,2.122,9.219l17.82,11.147a7.779,7.779,0,0,0,11.155-5.692l1.847-20.937a6.708,6.708,0,0,0-6.076-7.25l-1.292-.114a6.713,6.713,0,0,0-7.036,4.889l.033-.12-29.51-51.451-.236-.354c-7.2-10.78-18.812-17.6-31.46-11.262a29.83,29.83,0,0,0-11.315,10.569l-22.391,33.773,1-.332a7.922,7.922,0,0,1,9.729,6.768l22.684-34.213c-.855,1.289,9.442-16.2,21.36,1.639l28.393,49.5.112.008Zm11.55-4.331c-.024.1-.046.2-.066.305.02-.1.041-.2.066-.305Zm-.1.487c-.026.165-.048.333-.062.5C3257.52,587.717,3257.542,587.55,3257.568,587.385Z" transform="translate(-3162.84 -521.078)" fill="#20cb7d" fill-rule="evenodd"/>
      </g>
      <g id="Group_151201" data-name="Group 151201" transform="translate(3049.118 541.75)">
        <g id="Group_151196" data-name="Group 151196" transform="translate(0 0)">
          <path id="Path_263254" data-name="Path 263254" d="M3254.885,631.03h-52.215a9.165,9.165,0,0,0-9.144,9.144v15.782h0a1.52,1.52,0,0,0-1.516,1.516v12.844a1.52,1.52,0,0,0,1.516,1.516h0V753.34a9.164,9.164,0,0,0,9.144,9.144h52.215a9.164,9.164,0,0,0,9.144-9.144V684.224c.043,0,.086.006.13.006h0a1.52,1.52,0,0,0,1.516-1.516V669.87a1.519,1.519,0,0,0-1.516-1.516h0c-.043,0-.087,0-.13.005v-4.37c.043,0,.086.006.13.006h0a1.52,1.52,0,0,0,1.516-1.517V649.636a1.519,1.519,0,0,0-1.516-1.516h0c-.043,0-.087,0-.13.005v-7.951A9.164,9.164,0,0,0,3254.885,631.03Z" transform="translate(-3192.009 -631.03)" fill="#29398a" fill-rule="evenodd"/>
        </g>
        <g id="Group_151197" data-name="Group 151197" transform="translate(3.955 2.438)">
          <path id="Rectangle_294327" data-name="Rectangle 294327" d="M23.076,0H42.551A23.073,23.073,0,0,1,65.624,23.073V103.5A23.074,23.074,0,0,1,42.55,126.576H23.072A23.072,23.072,0,0,1,0,103.5V23.076A23.076,23.076,0,0,1,23.076,0Z" fill="#29398a"/>
        </g>
        <g id="Group_151198" data-name="Group 151198" transform="translate(6.77 4.927)">
          <path id="Rectangle_294328" data-name="Rectangle 294328" d="M13.611,0H46.518A13.608,13.608,0,0,1,60.126,13.608V98.664a13.608,13.608,0,0,1-13.608,13.608H13.612A13.612,13.612,0,0,1,0,98.661V13.611A13.611,13.611,0,0,1,13.611,0Z" fill="#eff9fc"/>
        </g>
        <g id="Group_151199" data-name="Group 151199" transform="translate(19.578 3.623)">
          <path id="Path_263255" data-name="Path 263255" d="M3264.7,643.5h28.837c.2,0,.357.1.357.219h0c0,.121-.16.22-.357.22H3264.7c-.2,0-.357-.1-.357-.22h0c0-.121.16-.219.357-.219Zm-2.128,0h-2.83c-.2,0-.357.1-.357.219h0c0,.121.16.22.357.22h2.83c.2,0,.355-.1.355-.22h0C3262.926,643.6,3262.767,643.5,3262.57,643.5Z" transform="translate(-3259.383 -643.498)" fill="#d7e4f2" fill-rule="evenodd"/>
        </g>
        <g id="Group_151200" data-name="Group 151200" transform="translate(23.344 4.849)">
          <path id="Path_263256" data-name="Path 263256" d="M3299.323,647.719h-26.976a2.132,2.132,0,0,0,2.032,1.5h22.913A2.133,2.133,0,0,0,3299.323,647.719Z" transform="translate(-3272.346 -647.719)" fill="#29398a" fill-rule="evenodd"/>
        </g>
      </g>
      <g id="Group_151202" data-name="Group 151202" transform="translate(3053.51 577.553)">
        <path id="Path_263257" data-name="Path 263257" d="M3219.066,776.783c1.5.62.9-.111,1.168,1.427.905-1.515,1.562-1.746,1.589.693-1.017.5-1.358.371-2.727.416l-.031-2.536Zm11.74,7.751c.26-.921-.27-2.383-.1-3.958,3.163.543,2.16,1.375,5.215.221l.483-3.712-4.8,1.155c-.726-.918-.209.224-.209-.942,0-1.457.242.216.184-.715l-2.272.462c.175-2.263-.6-2.786-2.231-2.477-1.144.217.453.546-.929-.194-2.851-1.527-1.5.032-1.562.579l-1.813-1.382c-.489,2.225-1.1,2.675-.376,5.04.92,3-.108,2.009.953,3.207,1.484,1.678,1.652-.142,2.421,1.921,1.064,2.846,2.765.861,5.039.795Zm-5.856-13.458.461,1.989c-3.366-.13-2.093-.647-4.166-1.248,1.048,1.418,1.117,1.075.373,3.218l-4.486-2,3.163,2.4a28.9,28.9,0,0,1-12.219-2.756,11.82,11.82,0,0,1,1.309-4.9l.269-.97c-2.3,2.105-1.555,2.329-2.528,5.666a36.983,36.983,0,0,0,11.448,3.993l-.342,3.019-10.36,1.139c3.468.17,12.3-.929,13.565-.2-1.049,1.556-5.5,2.561-7.385,3.6l-6.839,4.939,8.519-4.708c6.744-4.111,3.1-1.121,9.541-.826-.514,2.185-2.956,7.441-3.993,10.429-.778,2.243-.382,2.522-2.885,2.126,1.983,1,1.72.164,1.268,2.133l4.4-10.448c1.055-2.244.862-.642,4.133-1.358l.577,2.207c.206-2.626-.036-2.213,2.036-2.849l0-1.125,1.586.844c.462-2.916,1.9-2.56,2.152-2.664,2.652-1.073-.356-2.048,8.395,1.507,5.368,2.179,10.212,1.73,16.242,2.578-2.856-1.484-1.011-1.221.361-3.26-3.643,2.778-2.061,2.557-8.253,1.77-2.421-.307-8.656.642-7.507-3.1-1.288,1.281-1.163,1.27-3.26.256a24.927,24.927,0,0,1-3.76-1.87l1.318-3.882c9.99-3.411,16.113.447,23.087-1.821-11.985-.171-10.611-1.458-21.894.69-3.973.756-3.082.665-6.815.224l4.725-9.323c-2.121,1.605-3.143,4.828-5.2,6.584-1.462-1.464-1.494.542-2.114-3.005-.723-4.127,1.362-10.885.854-15.82-1.587,4.1-.548,16.094-2.523,19.152C3226.223,773.1,3225.775,772.136,3224.949,771.075Z" transform="translate(-3207.125 -754.243)" fill="#61a0e0" fill-rule="evenodd"/>
      </g>
      <g id="Group_151203" data-name="Group 151203" transform="translate(3054.9 596.006)">
        <path id="Path_263258" data-name="Path 263258" d="M3244.344,836.991l-.145.282-.213-.389c-.055-.3-.041-.2-.226-.563,0,.072,0,.15,0,.215v.373c-.026.616-.144.557-.289,1.1l.328.444c-.169.938.129.731-.567,1.68a4.893,4.893,0,0,0-.6.822c-.4.9.189.06-.16,1.726-.424,2.033.232.548-1.631,2.477l-1.609-.741.7,1.141c-.747.924-.773.626-.572,1.205.469-.809.725-.838,1.432-1.3a20.821,20.821,0,0,0,1.786-1.161c.908-.577.712-.044,1.7.3-.093-.3-.172-.257-.445-.432-1.314-.841-.673-.719-.609-1.947.121-2.32.114-.073,1.312-3.923.76-2.443,3-2.147,3.647-3.679l.2-.56c.048-.062.035-.1.049-.151-1.4,1.273.647.029-2.005,1.837-.549.373-.385.2-1.018.43-.073.026-.244.115-.372.165a22.7,22.7,0,0,0-3.935-3.538l1.26,1.271a16.11,16.11,0,0,1,1.962,2.289l.029.619ZM3239.9,834.2c.393.444.221.049,0,.623-.177-.626-.094-.189,0-.623Zm.254,14.09c-.1.407-.084.144-.109.505-.024.326.008.146.065.51.278-.635.294-.139.044-1.015Zm-19.567,4-.764.173c-.516.008-.265.024-.723-.259-1.077-.662-.819-.079-1.612-.444l-1.249-.106c-.031-.011-.091-.033-.137-.046-.108-.451-.338-.847-.461-1.3-.1-.369-.052-.755-.152-1.161.74,1.254.333,1.848,2,2.614a1.538,1.538,0,0,1,1.5.008,6.594,6.594,0,0,0,.732.385c.582.178.215-.13.868.135l1.1.436.375-.2c1.058,1.026,1.824.615,2.462.739.815.157,1.677,1.29,2.419,1.723.648.379.4-.046,1.221.1.907.16.517.838,3.315.855,1.33.007.476.415,1.618.056,1.3-.411,2.951-1.362,3.353-2.519.494-1.418,1.668-2.217,2.868-3.208.6-.5.376-.914.908-.343-.731.1-1.746,1.394-2.374,1.985-.448.423-1.235,1.652-1.011,2.341-1.161.359-1.113.706-2.125,1.31-.641.382-1.547.538-1.763,1.1l.03.264a2.861,2.861,0,0,1,.061,1.241,2.375,2.375,0,0,1-.356,1.293c.424.578.236.036.185.578-.01.088-.125.293-.177.486-.075.274-.1.726-.136.894a1.813,1.813,0,0,1-.041,1.953c-.217-.825-.048.237-.033-1.365,0-.053,0-.219,0-.269l.072-.318c-.5-.6-.074-.024-.078-.654,0-.409-.066-.291-.163-.725l.37-.579c-.385-.759.213.048-.044-1.673-.061-.407-.072.036,0-.347l-.711-1.027a12.427,12.427,0,0,0-2.69-.295c-1.185-.311-1.355-1.391-2.858-.28a3.427,3.427,0,0,0-2.011-2.171c-1.558-.442-1.521.316-2.687-.95l-.5.165-.6-.6Zm51.041-29.557c.4.19.012.33.457-.173.01-.01.355-.646.4-.714l-.227-.249-.625,1.137c-.273-.142-.05-.4-1.005.249-.821.558-.4.281-.864,1.093-.977.382-.317-.075-1.333.619l-2.518.826c-.8.139-.6-.414-1.335.122-.166-.091-.131-.354-1.235-.089-.563-.649-.4-.72-1.2-1.027a3.334,3.334,0,0,1,.816,1.379,2.163,2.163,0,0,0,.45.017c1.216-.009.678.171,1.169-.28.589.4.023.016.834.18.583.118.407.055.618.508,0-.024.029-.077.012-.069l.038-.49,1.724-.448c.879,1.236.653,1.732,1.1,2.067.036-.455.186.208-.024-.561l-.619-1.535a3.249,3.249,0,0,1,.646-.629c.531-.322.038-.362.727-.024.9-1.152.342-.778,1.392-1.392.665-.389.275-.123.608-.516Zm-26.984,22.027,2.511,1.467c-.309.175-2.367-1.137-2.369-1.137-.2-.227-.1-.188-.142-.33Zm18.525-25.744.948-.4a4.227,4.227,0,0,0,.967-.876c-.048.01-.086-.014-.147.029s-.109.019-.14.034a4.021,4.021,0,0,0-1.628,1.209Zm-8.969,7.994a3.319,3.319,0,0,0,1.771-1.007c.634-.869-.2-.664,1.115-1.561,1.928-1.316.943-.231,1.8-1.053.818-.784.782-1.029,1.864-1.362l.245-.86c.7-.346.145-.091.648-.228l1.18-.474c-.974,1.04-1.338-.037-1.722,1.952-.044.019-.1.042-.135.054l-.133.055-1.172.65c-.926.817-.257.591-1.407,1.027a3.312,3.312,0,0,0-2.049,2.073c-.618.861-2.008.905-2.441,1.527a3.8,3.8,0,0,0-.322,2.539c-.244.71-2.773,1.6-2.878,1.674-.474.328-.615.869-.986,1.271a1.479,1.479,0,0,1-1.127.505c.012-.033-.1.006-.154.008.726-.419.851-.266,1.407-1.086,1.218-1.8.25-.455,2.13-1.549l1.037-.789a1.029,1.029,0,0,0,.168-1.144,2.7,2.7,0,0,1,.6-2.156c-.251-.294-.554-.74-.787-.984-.351-.366-.4-.286-.806-.747.958.157,1.532.989,2.148,1.663Zm-20.489,46.1c-.719-.116.389.018-.815.717-.414.239-.869.486-1.252.73l-1.713,1.5c-.37.386-.21.275-.255.5,1.021-.3,1.307-1.121,2.367-1.83.371-.248.761-.485,1.149-.761,1.022-.723.523-.665.518-.859ZM3214.3,855.552c.584-.486,1.883-.646,2.4-2.293-1.246,1.019.53.156-2.36,1.9-.622.374-.638.682-1.085,1.008-.846.619-.285.158-.558.178-.567.043-.145-.206-.792.18l.792.248C3213.642,856.907,3213.4,856.306,3214.3,855.552Z" transform="translate(-3211.906 -817.746)" fill="#61a0e0" fill-rule="evenodd"/>
      </g>
      <g id="Group_151204" data-name="Group 151204" transform="translate(3061.093 612.581)">
        <path id="Path_263259" data-name="Path 263259" d="M3262.379,937.239a6.477,6.477,0,0,0,.685-.447,6.477,6.477,0,0,1-.685.447Zm.838-.565c.077-.06.151-.122.224-.184-.073.062-.147.124-.224.184Zm.372-.317c.121-.11.236-.224.346-.341-.111.117-.225.231-.346.341Zm.347-.344a6.57,6.57,0,0,0,.609-.752,6.57,6.57,0,0,1-.609.752Zm.615-.759.063-.093,57.066.132c21.41-1.41,11.4-19.068,12.091-17.685l-18.308-36.741a7.922,7.922,0,0,0,10.724-5.047l.212-1.033,18.071,36.269a29.82,29.82,0,0,1,3.5,15.081c-.832,14.12-12.537,20.776-25.471,21.628l-.426.027-59.312-.136-.087-.09a6.714,6.714,0,0,1,.721,8.537l-.745,1.063a6.708,6.708,0,0,1-9.316,1.642l-17.215-12.06a7.779,7.779,0,0,1,.642-12.507l18.558-9.868a6.708,6.708,0,0,1,9.046,2.766l.609,1.146a6.709,6.709,0,0,1-.426,6.969Zm-2.018,12.169c-.075-.072-.152-.142-.231-.211.079.069.156.139.231.211Zm-.373-.329c-.129-.107-.264-.208-.4-.307C3261.9,946.886,3262.032,946.988,3262.161,947.095Z" transform="translate(-3233.22 -874.787)" fill="#20cb7d" fill-rule="evenodd"/>
      </g>
      <g id="Group_151231" data-name="Group 151231" transform="translate(3261.655 557.67)">
        <g id="Group_151205" data-name="Group 151205" transform="translate(28.848 2.134)">
          <path id="Path_263260" data-name="Path 263260" d="M3930.441,775.225q8.985,3.257,11.53.629,2.584-.6,3.369-4.584c1.784-4.045.258-10.506-2.25-7.306-2.074-5.307-10.4-2.229-15.091-5.174-2.849,1.862-1.765,6.464.282,8.019C3928.2,772.1,3928.491,774.929,3930.441,775.225Z" transform="translate(-3926.269 -758.79)" fill="#284191" fill-rule="evenodd"/>
        </g>
        <g id="Group_151206" data-name="Group 151206" transform="translate(46.305 5.818)">
          <path id="Path_263261" data-name="Path 263261" d="M3979.2,771.878a1.351,1.351,0,0,1-.626-1.636,2.687,2.687,0,0,1,2.836-.055Q3980.594,770.235,3979.2,771.878Z" transform="translate(-3978.485 -769.809)" fill="#284191" fill-rule="evenodd"/>
        </g>
        <g id="Group_151207" data-name="Group 151207" transform="translate(45.787 4.273)">
          <path id="Path_263262" data-name="Path 263262" d="M3976.935,767.406q.69.774,1.267.341a3.01,3.01,0,0,0-.418-2.562A3.863,3.863,0,0,1,3976.935,767.406Z" transform="translate(-3976.935 -765.185)" fill="#284191" fill-rule="evenodd"/>
        </g>
        <g id="Group_151208" data-name="Group 151208" transform="translate(42.619 8.461)">
          <path id="Path_263263" data-name="Path 263263" d="M3967.458,777.962a2.006,2.006,0,0,1,2.563.447c-.045,1.692-.924,5.1-2.271,5.84C3967.516,784.085,3967.57,780.5,3967.458,777.962Z" transform="translate(-3967.458 -777.711)" fill="#284191" fill-rule="evenodd"/>
        </g>
        <g id="Group_151209" data-name="Group 151209" transform="translate(35.814 7.075)">
          <path id="Path_263264" data-name="Path 263264" d="M3953.488,773.568q2.862,1.39,1.889,2.506a15.771,15.771,0,0,1-8.271-.933Q3949.487,775.365,3953.488,773.568Z" transform="translate(-3947.107 -773.568)" fill="#284191" fill-rule="evenodd"/>
        </g>
        <g id="Group_151210" data-name="Group 151210" transform="translate(28.954 0)">
          <path id="Path_263265" data-name="Path 263265" d="M3928.629,762.337c2.161-2.181,6.237-2.444,11.853-.392,3.554-.882,4.352-2.524,2.852-5.2-2.123-3.775-6.712-.791-12.335-4.343C3931.212,755.166,3922.843,757.53,3928.629,762.337Z" transform="translate(-3926.587 -752.406)" fill="#284191" fill-rule="evenodd"/>
        </g>
        <g id="Group_151211" data-name="Group 151211" transform="translate(43.202 11.764)">
          <path id="Path_263266" data-name="Path 263266" d="M3970.5,787.615c-1.49-.319-1.35,2.742-1.238,4.259C3969.488,794.857,3972.851,788.112,3970.5,787.615Z" transform="translate(-3969.202 -787.592)" fill="#ffb27d" fill-rule="evenodd"/>
        </g>
        <g id="Group_151212" data-name="Group 151212" transform="translate(30.96 7.873)">
          <path id="Path_263267" data-name="Path 263267" d="M3947.875,792.287a4.243,4.243,0,0,1-2.357-.393,10.381,10.381,0,0,1-1.712-3.012c.17-.487.351-1.1.537-1.848q4.771-3.241,1.3-4.8a6.2,6.2,0,0,0-1.735,2.414,1.421,1.421,0,0,1-1.253-.846,41.838,41.838,0,0,0,1.283-5.54c-1.567-2.329-5.232-2.662-10.085-2.034q-.339,1.939-.554,4.1c-.6.556-2.363,9.865,3.6,10.242a7.465,7.465,0,0,1-.067,1.611,1.183,1.183,0,0,1-.656.412h0Q3936.039,797.359,3947.875,792.287Z" transform="translate(-3932.588 -775.954)" fill="#ffb27d" fill-rule="evenodd"/>
        </g>
        <g id="Group_151213" data-name="Group 151213" transform="translate(29.61 2.228)">
          <path id="Path_263268" data-name="Path 263268" d="M3931.169,764.994c4.853-.629,8.518-.3,10.085,2.034a41.8,41.8,0,0,1-1.284,5.54,1.422,1.422,0,0,0,1.253.846,6.2,6.2,0,0,1,1.735-2.414q3.466,1.556-1.3,4.8c-.186.744-.367,1.36-.537,1.848,2.86-.642,5.255-3.2,5.592-4.306,3.338-6.58-.386-9.357-2.376-10.371-.879-6.515-10.339-.756-15.08-3.9C3927.371,761.673,3929.7,764.936,3931.169,764.994Z" transform="translate(-3928.55 -759.07)" fill="#284191" fill-rule="evenodd"/>
        </g>
        <g id="Group_151214" data-name="Group 151214" transform="translate(35.252 21.831)">
          <path id="Path_263269" data-name="Path 263269" d="M3948.637,817.7a8.18,8.18,0,0,1-3.189.668,9.615,9.615,0,0,1-.022,1.311A5.027,5.027,0,0,0,3948.637,817.7Z" transform="translate(-3945.426 -817.701)" fill="#f08261" fill-rule="evenodd"/>
        </g>
        <g id="Group_151215" data-name="Group 151215" transform="translate(32.11 6.548)">
          <path id="Path_263270" data-name="Path 263270" d="M3936.836,771.991a1.526,1.526,0,0,0-.708,1.849,3.039,3.039,0,0,0,3.206.061Q3938.411,773.848,3936.836,771.991Z" transform="translate(-3936.026 -771.991)" fill="#284191" fill-rule="evenodd"/>
        </g>
        <g id="Group_151216" data-name="Group 151216" transform="translate(47.627 141.088)">
          <path id="Path_263271" data-name="Path 263271" d="M3987.031,1180.772c2.754-.971,2.976-2.391,4.461-3.083s1.667-1.943.2-3.294c-1.08.864-2.419,1.923-3.129,1.362-.474-.375-2.082-.35-2.4.2-1.4,3.255-3.347,2.224-3.732,3.7C3982.394,1181.628,3985.766,1181.217,3987.031,1180.772Z" transform="translate(-3982.437 -1174.395)" fill="#284191" fill-rule="evenodd"/>
        </g>
        <g id="Group_151217" data-name="Group 151217" transform="translate(26.167 143.117)">
          <path id="Path_263272" data-name="Path 263272" d="M3920.642,1184.911c5.087-.083,8.889-.143,10.645-.7,1.895-.6,1.5-1.754.416-3.6-4.794,2.2-3.517-.453-5.759-.117a14.231,14.231,0,0,1-7,2.552C3917.637,1184.008,3918.167,1184.867,3920.642,1184.911Z" transform="translate(-3918.251 -1180.464)" fill="#284191" fill-rule="evenodd"/>
        </g>
        <g id="Group_151218" data-name="Group 151218" transform="translate(3.887 24.126)">
          <path id="Path_263273" data-name="Path 263273" d="M3851.613,835.677c4.279,11.584,6.307,18.217,12.247,23.8a11.143,11.143,0,0,0,5.7-4.389q-.133,10.978.546,21.855,6.5,3.082,17.266-.4l2.911-3.584a4.23,4.23,0,0,1,3.261,1.941c6.815-5.2,11.411-10.791,14.12-16.344q-1.1-17.9-4.861-28.241-1.9-2.927-8.939-5.752-11.646,4.99-11.51.311a70.3,70.3,0,0,0-9.089,3.978q-4.72,3.588-8.042,19.443a89.642,89.642,0,0,0-10.862-14.578,5.7,5.7,0,0,0-2.745,1.956Zm40.237,34.052q-3.39-11.142,3.742-27.5,1.8,8.068,3.879,15.882Q3897.05,859.268,3891.85,869.73Z" transform="translate(-3851.613 -824.567)" fill="#7453d8" fill-rule="evenodd"/>
        </g>
        <g id="Group_151219" data-name="Group 151219" transform="translate(22.255 74.464)">
          <path id="Path_263274" data-name="Path 263274" d="M3929.265,979.633q-1.652-.128-5.325-2.864-10.762,3.482-17.266.4c-.771,12.2,2.229,25,6.037,39.26,3.727,6.262,3.57,10.663,5.556,25.11q1.657,1.179,5.469-.345c.807-12.316.248-20.471-2.947-25.068.5-4.13-.807-14.28-.871-20.654,2.326,5.182,3.924,12.184,6.952,19.256a157.245,157.245,0,0,1,8.2,26.232,9.012,9.012,0,0,0,5.788-.708q-3.1-20.722-6.87-28.525a148.037,148.037,0,0,0-3.88-36.6A13.739,13.739,0,0,0,3929.265,979.633Z" transform="translate(-3906.552 -975.125)" fill="#29398a" fill-rule="evenodd"/>
        </g>
        <g id="Group_151220" data-name="Group 151220" transform="translate(11.853 37.169)">
          <path id="Path_263275" data-name="Path 263275" d="M3885.417,881.059a111.772,111.772,0,0,1,1.709-17.483q-3.45,14.482-6.685,19.222c-1.362-.044-2.911-.92-5-2.492a26.257,26.257,0,0,0,4.28,5.142A11.143,11.143,0,0,0,3885.417,881.059Z" transform="translate(-3875.44 -863.576)" fill="#7453d8" fill-rule="evenodd"/>
        </g>
        <g id="Group_151221" data-name="Group 151221" transform="translate(40.627 41.793)">
          <path id="Path_263276" data-name="Path 263276" d="M3963.428,908.137A29.005,29.005,0,0,1,3965,904.9q-3.389-11.142,3.742-27.5-10.371,14.745-5.881,31.435Z" transform="translate(-3961.501 -877.406)" fill="#7453d8" fill-rule="evenodd"/>
        </g>
        <g id="Group_151222" data-name="Group 151222" transform="translate(34.159 139.799)">
          <path id="Path_263277" data-name="Path 263277" d="M3947.133,1174.217a7.564,7.564,0,0,1-.29-2.719q-2.908,1.045-4.442.366a4.808,4.808,0,0,1-.245,1.994c1.766-.062.96,2.077,4.977.358Zm12.82-1.194a2.513,2.513,0,0,1,1.8.167c.635.5,1.773-.292,2.779-1.083a10.7,10.7,0,0,1-.43-1.568,8.82,8.82,0,0,1-3.806.682A3.687,3.687,0,0,1,3959.953,1173.023Z" transform="translate(-3942.156 -1170.539)" fill="#ffb27d" fill-rule="evenodd"/>
        </g>
        <g id="Group_151225" data-name="Group 151225" transform="translate(42.873 58.998)">
          <path id="Path_263280" data-name="Path 263280" d="M3982.82,932.261a51.071,51.071,0,0,1-11.658,12.071c-.6-1-2.116-3.4-2.942-3.357.845-.764.623-.694,1.25-1.818q3.781-7.606,6.093-10.291A70.618,70.618,0,0,0,3982.82,932.261Z" transform="translate(-3968.22 -928.866)" fill="#7453d8" fill-rule="evenodd"/>
        </g>
        <g id="Group_151226" data-name="Group 151226" transform="translate(35.941 70.223)">
          <path id="Path_263281" data-name="Path 263281" d="M3955.693,969.3h0a13.794,13.794,0,0,1,2.678-3.725,4.221,4.221,0,0,0-2.13-3.138l-2.83,1.371a24.992,24.992,0,0,0-5.924,1.061,3.124,3.124,0,0,0,2.978.862q-1.822,1.3-1.906,1.8,2.45,4.837,4.247,4.646A7.129,7.129,0,0,0,3955.693,969.3Z" transform="translate(-3947.486 -962.439)" fill="#ffb27d" fill-rule="evenodd"/>
        </g>
        <g id="Group_151227" data-name="Group 151227" transform="translate(0 24.83)">
          <path id="Path_263282" data-name="Path 263282" d="M3843.876,837.081c-.146-.36-.668-1.794-1.24-3.2-1.418-.729-2.821-2.988-2.631-4.294.507-1.648.172-2.5,1.806-2.915.479.172,1.239,1.238,1.718,2.924-.566,1.071.442,1.952,1.005,2.686.658,1.074.212.273.971,1.475.3.62.855,1.155,1,1.5A5.332,5.332,0,0,0,3843.876,837.081Z" transform="translate(-3839.987 -826.672)" fill="#ffb27d" fill-rule="evenodd"/>
        </g>
        <g id="Group_151228" data-name="Group 151228" transform="translate(34.196 23.939)">
          <path id="Path_263283" data-name="Path 263283" d="M3954.8,824.438c-4.162,1.9-7.651,2.969-9.623,2.918a3.749,3.749,0,0,1-1.636-.365,2.21,2.21,0,0,1-1.022-1.065,2.579,2.579,0,0,1-.253-1.278l.832-.287a3.161,3.161,0,0,0,.2,1.209,1.365,1.365,0,0,0,.636.66,2.927,2.927,0,0,0,1.264.272c1.845.047,4.477-.65,8.517-2.5Z" transform="translate(-3942.267 -824.007)" fill="#4f8ecc" fill-rule="evenodd"/>
        </g>
        <g id="Group_151229" data-name="Group 151229" transform="translate(34.403 27.399)">
          <path id="Path_263284" data-name="Path 263284" d="M3943.379,835.369a.428.428,0,0,1-.135-.845,14.45,14.45,0,0,1,2.578-.164,19.432,19.432,0,0,1,2.826.284.428.428,0,1,1-.144.844,18.159,18.159,0,0,0-2.7-.272A13.528,13.528,0,0,0,3943.379,835.369Z" transform="translate(-3942.885 -834.357)" fill="#4f8ecc" fill-rule="evenodd"/>
        </g>
        <g id="Group_151230" data-name="Group 151230" transform="translate(35.072 28.345)">
          <path id="Path_263285" data-name="Path 263285" d="M3945.4,838.193a.428.428,0,0,1-.177-.838,8.341,8.341,0,0,1,1.965-.168,11.177,11.177,0,0,1,2.142.289.428.428,0,0,1-.19.834,10.176,10.176,0,0,0-1.975-.268A7.436,7.436,0,0,0,3945.4,838.193Z" transform="translate(-3944.888 -837.184)" fill="#4f8ecc" fill-rule="evenodd"/>
        </g>
      </g>
    </g>
  </g>
</svg>
