<svg xmlns="http://www.w3.org/2000/svg" xmlns:xlink="http://www.w3.org/1999/xlink" width="365.743" height="365.667" viewBox="0 0 365.743 365.667">
  <defs>
    <linearGradient id="linear-gradient" x1="-7.685" y1="-2.789" x2="-8.472" y2="-9.463" gradientUnits="objectBoundingBox">
      <stop offset="0" stop-color="#444b8c"/>
      <stop offset="0.996" stop-color="#26264f"/>
    </linearGradient>
    <linearGradient id="linear-gradient-2" x1="-31.527" y1="-2.87" x2="-31.527" y2="-12.636" gradientUnits="objectBoundingBox">
      <stop offset="0" stop-color="#ffc444"/>
      <stop offset="0.996" stop-color="#f36f56"/>
    </linearGradient>
    <linearGradient id="linear-gradient-3" x1="-14.167" y1="-3.524" x2="-14.167" y2="-12.934" xlink:href="#linear-gradient-2"/>
    <linearGradient id="linear-gradient-4" x1="-7.08" y1="-2.382" x2="-8.118" y2="-6.115" xlink:href="#linear-gradient"/>
    <linearGradient id="linear-gradient-5" x1="-3.562" y1="-0.151" x2="-3.738" y2="0.807" gradientUnits="objectBoundingBox">
      <stop offset="0" stop-color="#311944"/>
      <stop offset="1" stop-color="#893976"/>
    </linearGradient>
    <linearGradient id="linear-gradient-6" x1="-11.855" y1="-1.414" x2="-12.504" y2="-0.562" xlink:href="#linear-gradient-2"/>
    <linearGradient id="linear-gradient-7" x1="0.412" y1="-0.727" x2="-0.123" y2="0.218" xlink:href="#linear-gradient"/>
    <linearGradient id="linear-gradient-8" x1="0.532" y1="-0.829" x2="-0.039" y2="0.341" xlink:href="#linear-gradient-2"/>
    <linearGradient id="linear-gradient-9" x1="0.561" y1="-5.527" x2="0.999" y2="-7.503" gradientUnits="objectBoundingBox">
      <stop offset="0" stop-color="#aa80f9"/>
      <stop offset="0.996" stop-color="#6165d7"/>
    </linearGradient>
    <linearGradient id="linear-gradient-10" x1="2.266" y1="-3.703" x2="1.319" y2="-2.771" xlink:href="#linear-gradient-2"/>
    <linearGradient id="linear-gradient-11" x1="-9.774" y1="0.739" x2="-9.472" y2="0.082" xlink:href="#linear-gradient"/>
    <linearGradient id="linear-gradient-12" y1="0.5" x2="1" y2="0.5" gradientUnits="objectBoundingBox">
      <stop offset="0.004" stop-color="#26264f"/>
      <stop offset="1" stop-color="#444b8c"/>
    </linearGradient>
    <linearGradient id="linear-gradient-13" x1="-0.755" y1="0.18" x2="0.671" y2="-0.926" gradientUnits="objectBoundingBox">
      <stop offset="0.004" stop-color="#6165d7"/>
      <stop offset="1" stop-color="#aa80f9"/>
    </linearGradient>
    <linearGradient id="linear-gradient-14" x1="-3.266" y1="-0.837" x2="-5.622" y2="0.327" gradientUnits="objectBoundingBox">
      <stop offset="0" stop-color="#ebeff2"/>
      <stop offset="0.474" stop-color="#d2d9e1"/>
      <stop offset="0.995" stop-color="#b7c0ce"/>
    </linearGradient>
    <linearGradient id="linear-gradient-15" x1="-3.115" y1="-0.704" x2="-5.405" y2="0.461" xlink:href="#linear-gradient-14"/>
    <linearGradient id="linear-gradient-16" x1="-1.715" y1="-1.959" x2="-1.724" y2="-1.207" xlink:href="#linear-gradient"/>
    <linearGradient id="linear-gradient-17" x1="-1.775" y1="-1.942" x2="-1.783" y2="-1.19" xlink:href="#linear-gradient"/>
    <linearGradient id="linear-gradient-18" x1="-1.835" y1="-1.924" x2="-1.843" y2="-1.172" xlink:href="#linear-gradient"/>
    <linearGradient id="linear-gradient-19" x1="-4.878" y1="-1.188" x2="-6.641" y2="-0.042" xlink:href="#linear-gradient-14"/>
    <linearGradient id="linear-gradient-20" x1="-4.83" y1="-0.969" x2="-6.593" y2="0.177" xlink:href="#linear-gradient-14"/>
    <linearGradient id="linear-gradient-21" x1="-4.842" y1="-0.424" x2="-5.003" y2="0.797" xlink:href="#linear-gradient-14"/>
    <linearGradient id="linear-gradient-22" x1="-4.401" y1="-0.81" x2="-7.307" y2="0.341" xlink:href="#linear-gradient-14"/>
    <linearGradient id="linear-gradient-23" x1="11.452" y1="-0.29" x2="11.291" y2="0.931" xlink:href="#linear-gradient-14"/>
    <linearGradient id="linear-gradient-24" x1="16.545" y1="-0.678" x2="13.616" y2="0.473" xlink:href="#linear-gradient-14"/>
    <linearGradient id="linear-gradient-25" x1="-1.736" y1="-1.873" x2="-1.745" y2="-1.121" xlink:href="#linear-gradient"/>
    <linearGradient id="linear-gradient-26" x1="-1.796" y1="-1.856" x2="-1.805" y2="-1.104" xlink:href="#linear-gradient"/>
    <linearGradient id="linear-gradient-27" x1="-1.856" y1="-1.839" x2="-1.865" y2="-1.087" xlink:href="#linear-gradient"/>
    <linearGradient id="linear-gradient-28" x1="-1.745" y1="-2.872" x2="-1.752" y2="-2.027" xlink:href="#linear-gradient"/>
    <linearGradient id="linear-gradient-29" x1="-1.805" y1="-2.848" x2="-1.812" y2="-2.003" xlink:href="#linear-gradient"/>
    <linearGradient id="linear-gradient-30" x1="-1.865" y1="-2.825" x2="-1.872" y2="-1.979" xlink:href="#linear-gradient"/>
    <linearGradient id="linear-gradient-31" x1="0.453" y1="1.209" x2="0.493" y2="0.605" xlink:href="#linear-gradient-12"/>
    <linearGradient id="linear-gradient-32" x1="0.341" y1="0.939" x2="0.642" y2="-0.276" xlink:href="#linear-gradient-12"/>
    <linearGradient id="linear-gradient-34" x1="0.384" y1="1.047" x2="0.649" y2="-0.416" xlink:href="#linear-gradient-12"/>
    <linearGradient id="linear-gradient-37" x1="0.475" y1="1.004" x2="0.576" y2="-0.995" xlink:href="#linear-gradient-12"/>
    <linearGradient id="linear-gradient-38" x1="0.546" y1="0.061" x2="0.39" y2="1.002" gradientUnits="objectBoundingBox">
      <stop offset="0" stop-color="#fcb148"/>
      <stop offset="0.052" stop-color="#fdb946"/>
      <stop offset="0.142" stop-color="#fec144"/>
      <stop offset="0.318" stop-color="#ffc444"/>
      <stop offset="0.485" stop-color="#fdb946"/>
      <stop offset="0.775" stop-color="#f99c4c"/>
      <stop offset="0.866" stop-color="#f8924f"/>
      <stop offset="1" stop-color="#f8924f"/>
    </linearGradient>
  </defs>
  <g id="_3" data-name="3" transform="translate(-420.905 -455)">
    <path id="Path_262185" data-name="Path 262185" d="M609.467,455.083C515.838,452.24,434.736,522.1,422.483,613.776c-13.4,100.23,60.339,190.413,151.067,204.857C686.4,836.6,795.86,732.663,786.032,619.908,778.627,534.957,704.642,457.974,609.467,455.083Z" transform="translate(0 0)" fill="#f4f7fa"/>
    <g id="Group_150533" data-name="Group 150533" transform="translate(661.087 674.408)">
      <path id="Path_262197" data-name="Path 262197" d="M2608.647,3167.98c.743,1.185.627,1.74.5,1.992-.375.74-1.519.2-4.293.824a4.757,4.757,0,0,1-1.75.122c-.688-.088-1.518-.364-1.5-.547.005-.067.122-.106.167-.12.762-.248,5.485-2.255,5.485-2.255Z" transform="translate(-2556.995 -3033.087)" fill="url(#linear-gradient)"/>
      <path id="Path_262198" data-name="Path 262198" d="M2641.688,3146.656l-.144,2.838s-1.111.973-1.533-.023a14.521,14.521,0,0,1-.507-2.712Z" transform="translate(-2589.948 -3014.548)" fill="url(#linear-gradient-2)"/>
      <path id="Path_262199" data-name="Path 262199" d="M2548.891,3166.612l1.513,3.092,1.683-.451-.708-2.935Z" transform="translate(-2511.169 -3031.641)" fill="url(#linear-gradient-3)"/>
      <path id="Path_262200" data-name="Path 262200" d="M2537.755,3184.26c.726-1.069,1.474-1.058,1.553-1.749a1.391,1.391,0,0,0-.848-1.356c-.725-.275-1.5.355-1.679.5-1.194.967-.709,2.233-1.858,2.924a3.252,3.252,0,0,0-.97.723c-.155.18-.541.625-.412.89.149.307.909.216,1.633.13a3.172,3.172,0,0,0,1.692-.459C2537.407,3185.438,2537.2,3185.085,2537.755,3184.26Z" transform="translate(-2497.802 -3044.482)" fill="url(#linear-gradient-4)"/>
      <path id="Path_262201" data-name="Path 262201" d="M2562.313,2627.909a92.642,92.642,0,0,1-.574,16.8c-.63,4.981-1.163,5.876-1.205,9.288-.092,7.424,2.369,8.282,3.5,16.571a50.887,50.887,0,0,1-1.325,19.529,52.78,52.78,0,0,1-1.9,5.968c-.782.8-2.094.63-3.475.466-1.192-8.3-2.466-16.092-3.658-24.39l-7.962-37.229Z" transform="translate(-2508.399 -2563.547)" fill="#29398a"/>
      <path id="Path_262202" data-name="Path 262202" d="M2557.326,2696.531c-1.192-8.3-2.466-16.092-3.658-24.39l-7.962-37.229,16.608-7c.024.432.036.85.054,1.274-7.409,7.595-8.516,13.217-8.127,16.956.471,4.536,3.143,6.582,3.2,13.21.043,4.739-1.3,5.686-.951,9.937.455,5.473,3.059,8.356,4.465,11.424,1.359,2.965,2.112,7.262.486,13.6-.228.659-.446,1.25-.642,1.758C2560.019,2696.87,2558.707,2696.7,2557.326,2696.531Z" transform="translate(-2508.399 -2563.547)" opacity="0.3" fill="url(#linear-gradient-5)" style="mix-blend-mode: multiply;isolation: isolate"/>
      <path id="Path_262203" data-name="Path 262203" d="M2470.867,2635.034a97.94,97.94,0,0,0-6.438,16.7,23.567,23.567,0,0,0-1.038,7.272,22.446,22.446,0,0,0,1.784,8.138,43.227,43.227,0,0,1,2.856,8.051,45.8,45.8,0,0,1-.657,23.616l-2.941,1.375a167.767,167.767,0,0,1-9.325-26.119c-1.608-6.031-2.846-10.763-3.36-16.862a71.867,71.867,0,0,1,3.786-29.279Z" transform="translate(-2426.508 -2563.563)" fill="#29398a"/>
      <path id="Path_262204" data-name="Path 262204" d="M2455.849,2250.672c-6.34,1.638-11.14,3.193-13.047,6.743-2.014,3.749,1.879,6.123,3.524,13.846,2.519,11.824-3.982,16.857-1.008,28.727a31.22,31.22,0,0,0,3.744,8.805,32.843,32.843,0,0,0,10.325,4.759c6.711,1.74,9.817.148,18.633-.078,14.419-.37,16.913,3.615,23.184.517,6.338-3.13,10.5-10.513,8.865-13.384-.981-1.72-3.514-.385-7.461-2.269-5.088-2.428-4.593-6.359-8.8-9.346-6.05-4.291-11.092.967-16.273-2.771-5.24-3.781-6.668-13.914-5.091-20.148,1.031-4.072.7-8.379,1.37-12.524a2.621,2.621,0,0,0-.183-1.481c-1-2.268-5.3-2.362-8.56-2.4A37.054,37.054,0,0,0,2455.849,2250.672Z" transform="translate(-2418.443 -2234.695)" fill="#f7c4ff"/>
      <path id="Path_262205" data-name="Path 262205" d="M2515.286,2542.63c-2.1-1.159-1.332-5-4.44-6.751-2.885-1.623-4.814.972-8.942.072-5.294-1.155-5.436-6.148-10.516-7.324-3.652-.846-4.537,1.514-9.661,2.038a20.473,20.473,0,0,1-16.709-6.113,18.337,18.337,0,0,1-3.95-6.766c-1,4.539-2.136,8.941-.54,15.311a31.208,31.208,0,0,0,3.744,8.805,32.841,32.841,0,0,0,10.325,4.758c6.71,1.74,9.817.148,18.633-.078,14.419-.37,16.913,3.615,23.184.518a18.677,18.677,0,0,0,8.532-8.922C2519.616,2542.774,2516.807,2543.471,2515.286,2542.63Z" transform="translate(-2433.654 -2467.804)" fill="#e6d8ff" opacity="0.3" style="mix-blend-mode: multiply;isolation: isolate"/>
      <path id="Path_262206" data-name="Path 262206" d="M2515.258,2172.811a17.492,17.492,0,0,0-2.263,5.543c-.267,2.33,2.382,2.336,2.382,2.336l-.2,1.468a3.2,3.2,0,0,1-2.271,2.646l-1.067.313s6.7,1.906,10.581-.468l-1.062-.176a3.2,3.2,0,0,1-2.678-3.047l-.022-.635S2520.323,2173.584,2515.258,2172.811Z" transform="translate(-2478.958 -2167.882)" fill="url(#linear-gradient-6)"/>
      <g id="Group_150532" data-name="Group 150532" transform="translate(0 24.977)">
        <path id="Path_262207" data-name="Path 262207" d="M2285.892,2344.42l-10.325-17.81a.578.578,0,0,0-.631-.273l-14.446,3.376a.578.578,0,0,0-.358.869l11.981,19.158a.578.578,0,0,0,.686.237l12.7-4.585Z" transform="translate(-2260.043 -2326.322)" fill="url(#linear-gradient-7)"/>
        <path id="Path_262208" data-name="Path 262208" d="M2299.19,2351.869l-8.36-14.421a.468.468,0,0,0-.511-.221l-11.7,2.733a.468.468,0,0,0-.29.7l9.7,15.512a.467.467,0,0,0,.555.192l10.281-3.713Z" transform="translate(-2275.882 -2335.793)" fill="url(#linear-gradient-8)"/>
        <path id="Path_262209" data-name="Path 262209" d="M2305.886,2331.156l-.664-1.156a.422.422,0,0,0-.459-.2l-6.017,1.353a.423.423,0,0,0-.272.626l.738,1.258a.423.423,0,0,0,.465.2l5.942-1.454A.422.422,0,0,0,2305.886,2331.156Z" transform="translate(-2293.405 -2329.334)" fill="url(#linear-gradient-9)"/>
        <path id="Path_262210" data-name="Path 262210" d="M2293.46,2358.369l.028-.005,10.592-2.5a.244.244,0,0,0,.182-.293.247.247,0,0,0-.293-.181l-10.593,2.5a.244.244,0,0,0,.084.479Z" transform="translate(-2288.859 -2351.588)" fill="#fff"/>
        <path id="Path_262211" data-name="Path 262211" d="M2298.547,2365.568l.03-.006,10.527-2.6a.244.244,0,0,0-.117-.473l-10.527,2.6a.244.244,0,0,0,.086.479Z" transform="translate(-2293.282 -2357.76)" fill="#fff"/>
        <path id="Path_262212" data-name="Path 262212" d="M2341.067,2381.1a.273.273,0,0,0,.037-.007l5.724-1.579a.244.244,0,0,0-.13-.47l-5.724,1.579a.244.244,0,0,0,.093.477Z" transform="translate(-2330.25 -2372.151)" fill="#fff"/>
      </g>
      <path id="Path_262213" data-name="Path 262213" d="M2306.671,2431.377s-2.555-1.374-2.953-2.488a16.628,16.628,0,0,1-.553-3.274l1.708,2.886a1.637,1.637,0,0,0,.837-1.292c.185-1.03.77-.165.651.61A22.353,22.353,0,0,0,2306.671,2431.377Z" transform="translate(-2297.534 -2387.671)" fill="url(#linear-gradient-10)"/>
      <path id="Path_262214" data-name="Path 262214" d="M2336.623,2299.49a17.863,17.863,0,0,0-4.391,4.794c-4.131,6.684-1.58,13.078-5.288,15.822-1.061.785-2.988,1.533-6.7.641l-1.3.874s-.785,8.7,9.6,7.94,14.2-14.177,14.2-14.177Z" transform="translate(-2311.242 -2278.018)" fill="#e6d8ff"/>
      <path id="Path_262215" data-name="Path 262215" d="M2529.482,2143.38c.353-.005.673-.432.9-.283s.172.8-.078,1.244a1.642,1.642,0,0,1-.682.641,4.32,4.32,0,0,1,.646,1.773,5.971,5.971,0,0,1-1.208,3.777c-1.921,3.471.32,9.309,3,12.36,2.18,2.48,3.332,1.618,4.6,3.61,2.467,3.876-1.547,7.689-.475,12.757,1.63,7.706,13.424,10.75,13.914,10.87.193.048.322.078.523.124,5.3,1.208,13.336,3.038,19.347-.98,4.5-3.005,6.841-8.6,6.852-13.667a16.333,16.333,0,0,0-3.894-10.779c-.608-.7-4.209-4.806-9.417-5.2-2.759-.208-3.38.728-5.451-.014-2.835-1.016-4.441-3.762-5.437-5.465-1.832-3.133-.964-3.719-2.327-5.291-2.672-3.079-6.183-1.034-9.072-3.787-2.848-2.714-.8-6-3.568-8.372-2.853-2.443-8.649-2.042-10.051.549C2526.405,2139.473,2528.4,2143.4,2529.482,2143.38Z" transform="translate(-2492.341 -2135.068)" fill="url(#linear-gradient-11)"/>
    </g>
    <path id="Path_262216" data-name="Path 262216" d="M950.5,2386.933q-1.128,0-2.287-.036c-17.106-.527-31.03-9.557-39.208-25.424q-.536-1.04-1.029-2.1c-8.286,1.878-17.272.873-26.213-3.12-17.861-7.977-29.993-25.359-35.085-50.268a133.7,133.7,0,0,1-2.356-34.848l9.039.8a126.8,126.8,0,0,0,2.249,32.444c4.567,22.119,14.611,36.785,29.852,43.592,7.52,3.359,13.985,3.792,19.317,2.8-3.622-12.7-2.8-25.885,2.662-34.073a16.439,16.439,0,0,1,15.491-7.722c6.78.554,11.815,4.225,13.814,10.073,3.118,9.126-1.684,22.2-11.419,31.09a39.944,39.944,0,0,1-8.784,6.126q.256.527.526,1.052c3.822,7.416,12.987,19.943,31.422,20.511,12.4.381,21.248-2.738,26.3-9.276,9.535-12.351,3.536-33.21,3.474-33.419l8.7-2.567c.305,1.036,7.34,25.552-4.995,41.531C975.387,2382.62,964.806,2386.933,950.5,2386.933Zm-29.052-68.945a7.446,7.446,0,0,0-6.456,3.744c-3.462,5.19-4.533,15.33-1.658,25.944a31.261,31.261,0,0,0,5.876-4.238c7.769-7.093,10.652-16.479,8.951-21.456-.525-1.535-1.714-3.616-5.966-3.963Q921.812,2317.988,921.445,2317.988Z" transform="translate(-367.878 -1578.958)" fill="url(#linear-gradient-12)"/>
    <g id="Group_150542" data-name="Group 150542" transform="translate(430.798 615.009)">
      <path id="Path_262217" data-name="Path 262217" d="M526.64,1894.14l6.314,36.832a27.934,27.934,0,0,0,.812,3.356.007.007,0,0,1,0-.007s.046.144.135.4a27.509,27.509,0,0,0,2.569,5.715c4.145,7.57,13.6,19.261,31.956,17.5-1.684-1.376-3.454-2.848-5.238-4.2.591-.063,1.165-.239,1.759-.341l9.422-1.615A27.424,27.424,0,0,0,596.9,1920.01l-6.314-36.832Z" transform="translate(-522.725 -1856.674)" fill="url(#linear-gradient-13)"/>
      <path id="Path_262218" data-name="Path 262218" d="M526.64,1894.14l6.314,36.832a27.934,27.934,0,0,0,.812,3.356.007.007,0,0,1,0-.007s.046.144.135.4a27.509,27.509,0,0,0,2.569,5.715c4.145,7.57,13.6,19.261,31.956,17.5-1.684-1.376-3.454-2.848-5.238-4.2.591-.063,1.165-.239,1.759-.341l9.422-1.615A27.424,27.424,0,0,0,596.9,1920.01l-6.314-36.832Z" transform="translate(-522.725 -1856.674)" fill="#29398a" opacity="0.2" style="mix-blend-mode: multiply;isolation: isolate"/>
      <g id="Group_150534" data-name="Group 150534" transform="translate(8.954 0)">
        <path id="Path_262219" data-name="Path 262219" d="M568.295,1730.548l-.1.018-.1.018a3.492,3.492,0,0,0-2.8,4.164l7.1,41.435a3.625,3.625,0,0,0,4.054,3.142l.1-.018.1-.018a3.724,3.724,0,0,0,2.894-4.333l-7.1-41.435A3.59,3.59,0,0,0,568.295,1730.548Z" transform="translate(-565.228 -1723.931)" fill="url(#linear-gradient-14)"/>
        <path id="Path_262220" data-name="Path 262220" d="M859.672,1680.286l-.1.018-.1.018a3.729,3.729,0,0,0-3.077,4.211l7.1,41.435a3.86,3.86,0,0,0,4.33,3.095l.1-.018.1-.018a3.874,3.874,0,0,0,3.066-4.363l-7.1-41.435A3.743,3.743,0,0,0,859.672,1680.286Z" transform="translate(-818.321 -1680.233)" fill="url(#linear-gradient-15)"/>
      </g>
      <g id="Group_150535" data-name="Group 150535" transform="translate(19.961 39.662)">
        <path id="Path_262221" data-name="Path 262221" d="M685.318,1986.2a2.722,2.722,0,0,1-2.223,3.143l-30.407,5.213a2.722,2.722,0,0,1-3.143-2.223h0a2.722,2.722,0,0,1,2.223-3.143l30.407-5.213a2.722,2.722,0,0,1,3.143,2.223Z" transform="translate(-649.505 -1983.933)" opacity="0.8" fill="url(#linear-gradient-16)" style="mix-blend-mode: soft-light;isolation: isolate"/>
        <path id="Path_262222" data-name="Path 262222" d="M701.754,2082.069a2.722,2.722,0,0,1-2.223,3.143l-30.407,5.213a2.722,2.722,0,0,1-3.143-2.223h0a2.722,2.722,0,0,1,2.223-3.143l30.407-5.213a2.722,2.722,0,0,1,3.143,2.223Z" transform="translate(-663.795 -2067.286)" opacity="0.8" fill="url(#linear-gradient-17)" style="mix-blend-mode: soft-light;isolation: isolate"/>
        <path id="Path_262223" data-name="Path 262223" d="M718.19,2177.942a2.722,2.722,0,0,1-2.223,3.143L685.56,2186.3a2.722,2.722,0,0,1-3.143-2.223h0a2.722,2.722,0,0,1,2.223-3.143l30.407-5.213a2.723,2.723,0,0,1,3.143,2.223Z" transform="translate(-678.084 -2150.638)" opacity="0.8" fill="url(#linear-gradient-18)" style="mix-blend-mode: soft-light;isolation: isolate"/>
      </g>
      <path id="Path_262224" data-name="Path 262224" d="M572.8,1864.242a46.109,46.109,0,0,0-6.336-4.514l.006.045a4.222,4.222,0,0,0-2.89-.491l-63.348,10.86a4.2,4.2,0,0,0-3.509,4.852l.015.012a2.15,2.15,0,0,0,.219.723h0a.583.583,0,0,0,0,.064,4.359,4.359,0,0,0,.72,1.24,9.368,9.368,0,0,0,2.982,2.62s0,.009.007.011a4.3,4.3,0,0,0,.677.4c2.3,1.393,3.2,2.512,5.023,2.551.854.018,13.145-3.349,26.945-7.1l33.948-5.82a4.339,4.339,0,0,0,3.507-4.8C572.08,1864.523,572.8,1864.242,572.8,1864.242Z" transform="translate(-496.662 -1835.839)" fill="#29398a"/>
      <path id="Path_262225" data-name="Path 262225" d="M578.195,1731.525s7.594,2.848,8.124,6.672c-4.778.219-3.594,23.242-3.594,23.242l-5.606-3.965S571.067,1730.666,578.195,1731.525Z" transform="translate(-564.528 -1724.809)" fill="url(#linear-gradient-19)"/>
      <path id="Path_262226" data-name="Path 262226" d="M871.346,1681.27s7.595,2.848,8.124,6.673c-4.778.219-3.594,23.242-3.594,23.242l-5.606-3.965S864.218,1680.41,871.346,1681.27Z" transform="translate(-819.395 -1681.116)" fill="url(#linear-gradient-20)"/>
      <g id="Group_150541" data-name="Group 150541" transform="translate(5.116 4.131)">
        <g id="Group_150538" data-name="Group 150538" transform="translate(9.159)">
          <g id="Group_150536" data-name="Group 150536" transform="translate(0 6.526)">
            <path id="Path_262227" data-name="Path 262227" d="M620.3,1806.95a3.63,3.63,0,0,1-2.964,4.191h0a3.63,3.63,0,0,1-4.191-2.964l-7.129-41.586a3.63,3.63,0,0,1,2.964-4.191h0a3.63,3.63,0,0,1,4.191,2.964Z" transform="translate(-605.967 -1762.28)" fill="url(#linear-gradient-21)"/>
            <path id="Path_262228" data-name="Path 262228" d="M636.068,1764.712l7.1,41.435a3.569,3.569,0,0,1-3.081,4.042l.089-.015L631.9,1761.88l-.089.015A3.6,3.6,0,0,1,636.068,1764.712Z" transform="translate(-628.436 -1761.838)" opacity="0.3" fill="url(#linear-gradient-22)"/>
          </g>
          <g id="Group_150537" data-name="Group 150537" transform="translate(38.433)">
            <path id="Path_262229" data-name="Path 262229" d="M907.641,1714.882a3.63,3.63,0,0,0-4.191-2.964h0a3.63,3.63,0,0,0-2.964,4.191l7.129,41.586a3.63,3.63,0,0,0,4.191,2.964h0a3.63,3.63,0,0,0,2.964-4.191Z" transform="translate(-900.411 -1711.865)" fill="url(#linear-gradient-23)"/>
            <path id="Path_262230" data-name="Path 262230" d="M900.313,1716.327l7.1,41.435a3.473,3.473,0,0,0,4.143,2.8l.02,0-8.279-48.294-.02,0A3.5,3.5,0,0,0,900.313,1716.327Z" transform="translate(-900.26 -1712.216)" opacity="0.3" fill="url(#linear-gradient-24)"/>
          </g>
        </g>
        <path id="Path_262231" data-name="Path 262231" d="M570.762,1925.347l6.291,36.7a27.56,27.56,0,0,0,31.878,22.582l9.421-1.615A27.654,27.654,0,0,0,641,1951.083l-6.291-36.7Z" transform="translate(-566.201 -1887.937)" fill="#29398a"/>
        <path id="Rectangle_293824" data-name="Rectangle 293824" d="M4.31,0H68.733a4.31,4.31,0,0,1,4.31,4.31v0a4.31,4.31,0,0,1-4.31,4.31H4.31A4.31,4.31,0,0,1,0,4.31v0A4.31,4.31,0,0,1,4.31,0Z" transform="translate(0 34.97) rotate(-9.728)" fill="#29398a"/>
        <g id="Group_150539" data-name="Group 150539" transform="translate(20.607 39.606)">
          <path id="Path_262232" data-name="Path 262232" d="M729.44,2017.4a2.722,2.722,0,0,1-2.223,3.143l-30.407,5.213a2.722,2.722,0,0,1-3.143-2.223h0a2.722,2.722,0,0,1,2.223-3.143l30.407-5.213a2.722,2.722,0,0,1,3.143,2.223Z" transform="translate(-693.627 -2015.141)" opacity="0.8" fill="url(#linear-gradient-25)" style="mix-blend-mode: soft-light;isolation: isolate"/>
          <path id="Path_262233" data-name="Path 262233" d="M745.875,2113.277a2.722,2.722,0,0,1-2.223,3.143l-30.407,5.213a2.722,2.722,0,0,1-3.143-2.223h0a2.722,2.722,0,0,1,2.223-3.143l30.407-5.213a2.722,2.722,0,0,1,3.143,2.223Z" transform="translate(-707.916 -2098.494)" opacity="0.8" fill="url(#linear-gradient-26)" style="mix-blend-mode: soft-light;isolation: isolate"/>
          <path id="Path_262234" data-name="Path 262234" d="M762.311,2209.15a2.722,2.722,0,0,1-2.223,3.143l-30.407,5.213a2.722,2.722,0,0,1-3.143-2.223h0a2.722,2.722,0,0,1,2.223-3.143l30.407-5.213a2.723,2.723,0,0,1,3.143,2.224Z" transform="translate(-722.205 -2181.846)" opacity="0.8" fill="url(#linear-gradient-27)" style="mix-blend-mode: soft-light;isolation: isolate"/>
        </g>
        <g id="Group_150540" data-name="Group 150540" transform="translate(20.623 42.645)">
          <path id="Path_262235" data-name="Path 262235" d="M729.506,2038.407a2.771,2.771,0,0,1-2.308,2.389l-30.185,5.175a2.743,2.743,0,0,1-3.222-2.218,2.745,2.745,0,0,1,1.519-2.923,2.43,2.43,0,0,0,.009.785,2.772,2.772,0,0,0,3.228,2.252l30.186-5.175A2.68,2.68,0,0,0,729.506,2038.407Z" transform="translate(-693.75 -2038.407)" opacity="0.8" fill="url(#linear-gradient-28)" style="mix-blend-mode: soft-light;isolation: isolate"/>
          <path id="Path_262236" data-name="Path 262236" d="M745.939,2134.28a2.77,2.77,0,0,1-2.307,2.388l-30.186,5.175a2.745,2.745,0,0,1-3.223-2.22,2.746,2.746,0,0,1,1.518-2.925,2.448,2.448,0,0,0,.01.786,2.773,2.773,0,0,0,3.228,2.254l30.186-5.175A2.669,2.669,0,0,0,745.939,2134.28Z" transform="translate(-708.037 -2121.76)" opacity="0.8" fill="url(#linear-gradient-29)" style="mix-blend-mode: soft-light;isolation: isolate"/>
          <path id="Path_262237" data-name="Path 262237" d="M762.371,2230.153a2.771,2.771,0,0,1-2.307,2.389l-30.185,5.175a2.746,2.746,0,0,1-3.223-2.222,2.749,2.749,0,0,1,1.518-2.927,2.455,2.455,0,0,0,.01.789,2.775,2.775,0,0,0,3.229,2.257l30.186-5.175A2.678,2.678,0,0,0,762.371,2230.153Z" transform="translate(-722.323 -2205.112)" opacity="0.8" fill="url(#linear-gradient-30)" style="mix-blend-mode: soft-light;isolation: isolate"/>
        </g>
      </g>
    </g>
    <g id="Group_150543" data-name="Group 150543" transform="translate(520.289 504.09)">
      <path id="Path_262238" data-name="Path 262238" d="M1369.188,920.058c0-49.242-41.923-89.16-93.637-89.16s-93.637,39.918-93.637,89.16c0,29.883,15.441,56.332,39.14,72.509a36.78,36.78,0,0,1,16.152,30.348v6.823a26.843,26.843,0,0,0,26.843,26.843h23.005a26.843,26.843,0,0,0,26.843-26.843v-6.823a36.781,36.781,0,0,1,16.152-30.348C1353.747,976.39,1369.188,949.941,1369.188,920.058Z" transform="translate(-1181.913 -830.898)" fill="#f4f7fa" opacity="0.75"/>
      <path id="Path_262239" data-name="Path 262239" d="M1781.409,2790.2c0,6.073-9.3,11-20.771,11s-20.771-4.924-20.771-11,9.3-11,20.771-11S1781.409,2784.129,1781.409,2790.2Z" transform="translate(-1667 -2524.767)" fill="url(#linear-gradient-31)"/>
      <path id="Path_262240" data-name="Path 262240" d="M1687.6,2712.986v11.23a9.866,9.866,0,0,0,5.592,8.917c4.761,2.27,12.677,4.762,24.181,4.467,9.333-.239,15.419-1.764,19.289-3.364a10.03,10.03,0,0,0,6.134-9.289v-6.214Z" transform="translate(-1621.557 -2467.195)" fill="url(#linear-gradient-32)"/>
      <path id="Path_262241" data-name="Path 262241" d="M1687.6,2722.821a10.905,10.905,0,0,0,2.91,2.033c5.341,2.547,40.328,8.239,48.767,5.068a11.358,11.358,0,0,0,2.946-1.627,10.185,10.185,0,0,0,.572-3.35v-6.214l-55.195-5.748Z" transform="translate(-1621.557 -2467.192)" opacity="0.3" fill="url(#linear-gradient-12)" style="mix-blend-mode: multiply;isolation: isolate"/>
      <path id="Path_262242" data-name="Path 262242" d="M1667.657,2654.284a5.268,5.268,0,0,0-5.814,5.24v.318a11.068,11.068,0,0,0,6.273,10c5.341,2.547,40.328,8.238,48.767,5.068a10.2,10.2,0,0,0,6.882-9.783v-.256a5.268,5.268,0,0,0-4.723-5.24Z" transform="translate(-1599.167 -2416.134)" fill="url(#linear-gradient-34)"/>
      <path id="Path_262243" data-name="Path 262243" d="M1724.971,2659.636l-51.385-5.351a5.258,5.258,0,0,0-4.923,2.319,10.994,10.994,0,0,0,5.383,5.645c5.341,2.547,41.818,8.981,48.767,5.706a12.056,12.056,0,0,0,5.964-6.043A5.256,5.256,0,0,0,1724.971,2659.636Z" transform="translate(-1605.095 -2416.135)" opacity="0.3" fill="url(#linear-gradient-12)" style="mix-blend-mode: multiply;isolation: isolate"/>
      <path id="Path_262244" data-name="Path 262244" d="M1665.646,2515.157a3.8,3.8,0,0,0-3.8,3.8v8.8a11.067,11.067,0,0,0,6.273,10c5.341,2.548,41.818,8.981,48.767,5.707a11.605,11.605,0,0,0,6.882-10.421V2518.96a3.8,3.8,0,0,0-3.8-3.8Z" transform="translate(-1599.167 -2295.201)" fill="url(#linear-gradient-12)"/>
      <path id="Path_262245" data-name="Path 262245" d="M1728.1,2488.6c0,3.943-13.519,7.138-30.2,7.138s-30.2-3.2-30.2-7.138,13.519-7.139,30.2-7.139S1728.1,2484.654,1728.1,2488.6Z" transform="translate(-1604.263 -2265.902)" fill="url(#linear-gradient-37)"/>
      <path id="Path_262246" data-name="Path 262246" d="M1369.188,920.058c0-49.242-41.923-89.16-93.637-89.16s-93.637,39.918-93.637,89.16c0,29.883,15.441,56.332,39.14,72.509a36.78,36.78,0,0,1,16.152,30.348v6.823a26.843,26.843,0,0,0,26.843,26.843h23.005a26.843,26.843,0,0,0,26.843-26.843v-6.823a36.781,36.781,0,0,1,16.152-30.348C1353.747,976.39,1369.188,949.941,1369.188,920.058Z" transform="translate(-1181.913 -830.898)" fill="#fda929"/>
      <ellipse id="Ellipse_6175" data-name="Ellipse 6175" cx="22.094" cy="5.224" rx="22.094" ry="5.224" transform="translate(71.543 211.841)" fill="#f4f7fa" opacity="0.5" style="mix-blend-mode: soft-light;isolation: isolate"/>
      <path id="Path_262247" data-name="Path 262247" d="M1277.25,1086.913c2.006-34.365,59.939-42.407,59.691-73.1-.153-18.9-23.174-32.939-28.09-35.751-36.223-20.717-80.808,3.207-90.016-13.726-2.293-4.216-1.218-8.8-.605-11.418a24.487,24.487,0,0,1,6.127-10.994c-25.556,15.92-42.444,43.41-42.444,74.66,0,29.883,15.441,56.332,39.14,72.509a36.78,36.78,0,0,1,16.152,30.348v6.823a26.843,26.843,0,0,0,26.843,26.843h23.005a26.843,26.843,0,0,0,26.843-26.843v-5.455a17.617,17.617,0,0,1-10.79,4.086C1289.269,1124.785,1276.252,1104.015,1277.25,1086.913Z" transform="translate(-1181.913 -927.427)" opacity="0.3" fill="url(#linear-gradient-38)" style="mix-blend-mode: multiply;isolation: isolate"/>
      <ellipse id="Ellipse_6176" data-name="Ellipse 6176" cx="80.577" cy="77.708" rx="80.577" ry="77.708" transform="translate(14.558 14.928)" fill="#f4f7fa" opacity="0.44" style="mix-blend-mode: soft-light;isolation: isolate"/>
      <path id="Path_262248" data-name="Path 262248" d="M1715.12,1078.8l-62.713,69.044,25.777-.16-20.9,51.937,62.593-69.414-23.264.065Z" transform="translate(-1590.963 -1046.422)" fill="#fff"/>
    </g>
    <g id="Group_150548" data-name="Group 150548" transform="translate(479.984 474.758)">
      <g id="Group_150545" data-name="Group 150545" transform="translate(0 0)">
        <g id="Group_150544" data-name="Group 150544" transform="translate(0 102.46)">
          <path id="Path_262249" data-name="Path 262249" d="M917.937,1390.852l-16.495,28.581L873.29,1404.45l4.946,18.484,28.149,14.97,16.5-28.568Z" transform="translate(-873.29 -1390.852)" fill="#20cb7d"/>
        </g>
        <path id="Path_262250" data-name="Path 262250" d="M1242.428,664.695l-21.669-8.723a91.288,91.288,0,0,0-22.792-21.043c-44.3-28.785-105.772-15.42-137.024,29.788a98.686,98.686,0,0,0-17.844,62.192,95.122,95.122,0,0,0,1.592,12.683,7.082,7.082,0,0,1-5.417,8.1,6.459,6.459,0,0,1-7.956-4.969q-.885-4.6-1.386-9.2c-2.844-26.482,4.074-53.163,19.892-76.041,35.575-51.464,105.551-66.678,155.985-33.911a105.121,105.121,0,0,1,17.062,13.813A103.18,103.18,0,0,1,1242.428,664.695Z" transform="translate(-1008.933 -606.293)" fill="#20cb7d"/>
      </g>
      <g id="Group_150547" data-name="Group 150547" transform="translate(34.805 82.255)">
        <g id="Group_150546" data-name="Group 150546" transform="translate(183.54)">
          <path id="Path_262251" data-name="Path 262251" d="M2550.163,1283.189l16.495-28.581,28.152,14.983-4.946-18.484-28.149-14.97-16.5,28.568Z" transform="translate(-2545.217 -1236.137)" fill="#7453d8"/>
        </g>
        <path id="Path_262252" data-name="Path 262252" d="M1332.052,1387.2c-35.582,51.464-105.558,66.671-155.991,33.9A104.682,104.682,0,0,1,1159,1407.3a103.317,103.317,0,0,1-19.2-26.589l22.935,10.06a91.35,91.35,0,0,0,21.171,18.989c44.3,28.785,105.765,15.42,137.017-29.788a98.7,98.7,0,0,0,17.844-62.2,95.14,95.14,0,0,0-1.593-12.676,7.082,7.082,0,0,1,5.417-8.1,6.459,6.459,0,0,1,7.955,4.969q.885,4.6,1.386,9.2C1354.781,1337.642,1347.863,1364.323,1332.052,1387.2Z" transform="translate(-1139.803 -1288.881)" fill="#7453d8"/>
      </g>
    </g>
  </g>
</svg>
