<svg xmlns="http://www.w3.org/2000/svg" width="180" height="180" viewBox="0 0 180 180">
  <g id="_4" data-name="4" transform="translate(-365.176 -1608.691)">
    <circle id="Ellipse_6159" data-name="Ellipse 6159" cx="90" cy="90" r="90" transform="translate(365.176 1608.691)" fill="#fff"/>
    <g id="nuclear" transform="translate(370 1564.928)">
      <path id="Path_266853" data-name="Path 266853" d="M10,366H167.594v19.219H10Z" transform="translate(-6.797 -197.109)" fill="#20cb7d"/>
      <path id="Path_266854" data-name="Path 266854" d="M167.594,175.688H10V146.859A60.859,60.859,0,0,1,70.859,86h35.875a60.859,60.859,0,0,1,60.859,60.859Z" transform="translate(-6.797 -6.797)" fill="#cec3f1"/>
      <path id="Path_266855" data-name="Path 266855" d="M176,286h25.625v44.844H176Z" transform="translate(-119.625 -142.734)" fill="#dfe1ee"/>
      <path id="Path_266856" data-name="Path 266856" d="M256,286h25.625v44.844H256Z" transform="translate(-174 -142.734)" fill="#dfe1ee"/>
      <circle id="Ellipse_6354" data-name="Ellipse 6354" cx="8" cy="8" r="8" transform="translate(74 104.312)" fill="#fda929"/>
      <circle id="Ellipse_6355" data-name="Ellipse 6355" cx="3.203" cy="3.203" r="3.203" transform="translate(10.441 102.762)"/>
      <path id="Path_266857" data-name="Path 266857" d="M162.671,127.156A63.964,63.964,0,0,0,99.937,76H64.056A63.884,63.884,0,0,0,20.894,92.727a3.2,3.2,0,0,0,4.318,4.734A57.536,57.536,0,0,1,64.062,82.406H99.937a57.655,57.655,0,0,1,57.656,57.656v25.625H110.828V143.266a3.2,3.2,0,0,0-3.2-3.2H56.375a3.2,3.2,0,0,0-3.2,3.2v22.422H6.406V140.063a57.482,57.482,0,0,1,3.636-20.2,3.2,3.2,0,1,0-6-2.245A63.8,63.8,0,0,0,0,140.063v48.047a3.2,3.2,0,0,0,3.2,3.2H160.8a3.2,3.2,0,0,0,3.2-3.2V140.063a63.648,63.648,0,0,0-1.329-12.907ZM6.406,172.094H53.172v12.813H6.406Zm53.172-25.625H78.8v38.438H59.578ZM85.2,184.906V146.469h19.219v38.438Zm72.391,0H110.828V172.094h46.766Z"/>
      <path id="Path_266858" data-name="Path 266858" d="M243.422,165.211a11.211,11.211,0,1,0-11.211,11.211A11.224,11.224,0,0,0,243.422,165.211Zm-16.016,0a4.8,4.8,0,1,1,4.8,4.8A4.81,4.81,0,0,1,227.406,165.211Z" transform="translate(-150.211 -53.016)"/>
    </g>
  </g>
</svg>
