<svg xmlns="http://www.w3.org/2000/svg" xmlns:xlink="http://www.w3.org/1999/xlink" width="400" height="296.095" viewBox="0 0 400 296.095">
  <defs>
    <linearGradient id="linear-gradient" x1="0.5" x2="0.5" y2="1" gradientUnits="objectBoundingBox">
      <stop offset="0" stop-color="#d8ccec"/>
      <stop offset="1" stop-color="#c3fff8"/>
    </linearGradient>
  </defs>
  <g id="_4" data-name="4" transform="translate(-1020 -1468)">
    <rect id="BG" width="400" height="296.095" rx="14" transform="translate(1020 1468)" fill="url(#linear-gradient)"/>
    <circle id="Ellipse_6321" data-name="Ellipse 6321" cx="113.5" cy="113.5" r="113.5" transform="translate(1105 1502.882)" fill="#fff"/>
    <g id="Group_156796" data-name="Group 156796" transform="translate(1105 1534.384)">
      <rect id="Rectangle_294657" data-name="Rectangle 294657" width="9.672" height="67.855" transform="translate(106.78 86.423)" fill="#131a24"/>
      <path id="Path_265686" data-name="Path 265686" d="M-1311.763-713.727a10.706,10.706,0,0,1,.594-.891c3.754-5.118,12.749-7.757,23.247-7.757s19.49,2.639,23.244,7.757a10.706,10.706,0,0,1,.594.891l26.591.891v5.444h-26.591a17.36,17.36,0,0,0-7.719-6.335,38.52,38.52,0,0,0-16.12-3.28,38.558,38.558,0,0,0-16.125,3.28,17.367,17.367,0,0,0-7.716,6.335h-92.677l-3.009-6.335Z" transform="translate(1460.107 813.855)" fill="#131a24"/>
      <g id="Group_156794" data-name="Group 156794" transform="translate(104.154 86.423)">
        <path id="Path_265687" data-name="Path 265687" d="M-1291.76-713.613v-10.5c-14.107,23.62-34.82,37.774-57.12,37.774s-43.013-14.154-57.12-37.774v10.5c14.107,23.623,34.817,37.776,57.12,37.776S-1305.866-689.99-1291.76-713.613Z" transform="translate(1406 724.111)" fill="#131a24"/>
      </g>
      <path id="Path_265688" data-name="Path 265688" d="M-1319.959-753.781c49.43,0,89.5,40.625,89.5,90.743a92.353,92.353,0,0,1-.857,12.551h-31.6c-3.326-5.584-12.744-9.613-23.838-9.613s-20.515,4.029-23.841,9.613h-98.019a92.868,92.868,0,0,1-.854-12.551C-1409.461-713.156-1369.393-753.781-1319.959-753.781Z" transform="translate(1458.932 753.781)" fill="#ffba1e"/>
      <path id="Path_265689" data-name="Path 265689" d="M-1410.213-720.494a17.359,17.359,0,0,1,7.719,6.335h31.473c.041,0,.084,0,.122,0a3.166,3.166,0,0,0,3.047-3.163,3.151,3.151,0,0,0-.929-2.24,3.176,3.176,0,0,0-1.783-.9c-.058-.009-.116-.015-.178-.021-.09-.006-.183-.012-.279-.012Z" transform="translate(1598.518 817.453)" fill="#f0741c"/>
      <path id="Path_265690" data-name="Path 265690" d="M-1384.6-717.325a3.166,3.166,0,0,0,3.044,3.163c.041,0,.084,0,.125,0h97.894a17.366,17.366,0,0,1,7.716-6.335h-105.61c-.079,0-.16.006-.242.012a2.8,2.8,0,0,0-.521.082A3.172,3.172,0,0,0-1384.6-717.325Z" transform="translate(1431.881 817.453)" fill="#f0741c"/>
      <g id="Group_156795" data-name="Group 156795" transform="translate(0 96.959)">
        <path id="Path_265691" data-name="Path 265691" d="M-1345.937-717.835q24.725-1.848,49.494-2.659v6.335q-24.765.817-49.494,2.662a2.892,2.892,0,0,1-3.164-2.924A3.482,3.482,0,0,1-1345.937-717.835Z" transform="translate(1349.101 720.494)" fill="#f0741c"/>
      </g>
      <path id="Path_265692" data-name="Path 265692" d="M-1370.564-714.147a3.559,3.559,0,0,0,3.56,3.559h0a3.559,3.559,0,0,0,3.559-3.559v-12.621a3.559,3.559,0,0,0-3.559-3.56h0a3.559,3.559,0,0,0-3.56,3.56Z" transform="translate(1478.621 798.643)" fill="#f0741c"/>
      <path id="Path_265693" data-name="Path 265693" d="M-1366.3-714.147a3.559,3.559,0,0,0,3.56,3.559h0a3.559,3.559,0,0,0,3.559-3.559v-12.621a3.559,3.559,0,0,0-3.559-3.56h0a3.559,3.559,0,0,0-3.56,3.56Z" transform="translate(1461.929 798.643)" fill="#f0741c"/>
      <path id="Path_265694" data-name="Path 265694" d="M-1361.359-714.147a3.559,3.559,0,0,0,3.559,3.559h0a3.561,3.561,0,0,0,3.56-3.559v-12.621a3.561,3.561,0,0,0-3.56-3.56h0a3.559,3.559,0,0,0-3.559,3.56Z" transform="translate(1442.604 798.643)" fill="#f0741c"/>
      <path id="Path_265695" data-name="Path 265695" d="M-1366.153-714.817c.18-.3.379-.6.594-.891,3.754-5.118,12.749-7.754,23.247-7.754s19.49,2.636,23.244,7.754c.216.294.414.588.594.891l22.371.891v5.444h-22.371a17.359,17.359,0,0,0-7.719-6.335,38.57,38.57,0,0,0-16.12-3.277,38.608,38.608,0,0,0-16.125,3.277,17.366,17.366,0,0,0-7.716,6.335H-1406v-5.444Z" transform="translate(1514.497 811.776)" fill="#f0741c"/>
      <path id="Path_265696" data-name="Path 265696" d="M-1401.4-730.544a9.889,9.889,0,0,0,9.889,9.889h11.412a9.892,9.892,0,0,0,9.892-9.889h0a9.891,9.891,0,0,0-9.892-9.889h-11.412a9.889,9.889,0,0,0-9.889,9.889Z" transform="translate(1575.21 779.313)" fill="#f0741c"/>
    </g>
  </g>
</svg>
