<svg xmlns="http://www.w3.org/2000/svg" width="180" height="180" viewBox="0 0 180 180">
  <g id="_5" data-name="5" transform="translate(-716 -1608.691)">
    <path id="Path_266731" data-name="Path 266731" d="M90,0A90,90,0,1,1,0,90,90,90,0,0,1,90,0Z" transform="translate(716 1608.691)" fill="#eef8ff"/>
    <g id="piso" transform="translate(723 1578.664)">
      <path id="Path_266889" data-name="Path 266889" d="M164.185,103.54l1.054-29.371H142.353l-3.815,29.371Z" transform="translate(-93.783 -5.077)" fill="#dfe1ee"/>
      <path id="Path_266890" data-name="Path 266890" d="M242.527,103.54l-1.054-29.371h-22.49l-1.054,29.371Z" transform="translate(-147.525 -5.077)" fill="#7453d8"/>
      <path id="Path_266891" data-name="Path 266891" d="M389.659,103.54l-6.047-29.371h-21.96l3.815,29.371Z" transform="translate(-244.819 -5.077)" fill="#7453d8"/>
      <path id="Path_266892" data-name="Path 266892" d="M414.76,103.54h6.877L415.59,74.169h-6.7Z" transform="translate(-276.796 -5.077)" fill="#5c42ac"/>
      <path id="Path_266893" data-name="Path 266893" d="M317.51,103.54l-3.815-29.371H290.808l1.054,29.371Z" transform="translate(-196.861 -5.077)" fill="#dfe1ee"/>
      <path id="Path_266894" data-name="Path 266894" d="M91.66,74.169H69.7L63.653,103.54H87.845Z" transform="translate(-43.09 -5.077)" fill="#7453d8"/>
      <path id="Path_266895" data-name="Path 266895" d="M377.277,194.455H403.7l-6.047-29.371H373.462Z" transform="translate(-252.813 -66.622)" fill="#dfe1ee"/>
      <path id="Path_266896" data-name="Path 266896" d="M427.059,165.084l5.87,29.371h7.054l-6.047-29.371Z" transform="translate(-289.096 -66.622)" fill="#aaa"/>
      <path id="Path_266897" data-name="Path 266897" d="M156.191,165.084H130.543l-3.815,29.371h28.408Z" transform="translate(-85.788 -66.622)" fill="#7453d8"/>
      <path id="Path_266898" data-name="Path 266898" d="M241.371,194.455l-1.054-29.371h-24.6l-1.055,29.371Z" transform="translate(-145.315 -66.622)" fill="#dfe1ee"/>
      <path id="Path_266899" data-name="Path 266899" d="M323.534,194.455l-3.815-29.371H294.072l1.054,29.371Z" transform="translate(-199.071 -66.622)" fill="#7453d8"/>
      <path id="Path_266900" data-name="Path 266900" d="M75.174,165.084H50.982l-6.047,29.371H71.359Z" transform="translate(-30.419 -66.622)" fill="#dfe1ee"/>
      <path id="Path_266901" data-name="Path 266901" d="M212.453,256,211.4,285.371h28.817L239.161,256Z" transform="translate(-143.106 -128.167)" fill="#7453d8"/>
      <path id="Path_266902" data-name="Path 266902" d="M118.734,256l-3.815,29.371h31.168L147.142,256Z" transform="translate(-77.794 -128.167)" fill="#dfe1ee"/>
      <path id="Path_266903" data-name="Path 266903" d="M297.336,256l1.055,29.371h31.168L325.744,256Z" transform="translate(-201.28 -128.167)" fill="#dfe1ee"/>
      <path id="Path_266904" data-name="Path 266904" d="M58.688,256H32.265l-6.047,29.371H54.873Z" transform="translate(-17.748 -128.167)" fill="#7453d8"/>
      <path id="Path_266905" data-name="Path 266905" d="M389.086,285.371h28.655L411.695,256H385.271Z" transform="translate(-260.807 -128.167)" fill="#7453d8"/>
      <path id="Path_266906" data-name="Path 266906" d="M445.228,256l5.87,29.371h7.232L452.282,256Z" transform="translate(-301.395 -128.167)" fill="#5c42ac"/>
      <path id="Path_266907" data-name="Path 266907" d="M13.547,346.915,7.5,376.286H38.387L42.2,346.915Z" transform="translate(-5.077 -189.711)" fill="#dfe1ee"/>
      <path id="Path_266908" data-name="Path 266908" d="M400.9,376.286h30.887l-6.047-29.371H397.081Z" transform="translate(-268.802 -189.711)" fill="#dfe1ee"/>
      <path id="Path_266909" data-name="Path 266909" d="M470.629,346.915H463.4l5.87,29.371h7.409Z" transform="translate(-313.695 -189.711)" fill="#aaa"/>
      <path id="Path_266910" data-name="Path 266910" d="M331.769,346.915H300.6l1.054,29.371h33.929Z" transform="translate(-203.491 -189.711)" fill="#7453d8"/>
      <path id="Path_266911" data-name="Path 266911" d="M106.924,346.915l-3.815,29.371h33.929l1.054-29.371Z" transform="translate(-69.799 -189.711)" fill="#7453d8"/>
      <path id="Path_266912" data-name="Path 266912" d="M209.189,346.915l-1.054,29.371h30.926l-1.054-29.371Z" transform="translate(-140.896 -189.711)" fill="#dfe1ee"/>
      <path id="Path_266913" data-name="Path 266913" d="M165.354,186.086l-6.047-29.371-1.276-6.2a2.423,2.423,0,1,0-4.746.977l.676,3.286H130.407l-3.186-24.525h21.691l2.71,13.163a2.423,2.423,0,0,0,4.746-.977l-3.108-15.1-6.047-29.371L141.167,68.6a2.423,2.423,0,0,0-2.373-1.934H26.61A2.423,2.423,0,0,0,24.237,68.6L18.19,97.974l-2.931,14.235a2.423,2.423,0,0,0,4.746.977l2.532-12.3H42L38.811,125.41H17.489l.854-4.148a2.423,2.423,0,1,0-4.746-.977l-1.453,7.059L6.1,156.715.05,186.086A2.423,2.423,0,0,0,2.422,189H162.981a2.424,2.424,0,0,0,2.373-2.912ZM50.7,71.515H68.946L68.065,96.04H47.513Zm64.006,0L117.89,96.04H97.339l-.881-24.525ZM46.884,100.885H67.891L67.01,125.41H43.7C44.653,118.059,45.931,108.216,46.884,100.885Zm71.636,0,3.186,24.525H98.393l-.881-24.525Zm-25.856,0,.881,24.525H71.859l.881-24.525Zm-49.6,29.371H66.836l-.881,24.525H39.883c.984-7.576,2.284-17.584,3.186-24.525Zm28.617,0H93.718l.881,24.525H70.805Zm27.762,24.525-.881-24.525h23.768l3.186,24.525ZM92.49,96.04H72.914l.881-24.525H91.609ZM39.254,159.627H65.782L64.9,184.152H36.068c.955-7.352,2.233-17.195,3.186-24.525Zm31.377,0H94.773l.881,24.525h-25.9Zm28.991,0H126.15l3.186,24.525H100.5Zm26.97-34.216-3.186-24.525h19.459l5.049,24.525Zm15.276-29.371H122.777l-3.186-24.525h17.227ZM28.585,71.515H45.812L42.627,96.039H23.536ZM16.491,130.256H38.182L35,154.781H11.442Zm-6.047,29.371H34.367c-.955,7.352-2.234,17.195-3.186,24.525H5.4Zm123.778,24.525-3.186-24.525h23.923l5.049,24.525Z"/>
    </g>
  </g>
</svg>
