<svg xmlns="http://www.w3.org/2000/svg" xmlns:xlink="http://www.w3.org/1999/xlink" width="400" height="296.095" viewBox="0 0 400 296.095">
  <defs>
    <linearGradient id="linear-gradient" x1="0.5" x2="0.5" y2="1" gradientUnits="objectBoundingBox">
      <stop offset="0" stop-color="#d8ccec"/>
      <stop offset="1" stop-color="#c3fff8"/>
    </linearGradient>
  </defs>
  <g id="_5" data-name="5" transform="translate(-180 -1830)">
    <rect id="BG" width="400" height="296.095" rx="14" transform="translate(180 1830)" fill="url(#linear-gradient)"/>
    <circle id="Ellipse_6322" data-name="Ellipse 6322" cx="113.5" cy="113.5" r="113.5" transform="translate(265 1864.882)" fill="#fff"/>
    <g id="Group_156793" data-name="Group 156793" transform="translate(1750.875 2526.106)">
      <path id="Path_265670" data-name="Path 265670" d="M-1348.656-680.7l-10.326-3.849-39.117,39.166,7.063,7.063Z" transform="translate(6.612)" fill="#131a24"/>
      <path id="Path_265671" data-name="Path 265671" d="M-1403.577-680.7l10.334-3.849,40.044,40.1-7.063,7.063Z" transform="translate(3.864)" fill="#1b2739"/>
      <path id="Path_265672" data-name="Path 265672" d="M-1393.046-684.551l-10.924,3.128v31.312h10.924Z" transform="translate(3.667)" fill="#004a8e"/>
      <path id="Path_265673" data-name="Path 265673" d="M-1361.127-681.5l-10.924-3.056v34.937h10.924Z" transform="translate(19.681)" fill="#004a8e"/>
      <g id="Group_156792" data-name="Group 156792" transform="translate(-1411.278 -650.11)">
        <path id="Path_265674" data-name="Path 265674" d="M-1400.3-661.617v37.826a12.785,12.785,0,0,1-10.975,12.655v188.063h34.585l.385-28.634,4.92-108.012h.515v-101.9Z" transform="translate(1411.278 661.617)" fill="#004a8e"/>
        <path id="Path_265675" data-name="Path 265675" d="M-1354.945-623.791v-37.826h-29.428v101.9h.513l4.92,108.012.384,28.634h34.585V-611.136A12.785,12.785,0,0,1-1354.945-623.791Z" transform="translate(1424.777 661.617)" fill="#00417c"/>
      </g>
      <path id="Path_265676" data-name="Path 265676" d="M-1411.278-546.945v11.255h36.173l.513-11.255Z" transform="translate(0 69.042)" fill="#c0d3ee"/>
      <path id="Path_265677" data-name="Path 265677" d="M-1411.278-533.455v8.629h35.37l.393-8.629Z" transform="translate(0 75.811)" fill="#c0d3ee"/>
      <path id="Path_265678" data-name="Path 265678" d="M-1381.284-533.455l.393,8.629h35.37v-8.629Z" transform="translate(15.049 75.811)" fill="#c0d3ee"/>
      <path id="Path_265679" data-name="Path 265679" d="M-1381.9-546.945l.512,11.255h36.173v-11.255Z" transform="translate(14.741 69.042)" fill="#c0d3ee"/>
      <rect id="Rectangle_294649" data-name="Rectangle 294649" width="32.819" height="24.046" transform="translate(-1388.132 -636.739)" fill="#032e54"/>
      <path id="Path_265680" data-name="Path 265680" d="M-1363.047-644.175l-16.409,5.943-16.409-5.943v-8.538h32.819Z" transform="translate(7.733 15.974)" fill="#0b2543"/>
      <rect id="Rectangle_294650" data-name="Rectangle 294650" width="21.898" height="41.464" transform="translate(-1352.37 -528.623)" fill="#032e54"/>
      <rect id="Rectangle_294651" data-name="Rectangle 294651" width="21.898" height="10.658" transform="translate(-1352.37 -528.623)" fill="#0b2543"/>
      <path id="Path_265681" data-name="Path 265681" d="M-1411.278-599.289v-27.248h21.9Z" transform="translate(0 29.108)" fill="#032e54"/>
      <path id="Path_265682" data-name="Path 265682" d="M-1350.153-599.289v-27.248h-21.9Z" transform="translate(19.682 29.108)" fill="#032e54"/>
      <path id="Path_265683" data-name="Path 265683" d="M-1392.989-622.046l3.609-4.491h-21.9v4.491Z" transform="translate(0 29.108)" fill="#ffbc00"/>
      <path id="Path_265684" data-name="Path 265684" d="M-1350.153-622.046v-4.491h-21.9l3.609,4.491Z" transform="translate(19.682 29.108)" fill="#ffbc00"/>
      <rect id="Rectangle_294652" data-name="Rectangle 294652" width="10.924" height="3.013" transform="translate(-1400.303 -653.123)" fill="#ffbc00"/>
      <rect id="Rectangle_294653" data-name="Rectangle 294653" width="10.924" height="3.013" transform="translate(-1400.303 -655.64)" fill="#ffa700"/>
      <rect id="Rectangle_294654" data-name="Rectangle 294654" width="10.924" height="3.013" transform="translate(-1352.37 -652.627)" fill="#ffbc00"/>
      <rect id="Rectangle_294655" data-name="Rectangle 294655" width="10.924" height="3.013" transform="translate(-1352.37 -655.64)" fill="#ffa700"/>
      <path id="Path_265685" data-name="Path 265685" d="M-1382.183-646.338a2.065,2.065,0,0,0-2.065-2.065,2.065,2.065,0,0,0-2.066,2.065,2.066,2.066,0,0,0,2.066,2.066A2.066,2.066,0,0,0-1382.183-646.338Z" transform="translate(12.525 18.137)" fill="#ffbc00"/>
      <circle id="Ellipse_6311" data-name="Ellipse 6311" cx="2.066" cy="2.066" r="2.066" transform="translate(-1342.043 -523.294)" fill="#ffbc00"/>
      <rect id="Rectangle_294656" data-name="Rectangle 294656" width="15.233" height="4.481" transform="translate(-1359.794 -644.911)" fill="#0b2543"/>
    </g>
  </g>
</svg>
