<svg id="_6" data-name="6" xmlns="http://www.w3.org/2000/svg" width="255.899" height="257.744" viewBox="0 0 255.899 257.744">
  <path id="Path_264541" data-name="Path 264541" d="M-2353.059-1016.9l2.71,4.955,4.955,2.71-4.955,2.71-2.71,4.955-2.71-4.955-4.955-2.71,4.955-2.71Z" transform="translate(2442.439 1016.901)" fill="#f2f2f2"/>
  <path id="Path_264542" data-name="Path 264542" d="M-2156.008-784.514l2.033,3.716,3.716,2.033-3.716,2.033-2.033,3.717-2.033-3.717-3.716-2.033,3.716-2.033Z" transform="translate(2358.414 918.763)" fill="#e7e6e6"/>
  <path id="Path_264543" data-name="Path 264543" d="M-2143.75-816.279l.917,1.677,1.677.917-1.677.917-.917,1.677-.917-1.677-1.677-.917,1.677-.917Z" transform="translate(2351.905 932.177)" fill="#d8d8d8"/>
  <path id="Path_264544" data-name="Path 264544" d="M-2382.859-1013.675l.917,1.677,1.677.917-1.677.917-.917,1.677-.917-1.677-1.677-.917,1.677-.917Z" transform="translate(2452.882 1015.539)" fill="#d8d8d8"/>
  <g id="Group_155775" data-name="Group 155775" transform="translate(0 257.176)">
    <path id="Path_264545" data-name="Path 264545" d="M-2246.274-571.574c0,.083-57.289.15-127.943.15-70.679,0-127.956-.067-127.956-.15s57.278-.151,127.956-.151C-2303.563-571.725-2246.274-571.657-2246.274-571.574Z" transform="translate(2502.173 571.725)" fill="#1c262b"/>
  </g>
  <g id="Group_155841" data-name="Group 155841" transform="translate(76.754 23.293)">
    <g id="Group_155840" data-name="Group 155840">
      <g id="Group_155835" data-name="Group 155835">
        <g id="Group_155783" data-name="Group 155783">
          <g id="Group_155782" data-name="Group 155782">
            <g id="Group_155778" data-name="Group 155778">
              <g id="Group_155777" data-name="Group 155777">
                <g id="Group_155776" data-name="Group 155776">
                  <path id="Path_264546" data-name="Path 264546" d="M-2272.313-742.129l-79.657-.047a17.351,17.351,0,0,1-17.341-17.355l.04-199.7a17.352,17.352,0,0,1,17.361-17.349l79.657.047a17.352,17.352,0,0,1,17.341,17.355l-.039,199.7A17.351,17.351,0,0,1-2272.313-742.129Z" transform="translate(2369.311 976.58)" fill="#1c262b"/>
                </g>
              </g>
            </g>
            <g id="Group_155781" data-name="Group 155781" transform="translate(5.278 7.063)">
              <g id="Group_155780" data-name="Group 155780">
                <g id="Group_155779" data-name="Group 155779">
                  <path id="Path_264547" data-name="Path 264547" d="M-2268.479-964.306l-15.444-.009a3.836,3.836,0,0,0-3.75,3.918v2.8a3.837,3.837,0,0,1-3.75,3.919l-30.1-.018a3.84,3.84,0,0,1-3.749-3.922v-2.8a3.84,3.84,0,0,0-3.75-3.922l-5.431,0-13.517-.008a12.152,12.152,0,0,0-12.159,12.15l-.038,194.922a12.153,12.153,0,0,0,12.145,12.155l79.5.046a12.152,12.152,0,0,0,12.159-12.149l.038-194.923A12.152,12.152,0,0,0-2268.479-964.306Z" transform="translate(2360.174 964.353)" fill="#fff"/>
                </g>
              </g>
            </g>
          </g>
        </g>
        <g id="Group_155793" data-name="Group 155793" transform="translate(89.164 22.881)">
          <g id="Group_155786" data-name="Group 155786">
            <g id="Group_155785" data-name="Group 155785">
              <g id="Group_155784" data-name="Group 155784">
                <path id="Path_264548" data-name="Path 264548" d="M-2205.995-936.907c0,.052-2.007.111-4.485.132s-4.486-.006-4.487-.058,2.008-.112,4.486-.132S-2205.995-936.96-2205.995-936.907Z" transform="translate(2214.967 936.972)" fill="#1c262b"/>
              </g>
            </g>
          </g>
          <g id="Group_155789" data-name="Group 155789" transform="translate(0.019 2.296)">
            <g id="Group_155788" data-name="Group 155788">
              <g id="Group_155787" data-name="Group 155787">
                <path id="Path_264549" data-name="Path 264549" d="M-2205.962-932.934c0,.053-2.008.112-4.485.132s-4.486-.005-4.487-.057,2.008-.112,4.485-.132S-2205.962-932.986-2205.962-932.934Z" transform="translate(2214.934 932.998)" fill="#1c262b"/>
              </g>
            </g>
          </g>
          <g id="Group_155792" data-name="Group 155792" transform="translate(0.038 4.591)">
            <g id="Group_155791" data-name="Group 155791">
              <g id="Group_155790" data-name="Group 155790">
                <path id="Path_264550" data-name="Path 264550" d="M-2205.929-928.96c0,.053-2.008.112-4.485.132s-4.487-.005-4.487-.057,2.008-.111,4.485-.132S-2205.929-929.012-2205.929-928.96Z" transform="translate(2214.901 929.024)" fill="#1c262b"/>
              </g>
            </g>
          </g>
        </g>
        <g id="Group_155796" data-name="Group 155796" transform="translate(13.545 20.311)">
          <g id="Group_155795" data-name="Group 155795">
            <g id="Group_155794" data-name="Group 155794">
              <path id="Path_264551" data-name="Path 264551" d="M-2345.745-931.956a1.828,1.828,0,0,1,.235-.016l.654-.022,2.415-.057-.067.068c-.009-.535-.019-1.12-.028-1.75,0-.325-.028-.632,0-1.008a.928.928,0,0,1,.81-.744c.389-.008.731-.025,1.153-.006a.938.938,0,0,1,.792.932c.009.816.019,1.669.029,2.553l-.112-.11,3.046-.031-.115.118c-.011-1.227-.023-2.5-.034-3.795q0-.487-.008-.966a.985.985,0,0,0-.428-.72l-1.332-1.313-1.284-1.267-.623-.615c-.214-.206-.382-.419-.63-.47a.819.819,0,0,0-.7.133c-.184.156-.381.377-.567.557l-1.093,1.1c-.687.714-1.4,1.366-1.924,1.983a2.153,2.153,0,0,0-.153,1.136q0,.567,0,1.073-.006.987-.011,1.728c0,.442-.009.807-.012,1.106,0,.255-.009.393-.015.4a2.875,2.875,0,0,1-.021-.366c-.008-.295-.019-.653-.031-1.088q-.016-.747-.039-1.743-.01-.516-.02-1.094c0-.195-.006-.394-.009-.6a1.268,1.268,0,0,1,.168-.638c.563-.69,1.236-1.3,1.928-2.036l1.084-1.111c.2-.192.355-.382.588-.582a1.034,1.034,0,0,1,.883-.174,1.643,1.643,0,0,1,.731.523l.625.612,1.289,1.263,1.334,1.31a2.545,2.545,0,0,1,.34.369,1,1,0,0,1,.159.514q0,.483.009.971c.01,1.3.02,2.568.029,3.795v.117h-.117l-3.046.02h-.111V-932c0-.884-.009-1.737-.013-2.553a.735.735,0,0,0-.615-.739c-.351-.018-.764-.006-1.1,0a.748.748,0,0,0-.657.592c-.03.306-.007.663-.013.973q0,.946,0,1.751v.068h-.067l-2.455-.017-.639-.011A1.2,1.2,0,0,1-2345.745-931.956Z" transform="translate(2345.865 941.421)" fill="#1c262b"/>
            </g>
          </g>
        </g>
        <g id="Group_155815" data-name="Group 155815" transform="translate(11.618 175.013)">
          <g id="Group_155801" data-name="Group 155801" transform="translate(33.354 6.925)">
            <g id="Group_155800" data-name="Group 155800">
              <g id="Group_155797" data-name="Group 155797">
                <path id="Path_264552" data-name="Path 264552" d="M-2270.224-661.491a4.492,4.492,0,0,1-.835.059l-2.276.047c-1.922.027-4.577.045-7.51.045s-5.588-.017-7.51-.045l-2.276-.047a4.489,4.489,0,0,1-.834-.059,4.445,4.445,0,0,1,.834-.058l2.276-.048c1.921-.027,4.577-.044,7.51-.044s5.588.017,7.51.044l2.276.048A4.448,4.448,0,0,1-2270.224-661.491Z" transform="translate(2291.465 661.641)" fill="#354952"/>
              </g>
              <g id="Group_155798" data-name="Group 155798" transform="translate(0 5.225)">
                <path id="Path_264553" data-name="Path 264553" d="M-2236.838-652.445c0,.083-12.23.15-27.312.15s-27.314-.067-27.314-.15,12.227-.151,27.314-.151S-2236.838-652.528-2236.838-652.445Z" transform="translate(2291.465 652.596)" fill="#354952"/>
              </g>
              <g id="Group_155799" data-name="Group 155799" transform="translate(0 10.141)">
                <path id="Path_264554" data-name="Path 264554" d="M-2253.909-643.936c0,.083-8.408.151-18.777.151s-18.779-.068-18.779-.151,8.406-.15,18.779-.15S-2253.909-644.018-2253.909-643.936Z" transform="translate(2291.465 644.086)" fill="#354952"/>
              </g>
            </g>
          </g>
          <g id="Group_155802" data-name="Group 155802" transform="translate(85.747 21.823)">
            <path id="Path_264555" data-name="Path 264555" d="M-2197.458-630.889l-1.7-1.7-1.616,1.612.008-4.873,3.313.005Zm-1.7-1.915.053.053,1.494,1.5.007-4.447-3.013,0-.007,4.361Z" transform="translate(2200.771 635.853)" fill="#1c262b"/>
          </g>
          <g id="Group_155803" data-name="Group 155803" transform="translate(40.815 22.795)">
            <path id="Path_264556" data-name="Path 264556" d="M-2275.5-630.813l-.6-.267a1.671,1.671,0,0,1-.776.236,1.666,1.666,0,0,1-1.677-1.65,1.665,1.665,0,0,1,1.65-1.676,1.665,1.665,0,0,1,1.677,1.65,1.66,1.66,0,0,1-.414,1.109Zm-1.4-3.244a1.551,1.551,0,0,0-1.537,1.562,1.551,1.551,0,0,0,1.562,1.537,1.6,1.6,0,0,0,.746-.236l.025-.014.442.2-.1-.434.02-.022a1.543,1.543,0,0,0,.4-1.054A1.551,1.551,0,0,0-2276.9-634.057Z" transform="translate(2278.55 634.171)" fill="#1c262b"/>
          </g>
          <g id="Group_155804" data-name="Group 155804" transform="translate(45.743 23.022)">
            <path id="Path_264557" data-name="Path 264557" d="M-2268.045-630.9l-.687-1.675-1.287-1.173,3.123-.025Zm-1.682-2.737,1.1,1.006.585,1.427.981-2.455Z" transform="translate(2270.019 633.777)" fill="#1c262b"/>
          </g>
          <g id="Group_155805" data-name="Group 155805" transform="translate(47.101 23.022)">
            <rect id="Rectangle_294624" data-name="Rectangle 294624" width="2.031" height="0.114" transform="translate(0 1.108) rotate(-33.054)" fill="#1c262b"/>
          </g>
          <g id="Group_155806" data-name="Group 155806" transform="translate(35.127 22.621)">
            <path id="Path_264558" data-name="Path 264558" d="M-2284.569-633.7a1,1,0,0,0-.986-.775,1,1,0,0,0-.919.839,1,1,0,0,0-.932-.824,1,1,0,0,0-.973.791,1.3,1.3,0,0,0,.238.939,3.894,3.894,0,0,0,.683.717c.348.307.67.6,1.018.9.342-.313.634-.607.977-.92a3.838,3.838,0,0,0,.673-.728A1.307,1.307,0,0,0-2284.569-633.7Z" transform="translate(2288.395 634.471)" fill="#e03748"/>
          </g>
          <g id="Group_155807" data-name="Group 155807">
            <path id="Path_264559" data-name="Path 264559" d="M-2256.662-642.532s-.007-.187-.01-.544-.006-.889-.01-1.581c-.006-1.393-.014-3.444-.024-6.1-.013-5.309-.031-13.033-.054-22.723l.1.1-92.383.051h-.006l.151-.151c0,10.755,0,21.188-.005,30.947l-.146-.146,66.108.068,19.3.041,5.179.019,1.342.009c.3,0,.462.009.462.009s-.147.006-.444.009l-1.325.009-5.147.019-19.265.041-66.208.067h-.146v-.146c0-9.759,0-20.192,0-30.947v-.15h.156l92.383.052h.1v.1c-.023,9.715-.042,17.46-.054,22.783-.01,2.645-.019,4.688-.024,6.077q-.007,1.026-.01,1.563C-2256.655-642.706-2256.662-642.532-2256.662-642.532Z" transform="translate(2349.201 673.629)" fill="#1c262b"/>
          </g>
          <g id="Group_155814" data-name="Group 155814" transform="translate(3.723 5.185)">
            <g id="Group_155811" data-name="Group 155811">
              <g id="Group_155810" data-name="Group 155810">
                <g id="Group_155809" data-name="Group 155809">
                  <rect id="Rectangle_294625" data-name="Rectangle 294625" width="20.46" height="25.592" transform="matrix(0.006, -1, 1, 0.006, 0.153, 20.595)" fill="#e7e6e6"/>
                  <g id="Group_155808" data-name="Group 155808">
                    <path id="Path_264560" data-name="Path 264560" d="M-2316.9-664.372a1,1,0,0,1-.128.007l-.363.006-1.4.008-5.247.006-18.457-.038.135-.134c-.03,6.092-.064,13.072-.1,20.457.032.036-.28-.284-.145-.149h.437l.443,0,.882.005,1.752.01,3.448.021,6.639.043,11.986.087-.126.124c.062-6.143.113-11.24.149-14.818.024-1.779.042-3.181.056-4.154q.013-.7.02-1.1c.006-.25.016-.386.016-.386s.009.117.012.359q0,.387.008,1.076c0,.967.005,2.359.009,4.126-.005,3.6-.012,8.721-.02,14.9v.125h-.126l-11.985-.05-6.64-.032-3.448-.018-1.751-.01-.882,0-.443,0h-.437c.132.135-.187-.183-.154-.154.048-7.386.093-14.366.132-20.457v-.135h.135l18.543.173,5.217.065,1.37.024.348.01A.5.5,0,0,1-2316.9-664.372Z" transform="translate(2342.756 664.653)" fill="#1c262b"/>
                  </g>
                </g>
              </g>
            </g>
            <rect id="Rectangle_294626" data-name="Rectangle 294626" width="17.884" height="23.794" transform="matrix(0.006, -1, 1, 0.006, 1.043, 19.312)" fill="#d8d8d8"/>
            <path id="Path_264561" data-name="Path 264561" d="M-2340.951-639.315l8.374-11.069,5.108,6.984,3.513-3.7,6.8,7.918Z" transform="translate(2341.994 658.627)" fill="#f2f2f2"/>
            <g id="Group_155813" data-name="Group 155813" transform="translate(13.01 5.039)">
              <g id="Group_155812" data-name="Group 155812">
                <path id="Path_264562" data-name="Path 264562" d="M-2316.488-654.046a1.874,1.874,0,0,1-1.885,1.863,1.874,1.874,0,0,1-1.863-1.884,1.873,1.873,0,0,1,1.884-1.863A1.874,1.874,0,0,1-2316.488-654.046Z" transform="translate(2320.235 655.93)" fill="#f2f2f2"/>
              </g>
            </g>
          </g>
        </g>
        <g id="Group_155830" data-name="Group 155830" transform="translate(15.328 43.586)">
          <g id="Group_155825" data-name="Group 155825">
            <g id="Group_155818" data-name="Group 155818" transform="translate(16.539 4.019)">
              <g id="Group_155817" data-name="Group 155817">
                <g id="Group_155816" data-name="Group 155816">
                  <path id="Path_264563" data-name="Path 264563" d="M-2287.251-894.025a.944.944,0,0,1-.273.031l-.783.028-2.882.048c-2.434.027-5.8.044-9.51.044s-7.077-.017-9.511-.044l-2.882-.048-.784-.028a.945.945,0,0,1-.273-.031.965.965,0,0,1,.273-.03l.784-.028,2.882-.048c2.434-.027,5.8-.044,9.511-.044s7.075.017,9.51.044l2.882.048.783.028A.964.964,0,0,1-2287.251-894.025Z" transform="translate(2314.149 894.175)" fill="#1c262b"/>
                </g>
              </g>
            </g>
            <g id="Group_155824" data-name="Group 155824" transform="translate(0 109.557)">
              <g id="Group_155819" data-name="Group 155819" transform="translate(76.32 0.337)">
                <path id="Path_264564" data-name="Path 264564" d="M-2205.743-703.526l-2.522-2.53-2.4,2.4.012-7.242,4.924.008Zm-2.521-2.845.079.079,2.221,2.228.01-6.608-4.478-.006-.01,6.481Z" transform="translate(2210.667 710.903)" fill="#1c262b"/>
              </g>
              <g id="Group_155820" data-name="Group 155820" transform="translate(11.195 0.341)">
                <path id="Path_264565" data-name="Path 264565" d="M-2317.393-704.285l-1.179-.526a3.3,3.3,0,0,1-1.526.464,3.279,3.279,0,0,1-3.3-3.248,3.278,3.278,0,0,1,3.248-3.3,3.279,3.279,0,0,1,3.3,3.248,3.263,3.263,0,0,1-.815,2.184Zm-2.756-6.386a3.054,3.054,0,0,0-3.026,3.074,3.054,3.054,0,0,0,3.075,3.026,3.158,3.158,0,0,0,1.469-.463l.048-.027.869.388-.2-.854.039-.043a3.039,3.039,0,0,0,.8-2.075A3.053,3.053,0,0,0-2320.149-710.671Z" transform="translate(2323.399 710.895)" fill="#1c262b"/>
              </g>
              <g id="Group_155821" data-name="Group 155821" transform="translate(20.896 0.789)">
                <path id="Path_264566" data-name="Path 264566" d="M-2302.722-704.463l-1.351-3.3-2.534-2.309,6.146-.05Zm-3.311-5.388,2.158,1.981,1.151,2.809,1.931-4.832Z" transform="translate(2306.607 710.12)" fill="#1c262b"/>
              </g>
              <g id="Group_155822" data-name="Group 155822" transform="translate(23.567 0.789)">
                <rect id="Rectangle_294627" data-name="Rectangle 294627" width="3.998" height="0.225" transform="matrix(0.838, -0.545, 0.545, 0.838, 0, 2.18)" fill="#1c262b"/>
              </g>
              <g id="Group_155823" data-name="Group 155823">
                <path id="Path_264567" data-name="Path 264567" d="M-2335.248-709.959a1.965,1.965,0,0,0-1.94-1.526,1.966,1.966,0,0,0-1.809,1.652,1.965,1.965,0,0,0-1.835-1.622,1.964,1.964,0,0,0-1.915,1.557,2.565,2.565,0,0,0,.467,1.85,7.6,7.6,0,0,0,1.345,1.412c.685.6,1.317,1.174,2,1.779.675-.616,1.249-1.194,1.924-1.81a7.615,7.615,0,0,0,1.323-1.434A2.564,2.564,0,0,0-2335.248-709.959Z" transform="translate(2342.778 711.486)" fill="#7453d8"/>
              </g>
            </g>
            <circle id="Ellipse_6260" data-name="Ellipse 6260" cx="4.169" cy="4.169" r="4.169" transform="translate(2.801)" fill="#e7e6e6"/>
          </g>
          <g id="Group_155829" data-name="Group 155829" transform="translate(1.586 86.702)">
            <g id="Group_155826" data-name="Group 155826" transform="translate(0 6.502)">
              <path id="Path_264568" data-name="Path 264568" d="M-2261.949-739.642c0,.083-17.481.15-39.04.15s-39.044-.068-39.044-.15,17.477-.151,39.044-.151S-2261.949-739.725-2261.949-739.642Z" transform="translate(2340.033 739.793)" fill="#354952"/>
            </g>
            <g id="Group_155827" data-name="Group 155827">
              <path id="Path_264569" data-name="Path 264569" d="M-2261.949-750.9c0,.083-17.481.151-39.04.151s-39.044-.068-39.044-.151,17.477-.15,39.044-.15S-2261.949-750.981-2261.949-750.9Z" transform="translate(2340.033 751.048)" fill="#354952"/>
            </g>
            <g id="Group_155828" data-name="Group 155828" transform="translate(0 13.091)">
              <path id="Path_264570" data-name="Path 264570" d="M-2297.531-728.237c0,.083-9.515.151-21.25.151s-21.252-.068-21.252-.151,9.513-.15,21.252-.15S-2297.531-728.319-2297.531-728.237Z" transform="translate(2340.033 728.387)" fill="#354952"/>
            </g>
          </g>
        </g>
        <g id="Group_155834" data-name="Group 155834" transform="translate(50.853 212.682)">
          <g id="Group_155831" data-name="Group 155831">
            <path id="Path_264571" data-name="Path 264571" d="M-2277.966-606.733a1.671,1.671,0,0,1-1.666,1.675,1.673,1.673,0,0,1-1.651-1.691,1.67,1.67,0,0,1,1.666-1.675A1.671,1.671,0,0,1-2277.966-606.733Z" transform="translate(2281.284 608.424)" fill="#1c262b"/>
          </g>
          <g id="Group_155832" data-name="Group 155832" transform="translate(5.14 0.024)">
            <path id="Path_264572" data-name="Path 264572" d="M-2269.068-606.692a1.67,1.67,0,0,1-1.665,1.675,1.672,1.672,0,0,1-1.652-1.691,1.671,1.671,0,0,1,1.666-1.675A1.671,1.671,0,0,1-2269.068-606.692Z" transform="translate(2272.386 608.383)" fill="#1c262b"/>
          </g>
          <g id="Group_155833" data-name="Group 155833" transform="translate(10.281 0.047)">
            <path id="Path_264573" data-name="Path 264573" d="M-2260.17-606.652a1.67,1.67,0,0,1-1.666,1.675,1.672,1.672,0,0,1-1.652-1.691,1.671,1.671,0,0,1,1.666-1.675A1.672,1.672,0,0,1-2260.17-606.652Z" transform="translate(2263.488 608.343)" fill="#1c262b"/>
          </g>
        </g>
      </g>
      <g id="Group_155838" data-name="Group 155838" transform="translate(12.321 56.006)">
        <rect id="Rectangle_294628" data-name="Rectangle 294628" width="92.389" height="56.501" fill="#d8d8d8"/>
        <path id="Path_264574" data-name="Path 264574" d="M-2333.219-807.715l26.475-35.435,16.413,22.16,11.124-11.852,21.817,25.1Z" transform="translate(2341.748 864.226)" fill="#f2f2f2"/>
        <g id="Group_155837" data-name="Group 155837" transform="translate(46.431 10.761)">
          <g id="Group_155836" data-name="Group 155836">
            <path id="Path_264575" data-name="Path 264575" d="M-2255.667-855.037a5.97,5.97,0,0,1-5.969,5.972,5.97,5.97,0,0,1-5.972-5.969,5.971,5.971,0,0,1,5.969-5.972A5.97,5.97,0,0,1-2255.667-855.037Z" transform="translate(2267.609 861.006)" fill="#f2f2f2"/>
          </g>
        </g>
      </g>
      <g id="Group_155839" data-name="Group 155839" transform="translate(11.922 37.057)">
        <path id="Path_264576" data-name="Path 264576" d="M-2256.134-784.474c0-1.209-.056-52.25-.136-127.809l.136.136-92.378.014h-.01l.15-.151c-.01,47.8-.02,92.033-.028,127.809l-.122-.122,92.388.122-92.388.122h-.123v-.122c-.008-35.776-.018-80.011-.028-127.809v-.15h.161l92.378.014h.136v.136c-.028,37.817-.051,69.783-.068,92.3-.016,11.243-.028,20.125-.036,26.2-.007,3.029-.013,5.358-.016,6.934,0,.782-.006,1.376-.008,1.779S-2256.134-784.474-2256.134-784.474Z" transform="translate(2348.673 912.434)" fill="#1c262b"/>
      </g>
    </g>
  </g>
  <g id="Group_155868" data-name="Group 155868" transform="translate(38.997 57.29)">
    <g id="Group_155862" data-name="Group 155862">
      <g id="Group_155860" data-name="Group 155860">
        <g id="Group_155842" data-name="Group 155842" transform="translate(61.377 115.512)">
          <path id="Path_264577" data-name="Path 264577" d="M-2290.995-686.416l2.044-6.867c.356-1.489.83-3.246,1.468-5.251a14.166,14.166,0,0,1,3.383-5.058c2.087-2.122,3.079-2.136,4.481-3.262.128-.082.27-.2.39-.264a2.2,2.2,0,0,0,.682-.59c1.208-1.307.048-3.33-2.406-3.137-1.848.145-4.861.674-9.761,5.728-.061.077-.125.141-.185.22-2.572,3.343-4.987-6.2-5.422-9.751a3.722,3.722,0,0,0-5.031-2.887l-11.936,5.583a5.567,5.567,0,0,0-3.484.118,3.547,3.547,0,0,0-2.274,4.21l4.841,19.325-14.219,47.309h30.646Z" transform="translate(2328.424 717.778)" fill="#f8ae8b"/>
        </g>
        <g id="Group_155858" data-name="Group 155858">
          <g id="Group_155850" data-name="Group 155850">
            <g id="Group_155844" data-name="Group 155844" transform="translate(68.565 96.744)">
              <g id="Group_155843" data-name="Group 155843">
                <path id="Path_264578" data-name="Path 264578" d="M-2262.2-743.586l-9.474,18.563-4.737-1.316-23.81,19.368a4.823,4.823,0,0,1-6.7-.6l-9.065-10.534s18.279-7.874,21.66-14.392-.526-8-.526-8l8.6-9.776Z" transform="translate(2315.982 750.265)" fill="#fda929"/>
              </g>
            </g>
            <g id="Group_155845" data-name="Group 155845">
              <path id="Path_264579" data-name="Path 264579" d="M-2324.606-852.228s-13.867-3.067-33.381-21.832-28.683-43.684-31.072-43.562-12.818-4.721-32.654,38.428-12.022,53.168-8.076,53.088,30.749-7.55,47.49-5.647,38.258,10.627,38.258,10.627Z" transform="translate(2434.669 917.731)" fill="#fda929"/>
            </g>
            <g id="Group_155846" data-name="Group 155846" transform="translate(87.647 57.372)">
              <path id="Path_264580" data-name="Path 264580" d="M-2231.077-786.769l-4.731,8.994-2.119,4.029a11.739,11.739,0,0,1-15.3,5.2l-29.722-10.356,17.309-39.517,29.695,15.825A11.74,11.74,0,0,1-2231.077-786.769Z" transform="translate(2282.951 818.419)" fill="#e03748"/>
            </g>
            <g id="Group_155847" data-name="Group 155847" transform="translate(87.647 57.372)" opacity="0.4">
              <path id="Path_264581" data-name="Path 264581" d="M-2231.077-786.769l-4.731,8.994-2.119,4.029a11.739,11.739,0,0,1-15.3,5.2l-29.722-10.356,17.309-39.517,29.695,15.825A11.74,11.74,0,0,1-2231.077-786.769Z" transform="translate(2282.951 818.419)" fill="#040405"/>
            </g>
            <g id="Group_155848" data-name="Group 155848" transform="translate(2.597 0.989)">
              <path id="Path_264582" data-name="Path 264582" d="M-2418.211-877.685c-10.556,23.374-14.951,44.2-9.815,46.522s17.857-14.749,28.414-38.122,14.951-44.2,9.815-46.522S-2407.654-901.059-2418.211-877.685Z" transform="translate(2430.173 916.018)" fill="#e03748"/>
            </g>
            <g id="Group_155849" data-name="Group 155849" transform="translate(2.597 0.989)" opacity="0.5">
              <path id="Path_264583" data-name="Path 264583" d="M-2418.211-877.685c-10.556,23.374-14.951,44.2-9.815,46.522s17.857-14.749,28.414-38.122,14.951-44.2,9.815-46.522S-2407.654-901.059-2418.211-877.685Z" transform="translate(2430.173 916.018)" fill="#040405"/>
            </g>
          </g>
          <g id="Group_155851" data-name="Group 155851" transform="translate(134.016 90.01)">
            <path id="Path_264584" data-name="Path 264584" d="M-2194.629-749.914l-8.056-2.53,4.985-9.479,6.042,3.756Z" transform="translate(2202.685 761.922)" fill="#fda929"/>
          </g>
          <g id="Group_155852" data-name="Group 155852" transform="translate(134.016 90.01)" opacity="0.6">
            <path id="Path_264585" data-name="Path 264585" d="M-2197.7-761.922l-4.985,9.479,1.655.52,4.053-9.55Z" transform="translate(2202.685 761.922)" fill="#040405"/>
          </g>
          <g id="Group_155853" data-name="Group 155853" transform="translate(115.914 84.244)">
            <path id="Path_264586" data-name="Path 264586" d="M-2216.483-763.95c-.118.261-4.139-1.3-8.979-3.49s-8.673-4.174-8.554-4.434,4.137,1.3,8.98,3.49S-2216.366-764.21-2216.483-763.95Z" transform="translate(2234.02 771.903)" fill="#fda929"/>
          </g>
          <g id="Group_155854" data-name="Group 155854" transform="translate(120.129 78.744)">
            <path id="Path_264587" data-name="Path 264587" d="M-2210.925-773.617c-.127.258-3.765-1.276-8.126-3.424s-7.8-4.1-7.669-4.355,3.762,1.278,8.126,3.426S-2210.8-773.873-2210.925-773.617Z" transform="translate(2226.724 781.423)" fill="#fda929"/>
          </g>
          <g id="Group_155855" data-name="Group 155855" transform="translate(114.339 90.983)">
            <path id="Path_264588" data-name="Path 264588" d="M-2220.76-753.1c-.042.137-1-.084-2.526-.556-.762-.235-1.666-.533-2.666-.879s-2.024-.882-3.129-1.382c-4.407-2.046-7.772-4.049-7.662-4.286.13-.281,3.727,1.32,8.093,3.346,1.1.5,2.112,1.043,3.069,1.443s1.824.752,2.543,1.071C-2221.6-753.706-2220.719-753.24-2220.76-753.1Z" transform="translate(2236.746 760.238)" fill="#fda929"/>
          </g>
          <g id="Group_155856" data-name="Group 155856" transform="translate(15.534 32.412)">
            <path id="Path_264589" data-name="Path 264589" d="M-2387.231-859.912s-12.052-7.474-18.647,8.81,6.087,18.961,6.087,18.961A108.506,108.506,0,0,0-2387.231-859.912Z" transform="translate(2407.779 861.624)" fill="#fda929"/>
          </g>
          <g id="Group_155857" data-name="Group 155857" transform="translate(14.368 14.718)" opacity="0.5">
            <path id="Path_264590" data-name="Path 264590" d="M-2375.266-892.254a18.151,18.151,0,0,1-.472,3.111c-.381,1.99-.92,4.878-1.693,8.425-.51,1.747-1.066,3.654-1.664,5.7l-.937,3.174-.492,1.659c-.18.556-.415,1.1-.625,1.664l-2.723,7.025q-.355.914-.717,1.842c-.235.622-.566,1.208-.848,1.82q-.884,1.822-1.791,3.694l-1.8,3.693c-.308.6-.564,1.223-.907,1.793l-1.005,1.7-3.841,6.485c-.313.512-.6,1.034-.923,1.519s-.672.95-1,1.415l-1.919,2.7-3.455,4.836c-2.3,2.793-4.237,5-5.565,6.524a18.321,18.321,0,0,1-2.156,2.3,18.407,18.407,0,0,1,1.845-2.553l5.31-6.732,3.326-4.873,1.859-2.707.973-1.414c.317-.485.594-1.008.9-1.521l3.763-6.472.99-1.7c.339-.567.591-1.185.9-1.783l1.779-3.669,1.783-3.665c.281-.608.613-1.188.847-1.8l.721-1.826c.957-2.411,1.88-4.738,2.76-6.957.214-.556.454-1.1.64-1.646s.342-1.1.51-1.641q.5-1.618.98-3.139c.637-2.021,1.231-3.906,1.776-5.632l2.005-8.318A18.561,18.561,0,0,1-2375.266-892.254Z" transform="translate(2409.799 892.254)" fill="#040405"/>
          </g>
        </g>
        <g id="Group_155859" data-name="Group 155859" transform="translate(71.453 111.107)" opacity="0.4">
          <path id="Path_264591" data-name="Path 264591" d="M-2310.983-708.894a23.477,23.477,0,0,0,3.849,5.618,7.924,7.924,0,0,0,6.128,2.5c2.267-.229,4.415-2.111,4.439-4.39a2.841,2.841,0,0,0,3.657-.645,6.4,6.4,0,0,0,1.3-3.794,3.578,3.578,0,0,0,4.519-1.224,5.843,5.843,0,0,0,.57-4.943,17.311,17.311,0,0,0-2.373-4.544,6.283,6.283,0,0,0,3.361-.345,2.165,2.165,0,0,0,1.112-2.838,2.828,2.828,0,0,0-1.657-1.057,10.7,10.7,0,0,0-4.891-.79c-.432,0,.743,4.9-10.909,11.588A98.136,98.136,0,0,1-2310.983-708.894Z" transform="translate(2310.983 725.404)" fill="#040405"/>
        </g>
      </g>
      <g id="Group_155861" data-name="Group 155861" transform="translate(85.855 134.409)">
        <path id="Path_264592" data-name="Path 264592" d="M-2274.216-684.792c-.008.054-.783-.095-2.04-.061a11.8,11.8,0,0,0-4.724,1.13,11.805,11.805,0,0,0-3.84,2.976c-.813.959-1.183,1.657-1.23,1.629a1.79,1.79,0,0,1,.228-.505,9.229,9.229,0,0,1,.837-1.258,11.021,11.021,0,0,1,3.875-3.112,11.016,11.016,0,0,1,4.852-1.072,9.306,9.306,0,0,1,1.505.135A1.788,1.788,0,0,1-2274.216-684.792Z" transform="translate(2286.052 685.067)" fill="#f08259"/>
      </g>
      <path id="Path_264593" data-name="Path 264593" d="M-2309.668-709.694c1.877,1.8,3.161,3.793,5.129,5.609.894.825,2.284,2.388,3.483,2.6s1.967.048,2.442-1.072c.384-.907-.306-2.148-.783-2.9-1.254-1.968-2.453-3.505-3.393-5.035-.44-.716.13-.864.337-.533.9.936,2.251,1.748,3.06,2.768,1.108,1.4,1.309,3.245,4.208,2.66a2.607,2.607,0,0,0,1.076-.448,2.9,2.9,0,0,0,.677-3.451,9.449,9.449,0,0,0-1.614-2.442c1.234,1.393,2.581,2.861,4.543,3.019a2.7,2.7,0,0,0,2.748-1.487c.581-1.318-.252-2.593-1.087-3.623a37.774,37.774,0,0,0-4.927-5.034,3.754,3.754,0,0,0-2.4-.888,3.5,3.5,0,0,0-2.912,1.067,3.942,3.942,0,0,0-.788,3.02s-2.545-1.291-4.59.059a6.485,6.485,0,0,0-2.551,3.669Z" transform="translate(2381.881 834.207)" fill="#f8ae8b"/>
      <path id="Path_264594" data-name="Path 264594" d="M-2286.752-724.938a3.048,3.048,0,0,1-.36-3.442c.433-.848.979-1.672,1.532-1.86,2.421-.817,13,1.013,12.9,3.361-.1,2.411-.869,3.472-6.61,2.643-1.01-.146-2.594-.345-2.594-.345l-1.385,2.08Z" transform="translate(2372.509 838.636)" fill="#f8ae8b"/>
    </g>
    <g id="Group_155863" data-name="Group 155863" transform="translate(81.821 118.239)">
      <path id="Path_264595" data-name="Path 264595" d="M-2287.206-707.767a18.993,18.993,0,0,0-2.532-3.064,19.035,19.035,0,0,0-3.3-2.221,3.384,3.384,0,0,1,1.12.395,9.979,9.979,0,0,1,2.379,1.6,9.987,9.987,0,0,1,1.828,2.21A3.37,3.37,0,0,1-2287.206-707.767Z" transform="translate(2293.035 713.058)" fill="#f08259"/>
    </g>
    <g id="Group_155864" data-name="Group 155864" transform="translate(85.943 114.251)">
      <path id="Path_264596" data-name="Path 264596" d="M-2282.412-717.9c-.053.049-.751-.521-1.7-1.1a12.005,12.005,0,0,0-1.242-.685c-.327-.154-.543-.2-.543-.241s.249-.069.616.042a5.686,5.686,0,0,1,1.326.628A4.1,4.1,0,0,1-2282.412-717.9Z" transform="translate(2285.9 719.961)" fill="#f08259"/>
    </g>
    <g id="Group_155865" data-name="Group 155865" transform="translate(87.479 112.738)">
      <path id="Path_264597" data-name="Path 264597" d="M-2279.514-721.185a4.566,4.566,0,0,1-2.037-.23,3.727,3.727,0,0,1-1.3-.683c-.291-.247-.411-.453-.383-.478a8.529,8.529,0,0,0,1.776.874A14.968,14.968,0,0,1-2279.514-721.185Z" transform="translate(2283.242 722.579)" fill="#f08259"/>
    </g>
    <g id="Group_155866" data-name="Group 155866" transform="translate(72.521 121.166)">
      <path id="Path_264598" data-name="Path 264598" d="M-2300.729-702.721a7.369,7.369,0,0,1-.964-1.254,11.38,11.38,0,0,0-2.47-2.806,4.977,4.977,0,0,0-3.5-.927,6.363,6.363,0,0,0-1.473.469c-.01-.013.1-.121.337-.267a3.3,3.3,0,0,1,1.1-.411,4.914,4.914,0,0,1,3.707.892,10.056,10.056,0,0,1,2.471,2.933A9.438,9.438,0,0,1-2300.729-702.721Z" transform="translate(2309.134 707.991)" fill="#f08259"/>
    </g>
    <g id="Group_155867" data-name="Group 155867" transform="translate(80.338 149.809)">
      <path id="Path_264599" data-name="Path 264599" d="M-2286.921-658.386a31.809,31.809,0,0,1-4.324.622,31.834,31.834,0,0,1-4.356.322,31.77,31.77,0,0,1,4.324-.622A31.8,31.8,0,0,1-2286.921-658.386Z" transform="translate(2295.602 658.409)" fill="#f08259"/>
    </g>
  </g>
</svg>
