<svg xmlns="http://www.w3.org/2000/svg" xmlns:xlink="http://www.w3.org/1999/xlink" width="400" height="296.095" viewBox="0 0 400 296.095">
  <defs>
    <linearGradient id="linear-gradient" x1="0.5" x2="0.5" y2="1" gradientUnits="objectBoundingBox">
      <stop offset="0" stop-color="#d8ccec"/>
      <stop offset="1" stop-color="#c3fff8"/>
    </linearGradient>
  </defs>
  <g id="_6" data-name="6" transform="translate(-1020 -2199)">
    <rect id="BG" width="400" height="296.095" rx="14" transform="translate(1020 2199)" fill="url(#linear-gradient)"/>
    <circle id="Ellipse_6323" data-name="Ellipse 6323" cx="113.5" cy="113.5" r="113.5" transform="translate(1105 2232.882)" fill="#fff"/>
    <g id="boots" transform="translate(2560.012 2714.123)">
      <g id="Group_156828" data-name="Group 156828" transform="translate(-1413.118 -481.24)">
        <path id="Path_265771" data-name="Path 265771" d="M-1339.5-477.3c-.027,2.122-.081,4.539-.138,7.119-.389,20.581-1.215,53.305-2.674,69.157-2.193,24.124-9.517,53.325-6.976,71.6.668,4.756,1.175,8.814,1.577,12.333.4,3.548.7,6.53.882,9.189,0,.163.025.323.025.485.136,1.639.215,3.142.266,4.566.054.968.081,1.91.106,2.794.054,1.478.052,2.876.052,4.246.027.35.054.7.054,1.074.025.537.052,1.129.079,1.747.027.483.027.966.025,1.506a94.656,94.656,0,0,1-.436,11.229c-.7,7.388-1.082,11.283-2.937,13.62a1.463,1.463,0,0,1-.429.537,6.2,6.2,0,0,1-3.334,1.612,15.984,15.984,0,0,1-1.639.456.849.849,0,0,1-.241.052l-.027.027a2.11,2.11,0,0,1-.4.081c-.244.054-.458.106-.727.16l-.027.027c-.375.081-.779.16-1.235.242a5.167,5.167,0,0,1-.914.16c-.673.133-1.4.242-2.176.347-.323.054-.646.081-1,.136s-.7.079-1.047.133c-.323.027-.646.079-1,.106-.348.054-.7.081-1.074.106-.7.081-1.479.136-2.257.214-2.094.16-4.487.32-7.119.426-.646.027-1.291.052-1.961.079-1.424.054-2.9.106-4.487.106-.968.025-1.989.052-3.009.052-1.237.025-2.526.025-3.842.025-2.5,0-4.729-.057-6.717-.14-.483-.027-.968-.054-1.424-.081-.619-.027-1.237-.054-1.8-.108a6.535,6.535,0,0,1-.752-.054,7.52,7.52,0,0,0-.779-.054q-.806-.081-1.531-.16c-.027,0-.054-.027-.081,0q-.928-.122-1.774-.244c-.027,0-.054-.027-.106-.027-.485-.054-.968-.135-1.4-.217a23.819,23.819,0,0,1-2.417-.537c-.3-.081-.564-.163-.833-.244a10.7,10.7,0,0,1-1.156-.429c-.054-.027-.108-.027-.162-.054a.517.517,0,0,0-.133-.081,4.059,4.059,0,0,1-.941-.564l-.133-.136c-.054-.052-.082-.079-.082-.106v-.027h-.027a27.994,27.994,0,0,1-3.27-11.017,17.285,17.285,0,0,1-.052-2.043v-.187a9.033,9.033,0,0,1,.082-1.21,18.95,18.95,0,0,1,.431-3.063v-.027c1.7-8.139,7.531-14.583,13.206-22.131a70.546,70.546,0,0,0,7.718-12.166c4.492-9.295,5.332-20.524,3.3-42.746-1.067-12.037-7.469-44.308-9.815-77.062-1.065-15.179-1.353-26.034-1.483-33.72-.052-2.767-.076-5.157-.1-7.173,1.022-.646,3.925-1.9,11.125-2.814l.483-.081c.673-.052,1.37-.133,2.07-.212.16-.027.323-.027.483-.054.456-.027.914-.081,1.37-.106,2.1-.187,4.433-.348,7.067-.426.914-.027,1.853-.079,2.848-.079.429-.027.912-.027,1.37-.054h.16c.51,0,1.047-.025,1.584-.025h1.666c.564-.025,1.129-.025,1.72-.025,7.149,0,12.52.276,16.525.68C-1342.108-479.641-1339.987-478.027-1339.5-477.3Z" transform="translate(1413.117 481.24)" fill="#144694"/>
        <path id="Path_265772" data-name="Path 265772" d="M-1396.32-384.689c-.771-8.7-5.4-32.039-7.1-55.725-1.309-18.5-.993-28.077-1.262-32.875.33-.1,6.7-.094,6.392,0,.269,4.8-.047,14.376,1.261,32.872C-1395.33-416.725-1394.854-368.62-1396.32-384.689Z" transform="translate(1425.473 492.78)" fill="#2458a4"/>
        <path id="Path_265773" data-name="Path 265773" d="M-1408.858-402.979c-1.069.407-1.333,6.979,2.568,9.63,3.359,2.282,8.459.742,8.62-.444.128-.931-2.873-1.18-6.6-4.369C-1407.491-400.914-1408.183-403.236-1408.858-402.979Z" transform="translate(1418.349 595.798)" fill="#2458a4"/>
        <path id="Path_265774" data-name="Path 265774" d="M-1339.5-477.7c-.027,2.122-.081,4.539-.138,7.119-.389,20.581-1.215,53.305-2.674,69.157-2.193,24.124-9.517,53.325-6.976,71.6.668,4.756,1.175,8.814,1.577,12.333.4,3.548.7,6.53.882,9.189,0,.163.025.323.025.485.136,1.639.215,3.142.266,4.566.054.968.081,1.91.106,2.794.054,1.478.052,2.876.052,4.246.027.35.054.7.054,1.074.025.537.052,1.129.079,1.747.027.483.027.966.025,1.506a94.656,94.656,0,0,1-.436,11.229c-.7,7.388-1.082,11.283-2.937,13.62a1.463,1.463,0,0,1-.429.537,6.2,6.2,0,0,1-3.334,1.612,15.984,15.984,0,0,1-1.639.456.849.849,0,0,1-.241.052,2.552,2.552,0,0,1-.429.108c-.244.054-.458.106-.727.16-.377.108-.806.187-1.262.269a5.167,5.167,0,0,1-.914.16c-.673.133-1.4.242-2.176.347-.323.054-.646.108-1,.136-.35.052-.7.079-1.047.133-.323.027-.646.079-1,.106-.348.054-.7.081-1.074.106-.7.081-1.479.136-2.257.214-2.094.16-4.487.32-7.119.426-.618.027-1.291.052-1.961.079-1.424.054-2.9.106-4.487.106-.968.025-1.989.052-3.009.052-1.237.025-2.526.025-3.842.025-2.5,0-4.729-.057-6.717-.14-.483-.027-.968-.054-1.424-.081-.619-.027-1.237-.054-1.8-.108a6.535,6.535,0,0,1-.752-.054,7.52,7.52,0,0,0-.779-.054q-.806-.081-1.531-.16c-.027,0-.054-.027-.081,0q-.928-.122-1.774-.244c-.027,0-.054-.027-.106-.027-.485-.054-.968-.135-1.4-.217a23.819,23.819,0,0,1-2.417-.537c-.3-.081-.564-.163-.833-.244a10.7,10.7,0,0,1-1.156-.429.519.519,0,0,1-.214-.108.1.1,0,0,1-.082-.027,4.059,4.059,0,0,1-.941-.564l-.133-.136c-.054-.052-.082-.079-.082-.106v-.027h-.027a27.994,27.994,0,0,1-3.27-11.017,17.285,17.285,0,0,1-.052-2.043,12.023,12.023,0,0,1,.082-1.4,18.95,18.95,0,0,1,.431-3.063v-.027c1.7-8.139,7.531-14.583,13.206-22.131.293,5.024.961,11.688,6.062,15.48,7.439,5.512,17.893,3.154,23.617-.737,8.065-5.478,9.576-15.606,11.333-34.627,2.949-32.456,3.42-56.392,4.428-79.659.737-16.981,1.249-19.908,1.8-38.527.33-10.236.549-20.689.717-29.878.057-2.846.111-5.562.141-8.115C-1342.108-480.045-1339.987-478.431-1339.5-477.7Z" transform="translate(1413.117 481.644)" fill="#0b141c" opacity="0.2"/>
        <path id="Path_265775" data-name="Path 265775" d="M-1346.331-405.555a94.683,94.683,0,0,1-.333,14.482c-.7,7.388-1.082,11.283-2.937,13.62a1.463,1.463,0,0,1-.429.537,6.2,6.2,0,0,1-3.334,1.612c-4.406,1.419-13.864,2.947-34.176,2.935-20.043-.012-22.111-3.078-22.246-3.265a27.994,27.994,0,0,1-3.27-11.017,22.652,22.652,0,0,1,.461-6.53c.508,2.617,1.094,6.651,3.413,8.358a9.834,9.834,0,0,0,3.287,1.217c5.406,1.368,11.2,1.449,16.742,1.5.54.005,1.079.007,1.619.01,20.312.012,29.77-1.515,34.178-2.908a6.369,6.369,0,0,0,3.332-1.639,1.308,1.308,0,0,0,.431-.537c1.855-2.336,2.232-6.2,2.937-13.62Q-1346.417-403.3-1346.331-405.555Z" transform="translate(1413.119 592.056)" fill="#1a1818"/>
        <path id="Path_265776" data-name="Path 265776" d="M-1347.436-477.3c-.027,2.122-.081,4.539-.138,7.119a68.651,68.651,0,0,0-11.794-2.264,145.989,145.989,0,0,0-17.3-.978c-4.891,0-9.3.182-13.139.5a101.79,101.79,0,0,0-17.789,2.73c-.052-2.767-.076-5.157-.1-7.173,1.022-.646,3.925-1.9,11.125-2.814l.483-.081c.673-.052,1.37-.133,2.07-.212.16-.027.323-.027.483-.054.456-.027.914-.081,1.37-.106,2.1-.187,4.433-.348,7.067-.426.914-.027,1.853-.079,2.848-.079.429-.027.912-.027,1.37-.054h.16c.51,0,1.047-.025,1.584-.025h1.666c.564-.025,1.129-.025,1.72-.025,7.149,0,12.52.276,16.525.68C-1350.041-479.641-1347.919-478.027-1347.436-477.3Z" transform="translate(1421.05 481.24)" fill="#2458a4"/>
      </g>
      <g id="Group_156829" data-name="Group 156829" transform="translate(-1330.99 -481.201)">
        <path id="Path_265777" data-name="Path 265777" d="M-1306.425-278v.187a17.826,17.826,0,0,1-.057,2.043,27.951,27.951,0,0,1-3.285,11.015h-.027v.025c0,.027-.027.054-.079.108l-.135.133a2.609,2.609,0,0,1-.377.269,4.667,4.667,0,0,1-.564.3.626.626,0,0,0-.133.081c-.054.027-.108.027-.163.054a11.215,11.215,0,0,1-1.156.429c-.269.079-.537.16-.833.241a23.9,23.9,0,0,1-2.417.535c-.431.081-.914.16-1.4.214-.054,0-.081.027-.108.027-.564.081-1.156.16-1.772.241-.027-.027-.054,0-.082,0-.483.052-1,.106-1.532.16-.269,0-.51.027-.779.052a6.517,6.517,0,0,1-.751.054c-.564.054-1.183.079-1.8.106-.456.027-.939.054-1.424.079-1.986.081-4.216.133-6.715.131-1.318,0-2.607,0-3.844-.03-1.021,0-2.041-.027-3.009-.054-1.584,0-3.063-.057-4.487-.111l-1.961-.081c-2.632-.108-5.022-.271-7.119-.434-.779-.081-1.557-.136-2.257-.217-.375-.027-.724-.054-1.074-.108-.348-.027-.67-.081-.993-.108-.35-.054-.7-.081-1.047-.133s-.673-.081-1-.136c-.779-.108-1.5-.217-2.176-.352a4.959,4.959,0,0,1-.914-.16c-.456-.081-.858-.163-1.235-.244l-.027-.027c-.269-.052-.483-.106-.725-.16a2.137,2.137,0,0,1-.4-.081l-.027-.027a.8.8,0,0,1-.242-.054,15.445,15.445,0,0,1-1.639-.456,6.212,6.212,0,0,1-3.329-1.614,1.527,1.527,0,0,1-.431-.54c-1.853-2.338-2.225-6.234-2.92-13.622a95.507,95.507,0,0,1-.424-11.232c0-.537,0-1.02.03-1.506.027-.616.054-1.207.081-1.745,0-.377.027-.727.054-1.074,0-1.373,0-2.77.057-4.246.027-.887.054-1.828.109-2.794.027-.456.027-.941.081-1.424.027-.993.108-2.043.19-3.144,0-.16.027-.32.027-.483.19-2.659.488-5.641.892-9.189.407-3.519.919-7.575,1.594-12.331,2.563-18.267-4.727-47.477-6.89-71.606-1.442-15.852-2.228-48.579-2.59-69.16-.052-2.58-.106-5-.131-7.119.486-.724,2.607-2.336,11.8-3.245,4-.4,9.379-.665,16.525-.66.591,0,1.156,0,1.72.027l1.666,0c.537,0,1.074.027,1.585.027h.162c.456.027.939.027,1.37.054.993,0,1.934.054,2.848.084,2.632.081,4.97.244,7.065.434.456.027.915.081,1.37.109.16.027.323.027.483.054.7.081,1.4.16,2.07.214l.483.081c7.2.919,10.1,2.183,11.121,2.829-.027,2.016-.057,4.406-.111,7.173-.141,7.683-.441,18.538-1.525,33.717-2.385,32.751-8.824,65.015-9.908,77.052-2.055,22.217-1.227,33.449,3.252,42.748.188.4.4.806.592,1.183a72.911,72.911,0,0,0,7.112,10.993c4.081,5.429,8.243,10.3,10.872,15.643a25.239,25.239,0,0,1,2.306,6.5v.027a18.933,18.933,0,0,1,.429,3.063A9.073,9.073,0,0,1-1306.425-278Z" transform="translate(1379.79 481.224)" fill="#144694"/>
        <path id="Path_265778" data-name="Path 265778" d="M-1310.35-279.206a19.7,19.7,0,0,0-.429-3.09,27.73,27.73,0,0,0-2.306-6.5c-.066-.138-.16-.271-.232-.409q-.791-1.549-1.735-3.058c-.177-.283-.347-.569-.53-.85q-1.072-1.649-2.267-3.287c-.328-.448-.675-.9-1.013-1.355-.527-.7-1.057-1.407-1.6-2.117-1.151-1.493-2.319-3-3.494-4.566-.67-.887-1.341-1.791-2-2.713-.158-.224-.311-.456-.469-.68-.488-.7-.973-1.4-1.447-2.124-.234-.357-.458-.734-.687-1.1-.375-.6-.747-1.2-1.1-1.816-.276-.476-.535-.966-.8-1.454-.409-.754-.823-1.5-1.2-2.289-4.48-9.3-5.308-20.531-3.252-42.748,1.084-12.037,7.523-44.3,9.908-77.052,1.084-15.179,1.385-26.034,1.525-33.717.054-2.767.083-5.157.111-7.173-1.02-.646-3.92-1.91-11.121-2.829l-.483-.081c-.673-.054-1.37-.133-2.07-.214-.16-.027-.323-.027-.483-.054-.456-.027-.914-.081-1.37-.109-2.094-.19-4.433-.352-7.065-.434-.914-.03-1.855-.084-2.848-.084-.431-.027-.914-.027-1.37-.054h-.162c-.51,0-1.047-.027-1.585-.027l-1.666,0c-.564-.027-1.129-.027-1.72-.027-2.526,0-4.834.025-6.932.1h.214c1,0,1.935.054,2.849.081,2.634.084,4.97.246,7.067.434.456.03.912.081,1.37.108.16.027.32.027.483.054.7.081,1.4.163,2.067.217l.485.081c7.2.917,10.1,2.183,11.121,2.829-.027,2.013-.057,4.406-.113,7.173-.138,7.683-.441,18.538-1.523,33.717-2.385,32.751-8.827,65.015-9.908,77.05-2.055,22.219-1.229,33.451,3.253,42.751,1.971,4.118,6.708,7.92,7.2,12.641.426,4.12-2.3,9.5-5.116,12.318-5.727,5.746-17.523,8.694-25.955,2.671a19.947,19.947,0,0,1-7.972-15.293c-.054.483-.054.968-.081,1.424-.054.966-.082,1.907-.109,2.794-.054,1.476-.057,2.873-.057,4.246-.027.347-.054.7-.054,1.074-.027.537-.054,1.129-.081,1.745-.027.485-.027.968-.03,1.506a95.507,95.507,0,0,0,.424,11.232c.695,7.388,1.067,11.284,2.92,13.622a1.527,1.527,0,0,0,.431.54,6.212,6.212,0,0,0,3.329,1.614,15.445,15.445,0,0,0,1.639.456c.081.027.163.054.269.081a2.137,2.137,0,0,0,.4.081c.242.054.456.108.752.187.377.081.779.163,1.235.244a4.959,4.959,0,0,0,.914.16c.673.135,1.4.244,2.176.352.323.054.646.081,1,.136s.7.079,1.047.133c.323.027.646.081.993.108.35.054.7.081,1.074.108.7.081,1.479.136,2.257.217,2.1.163,4.487.325,7.119.434l1.961.081c1.22.047,2.494.089,3.824.1-.076,0-.146,0-.224.01h.887c.969.027,1.989.054,3.009.054,1.237.03,2.525.03,3.844.03,2.5,0,4.729-.049,6.715-.131.486-.025.969-.052,1.424-.079.619-.027,1.237-.052,1.8-.106a6.517,6.517,0,0,0,.751-.054c.269-.025.51-.052.779-.052.537-.054,1.05-.108,1.532-.16.027,0,.054-.027.082,0,.616-.081,1.208-.16,1.772-.241.027,0,.054-.027.108-.027.483-.054.966-.133,1.4-.214a23.9,23.9,0,0,0,2.417-.535c.3-.081.564-.163.833-.241a11.215,11.215,0,0,0,1.156-.429c.054-.027.109-.027.163-.054a.626.626,0,0,1,.133-.081,4.546,4.546,0,0,0,.567-.3,3.05,3.05,0,0,0,.375-.266l.135-.133a.551.551,0,0,0,.106-.133,27.951,27.951,0,0,0,3.285-11.015,17.826,17.826,0,0,0,.057-2.043V-278A9.073,9.073,0,0,0-1310.35-279.206Z" transform="translate(1383.635 481.224)" fill="#0b141c" opacity="0.2"/>
        <path id="Path_265779" data-name="Path 265779" d="M-1368.766-384.671c-.771-8.7-5.4-32.042-7.1-55.725-1.311-18.5-.993-28.077-1.261-32.875.33-.1,6.7-.094,6.392,0,.269,4.8-.049,14.379,1.262,32.875C-1367.775-416.708-1367.3-368.6-1368.766-384.671Z" transform="translate(1383.691 492.765)" fill="#2458a4"/>
        <path id="Path_265780" data-name="Path 265780" d="M-1373.668-402.251c-.912.688.668,7.072,5.153,8.529,3.864,1.257,8.331-1.646,8.156-2.829-.14-.931-3.09-.333-7.56-2.356C-1371.777-400.652-1373.091-402.688-1373.668-402.251Z" transform="translate(1388.389 596.766)" fill="#2458a4"/>
        <path id="Path_265781" data-name="Path 265781" d="M-1377.022-405.549a94.919,94.919,0,0,0,.313,14.482c.695,7.388,1.069,11.284,2.922,13.622a1.479,1.479,0,0,0,.429.54,6.209,6.209,0,0,0,3.331,1.614c4.4,1.427,13.861,2.962,34.173,2.974,20.043.012,22.113-3.048,22.249-3.236a27.911,27.911,0,0,0,3.282-11.015,22.631,22.631,0,0,0-.451-6.53c-.512,2.617-1.1,6.648-3.425,8.354a9.829,9.829,0,0,1-3.287,1.215c-5.406,1.36-11.2,1.437-16.741,1.481-.542,0-1.082,0-1.622,0-20.312-.012-29.767-1.547-34.173-2.95a6.371,6.371,0,0,1-3.332-1.639,1.309,1.309,0,0,1-.428-.54c-1.853-2.339-2.228-6.207-2.92-13.622Q-1376.942-403.292-1377.022-405.549Z" transform="translate(1383.628 592.025)" fill="#1a1818"/>
        <path id="Path_265782" data-name="Path 265782" d="M-1379.789-477.318c.027,2.122.079,4.539.131,7.119a69.009,69.009,0,0,1,11.8-2.25,145.67,145.67,0,0,1,17.3-.956c4.891,0,9.3.195,13.139.517a101.652,101.652,0,0,1,17.784,2.752c.057-2.767.084-5.157.114-7.173-1.022-.646-3.923-1.91-11.123-2.829l-.483-.081c-.673-.054-1.37-.133-2.067-.214-.163-.027-.323-.027-.486-.054-.456-.027-.912-.081-1.37-.109-2.094-.19-4.433-.352-7.064-.434-.914-.03-1.856-.084-2.849-.084-.429-.027-.914-.027-1.37-.054h-.16c-.512,0-1.05-.027-1.587-.027l-1.666,0c-.564-.027-1.129-.027-1.72-.027-7.146-.005-12.52.261-16.522.66C-1377.179-479.654-1379.3-478.043-1379.789-477.318Z" transform="translate(1379.789 481.224)" fill="#2458a4"/>
      </g>
    </g>
  </g>
</svg>
