<svg xmlns="http://www.w3.org/2000/svg" width="180" height="180" viewBox="0 0 180 180">
  <g id="_6" data-name="6" transform="translate(-1067 -1609.061)">
    <circle id="Ellipse_6161" data-name="Ellipse 6161" cx="90" cy="90" r="90" transform="translate(1067 1609.061)" fill="#eef8ff"/>
    <g id="inventario" transform="translate(1078 1629)">
      <g id="Group_158184" data-name="Group 158184" transform="translate(3.516 3.516)">
        <g id="Group_158166" data-name="Group 158166" transform="translate(10.065 50.323)">
          <path id="Path_266781" data-name="Path 266781" d="M136.839,22V32.065H6V22H136.839Z" transform="translate(-6 -22)" fill="#aab2bd"/>
        </g>
        <g id="Group_158167" data-name="Group 158167" transform="translate(140.903 5.032)">
          <path id="Path_266782" data-name="Path 266782" d="M68.065,6.516V149.935H58V6.516A2.524,2.524,0,0,1,60.516,4h5.032A2.524,2.524,0,0,1,68.065,6.516Z" transform="translate(-58 -4)" fill="#aab2bd"/>
        </g>
        <g id="Group_158168" data-name="Group 158168" transform="translate(0 5.032)">
          <path id="Path_266783" data-name="Path 266783" d="M12.065,6.516V149.935H2V6.516A2.524,2.524,0,0,1,4.516,4H9.548A2.524,2.524,0,0,1,12.065,6.516Z" transform="translate(-2 -4)" fill="#aab2bd"/>
        </g>
        <g id="Group_158169" data-name="Group 158169" transform="translate(85.548 110.71)">
          <path id="Path_266784" data-name="Path 266784" d="M46.065,51.032V86.258H36V46H46.065Z" transform="translate(-36 -46)" fill="#ccd1d9"/>
        </g>
        <g id="Group_158170" data-name="Group 158170" transform="translate(55.355 110.71)">
          <path id="Path_266785" data-name="Path 266785" d="M54.194,46V86.258H34.065l-.478-4.781A22.5,22.5,0,0,0,24,65.173V46H54.194Z" transform="translate(-24 -46)" fill="#e6e9ed"/>
        </g>
        <g id="Group_158171" data-name="Group 158171" transform="translate(95.613 115.742)">
          <path id="Path_266786" data-name="Path 266786" d="M40,48H85.29V83.226H40Z" transform="translate(-40 -48)" fill="#fee1b4"/>
        </g>
        <g id="Group_158172" data-name="Group 158172" transform="translate(70.452 75.484)">
          <path id="Path_266787" data-name="Path 266787" d="M30,32V67.226H55.161v5.032H90.387V32Z" transform="translate(-30 -32)" fill="#fdba53"/>
        </g>
        <g id="Group_158173" data-name="Group 158173" transform="translate(20.129)">
          <path id="Path_266788" data-name="Path 266788" d="M60.323,2V22.129h-15.1V52.323H10V2H25.1V12.065H45.226V2Z" transform="translate(-10 -2)" fill="#fdba53"/>
        </g>
        <g id="Group_158174" data-name="Group 158174" transform="translate(80.516)">
          <path id="Path_266789" data-name="Path 266789" d="M84.323,2V52.323H49.1V22.129H34V2H49.1V12.065H69.226V2Z" transform="translate(-34 -2)" fill="#fdba53"/>
        </g>
        <g id="Group_158175" data-name="Group 158175" transform="translate(55.355 20.129)">
          <path id="Path_266790" data-name="Path 266790" d="M24,10H64.258V40.194H24Z" transform="translate(-24 -10)" fill="#fee1b4"/>
        </g>
        <g id="Group_158176" data-name="Group 158176" transform="translate(70.452 20.129)">
          <path id="Path_266791" data-name="Path 266791" d="M30,10H40.065V20.065H30Z" transform="translate(-30 -10)" fill="#fda929"/>
        </g>
        <g id="Group_158177" data-name="Group 158177" transform="translate(110.71 115.742)">
          <path id="Path_266792" data-name="Path 266792" d="M46,48H61.1V63.1H46Z" transform="translate(-46 -48)" fill="#fda929"/>
        </g>
        <g id="Group_158178" data-name="Group 158178" transform="translate(90.581 75.484)">
          <path id="Path_266793" data-name="Path 266793" d="M38,32H58.129V42.065H38Z" transform="translate(-38 -32)" fill="#fda929"/>
        </g>
        <g id="Group_158179" data-name="Group 158179" transform="translate(95.613)">
          <path id="Path_266794" data-name="Path 266794" d="M40,2H60.129V12.065H40Z" transform="translate(-40 -2)" fill="#fda929"/>
        </g>
        <g id="Group_158180" data-name="Group 158180" transform="translate(35.226)">
          <path id="Path_266795" data-name="Path 266795" d="M16,2H36.129V12.065H16Z" transform="translate(-16 -2)" fill="#fda929"/>
        </g>
        <g id="Group_158181" data-name="Group 158181" transform="translate(0 125.806)">
          <path id="Path_266796" data-name="Path 266796" d="M52.323,77.161H2l.478-4.781A22.631,22.631,0,0,1,25,52H44.422a22.725,22.725,0,0,1,12.933,4.051v.025a22.5,22.5,0,0,1,9.586,16.3l.478,4.781Z" transform="translate(-2 -52)" fill="#20cb7d"/>
        </g>
        <g id="Group_158182" data-name="Group 158182" transform="translate(10.065 60.387)">
          <path id="Path_266797" data-name="Path 266797" d="M8.34,54.055A17.209,17.209,0,0,1,6,45.374,19.388,19.388,0,0,1,25.374,26h23.4a2.524,2.524,0,0,1,2.516,2.516v5.032a12.374,12.374,0,0,1-4,9.134,13.281,13.281,0,0,1-9.108,3.447H31.438a5.458,5.458,0,0,1-3.346-1.107l-.025.025L26.129,56.194A5.047,5.047,0,0,0,21.1,61.226a6.055,6.055,0,0,0,1.786,4.3l3.246,3.246v1.912A9.092,9.092,0,0,1,21.1,78.839l-6.945-3.472A14.73,14.73,0,0,1,7.56,55.59Z" transform="translate(-6 -26)" fill="#29398a"/>
        </g>
        <g id="Group_158183" data-name="Group 158183" transform="translate(25.161 77.069)">
          <path id="Path_266798" data-name="Path 266798" d="M18.995,34.97a5.458,5.458,0,0,0,3.346,1.107h6.743a13.281,13.281,0,0,0,9.108-3.447l.025.025A75.69,75.69,0,0,1,47.226,53.69l-5.032,2.516v2.516A12.585,12.585,0,0,1,29.613,71.3H27.1V81.367H12V68.787a9.092,9.092,0,0,0,5.032-8.152V58.722l-3.246-3.246A6.055,6.055,0,0,1,12,51.174a5.047,5.047,0,0,1,5.032-5.032L18.97,35Z" transform="translate(-12 -32.63)" fill="#f0d0b4"/>
        </g>
      </g>
      <g id="Group_158185" data-name="Group 158185" transform="translate(1 1)">
        <path id="Path_266799" data-name="Path 266799" d="M151.968,6.032h-5.032a5.037,5.037,0,0,0-5.032,5.032V51.323h-5.032V1H81.516V21.129H76.484V1H21.129V51.323H16.1V11.065a5.037,5.037,0,0,0-5.032-5.032H6.032A5.037,5.037,0,0,0,1,11.065V157H157V11.065A5.037,5.037,0,0,0,151.968,6.032Zm-50.323,0h5.032v5.032h-5.032Zm10.065,0h5.032v5.032H111.71Zm-25.161,0H96.613V16.1h25.161V6.032h10.064v45.29H101.645V21.129h-15.1Zm0,20.129H96.613V51.323H61.387V26.161H71.452V36.226h15.1Zm-5.032,0v5.032H76.484V26.161ZM41.258,6.032H46.29v5.032H41.258Zm10.065,0h5.032v5.032H51.323Zm-25.161,0H36.226V16.1H61.387V6.032H71.452v15.1h-15.1V51.323H26.161ZM141.9,56.355v5.032H16.1V56.355ZM51.323,146.935v5.032H21.129v-5.032H16.1v5.032H6.3l.2-2a20.065,20.065,0,0,1,20.028-18.126h19.4a20.065,20.065,0,0,1,20.028,18.126l.2,2h-9.8v-5.032ZM16.1,66.419h2.921A22.12,22.12,0,0,0,16.1,69.343Zm.377,30.7,2.642,3.523,4.026-3.019-4.079-5.437a14.912,14.912,0,0,1-2.967-8.9A16.859,16.859,0,0,1,32.96,66.419H56.355v5.032c0,5.644-4.655,10.065-10.593,10.065H39.011a2.709,2.709,0,0,1-2.649-1.666,2.562,2.562,0,0,1,.355-2.343,2.492,2.492,0,0,1,2.025-1.024h2.516V71.452H38.742a7.564,7.564,0,0,0-7.194,9.876,6.957,6.957,0,0,0,1.4,2.478L31.538,91.9a7.565,7.565,0,0,0-5.377,7.231,8.536,8.536,0,0,0,2.516,6.074l2.516,2.516v.881a6.552,6.552,0,0,1-2.632,5.271l-5.714-2.856a12.163,12.163,0,0,1-6.373-13.9ZM46.29,126.824v-5.05A15.019,15.019,0,0,0,56.355,117.9v11.174A25.158,25.158,0,0,0,46.29,126.824Zm10.065-20.147A10.075,10.075,0,0,1,46.29,116.742H41.258v10.065H31.194v-8.635a11.549,11.549,0,0,0,5.032-9.574v-2.964l-3.988-3.988a3.53,3.53,0,0,1-1.044-2.516,2.519,2.519,0,0,1,2.516-2.516h2.116l1.779-10.2a8.094,8.094,0,0,0,1.4.131h6.751a16.131,16.131,0,0,0,8.369-2.3,72.569,72.569,0,0,1,6.814,16.06l-4.587,2.295Zm14.609,42.787a25.193,25.193,0,0,0-.387-2.529h10.94V141.9H68.981a25.008,25.008,0,0,0-7.594-9.8V116.742H86.548v35.226H71.213Zm20.617-32.722h5.032v35.226H91.581Zm-15.1-5.032V81.516h15.1V91.581h25.161V81.516h15.1v35.226H101.645V111.71ZM111.71,81.516v5.032h-5.032V81.516Zm-10.065,5.032H96.613V81.516h5.032Zm15.1,35.226h10.065v10.065H116.742Zm-45.29-45.29V111.71H60.506a14.973,14.973,0,0,0,.881-5.032v-.961l5.447-2.722-.488-1.958a77.186,77.186,0,0,0-8.333-20.121,14.808,14.808,0,0,0,3.374-9.463V66.419H141.9v50.323h-5.032V76.484ZM11.065,11.065V83.28A19.924,19.924,0,0,0,13.1,91.943l-.216.433A17.247,17.247,0,0,0,20.6,115.517l5.563,2.78v8.527A25.051,25.051,0,0,0,6.032,137.369V11.065Zm90.581,140.9V121.774H111.71v15.1h20.129v-15.1H141.9v30.194Zm50.323,0h-5.032V11.065h5.032Z" transform="translate(-1 -1)"/>
        <path id="Path_266800" data-name="Path 266800" d="M27,49H42.1v5.032H27Z" transform="translate(38.419 71.774)"/>
        <path id="Path_266801" data-name="Path 266801" d="M27,53H42.1v5.032H27Z" transform="translate(38.419 77.839)"/>
      </g>
    </g>
  </g>
</svg>
