<svg xmlns="http://www.w3.org/2000/svg" width="97.307" height="173.01" viewBox="0 0 97.307 173.01">
  <g id="_6" data-name="6" transform="translate(1207.857 -2632.727)">
    <g id="Group_157283" data-name="Group 157283" transform="translate(-1207.857 2632.727)">
      <rect id="Rectangle_295568" data-name="Rectangle 295568" width="46.019" height="167.364" rx="1.632" transform="translate(0 5.646)" fill="#161d31"/>
      <path id="Path_266333" data-name="Path 266333" d="M-1207.857,2682.845v-43.439a4.731,4.731,0,0,1,4.729-4.732h36.558a4.733,4.733,0,0,1,4.732,4.732v43.439Z" transform="translate(1207.858 -2629.029)" fill="#de9905"/>
      <rect id="Rectangle_295569" data-name="Rectangle 295569" width="14.838" height="5.645" transform="translate(15.591 0.001)" fill="#78540c"/>
      <rect id="Rectangle_295570" data-name="Rectangle 295570" width="5.269" height="91.065" transform="translate(28.762 55.709)" fill="#b9272d"/>
      <rect id="Rectangle_295571" data-name="Rectangle 295571" width="12.365" height="91.065" transform="translate(14.892 55.709)" fill="#415da6"/>
      <path id="Path_266334" data-name="Path 266334" d="M-1184.618,2648.05a9.244,9.244,0,0,1-9.247,9.247,9.246,9.246,0,0,1-9.246-9.247,9.248,9.248,0,0,1,9.246-9.247A9.246,9.246,0,0,1-1184.618,2648.05Z" transform="translate(1216.873 -2621.185)" fill="#161d31"/>
      <g id="Group_157280" data-name="Group 157280" transform="translate(15.568 19.192)">
        <path id="Path_266335" data-name="Path 266335" d="M-1194.123,2639.346v6.78h6.518v1.731h-6.518v6.834h-1.847v-6.834h-6.519v-1.731h6.519v-6.78Z" transform="translate(1202.488 -2639.346)" fill="#fff"/>
      </g>
      <g id="Group_157282" data-name="Group 157282" transform="translate(14.628 149.892)">
        <circle id="Ellipse_6349" data-name="Ellipse 6349" cx="9.247" cy="9.247" r="9.247" fill="#415da6"/>
        <g id="Group_157281" data-name="Group 157281" transform="translate(8.381 1.913)">
          <path id="Path_266336" data-name="Path 266336" d="M-1199.922,2685.081h1.731v14.884h-1.731Z" transform="translate(1199.922 -2685.081)" fill="#fff"/>
        </g>
      </g>
      <path id="Path_266337" data-name="Path 266337" d="M-1184.849,2632.728h-7.417v5.645h-10.862a4.729,4.729,0,0,0-4.729,4.732V2801a4.729,4.729,0,0,0,4.729,4.732h19.146Z" transform="translate(1207.858 -2632.728)" fill="#040506" opacity="0.2"/>
      <path id="Path_266338" data-name="Path 266338" d="M-1194.627,2795.726h-.061V2636.49h.061a6.218,6.218,0,0,1,6.22,6.219v146.8A6.22,6.22,0,0,1-1194.627,2795.726Z" transform="translate(1232.873 -2625.581)" fill="#fff" opacity="0.2"/>
      <path id="Path_266339" data-name="Path 266339" d="M-1190.25,2636.4c1.073,1.249,1.406,2.723.748,3.285s-2.062.009-3.131-1.241-1.406-2.719-.748-3.284S-1191.32,2635.154-1190.25,2636.4Z" transform="translate(1234.713 -2628.521)" fill="#fff"/>
      <path id="Path_266340" data-name="Path 266340" d="M-1191.5,2637.435c.571.664.748,1.447.4,1.749s-1.1.005-1.667-.662-.748-1.447-.4-1.748S-1192.076,2636.768-1191.5,2637.435Z" transform="translate(1235.411 -2625.265)" fill="#fff"/>
    </g>
    <g id="Group_157287" data-name="Group 157287" transform="translate(-1156.57 2632.727)">
      <rect id="Rectangle_295572" data-name="Rectangle 295572" width="46.019" height="167.364" rx="1.632" transform="translate(0 5.646)" fill="#de9905"/>
      <path id="Path_266341" data-name="Path 266341" d="M-1190.169,2682.845v-43.439a4.73,4.73,0,0,1,4.729-4.732h36.558a4.733,4.733,0,0,1,4.732,4.732v43.439Z" transform="translate(1190.17 -2629.029)" fill="#d72931"/>
      <rect id="Rectangle_295573" data-name="Rectangle 295573" width="14.838" height="5.645" transform="translate(15.591 0.001)" fill="#811c20"/>
      <rect id="Rectangle_295574" data-name="Rectangle 295574" width="5.269" height="91.065" transform="translate(28.762 55.709)" fill="#fff"/>
      <rect id="Rectangle_295575" data-name="Rectangle 295575" width="20.27" height="85.433" rx="3.46" transform="translate(6.128 61.342)" fill="#d85010"/>
      <circle id="Ellipse_6350" data-name="Ellipse 6350" cx="9.247" cy="9.247" r="9.247" transform="translate(13.763 17.619)" fill="#de9905"/>
      <g id="Group_157284" data-name="Group 157284" transform="translate(15.566 19.192)">
        <path id="Path_266342" data-name="Path 266342" d="M-1176.433,2639.346v6.78h6.519v1.731h-6.519v6.834h-1.847v-6.834h-6.521v-1.731h6.521v-6.78Z" transform="translate(1184.801 -2639.346)" fill="#040506"/>
      </g>
      <g id="Group_157286" data-name="Group 157286" transform="translate(14.628 149.892)">
        <circle id="Ellipse_6351" data-name="Ellipse 6351" cx="9.247" cy="9.247" r="9.247" fill="#d72931"/>
        <g id="Group_157285" data-name="Group 157285" transform="translate(8.381 1.913)">
          <path id="Path_266343" data-name="Path 266343" d="M-1182.234,2685.081h1.731v14.884h-1.731Z" transform="translate(1182.234 -2685.081)" fill="#fff"/>
        </g>
      </g>
      <path id="Path_266344" data-name="Path 266344" d="M-1167.161,2632.728h-7.417v5.645h-10.862a4.729,4.729,0,0,0-4.729,4.732V2801a4.729,4.729,0,0,0,4.729,4.732h19.146Z" transform="translate(1190.17 -2632.728)" fill="#040506" opacity="0.2"/>
      <path id="Path_266345" data-name="Path 266345" d="M-1177.109,2795.726h-.064V2636.49h.064a6.218,6.218,0,0,1,6.22,6.219v146.8A6.22,6.22,0,0,1-1177.109,2795.726Z" transform="translate(1214.857 -2625.581)" fill="#fff" opacity="0.2"/>
      <path id="Path_266346" data-name="Path 266346" d="M-1172.733,2636.514c1.07,1.25,1.406,2.72.748,3.285s-2.062.008-3.134-1.241-1.406-2.723-.745-3.285S-1173.806,2635.264-1172.733,2636.514Z" transform="translate(1216.698 -2628.311)" fill="#fff"/>
    </g>
  </g>
</svg>
