<svg xmlns="http://www.w3.org/2000/svg" xmlns:xlink="http://www.w3.org/1999/xlink" width="400" height="296.095" viewBox="0 0 400 296.095">
  <defs>
    <linearGradient id="linear-gradient" x1="0.5" x2="0.5" y2="1" gradientUnits="objectBoundingBox">
      <stop offset="0" stop-color="#d8ccec"/>
      <stop offset="1" stop-color="#c3fff8"/>
    </linearGradient>
  </defs>
  <g id="_7" data-name="7" transform="translate(-180 -2562)">
    <rect id="BG" width="400" height="296.095" rx="14" transform="translate(180 2562)" fill="url(#linear-gradient)"/>
    <circle id="Ellipse_6324" data-name="Ellipse 6324" cx="113.5" cy="113.5" r="113.5" transform="translate(265 2596.882)" fill="#fff"/>
    <g id="Group_156791" data-name="Group 156791" transform="translate(1705.061 2935.917)">
      <g id="Group_156786" data-name="Group 156786" transform="translate(-1351.449 -345.035)">
        <path id="Path_265654" data-name="Path 265654" d="M-1237.991-289.89c-1.048,11.009-15.1,22.051-33.547,23.851-37.7,3.675-37.748-6.845-60.094-7.876-3.951-.181-7.568-.47-10.832-.516l.647-11.807c0-1.12-5.2,0-6.316,0h-23.06a2.025,2.025,0,0,0-2.026,2.026v.8h-.158c-4.05,0-8.605-4.391-10.369-2.4-.052-1.432-.1-2.647-.1-2.706-.9.089-.407,8.664-.095,10.766l0,.023a76.518,76.518,0,0,0,1.843,10.51c1.067,4.513,4.04,8.484,8.267,9.558a1.284,1.284,0,0,1,1.3-1.048l.122,0a1.291,1.291,0,0,1,1.255,1.324l0,.006h5.173a1.645,1.645,0,0,1,1.527-1.028h1.948a1.641,1.641,0,0,1,1.524,1.028h6.181a1.641,1.641,0,0,1,1.524-1.028h1.948a1.645,1.645,0,0,1,1.527,1.028h4.49a2.027,2.027,0,0,0,2.026-2.026l.572-10.431a38.842,38.842,0,0,1,11.082-1c14.7.677,14.635,4.546,25.923,10.967,2.213,1.261,5.758,2.023,10,2.417a1.645,1.645,0,0,1,1.494-.959h1.951a1.642,1.642,0,0,1,1.6,1.255c2.979.089,6.149.046,9.345-.092a1.644,1.644,0,0,1,1.573-1.163h1.948a1.648,1.648,0,0,1,1.455.874c1.626-.118,3.235-.256,4.808-.407q1.349-.133,2.67-.332a1.642,1.642,0,0,1,1.208-1.212l1.9-.46a1.642,1.642,0,0,1,1.757.693,47.039,47.039,0,0,0,8.493-3.022,1.644,1.644,0,0,1,.884-1.931l1.764-.828a1.641,1.641,0,0,1,1.856.319c8.145-5.087,13.193-12.254,13.266-19.131C-1237.738-284.379-1237.738-289.89-1237.991-289.89Z" transform="translate(1389.605 471.008)" fill="#131a24"/>
        <path id="Path_265655" data-name="Path 265655" d="M-1238.161-290.411c-1.048,11.009-15.1,21.657-33.547,23.457-37.705,3.675-37.751-7.2-60.095-8.234-19.22-.887-24.386,6.066-40.543,3.081-7.1-1.31-11.229-9.173-11.393-14.924,0-.148-.006-.292-.01-.437-.953.1-.611,2.706-.309,4.079,1.229,5.62,5.258,13,12.356,14.31,16.156,2.986,20.678-3.915,39.9-3.028,22.344,1.031,22.389,11.909,60.095,8.234,19.4-1.892,33.672-14.307,33.793-25.9C-1237.908-290.309-1237.908-290.411-1238.161-290.411Z" transform="translate(1389.568 469.817)" fill="#ca5506"/>
        <g id="Group_156783" data-name="Group 156783" transform="translate(0 7.702)">
          <path id="Path_265656" data-name="Path 265656" d="M-1234.3-172.841c-.519-17.913-10.828-22.56-22.393-21.365-24.183,2.5-33.2-.719-40.884-10.848-8.628-11.364-1.008-95.9,3.363-137.636h-91.743c2.138,19.69,5.008,47.5,6.22,65.205,1.015,14.832,1.81,29.031,2.476,40.979.923,16.511,2.582,34.148,2.654,34.979.975,10.98-6.057,15.328-5.521,33.921.164,5.751,4.292,13.614,11.393,14.924,16.156,2.986,21.323-3.967,40.543-3.081,22.344,1.031,22.389,11.909,60.095,8.234C-1248.7-149.42-1233.963-161.247-1234.3-172.841Z" transform="translate(1385.955 342.69)" fill="#ea9300"/>
        </g>
        <g id="Group_156784" data-name="Group 156784" transform="translate(0 7.702)">
          <path id="Path_265657" data-name="Path 265657" d="M-1268.094-147.528c-37.705,3.675-37.751-7.2-60.095-8.234-19.22-.887-24.386,6.066-40.543,3.081-7.1-1.31-11.229-9.173-11.393-14.924-.535-18.593,6.5-22.945,5.521-33.921-.026-.286-.243-2.6-.555-6.2-.581-6.746-1.5-18.005-2.1-28.781-.666-11.945-1.461-26.147-2.476-40.979-.781-11.42-2.253-27.034-3.77-41.965-.838-8.231-1.692-16.248-2.45-23.24h91.743c-4.372,41.738-11.991,126.268-3.363,137.636,7.685,10.129,16.7,13.348,40.884,10.848,11.564-1.2,21.874,3.455,22.393,21.365C-1233.963-161.247-1248.694-149.42-1268.094-147.528Z" transform="translate(1385.955 342.69)" fill="#f0741c"/>
        </g>
        <g id="Group_156785" data-name="Group 156785" transform="translate(0 7.702)">
          <path id="Path_265658" data-name="Path 265658" d="M-1299.06-289.466c1.475-19.654,3.353-38.943,4.848-53.224h-91.743c1.7,15.66,3.866,36.457,5.288,53.224Z" transform="translate(1385.955 342.69)" fill="#131a24"/>
        </g>
        <path id="Path_265659" data-name="Path 265659" d="M-1294.212-337.379v-4.595a3.062,3.062,0,0,0-3.061-3.061h-85.617a3.065,3.065,0,0,0-3.064,3.061v4.595Z" transform="translate(1385.955 345.035)" fill="#f0741c"/>
        <path id="Path_265660" data-name="Path 265660" d="M-1347.734-319.8v80.1a15.816,15.816,0,0,1-15.818,15.814h-13.312c-.581-6.746-1.5-18.005-2.1-28.781-.667-11.945-1.461-26.147-2.477-40.979-.781-11.42-2.253-27.034-3.77-41.965h21.657A15.816,15.816,0,0,1-1347.734-319.8Z" transform="translate(1387.659 366.556)" fill="#131a24"/>
        <path id="Path_265661" data-name="Path 265661" d="M-1362.9-297.791a9.337,9.337,0,0,1-9.334,9.334h0a9.334,9.334,0,0,1-9.334-9.334v-7.873a9.334,9.334,0,0,1,9.334-9.334h0a9.337,9.337,0,0,1,9.334,9.334Z" transform="translate(1395.983 413.651)" fill="#ea9300"/>
        <rect id="Rectangle_294645" data-name="Rectangle 294645" width="43.247" height="6.538" transform="translate(39.923 46.732)" fill="#f0741c"/>
        <rect id="Rectangle_294646" data-name="Rectangle 294646" width="43.247" height="6.538" transform="translate(39.923 33.847)" fill="#f0741c"/>
      </g>
      <g id="Group_156790" data-name="Group 156790" transform="translate(-1401.06 -331.533)">
        <path id="Path_265662" data-name="Path 265662" d="M-1253.1-285.779c-1.048,11.009-15.1,22.055-33.547,23.851-37.7,3.675-37.747-6.845-60.094-7.876-3.951-.181-7.567-.466-10.832-.516l.647-11.807c0-1.12-5.2,0-6.319,0H-1386.3a2.025,2.025,0,0,0-2.027,2.026v.8h-.157c-4.05,0-8.6-4.388-10.369-2.4-.052-1.432-.1-2.647-.1-2.706-.9.089-.407,8.668-.095,10.766l0,.023a76.454,76.454,0,0,0,1.843,10.51c1.064,4.513,4.04,8.484,8.267,9.558a1.287,1.287,0,0,1,1.3-1.048l.121,0a1.29,1.29,0,0,1,1.251,1.324v.007h5.173a1.644,1.644,0,0,1,1.524-1.028h1.951a1.641,1.641,0,0,1,1.524,1.028h6.181a1.641,1.641,0,0,1,1.524-1.028h1.948a1.636,1.636,0,0,1,1.524,1.028h4.493a2.025,2.025,0,0,0,2.026-2.026l.572-10.431a38.823,38.823,0,0,1,11.081-1c14.7.68,14.635,4.546,25.924,10.97,2.214,1.258,5.758,2.023,10,2.417a1.642,1.642,0,0,1,1.494-.962h1.951a1.641,1.641,0,0,1,1.6,1.258c2.979.085,6.149.043,9.345-.1a1.644,1.644,0,0,1,1.573-1.163h1.948a1.651,1.651,0,0,1,1.455.874c1.623-.115,3.235-.253,4.808-.407q1.35-.133,2.667-.332a1.639,1.639,0,0,1,1.212-1.209l1.9-.46a1.643,1.643,0,0,1,1.758.69,47.292,47.292,0,0,0,8.493-3.018,1.641,1.641,0,0,1,.884-1.931l1.764-.831a1.646,1.646,0,0,1,1.855.319c8.146-5.087,13.194-12.254,13.266-19.132C-1252.843-280.268-1252.843-285.779-1253.1-285.779Z" transform="translate(1404.71 466.897)" fill="#131a24"/>
        <path id="Path_265663" data-name="Path 265663" d="M-1253.266-286.3c-1.048,11.009-15.1,21.657-33.547,23.454-37.7,3.675-37.751-7.2-60.094-8.234-19.22-.883-24.386,6.066-40.546,3.084-7.1-1.314-11.226-9.177-11.39-14.928-.006-.145-.006-.289-.01-.437-.953.1-.611,2.706-.309,4.079,1.228,5.62,5.258,13,12.356,14.31,16.156,2.986,20.678-3.915,39.9-3.028,22.344,1.031,22.39,11.909,60.094,8.234,19.4-1.892,33.672-14.307,33.793-25.9C-1253.013-286.2-1253.013-286.3-1253.266-286.3Z" transform="translate(1404.673 465.709)" fill="#f78c00"/>
        <g id="Group_156787" data-name="Group 156787" transform="translate(0 7.702)">
          <path id="Path_265664" data-name="Path 265664" d="M-1249.406-168.73c-.516-17.91-10.825-22.557-22.39-21.365-24.183,2.5-33.2-.719-40.884-10.845-8.628-11.367-1.008-95.9,3.363-137.639h-91.743c2.135,19.69,5.009,47.5,6.221,65.2,1.015,14.836,1.81,29.034,2.477,40.979.923,16.511,2.578,34.151,2.654,34.979.975,10.98-6.056,15.328-5.521,33.921.165,5.751,4.293,13.614,11.39,14.928,16.16,2.982,21.326-3.968,40.546-3.084,22.344,1.031,22.39,11.909,60.094,8.234C-1263.8-145.309-1249.068-157.136-1249.406-168.73Z" transform="translate(1401.06 338.579)" fill="#ffa700"/>
        </g>
        <g id="Group_156788" data-name="Group 156788" transform="translate(0 7.702)">
          <path id="Path_265665" data-name="Path 265665" d="M-1283.2-143.414c-37.7,3.672-37.751-7.206-60.094-8.234-19.22-.89-24.386,6.063-40.543,3.081-7.1-1.314-11.226-9.177-11.393-14.928-.634-21.953,6.5-22.942,5.521-33.921-.026-.286-.243-2.6-.555-6.194-.581-6.749-1.5-18.008-2.1-28.784-.667-11.945-1.462-26.147-2.477-40.979-.782-11.42-2.253-27.034-3.77-41.965-.838-8.227-1.692-16.248-2.451-23.24h91.743c-4.372,41.738-11.991,126.268-3.363,137.639,7.685,10.126,16.7,13.344,40.884,10.848,11.564-1.2,21.871,3.452,22.393,21.362C-1249.068-157.136-1263.8-145.306-1283.2-143.414Z" transform="translate(1401.06 338.579)" fill="#ffbc00"/>
        </g>
        <g id="Group_156789" data-name="Group 156789" transform="translate(0 7.702)">
          <path id="Path_265666" data-name="Path 265666" d="M-1314.165-285.352c1.475-19.657,3.353-38.946,4.848-53.227h-91.743c1.7,15.663,3.866,36.46,5.288,53.227Z" transform="translate(1401.06 338.579)" fill="#1b2739"/>
        </g>
        <path id="Path_265667" data-name="Path 265667" d="M-1309.317-333.268v-4.592a3.065,3.065,0,0,0-3.061-3.064H-1398a3.066,3.066,0,0,0-3.065,3.064v4.592Z" transform="translate(1401.06 340.924)" fill="#ffc000"/>
        <path id="Path_265668" data-name="Path 265668" d="M-1362.842-315.689v80.1a15.815,15.815,0,0,1-15.814,15.814h-13.312c-.581-6.749-1.5-18.008-2.1-28.784-.667-11.945-1.462-26.147-2.477-40.979-.782-11.42-2.253-27.034-3.77-41.965h21.657A15.813,15.813,0,0,1-1362.842-315.689Z" transform="translate(1402.764 362.445)" fill="#1b2739"/>
        <path id="Path_265669" data-name="Path 265669" d="M-1378-293.682a9.337,9.337,0,0,1-9.334,9.334h0a9.335,9.335,0,0,1-9.334-9.334v-7.869a9.333,9.333,0,0,1,9.334-9.334h0a9.335,9.335,0,0,1,9.334,9.334Z" transform="translate(1411.089 409.543)" fill="#ffc000"/>
        <rect id="Rectangle_294647" data-name="Rectangle 294647" width="43.247" height="6.538" transform="translate(39.923 46.733)" fill="#ffc000"/>
        <rect id="Rectangle_294648" data-name="Rectangle 294648" width="43.247" height="6.539" transform="translate(39.923 33.848)" fill="#ffc000"/>
      </g>
    </g>
  </g>
</svg>
