<svg xmlns="http://www.w3.org/2000/svg" width="180" height="180" viewBox="0 0 180 180">
  <g id="_7" data-name="7" transform="translate(-11747 -1760.37)">
    <circle id="Ellipse_6159" data-name="Ellipse 6159" cx="90" cy="90" r="90" transform="translate(11747 1760.37)" fill="#eef8ff"/>
    <g id="no-pasar" transform="translate(11753.843 1767.667)">
      <path id="Path_266978" data-name="Path 266978" d="M77.958,165.594,11.946,99.581a15.29,15.29,0,0,1,0-21.623L77.958,11.946a15.29,15.29,0,0,1,21.623,0l66.012,66.012a15.29,15.29,0,0,1,0,21.623L99.581,165.594a15.29,15.29,0,0,1-21.623,0Z" transform="translate(-5.025 -5.025)" fill="#20cb7d"/>
      <path id="Path_266979" data-name="Path 266979" d="M49.965,112.927l62.963-62.963a4.907,4.907,0,0,1,6.94,0l62.963,62.963a4.907,4.907,0,0,1,0,6.94L119.868,182.83a4.907,4.907,0,0,1-6.94,0L49.965,119.868a4.908,4.908,0,0,1,0-6.94Z" transform="translate(-32.653 -32.652)" fill="#fdc165"/>
      <path id="Path_266980" data-name="Path 266980" d="M199.4,178.307a12.727,12.727,0,0,0,2.684-7.794V116.961a5.108,5.108,0,0,0-10.216,0V101.637a5.108,5.108,0,0,0-10.216,0V96.529a5.108,5.108,0,1,0-10.216,0v10.216a5.108,5.108,0,1,0-10.216,0v36.617a2.284,2.284,0,0,1-4.232,1.064c-3.3-5.486-6.652-11.342-12.629-14.7-4.732-2.655-8.895.545-4.153,8.807A80.221,80.221,0,0,1,150.578,170.7c1.5,18.033,10.375,5.71,10.646,16.337v12.669l11.987,11.987a4.907,4.907,0,0,0,6.94,0l11.721-11.721V187.037C192.12,183.727,197.4,180.927,199.4,178.307Z" transform="translate(-92.936 -61.515)" fill="#ffcec0"/>
      <g id="Group_158262" data-name="Group 158262" transform="translate(45.183 29.906)">
        <path id="Path_266981" data-name="Path 266981" d="M246.522,142.664V96.529a5.1,5.1,0,0,1,1.836-3.921h0a5.106,5.106,0,0,0-8.379,3.921V142.5C239.979,146.432,246.522,146.623,246.522,142.664Z" transform="translate(-206.658 -91.421)" fill="#ffb2a1"/>
        <path id="Path_266982" data-name="Path 266982" d="M271.208,112.143v40.864c0,3.931,6.544,4.122,6.544.163V112.144a5.1,5.1,0,0,1,1.836-3.921l-.007-.008a5.107,5.107,0,0,0-8.373,3.928Z" transform="translate(-227.671 -101.927)" fill="#ffb2a1"/>
        <path id="Path_266983" data-name="Path 266983" d="M307.545,153.879a5.108,5.108,0,0,0-5.108,5.108v25.54c0,3.931,6.544,4.122,6.544.163v-25.7a5.1,5.1,0,0,1,1.836-3.921,5.088,5.088,0,0,0-3.272-1.187Z" transform="translate(-248.684 -133.447)" fill="#ffb2a1"/>
        <path id="Path_266984" data-name="Path 266984" d="M209.113,168.108V127.759a5.1,5.1,0,0,1,1.836-3.921h0a5.107,5.107,0,0,0-8.379,3.922v36.617a2.379,2.379,0,0,1-3,2.1A63.911,63.911,0,0,1,205.531,170,2.289,2.289,0,0,0,209.113,168.108Z" transform="translate(-179.465 -112.435)" fill="#ffb2a1"/>
        <path id="Path_266985" data-name="Path 266985" d="M179.755,288.616,167.769,276.63V263.961c-.271-10.627-9.147,1.7-10.646-16.337a80.221,80.221,0,0,0-10.368-32.162c-2.283-3.978-2.5-6.778-1.584-8.321-.266-.166-.531-.331-.807-.486-4.732-2.655-8.895.545-4.153,8.807a80.22,80.22,0,0,1,10.368,32.162c1.5,18.033,10.375,5.71,10.646,16.337V276.63l11.987,11.987a4.9,4.9,0,0,0,6.742.179C179.888,288.736,179.819,288.68,179.755,288.616Z" transform="translate(-138.12 -168.345)" fill="#ffb2a1"/>
      </g>
      <path id="Path_266986" data-name="Path 266986" d="M87.773,165.6,21.761,99.586a15.29,15.29,0,0,1,0-21.623L87.773,11.95a15.222,15.222,0,0,1,5.9-3.67,15.287,15.287,0,0,0-15.719,3.67L11.946,77.963a15.29,15.29,0,0,0,0,21.623L77.958,165.6a15.289,15.289,0,0,0,15.719,3.67,15.223,15.223,0,0,1-5.9-3.67Z" transform="translate(-5.025 -5.029)" fill="#19a264"/>
      <g id="Group_158263" data-name="Group 158263" transform="translate(0 0)">
        <path id="Path_266987" data-name="Path 266987" d="M118.176,133.481,92.824,158.833a12.858,12.858,0,0,1-18.156,0L8.657,92.824a12.858,12.858,0,0,1,0-18.156L74.667,8.657a12.858,12.858,0,0,1,18.156,0l28.337,28.336a2.454,2.454,0,0,0,3.47-3.47L96.293,5.186a17.772,17.772,0,0,0-25.1,0L5.186,71.2a17.772,17.772,0,0,0,0,25.1L71.2,162.3a17.773,17.773,0,0,0,25.1,0l25.353-25.353a2.454,2.454,0,1,0-3.47-3.47Z" transform="translate(0 0)"/>
        <path id="Path_266988" data-name="Path 266988" d="M419.459,154.238l-30.106-30.106a2.454,2.454,0,0,0-3.47,3.47l30.106,30.106a12.858,12.858,0,0,1,0,18.156L382.9,208.958a2.454,2.454,0,0,0,3.47,3.47l33.094-33.094a17.772,17.772,0,0,0,0-25.1Z" transform="translate(-257.155 -83.041)"/>
        <path id="Path_266989" data-name="Path 266989" d="M74.986,81.281a2.454,2.454,0,0,0-3.47-3.47L43.184,106.145q-4.314,5.206,0,10.413l62.961,62.961q5.206,4.314,10.413,0l62.961-62.961q4.314-5.206,0-10.413L116.557,43.184q-5.206-4.314-10.413,0L79.081,70.247a2.454,2.454,0,0,0,3.47,3.47l27.064-27.064a2.455,2.455,0,0,1,3.472,0l62.961,62.961a2.455,2.455,0,0,1,0,3.472L129,160.14v-6.892c.156-1.126,2.2-2.861,3.7-4.134,3.776-3.209,6.521-7.345,6.521-12.51V83.052c0-4.912-5.756-8.758-10.216-7.081V67.728c0-5.03-5.955-8.855-10.452-6.987a7.562,7.562,0,0,0-14.887,1.879v3.135c-4.46-1.677-10.216,2.17-10.216,7.081v35.876c-3.169-5.77-7.323-11.729-13.207-15.031-3.139-1.761-6.307-1.626-8.266.353-1.142,1.153-3.35,4.612.785,11.816A78.089,78.089,0,0,1,82.8,136.994c.928,11.167,4.846,12.708,8.78,13.329,1.878.3,1.8.809,1.858,2.838v6.712L46.653,113.087a2.455,2.455,0,0,1,0-3.472Zm23.36,71.784c-.157-6.154-3.179-7.145-6-7.59-1.254-.2-1.938-.335-2.56-1.064-.73-.855-1.686-2.906-2.095-7.824a81.986,81.986,0,0,0-10.685-33.18c-2.259-3.936-1.8-5.67-1.554-5.92,3.244-3.274,12.861,12.1,14.1,14.294A4.754,4.754,0,0,0,91.9,113.8c8.07,4.095,12.1,7.576,11.755,15.11-.127,2.758,4.73,3.969,4.9.226.428-9.282-4.607-14.109-10.7-17.693a4.415,4.415,0,0,0,.489-1.989V72.836a2.654,2.654,0,0,1,5.308,0v35.756a2.454,2.454,0,1,0,4.908,0V62.62a2.654,2.654,0,0,1,5.308,0v45.972a2.454,2.454,0,0,0,4.908,0V67.728a2.654,2.654,0,0,1,5.308,0v40.864a2.454,2.454,0,0,0,4.908,0V83.052a2.654,2.654,0,1,1,5.308,0V136.6a10.849,10.849,0,0,1-4.791,8.77c-2.429,2.064-5.181,4.4-5.418,7.572,0,.061-.007.122-.007.183v11.918l-11,11a2.455,2.455,0,0,1-3.472,0L98.347,164.781V153.129c0-.022,0-.043,0-.063Z" transform="translate(-27.606 -27.606)"/>
      </g>
    </g>
  </g>
</svg>
