<svg xmlns="http://www.w3.org/2000/svg" width="180" height="180" viewBox="0 0 180 180">
  <g id="_8" data-name="8" transform="translate(-12098.176 -1760.37)">
    <circle id="Ellipse_6160" data-name="Ellipse 6160" cx="90" cy="90" r="90" transform="translate(12098.176 1760.37)" fill="#fff"/>
    <g id="lista-de-verificacion" transform="translate(12083.053 1768.264)">
      <g id="Group_158158" data-name="Group 158158" transform="translate(36.421 2.402)">
        <g id="Group_158157" data-name="Group 158157" transform="translate(0)">
          <g id="Group_158154" data-name="Group 158154">
            <g id="Group_158151" data-name="Group 158151">
              <path id="Path_266732" data-name="Path 266732" d="M148.805,194.488H47.4a5.881,5.881,0,0,1-5.881-5.881V54.272A5.881,5.881,0,0,1,47.4,48.391h101.41a5.881,5.881,0,0,1,5.881,5.881V188.608A5.88,5.88,0,0,1,148.805,194.488Z" transform="translate(-41.515 -35.293)" fill="#fabe64"/>
              <path id="Path_266733" data-name="Path 266733" d="M334.708,48.39H315.026a5.881,5.881,0,0,1,5.881,5.881V188.607a5.881,5.881,0,0,1-5.881,5.881h19.682a5.881,5.881,0,0,0,5.881-5.881V54.271a5.88,5.88,0,0,0-5.881-5.881Z" transform="translate(-227.417 -35.292)" fill="#fda929"/>
              <path id="Path_266734" data-name="Path 266734" d="M71.522,203.17V80.5a2.1,2.1,0,0,1,2.1-2.1h89.744a2.1,2.1,0,0,1,2.1,2.1V203.17a2.1,2.1,0,0,1-2.1,2.1H73.624a2.1,2.1,0,0,1-2.1-2.1Z" transform="translate(-61.91 -55.689)" fill="#f5f5f5"/>
              <path id="Path_266735" data-name="Path 266735" d="M316.5,78.4H296.816a2.1,2.1,0,0,1,2.1,2.1V203.17a2.1,2.1,0,0,1-2.1,2.1H316.5a2.1,2.1,0,0,0,2.1-2.1V80.5A2.1,2.1,0,0,0,316.5,78.4Z" transform="translate(-215.04 -55.689)" fill="#eaeaea"/>
              <path id="Path_266736" data-name="Path 266736" d="M177.087,14.818v-3.1A4.223,4.223,0,0,0,172.864,7.5h-16.54a4.223,4.223,0,0,0-4.223,4.223v3.1a1.727,1.727,0,0,1-1.727,1.727H143.49a4.147,4.147,0,0,0-4.146,4.146v9.517h50.5V20.692a4.147,4.147,0,0,0-4.146-4.146h-6.884A1.727,1.727,0,0,1,177.087,14.818Z" transform="translate(-108.008 -7.5)" fill="#c2d0da"/>
            </g>
            <g id="Group_158153" data-name="Group 158153" transform="translate(21.839 34.609)">
              <g id="Group_158152" data-name="Group 158152">
                <path id="Path_266737" data-name="Path 266737" d="M109.694,137.774V119.262a3.714,3.714,0,0,1,3.714-3.714H131.92a3.714,3.714,0,0,1,3.714,3.714v18.512a3.714,3.714,0,0,1-3.714,3.714H113.408A3.713,3.713,0,0,1,109.694,137.774Z" transform="translate(-109.694 -115.548)" fill="#20cb7d"/>
                <path id="Path_266738" data-name="Path 266738" d="M109.694,258.181V239.669a3.714,3.714,0,0,1,3.714-3.714H131.92a3.714,3.714,0,0,1,3.714,3.714v18.512a3.714,3.714,0,0,1-3.714,3.714H113.408A3.714,3.714,0,0,1,109.694,258.181Z" transform="translate(-109.694 -197.387)" fill="#20cb7d"/>
                <path id="Path_266739" data-name="Path 266739" d="M109.694,378.586V360.074a3.714,3.714,0,0,1,3.714-3.714H131.92a3.714,3.714,0,0,1,3.714,3.714v18.512a3.714,3.714,0,0,1-3.714,3.714H113.408A3.714,3.714,0,0,1,109.694,378.586Z" transform="translate(-109.694 -279.225)" fill="#20cb7d"/>
              </g>
            </g>
          </g>
          <g id="Group_158156" data-name="Group 158156" transform="translate(61.979 37.325)">
            <g id="Group_158155" data-name="Group 158155" transform="translate(3.945)">
              <path id="Path_266740" data-name="Path 266740" d="M309.465,183.721l-2.359-3.107-8.826-5.589-3.392-.535L249.7,245.9a18.6,18.6,0,0,0-2.368,5.593,14.557,14.557,0,0,1,12.9,8.17,18.6,18.6,0,0,0,4.043-4.532Z" transform="translate(-247.328 -158.326)" fill="#fda929"/>
              <path id="Path_266741" data-name="Path 266741" d="M427.068,127.431l-3.814-2.415a6.37,6.37,0,0,0-8.791,1.975l-3.5,5.526,1.116,2.249,10.612,6.72,2.849.262,3.5-5.53A6.37,6.37,0,0,0,427.068,127.431Z" transform="translate(-358.551 -124.027)" fill="#7453d8"/>
            </g>
            <path id="Path_266742" data-name="Path 266742" d="M0,0H9.081V17.254H0Z" transform="matrix(0.535, -0.845, 0.845, 0.535, 51.511, 16.143)" fill="#20cb7d"/>
            <path id="Path_266743" data-name="Path 266743" d="M251.858,423.065,238.99,433.434a2.442,2.442,0,0,1-3.906-2.473l3.872-16.066A14.557,14.557,0,0,1,251.858,423.065Z" transform="translate(-235.011 -321.727)" fill="#7453d8"/>
          </g>
        </g>
      </g>
      <g id="Group_158161" data-name="Group 158161" transform="translate(34.02 0)">
        <g id="Group_158160" data-name="Group 158160" transform="translate(0 0)">
          <g id="Group_158159" data-name="Group 158159">
            <path id="Path_266744" data-name="Path 266744" d="M140.762,135.807a2.4,2.4,0,0,0-3.359.511l-4.755,6.46-1.626-2.233a2.4,2.4,0,1,0-3.885,2.829l2.8,3.852a3.352,3.352,0,0,0,2.691,1.374h.008a3.351,3.351,0,0,0,2.69-1.36l5.942-8.073a2.4,2.4,0,0,0-.511-3.36Z" transform="translate(-96.997 -91.988)"/>
            <path id="Path_266745" data-name="Path 266745" d="M140.762,258.834a2.4,2.4,0,0,0-3.359.511l-4.755,6.46-1.626-2.233a2.4,2.4,0,1,0-3.885,2.828l2.8,3.853a3.351,3.351,0,0,0,2.691,1.374h.008a3.352,3.352,0,0,0,2.69-1.36l5.942-8.073A2.4,2.4,0,0,0,140.762,258.834Z" transform="translate(-96.997 -175.608)"/>
            <path id="Path_266746" data-name="Path 266746" d="M140.762,376.618a2.4,2.4,0,0,0-3.359.511l-4.755,6.46-1.626-2.233a2.4,2.4,0,1,0-3.885,2.828l2.8,3.853a3.351,3.351,0,0,0,2.691,1.374h.008a3.352,3.352,0,0,0,2.69-1.36l5.942-8.073A2.4,2.4,0,0,0,140.762,376.618Z" transform="translate(-96.997 -255.664)"/>
            <path id="Path_266747" data-name="Path 266747" d="M222.928,137.673h29.7a2.4,2.4,0,0,0,0-4.806h-29.7a2.4,2.4,0,0,0,0,4.806Z" transform="translate(-160.785 -90.308)"/>
            <path id="Path_266748" data-name="Path 266748" d="M222.928,169.014h14.849a2.4,2.4,0,0,0,0-4.806H222.928a2.4,2.4,0,1,0,0,4.806Z" transform="translate(-160.785 -111.61)"/>
            <path id="Path_266749" data-name="Path 266749" d="M222.928,258.078h19.926a2.4,2.4,0,1,0,0-4.806H222.928a2.4,2.4,0,0,0,0,4.806Z" transform="translate(-160.785 -172.146)"/>
            <path id="Path_266750" data-name="Path 266750" d="M237.777,289.42a2.4,2.4,0,0,0,0-4.806H222.928a2.4,2.4,0,1,0,0,4.806Z" transform="translate(-160.785 -193.449)"/>
            <path id="Path_266751" data-name="Path 266751" d="M126.826,108.047H108.314a6.124,6.124,0,0,0-6.117,6.117v18.512a6.124,6.124,0,0,0,6.117,6.117h18.512a6.124,6.124,0,0,0,6.117-6.117V114.164a6.124,6.124,0,0,0-6.117-6.117Zm1.311,24.629a1.312,1.312,0,0,1-1.311,1.311H108.314A1.312,1.312,0,0,1,107,132.676V114.164a1.312,1.312,0,0,1,1.311-1.311h18.512a1.312,1.312,0,0,1,1.311,1.311Z" transform="translate(-80.359 -73.438)"/>
            <path id="Path_266752" data-name="Path 266752" d="M126.826,228.453H108.314a6.124,6.124,0,0,0-6.117,6.117v18.512a6.124,6.124,0,0,0,6.117,6.117h18.512a6.124,6.124,0,0,0,6.117-6.117V234.57A6.123,6.123,0,0,0,126.826,228.453Zm1.311,24.629a1.312,1.312,0,0,1-1.311,1.311H108.314A1.312,1.312,0,0,1,107,253.082V234.57a1.312,1.312,0,0,1,1.311-1.311h18.512a1.312,1.312,0,0,1,1.311,1.311Z" transform="translate(-80.359 -155.277)"/>
            <path id="Path_266753" data-name="Path 266753" d="M126.826,348.857H108.314a6.124,6.124,0,0,0-6.117,6.117v18.512a6.124,6.124,0,0,0,6.117,6.117h18.512a6.124,6.124,0,0,0,6.117-6.117V354.974A6.124,6.124,0,0,0,126.826,348.857Zm1.311,24.629a1.312,1.312,0,0,1-1.311,1.311H108.314A1.312,1.312,0,0,1,107,373.486V354.974a1.312,1.312,0,0,1,1.311-1.311h18.512a1.312,1.312,0,0,1,1.311,1.311Z" transform="translate(-80.359 -237.114)"/>
            <path id="Path_266754" data-name="Path 266754" d="M172.149,41.1l-3.814-2.415a8.772,8.772,0,0,0-12.107,2.72l-3.5,5.526-4.856,7.673-5.491,8.678V27.214a4.51,4.51,0,0,0-4.5-4.5H120.661V17.9h23.052a3.482,3.482,0,0,1,3.478,3.478v20.81a2.4,2.4,0,0,0,4.806,0V21.381a8.293,8.293,0,0,0-8.284-8.284H120.164a6.558,6.558,0,0,0-6.052-4.052H107.9V6.625A6.633,6.633,0,0,0,101.278,0H84.738a6.633,6.633,0,0,0-6.626,6.626v2.42H71.9A6.557,6.557,0,0,0,65.853,13.1H42.3a8.293,8.293,0,0,0-8.284,8.284V155.716A8.293,8.293,0,0,0,42.3,164H143.713A8.293,8.293,0,0,0,152,155.716V101.837a2.4,2.4,0,0,0-4.806,0v53.879a3.482,3.482,0,0,1-3.478,3.478H42.3a3.482,3.482,0,0,1-3.478-3.478V21.381A3.482,3.482,0,0,1,42.3,17.9H65.355v4.806H48.136a4.51,4.51,0,0,0-4.5,4.5V149.883a4.51,4.51,0,0,0,4.5,4.5H137.88a4.51,4.51,0,0,0,4.5-4.5V104.536l24.129-38.129v0l4.854-7.671,3.5-5.53a8.783,8.783,0,0,0-2.72-12.1Zm-9.377,1.126a3.936,3.936,0,0,1,2.992.519l3.814,2.415a3.971,3.971,0,0,1,1.23,5.473l-2.214,3.5-10.516-6.66,2.213-3.5a3.939,3.939,0,0,1,2.482-1.75Zm-45.511,93.021a16.175,16.175,0,0,1-1.522,2.029,16.893,16.893,0,0,0-2.554-2.735l44.775-70.707,3.207,2.031Zm-16.409,14.331a.322.322,0,0,0-.045-.017l0,0,3.395-14.1a12.1,12.1,0,0,1,7.934,5.024C99.409,150.742,101.034,149.415,100.853,149.579Zm54.654-98.045,10.516,6.66-2.286,3.612-10.516-6.66ZM70.161,15.649c0-.029,0-.059,0-.089,0-.01,0-.02,0-.03a1.744,1.744,0,0,1,1.74-1.678h6.884a4.135,4.135,0,0,0,4.13-4.13v-3.1a1.822,1.822,0,0,1,1.82-1.82h16.54a1.822,1.822,0,0,1,1.82,1.82v3.1a4.135,4.135,0,0,0,4.13,4.13h6.884a1.744,1.744,0,0,1,1.74,1.678c0,.01,0,.02,0,.03,0,.029,0,.059,0,.088v7.061h-45.7ZM48.437,27.515h89.141V70.878l-25.15,39.742a2.4,2.4,0,1,0,4.061,2.57l34.162-53.982,3.249,2.057-44.775,70.707a16.875,16.875,0,0,0-3.564-1.14,16.251,16.251,0,0,1,1.184-2.244l3.735-5.9a2.4,2.4,0,1,0-4.061-2.57l-3.735,5.9a20.964,20.964,0,0,0-2.674,6.315v0L96.138,148.4A4.988,4.988,0,0,0,96,149.582H48.437Zm89.141,122.067H108.509l8.247-6.646a20.957,20.957,0,0,0,4.566-5.118l16.256-25.688Z" transform="translate(-34.02 0)"/>
          </g>
        </g>
      </g>
    </g>
  </g>
</svg>
