<svg xmlns="http://www.w3.org/2000/svg" xmlns:xlink="http://www.w3.org/1999/xlink" width="272.25" height="358.894" viewBox="0 0 272.25 358.894">
  <defs>
    <linearGradient id="linear-gradient" x1="0.5" x2="0.5" y2="1" gradientUnits="objectBoundingBox">
      <stop offset="0" stop-color="#7e89be"/>
      <stop offset="1" stop-color="#29398a"/>
    </linearGradient>
    <linearGradient id="linear-gradient-2" x1="0.5" x2="0.5" y2="1" gradientUnits="objectBoundingBox">
      <stop offset="0" stop-color="#ba68c8"/>
      <stop offset="0.19" stop-color="#9139af"/>
      <stop offset="0.31" stop-color="#7b1fa2"/>
      <stop offset="1" stop-color="#45147b"/>
    </linearGradient>
  </defs>
  <g id="_8" data-name="8" transform="translate(-202.75 -2918.77)">
    <g id="Group_148644" data-name="Group 148644" transform="translate(202.75 2960.628)" opacity="0.76">
      <path id="Path_145969" data-name="Path 145969" d="M33.552,0A33.552,33.552,0,1,1,0,33.552,33.552,33.552,0,0,1,33.552,0Z" transform="translate(204.624)" opacity="0.6" fill="url(#linear-gradient)" style="mix-blend-mode: multiply;isolation: isolate"/>
      <rect id="Rectangle_34812" data-name="Rectangle 34812" width="261.766" height="180.936" transform="translate(0 27.524)" fill="none"/>
      <path id="Path_145971" data-name="Path 145971" d="M21.209,0A21.209,21.209,0,1,1,0,21.209,21.209,21.209,0,0,1,21.209,0Z" transform="translate(195.758 267.932)" fill="#fda929" opacity="0.444" style="mix-blend-mode: multiply;isolation: isolate"/>
      <g id="Group_145732" data-name="Group 145732" transform="translate(25.768 218.829)">
        <path id="Path_145968" data-name="Path 145968" d="M49.1,0A49.1,49.1,0,1,1,0,49.1,49.1,49.1,0,0,1,49.1,0Z" transform="translate(0 0)" opacity="0.444" fill="url(#linear-gradient-2)" style="mix-blend-mode: multiply;isolation: isolate"/>
        <g id="Group_78276" data-name="Group 78276" transform="translate(18.405 20.246)">
          <g id="Group_53306" data-name="Group 53306" transform="translate(0)">
            <path id="Path_99200" data-name="Path 99200" d="M415.547,50.861a.667.667,0,1,1-.667-.637A.653.653,0,0,1,415.547,50.861Z" transform="translate(-414.214 -50.224)" fill="url(#linear-gradient-2)"/>
            <path id="Path_99201" data-name="Path 99201" d="M423.993,50.861a.667.667,0,1,1-.666-.637A.652.652,0,0,1,423.993,50.861Z" transform="translate(-416.659 -50.224)" fill="url(#linear-gradient-2)"/>
            <path id="Path_99202" data-name="Path 99202" d="M432.439,50.861a.667.667,0,1,1-.666-.637A.652.652,0,0,1,432.439,50.861Z" transform="translate(-419.105 -50.224)" fill="url(#linear-gradient-2)"/>
            <path id="Path_99203" data-name="Path 99203" d="M440.887,50.861a.667.667,0,1,1-.667-.637A.653.653,0,0,1,440.887,50.861Z" transform="translate(-421.55 -50.224)" fill="url(#linear-gradient-2)"/>
            <path id="Path_99204" data-name="Path 99204" d="M449.332,50.861a.667.667,0,1,1-.666-.637A.653.653,0,0,1,449.332,50.861Z" transform="translate(-423.996 -50.224)" fill="url(#linear-gradient-2)"/>
            <path id="Path_99205" data-name="Path 99205" d="M457.778,50.861a.667.667,0,1,1-.666-.637A.652.652,0,0,1,457.778,50.861Z" transform="translate(-426.441 -50.224)" fill="url(#linear-gradient-2)"/>
            <path id="Path_99206" data-name="Path 99206" d="M466.226,50.861a.667.667,0,1,1-.667-.637A.653.653,0,0,1,466.226,50.861Z" transform="translate(-428.887 -50.224)" fill="url(#linear-gradient-2)"/>
            <path id="Path_99207" data-name="Path 99207" d="M474.672,50.861a.667.667,0,1,1-.667-.637A.653.653,0,0,1,474.672,50.861Z" transform="translate(-431.332 -50.224)" fill="url(#linear-gradient-2)"/>
            <path id="Path_99208" data-name="Path 99208" d="M483.118,50.861a.667.667,0,1,1-.667-.637A.653.653,0,0,1,483.118,50.861Z" transform="translate(-433.777 -50.224)" fill="url(#linear-gradient-2)"/>
            <path id="Path_99209" data-name="Path 99209" d="M491.564,50.861a.667.667,0,1,1-.667-.637A.653.653,0,0,1,491.564,50.861Z" transform="translate(-436.223 -50.224)" fill="url(#linear-gradient-2)"/>
            <path id="Path_99210" data-name="Path 99210" d="M500.011,50.861a.667.667,0,1,1-.667-.637A.653.653,0,0,1,500.011,50.861Z" transform="translate(-438.669 -50.224)" fill="url(#linear-gradient-2)"/>
          </g>
          <g id="Group_53307" data-name="Group 53307" transform="translate(0 5.101)">
            <path id="Path_99211" data-name="Path 99211" d="M415.547,58.369a.667.667,0,1,1-.667-.637A.653.653,0,0,1,415.547,58.369Z" transform="translate(-414.214 -57.732)" fill="url(#linear-gradient-2)"/>
            <path id="Path_99212" data-name="Path 99212" d="M423.993,58.369a.667.667,0,1,1-.666-.637A.652.652,0,0,1,423.993,58.369Z" transform="translate(-416.659 -57.732)" fill="url(#linear-gradient-2)"/>
            <path id="Path_99213" data-name="Path 99213" d="M432.439,58.369a.667.667,0,1,1-.666-.637A.652.652,0,0,1,432.439,58.369Z" transform="translate(-419.105 -57.732)" fill="url(#linear-gradient-2)"/>
            <path id="Path_99214" data-name="Path 99214" d="M440.887,58.369a.667.667,0,1,1-.667-.637A.653.653,0,0,1,440.887,58.369Z" transform="translate(-421.55 -57.732)" fill="url(#linear-gradient-2)"/>
            <path id="Path_99215" data-name="Path 99215" d="M449.332,58.369a.667.667,0,1,1-.666-.637A.653.653,0,0,1,449.332,58.369Z" transform="translate(-423.996 -57.732)" fill="url(#linear-gradient-2)"/>
            <path id="Path_99216" data-name="Path 99216" d="M457.778,58.369a.667.667,0,1,1-.666-.637A.652.652,0,0,1,457.778,58.369Z" transform="translate(-426.441 -57.732)" fill="url(#linear-gradient-2)"/>
            <path id="Path_99217" data-name="Path 99217" d="M466.226,58.369a.667.667,0,1,1-.667-.637A.653.653,0,0,1,466.226,58.369Z" transform="translate(-428.887 -57.732)" fill="url(#linear-gradient-2)"/>
            <path id="Path_99218" data-name="Path 99218" d="M474.672,58.369a.667.667,0,1,1-.667-.637A.653.653,0,0,1,474.672,58.369Z" transform="translate(-431.332 -57.732)" fill="url(#linear-gradient-2)"/>
            <path id="Path_99219" data-name="Path 99219" d="M483.118,58.369a.667.667,0,1,1-.667-.637A.653.653,0,0,1,483.118,58.369Z" transform="translate(-433.777 -57.732)" fill="url(#linear-gradient-2)"/>
            <path id="Path_99220" data-name="Path 99220" d="M491.564,58.369a.667.667,0,1,1-.667-.637A.653.653,0,0,1,491.564,58.369Z" transform="translate(-436.223 -57.732)" fill="url(#linear-gradient-2)"/>
            <path id="Path_99221" data-name="Path 99221" d="M500.011,58.369a.667.667,0,1,1-.667-.637A.653.653,0,0,1,500.011,58.369Z" transform="translate(-438.669 -57.732)" fill="url(#linear-gradient-2)"/>
          </g>
          <g id="Group_53308" data-name="Group 53308" transform="translate(0 10.202)">
            <ellipse id="Ellipse_3955" data-name="Ellipse 3955" cx="0.667" cy="0.638" rx="0.667" ry="0.638" fill="url(#linear-gradient-2)"/>
            <path id="Path_99222" data-name="Path 99222" d="M423.993,65.877a.667.667,0,1,1-.666-.637A.653.653,0,0,1,423.993,65.877Z" transform="translate(-416.659 -65.24)" fill="url(#linear-gradient-2)"/>
            <ellipse id="Ellipse_3956" data-name="Ellipse 3956" cx="0.667" cy="0.638" rx="0.667" ry="0.638" transform="translate(12.002)" fill="url(#linear-gradient-2)"/>
            <path id="Path_99223" data-name="Path 99223" d="M440.887,65.877a.667.667,0,1,1-.667-.637A.653.653,0,0,1,440.887,65.877Z" transform="translate(-421.55 -65.24)" fill="url(#linear-gradient-2)"/>
            <path id="Path_99224" data-name="Path 99224" d="M449.332,65.877a.667.667,0,1,1-.666-.637A.653.653,0,0,1,449.332,65.877Z" transform="translate(-423.996 -65.24)" fill="url(#linear-gradient-2)"/>
            <ellipse id="Ellipse_3957" data-name="Ellipse 3957" cx="0.667" cy="0.638" rx="0.667" ry="0.638" transform="translate(30.004)" fill="url(#linear-gradient-2)"/>
            <path id="Path_99225" data-name="Path 99225" d="M466.226,65.877a.667.667,0,1,1-.667-.637A.654.654,0,0,1,466.226,65.877Z" transform="translate(-428.887 -65.24)" fill="url(#linear-gradient-2)"/>
            <ellipse id="Ellipse_3958" data-name="Ellipse 3958" cx="0.667" cy="0.638" rx="0.667" ry="0.638" transform="translate(42.006)" fill="url(#linear-gradient-2)"/>
            <ellipse id="Ellipse_3959" data-name="Ellipse 3959" cx="0.667" cy="0.638" rx="0.667" ry="0.638" transform="translate(48.007)" fill="url(#linear-gradient-2)"/>
            <path id="Path_99226" data-name="Path 99226" d="M491.564,65.877a.667.667,0,1,1-.667-.637A.654.654,0,0,1,491.564,65.877Z" transform="translate(-436.223 -65.24)" fill="url(#linear-gradient-2)"/>
            <path id="Path_99227" data-name="Path 99227" d="M500.011,65.877a.667.667,0,1,1-.667-.637A.653.653,0,0,1,500.011,65.877Z" transform="translate(-438.669 -65.24)" fill="url(#linear-gradient-2)"/>
          </g>
          <g id="Group_53309" data-name="Group 53309" transform="translate(0 15.303)">
            <ellipse id="Ellipse_3960" data-name="Ellipse 3960" cx="0.667" cy="0.638" rx="0.667" ry="0.638" transform="translate(0 0)" fill="url(#linear-gradient-2)"/>
            <path id="Path_99228" data-name="Path 99228" d="M423.993,73.385a.667.667,0,1,1-.666-.638A.652.652,0,0,1,423.993,73.385Z" transform="translate(-416.659 -72.747)" fill="url(#linear-gradient-2)"/>
            <ellipse id="Ellipse_3961" data-name="Ellipse 3961" cx="0.667" cy="0.638" rx="0.667" ry="0.638" transform="translate(12.002 0)" fill="url(#linear-gradient-2)"/>
            <path id="Path_99229" data-name="Path 99229" d="M440.887,73.385a.667.667,0,1,1-.667-.638A.653.653,0,0,1,440.887,73.385Z" transform="translate(-421.55 -72.747)" fill="url(#linear-gradient-2)"/>
            <path id="Path_99230" data-name="Path 99230" d="M449.332,73.385a.667.667,0,1,1-.666-.638A.652.652,0,0,1,449.332,73.385Z" transform="translate(-423.996 -72.747)" fill="url(#linear-gradient-2)"/>
            <ellipse id="Ellipse_3962" data-name="Ellipse 3962" cx="0.667" cy="0.638" rx="0.667" ry="0.638" transform="translate(30.004 0)" fill="url(#linear-gradient-2)"/>
            <path id="Path_99231" data-name="Path 99231" d="M466.226,73.385a.667.667,0,1,1-.667-.638A.653.653,0,0,1,466.226,73.385Z" transform="translate(-428.887 -72.747)" fill="url(#linear-gradient-2)"/>
            <ellipse id="Ellipse_3963" data-name="Ellipse 3963" cx="0.667" cy="0.638" rx="0.667" ry="0.638" transform="translate(42.006 0)" fill="url(#linear-gradient-2)"/>
            <ellipse id="Ellipse_3964" data-name="Ellipse 3964" cx="0.667" cy="0.638" rx="0.667" ry="0.638" transform="translate(48.007 0)" fill="url(#linear-gradient-2)"/>
            <path id="Path_99232" data-name="Path 99232" d="M491.564,73.385a.667.667,0,1,1-.667-.638A.653.653,0,0,1,491.564,73.385Z" transform="translate(-436.223 -72.747)" fill="url(#linear-gradient-2)"/>
            <path id="Path_99233" data-name="Path 99233" d="M500.011,73.385a.667.667,0,1,1-.667-.638A.653.653,0,0,1,500.011,73.385Z" transform="translate(-438.669 -72.747)" fill="url(#linear-gradient-2)"/>
          </g>
          <g id="Group_53310" data-name="Group 53310" transform="translate(0 20.404)">
            <path id="Path_99234" data-name="Path 99234" d="M415.547,80.893a.667.667,0,1,1-.667-.638A.653.653,0,0,1,415.547,80.893Z" transform="translate(-414.214 -80.255)" fill="url(#linear-gradient-2)"/>
            <path id="Path_99235" data-name="Path 99235" d="M423.993,80.893a.667.667,0,1,1-.666-.638A.652.652,0,0,1,423.993,80.893Z" transform="translate(-416.659 -80.255)" fill="url(#linear-gradient-2)"/>
            <path id="Path_99236" data-name="Path 99236" d="M432.439,80.893a.667.667,0,1,1-.666-.638A.652.652,0,0,1,432.439,80.893Z" transform="translate(-419.105 -80.255)" fill="url(#linear-gradient-2)"/>
            <path id="Path_99237" data-name="Path 99237" d="M440.887,80.893a.667.667,0,1,1-.667-.638A.653.653,0,0,1,440.887,80.893Z" transform="translate(-421.55 -80.255)" fill="url(#linear-gradient-2)"/>
            <path id="Path_99238" data-name="Path 99238" d="M449.332,80.893a.667.667,0,1,1-.666-.638A.652.652,0,0,1,449.332,80.893Z" transform="translate(-423.996 -80.255)" fill="url(#linear-gradient-2)"/>
            <path id="Path_99239" data-name="Path 99239" d="M457.778,80.893a.667.667,0,1,1-.666-.638A.652.652,0,0,1,457.778,80.893Z" transform="translate(-426.441 -80.255)" fill="url(#linear-gradient-2)"/>
            <path id="Path_99240" data-name="Path 99240" d="M466.226,80.893a.667.667,0,1,1-.667-.638A.653.653,0,0,1,466.226,80.893Z" transform="translate(-428.887 -80.255)" fill="url(#linear-gradient-2)"/>
            <path id="Path_99241" data-name="Path 99241" d="M474.672,80.893a.667.667,0,1,1-.667-.638A.652.652,0,0,1,474.672,80.893Z" transform="translate(-431.332 -80.255)" fill="url(#linear-gradient-2)"/>
            <path id="Path_99242" data-name="Path 99242" d="M483.118,80.893a.667.667,0,1,1-.667-.638A.652.652,0,0,1,483.118,80.893Z" transform="translate(-433.777 -80.255)" fill="url(#linear-gradient-2)"/>
            <path id="Path_99243" data-name="Path 99243" d="M491.564,80.893a.667.667,0,1,1-.667-.638A.653.653,0,0,1,491.564,80.893Z" transform="translate(-436.223 -80.255)" fill="url(#linear-gradient-2)"/>
            <path id="Path_99244" data-name="Path 99244" d="M500.011,80.893a.667.667,0,1,1-.667-.638A.653.653,0,0,1,500.011,80.893Z" transform="translate(-438.669 -80.255)" fill="url(#linear-gradient-2)"/>
          </g>
          <g id="Group_53311" data-name="Group 53311" transform="translate(0 25.505)">
            <ellipse id="Ellipse_3965" data-name="Ellipse 3965" cx="0.667" cy="0.638" rx="0.667" ry="0.638" transform="translate(0 0)" fill="url(#linear-gradient-2)"/>
            <path id="Path_99245" data-name="Path 99245" d="M423.993,88.4a.667.667,0,1,1-.666-.638A.652.652,0,0,1,423.993,88.4Z" transform="translate(-416.659 -87.763)" fill="url(#linear-gradient-2)"/>
            <ellipse id="Ellipse_3966" data-name="Ellipse 3966" cx="0.667" cy="0.638" rx="0.667" ry="0.638" transform="translate(12.002 0)" fill="url(#linear-gradient-2)"/>
            <path id="Path_99246" data-name="Path 99246" d="M440.887,88.4a.667.667,0,1,1-.667-.638A.653.653,0,0,1,440.887,88.4Z" transform="translate(-421.55 -87.763)" fill="url(#linear-gradient-2)"/>
            <path id="Path_99247" data-name="Path 99247" d="M449.332,88.4a.667.667,0,1,1-.666-.638A.652.652,0,0,1,449.332,88.4Z" transform="translate(-423.996 -87.763)" fill="url(#linear-gradient-2)"/>
            <ellipse id="Ellipse_3967" data-name="Ellipse 3967" cx="0.667" cy="0.638" rx="0.667" ry="0.638" transform="translate(30.004 0)" fill="url(#linear-gradient-2)"/>
            <path id="Path_99248" data-name="Path 99248" d="M466.226,88.4a.667.667,0,1,1-.667-.638A.653.653,0,0,1,466.226,88.4Z" transform="translate(-428.887 -87.763)" fill="url(#linear-gradient-2)"/>
            <ellipse id="Ellipse_3968" data-name="Ellipse 3968" cx="0.667" cy="0.638" rx="0.667" ry="0.638" transform="translate(42.006 0)" fill="url(#linear-gradient-2)"/>
            <ellipse id="Ellipse_3969" data-name="Ellipse 3969" cx="0.667" cy="0.638" rx="0.667" ry="0.638" transform="translate(48.007 0)" fill="url(#linear-gradient-2)"/>
            <path id="Path_99249" data-name="Path 99249" d="M491.564,88.4a.667.667,0,1,1-.667-.638A.653.653,0,0,1,491.564,88.4Z" transform="translate(-436.223 -87.763)" fill="url(#linear-gradient-2)"/>
            <path id="Path_99250" data-name="Path 99250" d="M500.011,88.4a.667.667,0,1,1-.667-.638A.653.653,0,0,1,500.011,88.4Z" transform="translate(-438.669 -87.763)" fill="url(#linear-gradient-2)"/>
          </g>
          <g id="Group_53312" data-name="Group 53312" transform="translate(0 30.607)">
            <ellipse id="Ellipse_3970" data-name="Ellipse 3970" cx="0.667" cy="0.638" rx="0.667" ry="0.638" fill="url(#linear-gradient-2)"/>
            <path id="Path_99251" data-name="Path 99251" d="M423.993,95.908a.667.667,0,1,1-.666-.637A.653.653,0,0,1,423.993,95.908Z" transform="translate(-416.659 -95.271)" fill="url(#linear-gradient-2)"/>
            <ellipse id="Ellipse_3971" data-name="Ellipse 3971" cx="0.667" cy="0.638" rx="0.667" ry="0.638" transform="translate(12.002)" fill="url(#linear-gradient-2)"/>
            <path id="Path_99252" data-name="Path 99252" d="M440.887,95.908a.667.667,0,1,1-.667-.637A.653.653,0,0,1,440.887,95.908Z" transform="translate(-421.55 -95.271)" fill="url(#linear-gradient-2)"/>
            <path id="Path_99253" data-name="Path 99253" d="M449.332,95.908a.667.667,0,1,1-.666-.637A.653.653,0,0,1,449.332,95.908Z" transform="translate(-423.996 -95.271)" fill="url(#linear-gradient-2)"/>
            <ellipse id="Ellipse_3972" data-name="Ellipse 3972" cx="0.667" cy="0.638" rx="0.667" ry="0.638" transform="translate(30.004)" fill="url(#linear-gradient-2)"/>
            <path id="Path_99254" data-name="Path 99254" d="M466.226,95.908a.667.667,0,1,1-.667-.637A.653.653,0,0,1,466.226,95.908Z" transform="translate(-428.887 -95.271)" fill="url(#linear-gradient-2)"/>
            <ellipse id="Ellipse_3973" data-name="Ellipse 3973" cx="0.667" cy="0.638" rx="0.667" ry="0.638" transform="translate(42.006)" fill="url(#linear-gradient-2)"/>
            <ellipse id="Ellipse_3974" data-name="Ellipse 3974" cx="0.667" cy="0.638" rx="0.667" ry="0.638" transform="translate(48.007)" fill="url(#linear-gradient-2)"/>
            <path id="Path_99255" data-name="Path 99255" d="M491.564,95.908a.667.667,0,1,1-.667-.637A.653.653,0,0,1,491.564,95.908Z" transform="translate(-436.223 -95.271)" fill="url(#linear-gradient-2)"/>
            <path id="Path_99256" data-name="Path 99256" d="M500.011,95.908a.667.667,0,1,1-.667-.637A.653.653,0,0,1,500.011,95.908Z" transform="translate(-438.669 -95.271)" fill="url(#linear-gradient-2)"/>
          </g>
          <g id="Group_53313" data-name="Group 53313" transform="translate(0 35.708)">
            <path id="Path_99257" data-name="Path 99257" d="M415.547,103.416a.667.667,0,1,1-.667-.637A.653.653,0,0,1,415.547,103.416Z" transform="translate(-414.214 -102.779)" fill="url(#linear-gradient-2)"/>
            <path id="Path_99258" data-name="Path 99258" d="M423.993,103.416a.667.667,0,1,1-.666-.637A.652.652,0,0,1,423.993,103.416Z" transform="translate(-416.659 -102.779)" fill="url(#linear-gradient-2)"/>
            <path id="Path_99259" data-name="Path 99259" d="M432.439,103.416a.667.667,0,1,1-.666-.637A.652.652,0,0,1,432.439,103.416Z" transform="translate(-419.105 -102.779)" fill="url(#linear-gradient-2)"/>
            <path id="Path_99260" data-name="Path 99260" d="M440.887,103.416a.667.667,0,1,1-.667-.637A.653.653,0,0,1,440.887,103.416Z" transform="translate(-421.55 -102.779)" fill="url(#linear-gradient-2)"/>
            <path id="Path_99261" data-name="Path 99261" d="M449.332,103.416a.667.667,0,1,1-.666-.637A.653.653,0,0,1,449.332,103.416Z" transform="translate(-423.996 -102.779)" fill="url(#linear-gradient-2)"/>
            <path id="Path_99262" data-name="Path 99262" d="M457.778,103.416a.667.667,0,1,1-.666-.637A.652.652,0,0,1,457.778,103.416Z" transform="translate(-426.441 -102.779)" fill="url(#linear-gradient-2)"/>
            <path id="Path_99263" data-name="Path 99263" d="M466.226,103.416a.667.667,0,1,1-.667-.637A.653.653,0,0,1,466.226,103.416Z" transform="translate(-428.887 -102.779)" fill="url(#linear-gradient-2)"/>
            <path id="Path_99264" data-name="Path 99264" d="M474.672,103.416a.667.667,0,1,1-.667-.637A.653.653,0,0,1,474.672,103.416Z" transform="translate(-431.332 -102.779)" fill="url(#linear-gradient-2)"/>
            <path id="Path_99265" data-name="Path 99265" d="M483.118,103.416a.667.667,0,1,1-.667-.637A.653.653,0,0,1,483.118,103.416Z" transform="translate(-433.777 -102.779)" fill="url(#linear-gradient-2)"/>
            <path id="Path_99266" data-name="Path 99266" d="M491.564,103.416a.667.667,0,1,1-.667-.637A.653.653,0,0,1,491.564,103.416Z" transform="translate(-436.223 -102.779)" fill="url(#linear-gradient-2)"/>
            <path id="Path_99267" data-name="Path 99267" d="M500.011,103.416a.667.667,0,1,1-.667-.637A.653.653,0,0,1,500.011,103.416Z" transform="translate(-438.669 -102.779)" fill="url(#linear-gradient-2)"/>
          </g>
          <g id="Group_53314" data-name="Group 53314" transform="translate(0 40.809)">
            <ellipse id="Ellipse_3975" data-name="Ellipse 3975" cx="0.667" cy="0.638" rx="0.667" ry="0.638" fill="url(#linear-gradient-2)"/>
            <path id="Path_99268" data-name="Path 99268" d="M423.993,110.924a.667.667,0,1,1-.666-.637A.653.653,0,0,1,423.993,110.924Z" transform="translate(-416.659 -110.287)" fill="url(#linear-gradient-2)"/>
            <ellipse id="Ellipse_3976" data-name="Ellipse 3976" cx="0.667" cy="0.638" rx="0.667" ry="0.638" transform="translate(12.002)" fill="url(#linear-gradient-2)"/>
            <path id="Path_99269" data-name="Path 99269" d="M440.887,110.924a.667.667,0,1,1-.667-.637A.653.653,0,0,1,440.887,110.924Z" transform="translate(-421.55 -110.287)" fill="url(#linear-gradient-2)"/>
            <path id="Path_99270" data-name="Path 99270" d="M449.332,110.924a.667.667,0,1,1-.666-.637A.653.653,0,0,1,449.332,110.924Z" transform="translate(-423.996 -110.287)" fill="url(#linear-gradient-2)"/>
            <ellipse id="Ellipse_3977" data-name="Ellipse 3977" cx="0.667" cy="0.638" rx="0.667" ry="0.638" transform="translate(30.004)" fill="url(#linear-gradient-2)"/>
            <path id="Path_99271" data-name="Path 99271" d="M466.226,110.924a.667.667,0,1,1-.667-.637A.654.654,0,0,1,466.226,110.924Z" transform="translate(-428.887 -110.287)" fill="url(#linear-gradient-2)"/>
            <ellipse id="Ellipse_3978" data-name="Ellipse 3978" cx="0.667" cy="0.638" rx="0.667" ry="0.638" transform="translate(42.006)" fill="url(#linear-gradient-2)"/>
            <ellipse id="Ellipse_3979" data-name="Ellipse 3979" cx="0.667" cy="0.638" rx="0.667" ry="0.638" transform="translate(48.007)" fill="url(#linear-gradient-2)"/>
            <path id="Path_99272" data-name="Path 99272" d="M491.564,110.924a.667.667,0,1,1-.667-.637A.654.654,0,0,1,491.564,110.924Z" transform="translate(-436.223 -110.287)" fill="url(#linear-gradient-2)"/>
            <path id="Path_99273" data-name="Path 99273" d="M500.011,110.924a.667.667,0,1,1-.667-.637A.653.653,0,0,1,500.011,110.924Z" transform="translate(-438.669 -110.287)" fill="url(#linear-gradient-2)"/>
          </g>
          <g id="Group_53315" data-name="Group 53315" transform="translate(0 45.91)">
            <path id="Path_99274" data-name="Path 99274" d="M415.547,118.432a.667.667,0,1,1-.667-.638A.653.653,0,0,1,415.547,118.432Z" transform="translate(-414.214 -117.794)" fill="url(#linear-gradient-2)"/>
            <path id="Path_99275" data-name="Path 99275" d="M423.993,118.432a.667.667,0,1,1-.666-.638A.653.653,0,0,1,423.993,118.432Z" transform="translate(-416.659 -117.794)" fill="url(#linear-gradient-2)"/>
            <path id="Path_99276" data-name="Path 99276" d="M432.439,118.432a.667.667,0,1,1-.666-.638A.653.653,0,0,1,432.439,118.432Z" transform="translate(-419.105 -117.794)" fill="url(#linear-gradient-2)"/>
            <path id="Path_99277" data-name="Path 99277" d="M440.887,118.432a.667.667,0,1,1-.667-.638A.653.653,0,0,1,440.887,118.432Z" transform="translate(-421.55 -117.794)" fill="url(#linear-gradient-2)"/>
            <path id="Path_99278" data-name="Path 99278" d="M449.332,118.432a.667.667,0,1,1-.666-.638A.653.653,0,0,1,449.332,118.432Z" transform="translate(-423.996 -117.794)" fill="url(#linear-gradient-2)"/>
            <path id="Path_99279" data-name="Path 99279" d="M457.778,118.432a.667.667,0,1,1-.666-.638A.653.653,0,0,1,457.778,118.432Z" transform="translate(-426.441 -117.794)" fill="url(#linear-gradient-2)"/>
            <path id="Path_99280" data-name="Path 99280" d="M466.226,118.432a.667.667,0,1,1-.667-.638A.654.654,0,0,1,466.226,118.432Z" transform="translate(-428.887 -117.794)" fill="url(#linear-gradient-2)"/>
            <path id="Path_99281" data-name="Path 99281" d="M474.672,118.432a.667.667,0,1,1-.667-.638A.653.653,0,0,1,474.672,118.432Z" transform="translate(-431.332 -117.794)" fill="url(#linear-gradient-2)"/>
            <path id="Path_99282" data-name="Path 99282" d="M483.118,118.432a.667.667,0,1,1-.667-.638A.653.653,0,0,1,483.118,118.432Z" transform="translate(-433.777 -117.794)" fill="url(#linear-gradient-2)"/>
            <path id="Path_99283" data-name="Path 99283" d="M491.564,118.432a.667.667,0,1,1-.667-.638A.654.654,0,0,1,491.564,118.432Z" transform="translate(-436.223 -117.794)" fill="url(#linear-gradient-2)"/>
            <path id="Path_99284" data-name="Path 99284" d="M500.011,118.432a.667.667,0,1,1-.667-.638A.653.653,0,0,1,500.011,118.432Z" transform="translate(-438.669 -117.794)" fill="url(#linear-gradient-2)"/>
          </g>
          <g id="Group_53316" data-name="Group 53316" transform="translate(0 51.011)">
            <ellipse id="Ellipse_3980" data-name="Ellipse 3980" cx="0.667" cy="0.638" rx="0.667" ry="0.638" transform="translate(0 0)" fill="url(#linear-gradient-2)"/>
            <path id="Path_99285" data-name="Path 99285" d="M423.993,125.94a.667.667,0,1,1-.666-.638A.652.652,0,0,1,423.993,125.94Z" transform="translate(-416.659 -125.302)" fill="url(#linear-gradient-2)"/>
            <ellipse id="Ellipse_3981" data-name="Ellipse 3981" cx="0.667" cy="0.638" rx="0.667" ry="0.638" transform="translate(12.002 0)" fill="url(#linear-gradient-2)"/>
            <path id="Path_99286" data-name="Path 99286" d="M440.887,125.94a.667.667,0,1,1-.667-.638A.653.653,0,0,1,440.887,125.94Z" transform="translate(-421.55 -125.302)" fill="url(#linear-gradient-2)"/>
            <path id="Path_99287" data-name="Path 99287" d="M449.332,125.94a.667.667,0,1,1-.666-.638A.652.652,0,0,1,449.332,125.94Z" transform="translate(-423.996 -125.302)" fill="url(#linear-gradient-2)"/>
            <ellipse id="Ellipse_3982" data-name="Ellipse 3982" cx="0.667" cy="0.638" rx="0.667" ry="0.638" transform="translate(30.004 0)" fill="url(#linear-gradient-2)"/>
            <path id="Path_99288" data-name="Path 99288" d="M466.226,125.94a.667.667,0,1,1-.667-.638A.653.653,0,0,1,466.226,125.94Z" transform="translate(-428.887 -125.302)" fill="url(#linear-gradient-2)"/>
            <ellipse id="Ellipse_3983" data-name="Ellipse 3983" cx="0.667" cy="0.638" rx="0.667" ry="0.638" transform="translate(42.006 0)" fill="url(#linear-gradient-2)"/>
            <ellipse id="Ellipse_3984" data-name="Ellipse 3984" cx="0.667" cy="0.638" rx="0.667" ry="0.638" transform="translate(48.007 0)" fill="url(#linear-gradient-2)"/>
            <path id="Path_99289" data-name="Path 99289" d="M491.564,125.94a.667.667,0,1,1-.667-.638A.653.653,0,0,1,491.564,125.94Z" transform="translate(-436.223 -125.302)" fill="url(#linear-gradient-2)"/>
            <path id="Path_99290" data-name="Path 99290" d="M500.011,125.94a.667.667,0,1,1-.667-.638A.653.653,0,0,1,500.011,125.94Z" transform="translate(-438.669 -125.302)" fill="url(#linear-gradient-2)"/>
          </g>
          <g id="Group_53317" data-name="Group 53317" transform="translate(0 56.112)">
            <ellipse id="Ellipse_3985" data-name="Ellipse 3985" cx="0.667" cy="0.638" rx="0.667" ry="0.638" transform="translate(0 0)" fill="url(#linear-gradient-2)"/>
            <path id="Path_99291" data-name="Path 99291" d="M423.993,133.448a.667.667,0,1,1-.666-.638A.652.652,0,0,1,423.993,133.448Z" transform="translate(-416.659 -132.81)" fill="url(#linear-gradient-2)"/>
            <ellipse id="Ellipse_3986" data-name="Ellipse 3986" cx="0.667" cy="0.638" rx="0.667" ry="0.638" transform="translate(12.002 0)" fill="url(#linear-gradient-2)"/>
            <path id="Path_99292" data-name="Path 99292" d="M440.887,133.448a.667.667,0,1,1-.667-.638A.653.653,0,0,1,440.887,133.448Z" transform="translate(-421.55 -132.81)" fill="url(#linear-gradient-2)"/>
            <path id="Path_99293" data-name="Path 99293" d="M449.332,133.448a.667.667,0,1,1-.666-.638A.652.652,0,0,1,449.332,133.448Z" transform="translate(-423.996 -132.81)" fill="url(#linear-gradient-2)"/>
            <ellipse id="Ellipse_3987" data-name="Ellipse 3987" cx="0.667" cy="0.638" rx="0.667" ry="0.638" transform="translate(30.004 0)" fill="url(#linear-gradient-2)"/>
            <path id="Path_99294" data-name="Path 99294" d="M466.226,133.448a.667.667,0,1,1-.667-.638A.653.653,0,0,1,466.226,133.448Z" transform="translate(-428.887 -132.81)" fill="url(#linear-gradient-2)"/>
            <ellipse id="Ellipse_3988" data-name="Ellipse 3988" cx="0.667" cy="0.638" rx="0.667" ry="0.638" transform="translate(42.006 0)" fill="url(#linear-gradient-2)"/>
            <ellipse id="Ellipse_3989" data-name="Ellipse 3989" cx="0.667" cy="0.638" rx="0.667" ry="0.638" transform="translate(48.007 0)" fill="url(#linear-gradient-2)"/>
            <path id="Path_99295" data-name="Path 99295" d="M491.564,133.448a.667.667,0,1,1-.667-.638A.653.653,0,0,1,491.564,133.448Z" transform="translate(-436.223 -132.81)" fill="url(#linear-gradient-2)"/>
            <path id="Path_99296" data-name="Path 99296" d="M500.011,133.448a.667.667,0,1,1-.667-.638A.653.653,0,0,1,500.011,133.448Z" transform="translate(-438.669 -132.81)" fill="url(#linear-gradient-2)"/>
          </g>
        </g>
      </g>
    </g>
    <g id="Group_150805" data-name="Group 150805" transform="translate(218.89 2918.77)">
      <path id="Path_262367" data-name="Path 262367" d="M577.09,2752.265c6.129-13.332,12.383-36.25,12.143-74.1.007-18.19-8.552-46.139-49.409-46.149-44.773-.011-50.926,35.041-50.928,47.233-.007,39.23,6.131,61.17,12.051,73.207C523.718,2761.867,545.538,2760.566,577.09,2752.265Z" transform="translate(-410.473 -2632.016)" fill="#efc203"/>
      <path id="Path_262368" data-name="Path 262368" d="M480.269,3131.015,457.122,3056.7l-8.652,1.858c-9.565-17.61-25.729-29.8-54.8-35.187a35.018,35.018,0,0,0-5.049-.887c-1.273-.132-2.556-.342-3.865-.5l-.292-.038q-1.8-.228-3.665-.425-5.16-.547-10.78-.859-6.737-.37-14.174-.4a.635.635,0,0,0-.13.015q-2.422-.022-4.914-.013-7.443.03-14.173.4-5.626.312-10.78.859-1.864.2-3.665.424c-34.924,4.4-53.452,17.2-63.987,36.564l-10.879-2.349L227.008,3129.2a24.973,24.973,0,0,0,13.177,32.011h0a24.973,24.973,0,0,0,32.3-11.495c6.668-13.05,14.009-27.256,14.088-26.709l-5.427,106.681-.367,5.37H416.4l0,0h9.462l-.367-5.37L420.068,3123c.079-.547,7.42,13.66,14.088,26.71a24.973,24.973,0,0,0,32.3,11.494h0A24.977,24.977,0,0,0,480.269,3131.015Z" transform="translate(-225.263 -2904.768)" fill="#efc203"/>
      <g id="Group_150750" data-name="Group 150750" transform="translate(207.587 181.021)">
        <g id="Group_150749" data-name="Group 150749">
          <path id="Path_262369" data-name="Path 262369" d="M927.428,3290.685l-1.055.146L923.1,3240.7l1.055-.147Z" transform="translate(-923.104 -3240.55)" fill="#fff"/>
        </g>
      </g>
      <g id="Group_150760" data-name="Group 150760" transform="translate(201.913 76.26)">
        <g id="Group_150751" data-name="Group 150751" transform="translate(0 0)">
          <path id="Path_262370" data-name="Path 262370" d="M904.331,2930.644c.861,6.979,1.871,7.755,2.449,11,.593,3.329-.259,4.435.142,6.877a20.046,20.046,0,0,0,2.853,8.138c.829,1.4.93,3.063,1.074,6.875.1,2.736.365,26.507.514,29.5l32-4.753c-.743-3.873-10.137-27.677-10.227-28.257a12.682,12.682,0,0,1,.17-5.389c.46-1.212.69-4.15,2.023-5.432s.941-3.249,1.027-4.974,2.234-3.353,2.455-4.731a5.334,5.334,0,0,0-.412-3.5,5.473,5.473,0,0,1,.345-3.249,5.152,5.152,0,0,0,1.108-3.715,4.956,4.956,0,0,0-1.675-3.3,9.728,9.728,0,0,1-2.692-3.1c-.522-1.2-.1-3.195-.268-4.591s-1.8-2.775-3.969-3.164a33.445,33.445,0,0,0-6.232-.351c-1.505.113-6.362.413-6.362.413a21.216,21.216,0,0,1-2.355-7.615c-.37-2.492-.4-8.655-.7-11.152a20.564,20.564,0,0,0-1.279-5.53,3.446,3.446,0,0,0-3.4-2.236,5.531,5.531,0,0,0-3.305,1.721c-1.249,1.929-1.471,4.341-1.326,7.992.084,2.115.6,5.167.734,6.748.283,3.269.781,4.908.031,7.326C906.179,2915,903.056,2920.3,904.331,2930.644Z" transform="translate(-904.029 -2888.378)" fill="#376ac5"/>
        </g>
        <g id="Group_150753" data-name="Group 150753" transform="translate(4.917 26.17)">
          <g id="Group_150752" data-name="Group 150752">
            <path id="Path_262371" data-name="Path 262371" d="M936.651,3014.4v-.728h-.188c-.047,0-4.74-.007-6.006-.07a7.741,7.741,0,0,1-3.435-.914,3.917,3.917,0,0,1-1.68-2.627,2.317,2.317,0,0,1,.836-2.664l.578-.32-.582-.316a5.04,5.04,0,0,1-1.564-1.934A5.315,5.315,0,0,1,924,3001.1a5.248,5.248,0,0,1,1.653-2l.385-.3-.4-.281a8.91,8.91,0,0,1-1.01-.835l-.043-.042a4.478,4.478,0,0,1-1.4-3.224c-.085-1.3,1.289-3.033,1.3-3.051l.284-.354-.407-.2a6.6,6.6,0,0,1-1.954-1.776,6.4,6.4,0,0,1-1.044-2.866,5.458,5.458,0,0,1,.331-3.117c.7-1.363,6.466-4.775,8.628-5.975l.164-.091-.353-.636-.165.091c-.815.452-7.989,4.469-8.922,6.278a6.1,6.1,0,0,0-.4,3.552,7.14,7.14,0,0,0,1.189,3.209,7.909,7.909,0,0,0,1.837,1.762,5.737,5.737,0,0,0-1.215,3.221,5.2,5.2,0,0,0,1.614,3.692l.042.042a8.044,8.044,0,0,0,.732.637,4.976,4.976,0,0,0-1.555,2.112,6.02,6.02,0,0,0,.679,4.222,6.854,6.854,0,0,0,1.437,1.917,2.825,2.825,0,0,0-.406.493,3.346,3.346,0,0,0-.367,2.641,4.616,4.616,0,0,0,2.018,3.093,8.352,8.352,0,0,0,3.77,1.015c1.283.064,5.994.071,6.041.071Z" transform="translate(-920.56 -2976.352)" fill="#fff"/>
          </g>
        </g>
        <g id="Group_150755" data-name="Group 150755" transform="translate(10.012 54.34)">
          <g id="Group_150754" data-name="Group 150754">
            <path id="Path_262372" data-name="Path 262372" d="M938.208,3074.068c.723,0,2.432-.008,3.394-.081.249-.019.494-.044.774-.078h0c.29-.036.593-.079.943-.129l-.013-.188.026.186c.812-.116,1.924-.275,3.827-.479a43.329,43.329,0,0,0,7.1-1.5l.179-.056-.216-.694-.179.056a42.79,42.79,0,0,1-6.962,1.468c-1.918.206-3.037.365-3.855.482-.658.094-1.133.163-1.679.2-1.188.09-3.569.079-3.67.078h-.188l0,.727h.523Z" transform="translate(-937.685 -3071.053)" fill="#fff"/>
          </g>
        </g>
        <g id="Group_150757" data-name="Group 150757" transform="translate(9.517 45.984)">
          <g id="Group_150756" data-name="Group 150756">
            <path id="Path_262373" data-name="Path 262373" d="M936.2,3046.01l.182-.045a49.566,49.566,0,0,1,6.4-1.122c2.838-.24,9.157-1.127,9.22-1.136l.186-.026-.1-.72-.186.026c-.062.009-6.349.893-9.179,1.132a50.407,50.407,0,0,0-6.517,1.141l-.182.045Z" transform="translate(-936.022 -3042.96)" fill="#fff"/>
          </g>
        </g>
        <g id="Group_150759" data-name="Group 150759" transform="translate(8.204 35.323)">
          <g id="Group_150758" data-name="Group 150758">
            <path id="Path_262374" data-name="Path 262374" d="M932.009,3013.165l.157-.1a58.049,58.049,0,0,1,5.962-3.4,32.764,32.764,0,0,1,7.441-1.795l.187-.023-.089-.722-.186.023a32.851,32.851,0,0,0-7.656,1.856,58.96,58.96,0,0,0-6.057,3.451l-.157.1Z" transform="translate(-931.61 -3007.123)" fill="#fff"/>
          </g>
        </g>
      </g>
      <g id="Group_150762" data-name="Group 150762" transform="translate(42.451 181.021)">
        <g id="Group_150761" data-name="Group 150761">
          <path id="Path_262375" data-name="Path 262375" d="M367.969,3290.685l1.055.146,3.27-50.134-1.055-.147Z" transform="translate(-367.969 -3240.55)" fill="#fff"/>
        </g>
      </g>
      <g id="Group_150772" data-name="Group 150772" transform="translate(13.119 76.26)">
        <g id="Group_150763" data-name="Group 150763" transform="translate(0 0)">
          <path id="Path_262376" data-name="Path 262376" d="M308.394,2930.644c-.861,6.979-1.871,7.755-2.449,11-.593,3.329.258,4.435-.142,6.877a20.046,20.046,0,0,1-2.853,8.138c-.829,1.4-.93,3.063-1.074,6.875-.1,2.736-.365,26.507-.514,29.5l-32-4.753c.743-3.873,10.138-27.677,10.227-28.257a12.68,12.68,0,0,0-.17-5.389c-.46-1.212-.69-4.15-2.023-5.432s-.941-3.249-1.027-4.974-2.234-3.353-2.455-4.731a5.333,5.333,0,0,1,.412-3.5,5.472,5.472,0,0,0-.345-3.249,5.152,5.152,0,0,1-1.108-3.715,4.956,4.956,0,0,1,1.675-3.3,9.727,9.727,0,0,0,2.692-3.1c.522-1.2.1-3.195.267-4.591s1.8-2.775,3.97-3.164a33.444,33.444,0,0,1,6.232-.351c1.505.113,6.362.413,6.362.413a21.217,21.217,0,0,0,2.355-7.615c.37-2.492.4-8.655.7-11.152a20.551,20.551,0,0,1,1.279-5.53,3.445,3.445,0,0,1,3.395-2.236,5.532,5.532,0,0,1,3.306,1.721c1.249,1.929,1.471,4.341,1.326,7.992-.084,2.115-.6,5.167-.734,6.748-.283,3.269-.781,4.908-.032,7.326C306.546,2915,309.668,2920.3,308.394,2930.644Z" transform="translate(-269.365 -2888.378)" fill="#376ac5"/>
        </g>
        <g id="Group_150765" data-name="Group 150765" transform="translate(18.321 26.17)">
          <g id="Group_150764" data-name="Group 150764">
            <path id="Path_262377" data-name="Path 262377" d="M330.955,3014.4v-.728h.188c.047,0,4.741-.007,6.007-.07a7.741,7.741,0,0,0,3.435-.914,3.918,3.918,0,0,0,1.68-2.627,2.316,2.316,0,0,0-.836-2.664l-.578-.32.582-.316a5.039,5.039,0,0,0,1.564-1.934,5.315,5.315,0,0,0,.61-3.723,5.251,5.251,0,0,0-1.653-2l-.385-.3.4-.281a8.912,8.912,0,0,0,1.01-.835l.043-.042a4.478,4.478,0,0,0,1.4-3.224c.085-1.3-1.289-3.033-1.3-3.051l-.284-.354.407-.2a6.6,6.6,0,0,0,1.953-1.776,6.4,6.4,0,0,0,1.044-2.866,5.458,5.458,0,0,0-.331-3.117c-.7-1.363-6.466-4.775-8.628-5.975l-.164-.091.353-.636.164.091c.815.452,7.989,4.469,8.922,6.278a6.094,6.094,0,0,1,.4,3.552,7.14,7.14,0,0,1-1.189,3.209,7.911,7.911,0,0,1-1.837,1.762,5.737,5.737,0,0,1,1.215,3.221,5.2,5.2,0,0,1-1.614,3.692l-.042.042a8.052,8.052,0,0,1-.732.637,4.981,4.981,0,0,1,1.555,2.112,6.02,6.02,0,0,1-.679,4.222,6.851,6.851,0,0,1-1.437,1.917,2.825,2.825,0,0,1,.406.493,3.346,3.346,0,0,1,.367,2.641,4.616,4.616,0,0,1-2.018,3.093,8.353,8.353,0,0,1-3.77,1.015c-1.283.064-5.994.071-6.042.071Z" transform="translate(-330.954 -2976.352)" fill="#fff"/>
          </g>
        </g>
        <g id="Group_150767" data-name="Group 150767" transform="translate(12.564 54.34)">
          <g id="Group_150766" data-name="Group 150766">
            <path id="Path_262378" data-name="Path 262378" d="M327.833,3074.068c-.723,0-2.431-.008-3.393-.081-.249-.019-.494-.044-.774-.078h0c-.29-.036-.593-.079-.943-.129l.013-.188-.026.186c-.812-.116-1.924-.275-3.827-.479a43.328,43.328,0,0,1-7.1-1.5l-.179-.056.217-.694.179.056a42.79,42.79,0,0,0,6.962,1.468c1.918.206,3.038.365,3.855.482.658.094,1.133.163,1.679.2,1.188.09,3.569.079,3.669.078h.188l0,.727h-.524Z" transform="translate(-311.602 -3071.053)" fill="#fff"/>
          </g>
        </g>
        <g id="Group_150769" data-name="Group 150769" transform="translate(13.647 45.984)">
          <g id="Group_150768" data-name="Group 150768">
            <path id="Path_262379" data-name="Path 262379" d="M331.234,3046.01l-.182-.045a49.566,49.566,0,0,0-6.4-1.122c-2.838-.24-9.157-1.127-9.22-1.136l-.186-.026.1-.72.186.026c.062.009,6.349.893,9.179,1.132a50.411,50.411,0,0,1,6.517,1.141l.182.045Z" transform="translate(-315.243 -3042.96)" fill="#fff"/>
          </g>
        </g>
        <g id="Group_150771" data-name="Group 150771" transform="translate(16.981 35.323)">
          <g id="Group_150770" data-name="Group 150770">
            <path id="Path_262380" data-name="Path 262380" d="M340.2,3013.165l-.157-.1a58.09,58.09,0,0,0-5.962-3.4,32.764,32.764,0,0,0-7.441-1.795l-.186-.023.089-.722.186.023a32.85,32.85,0,0,1,7.657,1.856,58.966,58.966,0,0,1,6.056,3.451l.157.1Z" transform="translate(-326.449 -3007.123)" fill="#fff"/>
          </g>
        </g>
      </g>
      <rect id="Rectangle_293939" data-name="Rectangle 293939" width="5.051" height="228.462" transform="translate(126.283 101.026)" fill="#fff"/>
      <rect id="Rectangle_293940" data-name="Rectangle 293940" width="37.328" height="6.644" transform="translate(65.955 161.427)" fill="#fff"/>
      <rect id="Rectangle_293941" data-name="Rectangle 293941" width="37.328" height="6.644" transform="translate(153.91 161.427)" fill="#fff"/>
      <g id="Group_150775" data-name="Group 150775" transform="translate(142.527 133.05)">
        <g id="Group_150774" data-name="Group 150774">
          <g id="Group_150773" data-name="Group 150773">
            <path id="Path_262381" data-name="Path 262381" d="M704.392,3079.286" transform="translate(-704.392 -3079.286)" fill="#d8a87d"/>
          </g>
        </g>
      </g>
      <path id="Path_262382" data-name="Path 262382" d="M593.142,2813.359c-9.678,7.346-38.4,7.289-48.117,0-8.565-6.424-12.279-30.667-12.955-41.52-.481-7.716,2.652-22.007,19.361-22.007h36.4c15.109,0,18.194,14.289,17.761,22.007C604.984,2782.659,601.641,2806.909,593.142,2813.359Z" transform="translate(-440.772 -2714.785)" fill="#3d3d3d"/>
      <g id="Group_150803" data-name="Group 150803" transform="translate(93.95 47.233)">
        <g id="Group_150781" data-name="Group 150781" transform="translate(0.744 0.465)">
          <g id="Group_150780" data-name="Group 150780">
            <g id="Group_150779" data-name="Group 150779">
              <g id="Group_150778" data-name="Group 150778">
                <g id="Group_150777" data-name="Group 150777">
                  <g id="Group_150776" data-name="Group 150776">
                    <path id="Path_262383" data-name="Path 262383" d="M610.557,2808.294c0,8.786-8.16,15.934-18.191,15.934a20.174,20.174,0,0,1-9.23-2.2l-.074-.037a12.943,12.943,0,0,0-11.976,0l-.074.037a20.176,20.176,0,0,1-9.23,2.2c-10.031,0-18.191-7.148-18.191-15.934s8.16-15.934,18.191-15.934a20.179,20.179,0,0,1,9.23,2.2l.074.038a12.949,12.949,0,0,0,11.976,0l.074-.038a20.177,20.177,0,0,1,9.23-2.2C602.4,2792.36,610.557,2799.508,610.557,2808.294Z" transform="translate(-543.592 -2792.36)" fill="#81392b"/>
                  </g>
                </g>
              </g>
            </g>
          </g>
        </g>
        <g id="Group_150786" data-name="Group 150786" transform="translate(13.039 15.389)">
          <g id="Group_150785" data-name="Group 150785">
            <g id="Group_150784" data-name="Group 150784">
              <g id="Group_150783" data-name="Group 150783">
                <g id="Group_150782" data-name="Group 150782">
                  <ellipse id="Ellipse_6182" data-name="Ellipse 6182" cx="3.353" cy="5.094" rx="3.353" ry="5.094" fill="#160707"/>
                </g>
              </g>
            </g>
          </g>
        </g>
        <g id="Group_150791" data-name="Group 150791" transform="translate(49.756 15.687)">
          <g id="Group_150790" data-name="Group 150790">
            <g id="Group_150789" data-name="Group 150789">
              <g id="Group_150788" data-name="Group 150788">
                <g id="Group_150787" data-name="Group 150787">
                  <ellipse id="Ellipse_6183" data-name="Ellipse 6183" cx="3.353" cy="5.094" rx="3.353" ry="5.094" fill="#160707"/>
                </g>
              </g>
            </g>
          </g>
        </g>
        <g id="Group_150796" data-name="Group 150796" transform="translate(46.594 8.595)">
          <g id="Group_150795" data-name="Group 150795">
            <g id="Group_150794" data-name="Group 150794">
              <g id="Group_150793" data-name="Group 150793">
                <g id="Group_150792" data-name="Group 150792">
                  <path id="Path_262384" data-name="Path 262384" d="M712.69,2823.34c-.112-.045-8-2.425-14.554-1.461l-.411-1.839c3.74-.551,4.179-.393,8.816.065a26.265,26.265,0,0,1,6.433,1.537Z" transform="translate(-697.725 -2819.69)" fill="#160707"/>
                </g>
              </g>
            </g>
          </g>
        </g>
        <g id="Group_150801" data-name="Group 150801" transform="translate(6.375 8.529)">
          <g id="Group_150800" data-name="Group 150800">
            <g id="Group_150799" data-name="Group 150799">
              <g id="Group_150798" data-name="Group 150798">
                <g id="Group_150797" data-name="Group 150797">
                  <path id="Path_262385" data-name="Path 262385" d="M562.834,2823.3c.111-.047,7.961-2.551,14.529-1.691l.382-1.844c-3.748-.492-4.184-.327-8.814.2a26.269,26.269,0,0,0-6.407,1.638Z" transform="translate(-562.523 -2819.471)" fill="#160707"/>
                </g>
              </g>
            </g>
          </g>
        </g>
        <g id="Group_150802" data-name="Group 150802" transform="translate(0 0)">
          <path id="Path_262386" data-name="Path 262386" d="M590.779,2790.8a20.261,20.261,0,0,0-9.4,2.281l-.075.04a12.986,12.986,0,0,1-12.2,0l-.075-.04a20.261,20.261,0,0,0-9.4-2.281c-10.219,0-18.531,7.412-18.531,16.522s8.312,16.522,18.531,16.522a20.261,20.261,0,0,0,9.4-2.281l.075-.039a12.98,12.98,0,0,1,12.2,0c.026.013.05.027.075.039a20.261,20.261,0,0,0,9.4,2.281c10.219,0,18.531-7.411,18.531-16.522S601,2790.8,590.779,2790.8Zm0,31.868a19.107,19.107,0,0,1-8.716-2.083,16.514,16.514,0,0,1-6.367-5.67.589.589,0,0,0-.988,0,17.921,17.921,0,0,1-15.084,7.753c-9.569,0-17.355-6.884-17.355-15.346s7.786-15.346,17.355-15.346a19.109,19.109,0,0,1,8.716,2.083,16.519,16.519,0,0,1,6.367,5.67.588.588,0,0,0,.988,0,17.921,17.921,0,0,1,15.084-7.753c9.57,0,17.355,6.884,17.355,15.346S600.348,2822.666,590.779,2822.666Z" transform="translate(-541.092 -2790.798)" fill="#160707"/>
        </g>
      </g>
      <path id="Path_262387" data-name="Path 262387" d="M624.632,2906.669H607.276c-5.531,0-10.015-5.427-10.015-12.123v-10.491c0-9.914,10.5-25.411,18.693-25.411h0c8.19,0,18.693,15.5,18.693,25.411v10.491C634.647,2901.241,630.163,2906.669,624.632,2906.669Z" transform="translate(-486.603 -2791.229)" fill="#203451"/>
      <g id="Group_150804" data-name="Group 150804" transform="translate(91.298 83.798)">
        <path id="Path_262388" data-name="Path 262388" d="M603,2913.718l-12.405.019a3.394,3.394,0,0,0-2.506,1.2H550.853a3.394,3.394,0,0,0-2.506-1.2l-12.405-.019c-2.353,0-4.088,2.422-3.714,5.192l3.188,23.566c.381,2.82,2.771,4.7,5.061,3.989l11.89-3.707a3.431,3.431,0,0,0,2.046-1.874h30.117a3.431,3.431,0,0,0,2.046,1.874l11.89,3.707c2.29.714,4.68-1.169,5.061-3.989l3.188-23.566C607.088,2916.14,605.353,2913.714,603,2913.718Zm-48.238,24.32-2.74-20.257h34.9l-2.74,20.257Z" transform="translate(-532.177 -2913.718)" fill="#160707"/>
        <path id="Path_262389" data-name="Path 262389" d="M757.319,2913.718h-.328a5.55,5.55,0,0,1,.6,3.421l-3.409,25.2a5.313,5.313,0,0,1-2.343,3.832l.945.295c2.29.714,4.68-1.169,5.061-3.989l3.188-23.566C761.407,2916.14,759.673,2913.714,757.319,2913.718Z" transform="translate(-686.496 -2913.718)" fill="#3f3f3f"/>
        <path id="Path_262390" data-name="Path 262390" d="M535.941,2913.718h.328a5.546,5.546,0,0,0-.6,3.421l3.408,25.2a5.313,5.313,0,0,0,2.343,3.832l-.945.295c-2.291.714-4.68-1.169-5.061-3.989l-3.188-23.566C531.853,2916.14,533.588,2913.714,535.941,2913.718Z" transform="translate(-532.177 -2913.718)" fill="#3f3f3f"/>
        <path id="Path_262391" data-name="Path 262391" d="M631.955,2958.2h-8.427a8.764,8.764,0,0,1-8.764-8.764v-7.585c0-7.167,5.81-18.371,12.978-18.371h0c7.167,0,12.978,11.2,12.978,18.371v7.585A8.764,8.764,0,0,1,631.955,2958.2Z" transform="translate(-590.197 -2920.577)" fill="#160707"/>
        <path id="Path_262392" data-name="Path 262392" d="M632.172,2964.436A11.269,11.269,0,1,0,643.44,2975.7,11.269,11.269,0,0,0,632.172,2964.436Zm2.022,9.243a2.851,2.851,0,0,0-1.63-.807v-4.828a7.644,7.644,0,0,1,5.03,2.235Zm-2.189-.828a2.849,2.849,0,0,0-1.837.812l-3.4-3.4a7.643,7.643,0,0,1,5.237-2.224Zm-2.2,1.242a2.849,2.849,0,0,0-.5,1.611H624.5a7.637,7.637,0,0,1,1.884-5.032Zm-.442,2.17a2.852,2.852,0,0,0,.781,1.463l-3.4,3.4a7.645,7.645,0,0,1-2.222-4.863Zm1.215,1.819a2.843,2.843,0,0,0,1.424.475v4.812a7.634,7.634,0,0,1-4.847-1.865Zm1.983.454a2.841,2.841,0,0,0,1.22-.467l3.421,3.421a7.633,7.633,0,0,1-4.64,1.874Zm1.649-.827a2.854,2.854,0,0,0,.765-1.446h4.84a7.643,7.643,0,0,1-2.206,4.845Zm.821-2a2.848,2.848,0,0,0-.484-1.592l3.422-3.422a7.637,7.637,0,0,1,1.869,5.014Z" transform="translate(-594.509 -2949.349)" fill="#3f3f3f"/>
      </g>
    </g>
  </g>
</svg>
