<svg xmlns="http://www.w3.org/2000/svg" xmlns:xlink="http://www.w3.org/1999/xlink" width="400" height="296.095" viewBox="0 0 400 296.095">
  <defs>
    <linearGradient id="linear-gradient" x1="0.5" x2="0.5" y2="1" gradientUnits="objectBoundingBox">
      <stop offset="0" stop-color="#d8ccec"/>
      <stop offset="1" stop-color="#c3fff8"/>
    </linearGradient>
  </defs>
  <g id="_8" data-name="8" transform="translate(-1020 -2923)">
    <rect id="BG" width="400" height="296.095" rx="14" transform="translate(1020 2923)" fill="url(#linear-gradient)"/>
    <circle id="Ellipse_6325" data-name="Ellipse 6325" cx="113.5" cy="113.5" r="113.5" transform="translate(1105.811 2957.882)" fill="#fff"/>
    <g id="Group_156802" data-name="Group 156802" transform="translate(2461.906 3215.975)">
      <rect id="Rectangle_294658" data-name="Rectangle 294658" width="51.919" height="20.822" transform="translate(-1263.074 -106.979)" fill="#ffa700"/>
      <rect id="Rectangle_294659" data-name="Rectangle 294659" width="57.884" height="20.822" transform="translate(-1266.057 -110.992)" fill="#091e2d"/>
      <g id="Group_156797" data-name="Group 156797" transform="translate(-1344.88 -234.831)">
        <path id="Path_265697" data-name="Path 265697" d="M-1279.94-224.275l-81.218,96.667c-11.827,14.075-2.152,25.59,21.5,25.59h81.219V-234.831C-1266.236-234.831-1274.029-231.312-1279.94-224.275Z" transform="translate(1366.207 234.831)" fill="#d6e2f5"/>
        <path id="Path_265698" data-name="Path 265698" d="M-1234.392-127.607l-81.219-96.667c-5.915-7.037-13.708-10.556-21.5-10.556v132.814h81.219C-1232.244-102.017-1222.569-113.533-1234.392-127.607Z" transform="translate(1444.876 234.831)" fill="#c0d3ee"/>
      </g>
      <path id="Path_265699" data-name="Path 265699" d="M-1339.662-133.811c-23.649,0-33.323-7.623-21.5-16.942l81.218-64c11.823-9.315,31.172-9.315,43,0l81.219,64c11.823,9.319,2.148,16.942-21.5,16.942Z" transform="translate(21.327 35.39)" fill="#131a24"/>
      <g id="Group_156800" data-name="Group 156800" transform="translate(-1374.095 -166.336)">
        <g id="Group_156798" data-name="Group 156798" transform="translate(172.063)">
          <path id="Path_265700" data-name="Path 265700" d="M-1324.344-134.093c-7.111-4.108-2.333-25.694,10.671-48.217s29.313-37.454,36.424-33.35,2.333,25.694-10.671,48.217S-1317.233-129.989-1324.344-134.093Z" transform="translate(1327.64 216.338)" fill="#091e2d"/>
          <rect id="Rectangle_294660" data-name="Rectangle 294660" width="94.185" height="44.606" transform="translate(3.297 82.245) rotate(-60)" fill="#091e2d"/>
          <path id="Path_265701" data-name="Path 265701" d="M-1313.914-128.074c-7.111-4.1-2.333-25.69,10.671-48.217s29.309-37.454,36.42-33.346,2.337,25.694-10.667,48.217S-1306.8-123.966-1313.914-128.074Z" transform="translate(1355.841 232.62)" fill="#091e2d"/>
          <path id="Path_265702" data-name="Path 265702" d="M-1322.6-133.088c-7.112-4.108-2.337-25.694,10.667-48.221s29.313-37.454,36.424-33.346,2.334,25.694-10.67,48.217S-1315.493-128.984-1322.6-133.088Z" transform="translate(1332.341 219.052)" fill="#091e2d"/>
          <path id="Path_265703" data-name="Path 265703" d="M-1314.052-136.919c-5.185-2.993-.137-21.438,11.271-41.2s24.86-33.357,30.046-30.364.133,21.438-11.275,41.2S-1308.87-133.926-1314.052-136.919Z" transform="translate(1358.868 236.465)" fill="#ffa700"/>
          <path id="Path_265704" data-name="Path 265704" d="M-1307.258-178.606c12.567-21.764,28.205-36.446,35.694-33.772l-5.685-3.282c-7.111-4.1-23.42,10.826-36.424,33.35s-17.782,44.109-10.671,48.217l5.686,3.282C-1324.718-135.956-1319.822-156.842-1307.258-178.606Z" transform="translate(1327.64 216.338)" fill="#ffa700"/>
        </g>
        <g id="Group_156799" data-name="Group 156799" transform="translate(0)">
          <path id="Path_265705" data-name="Path 265705" d="M-1310.69-134.093c7.112-4.108,2.333-25.694-10.671-48.217s-29.309-37.454-36.42-33.35-2.337,25.694,10.667,48.217S-1317.8-129.989-1310.69-134.093Z" transform="translate(1409.29 216.338)" fill="#091e2d"/>
          <rect id="Rectangle_294661" data-name="Rectangle 294661" width="44.606" height="94.185" transform="translate(12.877 22.982) rotate(-30)" fill="#091e2d"/>
          <ellipse id="Ellipse_6312" data-name="Ellipse 6312" cx="14.869" cy="47.092" rx="14.869" ry="47.092" transform="translate(0 30.417) rotate(-30)" fill="#091e2d"/>
          <path id="Path_265706" data-name="Path 265706" d="M-1312.427-133.088c7.112-4.108,2.333-25.694-10.67-48.221s-29.312-37.454-36.424-33.346-2.333,25.694,10.671,48.217S-1319.537-128.984-1312.427-133.088Z" transform="translate(1404.589 219.052)" fill="#091e2d"/>
          <path id="Path_265707" data-name="Path 265707" d="M-1327.033-136.919c5.181-2.993.134-21.438-11.275-41.2s-24.86-33.357-30.042-30.364-.137,21.438,11.271,41.2S-1332.218-133.926-1327.033-136.919Z" transform="translate(1384.116 236.465)" fill="#ffa700"/>
          <path id="Path_265708" data-name="Path 265708" d="M-1326.032-178.606c-12.564-21.764-28.205-36.446-35.691-33.772l5.686-3.282c7.111-4.1,23.416,10.826,36.42,33.35s17.782,44.109,10.671,48.217l-5.685,3.282C-1308.572-135.956-1313.469-156.842-1326.032-178.606Z" transform="translate(1407.546 216.338)" fill="#ffa700"/>
        </g>
      </g>
      <g id="Group_156801" data-name="Group 156801" transform="translate(-1280.414 -183.853)">
        <circle id="Ellipse_6313" data-name="Ellipse 6313" cx="36.415" cy="36.415" r="36.415" transform="translate(1.506 13.207) rotate(-9.246)" fill="#fff"/>
        <circle id="Ellipse_6314" data-name="Ellipse 6314" cx="33.171" cy="33.171" r="33.171" transform="matrix(0.381, -0.925, 0.925, 0.381, 0, 61.348)" fill="#080e15"/>
        <circle id="Ellipse_6315" data-name="Ellipse 6315" cx="29.563" cy="29.563" r="29.563" transform="translate(9.372 18.866) rotate(-9.241)" fill="#fff"/>
        <path id="Path_265709" data-name="Path 265709" d="M-1331.556-207.034a3.211,3.211,0,0,0-3.211-3.211,3.211,3.211,0,0,0-3.211,3.211,3.214,3.214,0,0,0,3.211,3.215A3.214,3.214,0,0,0-1331.556-207.034Z" transform="translate(1378.066 250.331)" fill="#080e15"/>
        <path id="Path_265710" data-name="Path 265710" d="M-1331.556-210.1a3.214,3.214,0,0,0-3.211-3.215,3.214,3.214,0,0,0-3.211,3.215,3.211,3.211,0,0,0,3.211,3.211A3.211,3.211,0,0,0-1331.556-210.1Z" transform="translate(1378.066 242.027)" fill="#080e15"/>
        <path id="Path_265711" data-name="Path 265711" d="M-1331.556-213.175a3.211,3.211,0,0,0-3.211-3.211,3.211,3.211,0,0,0-3.211,3.211,3.211,3.211,0,0,0,3.211,3.211A3.211,3.211,0,0,0-1331.556-213.175Z" transform="translate(1378.066 233.726)" fill="#080e15"/>
        <path id="Path_265712" data-name="Path 265712" d="M-1331.556-200.892a3.211,3.211,0,0,0-3.211-3.211,3.211,3.211,0,0,0-3.211,3.211,3.211,3.211,0,0,0,3.211,3.211A3.211,3.211,0,0,0-1331.556-200.892Z" transform="translate(1378.066 266.938)" fill="#080e15"/>
        <path id="Path_265713" data-name="Path 265713" d="M-1336.838-213.649a3.219,3.219,0,0,0-4.545,0,3.219,3.219,0,0,0,0,4.545,3.219,3.219,0,0,0,4.545,0A3.22,3.22,0,0,0-1336.838-213.649Z" transform="translate(1366.324 238.589)" fill="#080e15"/>
        <path id="Path_265714" data-name="Path 265714" d="M-1328.153-204.961a3.208,3.208,0,0,0-4.541,0,3.208,3.208,0,0,0,0,4.541,3.208,3.208,0,0,0,4.541,0A3.209,3.209,0,0,0-1328.153-204.961Z" transform="translate(1389.808 262.073)" fill="#080e15"/>
        <path id="Path_265715" data-name="Path 265715" d="M-1340.906-210.245a3.213,3.213,0,0,0-3.214,3.211,3.217,3.217,0,0,0,3.214,3.215,3.216,3.216,0,0,0,3.212-3.215A3.213,3.213,0,0,0-1340.906-210.245Z" transform="translate(1361.459 250.331)" fill="#080e15"/>
        <path id="Path_265716" data-name="Path 265716" d="M-1328.626-210.245a3.211,3.211,0,0,0-3.211,3.211,3.214,3.214,0,0,0,3.211,3.215,3.213,3.213,0,0,0,3.211-3.215A3.21,3.21,0,0,0-1328.626-210.245Z" transform="translate(1394.673 250.331)" fill="#080e15"/>
        <path id="Path_265717" data-name="Path 265717" d="M-1341.382-204.961a3.214,3.214,0,0,0,0,4.541,3.212,3.212,0,0,0,4.545,0,3.215,3.215,0,0,0,0-4.541A3.212,3.212,0,0,0-1341.382-204.961Z" transform="translate(1366.324 262.073)" fill="#080e15"/>
        <path id="Path_265718" data-name="Path 265718" d="M-1332.694-213.649a3.212,3.212,0,0,0,0,4.545,3.215,3.215,0,0,0,4.541,0,3.213,3.213,0,0,0,0-4.545A3.215,3.215,0,0,0-1332.694-213.649Z" transform="translate(1389.808 238.589)" fill="#080e15"/>
        <path id="Path_265719" data-name="Path 265719" d="M-1331.556-203.963a3.211,3.211,0,0,0-3.211-3.211,3.211,3.211,0,0,0-3.211,3.211,3.211,3.211,0,0,0,3.211,3.211A3.211,3.211,0,0,0-1331.556-203.963Z" transform="translate(1378.066 258.635)" fill="#080e15"/>
        <circle id="Ellipse_6316" data-name="Ellipse 6316" cx="3.212" cy="3.212" r="3.212" transform="translate(32.045 32.044)" fill="#080e15"/>
        <path id="Path_265720" data-name="Path 265720" d="M-1330.324-207.132a3.212,3.212,0,0,0-4.545,0,3.214,3.214,0,0,0,0,4.541,3.212,3.212,0,0,0,4.545,0A3.214,3.214,0,0,0-1330.324-207.132Z" transform="translate(1383.938 256.203)" fill="#080e15"/>
        <path id="Path_265721" data-name="Path 265721" d="M-1337.838-210.245a3.211,3.211,0,0,0-3.212,3.211,3.214,3.214,0,0,0,3.212,3.215,3.213,3.213,0,0,0,3.211-3.215A3.21,3.21,0,0,0-1337.838-210.245Z" transform="translate(1369.762 250.331)" fill="#080e15"/>
        <path id="Path_265722" data-name="Path 265722" d="M-1331.7-210.245a3.21,3.21,0,0,0-3.211,3.211,3.214,3.214,0,0,0,3.211,3.215,3.214,3.214,0,0,0,3.212-3.215A3.211,3.211,0,0,0-1331.7-210.245Z" transform="translate(1386.37 250.331)" fill="#080e15"/>
        <circle id="Ellipse_6317" data-name="Ellipse 6317" cx="3.212" cy="3.212" r="3.212" transform="translate(32.045 48.129)" fill="#080e15"/>
        <path id="Path_265723" data-name="Path 265723" d="M-1334.868-211.475a3.214,3.214,0,0,0,0,4.541,3.212,3.212,0,0,0,4.545,0,3.214,3.214,0,0,0,0-4.541A3.212,3.212,0,0,0-1334.868-211.475Z" transform="translate(1383.938 244.46)" fill="#080e15"/>
      </g>
    </g>
  </g>
</svg>
