<svg xmlns="http://www.w3.org/2000/svg" xmlns:xlink="http://www.w3.org/1999/xlink" width="400" height="296.095" viewBox="0 0 400 296.095">
  <defs>
    <linearGradient id="linear-gradient" x1="0.5" x2="0.5" y2="1" gradientUnits="objectBoundingBox">
      <stop offset="0" stop-color="#d8ccec"/>
      <stop offset="1" stop-color="#c3fff8"/>
    </linearGradient>
  </defs>
  <g id="_9" data-name="9" transform="translate(-180 -3286)">
    <rect id="BG" width="400" height="296.095" rx="14" transform="translate(180 3286)" fill="url(#linear-gradient)"/>
    <circle id="Ellipse_6326" data-name="Ellipse 6326" cx="113.5" cy="113.5" r="113.5" transform="translate(265 3319.883)" fill="#fff"/>
    <g id="Group_156819" data-name="Group 156819" transform="translate(1685.965 3487.059)">
      <g id="Group_156813" data-name="Group 156813" transform="translate(-1354.09 -160.661)">
        <path id="Path_265737" data-name="Path 265737" d="M-1253.625-22.83c-58.871-14.21-63.008-107.012-140.911-120.541-4.792-.938-9.825-5.085-5.775-10.017h0c4.046-5.2,12.162-8.287,18.625-6.969,58.872,14.21,132.874,87.574,140.911,120.541C-1234.647-23.894-1247.161-21.511-1253.625-22.83Z" transform="translate(1401.791 160.661)" fill="#131a24"/>
      </g>
      <g id="Group_156814" data-name="Group 156814" transform="translate(-1420.572 -160.661)">
        <path id="Path_265738" data-name="Path 265738" d="M-1406.359-22.83c58.872-14.21,63.009-107.012,140.91-120.541,4.793-.938,9.825-5.085,5.776-10.017h0c-4.046-5.2-12.159-8.287-18.625-6.969-58.872,14.21-132.875,87.574-140.911,120.541C-1425.337-23.894-1412.823-21.511-1406.359-22.83Z" transform="translate(1420.852 160.661)" fill="#1b2739"/>
      </g>
      <g id="Group_156815" data-name="Group 156815" transform="translate(-1420.965 -67.245)">
        <path id="Path_265739" data-name="Path 265739" d="M-1366.384-133.878c-26.8,0-53.978,11.273-54.572,38.07-.61,27.422,27.771,62.559,54.572,62.887,23.491.286,34.46-8.824,41.59-21.025,5.246-8.978,8.43-18.828,18.827-18.828v-61.1Z" transform="translate(1420.965 133.878)" fill="#0b2543"/>
        <path id="Path_265740" data-name="Path 265740" d="M-1327.573-133.878h-60.421v61.1c10.4,0,13.582,9.85,18.831,18.828,7.129,12.2,18.1,21.311,41.589,21.025,26.8-.328,55.178-35.465,54.571-62.887C-1273.6-122.605-1300.769-133.878-1327.573-133.878Z" transform="translate(1502.992 133.878)" fill="#131a24"/>
      </g>
      <g id="Group_156816" data-name="Group 156816" transform="translate(-1410.991 -57.273)">
        <path id="Path_265741" data-name="Path 265741" d="M-1295.614-123.468c-8.067-4.869-19.417-7.551-31.959-7.551h-60.421v41.161h0c14.611,0,20.669,11.283,25.1,19.525.8,1.486,1.549,2.888,2.341,4.245,4.883,8.353,12.13,16.086,31.9,16.086.317,0,.635,0,.955,0,8.444-.1,18.3-5.347,27.024-14.381,9.117-9.438,15.448-21.363,17.209-31.928a34.308,34.308,0,0,0,.492-6.383C-1283.173-111.661-1287.306-118.452-1295.614-123.468Z" transform="translate(1493.019 131.019)" fill="#c0d3ee"/>
        <path id="Path_265742" data-name="Path 265742" d="M-1373.5-131.019c-12.542,0-23.892,2.682-31.959,7.551-8.308,5.016-12.441,11.807-12.64,20.77a33.806,33.806,0,0,0,.492,6.39c1.761,10.561,8.088,22.486,17.206,31.921,8.73,9.034,18.577,14.276,27.024,14.381.321,0,.638,0,.956,0,19.772,0,27.017-7.733,31.9-16.086.795-1.357,1.549-2.759,2.344-4.245,4.426-8.242,10.484-19.525,25.1-19.525v-41.161Z" transform="translate(1418.105 131.019)" fill="#d6e2f5"/>
      </g>
      <g id="Group_156817" data-name="Group 156817" transform="translate(-1251.217 -57.273)" opacity="0.4">
        <path id="Path_265743" data-name="Path 265743" d="M-1322.514-96.315a16.594,16.594,0,0,1-4.489-.262c-19.577-4.726-33.1-18.141-45.293-34.443h5.671c12.542,0,23.892,2.682,31.959,7.551,8.308,5.016,12.441,11.807,12.644,20.77A34.287,34.287,0,0,1-1322.514-96.315Z" transform="translate(1372.297 131.019)" fill="#0b2543"/>
      </g>
      <g id="Group_156818" data-name="Group 156818" transform="translate(-1410.991 -57.273)" opacity="0.4">
        <path id="Path_265744" data-name="Path 265744" d="M-1373.5-131.019h5.6c-12.19,16.3-25.716,29.717-45.293,34.443a16.748,16.748,0,0,1-4.412.269,33.806,33.806,0,0,1-.492-6.39c.2-8.964,4.332-15.755,12.64-20.77C-1397.389-128.337-1386.04-131.019-1373.5-131.019Z" transform="translate(1418.105 131.019)" fill="#032e54"/>
      </g>
    </g>
  </g>
</svg>
