<svg xmlns="http://www.w3.org/2000/svg" width="180" height="180" viewBox="0 0 180 180">
  <g id="_9" data-name="9" transform="translate(-365.176 -3867.816)">
    <g id="Group_158313" data-name="Group 158313">
      <circle id="Ellipse_6159" data-name="Ellipse 6159" cx="90" cy="90" r="90" transform="translate(365.176 3867.816)" fill="#fff"/>
    </g>
    <g id="Group_156776" data-name="Group 156776" transform="translate(2233.855 4603.763)">
      <g id="Group_156771" data-name="Group 156771" transform="translate(-1843.855 -726.874)">
        <path id="Path_265638" data-name="Path 265638" d="M-1718.4-596.737c-.091,1.249-.195,2.472-.3,3.669-1.106,12.918-2.693,22.845-4.761,27.216h-.013a1.116,1.116,0,0,1-1.028.833h-109.972a1.1,1.1,0,0,1-1.015-.833h-.025c-2.055-4.371-3.642-14.3-4.762-27.216-.1-1.2-.195-2.42-.286-3.669-1.991-26.111-2.16-62.578-.534-90.509.078-1.236.143-2.459.235-3.656,1.092-16.717,2.888-29.883,5.347-35.114h.025a1.1,1.1,0,0,1,1.015-.859H-1724.5a1.115,1.115,0,0,1,1.028.859h.013c2.472,5.231,4.254,18.4,5.36,35.114.078,1.2.156,2.42.222,3.656C-1716.253-659.314-1716.422-622.847-1718.4-596.737Z" transform="translate(1843.607 726.874)" fill="#7453d8"/>
        <rect id="Rectangle_294641" data-name="Rectangle 294641" width="128.243" height="46.835" rx="7.885" transform="translate(0 57.512)" fill="#fda929"/>
        <path id="Path_265639" data-name="Path 265639" d="M-1718.112-573.783c-.091,1.249-.195,2.472-.3,3.669h-121.576c-.1-1.2-.195-2.42-.286-3.669Z" transform="translate(1843.318 703.92)" fill="#c60012"/>
        <path id="Path_265640" data-name="Path 265640" d="M-1717.685-680.9H-1840.9c.078-1.236.143-2.459.235-3.656h122.76C-1717.828-683.36-1717.75-682.137-1717.685-680.9Z" transform="translate(1843.412 720.529)" fill="#c60012"/>
        <path id="Path_265641" data-name="Path 265641" d="M-1809-565.019h-19.514a1.1,1.1,0,0,1-1.015-.833h-.026c-2.055-4.371-3.643-14.3-4.761-27.216-.1-1.2-.2-2.42-.287-3.669-1.991-26.111-2.16-62.578-.533-90.509.077-1.236.143-2.459.234-3.656,1.093-16.717,2.888-29.883,5.347-35.114h.026a1.1,1.1,0,0,1,1.015-.859H-1809a1.1,1.1,0,0,0-1.015.859h-.025c-2.459,5.231-4.255,18.4-5.347,35.114-.091,1.2-.156,2.42-.235,3.656-1.626,27.931-1.457,64.4.534,90.509.091,1.249.182,2.472.286,3.669,1.12,12.918,2.707,22.845,4.762,27.216h.025A1.1,1.1,0,0,0-1809-565.019Z" transform="translate(1842.714 726.874)" fill="#fff" opacity="0.15"/>
        <path id="Path_265642" data-name="Path 265642" d="M-1717.378-596.737c-.091,1.249-.195,2.472-.3,3.669-1.106,12.918-2.693,22.845-4.761,27.216h-.013a1.116,1.116,0,0,1-1.028.833h-109.972a1.1,1.1,0,0,1-1.015-.833h-.025a18.059,18.059,0,0,1-.885-2.316h93.709a1.116,1.116,0,0,0,1.028-.832h.013c2.069-4.372,3.656-14.3,4.762-27.217.1-1.2.208-2.42.3-3.669,1.977-26.111,2.146-62.577.52-90.509-.065-1.236-.143-2.458-.221-3.656-.976-14.662-2.459-26.592-4.476-32.824h16.263a1.115,1.115,0,0,1,1.028.859h.013c2.472,5.231,4.254,18.4,5.36,35.114.078,1.2.156,2.42.222,3.656C-1715.23-659.314-1715.4-622.847-1717.378-596.737Z" transform="translate(1842.584 726.874)" fill="#c10012" opacity="0.31" style="mix-blend-mode: multiply;isolation: isolate"/>
        <g id="Group_156769" data-name="Group 156769" transform="translate(0 29.889)">
          <path id="Path_265643" data-name="Path 265643" d="M-1719.568-683.8H-1839.9a3.967,3.967,0,0,1-3.956-3.955h0a3.967,3.967,0,0,1,3.956-3.956h120.331a3.967,3.967,0,0,1,3.956,3.956h0A3.967,3.967,0,0,1-1719.568-683.8Z" transform="translate(1843.855 691.713)" fill="#fda929"/>
          <path id="Path_265644" data-name="Path 265644" d="M-1719.568-573.022H-1839.9a3.967,3.967,0,0,1-3.956-3.955h0a3.967,3.967,0,0,1,3.956-3.956h120.331a3.967,3.967,0,0,1,3.956,3.956h0A3.967,3.967,0,0,1-1719.568-573.022Z" transform="translate(1843.855 675.103)" fill="#fda929"/>
        </g>
        <g id="Group_156770" data-name="Group 156770" transform="translate(0 29.884)" opacity="0.28" style="mix-blend-mode: screen;isolation: isolate">
          <path id="Path_265645" data-name="Path 265645" d="M-1715.618-687.765h-128.237a3.987,3.987,0,0,1,1.158-2.8,3.943,3.943,0,0,1,2.8-1.158h120.327A3.97,3.97,0,0,1-1715.618-687.765Z" transform="translate(1843.855 691.719)" fill="#fff"/>
          <path id="Path_265646" data-name="Path 265646" d="M-1715.618-577.015h-128.237a3.959,3.959,0,0,1,1.158-2.758,3.943,3.943,0,0,1,2.8-1.158h120.327A3.971,3.971,0,0,1-1715.618-577.015Z" transform="translate(1843.855 675.108)" fill="#fff"/>
        </g>
      </g>
      <g id="Group_156775" data-name="Group 156775" transform="translate(-1812.288 -678.595)">
        <rect id="Rectangle_294642" data-name="Rectangle 294642" width="65.081" height="65.285" rx="32.541" fill="#29398a"/>
        <g id="Group_156774" data-name="Group 156774" transform="translate(10.475 6.632)">
          <rect id="Rectangle_294643" data-name="Rectangle 294643" width="10.813" height="10.813" transform="translate(23.188 13.769)" fill="#29398a"/>
          <rect id="Rectangle_294644" data-name="Rectangle 294644" width="10.813" height="10.813" transform="translate(10.131 13.769)" fill="#29398a"/>
          <ellipse id="Ellipse_6310" data-name="Ellipse 6310" cx="4.312" cy="3.806" rx="4.312" ry="3.806" transform="translate(17.724 21.112)" fill="#29398a"/>
          <g id="Group_156773" data-name="Group 156773">
            <path id="Path_265647" data-name="Path 265647" d="M-1756.992-653.025c0-6.643-8.1-9-13.451-9.253h-.984c-5.338.255-13.411,2.61-13.411,9.253,0,7.076,1.4,7.686,1.4,10.027s-1.4,3.161-1.4,4.611a3.532,3.532,0,0,0,3.5,3.5c2.348,0,1.692-1.751,2.846-1.751.846,0,1.85,1.292,1.85,2.551s-.669,1.817-.669,2.919c0,1.521,1.01,1.561,1.515,1.561s.669-.439.669-.866.019-.925.315-.925.046,1.909.171,1.954a8.06,8.06,0,0,0,1.817.116c.124-.092-.145-1.611.249-1.636s.6-.046.609.17-.071,1.6.335,1.6c.3,0,.57,0,.7-.007s.387.007.689.007c.406,0,.321-1.391.341-1.6s.216-.2.609-.17.125,1.593.25,1.685a8.127,8.127,0,0,0,1.822-.164c.125-.045-.124-1.954.171-1.954s.315.492.315.925.177.866.676.866,1.515-.04,1.515-1.561c0-1.1-.669-1.659-.669-2.919s1.01-2.551,1.856-2.551c1.161,0,.5,1.751,2.853,1.751a3.539,3.539,0,0,0,3.515-3.5c0-1.449-1.409-2.277-1.409-4.611S-1756.992-645.949-1756.992-653.025Zm-20.442,13.871c-2.3,0-4.643-3.017-4.643-4.952s2.708-3.109,4.551-3.109,4.735,2.184,4.735,3.909C-1772.791-641.031-1775.125-639.155-1777.434-639.155Zm7.949,4.754c-.276,0-.99-1.312-1.443-1.312s-1.167,1.312-1.443,1.312-1.961.072-1.568-1.312.722-4.675,3-4.7v-.007a.023.023,0,0,0,.013.007c.007,0,.007-.007.014-.007v.007c2.269.026,2.61,3.325,3,4.7S-1769.209-634.4-1769.485-634.4Zm5.088-4.754c-2.308,0-4.643-1.876-4.643-4.152,0-1.725,2.893-3.909,4.735-3.909s4.551,1.174,4.551,3.109S-1762.094-639.155-1764.4-639.155Z" transform="translate(1792.964 662.278)" fill="#ffc500"/>
            <g id="Group_156772" data-name="Group 156772" transform="translate(0 25.985)">
              <path id="Path_265648" data-name="Path 265648" d="M-1757.42-617.127c-1.322-.246-3.118,2.017-4.4,1.743l-26.074-10.779c-.62-.438-1-1.632-.248-2.19,1.03-.768.154-2.322-.938-2.828-.837-.389-2.724-.652-3.274,1.091-.369,1.168.369,1.644,0,2.674-.525,1.467-1.506,1.2-1.936,2.305a2.538,2.538,0,0,0,1.537,3.013c1.322.246,2.354-1.348,3.637-1.074l0,0,26.469,10.943h0c.627.431,1.367.8.615,1.361-1.029.768-.154,2.321.938,2.828.837.389,2.724.652,3.274-1.091.369-1.168-.369-1.644,0-2.674.525-1.467,1.506-1.2,1.937-2.305A2.539,2.539,0,0,0-1757.42-617.127Z" transform="translate(1794.398 631.673)" fill="#ffc500"/>
              <path id="Path_265649" data-name="Path 265649" d="M-1749.458-625.352c-.43-1.106-1.411-.838-1.937-2.305-.369-1.029.369-1.506,0-2.674-.551-1.744-2.437-1.48-3.274-1.091-1.091.507-1.967,2.06-.938,2.828.752.562.369,1.768-.258,2.2l-26.229,10.843c-1.278.188-3.035-1.991-4.334-1.749a2.538,2.538,0,0,0-1.537,3.013c.43,1.107,1.411.839,1.937,2.305.369,1.03-.369,1.506,0,2.675.551,1.743,2.437,1.48,3.273,1.091,1.091-.507,1.968-2.06.938-2.828-.751-.561-.013-.93.615-1.361v-.021l26.57-10.985c1.282-.275,2.315,1.32,3.637,1.074A2.539,2.539,0,0,0-1749.458-625.352Z" transform="translate(1793.449 631.709)" fill="#ffc500"/>
            </g>
          </g>
        </g>
      </g>
    </g>
  </g>
</svg>
