<svg xmlns="http://www.w3.org/2000/svg" width="180" height="180" viewBox="0 0 180 180">
  <g id="_9" data-name="9" transform="translate(-12449 -1761)">
    <circle id="Ellipse_6161" data-name="Ellipse 6161" cx="90" cy="90" r="90" transform="translate(12449 1761)" fill="#fff"/>
    <g id="pasos" transform="translate(12463.011 1774.081)">
      <g id="Group_158198" data-name="Group 158198" transform="translate(63.421 62.641)">
        <path id="Path_266859" data-name="Path 266859" d="M242.128,223.633A13.535,13.535,0,1,0,228.6,237.164,13.536,13.536,0,0,0,242.128,223.633Z" transform="translate(-215.058 -210.102)" fill="#f9f7f8" fill-rule="evenodd"/>
      </g>
      <g id="Group_158199" data-name="Group 158199" transform="translate(47.942 47.161)">
        <path id="Path_266860" data-name="Path 266860" d="M191.587,173.091a13.531,13.531,0,1,1-13.539,13.531A13.536,13.536,0,0,1,191.587,173.091Zm12.657-7.827a24.719,24.719,0,0,0-6.5-2.7v-2.656a2.31,2.31,0,0,0-2.306-2.3h-7.7a2.3,2.3,0,0,0-2.3,2.3v2.656a24.608,24.608,0,0,0-6.5,2.7l-1.882-1.873a2.3,2.3,0,0,0-3.256,0l-5.446,5.437a2.3,2.3,0,0,0,0,3.256l1.882,1.882a24.713,24.713,0,0,0-2.7,6.5h-2.656a2.317,2.317,0,0,0-2.306,2.306v7.694a2.311,2.311,0,0,0,2.306,2.306h2.656a24.608,24.608,0,0,0,2.7,6.5l-1.882,1.882a2.3,2.3,0,0,0,0,3.256l5.446,5.446a2.317,2.317,0,0,0,3.256,0l1.882-1.882a24.594,24.594,0,0,0,6.5,2.7v2.656a2.31,2.31,0,0,0,2.3,2.306h7.7a2.317,2.317,0,0,0,2.306-2.306v-2.656a24.732,24.732,0,0,0,6.5-2.7l1.873,1.882a2.327,2.327,0,0,0,3.264,0l5.437-5.446a2.3,2.3,0,0,0,0-3.256l-1.873-1.882a24.885,24.885,0,0,0,2.7-6.5h2.648a2.306,2.306,0,0,0,2.306-2.306v-7.694a2.312,2.312,0,0,0-2.306-2.306h-2.648a24.724,24.724,0,0,0-2.7-6.5l1.873-1.882a2.3,2.3,0,0,0,0-3.256l-5.437-5.437a2.312,2.312,0,0,0-3.264,0Z" transform="translate(-162.569 -157.611)" fill="#eae5f9" fill-rule="evenodd"/>
      </g>
      <g id="Group_158200" data-name="Group 158200" transform="translate(73.338 47.161)">
        <path id="Path_266861" data-name="Path 266861" d="M256.156,157.611h-6.62a56.319,56.319,0,0,1,4.372,15.571,13.537,13.537,0,0,1-.267,26.912,51.05,51.05,0,0,1-4.954,15.546h7.469a2.317,2.317,0,0,0,2.306-2.306v-2.656a24.731,24.731,0,0,0,6.5-2.7l1.873,1.882a2.327,2.327,0,0,0,3.264,0l5.437-5.446a2.3,2.3,0,0,0,0-3.256l-1.874-1.882a24.884,24.884,0,0,0,2.7-6.5h2.648a2.306,2.306,0,0,0,2.306-2.306v-7.694a2.312,2.312,0,0,0-2.306-2.306h-2.648a24.721,24.721,0,0,0-2.7-6.5l1.874-1.882a2.3,2.3,0,0,0,0-3.256l-5.437-5.437a2.312,2.312,0,0,0-3.264,0l-1.873,1.874a24.719,24.719,0,0,0-6.5-2.7v-2.656a2.31,2.31,0,0,0-2.306-2.3Z" transform="translate(-248.687 -157.611)" fill="#cec3f1" fill-rule="evenodd"/>
      </g>
      <g id="Group_158201" data-name="Group 158201" transform="translate(78.292 62.733)">
        <path id="Path_266862" data-name="Path 266862" d="M277.686,223.852a13.544,13.544,0,0,0-11.932-13.439,88.58,88.58,0,0,1-.267,26.913A13.542,13.542,0,0,0,277.686,223.852Z" transform="translate(-265.487 -210.413)" fill="#dddaec" fill-rule="evenodd"/>
      </g>
      <g id="Group_158202" data-name="Group 158202" transform="translate(2.828 3.179)">
        <path id="Path_266863" data-name="Path 266863" d="M46.144,36.3A19.283,19.283,0,1,0,28.874,47.02,19.163,19.163,0,0,0,46.144,36.3Z" transform="translate(-9.59 -8.467)" fill="#dfe1ee" fill-rule="evenodd"/>
      </g>
      <g id="Group_158203" data-name="Group 158203" transform="translate(39.382 8.306)">
        <path id="Path_266864" data-name="Path 266864" d="M135.55,40a19.159,19.159,0,0,1-2.007,8.56h37.445v2.523a2.808,2.808,0,0,0,4.413,2.556L190.68,42.427c2.123-1.282,2.123-3.564,0-4.846L175.4,26.364a2.8,2.8,0,0,0-4.413,2.548v2.523H133.543A19.194,19.194,0,0,1,135.55,40Z" transform="translate(-133.543 -25.854)" fill="#f9f7f8" fill-rule="evenodd"/>
      </g>
      <g id="Group_158204" data-name="Group 158204" transform="translate(110.05 3.179)">
        <path id="Path_266865" data-name="Path 266865" d="M373.177,27.744A19.28,19.28,0,1,0,392.461,8.467,19.281,19.281,0,0,0,373.177,27.744Z" transform="translate(-373.177 -8.467)" fill="#7453d8" fill-rule="evenodd"/>
      </g>
      <g id="Group_158205" data-name="Group 158205" transform="translate(115.181 39.734)">
        <path id="Path_266866" data-name="Path 266866" d="M396.162,132.424v37.438h-2.523c-2.681.05-3.805,2.49-2.548,4.413l11.216,15.28c1.274,2.123,3.564,2.123,4.838,0l11.216-15.28c1.257-1.924.133-4.363-2.548-4.413H413.29V132.424a19.348,19.348,0,0,1-17.128,0Z" transform="translate(-390.577 -132.424)" fill="#f9f7f8" fill-rule="evenodd"/>
      </g>
      <g id="Group_158206" data-name="Group 158206" transform="translate(110.216 110.612)">
        <path id="Path_266867" data-name="Path 266867" d="M393.018,372.771a19.281,19.281,0,1,0,19.276,19.285A19.259,19.259,0,0,0,393.018,372.771Z" transform="translate(-373.742 -372.771)" fill="#fee1b4" fill-rule="evenodd"/>
      </g>
      <g id="Group_158207" data-name="Group 158207" transform="translate(53.493 115.743)">
        <path id="Path_266868" data-name="Path 266868" d="M240.125,395.757H202.68v-2.523a2.8,2.8,0,0,0-4.413-2.548L182.987,401.9c-2.123,1.274-2.123,3.564,0,4.838l15.279,11.216a2.8,2.8,0,0,0,4.413-2.548v-2.523h37.445a19.278,19.278,0,0,1,0-17.128Z" transform="translate(-181.395 -390.171)" fill="#f9f7f8" fill-rule="evenodd"/>
      </g>
      <g id="Group_158208" data-name="Group 158208" transform="translate(2.212 110.612)">
        <path id="Path_266869" data-name="Path 266869" d="M46.052,392.056a19.28,19.28,0,1,0-19.276,19.277A19.272,19.272,0,0,0,46.052,392.056Z" transform="translate(-7.5 -372.771)" fill="#b1edd1" fill-rule="evenodd"/>
      </g>
      <g id="Group_158209" data-name="Group 158209" transform="translate(7.339 53.89)">
        <path id="Path_266870" data-name="Path 266870" d="M47.594,239.156V201.719h2.531a2.812,2.812,0,0,0,2.548-4.421L41.457,182.026c-1.282-2.132-3.564-2.132-4.846,0L25.4,197.3a2.812,2.812,0,0,0,2.548,4.421h2.523v37.438a19.277,19.277,0,0,1,17.128,0Z" transform="translate(-24.885 -180.427)" fill="#f9f7f8" fill-rule="evenodd"/>
      </g>
      <g id="Group_158210" data-name="Group 158210" transform="translate(14.452 3.179)">
        <path id="Path_266871" data-name="Path 266871" d="M56.667,47.02A19.277,19.277,0,1,0,52.253,8.975a19.281,19.281,0,0,1-3.247,36.463,19.245,19.245,0,0,0,7.661,1.582Z" transform="translate(-49.006 -8.467)" fill="#b4bad6" fill-rule="evenodd"/>
      </g>
      <g id="Group_158211" data-name="Group 158211" transform="translate(13.828 110.612)">
        <path id="Path_266872" data-name="Path 266872" d="M73.825,392.056a19.292,19.292,0,0,0-23.689-18.777c.308.133.608.275.908.425a19.283,19.283,0,0,1-4.155,36.047,19.286,19.286,0,0,0,26.936-17.695Z" transform="translate(-46.889 -372.771)" fill="#20cb7d" fill-rule="evenodd"/>
      </g>
      <g id="Group_158212" data-name="Group 158212" transform="translate(121.841 110.612)">
        <path id="Path_266873" data-name="Path 266873" d="M428.022,390.973a19.291,19.291,0,0,1-14.863,18.777,19.28,19.28,0,1,0,3.247-36.472A19.286,19.286,0,0,1,428.022,390.973Z" transform="translate(-413.159 -372.771)" fill="#fda929" fill-rule="evenodd"/>
      </g>
      <g id="Group_158213" data-name="Group 158213" transform="translate(121.674 3.179)">
        <path id="Path_266874" data-name="Path 266874" d="M428.814,45.022A19.284,19.284,0,0,0,415.841,8.975a19.273,19.273,0,0,1-3.247,36.463,19.334,19.334,0,0,0,16.22-.416Z" transform="translate(-412.594 -8.467)" fill="#5c42ac" fill-rule="evenodd"/>
      </g>
      <g id="Group_158214" data-name="Group 158214" transform="translate(18.332 53.89)">
        <path id="Path_266875" data-name="Path 266875" d="M65.911,212.094v25.064a19.227,19.227,0,0,1,7.968,2V201.719h2.531a2.812,2.812,0,0,0,2.548-4.421L67.743,182.026c-1.282-2.132-3.564-2.132-4.846,0l-.733,1,8.818,12.024c1.257,1.915.133,4.363-2.548,4.413C64.57,199.462,65.911,207.714,65.911,212.094Z" transform="translate(-62.164 -180.427)" fill="#dddaec" fill-rule="evenodd"/>
      </g>
      <g id="Group_158215" data-name="Group 158215" transform="translate(95.97 121.328)">
        <path id="Path_266876" data-name="Path 266876" d="M329.7,411.242a28.352,28.352,0,0,1-4.272,15h16.254a19.278,19.278,0,0,1,0-17.128H329.628C329.678,409.81,329.7,410.526,329.7,411.242Z" transform="translate(-325.431 -409.11)" fill="#dddaec" fill-rule="evenodd"/>
      </g>
      <g id="Group_158216" data-name="Group 158216" transform="translate(125.163 39.734)">
        <path id="Path_266877" data-name="Path 266877" d="M428.821,134.424V163.71c0,3.281-.633,6.154,2.523,6.154a2.806,2.806,0,0,1,2.548,4.413l-9.467,12.9,1.748,2.382c1.274,2.123,3.564,2.123,4.838,0l11.216-15.28c1.258-1.924.133-4.363-2.548-4.413h-2.523V132.426A19.184,19.184,0,0,1,428.821,134.424Z" transform="translate(-424.424 -132.426)" fill="#dddaec" fill-rule="evenodd"/>
      </g>
      <g id="Group_158217" data-name="Group 158217" transform="translate(65.269 8.306)">
        <path id="Path_266878" data-name="Path 266878" d="M232.884,31.435h-10.95a44.372,44.372,0,0,1,.566,7.094,42.293,42.293,0,0,1-1.174,10.034h11.557v2.523a2.808,2.808,0,0,0,4.413,2.556l15.279-11.216c2.123-1.282,2.123-3.564,0-4.846L237.3,26.364a2.8,2.8,0,0,0-4.413,2.548Z" transform="translate(-221.327 -25.854)" fill="#dddaec" fill-rule="evenodd"/>
      </g>
      <g id="Group_158218" data-name="Group 158218" transform="translate(0 0.967)">
        <path id="Path_266879" data-name="Path 266879" d="M160.172,197.514a4.459,4.459,0,0,0,1.322,3.178l5.445,5.446a4.53,4.53,0,0,0,6.384,0l.706-.706a26.764,26.764,0,0,0,3.9,1.618v1a4.519,4.519,0,0,0,4.51,4.518h7.7a4.524,4.524,0,0,0,4.518-4.518v-1a26.947,26.947,0,0,0,3.9-1.618l.71.713a4.547,4.547,0,0,0,6.386-.008l5.429-5.437a4.513,4.513,0,0,0,.011-6.388l-.705-.708a27.035,27.035,0,0,0,1.622-3.9H213a4.524,4.524,0,0,0,4.518-4.518v-7.694A4.524,4.524,0,0,0,213,172.968h-.988a26.9,26.9,0,0,0-1.621-3.906l.693-.7a4.513,4.513,0,0,0,.007-6.391l-5.437-5.437a4.523,4.523,0,0,0-6.392,0l-.7.7a26.962,26.962,0,0,0-3.9-1.619v-1a4.519,4.519,0,0,0-4.518-4.51h-7.7a4.515,4.515,0,0,0-4.51,4.51v1a26.765,26.765,0,0,0-3.907,1.62l-.7-.7a4.486,4.486,0,0,0-3.195-1.322h-.011a4.459,4.459,0,0,0-3.177,1.321l-5.447,5.439a4.514,4.514,0,0,0,0,6.384l.707.707a26.934,26.934,0,0,0-1.619,3.9h-1a4.524,4.524,0,0,0-4.518,4.518v7.694a4.524,4.524,0,0,0,4.518,4.518h1a26.772,26.772,0,0,0,1.618,3.9l-.706.706A4.488,4.488,0,0,0,160.172,197.514Zm-.586-12.238a.1.1,0,0,1-.095-.095v-7.694a.108.108,0,0,1,.095-.095h2.656a2.212,2.212,0,0,0,2.143-1.665,22.523,22.523,0,0,1,2.457-5.922,2.212,2.212,0,0,0-.338-2.692l-1.889-1.889a.066.066,0,0,1-.019-.053.088.088,0,0,1,.025-.066l5.454-5.446a.066.066,0,0,1,.053-.019h0a.091.091,0,0,1,.07.03l1.882,1.874a2.211,2.211,0,0,0,2.692.333,22.37,22.37,0,0,1,5.918-2.455,2.212,2.212,0,0,0,1.664-2.143v-2.656a.091.091,0,0,1,.086-.086h7.7a.1.1,0,0,1,.095.086v2.656a2.212,2.212,0,0,0,1.664,2.143,22.521,22.521,0,0,1,5.922,2.457,2.212,2.212,0,0,0,2.692-.338l1.874-1.874a.1.1,0,0,1,.136,0l5.437,5.437a.087.087,0,0,1,.027.068.077.077,0,0,1-.03.064l-1.874,1.882a2.212,2.212,0,0,0-.335,2.689,22.526,22.526,0,0,1,2.457,5.922,2.211,2.211,0,0,0,2.143,1.664H213a.1.1,0,0,1,.095.095v7.694a.1.1,0,0,1-.095.095h-2.648a2.212,2.212,0,0,0-2.143,1.664,22.639,22.639,0,0,1-2.458,5.924,2.212,2.212,0,0,0,.336,2.687l1.877,1.885a.087.087,0,0,1,.027.068.074.074,0,0,1-.028.062L202.536,203a.117.117,0,0,1-.14.011l-1.874-1.882a2.212,2.212,0,0,0-2.7-.341,22.519,22.519,0,0,1-5.922,2.457,2.212,2.212,0,0,0-1.665,2.143v2.656a.108.108,0,0,1-.095.095h-7.7a.1.1,0,0,1-.086-.095V205.39a2.212,2.212,0,0,0-1.665-2.143,22.362,22.362,0,0,1-5.918-2.455,2.212,2.212,0,0,0-2.7.336L170.2,203a.107.107,0,0,1-.135.007l-5.453-5.453a.067.067,0,0,1-.019-.053.087.087,0,0,1,.027-.068l1.882-1.882a2.212,2.212,0,0,0,.336-2.7,22.364,22.364,0,0,1-2.455-5.918,2.212,2.212,0,0,0-2.143-1.665h-2.656Z" transform="translate(-109.339 -106.128)"/>
        <path id="Path_266880" data-name="Path 266880" d="M223.309,234.088a15.743,15.743,0,1,0-15.751-15.743A15.761,15.761,0,0,0,223.309,234.088Zm0-27.062a11.319,11.319,0,1,1-11.327,11.319A11.332,11.332,0,0,1,223.309,207.026Z" transform="translate(-146.349 -143.14)"/>
        <path id="Path_266881" data-name="Path 266881" d="M23.585,43.944A21.5,21.5,0,0,0,42.167,33.227H76.088v.311c0,.012,0,.023,0,.034a5.245,5.245,0,0,0,2.678,4.673,4.86,4.86,0,0,0,2.295.575,5.24,5.24,0,0,0,2.856-.871c.035-.023.07-.047.1-.072L99.228,26.715a5.049,5.049,0,0,0,2.568-4.259A5.049,5.049,0,0,0,99.228,18.2L84.021,7.033c-.034-.025-.069-.049-.1-.072a5.021,5.021,0,0,0-5.155-.3,5.237,5.237,0,0,0-2.674,4.666c0,.012,0,.023,0,.034v.311H42.162A21.487,21.487,0,1,0,23.585,43.944ZM78.3,16.1a2.212,2.212,0,0,0,2.212-2.212v-2.5a.915.915,0,0,1,.331-.817.651.651,0,0,1,.625.079L96.683,21.815q.08.059.165.11c.431.26.524.487.524.53s-.093.27-.524.53q-.085.051-.165.11L81.468,34.264a.648.648,0,0,1-.621.077.921.921,0,0,1-.336-.823v-2.5A2.212,2.212,0,0,0,78.3,28.8H44.116a21.518,21.518,0,0,0,0-12.7H78.3ZM23.585,5.391A17.065,17.065,0,1,1,6.513,22.455,17.084,17.084,0,0,1,23.585,5.391Z" transform="translate(-1.473 -0.967)"/>
        <path id="Path_266882" data-name="Path 266882" d="M376.395,41.035V74.96h-.353a5.251,5.251,0,0,0-4.671,2.693,5.009,5.009,0,0,0,.313,5.142c.022.034.045.066.068.1L382.913,98.1a4.81,4.81,0,0,0,8.513,0l11.161-15.205c.024-.032.047-.065.068-.1a5.009,5.009,0,0,0,.313-5.142,5.252,5.252,0,0,0-4.671-2.693h-.353V63.691a2.212,2.212,0,0,0-4.424,0V77.172a2.212,2.212,0,0,0,2.212,2.212h2.5a.941.941,0,0,1,.827.339.632.632,0,0,1-.082.614L387.806,95.556c-.04.055-.078.112-.113.171-.256.426-.48.519-.522.519s-.266-.092-.522-.518c-.035-.059-.073-.116-.114-.171L375.363,80.337a.633.633,0,0,1-.082-.615.94.94,0,0,1,.827-.339h2.5a2.212,2.212,0,0,0,2.212-2.212V42.985a21.523,21.523,0,0,0,12.7,0V53.524a2.212,2.212,0,0,0,4.424,0V41.038a21.494,21.494,0,1,0-21.552,0Zm10.78-35.644A17.065,17.065,0,1,1,370.1,22.456,17.084,17.084,0,0,1,387.174,5.391Z" transform="translate(-257.84 -0.968)"/>
        <path id="Path_266883" data-name="Path 266883" d="M252.106,365.271a21.493,21.493,0,0,0-18.579,10.717H199.6v-.311c0-.012,0-.023,0-.034a5.24,5.24,0,0,0-2.682-4.674,5.01,5.01,0,0,0-5.152.309c-.034.022-.066.045-.1.068l-15.2,11.161a4.81,4.81,0,0,0,0,8.514l15.2,11.161c.032.024.065.046.1.068a5.239,5.239,0,0,0,2.868.88,4.853,4.853,0,0,0,2.284-.571,5.241,5.241,0,0,0,2.683-4.674c0-.012,0-.023,0-.034v-.311h33.921a21.488,21.488,0,1,0,18.581-32.268Zm-54.714,27.845a2.212,2.212,0,0,0-2.212,2.212v2.5a.932.932,0,0,1-.334.822.645.645,0,0,1-.62-.081L179.008,387.4q-.083-.061-.171-.114c-.426-.256-.519-.48-.519-.522s.092-.267.519-.522c.059-.035.116-.073.171-.114l15.218-11.172a.644.644,0,0,1,.62-.081.93.93,0,0,1,.334.822v2.5a2.212,2.212,0,0,0,2.212,2.212h34.186a21.524,21.524,0,0,0,0,12.7H197.392Zm54.714,10.717a17.069,17.069,0,1,1,17.073-17.065A17.084,17.084,0,0,1,252.106,403.833Z" transform="translate(-122.613 -257.838)"/>
        <path id="Path_266884" data-name="Path 266884" d="M32.259,232.556V198.641h.361a5.248,5.248,0,0,0,4.662-2.687,5.025,5.025,0,0,0-.3-5.151c-.023-.036-.047-.07-.072-.1L25.748,175.5a5.045,5.045,0,0,0-4.26-2.575,5.045,5.045,0,0,0-4.26,2.575L6.066,190.7c-.025.034-.049.069-.072.1a5.025,5.025,0,0,0-.3,5.151,5.248,5.248,0,0,0,4.662,2.687h.352v12.052a2.212,2.212,0,0,0,4.423,0V196.43a2.212,2.212,0,0,0-2.212-2.212h-2.5a.921.921,0,0,1-.821-.338.654.654,0,0,1,.079-.627l11.169-15.207c.04-.055.078-.111.113-.169.242-.4.472-.527.528-.527s.286.125.528.527c.035.058.073.115.113.169L33.3,193.253a.655.655,0,0,1,.079.627.921.921,0,0,1-.821.338H30.049a2.212,2.212,0,0,0-2.212,2.212v34.177a21.511,21.511,0,0,0-12.7,0V220.86a2.212,2.212,0,0,0-4.423,0v11.7a21.488,21.488,0,1,0,21.55,0ZM21.488,268.21a17.069,17.069,0,1,1,17.064-17.065A17.084,17.084,0,0,1,21.488,268.21Z" transform="translate(0 -122.215)"/>
        <path id="Path_266885" data-name="Path 266885" d="M61.28,43.057h1.277V57.175a2.212,2.212,0,1,0,4.423,0V40.846a2.212,2.212,0,0,0-2.212-2.212H61.28a2.212,2.212,0,0,0,0,4.423Z" transform="translate(-41.649 -27.526)"/>
        <path id="Path_266886" data-name="Path 266886" d="M417.64,45.853a2.211,2.211,0,0,0,2.594-1.748,1.966,1.966,0,0,1,3.891.266l-.046.347a8.526,8.526,0,0,1-1.365,2.682c-2.569,3.665-4.11,5.684-4.937,6.768-1.076,1.41-1.616,2.118-1.246,3.322a2.283,2.283,0,0,0,1.483,1.5c.293.1.541.18,3.746.18,1.254,0,2.961-.013,5.3-.042A2.212,2.212,0,0,0,427,54.709c-1.38.017-2.835.03-4.123.035.865-1.167,2-2.728,3.456-4.806a12.67,12.67,0,0,0,2.077-4.323c.015-.068.028-.136.037-.2l.083-.633a2.244,2.244,0,0,0,.019-.288,6.389,6.389,0,0,0-12.659-1.231,2.212,2.212,0,0,0,1.748,2.595Z" transform="translate(-293.217 -27.147)"/>
        <path id="Path_266887" data-name="Path 266887" d="M57.223,412.678c.024-4.106.034-8.31-.02-8.915a3.435,3.435,0,0,0-2.288-3.1,3.317,3.317,0,0,0-3.586,1.29c-.986,1.222-5.525,9.393-6.893,11.869a2.212,2.212,0,0,0,1.936,3.281h6.4c-.008,1.01-.016,1.977-.024,2.856a2.212,2.212,0,0,0,2.192,2.231h.02A2.212,2.212,0,0,0,57.168,420c.006-.7.015-1.711.024-2.9h0a2.212,2.212,0,0,0,.027-4.423Zm-4.425,0H50.135c.965-1.722,1.9-3.373,2.684-4.724C52.815,409.34,52.808,410.98,52.8,412.678Z" transform="translate(-31.137 -282.696)"/>
        <path id="Path_266888" data-name="Path 266888" d="M423.844,402.316a6.4,6.4,0,0,0-6.268,5.161,2.212,2.212,0,0,0,4.342.846,1.966,1.966,0,1,1,1.926,2.353,2.212,2.212,0,0,0,0,4.423,1.964,1.964,0,1,1-1.945,2.257,2.363,2.363,0,0,1-.015-.3,2.212,2.212,0,1,0-4.423,0,6.633,6.633,0,0,0,.055.888,6.391,6.391,0,0,0,12.72-.888,6.35,6.35,0,0,0-1.561-4.173,6.387,6.387,0,0,0-4.83-10.571Z" transform="translate(-294.352 -283.958)"/>
      </g>
    </g>
  </g>
</svg>
